<?xml version="1.0" encoding="UTF-8" standalone="no"?>
<!-- Generated by IcoMoon.io -->

<svg
   xmlns:dc="http://purl.org/dc/elements/1.1/"
   xmlns:cc="http://creativecommons.org/ns#"
   xmlns:rdf="http://www.w3.org/1999/02/22-rdf-syntax-ns#"
   xmlns:svg="http://www.w3.org/2000/svg"
   xmlns="http://www.w3.org/2000/svg"
   xmlns:sodipodi="http://sodipodi.sourceforge.net/DTD/sodipodi-0.dtd"
   xmlns:inkscape="http://www.inkscape.org/namespaces/inkscape"
   version="1.1"
   width="32"
   height="32"
   viewBox="0 0 32 32"
   id="svg10"
   sodipodi:docname="cam-preview.svg"
   inkscape:version="0.92.2 (5c3e80d, 2017-08-06)">
  <metadata
     id="metadata16">
    <rdf:RDF>
      <cc:Work
         rdf:about="">
        <dc:format>image/svg+xml</dc:format>
        <dc:type
           rdf:resource="http://purl.org/dc/dcmitype/StillImage" />
        <dc:title>image</dc:title>
      </cc:Work>
    </rdf:RDF>
  </metadata>
  <defs
     id="defs14" />
  <sodipodi:namedview
     pagecolor="#ffffff"
     bordercolor="#666666"
     borderopacity="1"
     objecttolerance="10"
     gridtolerance="10"
     guidetolerance="10"
     inkscape:pageopacity="0"
     inkscape:pageshadow="2"
     inkscape:window-width="1570"
     inkscape:window-height="758"
     id="namedview12"
     showgrid="false"
     inkscape:zoom="7.375"
     inkscape:cx="16"
     inkscape:cy="16"
     inkscape:window-x="0"
     inkscape:window-y="0"
     inkscape:window-maximized="0"
     inkscape:current-layer="svg10" />
  <title
     id="title2">image</title>
  <path
     d="M29.996 4c0.001 0.001 0.003 0.002 0.004 0.004v23.993c-0.001 0.001-0.002 0.003-0.004 0.004h-27.993c-0.001-0.001-0.003-0.002-0.004-0.004v-23.993c0.001-0.001 0.002-0.003 0.004-0.004h27.993zM30 2h-28c-1.1 0-2 0.9-2 2v24c0 1.1 0.9 2 2 2h28c1.1 0 2-0.9 2-2v-24c0-1.1-0.9-2-2-2v0z"
     id="path4" />
  <path
     inkscape:connector-curvature="0"
     d="m 13.220304,5.3889902 c 3.54e-4,3.672e-4 0.0011,7.357e-4 0.0014,0.00143 v 8.8201528 c -3.53e-4,3.67e-4 -7.07e-4,0.0011 -0.0014,0.0014 H 3.3127044 c -3.536e-4,-3.69e-4 -0.00106,-7.35e-4 -0.00137,-0.0014 V 5.3904176 c 3.537e-4,-3.671e-4 7.072e-4,-0.0011 0.00137,-0.00143 z m 0.0014,-0.7352272 H 3.3116003 c -0.3893243,0 -0.7078626,0.3308526 -0.7078626,0.7352272 v 8.8227248 c 0,0.404376 0.3185383,0.735228 0.7078626,0.735228 h 9.9100767 c 0.389368,0 0.707904,-0.330852 0.707904,-0.735228 V 5.3889902 c 0,-0.4043746 -0.318536,-0.7352272 -0.707861,-0.7352272 z"
     id="path4-2"
     style="stroke-width:0.3607077" />
  <path
     inkscape:connector-curvature="0"
     d="m 7.9579617,5.7631176 c -2.176795,0 -3.9410894,1.3788866 -3.9410894,3.0793993 0,1.7008551 1.7642944,3.0793991 3.9410894,3.0793991 2.1767953,0 3.9410893,-1.378886 3.9410893,-3.0793991 0,-1.7005127 -1.764294,-3.0793993 -3.9410893,-3.0793993 z m 0,4.4480214 c -0.9673185,0 -1.7515953,-0.6128006 -1.7515953,-1.3686221 0,-0.7558215 0.7842768,-1.3686219 1.7515953,-1.3686219 0.9673185,0 1.7515953,0.6128004 1.7515953,1.3686219 0,0.7558215 -0.7842768,1.3686221 -1.7515953,1.3686221 z M 8.8337594,8.8425169 c 0,0.3773975 -0.3923574,0.684311 -0.8757977,0.684311 -0.4830024,0 -0.8757976,-0.3069135 -0.8757976,-0.684311 0,-0.3773975 0.3927952,-0.684311 0.8757976,-0.684311 0.4834403,0 0.8757977,0.3069135 0.8757977,0.684311 z M 11.72214,13.119803 c 0.440088,0.390057 -0.0044,0.916292 -0.634077,0.848887 -0.786029,-0.08383 -1.4170411,-0.582348 -3.1296634,-0.582348 -1.7126223,0 -2.3436345,0.498862 -3.1296629,0.582348 -0.6301364,0.0674 -1.0746037,-0.459172 -0.6340775,-0.848887 l 1.2234893,-1.084975 c 0.7387354,0.359947 1.6070887,0.571399 2.5398132,0.571399 0.9327245,0 1.8010779,-0.211794 2.5398133,-0.571742 z"
     id="path2"
     style="stroke-width:0.38707814" />
  <path
     inkscape:connector-curvature="0"
     d="m 25.819424,22.885695 c -2.50639,-0.596621 -4.840051,-1.119604 -3.709661,-3.31974 0.291525,-0.568068 0.539322,-1.112842 0.748491,-1.636576 -0.631152,0.372701 -1.335915,0.661243 -1.719271,0.759678 l -0.163254,-0.801006 c 0.836678,-0.246463 1.740407,-0.705576 2.370102,-1.381096 1.338101,-4.721124 -0.923407,-7.2188193 -3.956,-7.2188193 -3.703831,0 -6.169407,3.7187403 -2.719932,10.2778193 1.164644,2.21291 -1.257204,2.735893 -3.709662,3.31974 -2.171135,0.516972 -2.316169,1.610277 -2.316169,3.503836 l 0.0036,0.932503 h 17.484237 l 0.0036,-0.932503 c 0,-1.893559 -0.145033,-2.986864 -2.316169,-3.503836 z M 19.395661,19.29695 c -0.321407,0.06838 -0.636254,-0.145774 -0.701847,-0.477899 -0.06705,-0.332124 0.140661,-0.656734 0.462068,-0.725113 l 1.27761,-0.292299 0.239779,1.20226 z"
     id="path2-9"
     style="stroke-width:0.74002671" />
</svg>
