<?xml version="1.0" encoding="UTF-8" standalone="no"?>
<!-- Generated by IcoMoon.io -->

<svg
   xmlns:dc="http://purl.org/dc/elements/1.1/"
   xmlns:cc="http://creativecommons.org/ns#"
   xmlns:rdf="http://www.w3.org/1999/02/22-rdf-syntax-ns#"
   xmlns:svg="http://www.w3.org/2000/svg"
   xmlns="http://www.w3.org/2000/svg"
   xmlns:sodipodi="http://sodipodi.sourceforge.net/DTD/sodipodi-0.dtd"
   xmlns:inkscape="http://www.inkscape.org/namespaces/inkscape"
   version="1.1"
   width="32"
   height="32"
   viewBox="0 0 32 32"
   id="svg10"
   sodipodi:docname="video-chat-settings.svg"
   inkscape:version="0.92.4 (5da689c313, 2019-01-14)">
  <metadata
     id="metadata16">
    <rdf:RDF>
      <cc:Work
         rdf:about="">
        <dc:format>image/svg+xml</dc:format>
        <dc:type
           rdf:resource="http://purl.org/dc/dcmitype/StillImage" />
        <dc:title>image</dc:title>
      </cc:Work>
    </rdf:RDF>
  </metadata>
  <defs
     id="defs14" />
  <sodipodi:namedview
     pagecolor="#ffffff"
     bordercolor="#666666"
     borderopacity="1"
     objecttolerance="10"
     gridtolerance="10"
     guidetolerance="10"
     inkscape:pageopacity="0"
     inkscape:pageshadow="2"
     inkscape:window-width="2438"
     inkscape:window-height="1225"
     id="namedview12"
     showgrid="false"
     inkscape:zoom="20.85965"
     inkscape:cx="7.2776432"
     inkscape:cy="20.924578"
     inkscape:window-x="0"
     inkscape:window-y="0"
     inkscape:window-maximized="0"
     inkscape:current-layer="svg10" />
  <title
     id="title2">image</title>
  <path
     d="m 24.522136,10.953995 c 8.22e-4,8.16e-4 0.0025,0.0016 0.0033,0.0033 v 19.577824 c -8.22e-4,8.16e-4 -0.0016,0.0024 -0.0033,0.0033 H 1.5109407 c -8.22e-4,-8.16e-4 -0.00247,-0.0016 -0.00329,-0.0033 v -19.57786 c 8.22e-4,-8.16e-4 0.00164,-0.0024 0.00329,-0.0033 z m 0.0033,-1.6319611 H 1.5084746 c -0.90423731,0 -1.64406782,0.7343821 -1.64406782,1.6319611 v 19.583536 c 0,0.897578 0.73983051,1.631961 1.64406782,1.631961 H 24.525424 c 0.904237,0 1.644068,-0.734383 1.644068,-1.631961 V 10.953995 c 0,-0.897579 -0.739831,-1.6319611 -1.644068,-1.6319611 z"
     id="path4"
     inkscape:connector-curvature="0"
     style="stroke-width:0.81900167" />
  <path
     inkscape:connector-curvature="0"
     d="m 10.731945,12.087384 c 2.91e-4,3e-4 9.04e-4,6.01e-4 0.0012,0.0012 v 7.197074 c -2.9e-4,3e-4 -5.81e-4,8.98e-4 -0.0012,0.0011 H 2.5875621 c -2.907e-4,-3.01e-4 -8.713e-4,-6e-4 -0.00113,-0.0011 v -7.197076 c 2.908e-4,-3e-4 5.814e-4,-8.98e-4 0.00113,-0.0012 z m 0.0012,-0.599931 H 2.5866545 c -0.3200378,0 -0.581887,0.269969 -0.581887,0.599931 v 7.199173 c 0,0.329963 0.2618492,0.599932 0.581887,0.599932 h 8.1464195 c 0.320073,0 0.581921,-0.269969 0.581921,-0.599932 v -7.199173 c 0,-0.329962 -0.261848,-0.599931 -0.581886,-0.599931 z"
     id="path4-2"
     style="stroke-width:0.2954202" />
  <path
     inkscape:connector-curvature="0"
     d="m 6.4061211,12.392665 c -1.7893993,0 -3.2397091,1.125145 -3.2397091,2.51273 0,1.387865 1.4503098,2.512731 3.2397091,2.512731 1.7893995,0 3.2397092,-1.125145 3.2397092,-2.512731 0,-1.387585 -1.4503097,-2.51273 -3.2397092,-2.51273 z m 0,3.6295 c -0.7951686,0 -1.4398707,-0.500034 -1.4398707,-1.11677 0,-0.616735 0.6447021,-1.116769 1.4398707,-1.116769 0.7951686,0 1.4398707,0.500034 1.4398707,1.116769 0,0.616736 -0.6447021,1.11677 -1.4398707,1.11677 z m 0.7199354,-1.11677 c 0,0.307949 -0.3225311,0.558384 -0.7199354,0.558384 -0.3970444,0 -0.7199353,-0.250435 -0.7199353,-0.558384 0,-0.307949 0.3228909,-0.558385 0.7199353,-0.558385 0.3974043,0 0.7199354,0.250436 0.7199354,0.558385 z m 2.3743469,3.490183 c 0.3617673,0.318279 -0.00362,0.747677 -0.5212328,0.692676 -0.6461425,-0.0684 -1.164856,-0.475185 -2.5726895,-0.475185 -1.4078336,0 -1.9265471,0.407062 -2.572689,0.475185 -0.5179935,0.055 -0.8833607,-0.374676 -0.5212332,-0.692676 L 4.3183085,17.51026 c 0.6072656,0.293709 1.3210814,0.46625 2.0878126,0.46625 0.7667311,0 1.4805471,-0.17282 2.0878128,-0.46653 z"
     id="path2"
     style="stroke-width:0.31701764" />
  <path
     inkscape:connector-curvature="0"
     d="m 21.088849,26.364357 c -2.060338,-0.486831 -3.978686,-0.913575 -3.049467,-2.708844 0.239643,-0.463532 0.443341,-0.908057 0.615285,-1.335414 -0.518829,0.304117 -1.098168,0.539562 -1.413299,0.619883 l -0.134201,-0.653606 c 0.687778,-0.201109 1.430674,-0.575736 1.948304,-1.126947 1.099965,-3.852346 -0.759071,-5.890418 -3.251966,-5.890418 -3.044674,0 -5.071461,3.034421 -2.235876,8.386502 0.957377,1.805692 -1.033464,2.232436 -3.049468,2.708844 -1.7847464,0.421839 -1.9039693,1.313955 -1.9039693,2.859062 l 0.00296,0.760905 H 22.989788 l 0.003,-0.760905 c 0,-1.545107 -0.119222,-2.437223 -1.90397,-2.859062 z M 15.808298,23.43601 c -0.264208,0.0558 -0.523023,-0.118948 -0.576942,-0.389956 -0.05512,-0.271007 0.115628,-0.535882 0.379835,-0.591678 l 1.050239,-0.23851 0.197107,0.981021 z"
     id="path2-9"
     style="stroke-width:0.6060831" />
  <path
     inkscape:connector-curvature="0"
     d="M 32.230445,5.7210023 V 3.9156695 C 31.270935,3.5995093 31.012743,3.5846506 30.878288,3.2845873 30.742938,2.9836985 30.915364,2.8020921 31.351342,1.9543204 L 29.969702,0.67770995 C 29.06469,1.0751803 28.858315,1.2406898 28.529544,1.1148035 28.204794,0.99015545 28.186479,0.747876 27.847435,-0.13456596 H 25.893127 C 25.551849,0.7503525 25.535768,0.99015545 25.210124,1.1148035 24.874207,1.2439917 24.672745,1.0735292 23.770414,0.67770995 L 22.388774,1.9543204 C 22.825199,2.8025049 22.997178,2.9832858 22.861828,3.285 22.726925,3.5850633 22.468287,3.6003348 21.509671,3.9156695 V 5.721415 c 0.955488,0.3136836 1.217254,0.3301933 1.352157,0.6306693 0.135797,0.3029526 -0.03619,0.4816698 -0.473054,1.3302669 l 1.38164,1.2766109 c 0.892951,-0.3921051 1.103346,-0.5666952 1.43971,-0.4370939 0.325197,0.1246484 0.341278,0.3632125 0.683003,1.2493698 h 1.953861 c 0.338598,-0.879553 0.356913,-1.1238961 0.686577,-1.2510205 0.332791,-0.1271244 0.529784,0.040858 1.436137,0.4383315 l 1.38164,-1.2766105 C 30.91581,6.8358178 30.742938,6.6533859 30.878288,6.3516716 31.012297,6.052021 31.271382,6.0367496 32.230445,5.7210023 Z m -2.177657,0.3153346 c -0.257745,0.5753621 -0.03037,1.0145193 0.217989,1.4767902 L 29.786555,7.9605389 C 29.298313,7.7364203 28.821239,7.516429 28.1905,7.7582955 27.566908,7.9980988 27.390909,8.4570679 27.213123,8.9457542 H 26.527886 C 26.350101,8.4566549 26.174547,7.9976858 25.552743,7.7591216 24.918877,7.516429 24.432868,7.7405455 23.954007,7.9605389 L 23.470232,7.5131271 C 23.719043,7.0516817 23.946414,6.61335 23.687774,6.0355114 23.429136,5.4613876 22.932407,5.2991801 22.403069,5.1349089 V 4.5021756 C 22.932407,4.3379044 23.429136,4.1756969 23.687328,3.6007476 23.94552,3.0253854 23.717703,2.5858154 23.469339,2.1235445 L 23.95356,1.6761324 c 0.483329,0.2220551 0.965764,0.4445229 1.599183,0.201418 0.621804,-0.238152 0.797358,-0.6975337 0.975143,-1.18663272 h 0.685237 c 0.177786,0.48909902 0.353785,0.94806792 0.97559,1.18663272 0.633866,0.2426922 1.119428,0.018574 1.598736,-0.201418 l 0.484221,0.4474121 c -0.248365,0.4626836 -0.475734,0.9026664 -0.217989,1.4776158 0.257746,0.5741238 0.754474,0.7363313 1.284259,0.9010153 v 0.633146 c -0.530677,0.1642712 -1.0283,0.3264788 -1.285152,0.9010153 z m -3.18273,-2.4562264 c 0.73884,0 1.340097,0.5555504 1.340097,1.2382253 0,0.682675 -0.601257,1.2382254 -1.340097,1.2382254 -0.73884,0 -1.340097,-0.5555504 -1.340097,-1.2382254 0,-0.6826749 0.601257,-1.2382253 1.340097,-1.2382253 z m 0,-0.8254837 c -1.233783,0 -2.233495,0.9237162 -2.233495,2.063709 0,1.1399929 0.999712,2.0637091 2.233495,2.0637091 1.233783,0 2.233495,-0.9237162 2.233495,-2.0637091 0,-1.1399928 -0.999712,-2.063709 -2.233495,-2.063709 z"
     id="path2-7"
     style="stroke-width:0.42938486" />
</svg>
