<?xml version="1.0" encoding="UTF-8" standalone="no"?>
<svg
   xmlns:dc="http://purl.org/dc/elements/1.1/"
   xmlns:cc="http://creativecommons.org/ns#"
   xmlns:rdf="http://www.w3.org/1999/02/22-rdf-syntax-ns#"
   xmlns:svg="http://www.w3.org/2000/svg"
   xmlns="http://www.w3.org/2000/svg"
   xmlns:sodipodi="http://sodipodi.sourceforge.net/DTD/sodipodi-0.dtd"
   xmlns:inkscape="http://www.inkscape.org/namespaces/inkscape"
   width="24"
   height="24"
   viewBox="0 0 24 24"
   version="1.1"
   id="svg4"
   sodipodi:docname="cam-setup.svg"
   inkscape:version="0.92.2 (5c3e80d, 2017-08-06)">
  <metadata
     id="metadata10">
    <rdf:RDF>
      <cc:Work
         rdf:about="">
        <dc:format>image/svg+xml</dc:format>
        <dc:type
           rdf:resource="http://purl.org/dc/dcmitype/StillImage" />
        <dc:title></dc:title>
      </cc:Work>
    </rdf:RDF>
  </metadata>
  <defs
     id="defs8" />
  <sodipodi:namedview
     pagecolor="#ffffff"
     bordercolor="#666666"
     borderopacity="1"
     objecttolerance="10"
     gridtolerance="10"
     guidetolerance="10"
     inkscape:pageopacity="0"
     inkscape:pageshadow="2"
     inkscape:window-width="1452"
     inkscape:window-height="722"
     id="namedview6"
     showgrid="false"
     inkscape:zoom="9.8333333"
     inkscape:cx="12"
     inkscape:cy="12"
     inkscape:window-x="0"
     inkscape:window-y="0"
     inkscape:window-maximized="0"
     inkscape:current-layer="svg4" />
  <path
     d="M 9.5593429,6.8135593 C 5.9363992,6.8135593 3,9.6994105 3,13.258388 c 0,3.559694 2.9363992,6.444829 6.5593429,6.444829 3.6229441,0 6.5593431,-2.885851 6.5593431,-6.444829 0,-3.5589775 -2.936399,-6.4448287 -6.5593431,-6.4448287 z m 0,9.3091977 c -1.6099543,0 -2.9152635,-1.282521 -2.9152635,-2.864369 0,-1.581847 1.3053092,-2.864368 2.9152635,-2.864368 1.6099541,0 2.9152631,1.282521 2.9152631,2.864368 0,1.581848 -1.305309,2.864369 -2.9152631,2.864369 z m 1.4576321,-2.864369 c 0,0.78985 -0.653019,1.432184 -1.4576321,1.432184 -0.8038839,0 -1.4576318,-0.642334 -1.4576318,-1.432184 0,-0.789849 0.6537479,-1.432184 1.4576318,-1.432184 0.8046131,0 1.4576321,0.642335 1.4576321,1.432184 z m 4.807269,8.951867 c 0.73246,0.816345 -0.0073,1.917695 -1.055325,1.776625 -1.308225,-0.175443 -2.358448,-1.218789 -5.2088473,-1.218789 -2.8503989,0 -3.9006226,1.044062 -5.2088471,1.218789 -1.048766,0.14107 -1.7885141,-0.960996 -1.0553254,-1.776625 l 2.0363116,-2.270728 c 1.2295124,0.753329 2.6747543,1.195874 4.2271321,1.195874 1.5523781,0 2.9976201,-0.443261 4.2271321,-1.19659 z"
     id="path2"
     inkscape:connector-curvature="0"
     style="stroke-width:0.722426" />
  <path
     inkscape:connector-curvature="0"
     d="M 22.271187,6.0109578 V 4.5653137 C 21.497544,4.3121442 21.289365,4.3002459 21.180954,4.0599663 21.071823,3.8190255 21.210852,3.6736019 21.562373,2.9947374 L 20.448369,1.9724747 C 19.718665,2.2907543 19.552267,2.4232883 19.287182,2.3224831 19.025339,2.2226696 19.010573,2.0286611 18.737204,1.3220339 H 17.161462 C 16.886293,2.0306441 16.873327,2.2226696 16.610764,2.3224831 16.339915,2.4259323 16.17748,2.2894325 15.449937,1.9724747 l -1.114005,1.0222627 c 0.351886,0.6791949 0.490551,0.8239576 0.38142,1.0655593 -0.108771,0.2402797 -0.317309,0.2525085 -1.090233,0.505017 v 1.4459746 c 0.770403,0.2511864 0.981462,0.2644067 1.090233,0.5050169 0.109492,0.2425933 -0.02917,0.3857034 -0.38142,1.0652289 l 1.114005,1.0222628 c 0.719978,-0.3139829 0.889619,-0.4537885 1.160827,-0.3500085 0.262202,0.099814 0.275168,0.2908471 0.550698,1.0004494 h 1.575382 c 0.273008,-0.7043137 0.287775,-0.8999751 0.55358,-1.0017716 0.268327,-0.1017964 0.427161,0.032722 1.157945,0.351 l 1.114004,-1.0222625 c -0.351165,-0.6775425 -0.49055,-0.8236273 -0.381419,-1.065229 0.108051,-0.2399492 0.316949,-0.252178 1.090233,-0.5050169 z m -1.755826,0.2525085 c -0.207817,0.4607288 -0.02449,0.8123898 0.175762,1.1825593 L 20.300701,7.8042969 C 19.907034,7.6248308 19.522373,7.4486697 19.013814,7.6423477 18.511017,7.8343733 18.369111,8.2018984 18.225764,8.5932205 h -0.5525 C 17.529915,8.2015684 17.388369,7.8340426 16.887014,7.6430087 16.375932,7.4486697 15.984068,7.6281358 15.597966,7.8042969 L 15.207903,7.4460256 C 15.408517,7.0765172 15.591844,6.7255172 15.383306,6.2628052 15.174767,5.8030679 14.774258,5.6731781 14.347459,5.5416357 V 5.0349663 C 14.774258,4.9034239 15.174767,4.773534 15.382945,4.3131357 15.591123,3.8524068 15.407437,3.5004154 15.207182,3.1302459 l 0.390425,-0.3582711 c 0.389702,0.1778135 0.778686,0.3559575 1.289407,0.161288 0.501355,-0.1907033 0.642901,-0.5585593 0.78625,-0.9502119 h 0.5525 c 0.143347,0.3916526 0.285253,0.759178 0.786609,0.9502119 0.511081,0.194339 0.902585,0.014873 1.289047,-0.161288 l 0.390424,0.3582711 c -0.200255,0.3705 -0.38358,0.722822 -0.175763,1.1832204 0.207818,0.4597373 0.608326,0.589627 1.035487,0.7215 v 0.507 c -0.427881,0.1315423 -0.82911,0.2614322 -1.036207,0.7215 z m -2.566208,-1.966856 c 0.59572,0 1.080508,0.4448645 1.080508,0.9915254 0,0.546661 -0.484788,0.9915255 -1.080508,0.9915255 -0.595721,0 -1.080509,-0.4448645 -1.080509,-0.9915255 0,-0.5466609 0.484788,-0.9915254 1.080509,-0.9915254 z m 0,-0.661017 c -0.994788,0 -1.800847,0.739678 -1.800847,1.6525424 0,0.9128645 0.806059,1.6525424 1.800847,1.6525424 0.994788,0 1.800848,-0.7396779 1.800848,-1.6525424 0,-0.9128644 -0.80606,-1.6525424 -1.800848,-1.6525424 z"
     id="path2-1"
     style="stroke-width:0.34502038" />
</svg>
