<?xml version="1.0" encoding="UTF-8" standalone="no"?>
<svg
   xmlns:dc="http://purl.org/dc/elements/1.1/"
   xmlns:cc="http://creativecommons.org/ns#"
   xmlns:rdf="http://www.w3.org/1999/02/22-rdf-syntax-ns#"
   xmlns:svg="http://www.w3.org/2000/svg"
   xmlns="http://www.w3.org/2000/svg"
   xmlns:sodipodi="http://sodipodi.sourceforge.net/DTD/sodipodi-0.dtd"
   xmlns:inkscape="http://www.inkscape.org/namespaces/inkscape"
   width="24"
   height="24"
   viewBox="0 0 24 24"
   version="1.1"
   id="svg4"
   sodipodi:docname="cam-rotate.svg"
   inkscape:version="0.92.2 (5c3e80d, 2017-08-06)">
  <metadata
     id="metadata10">
    <rdf:RDF>
      <cc:Work
         rdf:about="">
        <dc:format>image/svg+xml</dc:format>
        <dc:type
           rdf:resource="http://purl.org/dc/dcmitype/StillImage" />
        <dc:title></dc:title>
      </cc:Work>
    </rdf:RDF>
  </metadata>
  <defs
     id="defs8" />
  <sodipodi:namedview
     pagecolor="#ffffff"
     bordercolor="#666666"
     borderopacity="1"
     objecttolerance="10"
     gridtolerance="10"
     guidetolerance="10"
     inkscape:pageopacity="0"
     inkscape:pageshadow="2"
     inkscape:window-width="909"
     inkscape:window-height="480"
     id="namedview6"
     showgrid="false"
     inkscape:zoom="9.8333333"
     inkscape:cx="12"
     inkscape:cy="12"
     inkscape:window-x="182"
     inkscape:window-y="31"
     inkscape:window-maximized="0"
     inkscape:current-layer="svg4" />
  <path
     d="M13.5 2c-5.288 0-9.649 3.914-10.377 9h-3.123l4 5.917 4-5.917h-2.847c.711-3.972 4.174-7 8.347-7 4.687 0 8.5 3.813 8.5 8.5s-3.813 8.5-8.5 8.5c-3.015 0-5.662-1.583-7.171-3.957l-1.2 1.775c1.916 2.536 4.948 4.182 8.371 4.182 5.797 0 10.5-4.702 10.5-10.5s-4.703-10.5-10.5-10.5z"
     id="path2" />
  <path
     inkscape:connector-curvature="0"
     d="m 8.5504267,11.556403 c -0.1357164,2.580249 1.6129563,4.769308 3.9051633,4.889873 2.292669,0.12059 4.260876,-1.872967 4.396593,-4.453216 C 16.987899,9.4128099 15.239227,7.2237511 12.947019,7.1031853 10.654812,6.9826194 8.686143,8.9761529 8.5504267,11.556403 Z m 5.9957123,0.315364 c -0.06031,1.146604 -0.93523,2.032794 -1.954041,1.979207 -1.01881,-0.05359 -1.795937,-1.026673 -1.735628,-2.173277 0.06031,-1.146605 0.935231,-2.0327968 1.954041,-1.9792093 1.018811,0.053588 1.795938,1.0266743 1.735628,2.1732793 z M 12.755908,10.73661 c 0.508713,0.02676 0.897955,0.513595 0.867814,1.086639 -0.03011,0.572524 -0.468307,1.016361 -0.977021,0.989604 -0.508713,-0.02676 -0.897927,-0.514115 -0.867814,-1.086639 0.03014,-0.573044 0.468308,-1.016362 0.977021,-0.989604 z m 5.945651,-3.1204663 c 0.553216,-0.494 1.234844,0.070158 1.104726,0.8117859 -0.162002,0.9257707 -0.873325,1.6383924 -0.980102,3.6684374 -0.106777,2.030047 0.526324,2.813382 0.589852,3.751016 0.05157,0.751706 -0.68594,1.241219 -1.183791,0.691413 l -1.386211,-1.527179 c 0.531249,-0.850135 0.870415,-1.864441 0.928567,-2.970039 0.05815,-1.1056 -0.173196,-2.1499134 -0.61233,-3.0510881 z"
     id="path2-7"
     style="stroke-width:0.48995668" />
</svg>
