<?xml version="1.0" encoding="UTF-8" standalone="no"?>
<svg
   xmlns:dc="http://purl.org/dc/elements/1.1/"
   xmlns:cc="http://creativecommons.org/ns#"
   xmlns:rdf="http://www.w3.org/1999/02/22-rdf-syntax-ns#"
   xmlns:svg="http://www.w3.org/2000/svg"
   xmlns="http://www.w3.org/2000/svg"
   xmlns:sodipodi="http://sodipodi.sourceforge.net/DTD/sodipodi-0.dtd"
   xmlns:inkscape="http://www.inkscape.org/namespaces/inkscape"
   width="24"
   height="24"
   viewBox="0 0 24 24"
   version="1.1"
   id="svg4"
   sodipodi:docname="webcam-select.svg"
   inkscape:version="0.92.2 (5c3e80d, 2017-08-06)">
  <metadata
     id="metadata10">
    <rdf:RDF>
      <cc:Work
         rdf:about="">
        <dc:format>image/svg+xml</dc:format>
        <dc:type
           rdf:resource="http://purl.org/dc/dcmitype/StillImage" />
        <dc:title></dc:title>
      </cc:Work>
    </rdf:RDF>
  </metadata>
  <defs
     id="defs8" />
  <sodipodi:namedview
     pagecolor="#ffffff"
     bordercolor="#666666"
     borderopacity="1"
     objecttolerance="10"
     gridtolerance="10"
     guidetolerance="10"
     inkscape:pageopacity="0"
     inkscape:pageshadow="2"
     inkscape:window-width="1156"
     inkscape:window-height="678"
     id="namedview6"
     showgrid="false"
     inkscape:zoom="9.8333333"
     inkscape:cx="12"
     inkscape:cy="13.182684"
     inkscape:window-x="95"
     inkscape:window-y="185"
     inkscape:window-maximized="0"
     inkscape:current-layer="svg4" />
  <path
     d="m 11.593254,1.6271186 c -2.8365779,0 -5.1356269,2.3735457 -5.1356269,5.3007223 0,2.9277657 2.299049,5.3007221 5.1356269,5.3007221 2.836578,0 5.135627,-2.3735458 5.135627,-5.3007221 0,-2.9271766 -2.299049,-5.3007223 -5.135627,-5.3007223 z m 0,7.6565983 c -1.260511,0 -2.2825008,-1.0548431 -2.2825008,-2.355876 0,-1.3010328 1.0219898,-2.3558766 2.2825008,-2.3558766 1.260511,0 2.282501,1.0548438 2.282501,2.3558766 0,1.3010329 -1.02199,2.355876 -2.282501,2.355876 z m 1.14125,-2.355876 c 0,0.649633 -0.51128,1.1779383 -1.14125,1.1779383 -0.6294,0 -1.14125,-0.5283053 -1.14125,-1.1779383 0,-0.649633 0.51185,-1.1779382 1.14125,-1.1779382 0.62997,0 1.14125,0.5283052 1.14125,1.1779382 z m 3.763845,7.3627031 c 0.573478,0.671425 -0.0057,1.577259 -0.826266,1.461232 -1.024272,-0.144298 -1.846543,-1.002426 -4.078259,-1.002426 -2.2317145,0 -3.0539854,0.858718 -4.0782578,1.002426 C 6.6944366,15.867803 6.115252,14.961379 6.689301,14.290544 l 1.5943268,-1.867622 c 0.9626448,0.619597 2.0941942,0.983579 3.3096262,0.983579 1.215432,0 2.346982,-0.364572 3.309626,-0.984167 z"
     id="path2"
     inkscape:connector-curvature="0"
     style="stroke-width:0.57972461" />
  <path
     inkscape:connector-curvature="0"
     d="m 10.237288,17.677966 v -1.649717 l 4.508475,3.299435 -4.508475,3.299435 v -1.649717 c 0,0 -7.4823768,-0.884249 -9.016949,-5.774012 3.26639,2.559536 9.016949,2.474576 9.016949,2.474576 z"
     id="path2-4"
     style="stroke-width:0.48210829" />
</svg>
