<svg xmlns="http://www.w3.org/2000/svg" xmlns:xlink="http://www.w3.org/1999/xlink" viewBox="0 0 91 87.5" version="1.1" x="0px" y="0px"><title>make_pict</title><desc>Created with Sketch.</desc><g stroke="none" stroke-width="1" fill="none" fill-rule="evenodd"><g fill="#000000"><path d="M87.3,50.282 C87.3,52.209 85.73,53.776 83.8,53.776 L81.36,53.776 L81.36,24.379 L83.8,24.379 C85.73,24.379 87.3,25.946 87.3,27.873 L87.3,50.282 Z M41.933,51.582 C40.934,50.836 39.808,50.41 38.562,50.294 L38.562,44.871 L48.947,34.126 L60.9,46.164 L69.18,41.087 L78.36,48.863 L78.36,53.776 L43.904,53.776 C43.398,52.97 42.756,52.197 41.933,51.582 Z M29.017,51.755 C28.858,51.785 28.697,51.793 28.536,51.791 L28.536,31.453 L30.859,29.333 L35.562,27.568 L35.562,50.493 C35.562,50.509 35.566,50.524 35.566,50.541 L29.017,51.755 Z M23.604,38.472 C23.675,38.281 24.736,35.539 25.108,34.58 L25.536,34.189 L25.536,50.144 C24.796,49.325 24.196,48.295 23.875,47.265 C22.94,44.267 22.826,40.569 23.604,38.472 Z M42.299,27.125 C45.124,27.125 47.089,25.94 48.421,24.379 L78.36,24.379 L78.36,44.931 L69.46,37.395 L61.36,42.365 L48.918,29.838 L38.562,40.555 L38.562,27.237 L42.299,27.125 Z M21.081,21.574 L31.639,7.092 C32.706,7.733 33.409,8.496 33.732,9.366 C34.195,10.61 33.763,11.798 33.657,12.054 L30.116,17.518 L28.727,17.796 L21.081,21.574 Z M19.941,4.095 C21.164,4.269 22.101,4.693 22.735,5.362 C23.648,6.325 23.717,7.588 23.721,7.864 L22.661,13.965 C22.639,14.089 22.639,14.212 22.648,14.332 L15.816,23.703 L19.941,4.095 Z M83.8,21.379 L50.16,21.379 C50.54,20.368 50.75,19.387 50.81,18.595 L50.94,17.128 L38.605,15.815 L34.225,16.694 L36.236,13.591 L36.319,13.446 C36.442,13.199 37.496,10.963 36.567,8.381 C35.865,6.433 34.257,4.892 31.787,3.801 L30.681,3.313 L26.578,8.94 L26.695,8.267 L26.715,8.101 C26.732,7.825 26.824,5.355 24.956,3.345 C23.547,1.828 21.463,1.041 18.763,1.006 L17.529,0.991 L11.28,30.694 C8.457,35.316 4.95,41.304 4.252,43.618 L0.497,56.022 L3.368,56.891 L7.124,44.485 C7.706,42.554 11.059,36.821 13.962,32.068 C13.964,32.065 13.965,32.062 13.967,32.059 C15.135,30.147 16.223,28.406 17.034,27.125 L17.268,26.804 L29.703,20.661 L38.743,18.848 L47.532,19.782 C47.028,21.5 45.695,24.125 42.254,24.125 L35.67,24.323 L29.264,26.728 L22.565,32.838 L22.439,33.167 C22.439,33.167 20.874,37.205 20.791,37.429 C19.791,40.125 19.882,44.537 21.012,48.158 C22.164,51.855 25.759,55.407 29.564,54.705 L36.968,53.332 C38.231,53.124 39.263,53.335 40.128,53.979 C41.365,54.898 42.03,56.498 42.366,57.641 L25.551,61.18 L25.284,61.381 C22.662,63.352 20.522,63.312 18.619,63.278 C16.866,63.245 14.882,63.21 13.544,65.154 L11.962,67.976 L14.581,69.438 L16.051,66.805 C16.428,66.295 16.912,66.247 18.565,66.277 C20.654,66.315 23.484,66.368 26.812,63.981 L45.818,59.981 L45.647,58.611 C45.637,58.536 45.536,57.79 45.235,56.776 L83.8,56.776 C87.39,56.776 90.3,53.863 90.3,50.282 L90.3,27.873 C90.3,24.292 87.39,21.379 83.8,21.379 L83.8,21.379 Z"/><path d="M84.31,41.268 L83.66,41.268 C83.01,41.268 82.48,41.796 82.48,42.441 L82.48,43.092 C82.48,43.737 83.01,44.265 83.66,44.265 L84.31,44.265 C84.95,44.265 85.48,43.737 85.48,43.092 L85.48,42.441 C85.48,41.796 84.95,41.268 84.31,41.268"/><path d="M84.31,34.499 L83.66,34.499 C83.01,34.499 82.48,35.027 82.48,35.672 L82.48,38.814 C82.48,39.459 83.01,39.987 83.66,39.987 L84.31,39.987 C84.95,39.987 85.48,39.459 85.48,38.814 L85.48,35.672 C85.48,35.027 84.95,34.499 84.31,34.499"/><path d="M32.368,36.497 L31.717,36.497 C31.072,36.497 30.544,37.025 30.544,37.67 L30.544,40.812 C30.544,41.457 31.072,41.985 31.717,41.985 L32.368,41.985 C33.013,41.985 33.541,41.457 33.541,40.812 L33.541,37.67 C33.541,37.025 33.013,36.497 32.368,36.497"/><path d="M62.51,30.483 C63.33,30.483 64.01,31.156 64.01,31.982 C64.01,32.808 63.33,33.481 62.51,33.481 C61.68,33.481 61.01,32.808 61.01,31.982 C61.01,31.156 61.68,30.483 62.51,30.483 Z M62.51,36.481 C64.99,36.481 67.01,34.462 67.01,31.982 C67.01,29.502 64.99,27.483 62.51,27.483 C60.03,27.483 58.01,29.502 58.01,31.982 C58.01,34.462 60.03,36.481 62.51,36.481 L62.51,36.481 Z"/></g></g><text x="0" y="85" fill="#000000" font-size="5px" font-weight="bold" font-family="'Helvetica Neue', Helvetica, Arial-Unicode, Arial, Sans-serif">Created by Anton Barbarov</text><text x="0" y="90" fill="#000000" font-size="5px" font-weight="bold" font-family="'Helvetica Neue', Helvetica, Arial-Unicode, Arial, Sans-serif">from the Noun Project</text></svg>