<?xml version="1.0" encoding="UTF-8" standalone="no"?>
<svg
   xmlns:dc="http://purl.org/dc/elements/1.1/"
   xmlns:cc="http://creativecommons.org/ns#"
   xmlns:rdf="http://www.w3.org/1999/02/22-rdf-syntax-ns#"
   xmlns:svg="http://www.w3.org/2000/svg"
   xmlns="http://www.w3.org/2000/svg"
   xmlns:sodipodi="http://sodipodi.sourceforge.net/DTD/sodipodi-0.dtd"
   xmlns:inkscape="http://www.inkscape.org/namespaces/inkscape"
   width="24"
   height="24"
   fill-rule="evenodd"
   clip-rule="evenodd"
   version="1.1"
   id="svg4"
   sodipodi:docname="group-chat-settings.svg"
   inkscape:version="0.92.4 (5da689c313, 2019-01-14)">
  <metadata
     id="metadata10">
    <rdf:RDF>
      <cc:Work
         rdf:about="">
        <dc:format>image/svg+xml</dc:format>
        <dc:type
           rdf:resource="http://purl.org/dc/dcmitype/StillImage" />
        <dc:title></dc:title>
      </cc:Work>
    </rdf:RDF>
  </metadata>
  <defs
     id="defs8" />
  <sodipodi:namedview
     pagecolor="#ffffff"
     bordercolor="#666666"
     borderopacity="1"
     objecttolerance="10"
     gridtolerance="10"
     guidetolerance="10"
     inkscape:pageopacity="0"
     inkscape:pageshadow="2"
     inkscape:window-width="1535"
     inkscape:window-height="890"
     id="namedview6"
     showgrid="false"
     inkscape:zoom="19.666667"
     inkscape:cx="12"
     inkscape:cy="12"
     inkscape:window-x="0"
     inkscape:window-y="0"
     inkscape:window-maximized="0"
     inkscape:current-layer="svg4" />
  <path
     d="M 18.050847,20.813525 H 15.794492 V 24 L 11.783443,20.813525 H 6.0169492 v -3.186474 h 1.5042372 v 1.593237 h 4.7631676 l 2.0059,1.593237 v -1.593237 h 2.256356 v -6.373746 h -1.504237 v -1.593237 h 3.008474 z M 13.538136,16.033814 H 6.2674047 L 2.2563559,19.220288 V 16.033814 H 0 V 4.8803559 H 13.538136 Z M 6.7690678,12.780423 H 3.0084746 v 0.863535 h 3.7605932 z m 3.7605932,-2.32294 H 3.0084746 v 0.796619 h 7.5211864 z m 0,-2.3898559 H 3.0084746 v 0.7966187 h 7.5211864 z"
     id="path2"
     inkscape:connector-curvature="0"
     style="stroke-width:0.77404892" />
  <path
     inkscape:connector-curvature="0"
     d="M 23.674169,6.0634915 V 4.3583729 C 22.82316,4.0597627 22.594164,4.0457288 22.474912,3.762322 22.354868,3.4781355 22.507796,3.3066102 22.894474,2.5058984 L 21.669069,1.3001526 C 20.866395,1.6755594 20.683357,1.8318814 20.391764,1.7129831 20.103736,1.5952543 20.087493,1.3664237 19.786787,0.53296604 H 18.053472 C 17.750785,1.3687628 17.736522,1.5952543 17.447702,1.7129831 17.14977,1.835 16.97109,1.6739998 16.170794,1.3001526 L 14.945389,2.5058984 C 15.332463,3.307 15.484995,3.4777457 15.36495,3.7627119 15.245302,4.0461186 15.01591,4.0605423 14.165694,4.3583729 v 1.7055084 c 0.847443,0.2962712 1.079608,0.3118644 1.199256,0.595661 0.120441,0.2861356 -0.03209,0.4549323 -0.419561,1.2564238 l 1.225405,1.2057453 c 0.791976,-0.3703384 0.97858,-0.5352368 1.276908,-0.4128304 0.288424,0.1177289 0.302687,0.3430508 0.60577,1.180017 h 1.732919 C 20.0867,9.0581691 20.102944,8.8273895 20.39533,8.7073216 c 0.295158,-0.1200673 0.469877,0.038594 1.273739,0.414 L 22.894474,7.9155763 C 22.508192,7.1164237 22.354868,6.9441186 22.474912,6.6591525 22.593768,6.3761355 22.823556,6.3617118 23.674169,6.0634915 Z M 21.74276,6.361322 c -0.2286,0.5434237 -0.02694,0.9582034 0.193339,1.3948135 L 21.506633,8.1787118 C 21.073601,7.9670339 20.650474,7.7592542 20.091058,7.9876949 19.537982,8.2141864 19.381885,8.6476777 19.224202,9.1092371 h -0.60775 C 18.45877,8.6472879 18.303069,8.2137966 17.751577,7.9884745 17.189389,7.7592542 16.758338,7.9709322 16.333626,8.1787118 L 15.904556,7.7561355 C 16.125232,7.3203051 16.326891,6.9063051 16.097499,6.3605423 15.868107,5.8182881 15.427548,5.6650848 14.958067,5.5099322 V 4.912322 c 0.469481,-0.1551525 0.91004,-0.3083559 1.139036,-0.8513898 0.228996,-0.5434237 0.02694,-0.9585931 -0.193339,-1.3952034 L 16.33323,2.2431526 C 16.761904,2.4528814 17.189785,2.663 17.751577,2.4333899 18.303069,2.2084576 18.45877,1.7745764 18.616452,1.3126272 h 0.60775 c 0.157683,0.4619492 0.31378,0.8954406 0.865272,1.1207627 0.562188,0.2292203 0.992843,0.017542 1.417951,-0.1902373 l 0.429466,0.4225762 c -0.22028,0.437 -0.421939,0.8525593 -0.193339,1.3955932 0.2286,0.5422543 0.669159,0.6954577 1.139036,0.851 v 0.598 c -0.470669,0.1551526 -0.912021,0.3083559 -1.139828,0.851 z M 18.919931,4.0414407 c 0.655293,0 1.18856,0.5247118 1.18856,1.1694915 0,0.6447797 -0.533267,1.1694915 -1.18856,1.1694915 -0.655292,0 -1.188559,-0.5247118 -1.188559,-1.1694915 0,-0.6447797 0.533267,-1.1694915 1.188559,-1.1694915 z m 0,-0.779661 c -1.094267,0 -1.980932,0.8724407 -1.980932,1.9491525 0,1.0767119 0.886665,1.9491526 1.980932,1.9491526 1.094267,0 1.980932,-0.8724407 1.980932,-1.9491526 0,-1.0767118 -0.886665,-1.9491525 -1.980932,-1.9491525 z"
     id="path2-5"
     style="stroke-width:0.39299563" />
</svg>
