<?xml version="1.0" encoding="UTF-8" standalone="no"?>
<svg
   xmlns:dc="http://purl.org/dc/elements/1.1/"
   xmlns:cc="http://creativecommons.org/ns#"
   xmlns:rdf="http://www.w3.org/1999/02/22-rdf-syntax-ns#"
   xmlns:svg="http://www.w3.org/2000/svg"
   xmlns="http://www.w3.org/2000/svg"
   xmlns:sodipodi="http://sodipodi.sourceforge.net/DTD/sodipodi-0.dtd"
   xmlns:inkscape="http://www.inkscape.org/namespaces/inkscape"
   width="24"
   height="24"
   viewBox="0 0 24 24"
   version="1.1"
   id="svg4"
   sodipodi:docname="connect.svg"
   inkscape:version="0.92.4 (5da689c313, 2019-01-14)">
  <metadata
     id="metadata10">
    <rdf:RDF>
      <cc:Work
         rdf:about="">
        <dc:format>image/svg+xml</dc:format>
        <dc:type
           rdf:resource="http://purl.org/dc/dcmitype/StillImage" />
        <dc:title></dc:title>
      </cc:Work>
    </rdf:RDF>
  </metadata>
  <defs
     id="defs8" />
  <sodipodi:namedview
     pagecolor="#ffffff"
     bordercolor="#666666"
     borderopacity="1"
     objecttolerance="10"
     gridtolerance="10"
     guidetolerance="10"
     inkscape:pageopacity="0"
     inkscape:pageshadow="2"
     inkscape:window-width="1456"
     inkscape:window-height="1082"
     id="namedview6"
     showgrid="false"
     inkscape:zoom="9.8333333"
     inkscape:cx="12"
     inkscape:cy="12"
     inkscape:window-x="1778"
     inkscape:window-y="641"
     inkscape:window-maximized="0"
     inkscape:current-layer="svg4" />
  <path
     d="m 8.753,19.647 c 0,-1.278 -0.551,-2.429 -1.429,-3.225 L 11.17,8.634 c 0.343,0.062 0.64,0.079 0.942,0.067 l 4.231,8.058 c -0.682,0.769 -1.097,1.78 -1.097,2.889 10e-4,2.404 1.949,4.352 4.353,4.352 2.404,0 4.353,-1.948 4.353,-4.353 0,-2.405 -1.949,-4.353 -4.353,-4.353 -0.18,0 -0.356,0.012 -0.53,0.033 L 14.958,7.499 C 15.787,6.706 16.305,5.591 16.305,4.353 16.305,1.948 14.356,0 11.952,0 9.548,0 7.599,1.948 7.599,4.353 c 0,1.013 0.347,1.943 0.927,2.684 l -4.078,8.26 -0.047,-0.001 c -2.404,0 -4.353,1.948 -4.353,4.353 0,2.405 1.949,4.351 4.353,4.351 2.404,0 4.352,-1.948 4.352,-4.353 z"
     id="path2"
     inkscape:connector-curvature="0" />
</svg>
