<?xml version="1.0"?>
<svg xmlns="http://www.w3.org/2000/svg" viewBox="0 0 24 24">
    <path d="M 12.0625 2.03125 C 11.925 2.03125 11.7875 2.04375 11.6875 2.09375 L 2.6875 6.09375 L 2.59375 6.09375 L 2.5 6.09375 C 2.1 6.39375 2 6.7875 2 7.1875 L 2 17 C 2 17.4 2.19375 17.80625 2.59375 17.90625 L 11.59375 21.90625 L 11.6875 21.90625 L 11.8125 21.90625 L 11.90625 21.90625 L 12 21.90625 L 12.09375 21.90625 L 12.1875 21.90625 L 21.1875 17.90625 C 21.5875 17.70625 21.8125 17.4 21.8125 17 L 21.8125 7.1875 C 22.1125 6.7875 21.89375 6.3875 21.59375 6.1875 L 21.5 6.09375 L 12.5 2.09375 C 12.35 2.04375 12.2 2.03125 12.0625 2.03125 z M 12 4.09375 L 18.5 7 L 12 9.90625 L 5.5 7 L 12 4.09375 z M 12 6.3125 C 11.171573 6.3125 10.5 6.6134007 10.5 7 C 10.5 7.3865993 11.171573 7.6875 12 7.6875 C 12.828427 7.6875 13.5 7.3865993 13.5 7 C 13.5 6.6134007 12.828427 6.3125 12 6.3125 z M 4 8.5 L 7.1875 10 L 11 11.6875 L 11 19.5 L 4 16.40625 L 4 8.5 z M 20 8.5 L 20 16.3125 L 13 19.5 L 13 11.6875 L 16.8125 10 L 20 8.5 z M 5.25 9.8125 C 5.1280505 9.7922656 4.99177 9.8012492 4.875 9.84375 C 4.4079199 10.013753 4.2108289 10.658476 4.4375 11.28125 C 4.6641711 11.904024 5.2516699 12.295003 5.71875 12.125 C 6.1858301 11.954997 6.3829211 11.310274 6.15625 10.6875 C 5.9862467 10.22042 5.6158486 9.8732031 5.25 9.8125 z M 18.09375 10.9375 C 17.727901 10.998203 17.388753 11.34542 17.21875 11.8125 C 16.992079 12.435273 17.18917 13.079997 17.65625 13.25 C 18.123331 13.420004 18.679579 13.029023 18.90625 12.40625 C 19.132921 11.783476 18.935831 11.138754 18.46875 10.96875 C 18.35198 10.926249 18.2157 10.917266 18.09375 10.9375 z M 7.25 12.8125 C 7.1280505 12.792266 6.99177 12.801249 6.875 12.84375 C 6.4079199 13.013753 6.2108289 13.658476 6.4375 14.28125 C 6.6641711 14.904024 7.2516699 15.295003 7.71875 15.125 C 8.1858301 14.954997 8.3829211 14.310274 8.15625 13.6875 C 7.9862467 13.22042 7.6158486 12.873203 7.25 12.8125 z M 14.90625 15.03125 C 14.545594 15.077688 14.187086 15.384343 14.03125 15.8125 C 13.823468 16.383376 14.03292 16.986247 14.5 17.15625 C 14.967081 17.326254 15.510968 16.977126 15.71875 16.40625 C 15.926532 15.835375 15.717081 15.232504 15.25 15.0625 C 15.13323 15.019999 15.026469 15.015771 14.90625 15.03125 z M 9.75 15.8125 C 9.6280505 15.792266 9.4917699 15.801249 9.375 15.84375 C 8.9079199 16.013753 8.7108289 16.658476 8.9375 17.28125 C 9.1641711 17.904024 9.7516699 18.295003 10.21875 18.125 C 10.68583 17.954997 10.882921 17.310274 10.65625 16.6875 C 10.486247 16.22042 10.115848 15.873203 9.75 15.8125 z"/>
</svg>
