<?xml version="1.0" encoding="UTF-8" standalone="no"?>
<!DOCTYPE svg PUBLIC "-//W3C//DTD SVG 1.0//EN" "http://www.w3.org/TR/2001/REC-SVG-20010904/DTD/svg10.dtd">
<svg
   xmlns:svg="http://www.w3.org/2000/svg"
   xmlns="http://www.w3.org/2000/svg"
   xmlns:xlink="http://www.w3.org/1999/xlink"
   version="1.0"
   width="320"
   height="320"
   id="svg2">
  <defs
     id="defs4">
    <linearGradient
       id="linearGradient3180">
      <stop
         style="stop-color:#ff0000;stop-opacity:1"
         offset="0"
         id="stop3182" />
      <stop
         style="stop-color:#ff0000;stop-opacity:0"
         offset="1"
         id="stop3184" />
    </linearGradient>
    <linearGradient
       id="linearGradient3134">
      <stop
         style="stop-color:#ffeb00;stop-opacity:1"
         offset="0"
         id="stop3136" />
      <stop
         style="stop-color:#ff8d00;stop-opacity:1"
         offset="1"
         id="stop3138" />
    </linearGradient>
    <radialGradient
       cx="126.73664"
       cy="143.15707"
       r="144.24496"
       fx="126.73664"
       fy="143.15707"
       id="radialGradient3140"
       xlink:href="#linearGradient3134"
       gradientUnits="userSpaceOnUse" />
    <radialGradient
       cx="126.73664"
       cy="143.15707"
       r="144.24496"
       fx="126.73664"
       fy="143.15707"
       id="radialGradient6087"
       xlink:href="#linearGradient3134"
       gradientUnits="userSpaceOnUse" />
    <radialGradient
       cx="234.63087"
       cy="278.2182"
       r="52.580536"
       fx="234.63087"
       fy="278.2182"
       id="radialGradient3262"
       xlink:href="#linearGradient3134"
       gradientUnits="userSpaceOnUse"
       gradientTransform="matrix(-0.7033524,0,0,0.5703013,406.9074,128.14061)" />
    <radialGradient
       cx="234.63087"
       cy="278.2182"
       r="52.580536"
       fx="234.63087"
       fy="278.2182"
       id="radialGradient12185"
       xlink:href="#linearGradient3134"
       gradientUnits="userSpaceOnUse"
       gradientTransform="matrix(-0.7033524,0,0,0.5703013,406.9074,128.14061)" />
  </defs>
  <g
     id="layer1">
    <path
       d="M 304.96645 157.85236 A 141.74496 141.74496 0 1 1  21.476517,157.85236 A 141.74496 141.74496 0 1 1  304.96645 157.85236 z"
       transform="matrix(1.0595557,0,0,1.0595557,-12.942251,-7.2533635)"
       style="fill:url(#radialGradient6087);fill-opacity:1;stroke:#b26200;stroke-width:5;stroke-linejoin:round;stroke-miterlimit:4;stroke-dasharray:none;stroke-opacity:1"
       id="path2160" />
    <path
       d="M 51.128371,193.42489 C 100.82287,249.66998 156.98654,263.59252 224.84477,201.00659"
       style="fill:none;fill-rule:evenodd;stroke:#5f2700;stroke-width:13.46479416;stroke-linecap:round;stroke-linejoin:round;stroke-miterlimit:4;stroke-dasharray:none;stroke-opacity:1"
       id="path4135" />
    <path
       d="M 102.01342 97.718124 A 33.825504 33.825504 0 1 1  34.362415,97.718124 A 33.825504 33.825504 0 1 1  102.01342 97.718124 z"
       transform="translate(24.697987,34.09396)"
       style="opacity:0.99173554;fill:#ffffff;fill-opacity:1;fill-rule:evenodd;stroke:#b26200;stroke-width:5;stroke-linecap:round;stroke-linejoin:round;stroke-miterlimit:4;stroke-dasharray:none;stroke-opacity:1"
       id="path9206" />
    <path
       d="M 114.36242 149.79866 A 10.738256 10.201343 0 1 1  92.885904,149.79866 A 10.738256 10.201343 0 1 1  114.36242 149.79866 z"
       transform="matrix(1.5678073,0,0,1.5678073,-63.670769,-91.499724)"
       style="opacity:0.99173554;fill:#000000;fill-opacity:1;fill-rule:evenodd;stroke:#000000;stroke-width:5;stroke-linecap:round;stroke-linejoin:round;stroke-miterlimit:4;stroke-dasharray:none;stroke-opacity:1"
       id="path11148" />
    <g
       transform="matrix(-1,0,0,1,279.19463,0)"
       id="g12123">
      <path
         d="M 102.01342 97.718124 A 33.825504 33.825504 0 1 1  34.362415,97.718124 A 33.825504 33.825504 0 1 1  102.01342 97.718124 z"
         transform="translate(24.697987,34.09396)"
         style="opacity:0.99173554;fill:#ffffff;fill-opacity:1;fill-rule:evenodd;stroke:#b26200;stroke-width:5;stroke-linecap:round;stroke-linejoin:round;stroke-miterlimit:4;stroke-dasharray:none;stroke-opacity:1"
         id="path12125" />
      <path
         d="M 114.36242 149.79866 A 10.738256 10.201343 0 1 1  92.885904,149.79866 A 10.738256 10.201343 0 1 1  114.36242 149.79866 z"
         transform="matrix(1.5678073,0,0,1.5678073,-63.670769,-91.499724)"
         style="opacity:0.99173554;fill:#000000;fill-opacity:1;fill-rule:evenodd;stroke:#000000;stroke-width:5;stroke-linecap:round;stroke-linejoin:round;stroke-miterlimit:4;stroke-dasharray:none;stroke-opacity:1"
         id="path12127" />
    </g>
    <g
       transform="matrix(1.1143305,0,0,1.1680182,-29.222571,-53.496334)"
       id="g12142">
      <path
         d="M 227.65101,285.10067 L 207.78524,202.41611"
         style="fill:none;fill-rule:evenodd;stroke:#009600;stroke-width:10;stroke-linecap:butt;stroke-linejoin:miter;stroke-miterlimit:4;stroke-dasharray:none;stroke-opacity:1"
         id="path3264" />
      <path
         d="M 261.23169,287.7616 L 282.12402,224.45317"
         style="fill:none;fill-rule:evenodd;stroke:#006400;stroke-width:8.97344589;stroke-linecap:butt;stroke-linejoin:miter;stroke-miterlimit:4;stroke-dasharray:none;stroke-opacity:1"
         id="path4235" />
      <path
         d="M 257.49748,285.63966 L 269.75083,193.28651"
         style="fill:none;fill-rule:evenodd;stroke:#006e00;stroke-width:10.33769608;stroke-linecap:butt;stroke-linejoin:miter;stroke-miterlimit:4;stroke-dasharray:none;stroke-opacity:1"
         id="path4241" />
      <path
         d="M 232.99653,280.88287 L 223.37932,186.76814"
         style="fill:none;fill-rule:evenodd;stroke:#008c00;stroke-width:10.24413776;stroke-linecap:butt;stroke-linejoin:miter;stroke-miterlimit:4;stroke-dasharray:none;stroke-opacity:1"
         id="path4239" />
      <path
         d="M 240.27026,281.65843 L 240.26666,205.85835"
         style="fill:none;fill-rule:evenodd;stroke:#008200;stroke-width:11.98226357;stroke-linecap:butt;stroke-linejoin:miter;stroke-miterlimit:4;stroke-dasharray:none;stroke-opacity:1"
         id="path4243" />
      <path
         d="M 250.56487,283.09609 L 255.20694,166.29989"
         style="fill:none;fill-rule:evenodd;stroke:#007800;stroke-width:10.81758881;stroke-linecap:butt;stroke-linejoin:miter;stroke-miterlimit:4;stroke-dasharray:none;stroke-opacity:1"
         id="path4245" />
      <path
         d="M 228.04163,277.741 L 189.13957,222.12478"
         style="fill:none;fill-rule:evenodd;stroke:#00a000;stroke-width:7.81218672;stroke-linecap:butt;stroke-linejoin:miter;stroke-miterlimit:4;stroke-dasharray:none;stroke-opacity:1"
         id="path8190" />
      <path
         d="M 278.13253,257.32876 C 291.04294,281.13219 285.25278,295.58534 278.51016,309.56226 C 257.17716,318.26943 224.83332,319.15492 205.62587,308.47406 C 197.31598,303.21444 197.81377,297.95481 205.24822,292.69519 C 215.73399,297.51046 234.53729,304.00578 243.01211,298.68027 C 232.91622,301.25114 215.59535,299.36719 205.62586,292.15109 C 196.9676,285.72836 196.47368,280.27945 206.0035,275.28402 C 215.19271,281.9796 234.20054,286.63036 243.38975,283.4455 C 234.5533,287.00327 215.82913,281.70269 206.00349,275.28403 C 194.59331,268.35858 200.30541,262.85999 205.62586,257.32876 C 216.40806,270.44941 263.76789,267.55547 278.13253,257.32876 z "
         style="fill:url(#radialGradient12185);fill-opacity:1;fill-rule:evenodd;stroke:#b26200;stroke-width:4.22127485;stroke-linecap:round;stroke-linejoin:round;stroke-miterlimit:4;stroke-dasharray:none;stroke-opacity:1"
         id="path2281" />
      <g
         transform="matrix(1.3014402,0,0,1.3014402,-72.240424,-51.510801)"
         id="g12138">
        <path
           d="M -121.87919,83.758384 L -102.31735,93.586602 L -83.131198,83.043793 L -86.433447,104.68529 L -70.477792,119.6745 L -92.080535,123.22147 L -101.40555,143.02812 L -111.45453,123.57877 L -133.17336,120.83074 L -117.78123,105.26341 L -121.87919,83.758384 z "
           transform="matrix(0.4110555,0,0,0.6619131,281.50691,122.77973)"
           style="fill:#e6d89d;fill-opacity:1;fill-rule:evenodd;stroke:#e6d89d;stroke-width:12.05771446;stroke-linecap:round;stroke-linejoin:round;stroke-miterlimit:4;stroke-dasharray:none;stroke-opacity:1"
           id="path10196" />
        <path
           d="M -121.87919,83.758384 L -102.31735,93.586602 L -83.131198,83.043793 L -86.433447,104.68529 L -70.477792,119.6745 L -92.080535,123.22147 L -101.40555,143.02812 L -111.45453,123.57877 L -133.17336,120.83074 L -117.78123,105.26341 L -121.87919,83.758384 z "
           transform="matrix(0.2733792,0,0,0.4402162,267.48794,147.83945)"
           style="fill:#ffae80;fill-opacity:1;fill-rule:evenodd;stroke:#e6c49d;stroke-width:12.05771446;stroke-linecap:round;stroke-linejoin:round;stroke-miterlimit:4;stroke-dasharray:none;stroke-opacity:1"
           id="path11167" />
      </g>
      <g
         transform="matrix(0.9288813,0.1102747,-0.1128661,0.9572496,352.27119,38.701733)"
         style="fill:#f02200;fill-opacity:1;stroke:#ab1700;stroke-width:3;stroke-miterlimit:4;stroke-dasharray:none;stroke-opacity:1"
         id="g6212">
        <path
           d="M -112.65606,110.66967 L -106.54177,150.81327 C -102.78611,165.90839 -72.833239,167.11923 -66.034601,150.27803 L -59.156026,109.59917 C -78.008418,97.823707 -95.841763,98.180542 -112.65606,110.66967 z "
           style="fill:#f02200;fill-opacity:1;fill-rule:evenodd;stroke:#ab1700;stroke-width:3;stroke-linecap:butt;stroke-linejoin:miter;stroke-miterlimit:4;stroke-dasharray:none;stroke-opacity:1"
           id="path5235" />
        <path
           d="M -112.21477,97.181206 C -110.62649,97.558084 -111.93919,99.50811 -112.84116,99.821027 C -115.28545,100.66901 -117.3287,98.128165 -117.49441,95.928412 C -117.79083,91.99357 -113.99978,89.174246 -110.33558,89.261742 C -104.95821,89.390146 -101.27056,94.574284 -101.65548,99.686794 C -102.16852,106.50097 -108.79058,111.08011 -115.34675,110.38031 C -123.59703,109.49969 -129.07713,101.42072 -128.0537,93.422824 C -126.81418,83.736305 -117.26855,77.350377 -107.82999,78.702457 C -96.706966,80.295836 -89.412328,91.313784 -91.096197,102.19238 C -93.040291,114.75215 -105.53414,122.95735 -117.85234,120.9396 C -131.84906,118.6469 -140.96609,104.67474 -138.61298,90.917236 C -135.97315,75.483401 -120.52098,65.453642 -105.3244,68.143172 C -88.453323,71.12906 -77.51016,88.062489 -80.536912,104.69797"
           transform="matrix(0.8874287,0,0,0.4849232,11.565122,67.454275)"
           style="fill:#f02200;fill-opacity:1;fill-rule:evenodd;stroke:#ab1700;stroke-width:4.57317734;stroke-linecap:butt;stroke-linejoin:miter;stroke-miterlimit:4;stroke-dasharray:none;stroke-opacity:1"
           id="path5237" />
      </g>
      <g
         transform="matrix(1.3916109,0,0,1.3916109,408.83828,21.158988)"
         id="g10180">
        <path
           d="M -85.369127,114.36242 L -111.5495,120.12635 L -121.64337,144.96077 L -135.21537,121.84291 L -161.95349,119.91733 L -144.16107,99.865775 L -150.59227,73.841276 L -126.02395,84.566599 L -103.26053,70.408153 L -105.86889,97.088321 L -85.369127,114.36242 z "
           transform="matrix(0.7884833,0,0,0.3650147,-34.747041,78.042476)"
           style="fill:#0094ff;fill-opacity:1;fill-rule:evenodd;stroke:#2b64c0;stroke-width:10.1108551;stroke-linecap:round;stroke-linejoin:round;stroke-miterlimit:4;stroke-dasharray:none;stroke-opacity:1"
           id="path8238" />
        <path
           d="M -102.01342 57.718121 A 5.6375837 2.4161074 0 1 1  -113.28859,57.718121 A 5.6375837 2.4161074 0 1 1  -102.01342 57.718121 z"
           transform="matrix(1.4780288,0,0,1.670956,25.956922,20.06563)"
           style="opacity:1;fill:#000000;fill-opacity:1;fill-rule:evenodd;stroke:none;stroke-width:6;stroke-linecap:round;stroke-linejoin:round;stroke-miterlimit:4;stroke-dasharray:none;stroke-opacity:1"
           id="path9209" />
      </g>
      <g
         transform="matrix(0.8063526,-0.184318,0.2022333,0.8060379,245.92623,69.057694)"
         style="fill:#ffff00;fill-opacity:1;stroke:#b58800;stroke-width:3;stroke-miterlimit:4;stroke-dasharray:none;stroke-opacity:1"
         id="g7191">
        <path
           d="M -112.65606,110.66967 L -106.54177,150.81327 C -102.78611,165.90839 -72.833239,167.11923 -66.034601,150.27803 L -59.156026,109.59917 C -78.008418,97.823707 -95.841763,98.180542 -112.65606,110.66967 z "
           style="fill:#ffff00;fill-opacity:1;fill-rule:evenodd;stroke:#b58800;stroke-width:3;stroke-linecap:butt;stroke-linejoin:miter;stroke-miterlimit:4;stroke-dasharray:none;stroke-opacity:1"
           id="path6218" />
        <path
           d="M -112.21477,97.181206 C -110.62649,97.558084 -111.93919,99.50811 -112.84116,99.821027 C -115.28545,100.66901 -117.3287,98.128165 -117.49441,95.928412 C -117.79083,91.99357 -113.99978,89.174246 -110.33558,89.261742 C -104.95821,89.390146 -101.27056,94.574284 -101.65548,99.686794 C -102.16852,106.50097 -108.79058,111.08011 -115.34675,110.38031 C -123.59703,109.49969 -129.07713,101.42072 -128.0537,93.422824 C -126.81418,83.736305 -117.26855,77.350377 -107.82999,78.702457 C -96.706966,80.295836 -89.412328,91.313784 -91.096197,102.19238 C -93.040291,114.75215 -105.53414,122.95735 -117.85234,120.9396 C -131.84906,118.6469 -140.96609,104.67474 -138.61298,90.917236 C -135.97315,75.483401 -120.52098,65.453642 -105.3244,68.143172 C -88.453323,71.12906 -77.51016,88.062489 -80.536912,104.69797"
           transform="matrix(0.8874287,0,0,0.4849232,11.565122,67.454275)"
           style="fill:#ffff00;fill-opacity:1;fill-rule:evenodd;stroke:#b58800;stroke-width:4.57317734;stroke-linecap:butt;stroke-linejoin:miter;stroke-miterlimit:4;stroke-dasharray:none;stroke-opacity:1"
           id="path6220" />
      </g>
      <g
         transform="matrix(0.8669456,-0.1981685,0.21743,0.8666073,726.92046,169.41361)"
         style="fill:#ffff00;fill-opacity:1;stroke:#ab1700;stroke-width:3;stroke-miterlimit:4;stroke-dasharray:none;stroke-opacity:1"
         id="g8180">
        <path
           d="M -118.12081 108.18792 A 8.8590603 8.3221474 0 1 1  -135.83893,108.18792 A 8.8590603 8.3221474 0 1 1  -118.12081 108.18792 z"
           transform="matrix(1.4265751,0.3262171,-0.3579247,1.4271319,-306.78404,-207.02381)"
           style="opacity:1;fill:#934896;fill-opacity:1;fill-rule:evenodd;stroke:none;stroke-width:3;stroke-linecap:round;stroke-linejoin:round;stroke-miterlimit:4;stroke-dasharray:none;stroke-opacity:1"
           id="path7195" />
        <path
           d="M -118.12081 108.18792 A 8.8590603 8.3221474 0 1 1  -135.83893,108.18792 A 8.8590603 8.3221474 0 1 1  -118.12081 108.18792 z"
           transform="matrix(1.4265751,0.3262171,-0.3579247,1.4271319,-292.02788,-217.42273)"
           style="opacity:1;fill:#934896;fill-opacity:1;fill-rule:evenodd;stroke:none;stroke-width:3;stroke-linecap:round;stroke-linejoin:round;stroke-miterlimit:4;stroke-dasharray:none;stroke-opacity:1"
           id="path8166" />
        <path
           d="M -118.12081 108.18792 A 8.8590603 8.3221474 0 1 1  -135.83893,108.18792 A 8.8590603 8.3221474 0 1 1  -118.12081 108.18792 z"
           transform="matrix(1.4265751,0.3262171,-0.3579247,1.4271319,-296.83224,-198.2666)"
           style="opacity:1;fill:#784896;fill-opacity:1;fill-rule:evenodd;stroke:none;stroke-width:3;stroke-linecap:round;stroke-linejoin:round;stroke-miterlimit:4;stroke-dasharray:none;stroke-opacity:1"
           id="path8168" />
        <path
           d="M -118.12081 108.18792 A 8.8590603 8.3221474 0 1 1  -135.83893,108.18792 A 8.8590603 8.3221474 0 1 1  -118.12081 108.18792 z"
           transform="matrix(1.4265751,0.3262171,-0.3579247,1.4271319,-270.96299,-214.22617)"
           style="opacity:1;fill:#714896;fill-opacity:1;fill-rule:evenodd;stroke:none;stroke-width:3;stroke-linecap:round;stroke-linejoin:round;stroke-miterlimit:4;stroke-dasharray:none;stroke-opacity:1"
           id="path8176" />
        <path
           d="M -118.12081 108.18792 A 8.8590603 8.3221474 0 1 1  -135.83893,108.18792 A 8.8590603 8.3221474 0 1 1  -118.12081 108.18792 z"
           transform="matrix(1.0375092,0.2372488,-0.3348328,1.3350589,-333.40549,-207.44005)"
           style="opacity:1;fill:#a56096;fill-opacity:1;fill-rule:evenodd;stroke:none;stroke-width:3;stroke-linecap:round;stroke-linejoin:round;stroke-miterlimit:4;stroke-dasharray:none;stroke-opacity:1"
           id="path8170" />
        <path
           d="M -118.12081 108.18792 A 8.8590603 8.3221474 0 1 1  -135.83893,108.18792 A 8.8590603 8.3221474 0 1 1  -118.12081 108.18792 z"
           transform="matrix(1.6427228,0.3756439,-0.3579247,1.4271319,-254.2632,-182.86094)"
           style="opacity:1;fill:#934896;fill-opacity:1;fill-rule:evenodd;stroke:none;stroke-width:3;stroke-linecap:round;stroke-linejoin:round;stroke-miterlimit:4;stroke-dasharray:none;stroke-opacity:1"
           id="path8172" />
        <path
           d="M -118.12081 108.18792 A 8.8590603 8.3221474 0 1 1  -135.83893,108.18792 A 8.8590603 8.3221474 0 1 1  -118.12081 108.18792 z"
           transform="matrix(1.4265751,0.3262171,-0.3579247,1.4271319,-261.59321,-196.68996)"
           style="opacity:1;fill:#934896;fill-opacity:1;fill-rule:evenodd;stroke:none;stroke-width:3;stroke-linecap:round;stroke-linejoin:round;stroke-miterlimit:4;stroke-dasharray:none;stroke-opacity:1"
           id="path8174" />
        <path
           d="M -118.12081 108.18792 A 8.8590603 8.3221474 0 1 1  -135.83893,108.18792 A 8.8590603 8.3221474 0 1 1  -118.12081 108.18792 z"
           transform="matrix(1.4265751,0.3262171,-0.3579247,1.4271319,-267.15527,-187.42937)"
           style="opacity:1;fill:#7a4896;fill-opacity:1;fill-rule:evenodd;stroke:none;stroke-width:3;stroke-linecap:round;stroke-linejoin:round;stroke-miterlimit:4;stroke-dasharray:none;stroke-opacity:1"
           id="path8178" />
      </g>
      <g
         transform="matrix(0.3638999,-0.3957633,0.3925208,0.3692143,411.08625,60.728588)"
         style="fill:#ffff00;fill-opacity:1;stroke:#ab1700;stroke-width:3;stroke-miterlimit:4;stroke-dasharray:none;stroke-opacity:1"
         id="g8220">
        <path
           d="M -118.12081 108.18792 A 8.8590603 8.3221474 0 1 1  -135.83893,108.18792 A 8.8590603 8.3221474 0 1 1  -118.12081 108.18792 z"
           transform="matrix(1.4265751,0.3262171,-0.3579247,1.4271319,-306.78404,-207.02381)"
           style="opacity:1;fill:#934896;fill-opacity:1;fill-rule:evenodd;stroke:none;stroke-width:3;stroke-linecap:round;stroke-linejoin:round;stroke-miterlimit:4;stroke-dasharray:none;stroke-opacity:1"
           id="path8222" />
        <path
           d="M -118.12081 108.18792 A 8.8590603 8.3221474 0 1 1  -135.83893,108.18792 A 8.8590603 8.3221474 0 1 1  -118.12081 108.18792 z"
           transform="matrix(1.4265751,0.3262171,-0.3579247,1.4271319,-292.02788,-217.42273)"
           style="opacity:1;fill:#934896;fill-opacity:1;fill-rule:evenodd;stroke:none;stroke-width:3;stroke-linecap:round;stroke-linejoin:round;stroke-miterlimit:4;stroke-dasharray:none;stroke-opacity:1"
           id="path8224" />
        <path
           d="M -118.12081 108.18792 A 8.8590603 8.3221474 0 1 1  -135.83893,108.18792 A 8.8590603 8.3221474 0 1 1  -118.12081 108.18792 z"
           transform="matrix(1.4265751,0.3262171,-0.3579247,1.4271319,-296.83224,-198.2666)"
           style="opacity:1;fill:#784896;fill-opacity:1;fill-rule:evenodd;stroke:none;stroke-width:3;stroke-linecap:round;stroke-linejoin:round;stroke-miterlimit:4;stroke-dasharray:none;stroke-opacity:1"
           id="path8226" />
        <path
           d="M -118.12081 108.18792 A 8.8590603 8.3221474 0 1 1  -135.83893,108.18792 A 8.8590603 8.3221474 0 1 1  -118.12081 108.18792 z"
           transform="matrix(1.4265751,0.3262171,-0.3579247,1.4271319,-270.96299,-214.22617)"
           style="opacity:1;fill:#714896;fill-opacity:1;fill-rule:evenodd;stroke:none;stroke-width:3;stroke-linecap:round;stroke-linejoin:round;stroke-miterlimit:4;stroke-dasharray:none;stroke-opacity:1"
           id="path8228" />
        <path
           d="M -118.12081 108.18792 A 8.8590603 8.3221474 0 1 1  -135.83893,108.18792 A 8.8590603 8.3221474 0 1 1  -118.12081 108.18792 z"
           transform="matrix(1.0375092,0.2372488,-0.3348328,1.3350589,-333.40549,-207.44005)"
           style="opacity:1;fill:#a56096;fill-opacity:1;fill-rule:evenodd;stroke:none;stroke-width:3;stroke-linecap:round;stroke-linejoin:round;stroke-miterlimit:4;stroke-dasharray:none;stroke-opacity:1"
           id="path8230" />
        <path
           d="M -118.12081 108.18792 A 8.8590603 8.3221474 0 1 1  -135.83893,108.18792 A 8.8590603 8.3221474 0 1 1  -118.12081 108.18792 z"
           transform="matrix(1.6427228,0.3756439,-0.3579247,1.4271319,-254.2632,-182.86094)"
           style="opacity:1;fill:#934896;fill-opacity:1;fill-rule:evenodd;stroke:none;stroke-width:3;stroke-linecap:round;stroke-linejoin:round;stroke-miterlimit:4;stroke-dasharray:none;stroke-opacity:1"
           id="path8232" />
        <path
           d="M -118.12081 108.18792 A 8.8590603 8.3221474 0 1 1  -135.83893,108.18792 A 8.8590603 8.3221474 0 1 1  -118.12081 108.18792 z"
           transform="matrix(1.4265751,0.3262171,-0.3579247,1.4271319,-261.59321,-196.68996)"
           style="opacity:1;fill:#934896;fill-opacity:1;fill-rule:evenodd;stroke:none;stroke-width:3;stroke-linecap:round;stroke-linejoin:round;stroke-miterlimit:4;stroke-dasharray:none;stroke-opacity:1"
           id="path8234" />
        <path
           d="M -118.12081 108.18792 A 8.8590603 8.3221474 0 1 1  -135.83893,108.18792 A 8.8590603 8.3221474 0 1 1  -118.12081 108.18792 z"
           transform="matrix(1.4265751,0.3262171,-0.3579247,1.4271319,-267.15527,-187.42937)"
           style="opacity:1;fill:#7a4896;fill-opacity:1;fill-rule:evenodd;stroke:none;stroke-width:3;stroke-linecap:round;stroke-linejoin:round;stroke-miterlimit:4;stroke-dasharray:none;stroke-opacity:1"
           id="path8236" />
      </g>
      <g
         transform="matrix(1.306107,0,0,1.306107,-86.032556,-68.657161)"
         id="g10192">
        <path
           d="M -85.369127,114.36242 L -111.5495,120.12635 L -121.64337,144.96077 L -135.21537,121.84291 L -161.95349,119.91733 L -144.16107,99.865775 L -150.59227,73.841276 L -126.02395,84.566599 L -103.26053,70.408153 L -105.86889,97.088321 L -85.369127,114.36242 z "
           transform="matrix(0.5499995,0.3157514,-0.1487032,0.2502782,366.4866,237.99231)"
           style="fill:#aad400;fill-opacity:1;fill-rule:evenodd;stroke:#75b858;stroke-width:10.1108551;stroke-linecap:round;stroke-linejoin:round;stroke-miterlimit:4;stroke-dasharray:none;stroke-opacity:1"
           id="path10186" />
        <path
           d="M -102.01342 57.718121 A 5.6375837 2.4161074 0 1 1  -113.28859,57.718121 A 5.6375837 2.4161074 0 1 1  -102.01342 57.718121 z"
           transform="matrix(1.0309858,0.5918828,-0.6807301,1.1457181,432.44927,222.5487)"
           style="fill:#ff6600;fill-opacity:1;fill-rule:evenodd;stroke:none;stroke-width:6;stroke-linecap:round;stroke-linejoin:round;stroke-miterlimit:4;stroke-dasharray:none;stroke-opacity:1"
           id="path10188" />
      </g>
    </g>
  </g>
</svg>
