<?xml version="1.0" encoding="UTF-8" standalone="no"?>
<svg
   xmlns:dc="http://purl.org/dc/elements/1.1/"
   xmlns:cc="http://creativecommons.org/ns#"
   xmlns:rdf="http://www.w3.org/1999/02/22-rdf-syntax-ns#"
   xmlns:svg="http://www.w3.org/2000/svg"
   xmlns="http://www.w3.org/2000/svg"
   xmlns:sodipodi="http://sodipodi.sourceforge.net/DTD/sodipodi-0.dtd"
   xmlns:inkscape="http://www.inkscape.org/namespaces/inkscape"
   width="24"
   height="24"
   viewBox="0 0 24 24"
   version="1.1"
   id="svg4"
   sodipodi:docname="file-xfer-settings.svg"
   inkscape:version="0.92.4 (5da689c313, 2019-01-14)">
  <metadata
     id="metadata10">
    <rdf:RDF>
      <cc:Work
         rdf:about="">
        <dc:format>image/svg+xml</dc:format>
        <dc:type
           rdf:resource="http://purl.org/dc/dcmitype/StillImage" />
        <dc:title></dc:title>
      </cc:Work>
    </rdf:RDF>
  </metadata>
  <defs
     id="defs8" />
  <sodipodi:namedview
     pagecolor="#ffffff"
     bordercolor="#666666"
     borderopacity="1"
     objecttolerance="10"
     gridtolerance="10"
     guidetolerance="10"
     inkscape:pageopacity="0"
     inkscape:pageshadow="2"
     inkscape:window-width="1514"
     inkscape:window-height="754"
     id="namedview6"
     showgrid="false"
     inkscape:zoom="9.8333333"
     inkscape:cx="12"
     inkscape:cy="12"
     inkscape:window-x="741"
     inkscape:window-y="1016"
     inkscape:window-maximized="0"
     inkscape:current-layer="svg4" />
  <path
     d="m 5.6935551,8.098305 c 1.2455084,1.3906916 2.3267542,2.588136 4.4378009,2.588136 h 9.927966 V 21.901695 H 2.0084745 V 8.098305 Z M 6.5211864,6.3728813 H 0.20338983 V 23.627119 H 21.864407 V 8.9610169 H 10.131356 c -1.4702416,0 -2.0803603,-0.9127491 -3.6101696,-2.5881356 z"
     id="path2"
     inkscape:connector-curvature="0"
     style="stroke-width:0.88240242" />
  <path
     inkscape:connector-curvature="0"
     d="M 3.5832471,21.536139 17.848858,15.043867 3.5832471,8.5515943 3.5764507,13.60114 13.771027,15.043867 3.5764507,16.486594 Z"
     id="path2-4"
     style="stroke-width:0.70019025" />
  <path
     inkscape:connector-curvature="0"
     d="M 23.898305,5.068144 V 3.4742287 C 23.079152,3.1950931 22.858728,3.1819745 22.74394,2.9170508 22.628389,2.6513983 22.775597,2.4910593 23.147796,1.7425678 L 21.968262,0.61545771 C 21.195635,0.96638143 21.019448,1.1125084 20.73877,1.0013645 20.461525,0.89131362 20.445889,0.67740686 20.15644,-0.10169484 H 18.488007 C 18.196652,0.67959325 18.182923,0.89131362 17.904915,1.0013645 17.618135,1.1154237 17.446143,0.96492357 16.675805,0.61545771 L 15.49627,1.7425678 c 0.372585,0.7488559 0.519408,0.9084661 0.403857,1.1748474 -0.11517,0.2649237 -0.335975,0.2784068 -1.154365,0.5568135 v 1.5942796 c 0.81572,0.2769492 1.039195,0.2915255 1.154365,0.5568136 0.115932,0.2674746 -0.03089,0.4252627 -0.403857,1.1744828 l 1.179535,1.1271102 c 0.76233,-0.3461864 0.941949,-0.5003305 1.22911,-0.3859067 0.277627,0.1100507 0.291355,0.3206779 0.583092,1.1030592 h 1.668051 c 0.289069,-0.7765508 0.304704,-0.9922796 0.586145,-1.1045169 0.28411,-0.1122373 0.452288,0.036076 1.226059,0.387 L 23.147796,6.7994404 C 22.775974,6.0524066 22.628389,5.8913388 22.74394,5.6249575 22.858347,5.3603982 23.079533,5.3469151 23.898305,5.068144 Z m -1.859111,0.2784067 c -0.220042,0.5079831 -0.02593,0.8957118 0.186102,1.3038474 l -0.41339,0.3950168 C 21.395084,6.8475421 20.987796,6.6533134 20.449321,6.8668556 19.916948,7.0785759 19.766694,7.4837963 19.614915,7.9152539 h -0.585 c -0.15178,-0.431822 -0.301653,-0.8370424 -0.8325,-1.0476695 -0.541145,-0.214271 -0.95606,-0.016398 -1.364873,0.1778305 L 16.419533,6.6503981 C 16.631949,6.2429914 16.826059,5.8559914 16.605254,5.345822 16.384449,4.8389321 15.960381,4.6957202 15.508474,4.5506863 V 3.9920507 C 15.960381,3.8470169 16.384449,3.703805 16.604872,3.1961864 16.825296,2.6882034 16.630812,2.3001101 16.41877,1.8919745 l 0.41339,-0.3950169 c 0.412628,0.1960508 0.824492,0.3924661 1.365255,0.1778305 0.530847,-0.2102627 0.68072,-0.6158475 0.8325,-1.04766942 h 0.585 c 0.151779,0.43182192 0.302033,0.83704232 0.832881,1.04766942 0.541144,0.2142712 0.955678,0.016398 1.364873,-0.1778305 l 0.413389,0.3950169 c -0.212033,0.4085 -0.406143,0.7969577 -0.186101,1.3045763 0.220042,0.5068898 0.64411,0.6501016 1.096399,0.7954999 v 0.559 c -0.453051,0.1450339 -0.877882,0.2882458 -1.097162,0.7955 z M 19.322033,3.1779661 c 0.630763,0 1.144068,0.4904915 1.144068,1.0932202 0,0.6027289 -0.513305,1.0932203 -1.144068,1.0932203 -0.630763,0 -1.144067,-0.4904914 -1.144067,-1.0932203 0,-0.6027287 0.513304,-1.0932202 1.144067,-1.0932202 z m 0,-0.7288136 c -1.053305,0 -1.906779,0.8155423 -1.906779,1.8220338 0,1.0064916 0.853474,1.8220339 1.906779,1.8220339 1.053305,0 1.90678,-0.8155423 1.90678,-1.8220339 0,-1.0064915 -0.853475,-1.8220338 -1.90678,-1.8220338 z"
     id="path2-0"
     style="stroke-width:0.37278503" />
</svg>
