<?xml version="1.0" encoding="UTF-8" standalone="no"?>
<svg
   xmlns:dc="http://purl.org/dc/elements/1.1/"
   xmlns:cc="http://creativecommons.org/ns#"
   xmlns:rdf="http://www.w3.org/1999/02/22-rdf-syntax-ns#"
   xmlns:svg="http://www.w3.org/2000/svg"
   xmlns="http://www.w3.org/2000/svg"
   xmlns:sodipodi="http://sodipodi.sourceforge.net/DTD/sodipodi-0.dtd"
   xmlns:inkscape="http://www.inkscape.org/namespaces/inkscape"
   width="24"
   height="24"
   viewBox="0 0 24 24"
   version="1.1"
   id="svg4"
   sodipodi:docname="file-folder-up-directory.svg"
   inkscape:version="0.92.2 (5c3e80d, 2017-08-06)">
  <metadata
     id="metadata10">
    <rdf:RDF>
      <cc:Work
         rdf:about="">
        <dc:format>image/svg+xml</dc:format>
        <dc:type
           rdf:resource="http://purl.org/dc/dcmitype/StillImage" />
        <dc:title />
      </cc:Work>
    </rdf:RDF>
  </metadata>
  <defs
     id="defs8" />
  <sodipodi:namedview
     pagecolor="#ffffff"
     bordercolor="#666666"
     borderopacity="1"
     objecttolerance="10"
     gridtolerance="10"
     guidetolerance="10"
     inkscape:pageopacity="0"
     inkscape:pageshadow="2"
     inkscape:window-width="2826"
     inkscape:window-height="1661"
     id="namedview6"
     showgrid="false"
     inkscape:zoom="9.8333333"
     inkscape:cx="-55.932204"
     inkscape:cy="32.338983"
     inkscape:window-x="0"
     inkscape:window-y="0"
     inkscape:window-maximized="0"
     inkscape:current-layer="svg4" />
  <path
     d="M6.083 4c1.38 1.612 2.578 3 4.917 3h11v13h-20v-16h4.083zm.917-2h-7v20h24v-17h-13c-1.629 0-2.305-1.058-4-3z"
     id="path2" />
  <path
     d="M 7.2585073,15.017022 H 19.081406 v 2.759435 H 7.2585073 Z"
     id="path2-1"
     inkscape:connector-curvature="0"
     style="stroke-width:0.47598231" />
  <path
     d="M 6.6609219,8.1784046 2.8938114,11.814391 c -0.1486832,0.143236 -0.1472738,0.375841 0.00141,0.519689 l 2.6269713,0.0031 v 4.911642 c 0,0.338502 0.3093455,0.612119 0.6919762,0.612119 h 1.3853602 c 0.3826307,0 0.6919763,-0.273617 0.6919763,-0.612119 v -4.909191 l 2.6847532,0.0031 c 0.147273,-0.141396 0.146568,-0.374613 -0.0022,-0.519073 L 7.1992824,8.179017 C 7.0491894,8.0363932 6.8096053,8.0345568 6.6609219,8.1784046 Z"
     class="si-glyph-fill"
     id="path6"
     inkscape:connector-curvature="0"
     style="fill:#434343;fill-rule:evenodd;stroke:none;stroke-width:0.65676135;fill-opacity:1" />
  <path
     style="fill:#434343;fill-opacity:1;stroke-width:0.10169491"
     d="m 8.176271,17.654237 c 0.081687,-0.08169 0.1220339,-0.535593 0.1220339,-1.372881 v -1.250847 h 5.3898301 5.389831 v 1.372881 1.372881 h -5.511864 c -4.2870062,0 -5.4847463,-0.02712 -5.389831,-0.122034 z"
     id="path3698"
     inkscape:connector-curvature="0" />
</svg>
