<?xml version="1.0" encoding="UTF-8" standalone="no"?>
<svg
   xmlns:dc="http://purl.org/dc/elements/1.1/"
   xmlns:cc="http://creativecommons.org/ns#"
   xmlns:rdf="http://www.w3.org/1999/02/22-rdf-syntax-ns#"
   xmlns:svg="http://www.w3.org/2000/svg"
   xmlns="http://www.w3.org/2000/svg"
   xmlns:sodipodi="http://sodipodi.sourceforge.net/DTD/sodipodi-0.dtd"
   xmlns:inkscape="http://www.inkscape.org/namespaces/inkscape"
   width="24"
   height="24"
   viewBox="0 0 24 24"
   version="1.1"
   id="svg4"
   sodipodi:docname="file-folder-share.svg"
   inkscape:version="0.92.4 (5da689c313, 2019-01-14)">
  <metadata
     id="metadata10">
    <rdf:RDF>
      <cc:Work
         rdf:about="">
        <dc:format>image/svg+xml</dc:format>
        <dc:type
           rdf:resource="http://purl.org/dc/dcmitype/StillImage" />
        <dc:title />
      </cc:Work>
    </rdf:RDF>
  </metadata>
  <defs
     id="defs8" />
  <sodipodi:namedview
     pagecolor="#ffffff"
     bordercolor="#666666"
     borderopacity="1"
     objecttolerance="10"
     gridtolerance="10"
     guidetolerance="10"
     inkscape:pageopacity="0"
     inkscape:pageshadow="2"
     inkscape:window-width="2521"
     inkscape:window-height="1350"
     id="namedview6"
     showgrid="false"
     inkscape:zoom="9.8333333"
     inkscape:cx="-48.575"
     inkscape:cy="2.1080508"
     inkscape:window-x="409"
     inkscape:window-y="184"
     inkscape:window-maximized="0"
     inkscape:current-layer="svg4" />
  <path
     d="M6.083 4c1.38 1.612 2.578 3 4.917 3h11v13h-20v-16h4.083zm.917-2h-7v20h24v-17h-13c-1.629 0-2.305-1.058-4-3z"
     id="path2" />
  <g
     style="clip-rule:evenodd;fill-rule:evenodd"
     id="g3722"
     transform="matrix(0.68983051,0,0,0.50847458,2.9593221,7.4105085)">
    <path
       id="path3711"
       d="M 6.994,15.026 V 13.193 C 6.99,11.898 6.826,10.533 9.496,9.925 10.506,9.696 11.891,9.381 12.118,8.879 12.142,8.828 12.213,8.67 12.012,8.297 10.581,5.659 10.314,3.332 11.258,1.745 c 0.65,-1.092 1.834,-1.719 3.248,-1.719 1.403,0 2.579,0.618 3.228,1.694 0.943,1.568 0.684,3.902 -0.731,6.573 -0.198,0.376 -0.125,0.535 -0.101,0.587 0.231,0.502 1.571,0.808 2.647,1.053 2.77,0.631 2.416,2.236 2.451,3.279 v 3.958 c 0,0.49 -0.201,0.977 -0.609,1.356 -1.378,1.28 -4.453,4.026 -4.935,4.467 -0.749,0.687 -1.518,1.006 -2.421,1.006 -0.405,0 -0.832,-0.065 -1.308,-0.2 C 9.954,23.016 8.243,22.763 7,22.694 v 1.332 H 2 v -9 z M 6,16.026 H 3 v 7 h 3 z m 1,5.664 c 2.092,0.118 4.405,0.696 5.999,1.147 0.817,0.231 1.761,0.354 2.782,-0.581 1.279,-1.172 2.722,-2.413 4.929,-4.463 0.824,-0.765 -0.178,-1.783 -1.022,-1.113 0,0 -2.961,2.299 -3.689,2.843 -0.379,0.285 -0.695,0.519 -1.148,0.519 -0.36,0 -2.232,-0.467 -3.104,-0.743 -0.575,-0.183 -0.371,-0.993 0.268,-0.858 0.447,0.093 1.594,0.35 2.201,0.52 1.017,0.281 1.276,-0.867 0.422,-1.152 -0.562,-0.19 -0.537,-0.198 -1.889,-0.665 C 11.448,16.693 10.535,16.391 9.164,16.988 8.525,17.266 7.732,17.604 7,17.802 Z m 14.006,-6.066 v -2.422 c 0.008,-1.858 -0.269,-1.972 -1.679,-2.294 -1.49,-0.34 -2.898,-0.66 -3.334,-1.611 -0.201,-0.438 -0.158,-0.933 0.126,-1.472 1.244,-2.349 1.513,-4.334 0.757,-5.59 -0.469,-0.779 -1.31,-1.209 -2.37,-1.209 -1.068,0 -1.916,0.437 -2.389,1.23 -0.757,1.272 -0.482,3.248 0.774,5.565 0.291,0.537 0.338,1.032 0.138,1.471 C 12.597,10.247 11.132,10.579 9.717,10.9 8.315,11.221 7.993,11.315 8,13.197 v 3.2 l 0.765,-0.325 c 0.642,-0.28 1.259,-0.417 1.887,-0.417 1.214,0 2.205,0.499 4.303,1.205 0.64,0.214 1.076,0.716 1.175,1.306 1.124,-0.863 2.92,-2.257 2.937,-2.27 0.357,-0.284 0.773,-0.434 1.2,-0.434 0.262,0 0.513,0.058 0.739,0.162 z"
       inkscape:connector-curvature="0" />
  </g>
</svg>
