<?xml version="1.0" encoding="UTF-8" standalone="no"?>
<!-- Generated by IcoMoon.io -->

<svg
   xmlns:dc="http://purl.org/dc/elements/1.1/"
   xmlns:cc="http://creativecommons.org/ns#"
   xmlns:rdf="http://www.w3.org/1999/02/22-rdf-syntax-ns#"
   xmlns:svg="http://www.w3.org/2000/svg"
   xmlns="http://www.w3.org/2000/svg"
   xmlns:sodipodi="http://sodipodi.sourceforge.net/DTD/sodipodi-0.dtd"
   xmlns:inkscape="http://www.inkscape.org/namespaces/inkscape"
   version="1.1"
   width="32"
   height="32"
   viewBox="0 0 32 32"
   id="svg10"
   sodipodi:docname="file-text.svg"
   inkscape:version="0.92.2 (5c3e80d, 2017-08-06)">
  <metadata
     id="metadata16">
    <rdf:RDF>
      <cc:Work
         rdf:about="">
        <dc:format>image/svg+xml</dc:format>
        <dc:type
           rdf:resource="http://purl.org/dc/dcmitype/StillImage" />
        <dc:title>file-video</dc:title>
      </cc:Work>
    </rdf:RDF>
  </metadata>
  <defs
     id="defs14" />
  <sodipodi:namedview
     pagecolor="#ffffff"
     bordercolor="#666666"
     borderopacity="1"
     objecttolerance="10"
     gridtolerance="10"
     guidetolerance="10"
     inkscape:pageopacity="0"
     inkscape:pageshadow="2"
     inkscape:window-width="909"
     inkscape:window-height="480"
     id="namedview12"
     showgrid="false"
     inkscape:zoom="7.375"
     inkscape:cx="16"
     inkscape:cy="16"
     inkscape:window-x="249"
     inkscape:window-y="39"
     inkscape:window-maximized="0"
     inkscape:current-layer="svg10" />
  <title
     id="title2">file-video</title>
  <path
     d="M28.681 7.159c-0.694-0.947-1.662-2.053-2.724-3.116s-2.169-2.030-3.116-2.724c-1.612-1.182-2.394-1.319-2.841-1.319h-15.5c-1.378 0-2.5 1.121-2.5 2.5v27c0 1.378 1.121 2.5 2.5 2.5h23c1.378 0 2.5-1.122 2.5-2.5v-19.5c0-0.448-0.137-1.23-1.319-2.841v0 0zM24.543 5.457c0.959 0.959 1.712 1.825 2.268 2.543h-4.811v-4.811c0.718 0.556 1.584 1.309 2.543 2.268v0 0zM28 29.5c0 0.271-0.229 0.5-0.5 0.5h-23c-0.271 0-0.5-0.229-0.5-0.5v-27c0-0.271 0.229-0.5 0.5-0.5 0 0 15.499-0 15.5 0v7c0 0.552 0.448 1 1 1h7v19.5z"
     id="path4" />
  <path
     inkscape:connector-curvature="0"
     d="m 7.7498136,16.254238 c 0,0.518 0.42,0.938 0.938,0.938 H 22.769813 c 0.518,0 0.938,-0.42 0.938,-0.938 v 0 c 0,-0.518 -0.42,-0.938 -0.938,-0.938 H 8.6878136 c -0.518,0 -0.938,0.42 -0.938,0.938 z"
     class="si-glyph-fill"
     id="path6" />
  <path
     inkscape:connector-curvature="0"
     d="m 7.7498136,22.254238 c 0,0.518 0.42,0.938 0.938,0.938 H 18.769813 c 0.518,0 0.938,-0.42 0.938,-0.938 v 0 c 0,-0.518 -0.42,-0.938 -0.938,-0.938 H 8.6878136 c -0.518,0 -0.938,0.42 -0.938,0.938 z"
     class="si-glyph-fill"
     id="path10" />
  <path
     inkscape:connector-curvature="0"
     d="m 7.7498136,19.254238 c 0,0.518 0.42,0.938 0.938,0.938 h 6.0819994 c 0.518,0 0.938,-0.42 0.938,-0.938 v 0 c 0,-0.518 -0.42,-0.938 -0.938,-0.938 H 8.6878136 c -0.518,0 -0.938,0.42 -0.938,0.938 z"
     class="si-glyph-fill"
     id="path14" />
</svg>
