<?xml version="1.0" encoding="UTF-8" standalone="no"?>
<svg
   xmlns:dc="http://purl.org/dc/elements/1.1/"
   xmlns:cc="http://creativecommons.org/ns#"
   xmlns:rdf="http://www.w3.org/1999/02/22-rdf-syntax-ns#"
   xmlns:svg="http://www.w3.org/2000/svg"
   xmlns="http://www.w3.org/2000/svg"
   xmlns:sodipodi="http://sodipodi.sourceforge.net/DTD/sodipodi-0.dtd"
   xmlns:inkscape="http://www.inkscape.org/namespaces/inkscape"
   id="svg"
   version="1.1"
   width="400"
   height="400"
   viewBox="0 0 400 400"
   sodipodi:docname="gotv_icon.svg"
   inkscape:version="0.92.4 (5da689c313, 2019-01-14)">
  <metadata
     id="metadata13">
    <rdf:RDF>
      <cc:Work
         rdf:about="">
        <dc:format>image/svg+xml</dc:format>
        <dc:type
           rdf:resource="http://purl.org/dc/dcmitype/StillImage" />
        <dc:title></dc:title>
      </cc:Work>
    </rdf:RDF>
  </metadata>
  <defs
     id="defs11" />
  <sodipodi:namedview
     pagecolor="#ffffff"
     bordercolor="#666666"
     borderopacity="1"
     objecttolerance="10"
     gridtolerance="10"
     guidetolerance="10"
     inkscape:pageopacity="0"
     inkscape:pageshadow="2"
     inkscape:window-width="2492"
     inkscape:window-height="1424"
     id="namedview9"
     showgrid="false"
     inkscape:zoom="0.59"
     inkscape:cx="200"
     inkscape:cy="200"
     inkscape:window-x="0"
     inkscape:window-y="0"
     inkscape:window-maximized="0"
     inkscape:current-layer="svg" />
  <g
     id="svgg"
     transform="matrix(1.1189026,0,0,1.1189026,-22.506155,-31.730393)">
    <path
       id="path0"
       d="m 78,58.8 c -0.33,0.213 -0.985,0.391 -1.456,0.394 -2.392,0.017 -8.144,3.839 -8.144,5.411 0,0.353 -0.153,0.548 -0.34,0.432 -0.367,-0.227 -2.86,4.322 -2.86,5.219 0,0.299 -0.18,0.544 -0.4,0.544 -0.22,0 -0.4,0.36 -0.4,0.8 0,0.44 -0.18,0.8 -0.4,0.8 -0.22,0 -0.4,0.36 -0.4,0.8 0,0.44 -0.15,0.8 -0.333,0.8 -0.184,0 -0.334,0.264 -0.334,0.587 0,0.322 -0.548,1.717 -1.219,3.1 -0.671,1.382 -1.407,3.233 -1.636,4.113 -0.228,0.88 -0.7,2.566 -1.047,3.746 -0.347,1.18 -0.631,2.395 -0.631,2.7 0,0.305 -0.18,0.554 -0.4,0.554 -0.22,0 -0.4,0.36 -0.4,0.8 0,0.44 -0.18,0.8 -0.4,0.8 -0.22,0 -0.4,0.619 -0.4,1.376 0,0.757 -0.18,1.488 -0.4,1.624 -0.22,0.136 -0.4,0.687 -0.4,1.224 0,0.537 -0.18,0.976 -0.4,0.976 -0.22,0 -0.4,0.72 -0.4,1.6 0,0.88 -0.18,1.6 -0.4,1.6 -0.22,0 -0.4,0.821 -0.4,1.824 0,1.113 -0.156,1.727 -0.4,1.576 -0.252,-0.156 -0.4,0.796 -0.4,2.576 0,1.616 -0.171,2.824 -0.4,2.824 -0.22,0 -0.4,0.72 -0.4,1.6 0,0.88 -0.18,1.6 -0.4,1.6 -0.225,0 -0.4,1.125 -0.4,2.576 0,1.417 -0.18,2.688 -0.4,2.824 -0.22,0.136 -0.4,1.587 -0.4,3.224 0,1.661 -0.172,2.976 -0.389,2.976 -0.244,0 -0.389,5.205 -0.39,14.017 0,8.997 0.139,13.931 0.389,13.777 0.241,-0.149 0.39,0.98 0.39,2.949 0,1.755 0.17,3.25 0.378,3.324 0.208,0.073 0.416,1.341 0.462,2.818 0.047,1.477 0.237,2.591 0.423,2.476 0.185,-0.114 0.337,0.612 0.337,1.615 0,1.003 0.18,1.824 0.4,1.824 0.225,0 0.4,1.125 0.4,2.576 0,1.417 0.18,2.688 0.4,2.824 0.22,0.136 0.4,0.867 0.4,1.624 0,0.757 0.18,1.376 0.4,1.376 0.22,0 0.4,0.54 0.4,1.2 0,0.66 0.18,1.2 0.4,1.2 0.22,0 0.4,0.705 0.4,1.567 0,0.861 0.172,1.626 0.382,1.7 0.211,0.073 0.428,0.808 0.482,1.633 0.055,0.825 0.243,1.5 0.418,1.5 0.175,0 0.318,0.54 0.318,1.2 0,0.66 0.159,1.2 0.353,1.2 0.195,0 0.446,0.405 0.56,0.9 0.257,1.122 1.081,3.473 1.541,4.395 0.19,0.382 0.346,1.136 0.346,1.676 0,0.54 0.18,1.093 0.4,1.229 0.22,0.136 0.4,0.676 0.4,1.2 0,0.524 0.18,1.064 0.4,1.2 0.22,0.136 0.4,0.597 0.4,1.024 0,0.427 0.136,0.776 0.302,0.776 0.391,0 1.326,2.112 1.406,3.176 0.034,0.453 0.204,0.824 0.377,0.824 0.173,0 0.315,0.36 0.315,0.8 0,0.44 0.18,0.8 0.4,0.8 0.22,0 0.4,0.32 0.4,0.712 0,0.391 0.36,0.971 0.8,1.288 0.44,0.317 0.8,0.897 0.8,1.288 0,0.392 0.18,0.712 0.4,0.712 0.22,0 0.4,0.45 0.4,1 0,0.55 0.18,1 0.4,1 0.22,0 0.4,0.36 0.4,0.8 0,0.44 0.18,0.8 0.4,0.8 0.22,0 0.4,0.36 0.4,0.8 0,0.44 0.18,0.8 0.4,0.8 0.22,0 0.4,0.36 0.4,0.8 0,0.44 0.18,0.8 0.4,0.8 0.22,0 0.4,0.283 0.4,0.629 0,0.345 0.279,0.907 0.62,1.248 0.34,0.341 0.723,1.138 0.85,1.771 0.126,0.634 0.388,1.152 0.58,1.152 0.193,0 0.35,0.371 0.35,0.824 0,0.453 0.18,0.712 0.4,0.576 0.22,-0.136 0.4,0.033 0.4,0.376 0,0.343 0.18,0.624 0.4,0.624 0.22,0 0.4,0.371 0.4,0.824 0,0.453 0.161,0.724 0.358,0.602 0.322,-0.199 0.919,0.683 1.007,1.489 0.019,0.173 0.305,0.485 0.635,0.693 0.33,0.209 0.431,0.383 0.224,0.386 -0.208,0.003 -0.028,0.27 0.4,0.593 0.427,0.323 0.613,0.593 0.415,0.6 -0.449,0.016 1.355,1.613 1.822,1.613 0.187,0 0.339,0.36 0.339,0.8 0,0.44 0.18,0.8 0.4,0.8 0.22,0 0.4,0.36 0.4,0.8 0,0.44 0.18,0.8 0.4,0.8 0.22,0 0.4,0.317 0.4,0.704 0,0.387 0.36,0.928 0.8,1.203 0.44,0.275 0.8,0.819 0.8,1.208 0,0.39 0.36,0.968 0.8,1.285 0.44,0.317 0.804,0.762 0.809,0.988 0.016,0.703 2.677,3.412 3.352,3.412 0.365,0 0.639,0.331 0.639,0.773 0,0.425 0.36,0.887 0.8,1.027 0.44,0.14 0.8,0.525 0.8,0.856 0,0.71 0.713,1.48 1.725,1.864 0.399,0.151 0.635,0.422 0.523,0.602 -0.111,0.18 0.192,0.795 0.675,1.366 0.482,0.57 1.142,1.414 1.465,1.875 0.324,0.46 0.737,0.837 0.918,0.837 0.491,0 2.294,1.894 2.294,2.41 0,0.653 1.044,1.59 1.771,1.59 0.346,0 0.629,0.283 0.629,0.629 0,0.718 0.934,1.771 1.571,1.771 0.236,0 0.429,0.15 0.429,0.332 0,0.183 0.45,0.574 1,0.868 0.55,0.294 1,0.778 1,1.075 0,0.478 1.764,0.386 2.359,-0.123 0.292,-0.25 14.158,-13.505 17.781,-16.998 3.726,-3.592 4.521,-5.554 2.252,-5.554 -0.453,0 -0.792,-0.269 -0.792,-0.629 0,-0.685 -0.924,-1.771 -1.507,-1.771 -0.2,0 -1.177,-0.896 -2.171,-1.991 -0.993,-1.095 -1.922,-1.875 -2.064,-1.734 -0.142,0.142 -0.258,-0.002 -0.258,-0.32 0,-0.318 -0.36,-0.838 -0.8,-1.155 -0.44,-0.317 -0.8,-0.792 -0.8,-1.055 0,-0.263 -0.54,-0.717 -1.2,-1.009 -0.66,-0.292 -1.2,-0.766 -1.2,-1.052 0,-0.286 -0.453,-0.974 -1.008,-1.528 -0.554,-0.554 -0.9,-1.18 -0.77,-1.392 0.131,-0.211 -10e-4,-0.334 -0.292,-0.274 -0.292,0.061 -0.481,-0.128 -0.42,-0.42 0.06,-0.291 -0.056,-0.427 -0.259,-0.301 -0.451,0.278 -2.851,-1.896 -2.851,-2.583 0,-0.27 -0.315,-0.785 -0.7,-1.143 -0.673,-0.626 -1.236,-1.493 -2.368,-3.643 -0.29,-0.55 -0.528,-0.865 -0.53,-0.7 -0.004,0.58 -1.488,-1.194 -2.039,-2.44 -0.307,-0.693 -0.694,-1.26 -0.861,-1.26 -0.166,0 -0.302,-0.32 -0.302,-0.712 0,-0.391 -0.36,-0.971 -0.8,-1.288 -0.44,-0.317 -0.8,-0.857 -0.8,-1.2 0,-0.343 -0.36,-0.883 -0.8,-1.2 -0.44,-0.317 -0.8,-0.897 -0.8,-1.288 0,-0.392 -0.18,-0.712 -0.4,-0.712 -0.22,0 -0.4,-0.36 -0.4,-0.8 0,-0.44 -0.18,-0.8 -0.4,-0.8 -0.22,0 -0.4,-0.36 -0.4,-0.8 0,-0.44 -0.18,-0.8 -0.4,-0.8 -0.22,0 -0.4,-0.36 -0.4,-0.8 0,-0.44 -0.135,-0.801 -0.3,-0.801 -0.165,-0.001 -0.75,-0.991 -1.3,-2.199 -0.55,-1.208 -1.135,-2.198 -1.3,-2.199 -0.165,0 -0.3,-0.361 -0.3,-0.801 0,-0.44 -0.18,-0.8 -0.4,-0.8 -0.22,0 -0.4,-0.36 -0.4,-0.8 0,-0.44 -0.18,-0.8 -0.4,-0.8 -0.22,0 -0.403,-0.585 -0.406,-1.3 -0.005,-0.986 -0.1,-1.155 -0.394,-0.7 -0.314,0.487 -0.389,0.432 -0.394,-0.288 -0.003,-0.488 -0.369,-1.535 -0.814,-2.326 -0.444,-0.791 -0.723,-1.574 -0.62,-1.74 0.103,-0.167 -0.056,-0.773 -0.354,-1.346 -0.298,-0.574 -0.458,-1.127 -0.356,-1.229 0.102,-0.101 -0.366,-1.399 -1.038,-2.883 -0.673,-1.484 -1.224,-3.023 -1.224,-3.42 0,-0.396 -0.18,-0.832 -0.4,-0.968 -0.22,-0.136 -0.4,-0.777 -0.4,-1.424 0,-0.647 -0.18,-1.176 -0.4,-1.176 -0.22,0 -0.4,-0.731 -0.4,-1.624 0,-0.98 -0.158,-1.525 -0.4,-1.376 -0.25,0.154 -0.4,-0.655 -0.4,-2.153 0,-1.32 -0.18,-2.511 -0.4,-2.647 -0.22,-0.136 -0.4,-0.831 -0.4,-1.544 0,-0.713 -0.179,-1.475 -0.398,-1.694 -0.219,-0.219 -0.458,-1.481 -0.53,-2.804 -0.072,-1.324 -0.238,-2.58 -0.37,-2.792 -0.131,-0.212 -0.279,-1.552 -0.329,-2.976 -0.05,-1.425 -0.25,-2.795 -0.444,-3.045 -0.681,-0.88 -0.004,-27.832 0.748,-29.745 0.13,-0.33 0.308,-1.671 0.396,-2.979 0.088,-1.309 0.305,-2.569 0.482,-2.8 0.177,-0.232 0.364,-1.501 0.414,-2.821 0.051,-1.32 0.258,-2.46 0.462,-2.533 0.203,-0.074 0.369,-0.749 0.369,-1.5 0,-0.752 0.18,-1.367 0.4,-1.367 0.22,0 0.4,-0.54 0.4,-1.2 0,-1.396 0.389,-1.525 1.2,-0.4 0.317,0.44 0.857,0.8 1.2,0.8 0.343,0 0.883,0.36 1.2,0.8 0.317,0.44 0.811,0.8 1.098,0.8 0.287,0 0.687,0.405 0.89,0.9 0.451,1.105 2.575,3.5 3.103,3.5 0.212,0 0.711,0.36 1.109,0.8 0.398,0.44 0.966,0.8 1.262,0.8 0.296,0 0.538,0.276 0.538,0.613 0,0.796 2.591,3.387 3.387,3.387 0.337,0 0.613,0.283 0.613,0.629 0,0.699 0.744,1.513 1.537,1.68 0.695,0.147 2.463,1.942 2.463,2.501 0,0.554 1.004,1.59 1.54,1.59 0.218,0 1.207,0.81 2.197,1.8 0.99,0.99 2.013,1.8 2.274,1.8 0.261,0 0.382,0.242 0.268,0.538 -0.113,0.296 0.162,0.791 0.613,1.1 0.45,0.309 1.235,0.967 1.745,1.462 0.51,0.495 1.205,0.9 1.545,0.9 0.34,0 0.618,0.247 0.618,0.549 0,0.697 3.101,4.085 3.616,3.951 0.211,-0.055 0.384,0.093 0.384,0.329 0,0.637 1.053,1.571 1.771,1.571 0.346,0 0.629,0.283 0.629,0.629 0,0.345 0.27,0.898 0.6,1.228 0.33,0.33 0.6,0.504 0.6,0.387 0,-0.117 0.72,0.536 1.6,1.452 0.88,0.916 1.6,1.809 1.6,1.985 0,0.175 0.36,0.319 0.8,0.319 0.452,0 0.8,0.267 0.8,0.613 0,0.561 2.512,3.409 2.993,3.394 0.855,-0.028 1.007,0.066 1.007,0.622 0,0.771 0.951,1.771 1.683,1.771 0.297,0 0.8,0.36 1.117,0.8 0.317,0.44 0.897,0.8 1.288,0.8 0.392,0 0.712,0.276 0.712,0.613 0,0.796 2.591,3.387 3.387,3.387 0.337,0 0.613,0.283 0.613,0.629 0,0.718 0.934,1.771 1.571,1.771 0.236,0 0.433,0.135 0.438,0.3 0.02,0.622 2.739,3.3 3.352,3.3 0.351,0 0.639,0.18 0.639,0.4 0,0.987 0.805,2 1.59,2 0.579,0 2.41,1.831 2.41,2.41 0,0.653 1.044,1.59 1.771,1.59 0.346,0 0.629,0.152 0.629,0.339 0,0.636 1.399,1.936 1.9,1.765 0.275,-0.094 0.5,0.033 0.5,0.281 0,0.76 4.751,5.608 5.5,5.612 0.275,0.002 0.5,0.204 0.5,0.45 0,0.626 5.09,5.553 5.736,5.553 0.291,0 0.784,0.495 1.096,1.1 0.773,1.497 2.2,2.9 2.95,2.9 0.357,0 0.618,0.347 0.618,0.824 0,0.453 0.18,0.712 0.4,0.576 0.22,-0.136 0.4,0.033 0.4,0.376 0,0.343 0.236,0.624 0.525,0.624 0.289,0 1.029,0.525 1.644,1.168 1.113,1.162 1.124,1.164 2.291,0.454 1.754,-1.066 20.779,-19.681 21.175,-20.719 0.383,-1.003 0.075,-2.218 -0.477,-1.877 -0.197,0.122 -0.358,0.043 -0.358,-0.175 0,-0.219 -0.36,-0.511 -0.8,-0.651 -0.44,-0.14 -0.8,-0.525 -0.8,-0.856 0,-0.785 -0.974,-1.744 -1.771,-1.744 -0.346,0 -0.629,-0.226 -0.629,-0.503 0,-0.573 -2.354,-2.84 -3.343,-3.22 -0.361,-0.138 -0.657,-0.45 -0.657,-0.693 0,-0.521 -0.995,-1.584 -1.483,-1.584 -0.187,0 -0.6,-0.36 -0.917,-0.8 -0.317,-0.44 -0.897,-0.8 -1.288,-0.8 -0.392,0 -0.712,-0.288 -0.712,-0.639 0,-0.722 -2.732,-3.337 -3.5,-3.352 -0.275,-0.005 -0.5,-0.292 -0.5,-0.638 0,-0.345 -0.257,-0.885 -0.571,-1.2 -0.315,-0.314 -0.855,-0.571 -1.2,-0.571 -0.346,0 -0.629,-0.152 -0.629,-0.339 0,-0.186 -0.315,-0.709 -0.7,-1.162 -0.385,-0.454 -0.965,-1.201 -1.288,-1.662 -0.324,-0.46 -0.909,-0.837 -1.3,-0.837 -0.392,0 -0.712,-0.193 -0.712,-0.429 0,-0.519 -1.004,-1.571 -1.499,-1.571 -0.462,0 -1.745,-1.511 -2.469,-2.906 -0.312,-0.602 -0.854,-1.094 -1.205,-1.094 -0.35,0 -0.815,-0.39 -1.032,-0.867 -0.217,-0.477 -0.741,-1.062 -1.164,-1.3 -1.027,-0.578 -3.235,-2.633 -2.828,-2.633 0.176,0 -0.005,-0.36 -0.403,-0.8 -0.398,-0.44 -0.965,-0.8 -1.259,-0.8 -0.294,0 -0.759,-0.36 -1.034,-0.8 -0.275,-0.44 -0.816,-0.8 -1.203,-0.8 -0.387,0 -0.704,-0.291 -0.704,-0.646 0,-0.751 -4.713,-5.354 -5.481,-5.354 -0.286,0 -0.519,-0.19 -0.519,-0.422 0,-0.232 -0.539,-0.997 -1.198,-1.7 -0.659,-0.703 -1.199,-1.413 -1.2,-1.578 -0.001,-0.165 -0.362,-0.3 -0.802,-0.3 -0.716,0 -0.987,-0.416 -0.847,-1.3 0.026,-0.165 -0.234,-0.3 -0.577,-0.3 -0.343,0 -0.512,-0.18 -0.376,-0.4 0.136,-0.22 -0.042,-0.4 -0.395,-0.4 -0.679,0 -2.115,-1.328 -2.838,-2.624 -0.238,-0.427 -0.823,-0.954 -1.3,-1.171 -0.477,-0.217 -0.867,-0.582 -0.867,-0.812 0,-0.229 -0.395,-0.681 -0.877,-1.005 -0.482,-0.323 -1.3,-0.993 -1.818,-1.488 -0.518,-0.495 -1.113,-0.9 -1.323,-0.9 -0.21,0 -0.382,-0.193 -0.382,-0.429 0,-0.583 -1.03,-1.571 -1.638,-1.571 -0.272,0 -0.384,-0.111 -0.248,-0.248 0.355,-0.355 -0.74,-1.352 -1.485,-1.352 -0.346,0 -0.629,-0.283 -0.629,-0.629 0,-0.345 -0.257,-0.885 -0.571,-1.2 -0.315,-0.314 -0.855,-0.571 -1.2,-0.571 -0.368,0 -0.629,-0.342 -0.629,-0.824 0,-0.453 -0.18,-0.712 -0.4,-0.576 -0.22,0.136 -0.4,-0.044 -0.4,-0.4 0,-0.356 -0.18,-0.536 -0.4,-0.4 -0.22,0.136 -0.4,0.044 -0.4,-0.205 0,-0.657 -1.041,-1.595 -1.771,-1.595 -0.346,0 -0.629,-0.283 -0.629,-0.629 0,-0.727 -0.937,-1.771 -1.59,-1.771 -0.572,0 -2.166,-1.588 -2.521,-2.513 -0.15,-0.39 -1.176,-1.272 -2.281,-1.958 -1.104,-0.687 -2.008,-1.418 -2.008,-1.626 0,-0.643 -5.089,-5.503 -5.763,-5.503 -0.35,0 -0.637,-0.276 -0.637,-0.613 0,-0.796 -2.591,-3.387 -3.387,-3.387 -0.337,0 -0.613,-0.283 -0.613,-0.629 0,-0.808 -0.963,-1.771 -1.771,-1.771 -0.346,0 -0.629,-0.255 -0.629,-0.566 0,-0.311 -0.81,-1.279 -1.8,-2.15 -0.99,-0.872 -1.8,-1.71 -1.8,-1.863 0,-0.434 -1.094,-1.421 -1.575,-1.421 -0.238,0 -0.997,-0.54 -1.688,-1.2 -0.691,-0.66 -1.111,-1.2 -0.934,-1.2 0.176,0 -0.005,-0.36 -0.403,-0.8 -0.398,-0.44 -0.923,-0.8 -1.167,-0.8 -0.244,0 -0.621,-0.39 -0.838,-0.867 -0.217,-0.477 -0.741,-1.062 -1.164,-1.3 -0.423,-0.238 -1.718,-1.395 -2.877,-2.571 -1.159,-1.176 -2.298,-2.02 -2.531,-1.876 C 91.791,62.729 91.6,62.567 91.6,62.224 91.6,61.662 91.133,61.421 90.3,61.553 90.135,61.579 90,61.455 90,61.277 90,59.779 79.757,57.665 78,58.8 m 138.796,134.505 c -2.528,2.477 -7.251,7.069 -10.496,10.204 -3.848,3.717 -5.9,5.986 -5.9,6.524 0,0.978 0.89,1.967 1.771,1.967 0.346,0 0.629,0.278 0.629,0.618 0,0.34 0.405,1.035 0.9,1.545 0.495,0.51 1.165,1.311 1.488,1.782 0.324,0.47 0.779,0.855 1.012,0.855 0.233,0 0.683,0.36 1,0.8 0.317,0.44 0.807,0.8 1.088,0.8 0.282,0 0.512,0.182 0.512,0.404 0,0.531 1.909,2.483 3.312,3.387 0.612,0.395 1.026,0.804 0.92,0.911 -0.259,0.258 0.596,1.078 1.468,1.408 0.385,0.146 0.7,0.541 0.7,0.877 0,0.337 0.3,0.613 0.667,0.613 0.366,0 0.555,0.111 0.419,0.248 -0.31,0.31 0.699,1.352 1.309,1.352 0.249,0 0.341,0.18 0.205,0.4 -0.136,0.22 0.123,0.4 0.576,0.4 0.482,0 0.824,0.261 0.824,0.629 0,0.72 0.935,1.771 1.575,1.771 0.486,0 2.825,2.13 2.825,2.572 0,0.438 1.09,1.428 1.571,1.428 0.236,0 0.429,0.177 0.429,0.393 0,0.216 1.166,1.521 2.59,2.9 3.878,3.754 4.533,4.307 5.098,4.307 0.284,0 0.756,0.54 1.048,1.2 0.292,0.66 0.794,1.2 1.116,1.2 0.686,0 2.548,1.762 2.548,2.41 0,0.653 1.044,1.59 1.771,1.59 0.346,0 0.629,0.283 0.629,0.629 0,0.808 0.963,1.771 1.771,1.771 0.346,0 0.629,0.152 0.629,0.339 0,2.629 2.68,2.448 7.838,-0.53 2.104,-1.215 3.91,-2.209 4.013,-2.209 0.103,0 1.124,-0.587 2.268,-1.304 1.145,-0.717 2.531,-1.534 3.081,-1.817 3.718,-1.907 11.672,-8.698 11.516,-9.833 -0.143,-1.04 -1.658,-2.646 -2.498,-2.646 -0.342,0 -0.618,-0.342 -0.618,-0.766 0,-0.467 -0.469,-0.975 -1.2,-1.298 -0.66,-0.292 -1.2,-0.736 -1.2,-0.987 0,-0.538 -3.022,-3.349 -3.601,-3.349 -0.22,0 -0.399,-0.193 -0.399,-0.429 0,-0.562 -1.021,-1.571 -1.59,-1.571 -0.579,0 -2.41,-1.831 -2.41,-2.41 0,-0.565 -0.791,-1.356 -1.7,-1.7 -0.385,-0.146 -0.7,-0.463 -0.7,-0.706 0,-0.533 -1,-1.584 -1.507,-1.584 -0.2,0 -1.177,-0.896 -2.171,-1.991 -0.993,-1.095 -1.922,-1.875 -2.064,-1.734 -0.142,0.142 -0.258,0.035 -0.258,-0.237 0,-0.694 -1.021,-1.638 -1.771,-1.638 -0.362,0 -0.629,-0.339 -0.629,-0.8 0,-0.44 -0.135,-0.803 -0.3,-0.806 -0.165,-0.004 -0.906,-0.541 -1.648,-1.195 -0.741,-0.653 -1.506,-1.089 -1.7,-0.97 -0.193,0.12 -0.352,-0.075 -0.352,-0.434 0,-0.738 -0.925,-1.795 -1.571,-1.795 -0.236,0 -0.429,-0.152 -0.429,-0.339 0,-0.426 -1.4,-2.061 -1.765,-2.061 -0.538,0 -2.235,-1.978 -2.235,-2.605 0,-0.353 -0.18,-0.531 -0.4,-0.395 -0.22,0.136 -0.4,-0.044 -0.4,-0.4 0,-0.356 -0.168,-0.543 -0.374,-0.416 -0.206,0.127 -0.828,-0.222 -1.382,-0.776 -0.554,-0.555 -1.286,-1.008 -1.626,-1.008 -0.34,0 -0.618,-0.32 -0.618,-0.712 0,-0.391 -0.36,-0.971 -0.8,-1.288 -0.44,-0.317 -0.8,-0.767 -0.8,-1 0,-0.233 -0.382,-0.688 -0.849,-1.012 -0.467,-0.323 -1.097,-0.826 -1.4,-1.117 -0.303,-0.29 -0.556,-0.38 -0.563,-0.2 -0.007,0.181 -0.196,0.014 -0.42,-0.371 -0.224,-0.385 -0.669,-0.7 -0.988,-0.7 -0.319,0 -0.58,-0.174 -0.58,-0.387 0,-0.212 -0.584,-1.022 -1.297,-1.8 -2.083,-2.269 -2.672,-2.039 -7.907,3.092 M 289.4,261.43 c -5.173,4.369 -18.992,13.77 -20.241,13.77 -0.197,0 -0.359,0.18 -0.359,0.4 0,0.22 -0.27,0.4 -0.6,0.4 -0.33,0 -0.6,0.18 -0.6,0.4 0,0.22 -0.193,0.4 -0.429,0.4 -0.449,0 -1.571,0.979 -1.571,1.371 0,0.126 0.27,0.229 0.6,0.229 0.33,0 0.6,-0.18 0.6,-0.4 0,-0.22 0.345,-0.4 0.767,-0.4 0.421,0 0.858,-0.225 0.969,-0.5 0.154,-0.38 0.3,-0.361 0.607,0.081 0.222,0.319 0.313,0.729 0.201,0.91 -0.112,0.181 0.035,0.279 0.326,0.219 0.292,-0.061 0.481,0.128 0.42,0.42 -0.06,0.291 0.063,0.423 0.274,0.292 0.212,-0.13 0.838,0.216 1.392,0.77 0.554,0.555 1.286,1.008 1.626,1.008 0.34,0 0.618,0.289 0.618,0.643 0,0.71 4.882,5.757 5.569,5.757 0.237,0 0.431,0.241 0.431,0.536 0,0.294 0.63,1.109 1.4,1.809 0.77,0.701 1.4,1.167 1.4,1.036 0,-0.131 0.27,0.032 0.6,0.362 0.33,0.33 0.6,0.716 0.6,0.857 0,0.493 1.148,1.4 1.771,1.4 0.346,0 0.629,0.283 0.629,0.629 0,0.727 0.937,1.771 1.59,1.771 0.579,0 2.41,1.831 2.41,2.41 0,0.567 1.009,1.59 1.568,1.59 0.234,0 0.65,0.36 0.925,0.8 0.275,0.44 0.816,0.8 1.203,0.8 0.387,0 0.704,0.201 0.704,0.447 0,0.582 2.971,3.553 3.553,3.553 0.246,0 0.447,0.204 0.447,0.453 0,0.624 1.623,1.98 2.052,1.715 0.191,-0.118 0.352,0.02 0.357,0.308 0.014,0.786 2.618,3.524 3.352,3.524 0.351,0 0.639,0.283 0.639,0.629 0,0.727 0.937,1.771 1.59,1.771 0.579,0 2.41,1.831 2.41,2.41 0,0.479 0.976,1.59 1.397,1.59 0.14,0 0.709,0.54 1.265,1.201 0.556,0.661 1.175,1.1 1.374,0.976 0.2,-0.123 0.364,0.017 0.364,0.311 0,0.295 0.36,0.795 0.8,1.112 0.44,0.317 0.8,0.73 0.8,0.917 0,0.474 0.803,1.181 2.1,1.851 0.605,0.312 1.1,0.717 1.1,0.9 0,0.182 0.36,0.332 0.8,0.332 0.465,0 0.8,0.267 0.8,0.637 0,0.714 4.613,5.469 5.7,5.876 0.385,0.144 0.7,0.452 0.7,0.685 0,0.64 2.452,3.202 3.064,3.202 0.295,0 0.536,0.242 0.536,0.538 0,0.296 0.36,0.864 0.8,1.262 0.44,0.398 0.8,0.561 0.8,0.362 10e-4,-0.199 0.427,0.133 0.947,0.738 0.52,0.605 1.24,1.1 1.6,1.1 0.359,0 0.653,0.188 0.653,0.418 0,0.23 0.453,0.872 1.008,1.426 0.554,0.554 0.903,1.176 0.776,1.382 -0.127,0.206 0.06,0.374 0.416,0.374 0.387,0 0.533,0.185 0.362,0.462 -0.171,0.276 -0.111,0.353 0.15,0.192 0.24,-0.148 0.89,0.184 1.444,0.738 0.554,0.555 1.286,1.008 1.626,1.008 0.34,0 0.618,0.275 0.618,0.611 0,0.724 2.335,3.389 2.969,3.389 0.243,0 0.619,0.405 0.836,0.9 0.217,0.495 0.77,1.065 1.229,1.266 0.458,0.202 0.998,0.742 1.2,1.2 0.201,0.459 0.771,1.012 1.266,1.229 0.495,0.217 0.9,0.543 0.9,0.723 0,0.181 0.18,0.218 0.4,0.082 0.22,-0.136 0.4,-0.07 0.4,0.147 0,0.512 2.39,1.706 2.849,1.423 0.193,-0.119 0.351,-0.043 0.351,0.17 0,1.363 10.24,1.387 10.734,0.025 0.074,-0.204 0.277,-0.282 0.452,-0.174 0.433,0.268 2.814,-0.954 2.814,-1.444 0,-0.217 0.18,-0.283 0.4,-0.147 0.22,0.136 0.4,0.099 0.4,-0.082 0,-0.18 0.405,-0.506 0.9,-0.723 0.495,-0.217 1.078,-0.8 1.295,-1.295 0.217,-0.495 0.543,-0.9 0.723,-0.9 0.181,0 0.218,-0.18 0.082,-0.4 -0.136,-0.22 -0.065,-0.4 0.158,-0.4 0.357,0 1.031,-1.254 2.041,-3.8 0.935,-2.357 1.318,-5.433 0.865,-6.945 -0.255,-0.851 -0.464,-2.011 -0.464,-2.578 0,-0.566 -0.18,-1.141 -0.4,-1.277 -0.22,-0.136 -0.4,-0.597 -0.4,-1.024 0,-0.427 -0.18,-0.776 -0.4,-0.776 -0.22,0 -0.4,-0.32 -0.4,-0.712 0,-0.391 -0.36,-0.971 -0.8,-1.288 -0.44,-0.317 -0.8,-0.773 -0.8,-1.013 0,-0.24 -0.315,-0.795 -0.7,-1.233 -0.385,-0.439 -0.892,-1.136 -1.127,-1.549 -0.234,-0.413 -0.774,-0.944 -1.2,-1.178 -0.425,-0.235 -0.905,-0.607 -1.067,-0.827 -0.196,-0.267 -0.3,-0.267 -0.312,0 -0.01,0.22 -0.202,0.085 -0.426,-0.3 -0.224,-0.385 -0.669,-0.7 -0.988,-0.7 -0.319,0 -0.58,-0.197 -0.58,-0.437 0,-0.686 -5.052,-5.563 -5.763,-5.563 -0.35,0 -0.637,-0.302 -0.637,-0.672 0,-0.617 -2.57,-3.328 -3.155,-3.328 -0.141,0 -0.433,-0.405 -0.65,-0.9 -0.217,-0.495 -0.8,-1.078 -1.295,-1.295 -0.495,-0.217 -0.9,-0.6 -0.9,-0.852 0,-0.506 -3.101,-3.353 -3.652,-3.353 -0.191,0 -0.348,-0.27 -0.348,-0.6 0,-0.33 -0.281,-0.6 -0.624,-0.6 -0.343,0 -0.512,-0.18 -0.376,-0.4 0.136,-0.22 -0.042,-0.4 -0.395,-0.4 -0.863,0 -2.603,-1.787 -2.611,-2.682 -0.005,-0.61 -0.065,-0.628 -0.394,-0.118 -0.309,0.478 -0.395,0.397 -0.425,-0.4 -0.021,-0.55 -0.13,-0.773 -0.242,-0.495 -0.135,0.337 -0.576,0.105 -1.328,-0.7 -0.619,-0.663 -1.324,-1.205 -1.565,-1.205 -0.242,0 -0.44,-0.261 -0.44,-0.58 0,-0.319 -0.315,-0.764 -0.7,-0.988 -0.385,-0.224 -0.578,-0.413 -0.428,-0.42 0.149,-0.007 -0.481,-0.786 -1.4,-1.733 -0.92,-0.946 -1.807,-1.655 -1.972,-1.576 -0.165,0.079 -0.3,-0.136 -0.3,-0.479 0,-0.343 -0.317,-0.624 -0.705,-0.624 -0.388,0 -0.883,-0.39 -1.1,-0.867 -0.217,-0.477 -0.747,-1.062 -1.178,-1.3 -0.431,-0.238 -1.029,-0.658 -1.329,-0.933 -0.3,-0.275 -0.67,-0.5 -0.822,-0.5 -0.152,0 -0.454,-0.405 -0.671,-0.9 -0.217,-0.495 -0.8,-1.078 -1.295,-1.295 -0.5,-0.219 -0.903,-0.752 -0.906,-1.2 -0.005,-0.666 -0.073,-0.702 -0.394,-0.205 -0.309,0.478 -0.395,0.397 -0.425,-0.4 -0.021,-0.55 -0.124,-0.791 -0.228,-0.536 -0.123,0.302 -0.506,0.162 -1.094,-0.4 -0.498,-0.475 -0.837,-0.999 -0.755,-1.164 0.082,-0.165 -0.142,-0.3 -0.498,-0.3 -0.356,0 -0.529,-0.191 -0.384,-0.425 0.275,-0.446 -0.882,-1.975 -1.495,-1.975 -0.195,0 -0.741,-0.36 -1.213,-0.8 -0.472,-0.44 -1.095,-0.8 -1.383,-0.8 -0.289,0 -0.525,-0.283 -0.525,-0.629 0,-0.345 -0.27,-0.898 -0.6,-1.228 -0.33,-0.33 -0.6,-0.452 -0.6,-0.272 -10e-4,0.181 -0.427,-0.166 -0.947,-0.771 -0.52,-0.605 -1.03,-1.1 -1.133,-1.1 -0.103,0 -0.967,-0.72 -1.92,-1.6 -0.953,-0.88 -1.593,-1.6 -1.422,-1.6 0.523,0 -2.743,-2.781 -3.278,-2.791 -0.275,-0.005 -0.5,-0.227 -0.5,-0.492 0,-0.266 -0.855,-1.315 -1.9,-2.331 -1.045,-1.016 -2.155,-2.225 -2.467,-2.687 -0.312,-0.463 -0.916,-0.932 -1.341,-1.043 -0.425,-0.111 -0.661,-0.382 -0.526,-0.602 0.288,-0.466 -1.336,-1.72 -1.831,-1.414 -0.184,0.114 -0.335,-0.003 -0.335,-0.259 0,-0.256 -0.459,-0.827 -1.021,-1.269 -0.562,-0.442 -0.93,-0.894 -0.819,-1.005 0.433,-0.434 -2.797,-2.531 -3.822,-2.481 -0.296,0.014 -2.338,1.546 -4.538,3.404 m -69,-0.63 c 0,0.22 0.27,0.4 0.6,0.4 0.33,0 0.6,-0.18 0.6,-0.4 0,-0.22 -0.27,-0.4 -0.6,-0.4 -0.33,0 -0.6,0.18 -0.6,0.4 m -3.348,0.885 c 0.282,0.455 1.748,0.388 1.748,-0.081 0,-0.217 -0.437,-0.359 -0.971,-0.315 -0.534,0.045 -0.884,0.223 -0.777,0.396 M 208.2,262.4 c -0.147,0.239 0.337,0.4 1.2,0.4 0.863,0 1.347,-0.161 1.2,-0.4 -0.136,-0.22 -0.676,-0.4 -1.2,-0.4 -0.524,0 -1.064,0.18 -1.2,0.4 m 55.8,16.4 c 0,0.22 0.27,0.4 0.6,0.4 0.33,0 0.6,-0.18 0.6,-0.4 0,-0.22 -0.27,-0.4 -0.6,-0.4 -0.33,0 -0.6,0.18 -0.6,0.4 M 174,292 c 0,0.22 0.36,0.4 0.8,0.4 0.44,0 0.8,-0.18 0.8,-0.4 0,-0.22 -0.36,-0.4 -0.8,-0.4 -0.44,0 -0.8,0.18 -0.8,0.4 m 2.6,0.8 c 0.136,0.22 0.687,0.4 1.224,0.4 0.537,0 0.976,-0.18 0.976,-0.4 0,-0.22 -0.551,-0.4 -1.224,-0.4 -0.713,0 -1.12,0.167 -0.976,0.4 m 5.2,0.8 c -0.15,0.242 0.404,0.4 1.4,0.4 0.996,0 1.55,-0.158 1.4,-0.4 -0.136,-0.22 -0.766,-0.4 -1.4,-0.4 -0.634,0 -1.264,0.18 -1.4,0.4 m 5.6,0.8 c 0.136,0.22 0.856,0.4 1.6,0.4 0.744,0 1.464,-0.18 1.6,-0.4 0.151,-0.245 -0.47,-0.4 -1.6,-0.4 -1.13,0 -1.751,0.155 -1.6,0.4"
       inkscape:connector-curvature="0"
       style="fill:#fb64b4;fill-rule:evenodd;stroke:none" />
    <path
       id="path1"
       d="m 200.041,167.236 c -0.039,1.367 -5.404,6.946 -19.795,20.586 -0.245,0.233 -0.806,0.567 -1.246,0.743 -0.698,0.28 -0.716,0.354 -0.142,0.578 0.362,0.141 4.928,4.397 10.147,9.457 5.219,5.06 9.619,9.29 9.776,9.4 0.158,0.11 0.492,0.56 0.741,1 0.376,0.663 0.456,0.685 0.466,0.129 0.007,-0.37 0.257,-0.91 0.556,-1.2 15.174,-14.74 20.097,-19.377 20.797,-19.589 0.716,-0.217 0.736,-0.267 0.124,-0.3 -0.405,-0.022 -2.745,-2.001 -5.2,-4.399 -2.456,-2.397 -6.954,-6.766 -9.997,-9.708 -4.25,-4.111 -5.607,-5.672 -5.859,-6.741 l -0.327,-1.392 -0.041,1.436 m 28.534,15.664 -1.175,1.3 1.3,-1.175 c 0.715,-0.646 1.3,-1.231 1.3,-1.3 0,-0.309 -0.33,-0.037 -1.425,1.175 M 128.4,237.31 c 0,0.305 -2.565,2.996 -5.7,5.98 -3.135,2.984 -7.86,7.512 -10.5,10.061 -2.64,2.55 -4.942,4.639 -5.116,4.643 -0.173,0.003 0.727,0.846 2,1.874 1.274,1.027 3.666,2.971 5.316,4.321 2.91,2.38 8.27,6.013 13.6,9.218 3.716,2.234 5.2,3.271 5.996,4.188 0.384,0.443 0.836,0.805 1.004,0.805 0.168,0 0.652,0.399 1.076,0.887 0.648,0.748 0.828,0.795 1.147,0.3 0.456,-0.71 1.311,0.262 0.874,0.994 -0.138,0.23 0.089,0.149 0.503,-0.181 0.414,-0.33 0.648,-0.42 0.519,-0.2 -0.129,0.22 0.003,0.62 0.294,0.888 0.416,0.385 0.57,0.385 0.726,0 0.153,-0.376 0.205,-0.373 0.229,0.012 0.018,0.275 0.313,0.5 0.656,0.5 0.343,0 0.508,-0.187 0.366,-0.416 -0.302,-0.489 1.793,-0.079 2.39,0.468 0.209,0.191 0.783,0.348 1.276,0.348 0.493,0 1.008,0.18 1.144,0.4 0.136,0.22 0.597,0.4 1.024,0.4 0.427,0 0.776,0.18 0.776,0.4 0,0.22 0.36,0.4 0.8,0.4 0.534,0 0.8,0.267 0.8,0.803 0,0.7 0.102,0.74 0.79,0.31 0.623,-0.389 0.893,-0.39 1.28,-0.003 0.27,0.27 0.831,0.49 1.247,0.49 0.416,0 2.855,0.64 5.42,1.422 8.579,2.617 9.796,2.923 16.563,4.163 10.928,2.003 21.05,2.752 33.051,2.447 3.074,-0.078 4.641,0.032 4.83,0.338 0.309,0.499 2.819,0.45 2.819,-0.055 0,-0.173 1.08,-0.315 2.4,-0.315 1.508,0 2.4,-0.167 2.4,-0.449 0,-0.31 0.185,-0.295 0.6,0.049 0.415,0.344 0.6,0.359 0.6,0.049 0,-0.247 0.371,-0.449 0.824,-0.449 0.453,0 0.712,-0.18 0.576,-0.4 -0.136,-0.22 0.123,-0.4 0.576,-0.4 0.453,0 0.824,0.18 0.824,0.4 0,0.754 1.506,0.402 1.716,-0.4 0.128,-0.488 0.546,-0.8 1.073,-0.8 0.475,0 1.212,-0.187 1.638,-0.415 0.426,-0.228 1.585,-0.43 2.574,-0.45 0.989,-0.02 1.799,-0.194 1.799,-0.386 0,-0.192 0.709,-0.349 1.576,-0.349 0.867,0 1.699,-0.198 1.849,-0.44 0.155,-0.251 0.769,-0.341 1.424,-0.21 0.881,0.176 1.151,0.081 1.151,-0.404 0,-0.489 0.32,-0.596 1.4,-0.47 0.965,0.113 1.4,0.002 1.4,-0.356 0,-0.311 0.482,-0.52 1.2,-0.52 0.66,0 1.2,-0.18 1.2,-0.4 0,-0.22 0.36,-0.4 0.8,-0.4 0.44,0 0.8,-0.18 0.8,-0.4 0,-0.22 0.272,-0.4 0.605,-0.4 0.333,0 0.918,-0.159 1.3,-0.353 1.129,-0.574 2.589,-1.159 4.295,-1.721 1.604,-0.527 8.998,-4.175 12,-5.919 0.88,-0.512 2.32,-1.307 3.2,-1.769 0.88,-0.461 1.69,-0.928 1.8,-1.038 0.396,-0.396 2.615,-1.654 3.3,-1.871 0.385,-0.122 0.7,-0.381 0.7,-0.576 0,-0.194 0.186,-0.353 0.413,-0.353 0.795,0 8.866,-5.677 14.067,-9.895 l 5.246,-4.254 -4.798,-4.626 c -6.943,-6.693 -12.904,-12.378 -14.628,-13.95 l -1.5,-1.368 -2.7,2.274 c -3.943,3.321 -4.072,3.419 -4.505,3.419 -0.217,0 -0.395,0.15 -0.395,0.332 0,0.183 -0.495,0.588 -1.1,0.9 -0.605,0.312 -1.19,0.682 -1.3,0.822 -0.238,0.304 -1.045,0.789 -8.111,4.869 -5.316,3.07 -9.443,4.963 -9.536,4.375 -0.026,-0.164 -0.029,-0.427 -0.005,-0.584 0.023,-0.157 -0.261,-0.169 -0.633,-0.026 -0.424,0.162 -0.496,0.318 -0.195,0.419 0.838,0.279 0.521,0.837 -0.82,1.444 -1.874,0.85 -3.9,1.203 -3.9,0.681 0,-0.238 -0.18,-0.432 -0.4,-0.432 -0.22,0 -0.4,0.36 -0.4,0.8 0,0.587 -0.267,0.8 -1,0.8 -0.55,0 -1,0.167 -1,0.371 0,0.473 -2.298,1.629 -3.238,1.629 -0.393,0 -0.814,0.16 -0.935,0.356 -0.121,0.195 -0.806,0.452 -1.523,0.571 -0.717,0.118 -2.024,0.387 -2.904,0.598 -2.889,0.691 -11.163,2.41 -13,2.701 -5.358,0.848 -23.389,0.444 -23.021,-0.515 0.171,-0.447 -0.126,-0.547 -1.363,-0.458 -0.87,0.063 -1.698,-0.001 -1.839,-0.143 -0.141,-0.141 -0.709,-0.051 -1.261,0.201 -0.812,0.37 -1.091,0.341 -1.46,-0.152 -0.577,-0.769 -1.856,-1.268 -1.856,-0.723 0,0.226 -0.183,0.298 -0.407,0.16 -0.223,-0.138 -0.302,-0.419 -0.176,-0.624 0.127,-0.204 -0.211,-0.372 -0.751,-0.372 -0.539,0 -1.084,0.27 -1.211,0.6 -0.247,0.645 -2.255,0.847 -2.255,0.227 0,-0.206 0.405,-0.451 0.9,-0.544 0.495,-0.094 -0.122,-0.09 -1.372,0.009 -2.481,0.197 -5.267,-0.553 -4.966,-1.337 0.216,-0.564 -0.991,-0.942 -3.038,-0.95 -0.812,-0.003 -1.588,-0.185 -1.724,-0.405 -0.136,-0.22 -1.113,-0.4 -2.171,-0.4 -2.105,0 -5.506,-0.971 -9.005,-2.572 -1.236,-0.565 -2.512,-1.028 -2.836,-1.028 -0.716,0 -0.785,-1.054 -0.088,-1.335 0.275,-0.111 0.01,-0.216 -0.588,-0.233 -0.598,-0.018 -1.678,-0.364 -2.4,-0.771 -0.722,-0.406 -2.392,-1.331 -3.712,-2.055 -8.254,-4.529 -15.923,-9.771 -18.5,-12.646 -0.551,-0.616 -0.9,-0.79 -0.9,-0.45"
       inkscape:connector-curvature="0"
       style="fill:#8cc4ec;fill-rule:evenodd;stroke:none" />
    <path
       id="path2"
       d="m 315.3,58.937 c -0.935,0.229 -1.7,0.556 -1.7,0.727 0,0.171 -0.27,0.207 -0.6,0.081 -0.33,-0.127 -0.6,-0.031 -0.6,0.212 0,0.244 -0.242,0.443 -0.539,0.443 -0.862,0 -3.1,1.237 -3.332,1.842 -0.117,0.304 -0.351,0.468 -0.519,0.364 -0.49,-0.302 -2.007,1.215 -2.042,2.041 -0.018,0.439 -0.117,0.541 -0.236,0.243 -0.135,-0.334 -0.676,0.003 -1.569,0.978 -0.75,0.819 -1.363,1.335 -1.363,1.148 0,-0.187 -0.36,-0.014 -0.8,0.384 -0.44,0.398 -0.8,0.923 -0.8,1.167 0,0.244 -0.39,0.621 -0.867,0.838 -0.477,0.217 -1.062,0.744 -1.3,1.171 -0.713,1.28 -2.155,2.624 -2.815,2.624 -0.34,0 -0.618,0.172 -0.618,0.382 0,0.21 -0.99,1.396 -2.2,2.636 -1.21,1.239 -2.2,2.417 -2.2,2.617 0,0.201 -0.283,0.365 -0.629,0.365 -0.808,0 -1.771,0.963 -1.771,1.771 0,0.368 -0.342,0.629 -0.824,0.629 -0.453,0 -0.712,0.18 -0.576,0.4 0.136,0.22 -0.044,0.4 -0.4,0.4 -0.356,0 -0.536,0.18 -0.4,0.4 0.136,0.22 0.044,0.4 -0.205,0.4 -0.657,0 -1.595,1.041 -1.595,1.771 0,0.355 -0.337,0.629 -0.773,0.629 -0.425,0 -0.887,0.36 -1.027,0.8 -0.14,0.44 -0.522,0.8 -0.851,0.8 -0.328,0 -0.485,0.18 -0.349,0.4 0.136,0.22 0.044,0.4 -0.205,0.4 -0.61,0 -1.619,1.042 -1.309,1.352 0.136,0.137 0.024,0.248 -0.248,0.248 -0.603,0 -1.638,0.986 -1.638,1.561 0,0.23 -0.546,0.701 -1.213,1.046 -0.716,0.37 -1.099,0.812 -0.934,1.078 0.179,0.29 0.054,0.365 -0.35,0.21 -0.581,-0.223 -1.903,0.787 -1.903,1.455 0,0.458 -1.92,2.25 -2.41,2.25 -0.653,0 -1.59,1.044 -1.59,1.771 0,0.346 -0.283,0.629 -0.629,0.629 -0.745,0 -1.84,0.997 -1.485,1.352 0.136,0.137 0.024,0.248 -0.248,0.248 -0.694,0 -1.638,1.021 -1.638,1.771 0,0.346 -0.283,0.629 -0.629,0.629 -0.808,0 -1.771,0.963 -1.771,1.771 0,0.346 -0.276,0.629 -0.613,0.629 -0.814,0 -3.387,2.598 -3.387,3.42 0,0.356 -0.225,0.571 -0.5,0.479 -0.275,-0.092 -0.971,0.337 -1.547,0.953 -0.576,0.616 -1.161,1.006 -1.3,0.867 -0.139,-0.139 -0.253,0.058 -0.253,0.438 0,0.38 -0.18,0.579 -0.4,0.443 -0.22,-0.136 -0.4,0.033 -0.4,0.376 0,0.343 -0.242,0.624 -0.538,0.624 -0.296,0 -0.881,0.391 -1.3,0.869 -0.497,0.566 -0.553,0.758 -0.162,0.551 0.33,-0.175 -0.186,0.422 -1.146,1.327 -0.96,0.904 -1.905,1.545 -2.1,1.425 -0.195,-0.121 -0.354,0.072 -0.354,0.428 0,0.356 -0.18,0.536 -0.4,0.4 -0.22,-0.136 -0.4,0.123 -0.4,0.576 0,0.453 -0.157,0.824 -0.349,0.824 -0.561,0 -3.651,2.97 -3.651,3.509 0,0.27 -0.274,0.491 -0.609,0.491 -0.334,0 -0.811,0.444 -1.058,0.987 -0.248,0.544 -0.577,0.91 -0.731,0.814 -0.155,-0.095 -0.641,0.225 -1.08,0.713 -0.439,0.487 -1.186,1.151 -1.66,1.474 -0.474,0.324 -0.862,0.909 -0.862,1.3 0,0.632 -0.22,0.778 -1.03,0.686 -0.127,-0.015 -0.534,0.3 -0.906,0.7 -0.371,0.399 -1.033,0.924 -1.47,1.165 -0.437,0.242 -0.983,0.812 -1.215,1.268 -0.231,0.455 -1.023,1.427 -1.759,2.16 -0.737,0.733 -1.188,1.063 -1.003,0.733 0.292,-0.52 0.245,-0.526 -0.35,-0.043 -0.377,0.306 -0.601,0.643 -0.496,0.748 0.226,0.225 -0.493,0.92 -1.588,1.534 -0.431,0.242 -0.979,0.826 -1.219,1.298 -0.573,1.129 -1.794,2.463 -2.255,2.463 -0.503,0 -1.509,1.047 -1.509,1.571 0,0.236 -0.36,0.429 -0.8,0.429 -0.48,0 -0.8,0.267 -0.8,0.667 0,0.366 -0.11,0.556 -0.244,0.422 -0.294,-0.294 -2.156,1.839 -2.156,2.469 0,0.243 -0.283,0.442 -0.629,0.442 -0.345,0 -0.885,0.257 -1.2,0.571 -0.314,0.315 -0.571,0.855 -0.571,1.2 0,0.346 -0.276,0.629 -0.613,0.629 -0.796,0 -3.387,2.591 -3.387,3.387 0,0.337 -0.179,0.613 -0.397,0.613 -0.218,0 -0.863,0.405 -1.432,0.9 -0.569,0.495 -1.117,0.849 -1.217,0.786 -0.21,-0.132 -1.354,0.947 -1.354,1.277 0,0.302 -4.358,4.637 -4.662,4.637 -0.344,0 -1.738,1.653 -1.738,2.061 0,0.187 -0.242,0.339 -0.538,0.339 -0.884,0 -1.862,1.382 -1.862,2.63 0,0.976 0.936,2.077 5.7,6.711 3.135,3.05 7.59,7.387 9.9,9.64 5.366,5.232 6.305,5.734 7.786,4.165 0.595,-0.63 1.259,-1.146 1.476,-1.146 0.609,0 1.538,-1.07 1.538,-1.771 0,-0.566 0.465,-0.808 1.3,-0.676 0.165,0.026 0.255,-0.178 0.2,-0.453 -0.055,-0.275 0.125,-0.455 0.4,-0.4 0.275,0.055 0.455,-0.118 0.4,-0.385 -0.055,-0.267 0.305,-0.67 0.8,-0.895 0.495,-0.225 0.9,-0.727 0.9,-1.115 0,-0.388 0.278,-0.705 0.618,-0.705 0.755,0 2.841,-1.996 2.1,-2.009 -0.285,-0.005 0.078,-0.303 0.806,-0.662 0.959,-0.472 1.18,-0.744 0.8,-0.984 -0.372,-0.236 -0.272,-0.335 0.342,-0.339 0.575,-0.004 1.046,-0.41 1.398,-1.207 0.293,-0.66 0.713,-1.137 0.934,-1.061 0.221,0.077 0.766,-0.247 1.211,-0.721 0.445,-0.474 1.124,-0.982 1.509,-1.13 0.385,-0.148 0.822,-0.587 0.972,-0.977 0.313,-0.817 1.607,-2.115 2.734,-2.743 0.427,-0.238 0.954,-0.823 1.171,-1.3 0.217,-0.477 0.635,-0.867 0.928,-0.867 0.649,0 1.677,-0.975 1.677,-1.59 0,-0.675 1.875,-2.41 2.605,-2.41 0.353,0 0.531,-0.18 0.395,-0.4 -0.136,-0.22 0.033,-0.4 0.376,-0.4 0.357,0 0.624,-0.342 0.624,-0.8 0,-0.461 0.267,-0.8 0.629,-0.8 0.345,0 0.898,-0.27 1.228,-0.6 0.33,-0.33 0.511,-0.6 0.402,-0.6 -0.258,0 1.89,-2.148 2.372,-2.371 0.726,-0.338 1.369,-1.183 1.369,-1.8 0,-0.346 0.235,-0.629 0.522,-0.629 0.775,0 3.478,-2.607 3.478,-3.354 0,-0.355 0.32,-0.646 0.712,-0.646 0.391,0 0.971,-0.36 1.288,-0.8 0.317,-0.44 0.907,-0.8 1.312,-0.8 0.404,0 0.624,-0.18 0.488,-0.4 -0.136,-0.22 0.033,-0.4 0.376,-0.4 0.343,0 0.603,-0.135 0.577,-0.3 -0.14,-0.884 0.131,-1.3 0.847,-1.3 0.458,0 0.8,-0.267 0.8,-0.624 0,-0.343 0.18,-0.512 0.4,-0.376 0.22,0.136 0.4,-0.044 0.4,-0.4 0,-0.356 0.18,-0.536 0.4,-0.4 0.22,0.136 0.4,-0.033 0.4,-0.376 0,-0.343 0.18,-0.624 0.4,-0.624 0.22,0 0.4,-0.27 0.4,-0.6 0,-0.33 0.242,-0.6 0.538,-0.6 0.684,0 1.952,-1.377 1.596,-1.732 -0.147,-0.148 -0.012,-0.272 0.299,-0.277 0.818,-0.014 3.567,-2.596 3.567,-3.352 0,-0.351 0.225,-0.645 0.5,-0.652 0.644,-0.016 2.7,-1.819 2.7,-2.368 0,-0.23 0.161,-0.419 0.358,-0.419 0.634,0 2.842,-2.3 2.842,-2.96 0,-0.352 0.32,-0.64 0.712,-0.64 0.391,0 0.971,-0.36 1.288,-0.8 0.317,-0.44 0.817,-0.8 1.112,-0.8 0.294,0 0.424,-0.18 0.288,-0.4 -0.136,-0.22 0.063,-0.4 0.443,-0.4 0.38,0 0.582,-0.108 0.45,-0.24 -0.241,-0.241 2.226,-2.917 2.8,-3.038 0.498,-0.105 1.307,-1.03 1.307,-1.493 0,-0.236 0.283,-0.429 0.629,-0.429 0.727,0 1.771,-0.937 1.771,-1.59 0,-0.664 1.87,-2.41 2.582,-2.41 0.34,0 0.618,-0.281 0.618,-0.624 0,-0.343 0.18,-0.512 0.4,-0.376 0.22,0.136 0.4,-0.123 0.4,-0.576 0,-0.474 0.261,-0.824 0.613,-0.824 0.796,0 3.387,-2.591 3.387,-3.387 0,-0.337 0.315,-0.615 0.7,-0.617 0.385,-0.002 1.125,-0.542 1.645,-1.2 0.52,-0.658 1.225,-1.196 1.567,-1.196 0.342,0 0.502,-0.119 0.357,-0.264 -0.145,-0.145 0.106,-0.524 0.559,-0.84 0.452,-0.317 0.987,-1.009 1.187,-1.536 0.201,-0.528 0.6,-0.96 0.887,-0.96 0.287,0 0.781,-0.36 1.098,-0.8 0.317,-0.44 0.82,-0.8 1.117,-0.8 0.657,0 1.683,-0.973 1.683,-1.595 0,-0.249 0.18,-0.341 0.4,-0.205 0.22,0.136 0.4,0.777 0.4,1.424 0,0.647 0.18,1.176 0.4,1.176 0.22,0 0.4,0.63 0.4,1.4 0,0.77 0.18,1.4 0.4,1.4 0.224,0 0.4,1.107 0.4,2.52 0,1.386 0.186,2.706 0.413,2.933 0.228,0.228 0.428,1.299 0.446,2.38 0.018,1.082 0.237,2.227 0.487,2.544 0.364,0.463 0.336,0.507 -0.146,0.223 -0.491,-0.289 -0.513,-0.246 -0.121,0.239 0.264,0.326 0.534,1.71 0.6,3.075 0.067,1.364 0.256,2.482 0.421,2.484 0.381,0.003 0.398,24.171 0.017,24.552 -0.156,0.155 -0.335,1.58 -0.398,3.166 -0.063,1.585 -0.296,2.943 -0.517,3.017 -0.221,0.073 -0.402,1.278 -0.402,2.677 0,1.398 -0.18,2.654 -0.4,2.79 -0.22,0.136 -0.4,0.837 -0.4,1.557 0,0.72 -0.11,1.42 -0.244,1.554 -0.135,0.135 -0.319,1.195 -0.41,2.356 -0.091,1.162 -0.341,2.288 -0.555,2.502 -0.215,0.215 -0.391,0.974 -0.391,1.687 0,0.713 -0.18,1.408 -0.4,1.544 -0.22,0.136 -0.4,0.777 -0.4,1.424 0,0.647 -0.141,1.176 -0.313,1.176 -0.172,0 -0.35,0.456 -0.396,1.013 -0.047,0.558 -0.393,1.593 -0.771,2.3 -0.377,0.708 -0.7,1.377 -0.717,1.487 -0.017,0.11 -0.229,0.56 -0.47,1 -0.373,0.68 -1.036,2.99 -1.11,3.867 -0.013,0.146 -0.158,0.401 -0.323,0.566 -0.165,0.165 -0.3,0.63 -0.3,1.034 0,0.403 -0.18,0.733 -0.4,0.733 -0.22,0 -0.4,0.36 -0.4,0.8 0,0.44 -0.18,0.8 -0.4,0.8 -0.22,0 -0.4,0.414 -0.4,0.92 0,1.054 -0.853,3.072 -1.3,3.077 -0.165,0.002 -0.3,0.363 -0.3,0.803 0,0.44 -0.135,0.801 -0.3,0.801 -0.165,0.001 -0.75,0.991 -1.3,2.199 -0.55,1.208 -1.146,2.198 -1.324,2.199 -0.178,0 -0.221,0.166 -0.096,0.369 0.125,0.202 -0.044,0.639 -0.376,0.971 -0.332,0.332 -0.604,0.943 -0.604,1.357 0,0.414 -0.36,1.14 -0.8,1.612 -0.44,0.472 -0.8,1.096 -0.8,1.387 0,0.291 -0.36,0.788 -0.8,1.105 -0.44,0.317 -0.8,0.857 -0.8,1.2 0,0.343 -0.35,0.876 -0.779,1.185 -0.428,0.308 -0.696,0.693 -0.596,0.856 0.1,0.162 -0.044,0.534 -0.321,0.827 -0.277,0.292 -0.774,1.057 -1.104,1.699 -0.33,0.641 -1.05,1.642 -1.6,2.223 -1.635,1.727 -2.4,2.788 -2.4,3.326 0,0.279 -0.36,0.767 -0.8,1.084 -0.44,0.317 -0.8,0.815 -0.8,1.106 0,0.575 -1.395,2.037 -2.597,2.721 -0.412,0.234 -0.942,0.765 -1.176,1.178 -0.235,0.413 -0.742,1.11 -1.127,1.549 -0.385,0.438 -0.7,1.033 -0.7,1.321 0,0.289 -0.283,0.525 -0.629,0.525 -0.617,0 -1.555,0.713 -1.704,1.296 -0.136,0.534 -6.459,6.579 -6.666,6.372 -0.11,-0.111 -0.201,0.109 -0.201,0.489 0,0.38 -0.18,0.579 -0.4,0.443 -0.22,-0.136 -0.4,0.123 -0.4,0.576 0,0.542 -0.259,0.824 -0.757,0.824 -0.774,0 -1.243,0.734 -1.243,1.945 0,0.518 6.646,7.22 11.757,11.856 0.244,0.221 2.423,2.31 4.843,4.643 4.654,4.486 7,5.786 7,3.879 0,-0.471 0.123,-0.734 0.272,-0.584 0.15,0.15 0.78,-0.214 1.4,-0.808 0.621,-0.594 1.128,-0.944 1.128,-0.777 0,0.167 0.27,0.033 0.6,-0.297 0.33,-0.33 0.6,-0.883 0.6,-1.228 0,-0.542 0.527,-0.842 0.929,-0.529 0.235,0.183 1.471,-1.236 1.471,-1.69 0,-0.516 1.803,-2.41 2.294,-2.41 0.181,0 0.594,-0.382 0.918,-0.849 0.323,-0.467 0.826,-1.097 1.117,-1.4 0.29,-0.303 0.38,-0.556 0.2,-0.563 -0.181,-0.007 -0.014,-0.196 0.371,-0.42 0.385,-0.224 0.7,-0.669 0.7,-0.988 0,-0.319 0.193,-0.58 0.429,-0.58 0.566,0 1.571,-1.023 1.571,-1.6 0,-0.614 1.041,-1.626 1.352,-1.314 0.137,0.136 0.248,-0.143 0.248,-0.619 0,-0.535 0.25,-0.867 0.653,-0.867 0.775,0 2.224,-1.552 1.915,-2.052 -0.118,-0.191 0.095,-0.348 0.475,-0.348 0.38,0 0.573,-0.118 0.429,-0.262 -0.144,-0.143 0.276,-0.775 0.933,-1.403 0.657,-0.628 1.195,-1.371 1.195,-1.65 0,-0.28 0.36,-0.768 0.8,-1.085 0.44,-0.317 0.8,-0.897 0.8,-1.288 0,-0.392 0.18,-0.712 0.4,-0.712 0.22,0 0.4,-0.36 0.4,-0.8 0,-0.44 0.18,-0.8 0.4,-0.8 0.22,0 0.4,-0.317 0.4,-0.705 0,-0.388 0.39,-0.883 0.867,-1.1 0.477,-0.217 1.062,-0.745 1.3,-1.173 0.238,-0.428 0.742,-1.13 1.119,-1.561 0.378,-0.43 0.612,-0.902 0.522,-1.049 -0.091,-0.146 0.185,-0.519 0.613,-0.827 0.429,-0.309 0.779,-0.842 0.779,-1.185 0,-0.343 0.36,-0.883 0.8,-1.2 0.44,-0.317 0.8,-0.997 0.8,-1.512 0,-0.522 0.177,-0.826 0.4,-0.688 0.22,0.136 0.4,-0.016 0.4,-0.339 0,-0.683 1.66,-3.999 2.1,-4.194 0.165,-0.074 0.3,-0.479 0.3,-0.9 0,-0.422 0.18,-0.767 0.4,-0.767 0.22,0 0.4,-0.36 0.4,-0.8 0,-0.44 0.18,-0.8 0.4,-0.8 0.22,0 0.4,-0.36 0.4,-0.8 0,-0.44 0.18,-0.8 0.4,-0.8 0.22,0 0.4,-0.551 0.4,-1.224 0,-0.713 0.167,-1.12 0.4,-0.976 0.22,0.136 0.4,-0.084 0.4,-0.488 0,-0.405 0.36,-0.995 0.8,-1.312 0.44,-0.317 0.8,-0.897 0.8,-1.288 0,-0.392 0.18,-0.712 0.4,-0.712 0.22,0 0.4,-0.36 0.4,-0.8 0,-0.44 0.18,-0.8 0.4,-0.8 0.22,0 0.4,-0.452 0.4,-1.005 0,-0.996 0.69,-2.568 1.334,-3.04 0.184,-0.134 0.319,-0.359 0.3,-0.5 -0.143,-1.068 0.033,-1.861 0.366,-1.655 0.224,0.138 0.4,-0.174 0.4,-0.71 0,-0.526 0.127,-1.083 0.282,-1.238 0.155,-0.155 0.346,-0.77 0.424,-1.367 0.079,-0.597 0.312,-1.256 0.519,-1.465 0.206,-0.209 0.375,-0.873 0.375,-1.476 0,-0.603 0.183,-1.21 0.407,-1.348 0.223,-0.138 0.302,-0.419 0.176,-0.624 -0.127,-0.204 -0.04,-0.372 0.193,-0.372 0.233,0 0.424,-0.461 0.424,-1.024 0,-0.58 0.173,-0.916 0.4,-0.776 0.233,0.144 0.4,-0.255 0.4,-0.953 0,-0.66 0.18,-1.311 0.4,-1.447 0.22,-0.136 0.4,-0.867 0.4,-1.624 0,-0.757 0.18,-1.376 0.4,-1.376 0.22,0 0.4,-0.709 0.4,-1.576 0,-0.867 0.18,-1.688 0.4,-1.824 0.22,-0.136 0.4,-0.687 0.4,-1.224 0,-0.537 0.18,-0.976 0.4,-0.976 0.22,0 0.4,-0.821 0.4,-1.824 0,-1.113 0.156,-1.727 0.4,-1.576 0.252,0.156 0.4,-0.804 0.4,-2.6 0,-1.566 0.144,-2.758 0.32,-2.649 0.176,0.108 0.365,-0.466 0.419,-1.276 0.055,-0.81 0.271,-1.645 0.48,-1.854 0.21,-0.21 0.381,-1.515 0.381,-2.901 0,-1.413 0.176,-2.52 0.4,-2.52 0.233,0 0.4,-1.325 0.4,-3.176 0,-1.747 0.163,-3.278 0.363,-3.401 0.476,-0.294 0.504,-27.134 0.029,-27.428 -0.197,-0.122 -0.392,-1.526 -0.432,-3.12 -0.04,-1.593 -0.228,-2.993 -0.416,-3.11 -0.189,-0.117 -0.344,-1.372 -0.344,-2.789 0,-1.451 -0.175,-2.576 -0.4,-2.576 -0.22,0 -0.4,-0.594 -0.4,-1.32 0,-0.726 -0.17,-1.491 -0.377,-1.7 -0.207,-0.209 -0.416,-1.595 -0.463,-3.08 -0.047,-1.485 -0.238,-2.7 -0.423,-2.7 -0.185,0 -0.337,-0.619 -0.337,-1.376 0,-0.757 -0.18,-1.488 -0.4,-1.624 -0.22,-0.136 -0.4,-0.957 -0.4,-1.824 0,-0.867 -0.18,-1.576 -0.4,-1.576 -0.22,0 -0.4,-0.439 -0.4,-0.976 0,-0.537 -0.18,-1.088 -0.4,-1.224 -0.22,-0.136 -0.4,-0.867 -0.4,-1.624 0,-0.757 -0.18,-1.376 -0.4,-1.376 -0.22,0 -0.4,-0.36 -0.4,-0.8 0,-0.44 -0.18,-0.8 -0.4,-0.8 -0.22,0 -0.4,-0.249 -0.4,-0.554 0,-0.542 -0.848,-3.655 -1.646,-6.046 -0.221,-0.66 -0.465,-1.47 -0.542,-1.8 -0.298,-1.27 -0.981,-2.734 -1.394,-2.989 -0.237,-0.146 -0.335,-0.421 -0.218,-0.611 0.117,-0.19 0.03,-0.458 -0.193,-0.596 -0.224,-0.138 -0.407,-0.676 -0.407,-1.194 0,-0.519 -0.135,-1.003 -0.3,-1.077 -0.44,-0.195 -2.1,-3.511 -2.1,-4.194 0,-0.323 -0.18,-0.475 -0.4,-0.339 -0.22,0.136 -0.4,-0.103 -0.4,-0.531 0,-1.021 -0.906,-2.736 -1.968,-3.725 -0.467,-0.436 -0.775,-0.916 -0.683,-1.068 0.092,-0.152 -0.084,-0.508 -0.391,-0.792 -0.307,-0.283 -0.564,-0.373 -0.571,-0.2 -0.007,0.174 -0.277,-0.033 -0.6,-0.46 -0.323,-0.428 -0.587,-0.626 -0.587,-0.442 0,0.184 -0.441,-0.141 -0.981,-0.724 -0.539,-0.582 -1.249,-1.058 -1.576,-1.058 -0.328,0 -0.715,-0.192 -0.86,-0.427 -0.145,-0.235 -0.504,-0.335 -0.798,-0.223 -0.293,0.113 -0.59,0.038 -0.659,-0.166 -0.069,-0.203 -0.801,-0.418 -1.625,-0.477 -0.825,-0.059 -1.5,-0.242 -1.5,-0.407 -0.001,-0.42 -3.856,-0.265 -5.901,0.237 M 175.297,190.213 c -0.713,0.778 -1.297,1.588 -1.297,1.8 0,0.213 -0.261,0.387 -0.58,0.387 -0.319,0 -0.764,0.315 -0.988,0.7 -0.224,0.385 -0.413,0.552 -0.42,0.371 -0.007,-0.18 -0.26,-0.09 -0.563,0.2 -0.303,0.291 -0.933,0.794 -1.4,1.117 -0.467,0.324 -0.849,0.869 -0.849,1.212 0,0.343 -0.36,0.883 -0.8,1.2 -0.44,0.317 -0.8,0.807 -0.8,1.088 0,0.282 -0.294,0.512 -0.653,0.512 -0.359,0 -0.947,0.315 -1.306,0.7 -0.359,0.385 -0.998,0.892 -1.42,1.127 -0.422,0.234 -0.96,0.772 -1.194,1.194 -0.235,0.421 -1.277,1.559 -2.317,2.528 -1.039,0.968 -1.793,1.916 -1.676,2.106 0.117,0.19 -0.038,0.345 -0.344,0.345 -0.307,0 -1.017,0.495 -1.578,1.1 -1.034,1.114 -3.334,2.989 -3.967,3.233 -0.19,0.074 -0.345,0.479 -0.345,0.9 0,0.645 -0.517,1.024 -0.91,0.667 -0.219,-0.2 -1.412,1.11 -1.352,1.485 0.034,0.212 -0.343,0.57 -0.838,0.795 -0.495,0.225 -0.9,0.587 -0.9,0.803 0,0.446 -2.427,2.615 -2.929,2.616 -0.452,0.001 -1.249,0.839 -1.828,1.92 -0.266,0.497 -0.654,0.798 -0.863,0.669 -0.209,-0.13 -0.38,0.056 -0.38,0.412 0,0.356 -0.18,0.536 -0.4,0.4 -0.22,-0.136 -0.4,0.042 -0.4,0.395 0,0.671 -1.713,2.605 -2.308,2.605 -0.19,0 -0.892,0.585 -1.562,1.3 -0.669,0.715 -1.872,1.838 -2.673,2.496 -0.801,0.658 -1.457,1.38 -1.457,1.605 0,0.225 -0.405,0.587 -0.9,0.804 -0.495,0.217 -1.078,0.8 -1.295,1.295 -0.217,0.495 -0.635,0.9 -0.928,0.9 -0.673,0 -1.723,1.021 -1.391,1.352 0.136,0.137 -0.053,0.248 -0.419,0.248 -0.982,0 -0.844,1.758 0.233,2.96 2.577,2.875 10.246,8.117 18.5,12.646 1.32,0.724 2.94,1.62 3.6,1.99 2.091,1.173 4.338,1.328 5.018,0.347 0.969,-1.399 1.627,-1.962 2.014,-1.723 0.203,0.125 0.368,-0.064 0.368,-0.42 0,-0.356 0.18,-0.536 0.4,-0.4 0.22,0.136 0.4,-0.123 0.4,-0.576 0,-0.482 0.261,-0.824 0.629,-0.824 0.727,0 1.771,-0.937 1.771,-1.59 0,-0.599 1.543,-2.077 2.9,-2.778 0.605,-0.312 1.1,-0.897 1.1,-1.3 0,-0.435 0.289,-0.732 0.712,-0.732 0.391,0 0.971,-0.36 1.288,-0.8 0.317,-0.44 0.784,-0.8 1.037,-0.8 0.449,0 2.963,-2.689 2.963,-3.17 0,-0.132 0.405,-0.418 0.9,-0.635 0.495,-0.217 1.065,-0.77 1.266,-1.229 0.202,-0.458 0.727,-0.998 1.168,-1.2 0.44,-0.201 0.995,-0.715 1.233,-1.142 0.636,-1.142 2.13,-2.624 2.643,-2.624 0.653,0 1.59,-1.044 1.59,-1.771 0,-0.346 0.283,-0.629 0.629,-0.629 0.745,0 1.84,-0.997 1.485,-1.352 -0.136,-0.137 -0.024,-0.248 0.248,-0.248 0.608,0 1.393,-0.764 1.748,-1.7 0.146,-0.385 0.551,-0.7 0.901,-0.7 0.35,0 0.525,-0.18 0.389,-0.4 -0.136,-0.22 0.033,-0.4 0.376,-0.4 0.343,0 0.624,-0.27 0.624,-0.6 0,-0.33 0.158,-0.6 0.351,-0.6 0.659,0 3.716,-3.168 3.459,-3.585 -0.142,-0.228 0.047,-0.415 0.42,-0.415 0.372,0 1.103,-0.495 1.623,-1.1 0.52,-0.605 0.946,-0.937 0.947,-0.738 0,0.199 0.36,0.036 0.8,-0.362 0.44,-0.398 0.8,-0.965 0.8,-1.259 0,-0.294 0.36,-0.759 0.8,-1.034 0.44,-0.275 0.8,-0.816 0.8,-1.203 0,-0.387 0.283,-0.704 0.629,-0.704 1.539,0 2.39,-2.535 1.233,-3.671 -8.273,-8.13 -19.707,-18.996 -20.204,-19.201 -1.373,-0.567 -2.305,-0.283 -3.561,1.085 M 105.5,258.311 c -0.605,0.078 -1.1,0.31 -1.1,0.516 0,0.205 -0.283,0.373 -0.629,0.373 -0.718,0 -1.771,0.934 -1.771,1.571 0,0.236 -0.18,0.429 -0.4,0.429 -0.22,0 -0.4,0.248 -0.4,0.551 0,0.304 -0.506,0.761 -1.124,1.017 -0.618,0.256 -1.445,1.011 -1.839,1.677 -0.393,0.666 -0.814,1.111 -0.935,0.99 -0.221,-0.221 -0.677,0.253 -2.447,2.543 -0.52,0.672 -1.118,1.222 -1.329,1.222 -0.562,0 -1.526,1.059 -1.526,1.677 0,0.293 -0.405,0.718 -0.9,0.943 -0.495,0.225 -0.851,0.641 -0.79,0.924 0.06,0.284 -0.064,0.408 -0.276,0.277 -0.212,-0.131 -0.892,0.395 -1.51,1.17 -0.618,0.775 -1.272,1.409 -1.453,1.409 -0.472,0 -1.471,1.067 -1.471,1.571 0,0.236 -0.225,0.433 -0.5,0.438 -0.768,0.015 -3.5,2.63 -3.5,3.352 0,0.351 -0.242,0.639 -0.538,0.639 -0.296,0 -0.864,0.36 -1.262,0.8 -0.398,0.44 -0.962,0.8 -1.253,0.8 -0.291,0 -0.848,0.495 -1.238,1.1 -1.033,1.603 -2.201,2.9 -2.61,2.9 -0.576,0 -1.499,1.091 -1.499,1.771 0,0.346 -0.283,0.629 -0.629,0.629 -0.732,0 -1.771,0.938 -1.771,1.6 0,0.251 -0.27,0.727 -0.6,1.057 -0.33,0.33 -0.6,0.463 -0.6,0.295 0,-0.168 -0.264,0.044 -0.587,0.472 -0.323,0.427 -0.593,0.613 -0.6,0.414 -0.021,-0.576 -1.613,1.027 -1.613,1.624 0,0.296 -0.315,0.54 -0.7,0.542 -0.385,0.002 -1.147,0.569 -1.693,1.26 -0.547,0.692 -1.672,1.922 -2.5,2.734 -0.829,0.813 -1.507,1.685 -1.507,1.94 0,0.254 -0.23,0.462 -0.512,0.462 -0.281,0 -0.771,0.36 -1.088,0.8 -0.317,0.44 -0.82,0.8 -1.117,0.8 -0.654,0 -1.683,0.972 -1.683,1.59 0,0.579 -1.831,2.41 -2.41,2.41 -0.569,0 -1.59,1.009 -1.59,1.571 0,0.236 -0.157,0.429 -0.348,0.429 -0.551,0 -3.652,2.847 -3.652,3.353 0,0.252 -0.405,0.635 -0.9,0.852 -0.495,0.217 -1.078,0.8 -1.295,1.295 -0.217,0.495 -0.526,0.9 -0.686,0.9 C 44.491,316 42,318.634 42,319.297 42,319.684 41.727,320 41.393,320 40.747,320 38,322.619 38,323.234 c 0,0.201 -0.152,0.366 -0.339,0.366 -0.532,0 -2.061,1.444 -2.061,1.947 0,0.249 -0.245,0.453 -0.545,0.453 -0.3,0 -1.02,0.475 -1.6,1.055 -0.58,0.58 -1.055,0.912 -1.055,0.738 0,-0.175 -0.36,0.009 -0.8,0.407 -0.44,0.398 -0.8,0.965 -0.8,1.259 0,0.294 -0.36,0.759 -0.8,1.034 -0.44,0.275 -0.8,0.776 -0.8,1.115 0,0.338 -0.36,0.875 -0.8,1.192 -0.44,0.317 -0.8,0.801 -0.8,1.076 0,0.275 -0.36,1.141 -0.8,1.924 -0.44,0.783 -0.8,1.803 -0.8,2.266 0,0.463 -0.209,1.538 -0.464,2.389 -0.476,1.59 -0.038,4.812 0.974,7.145 0.59,1.363 0.561,1.289 0.89,2.3 0.162,0.495 0.452,0.9 0.647,0.9 0.194,0 0.353,0.27 0.353,0.6 0,0.33 0.18,0.6 0.4,0.6 0.22,0 0.4,0.242 0.4,0.538 0,0.674 1.374,1.954 1.723,1.606 0.142,-0.142 0.372,0.037 0.51,0.399 0.139,0.361 0.503,0.657 0.81,0.657 0.306,0 0.557,0.21 0.557,0.467 0,0.256 0.12,0.346 0.268,0.199 0.147,-0.147 0.552,-0.013 0.9,0.299 3.203,2.873 14.065,1.763 16.706,-1.707 0.275,-0.362 0.506,-0.495 0.513,-0.296 0.018,0.517 1.613,-0.995 1.613,-1.529 0,-0.244 0.405,-0.621 0.9,-0.838 0.495,-0.217 1.078,-0.8 1.295,-1.295 0.217,-0.495 0.593,-0.9 0.836,-0.9 0.634,0 2.969,-2.665 2.969,-3.389 0,-0.336 0.32,-0.611 0.712,-0.611 0.391,0 0.971,-0.36 1.288,-0.8 0.317,-0.44 0.82,-0.8 1.117,-0.8 0.696,0 1.683,-0.987 1.683,-1.683 0,-0.297 0.36,-0.8 0.8,-1.117 0.44,-0.317 0.8,-0.807 0.8,-1.088 0,-0.282 0.283,-0.512 0.629,-0.512 0.73,0 1.771,-0.938 1.771,-1.595 0,-0.249 0.191,-0.334 0.425,-0.189 0.514,0.317 1.975,-0.924 1.975,-1.678 0,-0.296 0.226,-0.538 0.503,-0.538 0.576,0 3.097,-2.625 3.097,-3.226 0,-0.22 0.315,-0.516 0.7,-0.659 0.783,-0.29 2.1,-1.655 2.1,-2.176 0,-0.187 0.165,-0.339 0.366,-0.339 0.615,0 3.234,-2.747 3.234,-3.393 0,-0.334 0.268,-0.607 0.595,-0.607 1,0 5.005,-3.526 5.005,-4.407 0,-0.29 0.113,-0.413 0.251,-0.275 0.271,0.271 4.949,-4.11 4.949,-4.636 0,-0.482 1.901,-2.282 2.41,-2.282 0.653,0 1.59,-1.044 1.59,-1.771 0,-0.346 0.276,-0.629 0.613,-0.629 0.686,0 3.387,-2.542 3.387,-3.187 0,-0.227 0.152,-0.413 0.339,-0.413 0.473,0 2.06,-1.418 2.066,-1.847 0.003,-0.194 0.618,-0.75 1.367,-1.235 0.749,-0.485 1.685,-1.43 2.081,-2.1 0.396,-0.67 0.997,-1.218 1.337,-1.218 0.34,0 0.842,-0.36 1.117,-0.8 0.275,-0.44 0.691,-0.8 0.925,-0.8 0.559,0 1.568,-1.023 1.568,-1.59 0,-0.579 1.831,-2.41 2.41,-2.41 0.653,0 1.59,-1.044 1.59,-1.771 0,-0.346 0.283,-0.629 0.629,-0.629 0.718,0 1.771,-0.934 1.771,-1.571 0,-0.236 0.18,-0.429 0.4,-0.429 0.554,0 3.6,-3.006 3.6,-3.553 0,-0.246 0.179,-0.447 0.397,-0.447 0.571,0 2.408,-1.668 2.203,-2 -0.095,-0.154 0.265,-0.514 0.8,-0.8 0.535,-0.286 0.878,-0.673 0.763,-0.86 -0.116,-0.187 -0.007,-0.34 0.242,-0.34 0.657,0 1.595,-1.041 1.595,-1.771 0,-0.346 0.294,-0.629 0.653,-0.629 0.359,0 0.947,-0.315 1.306,-0.7 0.359,-0.385 1.01,-0.895 1.447,-1.133 0.437,-0.238 0.972,-0.823 1.189,-1.3 0.217,-0.477 0.633,-0.867 0.923,-0.867 0.291,0 0.418,0.18 0.282,0.4 -0.136,0.22 0.087,0.4 0.496,0.4 0.409,0 0.957,0.213 1.217,0.473 0.261,0.261 0.588,0.359 0.728,0.219 0.495,-0.495 -1.358,-1.947 -6.241,-4.888 -5.875,-3.539 -11.65,-7.56 -15.8,-11.001 -5.033,-4.174 -5.213,-4.283 -6.7,-4.092 m 72.9,2.489 c 0,0.22 0.585,0.387 1.3,0.372 1.089,-0.024 1.17,-0.084 0.5,-0.372 -1.105,-0.475 -1.8,-0.475 -1.8,0 m 10.6,1.6 c 0.136,0.22 0.787,0.4 1.447,0.4 0.698,0 1.097,-0.167 0.953,-0.4 -0.136,-0.22 -0.787,-0.4 -1.447,-0.4 -0.698,0 -1.097,0.167 -0.953,0.4 m 32.6,30.4 c 0,0.22 0.45,0.4 1,0.4 0.55,0 1,-0.18 1,-0.4 0,-0.22 -0.45,-0.4 -1,-0.4 -0.55,0 -1,0.18 -1,0.4 m -6,0.8 c 0,0.22 0.63,0.4 1.4,0.4 0.77,0 1.4,-0.18 1.4,-0.4 0,-0.22 -0.63,-0.4 -1.4,-0.4 -0.77,0 -1.4,0.18 -1.4,0.4 m -6,0.8 c 0,0.22 0.529,0.4 1.176,0.4 0.647,0 1.288,-0.18 1.424,-0.4 0.147,-0.238 -0.329,-0.4 -1.176,-0.4 -0.783,0 -1.424,0.18 -1.424,0.4"
       inkscape:connector-curvature="0"
       style="fill:#64d4fb;fill-rule:evenodd;stroke:none" />
    <path
       id="path3"
       d="m 196,171.957 c -2.09,2.066 -6.455,6.374 -9.7,9.572 -3.245,3.198 -5.9,5.899 -5.9,6.001 0,0.209 0.958,-0.706 12,-11.456 4.29,-4.177 7.71,-7.657 7.6,-7.734 -0.11,-0.077 -1.91,1.551 -4,3.617 m 18.828,22.116 c -3.175,3.106 -5.477,5.482 -5.116,5.28 0.791,-0.442 11.498,-10.958 11.139,-10.94 -0.138,0.007 -2.849,2.554 -6.023,5.66 m -6.676,6.442 c -0.247,0.267 -2.182,2.175 -4.3,4.241 -2.119,2.066 -3.852,3.851 -3.852,3.968 0,0.116 1.387,-1.124 3.082,-2.756 1.694,-1.633 3.786,-3.643 4.648,-4.468 0.861,-0.825 1.41,-1.493 1.218,-1.485 -0.191,0.009 -0.55,0.234 -0.796,0.5 m 63.502,35.938 c -0.035,0.676 -0.518,1.407 -1.354,2.047 -2.03,1.552 -4.76,4.163 -3.3,3.155 3.154,-2.177 5.083,-4.251 4.895,-5.261 l -0.186,-0.994 -0.055,1.053 m -145.888,3.329 c -1.339,1.33 -4.309,4.2 -6.6,6.377 -6.981,6.635 -12.313,11.89 -11.933,11.762 0.198,-0.066 3.646,-3.29 7.663,-7.163 4.017,-3.874 8.744,-8.401 10.504,-10.06 1.76,-1.659 3.11,-3.089 3,-3.176 -0.11,-0.087 -1.295,0.929 -2.634,2.26 m 137.49,4.252 c -0.52,0.421 -0.79,0.76 -0.6,0.753 0.488,-0.018 1.92,-1.144 1.715,-1.348 -0.094,-0.094 -0.596,0.174 -1.115,0.595 m -2.4,1.6 c -0.52,0.421 -0.79,0.76 -0.6,0.753 0.488,-0.018 1.92,-1.144 1.715,-1.348 -0.094,-0.094 -0.596,0.174 -1.115,0.595 m -7.256,4.196 c -6.571,3.777 -7.792,4.557 -5.2,3.32 2.679,-1.278 10.756,-5.956 11.019,-6.381 0.296,-0.479 0.805,-0.747 -5.819,3.061 M 154,254.2 c 0,0.33 0.265,0.6 0.588,0.6 0.324,0 1.6,0.463 2.836,1.028 4.6,2.104 9.376,3.21 9.376,2.172 0,-0.22 -0.99,-0.4 -2.2,-0.4 -1.21,0 -2.2,-0.18 -2.2,-0.4 0,-0.22 -0.45,-0.4 -1,-0.4 -0.55,0 -1,-0.18 -1,-0.4 0,-0.22 -0.36,-0.4 -0.8,-0.4 -0.44,0 -0.8,-0.18 -0.8,-0.4 0,-0.22 -0.36,-0.4 -0.8,-0.4 -0.44,0 -0.8,-0.18 -0.8,-0.4 0,-0.22 -0.551,-0.4 -1.224,-0.4 -0.713,0 -1.12,-0.167 -0.976,-0.4 0.136,-0.22 -0.033,-0.4 -0.376,-0.4 -0.343,0 -0.624,0.27 -0.624,0.6 m 89.983,-0.021 c 0.245,0.296 0.807,0.444 1.248,0.329 0.991,-0.259 0.868,-0.402 -0.572,-0.663 -0.907,-0.164 -1.037,-0.1 -0.676,0.334 M 241.4,255.2 c -0.285,0.899 -0.849,1.054 -1.099,0.304 -0.12,-0.361 -0.347,-0.315 -0.833,0.171 -0.984,0.984 -0.823,1.22 0.632,0.927 1.76,-0.354 3.9,-1.353 3.9,-1.821 0,-0.785 -2.337,-0.408 -2.6,0.419 m -6,2.4 c -0.14,0.44 -0.602,0.8 -1.027,0.8 -0.425,0 -0.773,0.18 -0.773,0.4 0,0.22 -0.439,0.4 -0.976,0.4 -0.537,0 -1.088,0.18 -1.224,0.4 -0.136,0.22 -0.856,0.4 -1.6,0.4 -0.744,0 -1.464,0.18 -1.6,0.4 -0.344,0.556 -2.339,0.501 -2.92,-0.08 -0.304,-0.304 -0.48,-0.324 -0.48,-0.055 0,0.239 -0.445,0.339 -1.023,0.229 -0.701,-0.135 -1.266,0.066 -1.798,0.637 -0.427,0.458 -1.452,0.944 -2.277,1.081 -0.826,0.137 -1.952,0.4 -2.502,0.585 -1.212,0.409 -5.57,0.942 -7.89,0.965 -1.137,0.012 -1.492,0.128 -1.086,0.356 1.08,0.604 9.894,-0.772 19.176,-2.993 0.88,-0.211 2.187,-0.48 2.904,-0.598 0.717,-0.119 1.402,-0.376 1.523,-0.571 0.121,-0.196 0.542,-0.356 0.935,-0.356 0.94,0 3.238,-1.156 3.238,-1.629 0,-0.204 0.45,-0.371 1,-0.371 0.55,0 1,-0.18 1,-0.4 0,-0.798 -2.334,-0.439 -2.6,0.4 m 52.6,3.841 c -4.614,3.803 -13.617,10.159 -14.388,10.159 -0.227,0 -0.412,0.191 -0.412,0.424 0,0.511 -0.123,0.582 5.6,-3.246 2.53,-1.692 6.695,-4.794 9.256,-6.893 2.561,-2.1 5.081,-3.898 5.6,-3.997 0.936,-0.178 0.936,-0.179 -0.056,-0.208 -0.697,-0.02 -2.393,1.118 -5.6,3.761 M 168.6,258.8 c 0.136,0.22 0.517,0.4 0.847,0.4 0.33,0 0.489,-0.18 0.353,-0.4 -0.136,-0.22 -0.517,-0.4 -0.847,-0.4 -0.33,0 -0.489,0.18 -0.353,0.4 m 4.6,1.52 c 0,0.431 2.422,1.281 3.628,1.274 0.701,-0.005 0.82,-0.103 0.427,-0.352 -0.461,-0.291 -0.461,-0.382 0,-0.582 0.3,-0.13 -0.212,-0.204 -1.138,-0.164 -0.926,0.039 -1.811,-0.056 -1.967,-0.212 -0.381,-0.382 -0.95,-0.36 -0.95,0.036 m 6.7,1.198 c -0.605,0.074 -1.1,0.303 -1.1,0.509 0,0.516 1.892,0.471 2.216,-0.054 0.346,-0.558 0.2,-0.617 -1.116,-0.455 m 5.3,0.895 c 0,0.658 1.066,0.887 1.944,0.417 0.544,-0.291 0.89,-0.299 1.059,-0.025 0.139,0.225 0.439,0.293 0.667,0.152 0.679,-0.42 -0.519,-0.944 -2.17,-0.951 -0.825,-0.003 -1.5,0.18 -1.5,0.407 m 6.267,0.654 c -0.64,0.639 -0.142,0.933 1.582,0.933 1.598,0 1.781,-0.081 1.351,-0.6 -0.503,-0.606 -2.441,-0.826 -2.933,-0.333 m 13.339,0.033 c -0.004,0.371 -1.27,0.507 -4.906,0.525 -3.572,0.019 -4.638,0.13 -3.934,0.412 1.256,0.502 11.016,0.306 10.096,-0.203 -0.364,-0.201 -0.794,-0.561 -0.956,-0.8 -0.2,-0.296 -0.296,-0.275 -0.3,0.066 m 61.374,12.862 c -0.993,0.947 -11.592,6.379 -13.98,7.164 -1.706,0.562 -3.166,1.147 -4.295,1.721 -0.382,0.194 -0.967,0.353 -1.3,0.353 -0.333,0 -0.605,0.18 -0.605,0.4 0,0.22 -0.36,0.4 -0.8,0.4 -0.44,0 -0.8,0.18 -0.8,0.4 0,0.22 -0.54,0.4 -1.2,0.4 -0.8,0 -1.2,0.2 -1.2,0.6 0,0.339 0.358,0.6 0.824,0.6 0.453,0 0.712,-0.18 0.576,-0.4 -0.212,-0.343 1.269,-0.622 2.33,-0.437 0.181,0.031 0.215,-0.128 0.076,-0.353 -0.152,-0.246 0.244,-0.41 0.994,-0.41 0.686,0 1.142,-0.171 1.012,-0.38 -0.289,-0.468 1.042,-1.22 2.162,-1.22 0.454,0 0.826,-0.18 0.826,-0.4 0,-0.22 0.54,-0.4 1.2,-0.4 0.66,0 1.2,-0.143 1.2,-0.317 0,-0.174 0.81,-0.534 1.8,-0.799 0.99,-0.264 1.8,-0.662 1.8,-0.882 0,-0.221 0.36,-0.402 0.8,-0.402 0.44,0 0.8,-0.179 0.8,-0.398 0,-0.219 0.855,-0.797 1.9,-1.285 1.979,-0.923 6.9,-3.891 6.9,-4.162 0,-0.287 -0.637,-0.158 -1.02,0.207 m -128.98,3.542 c 0,0.614 1.546,1.307 1.843,0.826 0.173,-0.279 0.102,-0.343 -0.184,-0.166 -0.26,0.16 -0.57,0.011 -0.705,-0.339 -0.244,-0.636 -0.954,-0.875 -0.954,-0.321 m 4.487,2.086 c 0.336,0.539 0.933,0.81 1.786,0.81 0.704,0 1.391,0.18 1.527,0.4 0.136,0.22 0.674,0.4 1.197,0.4 0.598,0 1.043,0.296 1.203,0.8 0.305,0.962 2.2,1.134 2.2,0.2 0,-0.333 -0.356,-0.6 -0.8,-0.6 -0.44,0 -0.8,-0.18 -0.8,-0.4 0,-0.22 -0.349,-0.4 -0.776,-0.4 -0.427,0 -0.888,-0.18 -1.024,-0.4 -0.136,-0.22 -0.651,-0.4 -1.144,-0.4 -0.493,0 -1.067,-0.157 -1.276,-0.348 -0.947,-0.868 -2.628,-0.918 -2.093,-0.062 m 8.58,3.077 c -0.45,0.45 -0.3,0.828 0.433,1.087 0.385,0.135 0.95,0.36 1.256,0.498 0.35,0.159 0.452,0.085 0.276,-0.2 -0.162,-0.262 -0.017,-0.452 0.344,-0.452 0.343,0 0.624,0.239 0.624,0.531 0,0.367 0.387,0.474 1.257,0.346 0.722,-0.106 1.158,-0.026 1.026,0.189 -0.127,0.206 0.136,0.603 0.585,0.883 0.449,0.281 0.708,0.336 0.576,0.122 -0.132,-0.213 0.027,-0.489 0.352,-0.614 0.34,-0.131 0.76,0.087 0.987,0.511 0.391,0.731 1.647,1.467 1.565,0.918 -0.127,-0.852 0.138,-0.932 0.876,-0.265 0.484,0.439 1.307,0.709 2,0.656 0.689,-0.053 1.176,0.106 1.176,0.383 0,0.26 0.117,0.356 0.26,0.213 0.144,-0.143 0.506,0.052 0.806,0.433 0.3,0.382 0.498,0.514 0.44,0.294 -0.058,-0.22 0.074,-0.4 0.294,-0.4 0.22,0 0.361,0.118 0.312,0.263 -0.048,0.144 0.222,0.212 0.6,0.151 0.379,-0.061 0.913,0.068 1.188,0.286 0.337,0.269 0.5,0.256 0.5,-0.038 0,-0.241 0.269,-0.334 0.598,-0.208 0.328,0.127 0.514,0.365 0.412,0.531 -0.103,0.165 0.868,0.22 2.156,0.122 1.447,-0.111 2.445,-0.012 2.612,0.257 0.148,0.24 1.303,0.436 2.566,0.436 1.263,0 2.467,0.162 2.676,0.359 0.209,0.198 1.64,0.462 3.18,0.588 5.965,0.485 8.014,0.753 8.38,1.096 0.209,0.197 0.779,0.357 1.267,0.357 0.487,0 0.991,0.225 1.12,0.5 0.186,0.4 0.28,0.4 0.466,0 0.165,-0.353 1.451,-0.5 4.367,-0.5 2.916,0 4.202,0.147 4.367,0.5 0.186,0.4 0.28,0.4 0.466,0 0.283,-0.606 4.8,-0.694 5.167,-0.1 0.136,0.22 0.607,0.4 1.047,0.4 0.44,0 0.689,-0.18 0.553,-0.4 -0.248,-0.401 0.817,-0.592 2.5,-0.447 0.495,0.042 0.9,-0.091 0.9,-0.298 0,-0.538 -3.081,-0.706 -7.327,-0.399 -7.007,0.507 -20.368,-0.58 -30.673,-2.495 -7.041,-1.309 -7.855,-1.513 -16.463,-4.139 -2.565,-0.782 -5.029,-1.422 -5.476,-1.422 -0.448,0 -0.925,-0.18 -1.061,-0.4 -0.282,-0.456 -1.137,-0.53 -1.533,-0.133 M 239.2,288.2 c 0,0.33 0.33,0.6 0.733,0.6 0.404,0 0.734,-0.27 0.734,-0.6 0,-0.33 -0.33,-0.6 -0.734,-0.6 -0.403,0 -0.733,0.27 -0.733,0.6 m -2.976,0.813 c -0.769,0.581 -0.769,0.587 0,0.574 0.427,-0.007 1.125,-0.277 1.552,-0.6 0.769,-0.581 0.769,-0.587 0,-0.574 -0.427,0.007 -1.125,0.277 -1.552,0.6 m -3.024,0.783 c 0,0.379 0.339,0.567 0.933,0.518 0.514,-0.043 0.934,-0.311 0.934,-0.596 0,-0.285 -0.42,-0.518 -0.934,-0.518 -0.56,0 -0.933,0.238 -0.933,0.596 m -2.8,0.252 c -3.547,0.765 -4.202,1.018 -4.327,1.668 -0.072,0.376 0.062,0.684 0.298,0.684 0.236,0 0.429,-0.18 0.429,-0.4 0,-0.22 0.439,-0.4 0.976,-0.4 0.537,0 1.089,-0.181 1.226,-0.403 0.137,-0.222 0.677,-0.326 1.2,-0.231 0.532,0.097 1.163,-0.082 1.432,-0.406 0.644,-0.777 0.422,-0.869 -1.234,-0.512 M 223,292 c 0.136,0.22 0.507,0.4 0.824,0.4 0.317,0 0.576,-0.18 0.576,-0.4 0,-0.22 -0.371,-0.4 -0.824,-0.4 -0.453,0 -0.712,0.18 -0.576,0.4"
       inkscape:connector-curvature="0"
       style="fill:#a6b7e5;fill-rule:evenodd;stroke:none" />
    <path
       id="path4"
       d="m 199.6,167.344 c 0,0.642 -19.605,19.82 -21.026,20.569 -1.218,0.641 -1.249,0.883 -0.074,0.579 0.495,-0.128 3.78,-3.051 7.3,-6.495 3.52,-3.445 8.155,-7.965 10.3,-10.045 3.248,-3.149 4.686,-5.152 3.7,-5.152 -0.11,0 -0.2,0.245 -0.2,0.544 m 19.869,22.698 c -0.918,0.904 -5.674,5.529 -10.569,10.279 -6.185,6.002 -8.888,8.888 -8.86,9.458 0.039,0.808 0.044,0.809 0.3,0.021 0.143,-0.44 2.87,-3.32 6.059,-6.4 3.19,-3.08 7.801,-7.555 10.247,-9.944 2.447,-2.389 4.697,-4.501 5.001,-4.694 0.443,-0.28 0.448,-0.351 0.022,-0.356 -0.293,-0.003 -1.283,0.733 -2.2,1.636 M 128,236.333 c 0,0.429 -2.785,3.382 -6.696,7.1 -3.682,3.502 -8.454,8.077 -10.603,10.167 -2.15,2.09 -4.312,3.917 -4.805,4.06 -0.891,0.259 -0.891,0.26 0.062,0.3 0.7,0.029 2.048,-1.023 5,-3.901 2.223,-2.167 5.917,-5.722 8.209,-7.9 8.918,-8.474 10.702,-10.559 9.033,-10.559 -0.11,0 -0.2,0.33 -0.2,0.733 m 141.6,2.139 c -2.328,2.058 -8.311,6.551 -9.6,7.21 -0.55,0.281 -1.936,1.097 -3.081,1.814 -1.144,0.717 -2.165,1.304 -2.268,1.304 -0.103,0 -1.777,0.922 -3.719,2.048 -1.943,1.127 -4.162,2.284 -4.932,2.572 -1.04,0.389 -1.178,0.531 -0.536,0.552 1.744,0.057 18.356,-9.857 22.136,-13.211 0.77,-0.683 2.03,-1.749 2.8,-2.367 0.77,-0.619 1.31,-1.212 1.2,-1.319 -0.11,-0.107 -1.01,0.522 -2,1.397 m -112.4,16.353 c 0,0.206 0.36,0.375 0.8,0.375 0.44,0 0.8,0.18 0.8,0.4 0,0.22 0.345,0.4 0.767,0.4 0.421,0 0.847,0.225 0.945,0.5 0.098,0.275 0.315,0.374 0.481,0.219 0.404,-0.376 -0.773,-1.519 -1.564,-1.519 -0.346,0 -0.629,-0.142 -0.629,-0.315 0,-0.173 -0.36,-0.342 -0.8,-0.375 -0.44,-0.033 -0.8,0.109 -0.8,0.315 m 5.2,2.375 c 0,0.22 0.461,0.4 1.024,0.4 0.58,0 0.916,-0.173 0.776,-0.4 -0.136,-0.22 -0.597,-0.4 -1.024,-0.4 -0.427,0 -0.776,0.18 -0.776,0.4 m 70.8,0.8 c 0,0.22 -0.675,0.408 -1.5,0.418 -0.825,0.009 -2.22,0.277 -3.1,0.594 -0.88,0.317 -2.117,0.579 -2.749,0.582 -0.976,0.005 -1.074,0.096 -0.651,0.606 0.56,0.675 2.621,0.813 3,0.2 0.136,-0.22 0.856,-0.4 1.6,-0.4 0.744,0 1.464,-0.18 1.6,-0.4 0.136,-0.22 0.687,-0.4 1.224,-0.4 0.537,0 0.976,-0.18 0.976,-0.4 0,-0.22 0.36,-0.4 0.8,-0.4 0.44,0 0.8,-0.18 0.8,-0.4 0,-0.22 -0.45,-0.4 -1,-0.4 -0.55,0 -1,0.18 -1,0.4 m 54.8,3.881 c -4.468,3.712 -11.851,8.907 -15.688,11.04 -1.039,0.578 -3.559,2.079 -5.6,3.336 -2.042,1.258 -4.747,2.802 -6.012,3.432 -1.265,0.629 -2.297,1.362 -2.294,1.628 0.004,0.3 0.153,0.255 0.394,-0.117 0.258,-0.4 0.39,-0.433 0.394,-0.1 0.003,0.275 0.276,0.5 0.606,0.5 0.33,0 0.6,-0.18 0.6,-0.4 0,-0.22 0.371,-0.4 0.824,-0.4 0.453,0 0.712,-0.18 0.576,-0.4 -0.14,-0.226 0.187,-0.4 0.749,-0.4 0.646,0 1.087,-0.282 1.251,-0.8 0.14,-0.44 0.562,-0.8 0.939,-0.8 0.376,0 0.944,-0.36 1.261,-0.8 0.317,-0.44 0.807,-0.8 1.088,-0.8 0.282,0 0.512,-0.18 0.512,-0.4 0,-0.22 0.27,-0.4 0.6,-0.4 0.33,0 0.6,-0.18 0.6,-0.4 0,-0.22 0.162,-0.4 0.359,-0.4 1.084,0 14.21,-8.736 18.565,-12.355 4.791,-3.983 5.714,-4.823 5.276,-4.804 -0.22,0.01 -2.47,1.738 -5,3.84 m -114.004,-1.685 c 0.272,0.327 0.657,0.495 0.856,0.372 0.51,-0.316 0.022,-0.968 -0.725,-0.968 -0.508,0 -0.533,0.111 -0.131,0.596 m 3.27,0.554 c -0.434,0.276 -0.421,0.382 0.067,0.569 0.331,0.127 0.7,-0.028 0.821,-0.344 0.248,-0.645 -0.09,-0.73 -0.888,-0.225 m 44.334,0.016 c 0,0.209 -0.576,0.364 -1.279,0.344 -0.703,-0.02 -1.348,0.172 -1.433,0.427 -0.085,0.255 -0.51,0.463 -0.945,0.463 -0.435,0 -0.689,-0.164 -0.565,-0.365 0.256,-0.414 -0.807,-0.339 -1.233,0.087 -0.153,0.153 -0.8,0.278 -1.438,0.278 -0.638,0 -1.497,0.18 -1.909,0.401 -0.501,0.268 -0.832,0.268 -0.997,0 -0.137,-0.221 -0.518,-0.401 -0.848,-0.401 -0.33,0 -0.489,0.18 -0.353,0.4 0.156,0.252 -0.796,0.4 -2.576,0.4 -2.633,0 -3.73,0.488 -2.124,0.945 1.319,0.376 8.383,-0.208 11.3,-0.933 3.827,-0.952 4.8,-1.271 4.8,-1.573 0,-0.18 0.495,-0.238 1.1,-0.129 1.385,0.251 1.075,-0.108 -0.4,-0.461 -0.615,-0.148 -1.1,-0.096 -1.1,0.117 m -27.241,2.587 c 0.408,0.493 10.441,0.417 10.441,-0.08 0,-0.154 -2.432,-0.3 -5.405,-0.324 -3.944,-0.032 -5.306,0.077 -5.036,0.404 M 256.8,282 c 0,0.22 0.27,0.4 0.6,0.4 0.33,0 0.6,-0.18 0.6,-0.4 0,-0.22 -0.27,-0.4 -0.6,-0.4 -0.33,0 -0.6,0.18 -0.6,0.4 m -113.2,0.8 c 0,0.22 0.36,0.4 0.8,0.4 0.44,0 0.8,0.18 0.8,0.4 0,0.22 0.45,0.4 1,0.4 0.55,0 1,-0.18 1,-0.4 0,-0.22 -0.439,-0.4 -0.976,-0.4 -0.537,0 -1.088,-0.18 -1.224,-0.4 -0.136,-0.22 -0.507,-0.4 -0.824,-0.4 -0.317,0 -0.576,0.18 -0.576,0.4 m 111.1,0.121 c -0.825,0.231 -1.5,0.568 -1.5,0.75 0,0.465 1.103,0.41 1.4,-0.071 0.136,-0.22 0.597,-0.4 1.024,-0.4 0.427,0 0.776,-0.18 0.776,-0.4 0,-0.22 -0.045,-0.377 -0.1,-0.349 -0.055,0.027 -0.775,0.239 -1.6,0.47 m -3.9,1.479 c 0,0.22 0.27,0.4 0.6,0.4 0.33,0 0.6,-0.18 0.6,-0.4 0,-0.22 -0.27,-0.4 -0.6,-0.4 -0.33,0 -0.6,0.18 -0.6,0.4 m -2.584,0.939 c -0.514,0.376 -0.597,0.625 -0.274,0.825 0.255,0.158 0.733,0.018 1.061,-0.31 1.093,-1.093 0.518,-1.469 -0.787,-0.515 M 152.6,286.4 c 0.79,0.873 2.387,1.068 2.833,0.346 0.194,-0.314 -0.106,-0.397 -0.976,-0.269 -0.87,0.128 -1.257,0.021 -1.257,-0.346 0,-0.292 -0.298,-0.531 -0.662,-0.531 -0.595,0 -0.589,0.081 0.062,0.8 m 4.037,0.924 c -0.613,0.447 -0.578,0.506 0.341,0.582 0.562,0.047 1.022,-0.082 1.022,-0.287 0,-0.662 -0.665,-0.806 -1.363,-0.295 m 2.47,0.828 c -0.623,0.473 -0.569,0.53 0.527,0.561 1.017,0.029 1.141,-0.061 0.744,-0.539 -0.262,-0.316 -0.499,-0.568 -0.527,-0.561 -0.028,0.007 -0.363,0.249 -0.744,0.539 m 2.344,1.131 c 0.287,0.465 2.149,0.387 2.149,-0.089 0,-0.224 -0.528,-0.367 -1.172,-0.317 -0.645,0.049 -1.084,0.232 -0.977,0.406 M 237.4,289.2 c -0.136,0.22 0.023,0.4 0.353,0.4 0.33,0 0.711,-0.18 0.847,-0.4 0.136,-0.22 -0.023,-0.4 -0.353,-0.4 -0.33,0 -0.711,0.18 -0.847,0.4 m -72.534,0.52 c -0.333,0.402 -0.213,0.52 0.534,0.52 0.747,0 0.867,-0.118 0.534,-0.52 -0.238,-0.286 -0.478,-0.52 -0.534,-0.52 -0.056,0 -0.296,0.234 -0.534,0.52 m 2.995,0.866 c -0.118,0.306 0.034,0.5 0.355,0.453 0.863,-0.127 1.083,-0.515 0.434,-0.764 -0.321,-0.124 -0.676,0.016 -0.789,0.311 m 63.794,-0.053 c -0.335,0.404 -0.298,0.534 0.151,0.534 0.327,0 0.594,-0.161 0.594,-0.357 0,-0.197 0.18,-0.246 0.4,-0.11 0.22,0.136 0.4,0.057 0.4,-0.176 0,-0.599 -1.017,-0.527 -1.545,0.109 m -61.442,0.646 c -0.167,0.271 0.378,0.421 1.53,0.421 1.045,0 1.885,0.208 2.017,0.5 0.124,0.275 0.183,0.14 0.129,-0.3 -0.107,-0.896 -3.185,-1.416 -3.676,-0.621 M 175.6,292 c 0,0.22 0.72,0.4 1.6,0.4 0.88,0 1.6,0.183 1.6,0.406 0,0.224 0.495,0.405 1.1,0.404 0.605,-0.002 1.85,-0.011 2.768,-0.021 0.917,-0.01 1.782,0.169 1.923,0.397 0.141,0.228 1.606,0.414 3.256,0.414 1.898,0 2.909,0.147 2.753,0.4 -0.144,0.233 0.263,0.4 0.976,0.4 0.673,0 1.224,-0.18 1.224,-0.4 0,-0.22 -0.414,-0.4 -0.92,-0.4 -0.506,0 -1.091,-0.16 -1.3,-0.357 -0.366,-0.343 -2.415,-0.611 -8.38,-1.096 -1.54,-0.126 -2.971,-0.39 -3.18,-0.588 -0.519,-0.491 -3.42,-0.456 -3.42,0.041 m 18,2.4 c 0,0.241 1.667,0.4 4.2,0.4 2.533,0 4.2,-0.159 4.2,-0.4 0,-0.241 -1.667,-0.4 -4.2,-0.4 -2.533,0 -4.2,0.159 -4.2,0.4 m 9.2,0 c 0,0.226 1.141,0.4 2.624,0.4 1.647,0 2.531,-0.149 2.376,-0.4 -0.136,-0.22 -1.317,-0.4 -2.624,-0.4 -1.317,0 -2.376,0.178 -2.376,0.4"
       inkscape:connector-curvature="0"
       style="fill:#c4a4dc;fill-rule:evenodd;stroke:none" />
  </g>
</svg>
