<svg id="svg" version="1.1" width="400" height="400" viewBox="0 0 400 400" xmlns="http://www.w3.org/2000/svg" xmlns:xlink="http://www.w3.org/1999/xlink" ><g id="svgg"><path id="path0" d="M78.000 58.800 C 77.670 59.013,77.015 59.191,76.544 59.194 C 74.152 59.211,68.400 63.033,68.400 64.605 C 68.400 64.958,68.247 65.153,68.060 65.037 C 67.693 64.810,65.200 69.359,65.200 70.256 C 65.200 70.555,65.020 70.800,64.800 70.800 C 64.580 70.800,64.400 71.160,64.400 71.600 C 64.400 72.040,64.220 72.400,64.000 72.400 C 63.780 72.400,63.600 72.760,63.600 73.200 C 63.600 73.640,63.450 74.000,63.267 74.000 C 63.083 74.000,62.933 74.264,62.933 74.587 C 62.933 74.909,62.385 76.304,61.714 77.687 C 61.043 79.069,60.307 80.920,60.078 81.800 C 59.850 82.680,59.378 84.366,59.031 85.546 C 58.684 86.726,58.400 87.941,58.400 88.246 C 58.400 88.551,58.220 88.800,58.000 88.800 C 57.780 88.800,57.600 89.160,57.600 89.600 C 57.600 90.040,57.420 90.400,57.200 90.400 C 56.980 90.400,56.800 91.019,56.800 91.776 C 56.800 92.533,56.620 93.264,56.400 93.400 C 56.180 93.536,56.000 94.087,56.000 94.624 C 56.000 95.161,55.820 95.600,55.600 95.600 C 55.380 95.600,55.200 96.320,55.200 97.200 C 55.200 98.080,55.020 98.800,54.800 98.800 C 54.580 98.800,54.400 99.621,54.400 100.624 C 54.400 101.737,54.244 102.351,54.000 102.200 C 53.748 102.044,53.600 102.996,53.600 104.776 C 53.600 106.392,53.429 107.600,53.200 107.600 C 52.980 107.600,52.800 108.320,52.800 109.200 C 52.800 110.080,52.620 110.800,52.400 110.800 C 52.175 110.800,52.000 111.925,52.000 113.376 C 52.000 114.793,51.820 116.064,51.600 116.200 C 51.380 116.336,51.200 117.787,51.200 119.424 C 51.200 121.085,51.028 122.400,50.811 122.400 C 50.567 122.400,50.422 127.605,50.421 136.417 C 50.421 145.414,50.560 150.348,50.810 150.194 C 51.051 150.045,51.200 151.174,51.200 153.143 C 51.200 154.898,51.370 156.393,51.578 156.467 C 51.786 156.540,51.994 157.808,52.040 159.285 C 52.087 160.762,52.277 161.876,52.463 161.761 C 52.648 161.647,52.800 162.373,52.800 163.376 C 52.800 164.379,52.980 165.200,53.200 165.200 C 53.425 165.200,53.600 166.325,53.600 167.776 C 53.600 169.193,53.780 170.464,54.000 170.600 C 54.220 170.736,54.400 171.467,54.400 172.224 C 54.400 172.981,54.580 173.600,54.800 173.600 C 55.020 173.600,55.200 174.140,55.200 174.800 C 55.200 175.460,55.380 176.000,55.600 176.000 C 55.820 176.000,56.000 176.705,56.000 177.567 C 56.000 178.428,56.172 179.193,56.382 179.267 C 56.593 179.340,56.810 180.075,56.864 180.900 C 56.919 181.725,57.107 182.400,57.282 182.400 C 57.457 182.400,57.600 182.940,57.600 183.600 C 57.600 184.260,57.759 184.800,57.953 184.800 C 58.148 184.800,58.399 185.205,58.513 185.700 C 58.770 186.822,59.594 189.173,60.054 190.095 C 60.244 190.477,60.400 191.231,60.400 191.771 C 60.400 192.311,60.580 192.864,60.800 193.000 C 61.020 193.136,61.200 193.676,61.200 194.200 C 61.200 194.724,61.380 195.264,61.600 195.400 C 61.820 195.536,62.000 195.997,62.000 196.424 C 62.000 196.851,62.136 197.200,62.302 197.200 C 62.693 197.200,63.628 199.312,63.708 200.376 C 63.742 200.829,63.912 201.200,64.085 201.200 C 64.258 201.200,64.400 201.560,64.400 202.000 C 64.400 202.440,64.580 202.800,64.800 202.800 C 65.020 202.800,65.200 203.120,65.200 203.512 C 65.200 203.903,65.560 204.483,66.000 204.800 C 66.440 205.117,66.800 205.697,66.800 206.088 C 66.800 206.480,66.980 206.800,67.200 206.800 C 67.420 206.800,67.600 207.250,67.600 207.800 C 67.600 208.350,67.780 208.800,68.000 208.800 C 68.220 208.800,68.400 209.160,68.400 209.600 C 68.400 210.040,68.580 210.400,68.800 210.400 C 69.020 210.400,69.200 210.760,69.200 211.200 C 69.200 211.640,69.380 212.000,69.600 212.000 C 69.820 212.000,70.000 212.360,70.000 212.800 C 70.000 213.240,70.180 213.600,70.400 213.600 C 70.620 213.600,70.800 213.883,70.800 214.229 C 70.800 214.574,71.079 215.136,71.420 215.477 C 71.760 215.818,72.143 216.615,72.270 217.248 C 72.396 217.882,72.658 218.400,72.850 218.400 C 73.043 218.400,73.200 218.771,73.200 219.224 C 73.200 219.677,73.380 219.936,73.600 219.800 C 73.820 219.664,74.000 219.833,74.000 220.176 C 74.000 220.519,74.180 220.800,74.400 220.800 C 74.620 220.800,74.800 221.171,74.800 221.624 C 74.800 222.077,74.961 222.348,75.158 222.226 C 75.480 222.027,76.077 222.909,76.165 223.715 C 76.184 223.888,76.470 224.200,76.800 224.408 C 77.130 224.617,77.231 224.791,77.024 224.794 C 76.816 224.797,76.996 225.064,77.424 225.387 C 77.851 225.710,78.037 225.980,77.839 225.987 C 77.390 226.003,79.194 227.600,79.661 227.600 C 79.848 227.600,80.000 227.960,80.000 228.400 C 80.000 228.840,80.180 229.200,80.400 229.200 C 80.620 229.200,80.800 229.560,80.800 230.000 C 80.800 230.440,80.980 230.800,81.200 230.800 C 81.420 230.800,81.600 231.117,81.600 231.504 C 81.600 231.891,81.960 232.432,82.400 232.707 C 82.840 232.982,83.200 233.526,83.200 233.915 C 83.200 234.305,83.560 234.883,84.000 235.200 C 84.440 235.517,84.804 235.962,84.809 236.188 C 84.825 236.891,87.486 239.600,88.161 239.600 C 88.526 239.600,88.800 239.931,88.800 240.373 C 88.800 240.798,89.160 241.260,89.600 241.400 C 90.040 241.540,90.400 241.925,90.400 242.256 C 90.400 242.966,91.113 243.736,92.125 244.120 C 92.524 244.271,92.760 244.542,92.648 244.722 C 92.537 244.902,92.840 245.517,93.323 246.088 C 93.805 246.658,94.465 247.502,94.788 247.963 C 95.112 248.423,95.525 248.800,95.706 248.800 C 96.197 248.800,98.000 250.694,98.000 251.210 C 98.000 251.863,99.044 252.800,99.771 252.800 C 100.117 252.800,100.400 253.083,100.400 253.429 C 100.400 254.147,101.334 255.200,101.971 255.200 C 102.207 255.200,102.400 255.350,102.400 255.532 C 102.400 255.715,102.850 256.106,103.400 256.400 C 103.950 256.694,104.400 257.178,104.400 257.475 C 104.400 257.953,106.164 257.861,106.759 257.352 C 107.051 257.102,120.917 243.847,124.540 240.354 C 128.266 236.762,129.061 234.800,126.792 234.800 C 126.339 234.800,126.000 234.531,126.000 234.171 C 126.000 233.486,125.076 232.400,124.493 232.400 C 124.293 232.400,123.316 231.504,122.322 230.409 C 121.329 229.314,120.400 228.534,120.258 228.675 C 120.116 228.817,120.000 228.673,120.000 228.355 C 120.000 228.037,119.640 227.517,119.200 227.200 C 118.760 226.883,118.400 226.408,118.400 226.145 C 118.400 225.882,117.860 225.428,117.200 225.136 C 116.540 224.844,116.000 224.370,116.000 224.084 C 116.000 223.798,115.547 223.110,114.992 222.556 C 114.438 222.002,114.092 221.376,114.222 221.164 C 114.353 220.953,114.221 220.830,113.930 220.890 C 113.638 220.951,113.449 220.762,113.510 220.470 C 113.570 220.179,113.454 220.043,113.251 220.169 C 112.800 220.447,110.400 218.273,110.400 217.586 C 110.400 217.316,110.085 216.801,109.700 216.443 C 109.027 215.817,108.464 214.950,107.332 212.800 C 107.042 212.250,106.804 211.935,106.802 212.100 C 106.798 212.680,105.314 210.906,104.763 209.660 C 104.456 208.967,104.069 208.400,103.902 208.400 C 103.736 208.400,103.600 208.080,103.600 207.688 C 103.600 207.297,103.240 206.717,102.800 206.400 C 102.360 206.083,102.000 205.543,102.000 205.200 C 102.000 204.857,101.640 204.317,101.200 204.000 C 100.760 203.683,100.400 203.103,100.400 202.712 C 100.400 202.320,100.220 202.000,100.000 202.000 C 99.780 202.000,99.600 201.640,99.600 201.200 C 99.600 200.760,99.420 200.400,99.200 200.400 C 98.980 200.400,98.800 200.040,98.800 199.600 C 98.800 199.160,98.620 198.800,98.400 198.800 C 98.180 198.800,98.000 198.440,98.000 198.000 C 98.000 197.560,97.865 197.199,97.700 197.199 C 97.535 197.198,96.950 196.208,96.400 195.000 C 95.850 193.792,95.265 192.802,95.100 192.801 C 94.935 192.801,94.800 192.440,94.800 192.000 C 94.800 191.560,94.620 191.200,94.400 191.200 C 94.180 191.200,94.000 190.840,94.000 190.400 C 94.000 189.960,93.820 189.600,93.600 189.600 C 93.380 189.600,93.197 189.015,93.194 188.300 C 93.189 187.314,93.094 187.145,92.800 187.600 C 92.486 188.087,92.411 188.032,92.406 187.312 C 92.403 186.824,92.037 185.777,91.592 184.986 C 91.148 184.195,90.869 183.412,90.972 183.246 C 91.075 183.079,90.916 182.473,90.618 181.900 C 90.320 181.326,90.160 180.773,90.262 180.671 C 90.364 180.570,89.896 179.272,89.224 177.788 C 88.551 176.304,88.000 174.765,88.000 174.368 C 88.000 173.972,87.820 173.536,87.600 173.400 C 87.380 173.264,87.200 172.623,87.200 171.976 C 87.200 171.329,87.020 170.800,86.800 170.800 C 86.580 170.800,86.400 170.069,86.400 169.176 C 86.400 168.196,86.242 167.651,86.000 167.800 C 85.750 167.954,85.600 167.145,85.600 165.647 C 85.600 164.327,85.420 163.136,85.200 163.000 C 84.980 162.864,84.800 162.169,84.800 161.456 C 84.800 160.743,84.621 159.981,84.402 159.762 C 84.183 159.543,83.944 158.281,83.872 156.958 C 83.800 155.634,83.634 154.378,83.502 154.166 C 83.371 153.954,83.223 152.614,83.173 151.190 C 83.123 149.765,82.923 148.395,82.729 148.145 C 82.048 147.265,82.725 120.313,83.477 118.400 C 83.607 118.070,83.785 116.729,83.873 115.421 C 83.961 114.112,84.178 112.852,84.355 112.621 C 84.532 112.389,84.719 111.120,84.769 109.800 C 84.820 108.480,85.027 107.340,85.231 107.267 C 85.434 107.193,85.600 106.518,85.600 105.767 C 85.600 105.015,85.780 104.400,86.000 104.400 C 86.220 104.400,86.400 103.860,86.400 103.200 C 86.400 101.804,86.789 101.675,87.600 102.800 C 87.917 103.240,88.457 103.600,88.800 103.600 C 89.143 103.600,89.683 103.960,90.000 104.400 C 90.317 104.840,90.811 105.200,91.098 105.200 C 91.385 105.200,91.785 105.605,91.988 106.100 C 92.439 107.205,94.563 109.600,95.091 109.600 C 95.303 109.600,95.802 109.960,96.200 110.400 C 96.598 110.840,97.166 111.200,97.462 111.200 C 97.758 111.200,98.000 111.476,98.000 111.813 C 98.000 112.609,100.591 115.200,101.387 115.200 C 101.724 115.200,102.000 115.483,102.000 115.829 C 102.000 116.528,102.744 117.342,103.537 117.509 C 104.232 117.656,106.000 119.451,106.000 120.010 C 106.000 120.564,107.004 121.600,107.540 121.600 C 107.758 121.600,108.747 122.410,109.737 123.400 C 110.727 124.390,111.750 125.200,112.011 125.200 C 112.272 125.200,112.393 125.442,112.279 125.738 C 112.166 126.034,112.441 126.529,112.892 126.838 C 113.342 127.147,114.127 127.805,114.637 128.300 C 115.147 128.795,115.842 129.200,116.182 129.200 C 116.522 129.200,116.800 129.447,116.800 129.749 C 116.800 130.446,119.901 133.834,120.416 133.700 C 120.627 133.645,120.800 133.793,120.800 134.029 C 120.800 134.666,121.853 135.600,122.571 135.600 C 122.917 135.600,123.200 135.883,123.200 136.229 C 123.200 136.574,123.470 137.127,123.800 137.457 C 124.130 137.787,124.400 137.961,124.400 137.844 C 124.400 137.727,125.120 138.380,126.000 139.296 C 126.880 140.212,127.600 141.105,127.600 141.281 C 127.600 141.456,127.960 141.600,128.400 141.600 C 128.852 141.600,129.200 141.867,129.200 142.213 C 129.200 142.774,131.712 145.622,132.193 145.607 C 133.048 145.579,133.200 145.673,133.200 146.229 C 133.200 147.000,134.151 148.000,134.883 148.000 C 135.180 148.000,135.683 148.360,136.000 148.800 C 136.317 149.240,136.897 149.600,137.288 149.600 C 137.680 149.600,138.000 149.876,138.000 150.213 C 138.000 151.009,140.591 153.600,141.387 153.600 C 141.724 153.600,142.000 153.883,142.000 154.229 C 142.000 154.947,142.934 156.000,143.571 156.000 C 143.807 156.000,144.004 156.135,144.009 156.300 C 144.029 156.922,146.748 159.600,147.361 159.600 C 147.712 159.600,148.000 159.780,148.000 160.000 C 148.000 160.987,148.805 162.000,149.590 162.000 C 150.169 162.000,152.000 163.831,152.000 164.410 C 152.000 165.063,153.044 166.000,153.771 166.000 C 154.117 166.000,154.400 166.152,154.400 166.339 C 154.400 166.975,155.799 168.275,156.300 168.104 C 156.575 168.010,156.800 168.137,156.800 168.385 C 156.800 169.145,161.551 173.993,162.300 173.997 C 162.575 173.999,162.800 174.201,162.800 174.447 C 162.800 175.073,167.890 180.000,168.536 180.000 C 168.827 180.000,169.320 180.495,169.632 181.100 C 170.405 182.597,171.832 184.000,172.582 184.000 C 172.939 184.000,173.200 184.347,173.200 184.824 C 173.200 185.277,173.380 185.536,173.600 185.400 C 173.820 185.264,174.000 185.433,174.000 185.776 C 174.000 186.119,174.236 186.400,174.525 186.400 C 174.814 186.400,175.554 186.925,176.169 187.568 C 177.282 188.730,177.293 188.732,178.460 188.022 C 180.214 186.956,199.239 168.341,199.635 167.303 C 200.018 166.300,199.710 165.085,199.158 165.426 C 198.961 165.548,198.800 165.469,198.800 165.251 C 198.800 165.032,198.440 164.740,198.000 164.600 C 197.560 164.460,197.200 164.075,197.200 163.744 C 197.200 162.959,196.226 162.000,195.429 162.000 C 195.083 162.000,194.800 161.774,194.800 161.497 C 194.800 160.924,192.446 158.657,191.457 158.277 C 191.096 158.139,190.800 157.827,190.800 157.584 C 190.800 157.063,189.805 156.000,189.317 156.000 C 189.130 156.000,188.717 155.640,188.400 155.200 C 188.083 154.760,187.503 154.400,187.112 154.400 C 186.720 154.400,186.400 154.112,186.400 153.761 C 186.400 153.039,183.668 150.424,182.900 150.409 C 182.625 150.404,182.400 150.117,182.400 149.771 C 182.400 149.426,182.143 148.886,181.829 148.571 C 181.514 148.257,180.974 148.000,180.629 148.000 C 180.283 148.000,180.000 147.848,180.000 147.661 C 180.000 147.475,179.685 146.952,179.300 146.499 C 178.915 146.045,178.335 145.298,178.012 144.837 C 177.688 144.377,177.103 144.000,176.712 144.000 C 176.320 144.000,176.000 143.807,176.000 143.571 C 176.000 143.052,174.996 142.000,174.501 142.000 C 174.039 142.000,172.756 140.489,172.032 139.094 C 171.720 138.492,171.178 138.000,170.827 138.000 C 170.477 138.000,170.012 137.610,169.795 137.133 C 169.578 136.656,169.054 136.071,168.631 135.833 C 167.604 135.255,165.396 133.200,165.803 133.200 C 165.979 133.200,165.798 132.840,165.400 132.400 C 165.002 131.960,164.435 131.600,164.141 131.600 C 163.847 131.600,163.382 131.240,163.107 130.800 C 162.832 130.360,162.291 130.000,161.904 130.000 C 161.517 130.000,161.200 129.709,161.200 129.354 C 161.200 128.603,156.487 124.000,155.719 124.000 C 155.433 124.000,155.200 123.810,155.200 123.578 C 155.200 123.346,154.661 122.581,154.002 121.878 C 153.343 121.175,152.803 120.465,152.802 120.300 C 152.801 120.135,152.440 120.000,152.000 120.000 C 151.284 120.000,151.013 119.584,151.153 118.700 C 151.179 118.535,150.919 118.400,150.576 118.400 C 150.233 118.400,150.064 118.220,150.200 118.000 C 150.336 117.780,150.158 117.600,149.805 117.600 C 149.126 117.600,147.690 116.272,146.967 114.976 C 146.729 114.549,146.144 114.022,145.667 113.805 C 145.190 113.588,144.800 113.223,144.800 112.993 C 144.800 112.764,144.405 112.312,143.923 111.988 C 143.441 111.665,142.623 110.995,142.105 110.500 C 141.587 110.005,140.992 109.600,140.782 109.600 C 140.572 109.600,140.400 109.407,140.400 109.171 C 140.400 108.588,139.370 107.600,138.762 107.600 C 138.490 107.600,138.378 107.489,138.514 107.352 C 138.869 106.997,137.774 106.000,137.029 106.000 C 136.683 106.000,136.400 105.717,136.400 105.371 C 136.400 105.026,136.143 104.486,135.829 104.171 C 135.514 103.857,134.974 103.600,134.629 103.600 C 134.261 103.600,134.000 103.258,134.000 102.776 C 134.000 102.323,133.820 102.064,133.600 102.200 C 133.380 102.336,133.200 102.156,133.200 101.800 C 133.200 101.444,133.020 101.264,132.800 101.400 C 132.580 101.536,132.400 101.444,132.400 101.195 C 132.400 100.538,131.359 99.600,130.629 99.600 C 130.283 99.600,130.000 99.317,130.000 98.971 C 130.000 98.244,129.063 97.200,128.410 97.200 C 127.838 97.200,126.244 95.612,125.889 94.687 C 125.739 94.297,124.713 93.415,123.608 92.729 C 122.504 92.042,121.600 91.311,121.600 91.103 C 121.600 90.460,116.511 85.600,115.837 85.600 C 115.487 85.600,115.200 85.324,115.200 84.987 C 115.200 84.191,112.609 81.600,111.813 81.600 C 111.476 81.600,111.200 81.317,111.200 80.971 C 111.200 80.163,110.237 79.200,109.429 79.200 C 109.083 79.200,108.800 78.945,108.800 78.634 C 108.800 78.323,107.990 77.355,107.000 76.484 C 106.010 75.612,105.200 74.774,105.200 74.621 C 105.200 74.187,104.106 73.200,103.625 73.200 C 103.387 73.200,102.628 72.660,101.937 72.000 C 101.246 71.340,100.826 70.800,101.003 70.800 C 101.179 70.800,100.998 70.440,100.600 70.000 C 100.202 69.560,99.677 69.200,99.433 69.200 C 99.189 69.200,98.812 68.810,98.595 68.333 C 98.378 67.856,97.854 67.271,97.431 67.033 C 97.008 66.795,95.713 65.638,94.554 64.462 C 93.395 63.286,92.256 62.442,92.023 62.586 C 91.791 62.729,91.600 62.567,91.600 62.224 C 91.600 61.662,91.133 61.421,90.300 61.553 C 90.135 61.579,90.000 61.455,90.000 61.277 C 90.000 59.779,79.757 57.665,78.000 58.800 M216.796 193.305 C 214.268 195.782,209.545 200.374,206.300 203.509 C 202.452 207.226,200.400 209.495,200.400 210.033 C 200.400 211.011,201.290 212.000,202.171 212.000 C 202.517 212.000,202.800 212.278,202.800 212.618 C 202.800 212.958,203.205 213.653,203.700 214.163 C 204.195 214.673,204.865 215.474,205.188 215.945 C 205.512 216.415,205.967 216.800,206.200 216.800 C 206.433 216.800,206.883 217.160,207.200 217.600 C 207.517 218.040,208.007 218.400,208.288 218.400 C 208.570 218.400,208.800 218.582,208.800 218.804 C 208.800 219.335,210.709 221.287,212.112 222.191 C 212.724 222.586,213.138 222.995,213.032 223.102 C 212.773 223.360,213.628 224.180,214.500 224.510 C 214.885 224.656,215.200 225.051,215.200 225.387 C 215.200 225.724,215.500 226.000,215.867 226.000 C 216.233 226.000,216.422 226.111,216.286 226.248 C 215.976 226.558,216.985 227.600,217.595 227.600 C 217.844 227.600,217.936 227.780,217.800 228.000 C 217.664 228.220,217.923 228.400,218.376 228.400 C 218.858 228.400,219.200 228.661,219.200 229.029 C 219.200 229.749,220.135 230.800,220.775 230.800 C 221.261 230.800,223.600 232.930,223.600 233.372 C 223.600 233.810,224.690 234.800,225.171 234.800 C 225.407 234.800,225.600 234.977,225.600 235.193 C 225.600 235.409,226.766 236.714,228.190 238.093 C 232.068 241.847,232.723 242.400,233.288 242.400 C 233.572 242.400,234.044 242.940,234.336 243.600 C 234.628 244.260,235.130 244.800,235.452 244.800 C 236.138 244.800,238.000 246.562,238.000 247.210 C 238.000 247.863,239.044 248.800,239.771 248.800 C 240.117 248.800,240.400 249.083,240.400 249.429 C 240.400 250.237,241.363 251.200,242.171 251.200 C 242.517 251.200,242.800 251.352,242.800 251.539 C 242.800 254.168,245.480 253.987,250.638 251.009 C 252.742 249.794,254.548 248.800,254.651 248.800 C 254.754 248.800,255.775 248.213,256.919 247.496 C 258.064 246.779,259.450 245.962,260.000 245.679 C 263.718 243.772,271.672 236.981,271.516 235.846 C 271.373 234.806,269.858 233.200,269.018 233.200 C 268.676 233.200,268.400 232.858,268.400 232.434 C 268.400 231.967,267.931 231.459,267.200 231.136 C 266.540 230.844,266.000 230.400,266.000 230.149 C 266.000 229.611,262.978 226.800,262.399 226.800 C 262.179 226.800,262.000 226.607,262.000 226.371 C 262.000 225.809,260.979 224.800,260.410 224.800 C 259.831 224.800,258.000 222.969,258.000 222.390 C 258.000 221.825,257.209 221.034,256.300 220.690 C 255.915 220.544,255.600 220.227,255.600 219.984 C 255.600 219.451,254.600 218.400,254.093 218.400 C 253.893 218.400,252.916 217.504,251.922 216.409 C 250.929 215.314,250.000 214.534,249.858 214.675 C 249.716 214.817,249.600 214.710,249.600 214.438 C 249.600 213.744,248.579 212.800,247.829 212.800 C 247.467 212.800,247.200 212.461,247.200 212.000 C 247.200 211.560,247.065 211.197,246.900 211.194 C 246.735 211.190,245.994 210.653,245.252 209.999 C 244.511 209.346,243.746 208.910,243.552 209.029 C 243.359 209.149,243.200 208.954,243.200 208.595 C 243.200 207.857,242.275 206.800,241.629 206.800 C 241.393 206.800,241.200 206.648,241.200 206.461 C 241.200 206.035,239.800 204.400,239.435 204.400 C 238.897 204.400,237.200 202.422,237.200 201.795 C 237.200 201.442,237.020 201.264,236.800 201.400 C 236.580 201.536,236.400 201.356,236.400 201.000 C 236.400 200.644,236.232 200.457,236.026 200.584 C 235.820 200.711,235.198 200.362,234.644 199.808 C 234.090 199.253,233.358 198.800,233.018 198.800 C 232.678 198.800,232.400 198.480,232.400 198.088 C 232.400 197.697,232.040 197.117,231.600 196.800 C 231.160 196.483,230.800 196.033,230.800 195.800 C 230.800 195.567,230.418 195.112,229.951 194.788 C 229.484 194.465,228.854 193.962,228.551 193.671 C 228.248 193.381,227.995 193.291,227.988 193.471 C 227.981 193.652,227.792 193.485,227.568 193.100 C 227.344 192.715,226.899 192.400,226.580 192.400 C 226.261 192.400,226.000 192.226,226.000 192.013 C 226.000 191.801,225.416 190.991,224.703 190.213 C 222.620 187.944,222.031 188.174,216.796 193.305 M289.400 261.430 C 284.227 265.799,270.408 275.200,269.159 275.200 C 268.962 275.200,268.800 275.380,268.800 275.600 C 268.800 275.820,268.530 276.000,268.200 276.000 C 267.870 276.000,267.600 276.180,267.600 276.400 C 267.600 276.620,267.407 276.800,267.171 276.800 C 266.722 276.800,265.600 277.779,265.600 278.171 C 265.600 278.297,265.870 278.400,266.200 278.400 C 266.530 278.400,266.800 278.220,266.800 278.000 C 266.800 277.780,267.145 277.600,267.567 277.600 C 267.988 277.600,268.425 277.375,268.536 277.100 C 268.690 276.720,268.836 276.739,269.143 277.181 C 269.365 277.500,269.456 277.910,269.344 278.091 C 269.232 278.272,269.379 278.370,269.670 278.310 C 269.962 278.249,270.151 278.438,270.090 278.730 C 270.030 279.021,270.153 279.153,270.364 279.022 C 270.576 278.892,271.202 279.238,271.756 279.792 C 272.310 280.347,273.042 280.800,273.382 280.800 C 273.722 280.800,274.000 281.089,274.000 281.443 C 274.000 282.153,278.882 287.200,279.569 287.200 C 279.806 287.200,280.000 287.441,280.000 287.736 C 280.000 288.030,280.630 288.845,281.400 289.545 C 282.170 290.246,282.800 290.712,282.800 290.581 C 282.800 290.450,283.070 290.613,283.400 290.943 C 283.730 291.273,284.000 291.659,284.000 291.800 C 284.000 292.293,285.148 293.200,285.771 293.200 C 286.117 293.200,286.400 293.483,286.400 293.829 C 286.400 294.556,287.337 295.600,287.990 295.600 C 288.569 295.600,290.400 297.431,290.400 298.010 C 290.400 298.577,291.409 299.600,291.968 299.600 C 292.202 299.600,292.618 299.960,292.893 300.400 C 293.168 300.840,293.709 301.200,294.096 301.200 C 294.483 301.200,294.800 301.401,294.800 301.647 C 294.800 302.229,297.771 305.200,298.353 305.200 C 298.599 305.200,298.800 305.404,298.800 305.653 C 298.800 306.277,300.423 307.633,300.852 307.368 C 301.043 307.250,301.204 307.388,301.209 307.676 C 301.223 308.462,303.827 311.200,304.561 311.200 C 304.912 311.200,305.200 311.483,305.200 311.829 C 305.200 312.556,306.137 313.600,306.790 313.600 C 307.369 313.600,309.200 315.431,309.200 316.010 C 309.200 316.489,310.176 317.600,310.597 317.600 C 310.737 317.600,311.306 318.140,311.862 318.801 C 312.418 319.462,313.037 319.901,313.236 319.777 C 313.436 319.654,313.600 319.794,313.600 320.088 C 313.600 320.383,313.960 320.883,314.400 321.200 C 314.840 321.517,315.200 321.930,315.200 322.117 C 315.200 322.591,316.003 323.298,317.300 323.968 C 317.905 324.280,318.400 324.685,318.400 324.868 C 318.400 325.050,318.760 325.200,319.200 325.200 C 319.665 325.200,320.000 325.467,320.000 325.837 C 320.000 326.551,324.613 331.306,325.700 331.713 C 326.085 331.857,326.400 332.165,326.400 332.398 C 326.400 333.038,328.852 335.600,329.464 335.600 C 329.759 335.600,330.000 335.842,330.000 336.138 C 330.000 336.434,330.360 337.002,330.800 337.400 C 331.240 337.798,331.600 337.961,331.600 337.762 C 331.601 337.563,332.027 337.895,332.547 338.500 C 333.067 339.105,333.787 339.600,334.147 339.600 C 334.506 339.600,334.800 339.788,334.800 340.018 C 334.800 340.248,335.253 340.890,335.808 341.444 C 336.362 341.998,336.711 342.620,336.584 342.826 C 336.457 343.032,336.644 343.200,337.000 343.200 C 337.387 343.200,337.533 343.385,337.362 343.662 C 337.191 343.938,337.251 344.015,337.512 343.854 C 337.752 343.706,338.402 344.038,338.956 344.592 C 339.510 345.147,340.242 345.600,340.582 345.600 C 340.922 345.600,341.200 345.875,341.200 346.211 C 341.200 346.935,343.535 349.600,344.169 349.600 C 344.412 349.600,344.788 350.005,345.005 350.500 C 345.222 350.995,345.775 351.565,346.234 351.766 C 346.692 351.968,347.232 352.508,347.434 352.966 C 347.635 353.425,348.205 353.978,348.700 354.195 C 349.195 354.412,349.600 354.738,349.600 354.918 C 349.600 355.099,349.780 355.136,350.000 355.000 C 350.220 354.864,350.400 354.930,350.400 355.147 C 350.400 355.659,352.790 356.853,353.249 356.570 C 353.442 356.451,353.600 356.527,353.600 356.740 C 353.600 358.103,363.840 358.127,364.334 356.765 C 364.408 356.561,364.611 356.483,364.786 356.591 C 365.219 356.859,367.600 355.637,367.600 355.147 C 367.600 354.930,367.780 354.864,368.000 355.000 C 368.220 355.136,368.400 355.099,368.400 354.918 C 368.400 354.738,368.805 354.412,369.300 354.195 C 369.795 353.978,370.378 353.395,370.595 352.900 C 370.812 352.405,371.138 352.000,371.318 352.000 C 371.499 352.000,371.536 351.820,371.400 351.600 C 371.264 351.380,371.335 351.200,371.558 351.200 C 371.915 351.200,372.589 349.946,373.599 347.400 C 374.534 345.043,374.917 341.967,374.464 340.455 C 374.209 339.604,374.000 338.444,374.000 337.877 C 374.000 337.311,373.820 336.736,373.600 336.600 C 373.380 336.464,373.200 336.003,373.200 335.576 C 373.200 335.149,373.020 334.800,372.800 334.800 C 372.580 334.800,372.400 334.480,372.400 334.088 C 372.400 333.697,372.040 333.117,371.600 332.800 C 371.160 332.483,370.800 332.027,370.800 331.787 C 370.800 331.547,370.485 330.992,370.100 330.554 C 369.715 330.115,369.208 329.418,368.973 329.005 C 368.739 328.592,368.199 328.061,367.773 327.827 C 367.348 327.592,366.868 327.220,366.706 327.000 C 366.510 326.733,366.406 326.733,366.394 327.000 C 366.384 327.220,366.192 327.085,365.968 326.700 C 365.744 326.315,365.299 326.000,364.980 326.000 C 364.661 326.000,364.400 325.803,364.400 325.563 C 364.400 324.877,359.348 320.000,358.637 320.000 C 358.287 320.000,358.000 319.698,358.000 319.328 C 358.000 318.711,355.430 316.000,354.845 316.000 C 354.704 316.000,354.412 315.595,354.195 315.100 C 353.978 314.605,353.395 314.022,352.900 313.805 C 352.405 313.588,352.000 313.205,352.000 312.953 C 352.000 312.447,348.899 309.600,348.348 309.600 C 348.157 309.600,348.000 309.330,348.000 309.000 C 348.000 308.670,347.719 308.400,347.376 308.400 C 347.033 308.400,346.864 308.220,347.000 308.000 C 347.136 307.780,346.958 307.600,346.605 307.600 C 345.742 307.600,344.002 305.813,343.994 304.918 C 343.989 304.308,343.929 304.290,343.600 304.800 C 343.291 305.278,343.205 305.197,343.175 304.400 C 343.154 303.850,343.045 303.627,342.933 303.905 C 342.798 304.242,342.357 304.010,341.605 303.205 C 340.986 302.542,340.281 302.000,340.040 302.000 C 339.798 302.000,339.600 301.739,339.600 301.420 C 339.600 301.101,339.285 300.656,338.900 300.432 C 338.515 300.208,338.322 300.019,338.472 300.012 C 338.621 300.005,337.991 299.226,337.072 298.279 C 336.152 297.333,335.265 296.624,335.100 296.703 C 334.935 296.782,334.800 296.567,334.800 296.224 C 334.800 295.881,334.483 295.600,334.095 295.600 C 333.707 295.600,333.212 295.210,332.995 294.733 C 332.778 294.256,332.248 293.671,331.817 293.433 C 331.386 293.195,330.788 292.775,330.488 292.500 C 330.188 292.225,329.818 292.000,329.666 292.000 C 329.514 292.000,329.212 291.595,328.995 291.100 C 328.778 290.605,328.195 290.022,327.700 289.805 C 327.200 289.586,326.797 289.053,326.794 288.605 C 326.789 287.939,326.721 287.903,326.400 288.400 C 326.091 288.878,326.005 288.797,325.975 288.000 C 325.954 287.450,325.851 287.209,325.747 287.464 C 325.624 287.766,325.241 287.626,324.653 287.064 C 324.155 286.589,323.816 286.065,323.898 285.900 C 323.980 285.735,323.756 285.600,323.400 285.600 C 323.044 285.600,322.871 285.409,323.016 285.175 C 323.291 284.729,322.134 283.200,321.521 283.200 C 321.326 283.200,320.780 282.840,320.308 282.400 C 319.836 281.960,319.213 281.600,318.925 281.600 C 318.636 281.600,318.400 281.317,318.400 280.971 C 318.400 280.626,318.130 280.073,317.800 279.743 C 317.470 279.413,317.200 279.291,317.200 279.471 C 317.199 279.652,316.773 279.305,316.253 278.700 C 315.733 278.095,315.223 277.600,315.120 277.600 C 315.017 277.600,314.153 276.880,313.200 276.000 C 312.247 275.120,311.607 274.400,311.778 274.400 C 312.301 274.400,309.035 271.619,308.500 271.609 C 308.225 271.604,308.000 271.382,308.000 271.117 C 308.000 270.851,307.145 269.802,306.100 268.786 C 305.055 267.770,303.945 266.561,303.633 266.099 C 303.321 265.636,302.717 265.167,302.292 265.056 C 301.867 264.945,301.631 264.674,301.766 264.454 C 302.054 263.988,300.430 262.734,299.935 263.040 C 299.751 263.154,299.600 263.037,299.600 262.781 C 299.600 262.525,299.141 261.954,298.579 261.512 C 298.017 261.070,297.649 260.618,297.760 260.507 C 298.193 260.073,294.963 257.976,293.938 258.026 C 293.642 258.040,291.600 259.572,289.400 261.430 M220.400 260.800 C 220.400 261.020,220.670 261.200,221.000 261.200 C 221.330 261.200,221.600 261.020,221.600 260.800 C 221.600 260.580,221.330 260.400,221.000 260.400 C 220.670 260.400,220.400 260.580,220.400 260.800 M217.052 261.685 C 217.334 262.140,218.800 262.073,218.800 261.604 C 218.800 261.387,218.363 261.245,217.829 261.289 C 217.295 261.334,216.945 261.512,217.052 261.685 M208.200 262.400 C 208.053 262.639,208.537 262.800,209.400 262.800 C 210.263 262.800,210.747 262.639,210.600 262.400 C 210.464 262.180,209.924 262.000,209.400 262.000 C 208.876 262.000,208.336 262.180,208.200 262.400 M264.000 278.800 C 264.000 279.020,264.270 279.200,264.600 279.200 C 264.930 279.200,265.200 279.020,265.200 278.800 C 265.200 278.580,264.930 278.400,264.600 278.400 C 264.270 278.400,264.000 278.580,264.000 278.800 M174.000 292.000 C 174.000 292.220,174.360 292.400,174.800 292.400 C 175.240 292.400,175.600 292.220,175.600 292.000 C 175.600 291.780,175.240 291.600,174.800 291.600 C 174.360 291.600,174.000 291.780,174.000 292.000 M176.600 292.800 C 176.736 293.020,177.287 293.200,177.824 293.200 C 178.361 293.200,178.800 293.020,178.800 292.800 C 178.800 292.580,178.249 292.400,177.576 292.400 C 176.863 292.400,176.456 292.567,176.600 292.800 M181.800 293.600 C 181.650 293.842,182.204 294.000,183.200 294.000 C 184.196 294.000,184.750 293.842,184.600 293.600 C 184.464 293.380,183.834 293.200,183.200 293.200 C 182.566 293.200,181.936 293.380,181.800 293.600 M187.400 294.400 C 187.536 294.620,188.256 294.800,189.000 294.800 C 189.744 294.800,190.464 294.620,190.600 294.400 C 190.751 294.155,190.130 294.000,189.000 294.000 C 187.870 294.000,187.249 294.155,187.400 294.400 " stroke="none" fill="#fb64b4" fill-rule="evenodd"></path><path id="path1" d="M200.041 167.236 C 200.002 168.603,194.637 174.182,180.246 187.822 C 180.001 188.055,179.440 188.389,179.000 188.565 C 178.302 188.845,178.284 188.919,178.858 189.143 C 179.220 189.284,183.786 193.540,189.005 198.600 C 194.224 203.660,198.624 207.890,198.781 208.000 C 198.939 208.110,199.273 208.560,199.522 209.000 C 199.898 209.663,199.978 209.685,199.988 209.129 C 199.995 208.759,200.245 208.219,200.544 207.929 C 215.718 193.189,220.641 188.552,221.341 188.340 C 222.057 188.123,222.077 188.073,221.465 188.040 C 221.060 188.018,218.720 186.039,216.265 183.641 C 213.809 181.244,209.311 176.875,206.268 173.933 C 202.018 169.822,200.661 168.261,200.409 167.192 L 200.082 165.800 200.041 167.236 M228.575 182.900 L 227.400 184.200 228.700 183.025 C 229.415 182.379,230.000 181.794,230.000 181.725 C 230.000 181.416,229.670 181.688,228.575 182.900 M128.400 237.310 C 128.400 237.615,125.835 240.306,122.700 243.290 C 119.565 246.274,114.840 250.802,112.200 253.351 C 109.560 255.901,107.258 257.990,107.084 257.994 C 106.911 257.997,107.811 258.840,109.084 259.868 C 110.358 260.895,112.750 262.839,114.400 264.189 C 117.310 266.569,122.670 270.202,128.000 273.407 C 131.716 275.641,133.200 276.678,133.996 277.595 C 134.380 278.038,134.832 278.400,135.000 278.400 C 135.168 278.400,135.652 278.799,136.076 279.287 C 136.724 280.035,136.904 280.082,137.223 279.587 C 137.679 278.877,138.534 279.849,138.097 280.581 C 137.959 280.811,138.186 280.730,138.600 280.400 C 139.014 280.070,139.248 279.980,139.119 280.200 C 138.990 280.420,139.122 280.820,139.413 281.088 C 139.829 281.473,139.983 281.473,140.139 281.088 C 140.292 280.712,140.344 280.715,140.368 281.100 C 140.386 281.375,140.681 281.600,141.024 281.600 C 141.367 281.600,141.532 281.413,141.390 281.184 C 141.088 280.695,143.183 281.105,143.780 281.652 C 143.989 281.843,144.563 282.000,145.056 282.000 C 145.549 282.000,146.064 282.180,146.200 282.400 C 146.336 282.620,146.797 282.800,147.224 282.800 C 147.651 282.800,148.000 282.980,148.000 283.200 C 148.000 283.420,148.360 283.600,148.800 283.600 C 149.334 283.600,149.600 283.867,149.600 284.403 C 149.600 285.103,149.702 285.143,150.390 284.713 C 151.013 284.324,151.283 284.323,151.670 284.710 C 151.940 284.980,152.501 285.200,152.917 285.200 C 153.333 285.200,155.772 285.840,158.337 286.622 C 166.916 289.239,168.133 289.545,174.900 290.785 C 185.828 292.788,195.950 293.537,207.951 293.232 C 211.025 293.154,212.592 293.264,212.781 293.570 C 213.090 294.069,215.600 294.020,215.600 293.515 C 215.600 293.342,216.680 293.200,218.000 293.200 C 219.508 293.200,220.400 293.033,220.400 292.751 C 220.400 292.441,220.585 292.456,221.000 292.800 C 221.415 293.144,221.600 293.159,221.600 292.849 C 221.600 292.602,221.971 292.400,222.424 292.400 C 222.877 292.400,223.136 292.220,223.000 292.000 C 222.864 291.780,223.123 291.600,223.576 291.600 C 224.029 291.600,224.400 291.780,224.400 292.000 C 224.400 292.754,225.906 292.402,226.116 291.600 C 226.244 291.112,226.662 290.800,227.189 290.800 C 227.664 290.800,228.401 290.613,228.827 290.385 C 229.253 290.157,230.412 289.955,231.401 289.935 C 232.390 289.915,233.200 289.741,233.200 289.549 C 233.200 289.357,233.909 289.200,234.776 289.200 C 235.643 289.200,236.475 289.002,236.625 288.760 C 236.780 288.509,237.394 288.419,238.049 288.550 C 238.930 288.726,239.200 288.631,239.200 288.146 C 239.200 287.657,239.520 287.550,240.600 287.676 C 241.565 287.789,242.000 287.678,242.000 287.320 C 242.000 287.009,242.482 286.800,243.200 286.800 C 243.860 286.800,244.400 286.620,244.400 286.400 C 244.400 286.180,244.760 286.000,245.200 286.000 C 245.640 286.000,246.000 285.820,246.000 285.600 C 246.000 285.380,246.272 285.200,246.605 285.200 C 246.938 285.200,247.523 285.041,247.905 284.847 C 249.034 284.273,250.494 283.688,252.200 283.126 C 253.804 282.599,261.198 278.951,264.200 277.207 C 265.080 276.695,266.520 275.900,267.400 275.438 C 268.280 274.977,269.090 274.510,269.200 274.400 C 269.596 274.004,271.815 272.746,272.500 272.529 C 272.885 272.407,273.200 272.148,273.200 271.953 C 273.200 271.759,273.386 271.600,273.613 271.600 C 274.408 271.600,282.479 265.923,287.680 261.705 L 292.926 257.451 288.128 252.825 C 281.185 246.132,275.224 240.447,273.500 238.875 L 272.000 237.507 269.300 239.781 C 265.357 243.102,265.228 243.200,264.795 243.200 C 264.578 243.200,264.400 243.350,264.400 243.532 C 264.400 243.715,263.905 244.120,263.300 244.432 C 262.695 244.744,262.110 245.114,262.000 245.254 C 261.762 245.558,260.955 246.043,253.889 250.123 C 248.573 253.193,244.446 255.086,244.353 254.498 C 244.327 254.334,244.324 254.071,244.348 253.914 C 244.371 253.757,244.087 253.745,243.715 253.888 C 243.291 254.050,243.219 254.206,243.520 254.307 C 244.358 254.586,244.041 255.144,242.700 255.751 C 240.826 256.601,238.800 256.954,238.800 256.432 C 238.800 256.194,238.620 256.000,238.400 256.000 C 238.180 256.000,238.000 256.360,238.000 256.800 C 238.000 257.387,237.733 257.600,237.000 257.600 C 236.450 257.600,236.000 257.767,236.000 257.971 C 236.000 258.444,233.702 259.600,232.762 259.600 C 232.369 259.600,231.948 259.760,231.827 259.956 C 231.706 260.151,231.021 260.408,230.304 260.527 C 229.587 260.645,228.280 260.914,227.400 261.125 C 224.511 261.816,216.237 263.535,214.400 263.826 C 209.042 264.674,191.011 264.270,191.379 263.311 C 191.550 262.864,191.253 262.764,190.016 262.853 C 189.146 262.916,188.318 262.852,188.177 262.710 C 188.036 262.569,187.468 262.659,186.916 262.911 C 186.104 263.281,185.825 263.252,185.456 262.759 C 184.879 261.990,183.600 261.491,183.600 262.036 C 183.600 262.262,183.417 262.334,183.193 262.196 C 182.970 262.058,182.891 261.777,183.017 261.572 C 183.144 261.368,182.806 261.200,182.266 261.200 C 181.727 261.200,181.182 261.470,181.055 261.800 C 180.808 262.445,178.800 262.647,178.800 262.027 C 178.800 261.821,179.205 261.576,179.700 261.483 C 180.195 261.389,179.578 261.393,178.328 261.492 C 175.847 261.689,173.061 260.939,173.362 260.155 C 173.578 259.591,172.371 259.213,170.324 259.205 C 169.512 259.202,168.736 259.020,168.600 258.800 C 168.464 258.580,167.487 258.400,166.429 258.400 C 164.324 258.400,160.923 257.429,157.424 255.828 C 156.188 255.263,154.912 254.800,154.588 254.800 C 153.872 254.800,153.803 253.746,154.500 253.465 C 154.775 253.354,154.510 253.249,153.912 253.232 C 153.314 253.214,152.234 252.868,151.512 252.461 C 150.790 252.055,149.120 251.130,147.800 250.406 C 139.546 245.877,131.877 240.635,129.300 237.760 C 128.749 237.144,128.400 236.970,128.400 237.310 " stroke="none" fill="#8cc4ec" fill-rule="evenodd"></path><path id="path2" d="M315.300 58.937 C 314.365 59.166,313.600 59.493,313.600 59.664 C 313.600 59.835,313.330 59.871,313.000 59.745 C 312.670 59.618,312.400 59.714,312.400 59.957 C 312.400 60.201,312.158 60.400,311.861 60.400 C 310.999 60.400,308.761 61.637,308.529 62.242 C 308.412 62.546,308.178 62.710,308.010 62.606 C 307.520 62.304,306.003 63.821,305.968 64.647 C 305.950 65.086,305.851 65.188,305.732 64.890 C 305.597 64.556,305.056 64.893,304.163 65.868 C 303.413 66.687,302.800 67.203,302.800 67.016 C 302.800 66.829,302.440 67.002,302.000 67.400 C 301.560 67.798,301.200 68.323,301.200 68.567 C 301.200 68.811,300.810 69.188,300.333 69.405 C 299.856 69.622,299.271 70.149,299.033 70.576 C 298.320 71.856,296.878 73.200,296.218 73.200 C 295.878 73.200,295.600 73.372,295.600 73.582 C 295.600 73.792,294.610 74.978,293.400 76.218 C 292.190 77.457,291.200 78.635,291.200 78.835 C 291.200 79.036,290.917 79.200,290.571 79.200 C 289.763 79.200,288.800 80.163,288.800 80.971 C 288.800 81.339,288.458 81.600,287.976 81.600 C 287.523 81.600,287.264 81.780,287.400 82.000 C 287.536 82.220,287.356 82.400,287.000 82.400 C 286.644 82.400,286.464 82.580,286.600 82.800 C 286.736 83.020,286.644 83.200,286.395 83.200 C 285.738 83.200,284.800 84.241,284.800 84.971 C 284.800 85.326,284.463 85.600,284.027 85.600 C 283.602 85.600,283.140 85.960,283.000 86.400 C 282.860 86.840,282.478 87.200,282.149 87.200 C 281.821 87.200,281.664 87.380,281.800 87.600 C 281.936 87.820,281.844 88.000,281.595 88.000 C 280.985 88.000,279.976 89.042,280.286 89.352 C 280.422 89.489,280.310 89.600,280.038 89.600 C 279.435 89.600,278.400 90.586,278.400 91.161 C 278.400 91.391,277.854 91.862,277.187 92.207 C 276.471 92.577,276.088 93.019,276.253 93.285 C 276.432 93.575,276.307 93.650,275.903 93.495 C 275.322 93.272,274.000 94.282,274.000 94.950 C 274.000 95.408,272.080 97.200,271.590 97.200 C 270.937 97.200,270.000 98.244,270.000 98.971 C 270.000 99.317,269.717 99.600,269.371 99.600 C 268.626 99.600,267.531 100.597,267.886 100.952 C 268.022 101.089,267.910 101.200,267.638 101.200 C 266.944 101.200,266.000 102.221,266.000 102.971 C 266.000 103.317,265.717 103.600,265.371 103.600 C 264.563 103.600,263.600 104.563,263.600 105.371 C 263.600 105.717,263.324 106.000,262.987 106.000 C 262.173 106.000,259.600 108.598,259.600 109.420 C 259.600 109.776,259.375 109.991,259.100 109.899 C 258.825 109.807,258.129 110.236,257.553 110.852 C 256.977 111.468,256.392 111.858,256.253 111.719 C 256.114 111.580,256.000 111.777,256.000 112.157 C 256.000 112.537,255.820 112.736,255.600 112.600 C 255.380 112.464,255.200 112.633,255.200 112.976 C 255.200 113.319,254.958 113.600,254.662 113.600 C 254.366 113.600,253.781 113.991,253.362 114.469 C 252.865 115.035,252.809 115.227,253.200 115.020 C 253.530 114.845,253.014 115.442,252.054 116.347 C 251.094 117.251,250.149 117.892,249.954 117.772 C 249.759 117.651,249.600 117.844,249.600 118.200 C 249.600 118.556,249.420 118.736,249.200 118.600 C 248.980 118.464,248.800 118.723,248.800 119.176 C 248.800 119.629,248.643 120.000,248.451 120.000 C 247.890 120.000,244.800 122.970,244.800 123.509 C 244.800 123.779,244.526 124.000,244.191 124.000 C 243.857 124.000,243.380 124.444,243.133 124.987 C 242.885 125.531,242.556 125.897,242.402 125.801 C 242.247 125.706,241.761 126.026,241.322 126.514 C 240.883 127.001,240.136 127.665,239.662 127.988 C 239.188 128.312,238.800 128.897,238.800 129.288 C 238.800 129.920,238.580 130.066,237.770 129.974 C 237.643 129.959,237.236 130.274,236.864 130.674 C 236.493 131.073,235.831 131.598,235.394 131.839 C 234.957 132.081,234.411 132.651,234.179 133.107 C 233.948 133.562,233.156 134.534,232.420 135.267 C 231.683 136.000,231.232 136.330,231.417 136.000 C 231.709 135.480,231.662 135.474,231.067 135.957 C 230.690 136.263,230.466 136.600,230.571 136.705 C 230.797 136.930,230.078 137.625,228.983 138.239 C 228.552 138.481,228.004 139.065,227.764 139.537 C 227.191 140.666,225.970 142.000,225.509 142.000 C 225.006 142.000,224.000 143.047,224.000 143.571 C 224.000 143.807,223.640 144.000,223.200 144.000 C 222.720 144.000,222.400 144.267,222.400 144.667 C 222.400 145.033,222.290 145.223,222.156 145.089 C 221.862 144.795,220.000 146.928,220.000 147.558 C 220.000 147.801,219.717 148.000,219.371 148.000 C 219.026 148.000,218.486 148.257,218.171 148.571 C 217.857 148.886,217.600 149.426,217.600 149.771 C 217.600 150.117,217.324 150.400,216.987 150.400 C 216.191 150.400,213.600 152.991,213.600 153.787 C 213.600 154.124,213.421 154.400,213.203 154.400 C 212.985 154.400,212.340 154.805,211.771 155.300 C 211.202 155.795,210.654 156.149,210.554 156.086 C 210.344 155.954,209.200 157.033,209.200 157.363 C 209.200 157.665,204.842 162.000,204.538 162.000 C 204.194 162.000,202.800 163.653,202.800 164.061 C 202.800 164.248,202.558 164.400,202.262 164.400 C 201.378 164.400,200.400 165.782,200.400 167.030 C 200.400 168.006,201.336 169.107,206.100 173.741 C 209.235 176.791,213.690 181.128,216.000 183.381 C 221.366 188.613,222.305 189.115,223.786 187.546 C 224.381 186.916,225.045 186.400,225.262 186.400 C 225.871 186.400,226.800 185.330,226.800 184.629 C 226.800 184.063,227.265 183.821,228.100 183.953 C 228.265 183.979,228.355 183.775,228.300 183.500 C 228.245 183.225,228.425 183.045,228.700 183.100 C 228.975 183.155,229.155 182.982,229.100 182.715 C 229.045 182.448,229.405 182.045,229.900 181.820 C 230.395 181.595,230.800 181.093,230.800 180.705 C 230.800 180.317,231.078 180.000,231.418 180.000 C 232.173 180.000,234.259 178.004,233.518 177.991 C 233.233 177.986,233.596 177.688,234.324 177.329 C 235.283 176.857,235.504 176.585,235.124 176.345 C 234.752 176.109,234.852 176.010,235.466 176.006 C 236.041 176.002,236.512 175.596,236.864 174.799 C 237.157 174.139,237.577 173.662,237.798 173.738 C 238.019 173.815,238.564 173.491,239.009 173.017 C 239.454 172.543,240.133 172.035,240.518 171.887 C 240.903 171.739,241.340 171.300,241.490 170.910 C 241.803 170.093,243.097 168.795,244.224 168.167 C 244.651 167.929,245.178 167.344,245.395 166.867 C 245.612 166.390,246.030 166.000,246.323 166.000 C 246.972 166.000,248.000 165.025,248.000 164.410 C 248.000 163.735,249.875 162.000,250.605 162.000 C 250.958 162.000,251.136 161.820,251.000 161.600 C 250.864 161.380,251.033 161.200,251.376 161.200 C 251.733 161.200,252.000 160.858,252.000 160.400 C 252.000 159.939,252.267 159.600,252.629 159.600 C 252.974 159.600,253.527 159.330,253.857 159.000 C 254.187 158.670,254.368 158.400,254.259 158.400 C 254.001 158.400,256.149 156.252,256.631 156.029 C 257.357 155.691,258.000 154.846,258.000 154.229 C 258.000 153.883,258.235 153.600,258.522 153.600 C 259.297 153.600,262.000 150.993,262.000 150.246 C 262.000 149.891,262.320 149.600,262.712 149.600 C 263.103 149.600,263.683 149.240,264.000 148.800 C 264.317 148.360,264.907 148.000,265.312 148.000 C 265.716 148.000,265.936 147.820,265.800 147.600 C 265.664 147.380,265.833 147.200,266.176 147.200 C 266.519 147.200,266.779 147.065,266.753 146.900 C 266.613 146.016,266.884 145.600,267.600 145.600 C 268.058 145.600,268.400 145.333,268.400 144.976 C 268.400 144.633,268.580 144.464,268.800 144.600 C 269.020 144.736,269.200 144.556,269.200 144.200 C 269.200 143.844,269.380 143.664,269.600 143.800 C 269.820 143.936,270.000 143.767,270.000 143.424 C 270.000 143.081,270.180 142.800,270.400 142.800 C 270.620 142.800,270.800 142.530,270.800 142.200 C 270.800 141.870,271.042 141.600,271.338 141.600 C 272.022 141.600,273.290 140.223,272.934 139.868 C 272.787 139.720,272.922 139.596,273.233 139.591 C 274.051 139.577,276.800 136.995,276.800 136.239 C 276.800 135.888,277.025 135.594,277.300 135.587 C 277.944 135.571,280.000 133.768,280.000 133.219 C 280.000 132.989,280.161 132.800,280.358 132.800 C 280.992 132.800,283.200 130.500,283.200 129.840 C 283.200 129.488,283.520 129.200,283.912 129.200 C 284.303 129.200,284.883 128.840,285.200 128.400 C 285.517 127.960,286.017 127.600,286.312 127.600 C 286.606 127.600,286.736 127.420,286.600 127.200 C 286.464 126.980,286.663 126.800,287.043 126.800 C 287.423 126.800,287.625 126.692,287.493 126.560 C 287.252 126.319,289.719 123.643,290.293 123.522 C 290.791 123.417,291.600 122.492,291.600 122.029 C 291.600 121.793,291.883 121.600,292.229 121.600 C 292.956 121.600,294.000 120.663,294.000 120.010 C 294.000 119.346,295.870 117.600,296.582 117.600 C 296.922 117.600,297.200 117.319,297.200 116.976 C 297.200 116.633,297.380 116.464,297.600 116.600 C 297.820 116.736,298.000 116.477,298.000 116.024 C 298.000 115.550,298.261 115.200,298.613 115.200 C 299.409 115.200,302.000 112.609,302.000 111.813 C 302.000 111.476,302.315 111.198,302.700 111.196 C 303.085 111.194,303.825 110.654,304.345 109.996 C 304.865 109.338,305.570 108.800,305.912 108.800 C 306.254 108.800,306.414 108.681,306.269 108.536 C 306.124 108.391,306.375 108.012,306.828 107.696 C 307.280 107.379,307.815 106.687,308.015 106.160 C 308.216 105.632,308.615 105.200,308.902 105.200 C 309.189 105.200,309.683 104.840,310.000 104.400 C 310.317 103.960,310.820 103.600,311.117 103.600 C 311.774 103.600,312.800 102.627,312.800 102.005 C 312.800 101.756,312.980 101.664,313.200 101.800 C 313.420 101.936,313.600 102.577,313.600 103.224 C 313.600 103.871,313.780 104.400,314.000 104.400 C 314.220 104.400,314.400 105.030,314.400 105.800 C 314.400 106.570,314.580 107.200,314.800 107.200 C 315.024 107.200,315.200 108.307,315.200 109.720 C 315.200 111.106,315.386 112.426,315.613 112.653 C 315.841 112.881,316.041 113.952,316.059 115.033 C 316.077 116.115,316.296 117.260,316.546 117.577 C 316.910 118.040,316.882 118.084,316.400 117.800 C 315.909 117.511,315.887 117.554,316.279 118.039 C 316.543 118.365,316.813 119.749,316.879 121.114 C 316.946 122.478,317.135 123.596,317.300 123.598 C 317.681 123.601,317.698 147.769,317.317 148.150 C 317.161 148.305,316.982 149.730,316.919 151.316 C 316.856 152.901,316.623 154.259,316.402 154.333 C 316.181 154.406,316.000 155.611,316.000 157.010 C 316.000 158.408,315.820 159.664,315.600 159.800 C 315.380 159.936,315.200 160.637,315.200 161.357 C 315.200 162.077,315.090 162.777,314.956 162.911 C 314.821 163.046,314.637 164.106,314.546 165.267 C 314.455 166.429,314.205 167.555,313.991 167.769 C 313.776 167.984,313.600 168.743,313.600 169.456 C 313.600 170.169,313.420 170.864,313.200 171.000 C 312.980 171.136,312.800 171.777,312.800 172.424 C 312.800 173.071,312.659 173.600,312.487 173.600 C 312.315 173.600,312.137 174.056,312.091 174.613 C 312.044 175.171,311.698 176.206,311.320 176.913 C 310.943 177.621,310.620 178.290,310.603 178.400 C 310.586 178.510,310.374 178.960,310.133 179.400 C 309.760 180.080,309.097 182.390,309.023 183.267 C 309.010 183.413,308.865 183.668,308.700 183.833 C 308.535 183.998,308.400 184.463,308.400 184.867 C 308.400 185.270,308.220 185.600,308.000 185.600 C 307.780 185.600,307.600 185.960,307.600 186.400 C 307.600 186.840,307.420 187.200,307.200 187.200 C 306.980 187.200,306.800 187.614,306.800 188.120 C 306.800 189.174,305.947 191.192,305.500 191.197 C 305.335 191.199,305.200 191.560,305.200 192.000 C 305.200 192.440,305.065 192.801,304.900 192.801 C 304.735 192.802,304.150 193.792,303.600 195.000 C 303.050 196.208,302.454 197.198,302.276 197.199 C 302.098 197.199,302.055 197.365,302.180 197.568 C 302.305 197.770,302.136 198.207,301.804 198.539 C 301.472 198.871,301.200 199.482,301.200 199.896 C 301.200 200.310,300.840 201.036,300.400 201.508 C 299.960 201.980,299.600 202.604,299.600 202.895 C 299.600 203.186,299.240 203.683,298.800 204.000 C 298.360 204.317,298.000 204.857,298.000 205.200 C 298.000 205.543,297.650 206.076,297.221 206.385 C 296.793 206.693,296.525 207.078,296.625 207.241 C 296.725 207.403,296.581 207.775,296.304 208.068 C 296.027 208.360,295.530 209.125,295.200 209.767 C 294.870 210.408,294.150 211.409,293.600 211.990 C 291.965 213.717,291.200 214.778,291.200 215.316 C 291.200 215.595,290.840 216.083,290.400 216.400 C 289.960 216.717,289.600 217.215,289.600 217.506 C 289.600 218.081,288.205 219.543,287.003 220.227 C 286.591 220.461,286.061 220.992,285.827 221.405 C 285.592 221.818,285.085 222.515,284.700 222.954 C 284.315 223.392,284.000 223.987,284.000 224.275 C 284.000 224.564,283.717 224.800,283.371 224.800 C 282.754 224.800,281.816 225.513,281.667 226.096 C 281.531 226.630,275.208 232.675,275.001 232.468 C 274.891 232.357,274.800 232.577,274.800 232.957 C 274.800 233.337,274.620 233.536,274.400 233.400 C 274.180 233.264,274.000 233.523,274.000 233.976 C 274.000 234.518,273.741 234.800,273.243 234.800 C 272.469 234.800,272.000 235.534,272.000 236.745 C 272.000 237.263,278.646 243.965,283.757 248.601 C 284.001 248.822,286.180 250.911,288.600 253.244 C 293.254 257.730,295.600 259.030,295.600 257.123 C 295.600 256.652,295.723 256.389,295.872 256.539 C 296.022 256.689,296.652 256.325,297.272 255.731 C 297.893 255.137,298.400 254.787,298.400 254.954 C 298.400 255.121,298.670 254.987,299.000 254.657 C 299.330 254.327,299.600 253.774,299.600 253.429 C 299.600 252.887,300.127 252.587,300.529 252.900 C 300.764 253.083,302.000 251.664,302.000 251.210 C 302.000 250.694,303.803 248.800,304.294 248.800 C 304.475 248.800,304.888 248.418,305.212 247.951 C 305.535 247.484,306.038 246.854,306.329 246.551 C 306.619 246.248,306.709 245.995,306.529 245.988 C 306.348 245.981,306.515 245.792,306.900 245.568 C 307.285 245.344,307.600 244.899,307.600 244.580 C 307.600 244.261,307.793 244.000,308.029 244.000 C 308.595 244.000,309.600 242.977,309.600 242.400 C 309.600 241.786,310.641 240.774,310.952 241.086 C 311.089 241.222,311.200 240.943,311.200 240.467 C 311.200 239.932,311.450 239.600,311.853 239.600 C 312.628 239.600,314.077 238.048,313.768 237.548 C 313.650 237.357,313.863 237.200,314.243 237.200 C 314.623 237.200,314.816 237.082,314.672 236.938 C 314.528 236.795,314.948 236.163,315.605 235.535 C 316.262 234.907,316.800 234.164,316.800 233.885 C 316.800 233.605,317.160 233.117,317.600 232.800 C 318.040 232.483,318.400 231.903,318.400 231.512 C 318.400 231.120,318.580 230.800,318.800 230.800 C 319.020 230.800,319.200 230.440,319.200 230.000 C 319.200 229.560,319.380 229.200,319.600 229.200 C 319.820 229.200,320.000 228.883,320.000 228.495 C 320.000 228.107,320.390 227.612,320.867 227.395 C 321.344 227.178,321.929 226.650,322.167 226.222 C 322.405 225.794,322.909 225.092,323.286 224.661 C 323.664 224.231,323.898 223.759,323.808 223.612 C 323.717 223.466,323.993 223.093,324.421 222.785 C 324.850 222.476,325.200 221.943,325.200 221.600 C 325.200 221.257,325.560 220.717,326.000 220.400 C 326.440 220.083,326.800 219.403,326.800 218.888 C 326.800 218.366,326.977 218.062,327.200 218.200 C 327.420 218.336,327.600 218.184,327.600 217.861 C 327.600 217.178,329.260 213.862,329.700 213.667 C 329.865 213.593,330.000 213.188,330.000 212.767 C 330.000 212.345,330.180 212.000,330.400 212.000 C 330.620 212.000,330.800 211.640,330.800 211.200 C 330.800 210.760,330.980 210.400,331.200 210.400 C 331.420 210.400,331.600 210.040,331.600 209.600 C 331.600 209.160,331.780 208.800,332.000 208.800 C 332.220 208.800,332.400 208.249,332.400 207.576 C 332.400 206.863,332.567 206.456,332.800 206.600 C 333.020 206.736,333.200 206.516,333.200 206.112 C 333.200 205.707,333.560 205.117,334.000 204.800 C 334.440 204.483,334.800 203.903,334.800 203.512 C 334.800 203.120,334.980 202.800,335.200 202.800 C 335.420 202.800,335.600 202.440,335.600 202.000 C 335.600 201.560,335.780 201.200,336.000 201.200 C 336.220 201.200,336.400 200.748,336.400 200.195 C 336.400 199.199,337.090 197.627,337.734 197.155 C 337.918 197.021,338.053 196.796,338.034 196.655 C 337.891 195.587,338.067 194.794,338.400 195.000 C 338.624 195.138,338.800 194.826,338.800 194.290 C 338.800 193.764,338.927 193.207,339.082 193.052 C 339.237 192.897,339.428 192.282,339.506 191.685 C 339.585 191.088,339.818 190.429,340.025 190.220 C 340.231 190.011,340.400 189.347,340.400 188.744 C 340.400 188.141,340.583 187.534,340.807 187.396 C 341.030 187.258,341.109 186.977,340.983 186.772 C 340.856 186.568,340.943 186.400,341.176 186.400 C 341.409 186.400,341.600 185.939,341.600 185.376 C 341.600 184.796,341.773 184.460,342.000 184.600 C 342.233 184.744,342.400 184.345,342.400 183.647 C 342.400 182.987,342.580 182.336,342.800 182.200 C 343.020 182.064,343.200 181.333,343.200 180.576 C 343.200 179.819,343.380 179.200,343.600 179.200 C 343.820 179.200,344.000 178.491,344.000 177.624 C 344.000 176.757,344.180 175.936,344.400 175.800 C 344.620 175.664,344.800 175.113,344.800 174.576 C 344.800 174.039,344.980 173.600,345.200 173.600 C 345.420 173.600,345.600 172.779,345.600 171.776 C 345.600 170.663,345.756 170.049,346.000 170.200 C 346.252 170.356,346.400 169.396,346.400 167.600 C 346.400 166.034,346.544 164.842,346.720 164.951 C 346.896 165.059,347.085 164.485,347.139 163.675 C 347.194 162.865,347.410 162.030,347.619 161.821 C 347.829 161.611,348.000 160.306,348.000 158.920 C 348.000 157.507,348.176 156.400,348.400 156.400 C 348.633 156.400,348.800 155.075,348.800 153.224 C 348.800 151.477,348.963 149.946,349.163 149.823 C 349.639 149.529,349.667 122.689,349.192 122.395 C 348.995 122.273,348.800 120.869,348.760 119.275 C 348.720 117.682,348.532 116.282,348.344 116.165 C 348.155 116.048,348.000 114.793,348.000 113.376 C 348.000 111.925,347.825 110.800,347.600 110.800 C 347.380 110.800,347.200 110.206,347.200 109.480 C 347.200 108.754,347.030 107.989,346.823 107.780 C 346.616 107.571,346.407 106.185,346.360 104.700 C 346.313 103.215,346.122 102.000,345.937 102.000 C 345.752 102.000,345.600 101.381,345.600 100.624 C 345.600 99.867,345.420 99.136,345.200 99.000 C 344.980 98.864,344.800 98.043,344.800 97.176 C 344.800 96.309,344.620 95.600,344.400 95.600 C 344.180 95.600,344.000 95.161,344.000 94.624 C 344.000 94.087,343.820 93.536,343.600 93.400 C 343.380 93.264,343.200 92.533,343.200 91.776 C 343.200 91.019,343.020 90.400,342.800 90.400 C 342.580 90.400,342.400 90.040,342.400 89.600 C 342.400 89.160,342.220 88.800,342.000 88.800 C 341.780 88.800,341.600 88.551,341.600 88.246 C 341.600 87.704,340.752 84.591,339.954 82.200 C 339.733 81.540,339.489 80.730,339.412 80.400 C 339.114 79.130,338.431 77.666,338.018 77.411 C 337.781 77.265,337.683 76.990,337.800 76.800 C 337.917 76.610,337.830 76.342,337.607 76.204 C 337.383 76.066,337.200 75.528,337.200 75.010 C 337.200 74.491,337.065 74.007,336.900 73.933 C 336.460 73.738,334.800 70.422,334.800 69.739 C 334.800 69.416,334.620 69.264,334.400 69.400 C 334.180 69.536,334.000 69.297,334.000 68.869 C 334.000 67.848,333.094 66.133,332.032 65.144 C 331.565 64.708,331.257 64.228,331.349 64.076 C 331.441 63.924,331.265 63.568,330.958 63.284 C 330.651 63.001,330.394 62.911,330.387 63.084 C 330.380 63.258,330.110 63.051,329.787 62.624 C 329.464 62.196,329.200 61.998,329.200 62.182 C 329.200 62.366,328.759 62.041,328.219 61.458 C 327.680 60.876,326.970 60.400,326.643 60.400 C 326.315 60.400,325.928 60.208,325.783 59.973 C 325.638 59.738,325.279 59.638,324.985 59.750 C 324.692 59.863,324.395 59.788,324.326 59.584 C 324.257 59.381,323.525 59.166,322.701 59.107 C 321.876 59.048,321.201 58.865,321.201 58.700 C 321.200 58.280,317.345 58.435,315.300 58.937 M175.297 190.213 C 174.584 190.991,174.000 191.801,174.000 192.013 C 174.000 192.226,173.739 192.400,173.420 192.400 C 173.101 192.400,172.656 192.715,172.432 193.100 C 172.208 193.485,172.019 193.652,172.012 193.471 C 172.005 193.291,171.752 193.381,171.449 193.671 C 171.146 193.962,170.516 194.465,170.049 194.788 C 169.582 195.112,169.200 195.657,169.200 196.000 C 169.200 196.343,168.840 196.883,168.400 197.200 C 167.960 197.517,167.600 198.007,167.600 198.288 C 167.600 198.570,167.306 198.800,166.947 198.800 C 166.588 198.800,166.000 199.115,165.641 199.500 C 165.282 199.885,164.643 200.392,164.221 200.627 C 163.799 200.861,163.261 201.399,163.027 201.821 C 162.792 202.242,161.750 203.380,160.710 204.349 C 159.671 205.317,158.917 206.265,159.034 206.455 C 159.151 206.645,158.996 206.800,158.690 206.800 C 158.383 206.800,157.673 207.295,157.112 207.900 C 156.078 209.014,153.778 210.889,153.145 211.133 C 152.955 211.207,152.800 211.612,152.800 212.033 C 152.800 212.678,152.283 213.057,151.890 212.700 C 151.671 212.500,150.478 213.810,150.538 214.185 C 150.572 214.397,150.195 214.755,149.700 214.980 C 149.205 215.205,148.800 215.567,148.800 215.783 C 148.800 216.229,146.373 218.398,145.871 218.399 C 145.419 218.400,144.622 219.238,144.043 220.319 C 143.777 220.816,143.389 221.117,143.180 220.988 C 142.971 220.858,142.800 221.044,142.800 221.400 C 142.800 221.756,142.620 221.936,142.400 221.800 C 142.180 221.664,142.000 221.842,142.000 222.195 C 142.000 222.866,140.287 224.800,139.692 224.800 C 139.502 224.800,138.800 225.385,138.130 226.100 C 137.461 226.815,136.258 227.938,135.457 228.596 C 134.656 229.254,134.000 229.976,134.000 230.201 C 134.000 230.426,133.595 230.788,133.100 231.005 C 132.605 231.222,132.022 231.805,131.805 232.300 C 131.588 232.795,131.170 233.200,130.877 233.200 C 130.204 233.200,129.154 234.221,129.486 234.552 C 129.622 234.689,129.433 234.800,129.067 234.800 C 128.085 234.800,128.223 236.558,129.300 237.760 C 131.877 240.635,139.546 245.877,147.800 250.406 C 149.120 251.130,150.740 252.026,151.400 252.396 C 153.491 253.569,155.738 253.724,156.418 252.743 C 157.387 251.344,158.045 250.781,158.432 251.020 C 158.635 251.145,158.800 250.956,158.800 250.600 C 158.800 250.244,158.980 250.064,159.200 250.200 C 159.420 250.336,159.600 250.077,159.600 249.624 C 159.600 249.142,159.861 248.800,160.229 248.800 C 160.956 248.800,162.000 247.863,162.000 247.210 C 162.000 246.611,163.543 245.133,164.900 244.432 C 165.505 244.120,166.000 243.535,166.000 243.132 C 166.000 242.697,166.289 242.400,166.712 242.400 C 167.103 242.400,167.683 242.040,168.000 241.600 C 168.317 241.160,168.784 240.800,169.037 240.800 C 169.486 240.800,172.000 238.111,172.000 237.630 C 172.000 237.498,172.405 237.212,172.900 236.995 C 173.395 236.778,173.965 236.225,174.166 235.766 C 174.368 235.308,174.893 234.768,175.334 234.566 C 175.774 234.365,176.329 233.851,176.567 233.424 C 177.203 232.282,178.697 230.800,179.210 230.800 C 179.863 230.800,180.800 229.756,180.800 229.029 C 180.800 228.683,181.083 228.400,181.429 228.400 C 182.174 228.400,183.269 227.403,182.914 227.048 C 182.778 226.911,182.890 226.800,183.162 226.800 C 183.770 226.800,184.555 226.036,184.910 225.100 C 185.056 224.715,185.461 224.400,185.811 224.400 C 186.161 224.400,186.336 224.220,186.200 224.000 C 186.064 223.780,186.233 223.600,186.576 223.600 C 186.919 223.600,187.200 223.330,187.200 223.000 C 187.200 222.670,187.358 222.400,187.551 222.400 C 188.210 222.400,191.267 219.232,191.010 218.815 C 190.868 218.587,191.057 218.400,191.430 218.400 C 191.802 218.400,192.533 217.905,193.053 217.300 C 193.573 216.695,193.999 216.363,194.000 216.562 C 194.000 216.761,194.360 216.598,194.800 216.200 C 195.240 215.802,195.600 215.235,195.600 214.941 C 195.600 214.647,195.960 214.182,196.400 213.907 C 196.840 213.632,197.200 213.091,197.200 212.704 C 197.200 212.317,197.483 212.000,197.829 212.000 C 199.368 212.000,200.219 209.465,199.062 208.329 C 190.789 200.199,179.355 189.333,178.858 189.128 C 177.485 188.561,176.553 188.845,175.297 190.213 M105.500 258.311 C 104.895 258.389,104.400 258.621,104.400 258.827 C 104.400 259.032,104.117 259.200,103.771 259.200 C 103.053 259.200,102.000 260.134,102.000 260.771 C 102.000 261.007,101.820 261.200,101.600 261.200 C 101.380 261.200,101.200 261.448,101.200 261.751 C 101.200 262.055,100.694 262.512,100.076 262.768 C 99.458 263.024,98.631 263.779,98.237 264.445 C 97.844 265.111,97.423 265.556,97.302 265.435 C 97.081 265.214,96.625 265.688,94.855 267.978 C 94.335 268.650,93.737 269.200,93.526 269.200 C 92.964 269.200,92.000 270.259,92.000 270.877 C 92.000 271.170,91.595 271.595,91.100 271.820 C 90.605 272.045,90.249 272.461,90.310 272.744 C 90.370 273.028,90.246 273.152,90.034 273.021 C 89.822 272.890,89.142 273.416,88.524 274.191 C 87.906 274.966,87.252 275.600,87.071 275.600 C 86.599 275.600,85.600 276.667,85.600 277.171 C 85.600 277.407,85.375 277.604,85.100 277.609 C 84.332 277.624,81.600 280.239,81.600 280.961 C 81.600 281.312,81.358 281.600,81.062 281.600 C 80.766 281.600,80.198 281.960,79.800 282.400 C 79.402 282.840,78.838 283.200,78.547 283.200 C 78.256 283.200,77.699 283.695,77.309 284.300 C 76.276 285.903,75.108 287.200,74.699 287.200 C 74.123 287.200,73.200 288.291,73.200 288.971 C 73.200 289.317,72.917 289.600,72.571 289.600 C 71.839 289.600,70.800 290.538,70.800 291.200 C 70.800 291.451,70.530 291.927,70.200 292.257 C 69.870 292.587,69.600 292.720,69.600 292.552 C 69.600 292.384,69.336 292.596,69.013 293.024 C 68.690 293.451,68.420 293.637,68.413 293.438 C 68.392 292.862,66.800 294.465,66.800 295.062 C 66.800 295.358,66.485 295.602,66.100 295.604 C 65.715 295.606,64.953 296.173,64.407 296.864 C 63.860 297.556,62.735 298.786,61.907 299.598 C 61.078 300.411,60.400 301.283,60.400 301.538 C 60.400 301.792,60.170 302.000,59.888 302.000 C 59.607 302.000,59.117 302.360,58.800 302.800 C 58.483 303.240,57.980 303.600,57.683 303.600 C 57.029 303.600,56.000 304.572,56.000 305.190 C 56.000 305.769,54.169 307.600,53.590 307.600 C 53.021 307.600,52.000 308.609,52.000 309.171 C 52.000 309.407,51.843 309.600,51.652 309.600 C 51.101 309.600,48.000 312.447,48.000 312.953 C 48.000 313.205,47.595 313.588,47.100 313.805 C 46.605 314.022,46.022 314.605,45.805 315.100 C 45.588 315.595,45.279 316.000,45.119 316.000 C 44.491 316.000,42.000 318.634,42.000 319.297 C 42.000 319.684,41.727 320.000,41.393 320.000 C 40.747 320.000,38.000 322.619,38.000 323.234 C 38.000 323.435,37.848 323.600,37.661 323.600 C 37.129 323.600,35.600 325.044,35.600 325.547 C 35.600 325.796,35.355 326.000,35.055 326.000 C 34.755 326.000,34.035 326.475,33.455 327.055 C 32.875 327.635,32.400 327.967,32.400 327.793 C 32.400 327.618,32.040 327.802,31.600 328.200 C 31.160 328.598,30.800 329.165,30.800 329.459 C 30.800 329.753,30.440 330.218,30.000 330.493 C 29.560 330.768,29.200 331.269,29.200 331.608 C 29.200 331.946,28.840 332.483,28.400 332.800 C 27.960 333.117,27.600 333.601,27.600 333.876 C 27.600 334.151,27.240 335.017,26.800 335.800 C 26.360 336.583,26.000 337.603,26.000 338.066 C 26.000 338.529,25.791 339.604,25.536 340.455 C 25.060 342.045,25.498 345.267,26.510 347.600 C 27.100 348.963,27.071 348.889,27.400 349.900 C 27.562 350.395,27.852 350.800,28.047 350.800 C 28.241 350.800,28.400 351.070,28.400 351.400 C 28.400 351.730,28.580 352.000,28.800 352.000 C 29.020 352.000,29.200 352.242,29.200 352.538 C 29.200 353.212,30.574 354.492,30.923 354.144 C 31.065 354.002,31.295 354.181,31.433 354.543 C 31.572 354.904,31.936 355.200,32.243 355.200 C 32.549 355.200,32.800 355.410,32.800 355.667 C 32.800 355.923,32.920 356.013,33.068 355.866 C 33.215 355.719,33.620 355.853,33.968 356.165 C 37.171 359.038,48.033 357.928,50.674 354.458 C 50.949 354.096,51.180 353.963,51.187 354.162 C 51.205 354.679,52.800 353.167,52.800 352.633 C 52.800 352.389,53.205 352.012,53.700 351.795 C 54.195 351.578,54.778 350.995,54.995 350.500 C 55.212 350.005,55.588 349.600,55.831 349.600 C 56.465 349.600,58.800 346.935,58.800 346.211 C 58.800 345.875,59.120 345.600,59.512 345.600 C 59.903 345.600,60.483 345.240,60.800 344.800 C 61.117 344.360,61.620 344.000,61.917 344.000 C 62.613 344.000,63.600 343.013,63.600 342.317 C 63.600 342.020,63.960 341.517,64.400 341.200 C 64.840 340.883,65.200 340.393,65.200 340.112 C 65.200 339.830,65.483 339.600,65.829 339.600 C 66.559 339.600,67.600 338.662,67.600 338.005 C 67.600 337.756,67.791 337.671,68.025 337.816 C 68.539 338.133,70.000 336.892,70.000 336.138 C 70.000 335.842,70.226 335.600,70.503 335.600 C 71.079 335.600,73.600 332.975,73.600 332.374 C 73.600 332.154,73.915 331.858,74.300 331.715 C 75.083 331.425,76.400 330.060,76.400 329.539 C 76.400 329.352,76.565 329.200,76.766 329.200 C 77.381 329.200,80.000 326.453,80.000 325.807 C 80.000 325.473,80.268 325.200,80.595 325.200 C 81.595 325.200,85.600 321.674,85.600 320.793 C 85.600 320.503,85.713 320.380,85.851 320.518 C 86.122 320.789,90.800 316.408,90.800 315.882 C 90.800 315.400,92.701 313.600,93.210 313.600 C 93.863 313.600,94.800 312.556,94.800 311.829 C 94.800 311.483,95.076 311.200,95.413 311.200 C 96.099 311.200,98.800 308.658,98.800 308.013 C 98.800 307.786,98.952 307.600,99.139 307.600 C 99.612 307.600,101.199 306.182,101.205 305.753 C 101.208 305.559,101.823 305.003,102.572 304.518 C 103.321 304.033,104.257 303.088,104.653 302.418 C 105.049 301.748,105.650 301.200,105.990 301.200 C 106.330 301.200,106.832 300.840,107.107 300.400 C 107.382 299.960,107.798 299.600,108.032 299.600 C 108.591 299.600,109.600 298.577,109.600 298.010 C 109.600 297.431,111.431 295.600,112.010 295.600 C 112.663 295.600,113.600 294.556,113.600 293.829 C 113.600 293.483,113.883 293.200,114.229 293.200 C 114.947 293.200,116.000 292.266,116.000 291.629 C 116.000 291.393,116.180 291.200,116.400 291.200 C 116.954 291.200,120.000 288.194,120.000 287.647 C 120.000 287.401,120.179 287.200,120.397 287.200 C 120.968 287.200,122.805 285.532,122.600 285.200 C 122.505 285.046,122.865 284.686,123.400 284.400 C 123.935 284.114,124.278 283.727,124.163 283.540 C 124.047 283.353,124.156 283.200,124.405 283.200 C 125.062 283.200,126.000 282.159,126.000 281.429 C 126.000 281.083,126.294 280.800,126.653 280.800 C 127.012 280.800,127.600 280.485,127.959 280.100 C 128.318 279.715,128.969 279.205,129.406 278.967 C 129.843 278.729,130.378 278.144,130.595 277.667 C 130.812 277.190,131.228 276.800,131.518 276.800 C 131.809 276.800,131.936 276.980,131.800 277.200 C 131.664 277.420,131.887 277.600,132.296 277.600 C 132.705 277.600,133.253 277.813,133.513 278.073 C 133.774 278.334,134.101 278.432,134.241 278.292 C 134.736 277.797,132.883 276.345,128.000 273.404 C 122.125 269.865,116.350 265.844,112.200 262.403 C 107.167 258.229,106.987 258.120,105.500 258.311 M178.400 260.800 C 178.400 261.020,178.985 261.187,179.700 261.172 C 180.789 261.148,180.870 261.088,180.200 260.800 C 179.095 260.325,178.400 260.325,178.400 260.800 M189.000 262.400 C 189.136 262.620,189.787 262.800,190.447 262.800 C 191.145 262.800,191.544 262.633,191.400 262.400 C 191.264 262.180,190.613 262.000,189.953 262.000 C 189.255 262.000,188.856 262.167,189.000 262.400 M221.600 292.800 C 221.600 293.020,222.050 293.200,222.600 293.200 C 223.150 293.200,223.600 293.020,223.600 292.800 C 223.600 292.580,223.150 292.400,222.600 292.400 C 222.050 292.400,221.600 292.580,221.600 292.800 M215.600 293.600 C 215.600 293.820,216.230 294.000,217.000 294.000 C 217.770 294.000,218.400 293.820,218.400 293.600 C 218.400 293.380,217.770 293.200,217.000 293.200 C 216.230 293.200,215.600 293.380,215.600 293.600 M209.600 294.400 C 209.600 294.620,210.129 294.800,210.776 294.800 C 211.423 294.800,212.064 294.620,212.200 294.400 C 212.347 294.162,211.871 294.000,211.024 294.000 C 210.241 294.000,209.600 294.180,209.600 294.400 " stroke="none" fill="#64d4fb" fill-rule="evenodd"></path><path id="path3" d="M196.000 171.957 C 193.910 174.023,189.545 178.331,186.300 181.529 C 183.055 184.727,180.400 187.428,180.400 187.530 C 180.400 187.739,181.358 186.824,192.400 176.074 C 196.690 171.897,200.110 168.417,200.000 168.340 C 199.890 168.263,198.090 169.891,196.000 171.957 M214.828 194.073 C 211.653 197.179,209.351 199.555,209.712 199.353 C 210.503 198.911,221.210 188.395,220.851 188.413 C 220.713 188.420,218.002 190.967,214.828 194.073 M208.152 200.515 C 207.905 200.782,205.970 202.690,203.852 204.756 C 201.733 206.822,200.000 208.607,200.000 208.724 C 200.000 208.840,201.387 207.600,203.082 205.968 C 204.776 204.335,206.868 202.325,207.730 201.500 C 208.591 200.675,209.140 200.007,208.948 200.015 C 208.757 200.024,208.398 200.249,208.152 200.515 M271.654 236.453 C 271.619 237.129,271.136 237.860,270.300 238.500 C 268.270 240.052,265.540 242.663,267.000 241.655 C 270.154 239.478,272.083 237.404,271.895 236.394 L 271.709 235.400 271.654 236.453 M125.766 239.782 C 124.427 241.112,121.457 243.982,119.166 246.159 C 112.185 252.794,106.853 258.049,107.233 257.921 C 107.431 257.855,110.879 254.631,114.896 250.758 C 118.913 246.884,123.640 242.357,125.400 240.698 C 127.160 239.039,128.510 237.609,128.400 237.522 C 128.290 237.435,127.105 238.451,125.766 239.782 M263.256 244.034 C 262.736 244.455,262.466 244.794,262.656 244.787 C 263.144 244.769,264.576 243.643,264.371 243.439 C 264.277 243.345,263.775 243.613,263.256 244.034 M260.856 245.634 C 260.336 246.055,260.066 246.394,260.256 246.387 C 260.744 246.369,262.176 245.243,261.971 245.039 C 261.877 244.945,261.375 245.213,260.856 245.634 M253.600 249.830 C 247.029 253.607,245.808 254.387,248.400 253.150 C 251.079 251.872,259.156 247.194,259.419 246.769 C 259.715 246.290,260.224 246.022,253.600 249.830 M154.000 254.200 C 154.000 254.530,154.265 254.800,154.588 254.800 C 154.912 254.800,156.188 255.263,157.424 255.828 C 162.024 257.932,166.800 259.038,166.800 258.000 C 166.800 257.780,165.810 257.600,164.600 257.600 C 163.390 257.600,162.400 257.420,162.400 257.200 C 162.400 256.980,161.950 256.800,161.400 256.800 C 160.850 256.800,160.400 256.620,160.400 256.400 C 160.400 256.180,160.040 256.000,159.600 256.000 C 159.160 256.000,158.800 255.820,158.800 255.600 C 158.800 255.380,158.440 255.200,158.000 255.200 C 157.560 255.200,157.200 255.020,157.200 254.800 C 157.200 254.580,156.649 254.400,155.976 254.400 C 155.263 254.400,154.856 254.233,155.000 254.000 C 155.136 253.780,154.967 253.600,154.624 253.600 C 154.281 253.600,154.000 253.870,154.000 254.200 M243.983 254.179 C 244.228 254.475,244.790 254.623,245.231 254.508 C 246.222 254.249,246.099 254.106,244.659 253.845 C 243.752 253.681,243.622 253.745,243.983 254.179 M241.400 255.200 C 241.115 256.099,240.551 256.254,240.301 255.504 C 240.181 255.143,239.954 255.189,239.468 255.675 C 238.484 256.659,238.645 256.895,240.100 256.602 C 241.860 256.248,244.000 255.249,244.000 254.781 C 244.000 253.996,241.663 254.373,241.400 255.200 M235.400 257.600 C 235.260 258.040,234.798 258.400,234.373 258.400 C 233.948 258.400,233.600 258.580,233.600 258.800 C 233.600 259.020,233.161 259.200,232.624 259.200 C 232.087 259.200,231.536 259.380,231.400 259.600 C 231.264 259.820,230.544 260.000,229.800 260.000 C 229.056 260.000,228.336 260.180,228.200 260.400 C 227.856 260.956,225.861 260.901,225.280 260.320 C 224.976 260.016,224.800 259.996,224.800 260.265 C 224.800 260.504,224.355 260.604,223.777 260.494 C 223.076 260.359,222.511 260.560,221.979 261.131 C 221.552 261.589,220.527 262.075,219.702 262.212 C 218.876 262.349,217.750 262.612,217.200 262.797 C 215.988 263.206,211.630 263.739,209.310 263.762 C 208.173 263.774,207.818 263.890,208.224 264.118 C 209.304 264.722,218.118 263.346,227.400 261.125 C 228.280 260.914,229.587 260.645,230.304 260.527 C 231.021 260.408,231.706 260.151,231.827 259.956 C 231.948 259.760,232.369 259.600,232.762 259.600 C 233.702 259.600,236.000 258.444,236.000 257.971 C 236.000 257.767,236.450 257.600,237.000 257.600 C 237.550 257.600,238.000 257.420,238.000 257.200 C 238.000 256.402,235.666 256.761,235.400 257.600 M288.000 261.441 C 283.386 265.244,274.383 271.600,273.612 271.600 C 273.385 271.600,273.200 271.791,273.200 272.024 C 273.200 272.535,273.077 272.606,278.800 268.778 C 281.330 267.086,285.495 263.984,288.056 261.885 C 290.617 259.785,293.137 257.987,293.656 257.888 C 294.592 257.710,294.592 257.709,293.600 257.680 C 292.903 257.660,291.207 258.798,288.000 261.441 M168.600 258.800 C 168.736 259.020,169.117 259.200,169.447 259.200 C 169.777 259.200,169.936 259.020,169.800 258.800 C 169.664 258.580,169.283 258.400,168.953 258.400 C 168.623 258.400,168.464 258.580,168.600 258.800 M173.200 260.320 C 173.200 260.751,175.622 261.601,176.828 261.594 C 177.529 261.589,177.648 261.491,177.255 261.242 C 176.794 260.951,176.794 260.860,177.255 260.660 C 177.555 260.530,177.043 260.456,176.117 260.496 C 175.191 260.535,174.306 260.440,174.150 260.284 C 173.769 259.902,173.200 259.924,173.200 260.320 M179.900 261.518 C 179.295 261.592,178.800 261.821,178.800 262.027 C 178.800 262.543,180.692 262.498,181.016 261.973 C 181.362 261.415,181.216 261.356,179.900 261.518 M185.200 262.413 C 185.200 263.071,186.266 263.300,187.144 262.830 C 187.688 262.539,188.034 262.531,188.203 262.805 C 188.342 263.030,188.642 263.098,188.870 262.957 C 189.549 262.537,188.351 262.013,186.700 262.006 C 185.875 262.003,185.200 262.186,185.200 262.413 M191.467 263.067 C 190.827 263.706,191.325 264.000,193.049 264.000 C 194.647 264.000,194.830 263.919,194.400 263.400 C 193.897 262.794,191.959 262.574,191.467 263.067 M204.806 263.100 C 204.802 263.471,203.536 263.607,199.900 263.625 C 196.328 263.644,195.262 263.755,195.966 264.037 C 197.222 264.539,206.982 264.343,206.062 263.834 C 205.698 263.633,205.268 263.273,205.106 263.034 C 204.906 262.738,204.810 262.759,204.806 263.100 M266.180 275.962 C 265.187 276.909,254.588 282.341,252.200 283.126 C 250.494 283.688,249.034 284.273,247.905 284.847 C 247.523 285.041,246.938 285.200,246.605 285.200 C 246.272 285.200,246.000 285.380,246.000 285.600 C 246.000 285.820,245.640 286.000,245.200 286.000 C 244.760 286.000,244.400 286.180,244.400 286.400 C 244.400 286.620,243.860 286.800,243.200 286.800 C 242.400 286.800,242.000 287.000,242.000 287.400 C 242.000 287.739,242.358 288.000,242.824 288.000 C 243.277 288.000,243.536 287.820,243.400 287.600 C 243.188 287.257,244.669 286.978,245.730 287.163 C 245.911 287.194,245.945 287.035,245.806 286.810 C 245.654 286.564,246.050 286.400,246.800 286.400 C 247.486 286.400,247.942 286.229,247.812 286.020 C 247.523 285.552,248.854 284.800,249.974 284.800 C 250.428 284.800,250.800 284.620,250.800 284.400 C 250.800 284.180,251.340 284.000,252.000 284.000 C 252.660 284.000,253.200 283.857,253.200 283.683 C 253.200 283.509,254.010 283.149,255.000 282.884 C 255.990 282.620,256.800 282.222,256.800 282.002 C 256.800 281.781,257.160 281.600,257.600 281.600 C 258.040 281.600,258.400 281.421,258.400 281.202 C 258.400 280.983,259.255 280.405,260.300 279.917 C 262.279 278.994,267.200 276.026,267.200 275.755 C 267.200 275.468,266.563 275.597,266.180 275.962 M137.200 279.504 C 137.200 280.118,138.746 280.811,139.043 280.330 C 139.216 280.051,139.145 279.987,138.859 280.164 C 138.599 280.324,138.289 280.175,138.154 279.825 C 137.910 279.189,137.200 278.950,137.200 279.504 M141.687 281.590 C 142.023 282.129,142.620 282.400,143.473 282.400 C 144.177 282.400,144.864 282.580,145.000 282.800 C 145.136 283.020,145.674 283.200,146.197 283.200 C 146.795 283.200,147.240 283.496,147.400 284.000 C 147.705 284.962,149.600 285.134,149.600 284.200 C 149.600 283.867,149.244 283.600,148.800 283.600 C 148.360 283.600,148.000 283.420,148.000 283.200 C 148.000 282.980,147.651 282.800,147.224 282.800 C 146.797 282.800,146.336 282.620,146.200 282.400 C 146.064 282.180,145.549 282.000,145.056 282.000 C 144.563 282.000,143.989 281.843,143.780 281.652 C 142.833 280.784,141.152 280.734,141.687 281.590 M150.267 284.667 C 149.817 285.117,149.967 285.495,150.700 285.754 C 151.085 285.889,151.650 286.114,151.956 286.252 C 152.306 286.411,152.408 286.337,152.232 286.052 C 152.070 285.790,152.215 285.600,152.576 285.600 C 152.919 285.600,153.200 285.839,153.200 286.131 C 153.200 286.498,153.587 286.605,154.457 286.477 C 155.179 286.371,155.615 286.451,155.483 286.666 C 155.356 286.872,155.619 287.269,156.068 287.549 C 156.517 287.830,156.776 287.885,156.644 287.671 C 156.512 287.458,156.671 287.182,156.996 287.057 C 157.336 286.926,157.756 287.144,157.983 287.568 C 158.374 288.299,159.630 289.035,159.548 288.486 C 159.421 287.634,159.686 287.554,160.424 288.221 C 160.908 288.660,161.731 288.930,162.424 288.877 C 163.113 288.824,163.600 288.983,163.600 289.260 C 163.600 289.520,163.717 289.616,163.860 289.473 C 164.004 289.330,164.366 289.525,164.666 289.906 C 164.966 290.288,165.164 290.420,165.106 290.200 C 165.048 289.980,165.180 289.800,165.400 289.800 C 165.620 289.800,165.761 289.918,165.712 290.063 C 165.664 290.207,165.934 290.275,166.312 290.214 C 166.691 290.153,167.225 290.282,167.500 290.500 C 167.837 290.769,168.000 290.756,168.000 290.462 C 168.000 290.221,168.269 290.128,168.598 290.254 C 168.926 290.381,169.112 290.619,169.010 290.785 C 168.907 290.950,169.878 291.005,171.166 290.907 C 172.613 290.796,173.611 290.895,173.778 291.164 C 173.926 291.404,175.081 291.600,176.344 291.600 C 177.607 291.600,178.811 291.762,179.020 291.959 C 179.229 292.157,180.660 292.421,182.200 292.547 C 188.165 293.032,190.214 293.300,190.580 293.643 C 190.789 293.840,191.359 294.000,191.847 294.000 C 192.334 294.000,192.838 294.225,192.967 294.500 C 193.153 294.900,193.247 294.900,193.433 294.500 C 193.598 294.147,194.884 294.000,197.800 294.000 C 200.716 294.000,202.002 294.147,202.167 294.500 C 202.353 294.900,202.447 294.900,202.633 294.500 C 202.916 293.894,207.433 293.806,207.800 294.400 C 207.936 294.620,208.407 294.800,208.847 294.800 C 209.287 294.800,209.536 294.620,209.400 294.400 C 209.152 293.999,210.217 293.808,211.900 293.953 C 212.395 293.995,212.800 293.862,212.800 293.655 C 212.800 293.117,209.719 292.949,205.473 293.256 C 198.466 293.763,185.105 292.676,174.800 290.761 C 167.759 289.452,166.945 289.248,158.337 286.622 C 155.772 285.840,153.308 285.200,152.861 285.200 C 152.413 285.200,151.936 285.020,151.800 284.800 C 151.518 284.344,150.663 284.270,150.267 284.667 M239.200 288.200 C 239.200 288.530,239.530 288.800,239.933 288.800 C 240.337 288.800,240.667 288.530,240.667 288.200 C 240.667 287.870,240.337 287.600,239.933 287.600 C 239.530 287.600,239.200 287.870,239.200 288.200 M236.224 289.013 C 235.455 289.594,235.455 289.600,236.224 289.587 C 236.651 289.580,237.349 289.310,237.776 288.987 C 238.545 288.406,238.545 288.400,237.776 288.413 C 237.349 288.420,236.651 288.690,236.224 289.013 M233.200 289.796 C 233.200 290.175,233.539 290.363,234.133 290.314 C 234.647 290.271,235.067 290.003,235.067 289.718 C 235.067 289.433,234.647 289.200,234.133 289.200 C 233.573 289.200,233.200 289.438,233.200 289.796 M230.400 290.048 C 226.853 290.813,226.198 291.066,226.073 291.716 C 226.001 292.092,226.135 292.400,226.371 292.400 C 226.607 292.400,226.800 292.220,226.800 292.000 C 226.800 291.780,227.239 291.600,227.776 291.600 C 228.313 291.600,228.865 291.419,229.002 291.197 C 229.139 290.975,229.679 290.871,230.202 290.966 C 230.734 291.063,231.365 290.884,231.634 290.560 C 232.278 289.783,232.056 289.691,230.400 290.048 M223.000 292.000 C 223.136 292.220,223.507 292.400,223.824 292.400 C 224.141 292.400,224.400 292.220,224.400 292.000 C 224.400 291.780,224.029 291.600,223.576 291.600 C 223.123 291.600,222.864 291.780,223.000 292.000 " stroke="none" fill="#a6b7e5" fill-rule="evenodd"></path><path id="path4" d="M199.600 167.344 C 199.600 167.986,179.995 187.164,178.574 187.913 C 177.356 188.554,177.325 188.796,178.500 188.492 C 178.995 188.364,182.280 185.441,185.800 181.997 C 189.320 178.552,193.955 174.032,196.100 171.952 C 199.348 168.803,200.786 166.800,199.800 166.800 C 199.690 166.800,199.600 167.045,199.600 167.344 M219.469 190.042 C 218.551 190.946,213.795 195.571,208.900 200.321 C 202.715 206.323,200.012 209.209,200.040 209.779 C 200.079 210.587,200.084 210.588,200.340 209.800 C 200.483 209.360,203.210 206.480,206.399 203.400 C 209.589 200.320,214.200 195.845,216.646 193.456 C 219.093 191.067,221.343 188.955,221.647 188.762 C 222.090 188.482,222.095 188.411,221.669 188.406 C 221.376 188.403,220.386 189.139,219.469 190.042 M128.000 236.333 C 128.000 236.762,125.215 239.715,121.304 243.433 C 117.622 246.935,112.850 251.510,110.701 253.600 C 108.551 255.690,106.389 257.517,105.896 257.660 C 105.005 257.919,105.005 257.920,105.958 257.960 C 106.658 257.989,108.006 256.937,110.958 254.059 C 113.181 251.892,116.875 248.337,119.167 246.159 C 128.085 237.685,129.869 235.600,128.200 235.600 C 128.090 235.600,128.000 235.930,128.000 236.333 M269.600 238.472 C 267.272 240.530,261.289 245.023,260.000 245.682 C 259.450 245.963,258.064 246.779,256.919 247.496 C 255.775 248.213,254.754 248.800,254.651 248.800 C 254.548 248.800,252.874 249.722,250.932 250.848 C 248.989 251.975,246.770 253.132,246.000 253.420 C 244.960 253.809,244.822 253.951,245.464 253.972 C 247.208 254.029,263.820 244.115,267.600 240.761 C 268.370 240.078,269.630 239.012,270.400 238.394 C 271.170 237.775,271.710 237.182,271.600 237.075 C 271.490 236.968,270.590 237.597,269.600 238.472 M157.200 254.825 C 157.200 255.031,157.560 255.200,158.000 255.200 C 158.440 255.200,158.800 255.380,158.800 255.600 C 158.800 255.820,159.145 256.000,159.567 256.000 C 159.988 256.000,160.414 256.225,160.512 256.500 C 160.610 256.775,160.827 256.874,160.993 256.719 C 161.397 256.343,160.220 255.200,159.429 255.200 C 159.083 255.200,158.800 255.058,158.800 254.885 C 158.800 254.712,158.440 254.543,158.000 254.510 C 157.560 254.477,157.200 254.619,157.200 254.825 M162.400 257.200 C 162.400 257.420,162.861 257.600,163.424 257.600 C 164.004 257.600,164.340 257.427,164.200 257.200 C 164.064 256.980,163.603 256.800,163.176 256.800 C 162.749 256.800,162.400 256.980,162.400 257.200 M233.200 258.000 C 233.200 258.220,232.525 258.408,231.700 258.418 C 230.875 258.427,229.480 258.695,228.600 259.012 C 227.720 259.329,226.483 259.591,225.851 259.594 C 224.875 259.599,224.777 259.690,225.200 260.200 C 225.760 260.875,227.821 261.013,228.200 260.400 C 228.336 260.180,229.056 260.000,229.800 260.000 C 230.544 260.000,231.264 259.820,231.400 259.600 C 231.536 259.380,232.087 259.200,232.624 259.200 C 233.161 259.200,233.600 259.020,233.600 258.800 C 233.600 258.580,233.960 258.400,234.400 258.400 C 234.840 258.400,235.200 258.220,235.200 258.000 C 235.200 257.780,234.750 257.600,234.200 257.600 C 233.650 257.600,233.200 257.780,233.200 258.000 M288.000 261.881 C 283.532 265.593,276.149 270.788,272.312 272.921 C 271.273 273.499,268.753 275.000,266.712 276.257 C 264.670 277.515,261.965 279.059,260.700 279.689 C 259.435 280.318,258.403 281.051,258.406 281.317 C 258.410 281.617,258.559 281.572,258.800 281.200 C 259.058 280.800,259.190 280.767,259.194 281.100 C 259.197 281.375,259.470 281.600,259.800 281.600 C 260.130 281.600,260.400 281.420,260.400 281.200 C 260.400 280.980,260.771 280.800,261.224 280.800 C 261.677 280.800,261.936 280.620,261.800 280.400 C 261.660 280.174,261.987 280.000,262.549 280.000 C 263.195 280.000,263.636 279.718,263.800 279.200 C 263.940 278.760,264.362 278.400,264.739 278.400 C 265.115 278.400,265.683 278.040,266.000 277.600 C 266.317 277.160,266.807 276.800,267.088 276.800 C 267.370 276.800,267.600 276.620,267.600 276.400 C 267.600 276.180,267.870 276.000,268.200 276.000 C 268.530 276.000,268.800 275.820,268.800 275.600 C 268.800 275.380,268.962 275.200,269.159 275.200 C 270.243 275.200,283.369 266.464,287.724 262.845 C 292.515 258.862,293.438 258.022,293.000 258.041 C 292.780 258.051,290.530 259.779,288.000 261.881 M173.996 260.196 C 174.268 260.523,174.653 260.691,174.852 260.568 C 175.362 260.252,174.874 259.600,174.127 259.600 C 173.619 259.600,173.594 259.711,173.996 260.196 M177.266 260.750 C 176.832 261.026,176.845 261.132,177.333 261.319 C 177.664 261.446,178.033 261.291,178.154 260.975 C 178.402 260.330,178.064 260.245,177.266 260.750 M221.600 260.766 C 221.600 260.975,221.024 261.130,220.321 261.110 C 219.618 261.090,218.973 261.282,218.888 261.537 C 218.803 261.792,218.378 262.000,217.943 262.000 C 217.508 262.000,217.254 261.836,217.378 261.635 C 217.634 261.221,216.571 261.296,216.145 261.722 C 215.992 261.875,215.345 262.000,214.707 262.000 C 214.069 262.000,213.210 262.180,212.798 262.401 C 212.297 262.669,211.966 262.669,211.801 262.401 C 211.664 262.180,211.283 262.000,210.953 262.000 C 210.623 262.000,210.464 262.180,210.600 262.400 C 210.756 262.652,209.804 262.800,208.024 262.800 C 205.391 262.800,204.294 263.288,205.900 263.745 C 207.219 264.121,214.283 263.537,217.200 262.812 C 221.027 261.860,222.000 261.541,222.000 261.239 C 222.000 261.059,222.495 261.001,223.100 261.110 C 224.485 261.361,224.175 261.002,222.700 260.649 C 222.085 260.501,221.600 260.553,221.600 260.766 M194.359 263.353 C 194.767 263.846,204.800 263.770,204.800 263.273 C 204.800 263.119,202.368 262.973,199.395 262.949 C 195.451 262.917,194.089 263.026,194.359 263.353 M256.800 282.000 C 256.800 282.220,257.070 282.400,257.400 282.400 C 257.730 282.400,258.000 282.220,258.000 282.000 C 258.000 281.780,257.730 281.600,257.400 281.600 C 257.070 281.600,256.800 281.780,256.800 282.000 M143.600 282.800 C 143.600 283.020,143.960 283.200,144.400 283.200 C 144.840 283.200,145.200 283.380,145.200 283.600 C 145.200 283.820,145.650 284.000,146.200 284.000 C 146.750 284.000,147.200 283.820,147.200 283.600 C 147.200 283.380,146.761 283.200,146.224 283.200 C 145.687 283.200,145.136 283.020,145.000 282.800 C 144.864 282.580,144.493 282.400,144.176 282.400 C 143.859 282.400,143.600 282.580,143.600 282.800 M254.700 282.921 C 253.875 283.152,253.200 283.489,253.200 283.671 C 253.200 284.136,254.303 284.081,254.600 283.600 C 254.736 283.380,255.197 283.200,255.624 283.200 C 256.051 283.200,256.400 283.020,256.400 282.800 C 256.400 282.580,256.355 282.423,256.300 282.451 C 256.245 282.478,255.525 282.690,254.700 282.921 M250.800 284.400 C 250.800 284.620,251.070 284.800,251.400 284.800 C 251.730 284.800,252.000 284.620,252.000 284.400 C 252.000 284.180,251.730 284.000,251.400 284.000 C 251.070 284.000,250.800 284.180,250.800 284.400 M248.216 285.339 C 247.702 285.715,247.619 285.964,247.942 286.164 C 248.197 286.322,248.675 286.182,249.003 285.854 C 250.096 284.761,249.521 284.385,248.216 285.339 M152.600 286.400 C 153.390 287.273,154.987 287.468,155.433 286.746 C 155.627 286.432,155.327 286.349,154.457 286.477 C 153.587 286.605,153.200 286.498,153.200 286.131 C 153.200 285.839,152.902 285.600,152.538 285.600 C 151.943 285.600,151.949 285.681,152.600 286.400 M156.637 287.324 C 156.024 287.771,156.059 287.830,156.978 287.906 C 157.540 287.953,158.000 287.824,158.000 287.619 C 158.000 286.957,157.335 286.813,156.637 287.324 M159.107 288.152 C 158.484 288.625,158.538 288.682,159.634 288.713 C 160.651 288.742,160.775 288.652,160.378 288.174 C 160.116 287.858,159.879 287.606,159.851 287.613 C 159.823 287.620,159.488 287.862,159.107 288.152 M161.451 289.283 C 161.738 289.748,163.600 289.670,163.600 289.194 C 163.600 288.970,163.072 288.827,162.428 288.877 C 161.783 288.926,161.344 289.109,161.451 289.283 M237.400 289.200 C 237.264 289.420,237.423 289.600,237.753 289.600 C 238.083 289.600,238.464 289.420,238.600 289.200 C 238.736 288.980,238.577 288.800,238.247 288.800 C 237.917 288.800,237.536 288.980,237.400 289.200 M164.866 289.720 C 164.533 290.122,164.653 290.240,165.400 290.240 C 166.147 290.240,166.267 290.122,165.934 289.720 C 165.696 289.434,165.456 289.200,165.400 289.200 C 165.344 289.200,165.104 289.434,164.866 289.720 M167.861 290.586 C 167.743 290.892,167.895 291.086,168.216 291.039 C 169.079 290.912,169.299 290.524,168.650 290.275 C 168.329 290.151,167.974 290.291,167.861 290.586 M231.655 290.533 C 231.320 290.937,231.357 291.067,231.806 291.067 C 232.133 291.067,232.400 290.906,232.400 290.710 C 232.400 290.513,232.580 290.464,232.800 290.600 C 233.020 290.736,233.200 290.657,233.200 290.424 C 233.200 289.825,232.183 289.897,231.655 290.533 M170.213 291.179 C 170.046 291.450,170.591 291.600,171.743 291.600 C 172.788 291.600,173.628 291.808,173.760 292.100 C 173.884 292.375,173.943 292.240,173.889 291.800 C 173.782 290.904,170.704 290.384,170.213 291.179 M175.600 292.000 C 175.600 292.220,176.320 292.400,177.200 292.400 C 178.080 292.400,178.800 292.583,178.800 292.806 C 178.800 293.030,179.295 293.211,179.900 293.210 C 180.505 293.208,181.750 293.199,182.668 293.189 C 183.585 293.179,184.450 293.358,184.591 293.586 C 184.732 293.814,186.197 294.000,187.847 294.000 C 189.745 294.000,190.756 294.147,190.600 294.400 C 190.456 294.633,190.863 294.800,191.576 294.800 C 192.249 294.800,192.800 294.620,192.800 294.400 C 192.800 294.180,192.386 294.000,191.880 294.000 C 191.374 294.000,190.789 293.840,190.580 293.643 C 190.214 293.300,188.165 293.032,182.200 292.547 C 180.660 292.421,179.229 292.157,179.020 291.959 C 178.501 291.468,175.600 291.503,175.600 292.000 M193.600 294.400 C 193.600 294.641,195.267 294.800,197.800 294.800 C 200.333 294.800,202.000 294.641,202.000 294.400 C 202.000 294.159,200.333 294.000,197.800 294.000 C 195.267 294.000,193.600 294.159,193.600 294.400 M202.800 294.400 C 202.800 294.626,203.941 294.800,205.424 294.800 C 207.071 294.800,207.955 294.651,207.800 294.400 C 207.664 294.180,206.483 294.000,205.176 294.000 C 203.859 294.000,202.800 294.178,202.800 294.400 " stroke="none" fill="#c4a4dc" fill-rule="evenodd"></path></g></svg>