<?xml version="1.0" encoding="UTF-8" standalone="no"?>
<svg
   xmlns:dc="http://purl.org/dc/elements/1.1/"
   xmlns:cc="http://creativecommons.org/ns#"
   xmlns:rdf="http://www.w3.org/1999/02/22-rdf-syntax-ns#"
   xmlns:svg="http://www.w3.org/2000/svg"
   xmlns="http://www.w3.org/2000/svg"
   xmlns:sodipodi="http://sodipodi.sourceforge.net/DTD/sodipodi-0.dtd"
   xmlns:inkscape="http://www.inkscape.org/namespaces/inkscape"
   width="24"
   height="24"
   viewBox="0 0 24 24"
   version="1.1"
   id="svg4"
   sodipodi:docname="group-anchor.svg"
   inkscape:version="0.92.4 (5da689c313, 2019-01-14)">
  <metadata
     id="metadata10">
    <rdf:RDF>
      <cc:Work
         rdf:about="">
        <dc:format>image/svg+xml</dc:format>
        <dc:type
           rdf:resource="http://purl.org/dc/dcmitype/StillImage" />
        <dc:title></dc:title>
      </cc:Work>
    </rdf:RDF>
  </metadata>
  <defs
     id="defs8" />
  <sodipodi:namedview
     pagecolor="#ffffff"
     bordercolor="#666666"
     borderopacity="1"
     objecttolerance="10"
     gridtolerance="10"
     guidetolerance="10"
     inkscape:pageopacity="0"
     inkscape:pageshadow="2"
     inkscape:window-width="1908"
     inkscape:window-height="1424"
     id="namedview6"
     showgrid="false"
     inkscape:zoom="9.8333333"
     inkscape:cx="12"
     inkscape:cy="12"
     inkscape:window-x="4182"
     inkscape:window-y="441"
     inkscape:window-maximized="0"
     inkscape:current-layer="svg4" />
  <path
     d="m 17.793712,23.627119 h -0.964169 c 0,-1.538848 0.05797,-1.759958 -0.85017,-1.976111 -1.389254,-0.329186 -2.702186,-0.639534 -3.181373,-1.714347 -0.173898,-0.392644 -0.290796,-1.039118 0.149746,-1.890839 0.98639,-1.912653 1.233712,-3.552636 0.678203,-4.499542 -0.64922,-1.105551 -2.615237,-1.110509 -3.270254,0.01686 -0.5564744,0.959796 -0.305288,2.590856 0.688831,4.473763 0.449237,0.848745 0.336203,1.497203 0.162305,1.89183 -0.47339,1.079772 -1.7737633,1.388136 -3.1514243,1.713355 -0.9487118,0.225074 -0.8888135,0.431311 -0.8888135,1.985032 H 6.205322 l -0.00193,-0.617721 c 0,-1.24833 0.09661,-1.968178 1.5341695,-2.309263 1.624983,-0.385703 3.2306445,-0.729762 2.4587285,-2.190279 -2.2857963,-4.32801 -0.6530845,-6.781043 1.80178,-6.781043 2.407526,0 4.083712,2.362805 1.803712,6.781042 -0.748729,1.451593 0.796068,1.796645 2.458729,2.190279 1.439491,0.341085 1.535135,1.062916 1.535135,2.31323 z m 4.646949,-2.195238 c -1.245305,-0.295474 -2.404627,-0.554262 -1.843322,-1.642958 1.71,-3.313677 0.454068,-5.085533 -1.352542,-5.085533 -1.222119,0 -2.171797,0.810076 -2.171797,2.305296 0,1.258246 0.554543,2.156568 0.873356,2.900212 h 1.012475 c -0.164237,-0.743644 -1.416305,-2.540288 -0.740034,-3.704339 0.398034,-0.686136 1.646237,-0.687127 2.042339,-0.0119 0.367119,0.625652 0.174864,1.796644 -0.515898,3.134212 -0.374848,0.726788 -0.270509,1.289974 -0.116899,1.634034 0.294661,0.660355 0.943882,0.978636 1.678119,1.197762 1.455915,0.437263 1.321627,0.04164 1.321627,1.467457 h 0.963203 l 0.0019,-0.459076 c 0,-0.936991 -0.07149,-1.479355 -1.15256,-1.735169 z M 0.40871186,23.627119 H 1.3719152 c 0,-1.425814 -0.1342881,-1.030196 1.3216271,-1.467458 0.7352034,-0.219127 1.3844237,-0.537407 1.6781187,-1.197763 0.1536101,-0.345051 0.2579491,-0.907245 -0.1168983,-1.634033 -0.6907628,-1.337569 -0.883017,-2.50856 -0.5158984,-3.134212 0.3961017,-0.676221 1.6443051,-0.67523 2.042339,0.0119 0.6762712,1.165042 -0.5757966,2.960695 -0.7400339,3.704339 H 6.053644 C 6.3724576,19.16625 6.9269999,18.267928 6.9269999,17.009682 6.927966,15.51347 5.9782881,14.703394 4.7561694,14.703394 c -1.8066101,0 -3.0625423,1.771856 -1.3525423,5.085534 0.561305,1.089687 -0.598017,1.347483 -1.8433221,1.642957 -1.08203381,0.255814 -1.15352534,0.798178 -1.15352534,1.736162 z"
     id="path2"
     inkscape:connector-curvature="0"
     style="stroke-width:0.97873098" />
  <path
     inkscape:connector-curvature="0"
     d="m 20.475773,8.876899 c 0.261734,-0.356823 0.41791,-0.8004499 0.41791,-1.2810758 0,-0.4806266 -0.156176,-0.9242536 -0.41791,-1.2810766 l 0.484578,-0.5119324 c 0.38797,0.4891637 0.624086,1.1113811 0.624086,1.793009 0,0.6816272 -0.236425,1.3034883 -0.624086,1.7933643 z M 17.083116,5.2923049 16.597921,4.7796611 c -0.643839,0.7517116 -1.038599,1.7346643 -1.038599,2.8161621 0,1.0814971 0.39476,2.0640942 1.038292,2.8161618 L 17.082807,9.8993409 C 16.566749,9.277836 16.250384,8.475962 16.250384,7.5958232 c 0,-0.8801396 0.316674,-1.6820132 0.832732,-2.3035183 z M 17.565841,9.3888313 18.050419,8.876899 C 17.788686,8.520076 17.63251,8.0764491 17.63251,7.5958232 c 0,-0.4806266 0.156176,-0.9242536 0.417909,-1.2810766 L 17.565841,5.8028142 c -0.38797,0.4891637 -0.624085,1.1113811 -0.624085,1.793009 0,0.6816272 0.236115,1.3034883 0.624085,1.7930081 z m 4.36243,-4.6091702 -0.484886,0.5126438 c 0.516058,0.6215051 0.832422,1.4233787 0.832422,2.3035183 0,0.8801388 -0.316364,1.6820128 -0.832422,2.3035177 l 0.485194,0.5126441 C 22.57211,9.6595612 22.96687,8.6769641 22.96687,7.5958232 c 0,-1.0811416 -0.39476,-2.0644505 -1.038599,-2.8161621 z m -0.787669,8.5381369 h -0.664829 c -0.26235,-0.78373 -0.697853,-1.090747 -1.212677,-1.090747 -0.522232,0 -0.953104,0.3152 -1.212677,1.090747 H 17.398246 L 18.954449,8.5976307 C 18.5958,8.4503482 18.337153,8.0597284 18.337153,7.5958232 c 0,-0.5894876 0.414823,-1.0672676 0.925943,-1.0672676 0.511121,0 0.925944,0.47778 0.925944,1.0672676 0,0.4639052 -0.258648,0.8548804 -0.617296,1.0018075 z M 19.263096,9.6841086 19.000128,10.471752 h 0.525628 z m 0.619148,1.8549114 -0.118829,-0.355756 h -1.000637 l -0.118829,0.355756 z"
     id="path3725"
     style="stroke-width:0.3313657" />
  <path
     inkscape:connector-curvature="0"
     d="m 12.840097,3.9976614 c 0.258141,-0.356823 0.412173,-0.8004499 0.412173,-1.2810758 0,-0.4806266 -0.154032,-0.9242536 -0.412173,-1.2810766 l 0.477925,-0.51193243 c 0.382644,0.48916373 0.615518,1.11138113 0.615518,1.79300903 0,0.6816272 -0.233178,1.3034883 -0.615518,1.7933643 z M 9.4940155,0.41306727 9.0154818,-0.09957653 c -0.635,0.7517116 -1.0243407,1.73466433 -1.0243407,2.81616213 0,1.0814971 0.3893407,2.0640942 1.0240371,2.8161616 L 9.493711,5.0201033 C 8.9847371,4.3985984 8.6727159,3.5967244 8.6727159,2.7165856 c 0,-0.8801396 0.3123256,-1.6820132 0.8212996,-2.30351833 z M 9.9701137,4.5095937 10.448039,3.9976614 c -0.25814,-0.356823 -0.412172,-0.8004499 -0.412172,-1.2810758 0,-0.4806266 0.154032,-0.9242536 0.412172,-1.2810766 L 9.9701137,0.92357657 C 9.5874697,1.4127403 9.3545956,2.0349577 9.3545956,2.7165856 c 0,0.6816272 0.2328741,1.3034883 0.6155181,1.7930081 z m 4.3025403,-4.60917023 -0.478229,0.5126438 c 0.508974,0.62150513 0.820994,1.42337873 0.820994,2.30351833 0,0.8801388 -0.31202,1.6820128 -0.820994,2.3035177 l 0.478533,0.5126439 c 0.634696,-0.7524236 1.024037,-1.7350207 1.024037,-2.8161616 0,-1.0811416 -0.389341,-2.06445053 -1.024341,-2.81616213 z M 13.495798,8.4385596 h -0.655701 c -0.258748,-0.78373 -0.688272,-1.090747 -1.196029,-1.090747 -0.515063,0 -0.94002,0.3152 -1.196029,1.090747 H 9.8048193 L 11.339658,3.7183931 C 10.985933,3.5711106 10.730836,3.1804908 10.730836,2.7165856 c 0,-0.5894876 0.409129,-1.0672676 0.913232,-1.0672676 0.504105,0 0.913232,0.47778 0.913232,1.0672676 0,0.4639052 -0.255096,0.8548804 -0.608821,1.0018075 z M 11.644068,4.804871 11.38471,5.5925141 h 0.518412 z m 0.610648,1.8549106 -0.117198,-0.355756 h -0.9869 l -0.117197,0.355756 z"
     id="path3725-7"
     style="stroke-width:0.32908326" />
  <path
     inkscape:connector-curvature="0"
     d="m 5.6872535,9.0824069 c 0.261734,-0.356823 0.41791,-0.8004499 0.41791,-1.2810758 0,-0.4806266 -0.156176,-0.9242536 -0.41791,-1.2810766 l 0.484578,-0.5119324 c 0.38797,0.4891637 0.624086,1.1113811 0.624086,1.793009 0,0.6816272 -0.236425,1.3034883 -0.624086,1.7933643 z M 2.2945965,5.4978128 1.8094015,4.985169 c -0.643839,0.7517116 -1.03859901,1.7346643 -1.03859901,2.8161621 0,1.0814971 0.39476001,2.0640942 1.03829201,2.8161619 l 0.485193,-0.512644 C 1.7782295,9.4833439 1.4618645,8.6814699 1.4618645,7.8013311 c 0,-0.8801396 0.316674,-1.6820132 0.832732,-2.3035183 z m 0.482725,4.0965264 0.484578,-0.5119323 C 3.0001665,8.7255839 2.8439905,8.281957 2.8439905,7.8013311 c 0,-0.4806266 0.156176,-0.9242536 0.417909,-1.2810766 L 2.7773215,6.0083221 c -0.38797,0.4891637 -0.624085,1.1113811 -0.624085,1.793009 0,0.6816272 0.236115,1.3034883 0.624085,1.7930081 z m 4.36243,-4.6091702 -0.484886,0.5126438 c 0.516058,0.6215051 0.832422,1.4233787 0.832422,2.3035183 0,0.8801388 -0.316364,1.6820128 -0.832422,2.3035179 l 0.485194,0.512644 c 0.643531,-0.7524239 1.038291,-1.735021 1.038291,-2.8161619 0,-1.0811416 -0.39476,-2.0644505 -1.038599,-2.8161621 z m -0.787669,8.538137 h -0.664829 c -0.26235,-0.78373 -0.697853,-1.090747 -1.212677,-1.090747 -0.522232,0 -0.953104,0.3152 -1.212677,1.090747 H 2.6097265 L 4.1659295,8.8031386 C 3.8072805,8.6558561 3.5486335,8.2652363 3.5486335,7.8013311 c 0,-0.5894876 0.414823,-1.0672676 0.925943,-1.0672676 0.511121,0 0.925944,0.47778 0.925944,1.0672676 0,0.4639052 -0.258648,0.8548804 -0.617296,1.0018075 z M 4.4745765,9.8896165 4.2116085,10.67726 h 0.525628 z m 0.619148,1.8549115 -0.118829,-0.355756 h -1.000637 l -0.118829,0.355756 z"
     id="path3725-4"
     style="stroke-width:0.3313657" />
</svg>
