<?xml version="1.0" encoding="UTF-8" standalone="no"?>
<svg
   xmlns:dc="http://purl.org/dc/elements/1.1/"
   xmlns:cc="http://creativecommons.org/ns#"
   xmlns:rdf="http://www.w3.org/1999/02/22-rdf-syntax-ns#"
   xmlns:svg="http://www.w3.org/2000/svg"
   xmlns="http://www.w3.org/2000/svg"
   xmlns:sodipodi="http://sodipodi.sourceforge.net/DTD/sodipodi-0.dtd"
   xmlns:inkscape="http://www.inkscape.org/namespaces/inkscape"
   width="24"
   height="24"
   viewBox="0 0 24 24"
   version="1.1"
   id="svg4"
   sodipodi:docname="image-rotate.svg"
   inkscape:version="0.92.2 (5c3e80d, 2017-08-06)">
  <metadata
     id="metadata10">
    <rdf:RDF>
      <cc:Work
         rdf:about="">
        <dc:format>image/svg+xml</dc:format>
        <dc:type
           rdf:resource="http://purl.org/dc/dcmitype/StillImage" />
        <dc:title></dc:title>
      </cc:Work>
    </rdf:RDF>
  </metadata>
  <defs
     id="defs8" />
  <sodipodi:namedview
     pagecolor="#ffffff"
     bordercolor="#666666"
     borderopacity="1"
     objecttolerance="10"
     gridtolerance="10"
     guidetolerance="10"
     inkscape:pageopacity="0"
     inkscape:pageshadow="2"
     inkscape:window-width="909"
     inkscape:window-height="480"
     id="namedview6"
     showgrid="false"
     inkscape:zoom="9.8333333"
     inkscape:cx="12"
     inkscape:cy="12"
     inkscape:window-x="182"
     inkscape:window-y="31"
     inkscape:window-maximized="0"
     inkscape:current-layer="svg4" />
  <path
     d="M13.5 2c-5.288 0-9.649 3.914-10.377 9h-3.123l4 5.917 4-5.917h-2.847c.711-3.972 4.174-7 8.347-7 4.687 0 8.5 3.813 8.5 8.5s-3.813 8.5-8.5 8.5c-3.015 0-5.662-1.583-7.171-3.957l-1.2 1.775c1.916 2.536 4.948 4.182 8.371 4.182 5.797 0 10.5-4.702 10.5-10.5s-4.703-10.5-10.5-10.5z"
     id="path2" />
  <path
     inkscape:connector-curvature="0"
     d="m 17.420873,8.5755342 c -0.339408,1.3973901 -0.63727,2.6985618 -1.862672,2.0620898 -0.316395,-0.164146 -0.619897,-0.303827 -0.911751,-0.421895 0.206471,0.353209 0.365772,0.74729 0.419755,0.961502 l -0.447585,0.08909 c -0.135477,-0.4676 -0.389499,-0.973162 -0.765027,-1.3263231 -2.632255,-0.7587753 -4.0323473,0.4971311 -4.0400131,2.1897211 -0.00936,2.06723 2.0604471,3.45275 5.7308701,1.54407 1.238334,-0.644431 1.524175,0.708604 1.843918,2.078877 0.283118,1.213089 0.893106,1.296801 1.950214,1.301589 l 0.520592,3.58e-4 0.0442,-9.7585527 -0.520574,-0.00436 c -1.057108,-0.00479 -1.667829,0.073397 -1.961924,1.2838716 z m -2.019709,3.5762388 c 0.03736,0.17956 -0.08299,0.354746 -0.268568,0.390515 -0.185582,0.03658 -0.366276,-0.08017 -0.403636,-0.259728 l -0.159952,-0.713814 0.671786,-0.13079 z"
     id="path2-6"
     style="stroke-width:0.41308632" />
</svg>
