<?xml version="1.0" encoding="iso-8859-1"?>
<!-- Generator: Adobe Illustrator 16.0.0, SVG Export Plug-In . SVG Version: 6.00 Build 0)  -->
<!DOCTYPE svg PUBLIC "-//W3C//DTD SVG 1.1//EN" "http://www.w3.org/Graphics/SVG/1.1/DTD/svg11.dtd">
<svg version="1.1" id="Capa_1" xmlns="http://www.w3.org/2000/svg" xmlns:xlink="http://www.w3.org/1999/xlink" x="0px" y="0px"
	 width="485.228px" height="485.228px" viewBox="0 0 485.228 485.228" style="enable-background:new 0 0 485.228 485.228;"
	 xml:space="preserve">
<g>
	<g>
		<path d="M474.122,420.51l-91.811-91.839c-14.743,20.731-32.87,38.858-53.602,53.635l91.806,91.806
			c14.805,14.813,38.793,14.813,53.606,0C488.93,459.308,488.93,435.318,474.122,420.51z"/>
		<path d="M394.221,197.125c0-108.864-88.254-197.119-197.103-197.119C88.252,0.006,0,88.261,0,197.125
			s88.252,197.114,197.119,197.114C305.967,394.239,394.221,305.989,394.221,197.125z M197.119,348.754
			c-83.606,0-151.631-68.027-151.631-151.629c0-83.606,68.025-151.629,151.631-151.629c83.613,0,151.608,68.022,151.608,151.629
			C348.727,280.727,280.737,348.754,197.119,348.754z"/>
		<path d="M272.915,227.451H257.77c-16.762,0-30.325-13.567-30.325-30.326v-1.911c13.74-16.214,22.741-40.707,22.741-58.74
			c0-25.468-5.804-52.39-37.075-59.039c-5.305-0.709-10.518-1.615-15.992-1.615c-5.481,0-10.694,0.905-15.996,1.615
			c-31.27,6.648-37.075,33.57-37.075,59.039c0,18.034,9,42.526,22.742,58.724v1.928c0,16.764-13.564,30.326-30.326,30.326h-15.161
			c0,0-16.318,4.677-32.044,24.092c19.989,39.521,60.535,66.884,107.861,66.884c47.294,0,87.818-27.363,107.845-66.884
			C289.263,232.114,272.915,227.451,272.915,227.451z"/>
	</g>
</g>
<g>
</g>
<g>
</g>
<g>
</g>
<g>
</g>
<g>
</g>
<g>
</g>
<g>
</g>
<g>
</g>
<g>
</g>
<g>
</g>
<g>
</g>
<g>
</g>
<g>
</g>
<g>
</g>
<g>
</g>
</svg>
