<?xml version="1.0" encoding="UTF-8" standalone="no"?>
<svg
   xmlns:dc="http://purl.org/dc/elements/1.1/"
   xmlns:cc="http://creativecommons.org/ns#"
   xmlns:rdf="http://www.w3.org/1999/02/22-rdf-syntax-ns#"
   xmlns:svg="http://www.w3.org/2000/svg"
   xmlns="http://www.w3.org/2000/svg"
   xmlns:sodipodi="http://sodipodi.sourceforge.net/DTD/sodipodi-0.dtd"
   xmlns:inkscape="http://www.inkscape.org/namespaces/inkscape"
   width="24"
   height="24"
   viewBox="0 0 24 24"
   version="1.1"
   id="svg4"
   sodipodi:docname="messenger-settings.svg"
   inkscape:version="0.92.4 (5da689c313, 2019-01-14)">
  <metadata
     id="metadata10">
    <rdf:RDF>
      <cc:Work
         rdf:about="">
        <dc:format>image/svg+xml</dc:format>
        <dc:type
           rdf:resource="http://purl.org/dc/dcmitype/StillImage" />
        <dc:title></dc:title>
      </cc:Work>
    </rdf:RDF>
  </metadata>
  <defs
     id="defs8" />
  <sodipodi:namedview
     pagecolor="#ffffff"
     bordercolor="#666666"
     borderopacity="1"
     objecttolerance="1"
     gridtolerance="1"
     guidetolerance="1"
     inkscape:pageopacity="0"
     inkscape:pageshadow="2"
     inkscape:window-width="1634"
     inkscape:window-height="817"
     id="namedview6"
     showgrid="false"
     inkscape:zoom="19.666667"
     inkscape:cx="19.774356"
     inkscape:cy="13.901027"
     inkscape:window-x="338"
     inkscape:window-y="273"
     inkscape:window-maximized="0"
     inkscape:current-layer="svg4" />
  <path
     d="M 17.525424,9.2773497 V 18.791987 H 8.2504915 L 4.779661,21.064522 V 18.791987 H 1.5932203 V 9.2773497 Z m 1.59322,-1.4637904 H 0 V 20.241872 h 3.1864407 v 3.673382 L 8.7627119,20.241872 H 19.118644 Z M 15.135593,12.20493 H 3.9830508 V 11.473035 H 15.135593 Z m 0,1.463791 H 3.9830508 v 0.731895 H 15.135593 Z m -4.779661,2.195686 H 3.9830508 v 0.731895 h 6.3728812 z"
     id="path2"
     inkscape:connector-curvature="0"
     style="stroke-width:0.76356739" />
  <path
     inkscape:connector-curvature="0"
     d="M 24.157965,4.997178 V 3.4773983 C 23.42983,3.2112458 23.233897,3.1987373 23.131864,2.9461356 23.029152,2.692839 23.159999,2.5399576 23.490847,1.8262796 L 22.442372,0.75159318 C 21.755592,1.0861949 21.598982,1.2255254 21.349491,1.1195508 21.10305,1.0146186 21.089152,0.81066098 20.831863,0.06779648 h -1.48305 C 19.08983,0.81274568 19.077626,1.0146186 18.830508,1.1195508 18.575592,1.228305 18.422711,1.084805 17.737965,0.75159318 L 16.689491,1.8262796 c 0.331186,0.7140255 0.461694,0.8662119 0.358983,1.1202034 -0.102373,0.2526017 -0.298645,0.2654577 -1.026102,0.5309153 v 1.5201271 c 0.725085,0.2640678 0.923729,0.2779661 1.026102,0.5309153 0.10305,0.2550339 -0.02746,0.405483 -0.358983,1.1198559 l 1.048474,1.0746865 c 0.677627,-0.3300848 0.837288,-0.4770593 1.092543,-0.3679576 0.246779,0.1049322 0.258983,0.3057627 0.518305,1.0517542 h 1.482711 c 0.25695,-0.7404322 0.270848,-0.9461271 0.521017,-1.0531441 0.252543,-0.1070169 0.402034,0.034398 1.089831,0.369 L 23.490847,6.6479492 C 23.160338,5.935661 23.029152,5.7820848 23.131864,5.5280932 23.233558,5.275839 23.430169,5.2629831 24.157965,4.997178 Z M 22.505423,5.2626356 C 22.30983,5.7469915 22.482373,6.1166865 22.670847,6.505839 L 22.303389,6.8824831 C 21.93288,6.6938136 21.570847,6.5086187 21.092202,6.7122288 20.618982,6.9141017 20.485423,7.3004746 20.350508,7.7118644 h -0.52 C 19.695592,7.3001271 19.562372,6.9137543 19.090508,6.7129238 18.609491,6.5086187 18.240677,6.6972882 17.877287,6.8824831 L 17.510169,6.505839 C 17.698982,6.1173814 17.871524,5.7483814 17.675253,5.2619407 17.478982,4.7786271 17.102033,4.6420763 16.700338,4.5037881 V 3.9711356 c 0.401695,-0.1382881 0.778644,-0.274839 0.974576,-0.7588475 0.195932,-0.4843559 0.02305,-0.8543983 -0.165423,-1.2435508 l 0.367457,-0.3766441 c 0.36678,0.1869322 0.732882,0.3742119 1.21356,0.1695593 0.471864,-0.2004831 0.605084,-0.5872034 0.74,-0.99894072 h 0.52 c 0.134915,0.41173732 0.268474,0.79811022 0.740339,0.99894072 0.481016,0.2043051 0.849491,0.015636 1.21322,-0.1695593 l 0.367458,0.3766441 c -0.188475,0.3895 -0.361017,0.7598898 -0.165424,1.2438983 0.195593,0.4833136 0.572542,0.6198644 0.974576,0.7585 v 0.533 c -0.402712,0.1382881 -0.780339,0.274839 -0.975254,0.7585 z M 20.090169,3.1949153 c 0.560678,0 1.016949,0.4676779 1.016949,1.0423728 0,0.574695 -0.456271,1.0423729 -1.016949,1.0423729 -0.560678,0 -1.01695,-0.4676779 -1.01695,-1.0423729 0,-0.5746949 0.456272,-1.0423728 1.01695,-1.0423728 z m 0,-0.6949153 c -0.936272,0 -1.694916,0.7776102 -1.694916,1.7372881 0,0.959678 0.758644,1.7372882 1.694916,1.7372882 0.936271,0 1.694915,-0.7776102 1.694915,-1.7372882 C 21.785084,3.2776102 21.02644,2.5 20.090169,2.5 Z"
     id="path2-2"
     style="stroke-width:0.34319419" />
</svg>
