<?xml version="1.0" encoding="UTF-8" standalone="no"?>
<svg
   xmlns:dc="http://purl.org/dc/elements/1.1/"
   xmlns:cc="http://creativecommons.org/ns#"
   xmlns:rdf="http://www.w3.org/1999/02/22-rdf-syntax-ns#"
   xmlns:svg="http://www.w3.org/2000/svg"
   xmlns="http://www.w3.org/2000/svg"
   xmlns:sodipodi="http://sodipodi.sourceforge.net/DTD/sodipodi-0.dtd"
   xmlns:inkscape="http://www.inkscape.org/namespaces/inkscape"
   width="24"
   height="24"
   viewBox="0 0 24 24"
   version="1.1"
   id="svg4"
   sodipodi:docname="microphone-muted.svg"
   inkscape:version="0.92.2 (5c3e80d, 2017-08-06)">
  <metadata
     id="metadata10">
    <rdf:RDF>
      <cc:Work
         rdf:about="">
        <dc:format>image/svg+xml</dc:format>
        <dc:type
           rdf:resource="http://purl.org/dc/dcmitype/StillImage" />
        <dc:title></dc:title>
      </cc:Work>
    </rdf:RDF>
  </metadata>
  <defs
     id="defs8" />
  <sodipodi:namedview
     pagecolor="#ffffff"
     bordercolor="#666666"
     borderopacity="1"
     objecttolerance="10"
     gridtolerance="10"
     guidetolerance="10"
     inkscape:pageopacity="0"
     inkscape:pageshadow="2"
     inkscape:window-width="909"
     inkscape:window-height="480"
     id="namedview6"
     showgrid="false"
     inkscape:zoom="9.8333333"
     inkscape:cx="12"
     inkscape:cy="12"
     inkscape:window-x="365"
     inkscape:window-y="80"
     inkscape:window-maximized="0"
     inkscape:current-layer="svg4" />
  <path
     d="M 3.1100132,13.118418 C 1.9626145,13.870681 1.4154898,14.859084 1.3662486,16.160547 H 0 c 0.05393087,-1.80451 0.85976742,-3.219811 2.4644061,-4.228213 z M 15.115493,2.315208 c -1.447536,0 -2.499579,0.7430331 -3.234289,2.0144967 L 14.652,9.4201741 c 2.657463,0.1707589 4.106562,-1.6537487 4.106562,-3.5190235 0,-1.9983438 -1.639811,-3.5859426 -3.643069,-3.5859426 z M 3.4953454,10.56703 4.7123071,12.802283 12.949661,9.5493976 10.826817,5.649627 Z m 3.7243561,2.902137 c 0.4947571,0.476125 0.5971475,1.267617 0.5971475,1.967576 v 3.800545 H 9.3792809 V 15.31675 c 0,-1.366073 0.5174237,-2.326017 1.3560881,-3.235964 z"
     id="path2"
     inkscape:connector-curvature="0"
     style="stroke-width:0.77537125" />
  <path
     inkscape:connector-curvature="0"
     d="m 23.186441,19.94122 v 2.652 h -2.652 l -3.348,-3.348 -3.348,3.348 h -2.652 v -2.652 l 3.348,-3.348 -3.348,-3.348 v -2.652 h 2.652 l 3.348,3.348 3.348,-3.348 h 2.652 v 2.652 l -3.348,3.348 z"
     id="path4" />
</svg>
