<?xml version="1.0" encoding="UTF-8" standalone="no"?>
<svg
   xmlns:dc="http://purl.org/dc/elements/1.1/"
   xmlns:cc="http://creativecommons.org/ns#"
   xmlns:rdf="http://www.w3.org/1999/02/22-rdf-syntax-ns#"
   xmlns:svg="http://www.w3.org/2000/svg"
   xmlns="http://www.w3.org/2000/svg"
   xmlns:sodipodi="http://sodipodi.sourceforge.net/DTD/sodipodi-0.dtd"
   xmlns:inkscape="http://www.inkscape.org/namespaces/inkscape"
   enable-background="new 0 0 500 500"
   height="500px"
   id="Layer_1"
   version="1.1"
   viewBox="0 0 500 500"
   width="500px"
   xml:space="preserve"
   sodipodi:docname="motion-alarm.svg"
   inkscape:version="0.92.2 (5c3e80d, 2017-08-06)"><metadata
     id="metadata23"><rdf:RDF><cc:Work
         rdf:about=""><dc:format>image/svg+xml</dc:format><dc:type
           rdf:resource="http://purl.org/dc/dcmitype/StillImage" /><dc:title></dc:title></cc:Work></rdf:RDF></metadata><defs
     id="defs21" /><sodipodi:namedview
     pagecolor="#ffffff"
     bordercolor="#666666"
     borderopacity="1"
     objecttolerance="10"
     gridtolerance="10"
     guidetolerance="10"
     inkscape:pageopacity="0"
     inkscape:pageshadow="2"
     inkscape:window-width="909"
     inkscape:window-height="480"
     id="namedview19"
     showgrid="false"
     inkscape:zoom="0.472"
     inkscape:cx="250"
     inkscape:cy="250"
     inkscape:window-x="216"
     inkscape:window-y="44"
     inkscape:window-maximized="0"
     inkscape:current-layer="Layer_1" /><g
     id="g16"
     transform="matrix(1.1184001,0,0,1.3478508,-129.23253,-86.500736)"><g
       id="g14"><path
         d="m 323.771,180.378 c -7.091,9.689 -20.445,11.608 -29.828,4.287 -9.383,-7.322 -11.242,-21.112 -4.151,-30.801 7.091,-9.689 20.445,-11.608 29.828,-4.287 9.383,7.321 11.241,21.111 4.151,30.801 z"
         id="path2"
         inkscape:connector-curvature="0" /><g
         id="g6"><path
           d="M 214.461,253.595 195.54,279.45 157.327,268.057 c -5.718,-1.705 -11.691,1.7 -13.342,7.604 l -0.448,1.602 c -1.651,5.904 1.646,12.073 7.364,13.777 l 53.488,15.998 21.58,-29.488 z"
           id="path4"
           inkscape:connector-curvature="0" /></g><g
         id="g10"><path
           d="m 349.781,252.237 -26.867,-7.241 -13.017,-27.098 -15.612,21.334 10.48,21.816 0.009,-0.005 c 1.358,2.691 3.769,4.803 6.837,5.629 l 32.32,8.711 c 5.758,1.552 11.645,-2.01 13.148,-7.956 l 0.408,-1.614 c 1.502,-5.945 -1.948,-12.023 -7.706,-13.576 z"
           id="path8"
           inkscape:connector-curvature="0" /></g><path
         d="m 268.952,179.133 -41.519,-8.146 c 0,0 -9.699,13.254 -12.099,16.533 l -20.138,27.518 c -3.588,4.903 -2.647,11.881 2.101,15.586 l 1.289,1.006 c 1.944,1.517 4.226,2.25 6.488,2.25 3.263,0 6.487,-1.524 8.605,-4.419 l 23.563,-32.199 16.127,3.164 -31.544,43.104 29.318,61.031 -25.541,34.901 c -3.588,4.903 -2.647,11.881 2.101,15.586 l 1.289,1.006 c 1.944,1.517 4.226,2.25 6.488,2.25 3.263,0 6.487,-1.524 8.605,-4.419 l 28.584,-39.059 c 1.297,-1.772 5.594,-7.644 5.594,-7.644 l -18.627,-38.777 45.006,-61.499 -35.655,-27.822 z"
         id="path12"
         inkscape:connector-curvature="0" /></g></g><path
     inkscape:connector-curvature="0"
     d="m 443.9896,201.99659 c 0,-44.15515 -33.91533,-34.34289 -33.91533,-68.68579 0,-2.84555 -0.2374,-5.27899 -0.66983,-7.34938 -2.22993,-17.32844 -12.20951,-31.232415 -25.13973,-35.471305 0.11446,-0.60345 0.17382,-1.23144 0.17382,-1.87414 0,-5.10238 -3.81548,-9.27749 -8.47884,-9.27749 -4.66335,0 -8.47883,4.17511 -8.47883,9.27749 0,0.6427 0.0593,1.26578 0.17382,1.87414 -14.50304,4.75404 -25.29236,21.665465 -25.60183,41.922865 -0.004,0.29437 -0.008,0.59364 -0.008,0.89782 0,34.3429 -33.91533,24.53064 -33.91533,68.68579 0,11.6864 22.60033,21.46431 52.85704,23.9321 2.85312,6.19644 8.48731,10.4108 14.97361,10.4108 6.48631,0 12.12473,-4.21927 14.97362,-10.4108 30.25671,-2.46779 52.85704,-12.24079 52.85704,-23.9321 0,-0.0343 -0.004,-0.0687 -0.004,-0.10302 z m -26.39884,8.29627 c -7.18581,2.21757 -15.65193,3.81206 -24.74547,4.70007 -0.75462,-10.02813 -8.02522,-17.89756 -16.88984,-17.89756 -8.86461,0 -16.13097,7.86943 -16.88983,17.89756 -9.08931,-0.88311 -17.55966,-2.4825 -24.74547,-4.70007 -9.88632,-3.05161 -14.61327,-6.46628 -16.34295,-8.29627 1.72968,-1.82508 6.45663,-5.23974 16.34295,-8.29626 11.4973,-3.55203 26.28014,-5.50467 41.63106,-5.50467 15.35093,0 30.13801,1.95264 41.63107,5.50467 9.88632,3.05161 14.61326,6.46628 16.34295,8.29626 -1.72969,1.82508 -6.45663,5.23975 -16.34295,8.29627 z"
     id="path4-0"
     style="stroke-width:4.56060505" /></svg>