<?xml version="1.0" encoding="UTF-8" standalone="no"?>
<svg
   xmlns:dc="http://purl.org/dc/elements/1.1/"
   xmlns:cc="http://creativecommons.org/ns#"
   xmlns:rdf="http://www.w3.org/1999/02/22-rdf-syntax-ns#"
   xmlns:svg="http://www.w3.org/2000/svg"
   xmlns="http://www.w3.org/2000/svg"
   xmlns:sodipodi="http://sodipodi.sourceforge.net/DTD/sodipodi-0.dtd"
   xmlns:inkscape="http://www.inkscape.org/namespaces/inkscape"
   width="24"
   height="24"
   viewBox="0 0 24 24"
   version="1.1"
   id="svg4"
   sodipodi:docname="music-stream-player.svg"
   inkscape:version="0.92.2 (5c3e80d, 2017-08-06)">
  <metadata
     id="metadata10">
    <rdf:RDF>
      <cc:Work
         rdf:about="">
        <dc:format>image/svg+xml</dc:format>
        <dc:type
           rdf:resource="http://purl.org/dc/dcmitype/StillImage" />
        <dc:title></dc:title>
      </cc:Work>
    </rdf:RDF>
  </metadata>
  <defs
     id="defs8" />
  <sodipodi:namedview
     pagecolor="#ffffff"
     bordercolor="#666666"
     borderopacity="1"
     objecttolerance="10"
     gridtolerance="10"
     guidetolerance="10"
     inkscape:pageopacity="0"
     inkscape:pageshadow="2"
     inkscape:window-width="879"
     inkscape:window-height="480"
     id="namedview6"
     showgrid="false"
     inkscape:zoom="9.8333333"
     inkscape:cx="12"
     inkscape:cy="12"
     inkscape:window-x="122"
     inkscape:window-y="40"
     inkscape:window-maximized="0"
     inkscape:current-layer="svg4" />
  <path
     d="M 13.440678,9.3559322 4.3951741,11.54339 V 19.5 C 2.7105932,19.14061 1,20.519593 1,22.034644 1,23.338576 1.944926,24 2.9707165,24 4.1893374,24 5.5221864,23.067661 5.5238829,21.170034 V 14.519186 L 12.309707,13.01878 v 5.262101 c -1.682319,-0.358169 -3.3929119,1.015322 -3.3929119,2.526712 0,1.307593 0.9698074,1.972068 1.9910739,1.972068 1.210139,0 2.531113,-0.931119 2.532809,-2.828746 z"
     id="path2"
     inkscape:connector-curvature="0"
     style="stroke-width:0.5874027" />
  <path
     d="m 20.827437,2.4572365 c -0.774275,-0.8123871 -1.544259,-2.85504048 -0.560205,-2.58178168 0.884946,0.2457384 0.06355,0.7859305 1.311625,1.96149298 1.052028,0.9908987 2.119143,0.6702391 2.045124,1.551645 C 23.539011,4.0463717 21.5998,3.2676181 20.827437,2.4572365 Z m 3.032692,5.6047274 -0.03977,-2.522895 c -3.246683,0.02407 -5.921709,-2.5016651 -6.004886,-5.67004388 l -2.584621,0.045055 c 0.105214,4.56695758 3.949403,8.19694358 8.629274,8.14788358 z m 0.02786,1.766184 C 18.210739,9.9029859 13.540725,5.5005789 13.43659,-0.05464168 l -2.58462,0.045055 C 10.977349,6.9284909 16.820545,12.451333 23.927691,12.351569 Z"
     id="path2-5"
     inkscape:connector-curvature="0"
     sodipodi:nodetypes="ssscscccccccccc"
     style="stroke-width:0.53051984" />
</svg>
