<?xml version="1.0" encoding="UTF-8" standalone="no"?>
<svg
   xmlns:dc="http://purl.org/dc/elements/1.1/"
   xmlns:cc="http://creativecommons.org/ns#"
   xmlns:rdf="http://www.w3.org/1999/02/22-rdf-syntax-ns#"
   xmlns:svg="http://www.w3.org/2000/svg"
   xmlns="http://www.w3.org/2000/svg"
   xmlns:sodipodi="http://sodipodi.sourceforge.net/DTD/sodipodi-0.dtd"
   xmlns:inkscape="http://www.inkscape.org/namespaces/inkscape"
   width="48"
   height="48"
   viewBox="0 0 48 48"
   version="1.1"
   id="svg4"
   sodipodi:docname="notepad.svg"
   inkscape:version="0.92.4 (5da689c313, 2019-01-14)">
  <metadata
     id="metadata10">
    <rdf:RDF>
      <cc:Work
         rdf:about="">
        <dc:format>image/svg+xml</dc:format>
        <dc:type
           rdf:resource="http://purl.org/dc/dcmitype/StillImage" />
        <dc:title></dc:title>
      </cc:Work>
    </rdf:RDF>
  </metadata>
  <defs
     id="defs8" />
  <sodipodi:namedview
     pagecolor="#ffffff"
     bordercolor="#666666"
     borderopacity="1"
     objecttolerance="10"
     gridtolerance="10"
     guidetolerance="10"
     inkscape:pageopacity="0"
     inkscape:pageshadow="2"
     inkscape:window-width="1742"
     inkscape:window-height="1170"
     id="namedview6"
     showgrid="false"
     inkscape:zoom="9.8333333"
     inkscape:cx="12"
     inkscape:cy="12"
     inkscape:window-x="1162"
     inkscape:window-y="536"
     inkscape:window-maximized="0"
     inkscape:current-layer="svg4" />
  <path
     d="M 17.923729,38.042373 H 9.9576271 v -3.983051 h 7.9661019 z m 5.867034,-8.037797 6.187669,6.183687 -8.189152,1.85411 z M 47.79661,18.376059 32.067542,34.300297 25.690678,27.923432 41.419746,12.001186 Z M 35.847458,36.140466 v 7.876483 H 3.9830508 V 8.1694915 h 7.9661022 l 4.186186,3.9830505 h 7.762966 l 3.983051,-3.9830505 h 7.966102 v 3.8058055 l 3.98305,-4.0308478 V 4.1864407 h -5.974576 c -2.447585,0 -4.341525,-2.1588136 -5.974576,-3.98305087 H 11.949153 C 10.316102,2.0276271 8.422161,4.1864407 5.9745763,4.1864407 H 0 V 48 H 39.830508 V 32.107627 Z M 19.915254,4.1864407 c 1.099322,0 1.991526,0.8922034 1.991526,1.9915254 0,1.099322 -0.892204,1.9915254 -1.991526,1.9915254 -1.099322,0 -1.991525,-0.8922034 -1.991525,-1.9915254 0,-1.099322 0.892203,-1.9915254 1.991525,-1.9915254 z"
     id="path2"
     inkscape:connector-curvature="0"
     style="stroke-width:1.99152541" />
</svg>
