<?xml version="1.0" encoding="UTF-8" standalone="no"?>
<svg
   xmlns:dc="http://purl.org/dc/elements/1.1/"
   xmlns:cc="http://creativecommons.org/ns#"
   xmlns:rdf="http://www.w3.org/1999/02/22-rdf-syntax-ns#"
   xmlns:svg="http://www.w3.org/2000/svg"
   xmlns="http://www.w3.org/2000/svg"
   xmlns:sodipodi="http://sodipodi.sourceforge.net/DTD/sodipodi-0.dtd"
   xmlns:inkscape="http://www.inkscape.org/namespaces/inkscape"
   width="24"
   height="24"
   viewBox="0 0 24 24"
   version="1.1"
   id="svg4"
   sodipodi:docname="overlay-globe.svg"
   inkscape:version="0.92.2 (5c3e80d, 2017-08-06)">
  <metadata
     id="metadata10">
    <rdf:RDF>
      <cc:Work
         rdf:about="">
        <dc:format>image/svg+xml</dc:format>
        <dc:type
           rdf:resource="http://purl.org/dc/dcmitype/StillImage" />
        <dc:title></dc:title>
      </cc:Work>
    </rdf:RDF>
  </metadata>
  <defs
     id="defs8" />
  <sodipodi:namedview
     pagecolor="#ffffff"
     bordercolor="#666666"
     borderopacity="1"
     objecttolerance="10"
     gridtolerance="10"
     guidetolerance="10"
     inkscape:pageopacity="0"
     inkscape:pageshadow="2"
     inkscape:window-width="879"
     inkscape:window-height="480"
     id="namedview6"
     showgrid="false"
     inkscape:zoom="9.8333333"
     inkscape:cx="12"
     inkscape:cy="12"
     inkscape:window-x="75"
     inkscape:window-y="3"
     inkscape:window-maximized="0"
     inkscape:current-layer="svg4" />
  <path
     d="m 18.572,16.689149 c -0.0175,-0.03049 0.171,-0.04712 0.2045,-0.04712 0.037,0.0041 -0.098,0.208763 -0.2045,0.04712 z m -1.075999,-1.418848 0.054,-0.01431 c 0.032,0.0254 -0.03599,0.04388 -0.0255,0.06281 0.043,0.0716 0.01052,0.114542 0.004,0.15334 -0.007,0.03926 -0.05201,0.02217 -0.0745,0.04296 -0.0265,0.03049 0.129,0.03463 0.131001,0.03926 0.0055,0.01524 -0.1875,0.04111 -0.152,0.07898 0.048,0.06282 0.411999,-0.09006 0.354,-0.08128 0.112499,-0.05219 0.0145,-0.05774 -0.0485,-0.08776 -0.02149,-0.0993 -0.0395,-0.252639 -0.1065,-0.314066 l 0.044,-0.04711 c -0.103,-0.138098 -0.18,0.167195 -0.18,0.167195 z M 24,18.457627 C 24,21.518403 21.3135,24 18,24 c -3.314,0 -6,-2.481597 -6,-5.542373 0,-3.060776 2.686,-5.542373 6,-5.542373 3.3135,0 6,2.481597 6,5.542373 z m -4.155,-2.480673 c -0.003,-0.06744 -0.09499,-0.131171 -0.191,-0.01431 -0.0675,0.08036 -0.0555,0.202758 -0.092,0.257258 -0.05201,0.08083 0.2835,0.156573 0.2835,0.08037 0.0125,-0.127937 0.366001,-0.0291 0.435,-0.01154 0.124,0.03187 0.3215,-0.104384 0.105498,-0.175971 -0.1775,-0.06004 -0.271,-0.124241 -0.287,-0.241555 0,0 0.094,-0.08128 0.053,-0.07667 -0.109,0.01247 -0.307,0.363026 -0.307,0.182437 z m 3.148,2.480673 c 0,-0.47803 -0.0885,-0.960678 -0.1785,-1.215627 -0.029,-0.08036 -0.0945,-0.144101 -0.1795,-0.174585 -0.128,-0.04619 -0.6685,0.275734 -0.75,0.117313 -0.0535,-0.105763 -0.162,0.06744 -0.286,0.0037 -0.06,-0.03049 -0.227,-0.237861 -0.3025,-0.212458 -0.1545,0.05126 0.237,0.445237 0.344,0.496966 0.100502,-0.0702 0.426,-0.214767 0.496,-0.01755 0.134,0.37134 -0.3685,0.778242 -0.6255,0.992548 -0.384,0.320533 -0.312,-0.207377 -0.5735,-0.393509 -0.137499,-0.09746 -0.135999,-0.304831 -0.275,-0.37642 -0.062,-0.03233 -0.3465,-0.334851 -0.344,-0.375496 l -0.0085,0.07667 c -0.047,0.03279 -0.146999,-0.12378 -0.157499,-0.148259 0,0.13625 0.24,0.353326 0.3195,0.462326 0.1355,0.187055 0.208,0.459555 0.374,0.612433 0.089,0.08221 0.429,0.422144 0.5175,0.414754 0.0965,-0.0079 0.4015,-0.211534 0.455499,-0.199987 0.322001,0.07021 -0.758,1.480276 -0.860499,1.65486 -0.0845,0.146411 0.069,0.508513 0.0565,0.681712 -0.0145,0.199987 -0.185,0.264649 -0.3465,0.373649 -0.173,0.116851 -0.1325,0.344088 -0.278,0.427224 -0.2585,0.146873 -0.4445,0.624903 -0.8115,0.622592 -0.108001,-4.61e-4 -0.57,0.166272 -0.6305,0.0032 -0.047,-0.118237 -0.11,-0.207839 -0.1765,-0.32469 -0.06499,-0.114543 -0.0075,-0.233242 -0.0865,-0.334391 -0.0545,-0.0702 -0.2375,-0.229546 -0.254,-0.312682 -0.001,-0.07158 0.0585,-0.289127 0.14,-0.327 0.1145,-0.05403 0.022,-0.211533 0.008,-0.302982 -0.024,-0.1635 -0.133499,-0.298365 -0.265,-0.393047 -0.194499,-0.138098 -0.094,-0.248021 -0.0485,-0.445238 0,-0.09422 -0.062,-0.218 -0.199,-0.181051 C 17.785,19.738342 17.8705,19.459383 17.665,19.471852 c -0.147999,0.0097 -0.268999,0.09653 -0.4065,0.134865 -0.173,0.04804 -0.35,-0.03787 -0.521,-0.05774 -0.7035,-0.08221 -0.932999,-0.82489 -0.7495,-1.360653 0.0185,-0.08776 -0.057,-0.250331 -0.024,-0.318224 0.079,-0.162577 0.240001,-0.345013 0.381,-0.468331 0.079,-0.06928 0.180501,-0.05173 0.273501,-0.105763 0.143499,-0.0836 0.145499,-0.255412 0.285999,-0.360717 0.2,-0.150105 0.473,-0.146873 0.734,-0.179203 0.139,-0.01708 0.668,-0.122856 0.751501,-0.02772 0,0.01755 0.09549,0.278967 -0.0095,0.264187 0.216501,0.01068 0.525,0.345936 0.7305,0.26742 0.105498,-0.04064 0.067,-0.339932 0.283501,-0.195369 0.130999,0.08683 0.717999,0.125628 0.839999,0.03186 0.075,-0.05727 0.117,-0.429534 0.026,-0.471564 0.058,0.05312 -0.3055,0.05727 -0.3395,0.04527 -0.06,-0.02032 -0.116,0.05265 -0.2125,0.01155 0.058,0.0254 -0.323,-0.1635 -0.109,-0.308064 -0.0895,0.06051 -0.173001,-0.01708 -0.2695,0.04942 -0.06649,0.04988 0.031,0.08314 -0.064,0.126551 -0.151,0.07066 -0.265,-0.242479 -0.322,-0.278042 -0.058,-0.0351 -0.507001,-0.326077 -0.385,-0.13625 l 0.3945,0.362563 c -0.0195,0.01154 -0.1035,-0.132093 -0.1035,-0.02725 0.0265,-0.06235 0.01,0.26742 -0.05201,0.160267 -0.0275,-0.04111 0.045,-0.0642 0.003,-0.123779 0,-0.03926 -0.114,-0.07759 -0.136,-0.104384 -0.0625,-0.07158 -0.2285,-0.229546 -0.3185,-0.26742 -0.025,-0.01068 -0.382,0.04019 -0.412,0.05081 -0.035,0.04526 -0.06499,0.09284 -0.0895,0.14364 -0.074,0.0254 -0.1435,0.05819 -0.2095,0.09883 l -0.0785,0.163038 c -0.034,0.02817 -0.3825,0.134403 -0.384501,0.138559 0.0145,-0.03463 -0.2435,-0.07898 -0.226499,-0.148258 0.019,-0.07621 0.1065,-0.314068 0.084,-0.400898 -0.024,-0.09098 0.537,0.131169 0.573,-0.108544 0.0145,-0.103917 0.023,-0.224929 -0.1565,-0.242479 0.034,0.0037 0.3475,-0.113619 0.3995,-0.166271 0.073,-0.07759 0.2405,-0.204144 0.361999,-0.204144 0.142,0 0.111501,-0.19075 0.177,-0.284046 0.0655,0.02448 -0.035,0.17366 0.0435,0.234164 -0.005,-0.04757 0.2225,0.02633 0.244499,0.01524 0.052,-0.02494 0.342,-0.01012 0.297001,-0.135789 -0.05,-0.127936 0.0255,-0.09006 0.0905,-0.116851 -0.011,0.0041 0.17,-0.285895 0.201,-0.19075 -0.02149,-0.09791 -0.210499,0.03418 -0.276499,0.0291 -0.1525,-0.01112 -0.088,-0.240169 -0.0305,-0.307139 0.0445,-0.05311 -0.121499,-0.118238 -0.123499,-0.01663 -0.003,0.151952 -0.156,0.289588 -0.1205,0.491423 0.054,0.304369 -0.3675,-0.07343 -0.4045,-0.05265 -0.14,0.07851 -0.254501,-0.09883 -0.182001,-0.205068 0.074,-0.108533 0.2525,-0.103461 0.326,-0.219847 0.052,-0.08222 0.112501,-0.177818 0.192501,-0.24017 0.267499,-0.207377 0.341499,-0.04156 0.608,-0.01894 0.2605,0.02217 0.088,0.05727 0.05199,0.149644 -0.0345,0.08776 0.143,0.119161 0.2045,0.04572 0.035,-0.04249 0.114501,-0.149182 0.149,-0.22816 0.0445,-0.102538 0.4505,-0.09099 0.167,-0.247561 -0.187,-0.102993 -1.002,-0.310373 -1.547999,-0.310373 -0.118,0 -0.2005,0.121471 -0.2905,0.190289 -0.178001,0.13625 -0.634001,0.403669 -0.887501,0.322382 -0.2595,-0.08267 -0.815,0.304829 -0.904,0.307601 -0.0325,0.0019 0.002,-0.292822 0.179,-0.314529 -0.0765,0.01068 0.6235,-0.326539 0.6045,-0.396743 -0.02299,-0.08314 -1.3995,0.379653 -1.338,0.472488 0.0295,0.04249 0.149501,0.04249 -0.008,0.135788 -0.09,0.05034 -0.186,0.369954 -0.270501,0.369954 -0.252499,0.10207 -0.2685,-0.200912 -0.549499,0.188902 l -0.447,0.166271 c -0.664,0.651691 -1.1235,1.477042 -1.29,2.393843 -0.0065,0.03648 0.166999,0.104385 0.1895,0.129322 0.056,0.06189 0.056,0.328848 0.0835,0.41614 0.069,0.220772 0.2395,0.343627 0.37,0.544538 0.077,0.119624 0.205,0.422144 0.1645,0.547772 0.054,-0.08222 0.535,0.376419 0.623,0.472025 0.207,0.224928 0.366501,0.497428 0.0305,0.720047 -0.1085,0.07205 0.165,0.521445 0.024,0.631831 l -0.180499,0.04295 c -0.178001,0.101147 -0.0975,0.349169 0.01052,0.453551 0.909,0.878004 2.189999,1.425775 3.61,1.425775 2.758499,0 4.994499,-2.065457 4.994499,-4.613564 z m -5.7535,-2.936072 c 0.0625,-0.0254 0.1465,-0.02448 0.1555,-0.101615 0.0075,-0.06836 0.022,-0.02124 0.04,-0.04619 0.0175,-0.02448 -0.0335,-0.06373 -0.055,-0.06743 -0.032,-0.0065 -0.054,0.03186 -0.0745,0.04804 l -0.036,0.0088 -0.034,0.04019 0.004,0.02217 -0.0435,0.04896 c -0.0425,0.0388 10e-4,0.0642 0.0435,0.04711 z"
     id="path2"
     inkscape:connector-curvature="0"
     style="stroke-width:0.48055407" />
</svg>
