<?xml version="1.0" encoding="UTF-8" standalone="no"?>
<svg
   xmlns:dc="http://purl.org/dc/elements/1.1/"
   xmlns:cc="http://creativecommons.org/ns#"
   xmlns:rdf="http://www.w3.org/1999/02/22-rdf-syntax-ns#"
   xmlns:svg="http://www.w3.org/2000/svg"
   xmlns="http://www.w3.org/2000/svg"
   xmlns:sodipodi="http://sodipodi.sourceforge.net/DTD/sodipodi-0.dtd"
   xmlns:inkscape="http://www.inkscape.org/namespaces/inkscape"
   width="24"
   height="24"
   viewBox="0 0 24 24"
   version="1.1"
   id="svg4"
   sodipodi:docname="overlay-friend.svg"
   inkscape:version="0.92.2 (5c3e80d, 2017-08-06)">
  <metadata
     id="metadata10">
    <rdf:RDF>
      <cc:Work
         rdf:about="">
        <dc:format>image/svg+xml</dc:format>
        <dc:type
           rdf:resource="http://purl.org/dc/dcmitype/StillImage" />
        <dc:title />
      </cc:Work>
    </rdf:RDF>
  </metadata>
  <defs
     id="defs8" />
  <sodipodi:namedview
     pagecolor="#ffffff"
     bordercolor="#666666"
     borderopacity="1"
     objecttolerance="10"
     gridtolerance="10"
     guidetolerance="10"
     inkscape:pageopacity="0"
     inkscape:pageshadow="2"
     inkscape:window-width="1303"
     inkscape:window-height="689"
     id="namedview6"
     showgrid="false"
     inkscape:zoom="9.8333333"
     inkscape:cx="-10.677966"
     inkscape:cy="12"
     inkscape:window-x="259"
     inkscape:window-y="31"
     inkscape:window-maximized="0"
     inkscape:current-layer="svg4" />
  <path
     d="m 13.958097,20.69905 c 1.642022,-0.385147 3.170183,-0.722334 2.43045,-2.140842 -2.253573,-4.317295 -0.597945,-6.626005 1.781661,-6.626005 2.426152,0 4.040961,2.397367 1.781661,6.626731 -0.762648,1.427229 0.8228,1.763689 2.429733,2.140844 1.421461,0.332825 1.516703,1.03772 1.516703,2.257841 l -0.0021,0.601703 h -0.951698 c 0,-1.518066 0.05944,-1.720087 -0.877941,-1.939548 -1.361309,-0.318293 -2.645997,-0.619144 -3.115759,-1.674305 -0.171148,-0.385149 -0.28286,-1.018827 0.161839,-1.847986 0.982492,-1.839992 1.230979,-3.43436 0.679581,-4.372523 -0.645925,-1.102396 -2.59014,-1.096583 -3.231051,-0.01598 -0.549966,0.925082 -0.30506,2.528172 0.670271,4.396504 0.434674,0.832793 0.320097,1.465017 0.147517,1.847985 -0.472627,1.050075 -1.770204,1.353833 -3.143687,1.675032 -0.896559,0.210739 -0.83927,0.427295 -0.83927,1.930826 h -0.953132 c 0,-1.595822 -0.126034,-2.475123 1.515271,-2.860272 z m -7.2448004,2.860272 h 0.9516991 c 0,-1.393801 -0.1331948,-1.006472 1.30617,-1.433769 0.7261267,-0.214375 1.3677533,-0.5254 1.6584913,-1.171433 0.151814,-0.336459 0.254215,-0.886567 -0.116008,-1.596548 -0.6817298,-1.306597 -0.8729285,-2.451869 -0.509866,-3.063019 0.391708,-0.660565 1.625552,-0.659839 2.018691,0.01087 0.669556,1.138731 -0.567868,2.8937 -0.730424,3.620394 h 0.999679 c 0.315084,-0.726694 0.863618,-1.604542 0.863618,-2.834109 0,-1.460658 -0.939525,-2.252755 -2.146873,-2.252755 -1.7852409,0 -3.0269613,1.731714 -1.3362455,4.969867 0.5542625,1.063881 -0.5915,1.31677 -1.8224785,1.605269 -1.0669915,0.250709 -1.1378855,0.779017 -1.1378855,1.696106 z"
     id="path2"
     inkscape:connector-curvature="0"
     style="stroke-width:0.72137886" />
</svg>
