<?xml version="1.0" encoding="UTF-8" standalone="no"?>
<!-- Generator: Adobe Illustrator 16.0.0, SVG Export Plug-In . SVG Version: 6.00 Build 0)  -->

<svg
   xmlns:dc="http://purl.org/dc/elements/1.1/"
   xmlns:cc="http://creativecommons.org/ns#"
   xmlns:rdf="http://www.w3.org/1999/02/22-rdf-syntax-ns#"
   xmlns:svg="http://www.w3.org/2000/svg"
   xmlns="http://www.w3.org/2000/svg"
   xmlns:sodipodi="http://sodipodi.sourceforge.net/DTD/sodipodi-0.dtd"
   xmlns:inkscape="http://www.inkscape.org/namespaces/inkscape"
   version="1.1"
   id="Capa_1"
   x="0px"
   y="0px"
   width="485.228px"
   height="485.228px"
   viewBox="0 0 485.228 485.228"
   style="enable-background:new 0 0 485.228 485.228;"
   xml:space="preserve"
   sodipodi:docname="search-webcam.svg"
   inkscape:version="0.92.4 (5da689c313, 2019-01-14)"><metadata
   id="metadata47"><rdf:RDF><cc:Work
       rdf:about=""><dc:format>image/svg+xml</dc:format><dc:type
         rdf:resource="http://purl.org/dc/dcmitype/StillImage" /><dc:title></dc:title></cc:Work></rdf:RDF></metadata><defs
   id="defs45" /><sodipodi:namedview
   pagecolor="#ffffff"
   bordercolor="#666666"
   borderopacity="1"
   objecttolerance="10"
   gridtolerance="10"
   guidetolerance="10"
   inkscape:pageopacity="0"
   inkscape:pageshadow="2"
   inkscape:window-width="1139"
   inkscape:window-height="638"
   id="namedview43"
   showgrid="false"
   inkscape:zoom="0.4863693"
   inkscape:cx="242.614"
   inkscape:cy="242.614"
   inkscape:window-x="565"
   inkscape:window-y="207"
   inkscape:window-maximized="0"
   inkscape:current-layer="g8" />
<g
   id="g10">
	<g
   id="g8">
		<path
   d="M474.122,420.51l-91.811-91.839c-14.743,20.731-32.87,38.858-53.602,53.635l91.806,91.806    c14.805,14.813,38.793,14.813,53.606,0C488.93,459.308,488.93,435.318,474.122,420.51z"
   id="path2" />
		<path
   d="M394.221,197.125c0-108.864-88.254-197.119-197.103-197.119C88.252,0.006,0,88.261,0,197.125    s88.252,197.114,197.119,197.114C305.967,394.239,394.221,305.989,394.221,197.125z M197.119,348.754    c-83.606,0-151.631-68.027-151.631-151.629c0-83.606,68.025-151.629,151.631-151.629c83.613,0,151.608,68.022,151.608,151.629    C348.727,280.727,280.737,348.754,197.119,348.754z"
   id="path4" />
		
	<path
   d="m 198.40786,69.53712 c -50.75088,0 -91.88446,38.4473 -91.88446,85.8625 0,47.42465 41.13358,85.86248 91.88446,85.86248 50.75075,0 91.88434,-38.44742 91.88434,-85.86248 0,-47.4152 -41.13359,-85.8625 -91.88434,-85.8625 z m 0,124.02348 c -22.55259,0 -40.83758,-17.08661 -40.83758,-38.16098 0,-21.0745 18.28499,-38.16114 40.83758,-38.16114 22.55246,0 40.83745,17.08664 40.83745,38.16114 0,21.07437 -18.28499,38.16098 -40.83745,38.16098 z m 20.41874,-38.16098 c 0,10.52292 -9.14761,19.08048 -20.41874,19.08048 -11.26102,0 -20.41886,-8.55756 -20.41886,-19.08048 0,-10.52295 9.15784,-19.08064 20.41886,-19.08064 11.27113,0 20.41874,8.55769 20.41874,19.08064 z m 67.34104,119.26288 c 10.26042,10.87598 -0.0981,25.54894 -14.78325,23.6695 -18.32576,-2.33733 -33.03756,-16.23757 -72.96643,-16.23757 -39.92875,0 -54.64053,13.90969 -72.9663,16.23757 -14.69136,1.87944 -25.0539,-12.80311 -14.78325,-23.6695 l 28.52497,-30.25211 c 17.22332,10.03626 37.46849,15.93221 59.21448,15.93221 21.74587,0 41.99117,-5.9054 59.21435,-15.94179 z"
   id="path2-2"
   inkscape:connector-curvature="0"
   style="stroke-width:9.86915684" /></g>
</g>
<g
   id="g12">
</g>
<g
   id="g14">
</g>
<g
   id="g16">
</g>
<g
   id="g18">
</g>
<g
   id="g20">
</g>
<g
   id="g22">
</g>
<g
   id="g24">
</g>
<g
   id="g26">
</g>
<g
   id="g28">
</g>
<g
   id="g30">
</g>
<g
   id="g32">
</g>
<g
   id="g34">
</g>
<g
   id="g36">
</g>
<g
   id="g38">
</g>
<g
   id="g40">
</g>
</svg>