<?xml version="1.0" encoding="UTF-8" standalone="no"?>
<!-- Generator: Adobe Illustrator 16.0.0, SVG Export Plug-In . SVG Version: 6.00 Build 0)  -->

<svg
   xmlns:dc="http://purl.org/dc/elements/1.1/"
   xmlns:cc="http://creativecommons.org/ns#"
   xmlns:rdf="http://www.w3.org/1999/02/22-rdf-syntax-ns#"
   xmlns:svg="http://www.w3.org/2000/svg"
   xmlns="http://www.w3.org/2000/svg"
   xmlns:sodipodi="http://sodipodi.sourceforge.net/DTD/sodipodi-0.dtd"
   xmlns:inkscape="http://www.inkscape.org/namespaces/inkscape"
   version="1.1"
   id="Capa_1"
   x="0px"
   y="0px"
   width="485.228px"
   height="485.228px"
   viewBox="0 0 485.228 485.228"
   style="enable-background:new 0 0 485.228 485.228;"
   xml:space="preserve"
   sodipodi:docname="search-group.svg"
   inkscape:version="0.92.4 (5da689c313, 2019-01-14)"><metadata
   id="metadata47"><rdf:RDF><cc:Work
       rdf:about=""><dc:format>image/svg+xml</dc:format><dc:type
         rdf:resource="http://purl.org/dc/dcmitype/StillImage" /><dc:title /></cc:Work></rdf:RDF></metadata><defs
   id="defs45" /><sodipodi:namedview
   pagecolor="#ffffff"
   bordercolor="#666666"
   borderopacity="1"
   objecttolerance="10"
   gridtolerance="10"
   guidetolerance="10"
   inkscape:pageopacity="0"
   inkscape:pageshadow="2"
   inkscape:window-width="1940"
   inkscape:window-height="1253"
   id="namedview43"
   showgrid="false"
   inkscape:zoom="0.4863693"
   inkscape:cx="-482.14392"
   inkscape:cy="242.614"
   inkscape:window-x="3822"
   inkscape:window-y="440"
   inkscape:window-maximized="0"
   inkscape:current-layer="g8" />
<g
   id="g10">
	<g
   id="g8">
		<path
   d="M474.122,420.51l-91.811-91.839c-14.743,20.731-32.87,38.858-53.602,53.635l91.806,91.806    c14.805,14.813,38.793,14.813,53.606,0C488.93,459.308,488.93,435.318,474.122,420.51z"
   id="path2" />
		<path
   d="M394.221,197.125c0-108.864-88.254-197.119-197.103-197.119C88.252,0.006,0,88.261,0,197.125    s88.252,197.114,197.119,197.114C305.967,394.239,394.221,305.989,394.221,197.125z M197.119,348.754    c-83.606,0-151.631-68.027-151.631-151.629c0-83.606,68.025-151.629,151.631-151.629c83.613,0,151.608,68.022,151.608,151.629    C348.727,280.727,280.737,348.754,197.119,348.754z"
   id="path4" />
		
	<path
   d="m 255.06386,293.80824 h -9.42829 c 0,-16.81409 0.56716,-19.23004 -8.31363,-21.59189 -13.58523,-3.59678 -26.42406,-6.9878 -31.10996,-18.73168 -1.70052,-4.29029 -2.84357,-11.35393 1.46436,-20.66021 9.64568,-20.89861 12.06416,-38.81782 6.63198,-49.16407 -6.34859,-12.07985 -25.57384,-12.13395 -31.97902,0.18455 -5.4417,10.48712 -2.98538,28.30884 6.7359,48.88239 4.39301,9.27374 3.28762,16.3591 1.5871,20.67102 -4.62918,11.79805 -17.34519,15.16737 -30.81701,18.72086 -9.27721,2.45934 -8.69147,4.71271 -8.69147,21.68948 h -9.40003 l -0.0196,-6.74961 c 0,-13.63982 0.94462,-21.50515 15.00218,-25.23205 15.89042,-4.21435 31.59179,-7.97369 24.04336,-23.93204 -22.3522,-47.28984 -6.38632,-74.09278 17.6192,-74.09278 23.54267,0 39.93365,25.81706 17.63807,74.09278 -7.32157,15.86076 7.78456,19.63104 24.04332,23.93204 14.07646,3.7269 15.0118,11.61397 15.0118,25.27543 z m 45.44145,-23.98609 c -12.1775,-3.22857 -23.51422,-6.05621 -18.02538,-17.95176 16.72169,-36.20681 4.44023,-55.56686 -13.2262,-55.56686 -11.95083,0 -21.23751,8.85117 -21.23751,25.18865 0,13.74824 5.42281,23.5637 8.54037,31.68905 h 9.90071 c -1.60597,-8.12535 -13.84967,-27.75628 -7.23659,-40.47535 3.89226,-7.49697 16.09822,-7.50779 19.97159,-0.13004 3.58997,6.83626 1.70992,19.63104 -5.04487,34.24596 -3.66557,7.94113 -2.64526,14.09481 -1.14315,17.85416 2.88143,7.21542 9.23,10.69309 16.40995,13.0873 14.23712,4.77781 12.92391,0.45453 12.92391,16.03414 h 9.41891 l 0.0196,-5.01613 c 0,-10.23799 -0.69918,-16.16406 -11.27062,-18.95928 z M 85.060078,293.80824 h 9.418916 c 0,-15.57906 -1.313186,-11.25635 12.923906,-16.03403 7.18936,-2.39432 13.53791,-5.872 16.40984,-13.08741 1.50213,-3.77016 2.52245,-9.91292 -1.14304,-17.85418 -6.75486,-14.6149 -8.63484,-27.4097 -5.04485,-34.24584 3.87337,-7.38869 16.07923,-7.37787 19.97156,0.13004 6.61309,12.72976 -5.63061,32.34988 -7.23667,40.47534 h 9.9008 c 3.11756,-8.12535 8.5403,-17.94092 8.5403,-31.68905 0.009,-16.34828 -9.27724,-25.19958 -21.22805,-25.19958 -17.66642,0 -29.947873,19.36016 -13.22618,55.56686 5.48892,11.90646 -5.84789,14.7233 -18.025388,17.95176 -10.581024,2.7951 -11.280109,8.72128 -11.280109,18.97009 z"
   id="path2-3"
   inkscape:connector-curvature="0"
   style="stroke-width:10.11684895" /><path
   inkscape:connector-curvature="0"
   d="m 273.86093,137.8001 c 3.55024,-4.1043 5.66869,-9.20694 5.66869,-14.73524 0,-5.52821 -2.11845,-10.63092 -5.66869,-14.73514 l 6.57292,-5.88834 c 5.2625,5.62646 8.46526,12.78328 8.46526,20.62348 0,7.84022 -3.20691,14.99297 -8.46526,20.62762 z m -46.01867,-41.230743 -6.58121,-5.896534 c -8.73319,8.646364 -14.08776,19.952497 -14.08776,32.392037 0,12.43963 5.35457,23.74162 14.08353,32.39206 l 6.58129,-5.89655 c -6.99991,-7.1487 -11.29117,-16.37193 -11.29117,-26.49551 0,-10.12348 4.2954,-19.34681 11.29532,-26.495503 z m 6.54784,47.119083 6.57291,-5.88834 c -3.55023,-4.1043 -5.66866,-9.20694 -5.66866,-14.73524 0,-5.52821 2.11843,-10.63092 5.66866,-14.73514 l -6.57291,-5.88834 c -5.26249,5.62646 -8.46526,12.78328 -8.46526,20.62348 0,7.84022 3.20277,14.99297 8.46526,20.62358 z m 59.1728,-53.015617 -6.57706,5.896534 c 6.99993,7.148693 11.29117,16.372023 11.29117,26.495503 0,10.12358 -4.29124,19.34681 -11.29117,26.49551 l 6.58131,5.89655 c 8.72894,-8.65456 14.08351,-19.95657 14.08351,-32.39206 0,-12.43548 -5.35457,-23.745673 -14.08776,-32.392037 z m -10.68407,98.207317 h -9.0179 c -3.55853,-9.01468 -9.46581,-12.54599 -16.44896,-12.54599 -7.08369,0 -12.92813,3.62551 -16.44896,12.54599 h -8.84619 l 21.10862,-54.29228 c -4.86482,-1.69407 -8.37312,-6.18704 -8.37312,-11.523 0,-6.78038 5.62675,-12.2759 12.55965,-12.2759 6.93293,0 12.55966,5.49552 12.55966,12.2759 0,5.33596 -3.50831,9.83298 -8.3731,11.523 z m -25.46686,-41.79538 -3.56691,9.0596 h 7.12969 z m 8.39826,21.33552 -1.61188,-4.09197 h -13.57284 l -1.61179,4.09197 z"
   id="path3725"
   style="stroke-width:4.13899374" /></g>
</g>
<g
   id="g12">
</g>
<g
   id="g14">
</g>
<g
   id="g16">
</g>
<g
   id="g18">
</g>
<g
   id="g20">
</g>
<g
   id="g22">
</g>
<g
   id="g24">
</g>
<g
   id="g26">
</g>
<g
   id="g28">
</g>
<g
   id="g30">
</g>
<g
   id="g32">
</g>
<g
   id="g34">
</g>
<g
   id="g36">
</g>
<g
   id="g38">
</g>
<g
   id="g40">
</g>
</svg>