<?xml version="1.0" encoding="UTF-8" standalone="no"?>
<!-- Generator: Adobe Illustrator 16.0.0, SVG Export Plug-In . SVG Version: 6.00 Build 0)  -->

<svg
   xmlns:dc="http://purl.org/dc/elements/1.1/"
   xmlns:cc="http://creativecommons.org/ns#"
   xmlns:rdf="http://www.w3.org/1999/02/22-rdf-syntax-ns#"
   xmlns:svg="http://www.w3.org/2000/svg"
   xmlns="http://www.w3.org/2000/svg"
   xmlns:sodipodi="http://sodipodi.sourceforge.net/DTD/sodipodi-0.dtd"
   xmlns:inkscape="http://www.inkscape.org/namespaces/inkscape"
   version="1.1"
   id="Capa_1"
   x="0px"
   y="0px"
   width="485.228px"
   height="485.228px"
   viewBox="0 0 485.228 485.228"
   style="enable-background:new 0 0 485.228 485.228;"
   xml:space="preserve"
   sodipodi:docname="search-random-person.svg"
   inkscape:version="0.92.4 (5da689c313, 2019-01-14)"><metadata
   id="metadata47"><rdf:RDF><cc:Work
       rdf:about=""><dc:format>image/svg+xml</dc:format><dc:type
         rdf:resource="http://purl.org/dc/dcmitype/StillImage" /></cc:Work></rdf:RDF></metadata><defs
   id="defs45" /><sodipodi:namedview
   pagecolor="#ffffff"
   bordercolor="#666666"
   borderopacity="1"
   objecttolerance="10"
   gridtolerance="10"
   guidetolerance="10"
   inkscape:pageopacity="0"
   inkscape:pageshadow="2"
   inkscape:window-width="2660"
   inkscape:window-height="1466"
   id="namedview43"
   showgrid="false"
   inkscape:zoom="0.4863693"
   inkscape:cx="242.614"
   inkscape:cy="242.614"
   inkscape:window-x="0"
   inkscape:window-y="0"
   inkscape:window-maximized="0"
   inkscape:current-layer="g8" />
<g
   id="g10">
	<g
   id="g8">
		<path
   d="M474.122,420.51l-91.811-91.839c-14.743,20.731-32.87,38.858-53.602,53.635l91.806,91.806    c14.805,14.813,38.793,14.813,53.606,0C488.93,459.308,488.93,435.318,474.122,420.51z"
   id="path2" />
		<path
   d="M394.221,197.125c0-108.864-88.254-197.119-197.103-197.119C88.252,0.006,0,88.261,0,197.125    s88.252,197.114,197.119,197.114C305.967,394.239,394.221,305.989,394.221,197.125z M197.119,348.754    c-83.606,0-151.631-68.027-151.631-151.629c0-83.606,68.025-151.629,151.631-151.629c83.613,0,151.608,68.022,151.608,151.629    C348.727,280.727,280.737,348.754,197.119,348.754z"
   id="path4" />
		
	<path
   inkscape:connector-curvature="0"
   d="m 243.96715,190.84372 c -13.45648,9.06854 -29.91436,14.43022 -47.68369,14.43022 -18.00506,0 -34.66215,-5.49932 -48.21824,-14.78684 h -0.58102 c -67.099816,12.09349 -68.962409,78.20411 -68.962409,78.20411 0,0 32.434349,60.48619 114.746989,63.61436 82.31596,3.12816 114.74698,-63.60184 114.74698,-63.60184 -2.61626,-59.04411 -54.07826,-75.13851 -64.04861,-77.86001 z"
   id="path2-5"
   style="stroke-width:3.22271776" /><path
   inkscape:connector-curvature="0"
   d="m 196.28346,66.461645 c -35.98356,0 -65.15753,27.487177 -65.15753,61.390225 0,33.90304 29.17397,61.39023 65.15753,61.39023 35.98688,0 65.15753,-27.48719 65.15753,-61.39023 0,-33.903048 -29.17065,-61.390225 -65.15753,-61.390225 z m 9.64498,106.485845 h -18.16111 v -17.11106 h 18.16111 z m 21.23554,-53.83571 c -2.26433,3.37216 -7.10176,7.95805 -14.51228,13.76392 -3.83475,3.00617 -6.21528,5.42111 -7.1416,7.24796 -0.923,1.82372 -1.34133,5.09265 -1.25833,9.80367 h -16.48444 c -0.0432,-2.23351 -0.0664,-3.59114 -0.0664,-4.07913 0,-5.03322 0.88647,-9.17804 2.64946,-12.42507 1.76631,-3.24703 5.29893,-6.90073 10.60117,-10.96109 5.30225,-4.06036 8.46965,-6.71929 9.50221,-7.97995 1.59034,-1.98951 2.39049,-4.17922 2.39049,-6.57852 0,-3.32837 -1.41105,-6.18126 -4.23316,-8.555528 -2.82211,-2.37428 -6.62366,-3.56298 -11.40796,-3.56298 -4.61166,0 -8.46633,1.23875 -11.57065,3.71626 -3.101,2.477498 -5.23585,6.253198 -6.39789,11.327078 l -16.67701,-1.94885 c 0.47477,-7.26672 3.75839,-13.438588 9.85746,-18.512468 6.09576,-5.07389 14.10059,-7.61083 24.01118,-7.61083 10.42852,0 18.7222,2.56822 24.88768,7.70154 6.15884,5.13645 9.24324,11.114368 9.24324,17.933768 0,3.77882 -1.13548,7.35119 -3.39317,10.72022 z"
   id="path4-7"
   style="stroke-width:3.22271776" /></g>
</g>
<g
   id="g12">
</g>
<g
   id="g14">
</g>
<g
   id="g16">
</g>
<g
   id="g18">
</g>
<g
   id="g20">
</g>
<g
   id="g22">
</g>
<g
   id="g24">
</g>
<g
   id="g26">
</g>
<g
   id="g28">
</g>
<g
   id="g30">
</g>
<g
   id="g32">
</g>
<g
   id="g34">
</g>
<g
   id="g36">
</g>
<g
   id="g38">
</g>
<g
   id="g40">
</g>
</svg>