<?xml version="1.0" encoding="UTF-8" standalone="no"?>
<!-- Generator: Adobe Illustrator 16.0.0, SVG Export Plug-In . SVG Version: 6.00 Build 0)  -->

<svg
   xmlns:dc="http://purl.org/dc/elements/1.1/"
   xmlns:cc="http://creativecommons.org/ns#"
   xmlns:rdf="http://www.w3.org/1999/02/22-rdf-syntax-ns#"
   xmlns:svg="http://www.w3.org/2000/svg"
   xmlns="http://www.w3.org/2000/svg"
   xmlns:sodipodi="http://sodipodi.sourceforge.net/DTD/sodipodi-0.dtd"
   xmlns:inkscape="http://www.inkscape.org/namespaces/inkscape"
   version="1.1"
   id="Capa_1"
   x="0px"
   y="0px"
   width="485.228px"
   height="485.228px"
   viewBox="0 0 485.228 485.228"
   style="enable-background:new 0 0 485.228 485.228;"
   xml:space="preserve"
   sodipodi:docname="search-chat-room.svg"
   inkscape:version="0.92.4 (5da689c313, 2019-01-14)"><metadata
   id="metadata47"><rdf:RDF><cc:Work
       rdf:about=""><dc:format>image/svg+xml</dc:format><dc:type
         rdf:resource="http://purl.org/dc/dcmitype/StillImage" /><dc:title /></cc:Work></rdf:RDF></metadata><defs
   id="defs45" /><sodipodi:namedview
   pagecolor="#ffffff"
   bordercolor="#666666"
   borderopacity="1"
   objecttolerance="10"
   gridtolerance="10"
   guidetolerance="10"
   inkscape:pageopacity="0"
   inkscape:pageshadow="2"
   inkscape:window-width="1493"
   inkscape:window-height="1007"
   id="namedview43"
   showgrid="false"
   inkscape:zoom="0.4863693"
   inkscape:cx="139.56831"
   inkscape:cy="242.614"
   inkscape:window-x="3839"
   inkscape:window-y="702"
   inkscape:window-maximized="0"
   inkscape:current-layer="g8" />
<g
   id="g10">
	<g
   id="g8">
		<path
   d="M474.122,420.51l-91.811-91.839c-14.743,20.731-32.87,38.858-53.602,53.635l91.806,91.806    c14.805,14.813,38.793,14.813,53.606,0C488.93,459.308,488.93,435.318,474.122,420.51z"
   id="path2" />
		<path
   d="M394.221,197.125c0-108.864-88.254-197.119-197.103-197.119C88.252,0.006,0,88.261,0,197.125    s88.252,197.114,197.119,197.114C305.967,394.239,394.221,305.989,394.221,197.125z M197.119,348.754    c-83.606,0-151.631-68.027-151.631-151.629c0-83.606,68.025-151.629,151.631-151.629c83.613,0,151.608,68.022,151.608,151.629    C348.727,280.727,280.737,348.754,197.119,348.754z"
   id="path4" />
		
	<path
   inkscape:connector-curvature="0"
   d="m 269.00636,305.10109 h -25.10255 v 33.81149 l -44.62396,-33.81149 h -64.15374 v -33.8115 h 16.73503 v 16.90574 h 52.99148 l 22.31616,16.90576 v -16.90576 h 25.10255 V 220.5639 h -16.73504 v -16.90576 h 33.47007 z M 218.80127,254.38384 H 137.91249 L 93.288533,288.19533 V 254.38384 H 68.185986 V 136.03515 H 218.80127 Z m -75.30765,-34.52153 h -41.83757 v 9.16291 h 41.83757 z m 41.83758,-24.64858 h -83.67515 v 8.45287 h 83.67515 z m 0,-25.35862 h -83.67515 v 8.45287 h 83.67515 z"
   id="path2-4"
   style="stroke-width:8.41008663" /><path
   inkscape:connector-curvature="0"
   d="m 281.98658,140.96431 c 3.1727,-4.0104 5.06584,-8.99643 5.06584,-14.39827 0,-5.40186 -1.89314,-10.38786 -5.06584,-14.39827 l 5.874,-5.75371 c 4.70294,5.49781 7.56511,12.49103 7.56511,20.15198 0,7.66094 -2.86591,14.65017 -7.56511,20.15597 z m -41.12549,-40.28795 -5.88148,-5.761716 c -7.80456,8.448636 -12.58982,19.496226 -12.58982,31.651396 0,12.15515 4.78526,23.19877 12.58608,31.65139 l 5.88148,-5.7617 c -6.25562,-6.98521 -10.09055,-15.99762 -10.09055,-25.88969 0,-9.89206 3.83867,-18.90447 10.09429,-25.88968 z m 5.85155,46.04165 5.874,-5.7537 c -3.17271,-4.0104 -5.06585,-8.99643 -5.06585,-14.39827 0,-5.40186 1.89314,-10.38786 5.06585,-14.39827 l -5.874,-5.75371 c -4.70294,5.49781 -7.56511,12.49103 -7.56511,20.15198 0,7.66094 2.86217,14.65017 7.56511,20.15197 z m 52.88096,-51.803366 -5.87774,5.761716 c 6.25562,6.98521 10.09056,15.99762 10.09056,25.88968 0,9.89207 -3.83494,18.90448 -10.09056,25.88969 l 5.88148,5.7617 c 7.80083,-8.45662 12.58608,-19.50022 12.58608,-31.65139 0,-12.15116 -4.78525,-23.20276 -12.58982,-31.651396 z m -9.54805,95.961776 h -8.05897 c -3.1802,-8.80849 -8.45932,-12.25911 -14.69997,-12.25911 -6.33045,0 -11.55344,3.54258 -14.69997,12.25911 h -7.90558 l 18.86414,-53.05086 c -4.3475,-1.65535 -7.4828,-6.04559 -7.4828,-11.25952 0,-6.62537 5.02844,-11.99522 11.22421,-11.99522 6.19576,0 11.2242,5.36985 11.2242,11.99522 0,5.21393 -3.1353,9.60818 -7.4828,11.25952 z m -22.75894,-40.83973 -3.18768,8.85247 h 6.37161 z m 7.50525,20.8477 -1.44045,-3.99841 H 261.2218 l -1.44044,3.99841 z"
   id="path2-9"
   style="stroke-width:3.8677702" /></g>
</g>
<g
   id="g12">
</g>
<g
   id="g14">
</g>
<g
   id="g16">
</g>
<g
   id="g18">
</g>
<g
   id="g20">
</g>
<g
   id="g22">
</g>
<g
   id="g24">
</g>
<g
   id="g26">
</g>
<g
   id="g28">
</g>
<g
   id="g30">
</g>
<g
   id="g32">
</g>
<g
   id="g34">
</g>
<g
   id="g36">
</g>
<g
   id="g38">
</g>
<g
   id="g40">
</g>
</svg>