<?xml version="1.0" encoding="UTF-8" standalone="no"?>
<!-- Generator: Adobe Illustrator 16.0.0, SVG Export Plug-In . SVG Version: 6.00 Build 0)  -->

<svg
   xmlns:dc="http://purl.org/dc/elements/1.1/"
   xmlns:cc="http://creativecommons.org/ns#"
   xmlns:rdf="http://www.w3.org/1999/02/22-rdf-syntax-ns#"
   xmlns:svg="http://www.w3.org/2000/svg"
   xmlns="http://www.w3.org/2000/svg"
   xmlns:sodipodi="http://sodipodi.sourceforge.net/DTD/sodipodi-0.dtd"
   xmlns:inkscape="http://www.inkscape.org/namespaces/inkscape"
   version="1.1"
   id="Capa_1"
   x="0px"
   y="0px"
   width="485.228px"
   height="485.228px"
   viewBox="0 0 485.228 485.228"
   style="enable-background:new 0 0 485.228 485.228;"
   xml:space="preserve"
   sodipodi:docname="search-storyboard.svg"
   inkscape:version="0.92.4 (5da689c313, 2019-01-14)"><metadata
   id="metadata47"><rdf:RDF><cc:Work
       rdf:about=""><dc:format>image/svg+xml</dc:format><dc:type
         rdf:resource="http://purl.org/dc/dcmitype/StillImage" /><dc:title></dc:title></cc:Work></rdf:RDF></metadata><defs
   id="defs45" /><sodipodi:namedview
   pagecolor="#ffffff"
   bordercolor="#666666"
   borderopacity="1"
   objecttolerance="10"
   gridtolerance="10"
   guidetolerance="10"
   inkscape:pageopacity="0"
   inkscape:pageshadow="2"
   inkscape:window-width="2111"
   inkscape:window-height="1091"
   id="namedview43"
   showgrid="false"
   inkscape:zoom="0.4863693"
   inkscape:cx="-482.14392"
   inkscape:cy="242.614"
   inkscape:window-x="110"
   inkscape:window-y="115"
   inkscape:window-maximized="0"
   inkscape:current-layer="g8" />
<g
   id="g10">
	<g
   id="g8">
		<path
   d="M474.122,420.51l-91.811-91.839c-14.743,20.731-32.87,38.858-53.602,53.635l91.806,91.806    c14.805,14.813,38.793,14.813,53.606,0C488.93,459.308,488.93,435.318,474.122,420.51z"
   id="path2" />
		<path
   d="M394.221,197.125c0-108.864-88.254-197.119-197.103-197.119C88.252,0.006,0,88.261,0,197.125    s88.252,197.114,197.119,197.114C305.967,394.239,394.221,305.989,394.221,197.125z M197.119,348.754    c-83.606,0-151.631-68.027-151.631-151.629c0-83.606,68.025-151.629,151.631-151.629c83.613,0,151.608,68.022,151.608,151.629    C348.727,280.727,280.737,348.754,197.119,348.754z"
   id="path4" />
		
	<path
   inkscape:connector-curvature="0"
   d="m 283.96559,178.22076 c -9.69065,14.05577 -24.80765,28.3799 -43.67724,27.79694 -4.40291,6.53283 -9.08299,15.51779 -14.2748,25.93702 l -13.98695,5.11708 c 9.9785,-21.6805 23.78422,-45.90566 39.4236,-64.71764 -7.14273,4.895 -18.61375,15.14767 -28.37902,25.75196 -11.70555,-16.91505 -3.19824,-34.15397 10.37294,-47.92288 0.22388,5.93136 3.82722,11.06696 6.40713,13.64863 -0.92749,-4.90426 -1.21532,-13.77818 2.07886,-21.75453 7.65445,-6.77342 14.54132,-11.76096 22.52624,-16.28583 -0.88485,4.42308 0.85286,9.49391 2.79313,12.59376 0.25585,-4.53412 2.38802,-13.23223 5.55427,-17.02609 9.85056,-6.72715 24.86095,-12.70478 41.49178,-13.83369 -0.86353,9.00347 -4.6481,23.82726 -10.91664,33.34892 -5.49031,3.73833 -13.01682,6.29225 -19.09347,7.70801 5.25576,0.82354 10.99126,0.7125 15.92722,-0.009 -2.86776,6.8752 -5.88476,13.21372 -10.63947,21.06052 -7.23868,4.33055 -16.82273,6.77343 -23.48572,7.63398 4.90397,1.73037 13.56053,2.26706 17.87814,0.95309 z m -147.55595,35.20884 6.8762,7.22683 50.88394,-25.82599 -7.1214,-7.10653 z m 74.19908,-2.20229 -7.12141,-7.09729 -51.22508,25.98329 6.87621,7.22684 z m 49.88182,0.0648 c -4.48819,1.87842 -9.07233,3.15538 -13.70977,3.68282 -1.2793,2.13751 -2.62256,4.57113 -4.01912,7.1528 l 3.17691,3.16463 c 6.64168,6.4033 4.8933,15.76764 -4.00845,20.71817 -8.24079,4.59888 -56.93926,31.23916 -68.07979,37.33709 -0.7889,-6.67163 -3.81656,-12.87135 -8.80581,-18.02545 -4.99991,-5.15408 -65.19071,-68.25239 -80.201104,-84.92686 -4.999908,-5.55198 -6.129952,-11.52036 -3.144932,-16.804 2.857092,-5.08007 8.976383,-8.49454 15.244929,-8.49454 9.797267,0 15.010397,6.06091 16.513557,11.24277 1.70573,5.93137 -0.37312,11.39083 -6.64167,15.59183 l 14.16819,15.02737 83.11149,-41.14021 c 15.15964,-9.72522 19.42396,-27.67665 9.91453,-41.76018 -6.58836,-9.74373 -18.75232,-15.786141 -31.74782,-15.786141 -12.66501,0 -8.45401,-0.148047 -101.970429,41.408551 -13.155411,5.46871 -21.854614,16.53566 -21.854614,29.62909 0,8.05038 3.283522,16.24881 9.47744,23.01298 15.212943,16.60043 80.606213,84.99163 81.192563,85.65787 3.95515,4.56189 4.55215,10.35445 1.59912,15.48079 -2.95304,5.13558 -8.65656,8.19843 -15.23427,8.19843 -9.79726,0 -15.01039,-6.06092 -16.51356,-11.25202 -1.66308,-5.82033 0.12793,-11.178 6.43911,-15.30498 l -13.61382,-14.29636 c -8.76317,6.15345 -13.61383,13.84295 -14.679907,22.59658 -2.473304,20.40354 16.257697,36.94846 38.517427,36.94846 6.35382,0 13.97629,-1.63784 19.62651,-4.71918 l 100.49924,-55.02017 c 10.20237,-6.1442 15.90589,-16.48015 15.90589,-26.80684 0,-6.89371 -2.55858,-13.45431 -7.33462,-18.53437 z m -84.57202,-93.10678 c 2.00422,-0.80504 4.24299,-1.23994 6.49242,-1.23994 5.67153,0 10.6288,2.60017 13.25135,6.95848 3.32617,5.51497 2.40934,13.59311 -5.84211,17.69233 l -54.33803,26.72355 c -0.5437,-10.07685 -6.1726,-19.25613 -15.51144,-25.28004 z m 22.35567,123.83699 3.84854,-8.37425 2.65454,-5.63526 -36.76906,18.66392 6.87621,7.22684 z"
   id="path2-3"
   style="stroke-width:9.93214798" /></g>
</g>
<g
   id="g12">
</g>
<g
   id="g14">
</g>
<g
   id="g16">
</g>
<g
   id="g18">
</g>
<g
   id="g20">
</g>
<g
   id="g22">
</g>
<g
   id="g24">
</g>
<g
   id="g26">
</g>
<g
   id="g28">
</g>
<g
   id="g30">
</g>
<g
   id="g32">
</g>
<g
   id="g34">
</g>
<g
   id="g36">
</g>
<g
   id="g38">
</g>
<g
   id="g40">
</g>
</svg>