<?xml version="1.0" encoding="UTF-8" standalone="no"?>
<svg
   xmlns:dc="http://purl.org/dc/elements/1.1/"
   xmlns:cc="http://creativecommons.org/ns#"
   xmlns:rdf="http://www.w3.org/1999/02/22-rdf-syntax-ns#"
   xmlns:svg="http://www.w3.org/2000/svg"
   xmlns="http://www.w3.org/2000/svg"
   xmlns:sodipodi="http://sodipodi.sourceforge.net/DTD/sodipodi-0.dtd"
   xmlns:inkscape="http://www.inkscape.org/namespaces/inkscape"
   width="24"
   height="24"
   viewBox="0 0 24 24"
   version="1.1"
   id="svg4"
   sodipodi:docname="service-group-listing-host-settings.svg"
   inkscape:version="0.92.4 (5da689c313, 2019-01-14)">
  <metadata
     id="metadata10">
    <rdf:RDF>
      <cc:Work
         rdf:about="">
        <dc:format>image/svg+xml</dc:format>
        <dc:type
           rdf:resource="http://purl.org/dc/dcmitype/StillImage" />
        <dc:title />
      </cc:Work>
    </rdf:RDF>
  </metadata>
  <defs
     id="defs8" />
  <sodipodi:namedview
     pagecolor="#ffffff"
     bordercolor="#666666"
     borderopacity="1"
     objecttolerance="10"
     gridtolerance="10"
     guidetolerance="10"
     inkscape:pageopacity="0"
     inkscape:pageshadow="2"
     inkscape:window-width="1908"
     inkscape:window-height="1424"
     id="namedview6"
     showgrid="false"
     inkscape:zoom="19.666667"
     inkscape:cx="23.847458"
     inkscape:cy="12"
     inkscape:window-x="1497"
     inkscape:window-y="234"
     inkscape:window-maximized="0"
     inkscape:current-layer="svg4" />
  <path
     d="m 14.209559,23.627119 h -0.765415 c 0,-1.111605 0.04602,-1.271327 -0.674915,-1.427468 -1.102873,-0.237791 -2.145156,-0.461975 -2.525563,-1.238379 -0.138051,-0.283631 -0.230851,-0.75062 0.118877,-1.365871 0.783055,-1.381628 0.979394,-2.566289 0.538398,-3.250299 -0.515389,-0.798608 -2.0761304,-0.802189 -2.5961218,0.01218 -0.4417624,0.693321 -0.2423557,1.871537 0.546835,3.231678 0.356631,0.613101 0.2668979,1.081522 0.1288473,1.366586 -0.3758051,0.779987 -1.4081186,1.002737 -2.5017877,1.237663 -0.7531437,0.162585 -0.7055929,0.311563 -0.7055929,1.433912 H 5.0100068 l -0.00153,-0.446218 c 0,-0.901747 0.076695,-1.421738 1.2179149,-1.668125 1.2900079,-0.278617 2.5646773,-0.527152 1.9518846,-1.582174 -1.8146008,-3.126391 -0.5184573,-4.898369 1.4303599,-4.898369 1.9112368,0 3.2418928,1.706801 1.4318938,4.898368 -0.594386,1.048576 0.631966,1.297828 1.951885,1.582175 1.142753,0.246387 1.218681,0.76781 1.218681,1.67099 z m 3.689024,-1.585757 c -0.988597,-0.213439 -1.908936,-0.400378 -1.463339,-1.18681 1.3575,-2.393675 0.360466,-3.673597 -1.073728,-3.673597 -0.970191,0 -1.724101,0.585168 -1.724101,1.665259 0,0.908909 0.440229,1.557823 0.693322,2.095003 h 0.803762 c -0.130381,-0.53718 -1.124347,-1.835008 -0.587483,-2.675874 0.315983,-0.495639 1.306881,-0.496355 1.62133,-0.0086 0.291441,0.451947 0.138818,1.297827 -0.40955,2.264036 -0.297577,0.525004 -0.214746,0.931828 -0.0928,1.180364 0.23392,0.477016 0.74931,0.70693 1.332191,0.865218 1.155792,0.315862 1.049186,0.03008 1.049186,1.060036 h 0.764648 l 0.0015,-0.33162 c 0,-0.676846 -0.05675,-1.06863 -0.914971,-1.25342 z M 0.40831356,23.627119 H 1.1729615 c 0,-1.029954 -0.1066058,-0.744174 1.0491861,-1.060036 0.5836481,-0.158289 1.0990377,-0.388202 1.3321902,-0.865219 0.1219448,-0.249251 0.2047753,-0.655359 -0.092801,-1.180363 -0.5483685,-0.966209 -0.7009913,-1.812089 -0.4095508,-2.264036 0.3144491,-0.488477 1.305347,-0.487761 1.62133,0.0086 0.5368642,0.841582 -0.4571015,2.138694 -0.5874829,2.675874 h 0.8037625 c 0.2530931,-0.537179 0.6933217,-1.186093 0.6933217,-2.095002 7.67e-4,-1.080807 -0.7531437,-1.665975 -1.7233341,-1.665975 -1.4341943,0 -2.4312279,1.279922 -1.0737283,3.673597 0.4455972,0.787149 -0.4747414,0.973371 -1.4633386,1.18681 -0.85898262,0.184791 -0.91573684,0.576574 -0.91573684,1.254138 z"
     id="path2"
     inkscape:connector-curvature="0"
     style="stroke-width:0.74116111" />
  <path
     inkscape:connector-curvature="0"
     d="m 16.419469,13.706724 c 0.20778,-0.257756 0.331762,-0.578215 0.331762,-0.925401 0,-0.347186 -0.123982,-0.667646 -0.331762,-0.925401 l 0.384687,-0.369801 c 0.307994,0.353354 0.495437,0.80282 0.495437,1.295202 0,0.492382 -0.187688,0.941591 -0.495437,1.295459 z M 13.726177,11.117349 13.341,10.747034 c -0.511117,0.543008 -0.824501,1.253056 -0.824501,2.034289 0,0.781233 0.313384,1.491024 0.824258,2.034289 l 0.385175,-0.370315 c -0.409678,-0.448952 -0.660827,-1.028195 -0.660827,-1.663974 0,-0.635779 0.251394,-1.215023 0.661072,-1.663974 z m 0.383216,2.959175 0.384686,-0.3698 c -0.207779,-0.257756 -0.331761,-0.578215 -0.331761,-0.925401 0,-0.347186 0.123982,-0.667646 0.331761,-0.925401 l -0.384686,-0.369801 c -0.307994,0.353354 -0.495436,0.80282 -0.495436,1.295202 0,0.492382 0.187442,0.941591 0.495436,1.295201 z m 3.463156,-3.32949 -0.384932,0.370315 c 0.409678,0.448951 0.660826,1.028195 0.660826,1.663974 0,0.635779 -0.251148,1.215022 -0.660826,1.663974 l 0.385176,0.370315 c 0.510873,-0.543523 0.824257,-1.253314 0.824257,-2.034289 0,-0.780976 -0.313384,-1.491281 -0.824501,-2.034289 z m -0.625299,6.167627 h -0.527781 c -0.208269,-0.566137 -0.553997,-0.787914 -0.962695,-0.787914 -0.414578,0 -0.75663,0.227688 -0.962695,0.787914 h -0.517733 l 1.235406,-3.40967 c -0.284717,-0.106391 -0.490046,-0.38856 -0.490046,-0.723668 0,-0.425823 0.329311,-0.770954 0.735068,-0.770954 0.405759,0 0.73507,0.345131 0.73507,0.770954 0,0.335108 -0.20533,0.617533 -0.490046,0.723668 z m -1.490476,-2.624839 -0.208759,0.568963 h 0.417275 z m 0.491517,1.339917 -0.09433,-0.256984 h -0.794365 l -0.09433,0.256984 z"
     id="path3725"
     style="stroke-width:0.25093246" />
  <path
     inkscape:connector-curvature="0"
     d="m 10.357817,10.182147 c 0.204927,-0.2577553 0.327207,-0.5782146 0.327207,-0.9254006 0,-0.3471865 -0.12228,-0.6676458 -0.327207,-0.9254013 l 0.379405,-0.3698006 c 0.303765,0.3533534 0.488635,0.8028197 0.488635,1.2952019 0,0.4923817 -0.185111,0.9415906 -0.488635,1.2954586 z M 7.7014984,7.5927718 7.3216099,7.2224574 c -0.5041007,0.543008 -0.8131825,1.2530559 -0.8131825,2.034289 0,0.7812326 0.3090818,1.4910236 0.8129415,2.0342886 L 7.7012566,10.92072 C 7.2972029,10.471769 7.049502,9.8925254 7.049502,9.2567464 c 0,-0.6357795 0.2479426,-1.2150227 0.6519964,-1.6639746 z M 8.0794537,10.551948 8.4588589,10.182147 C 8.2539321,9.9243917 8.1316523,9.6039324 8.1316523,9.2567464 c 0,-0.3471865 0.1222798,-0.6676458 0.3272066,-0.9254013 L 8.0794537,7.9615445 C 7.7756878,8.3148979 7.5908186,8.7643642 7.5908186,9.2567464 c 0,0.4923817 0.1848692,0.9415906 0.4886351,1.2952016 z M 11.495065,7.2224574 11.115419,7.5927718 c 0.404054,0.4489519 0.651754,1.0281951 0.651754,1.6639746 0,0.635779 -0.2477,1.2150226 -0.651754,1.6639736 l 0.379888,0.370315 c 0.503859,-0.543522 0.812941,-1.253313 0.812941,-2.0342886 0,-0.7809758 -0.309082,-1.491281 -0.813183,-2.034289 z M 10.878351,13.390084 H 10.357817 C 10.152407,12.823947 9.8114254,12.60217 9.4083377,12.60217 c -0.4088875,0 -0.7462436,0.227688 -0.9494788,0.787914 H 7.9482329 L 9.166679,9.9804143 C 8.8858711,9.874023 8.68336,9.591854 8.68336,9.2567464 c 0,-0.4258235 0.3247908,-0.7709537 0.7249777,-0.7709537 0.4001885,0 0.7249783,0.3451302 0.7249783,0.7709537 0,0.3351076 -0.2025108,0.6175333 -0.4833187,0.7236679 z M 9.4083377,10.765245 9.202444,11.334208 h 0.4115462 z m 0.4847687,1.339917 -0.093039,-0.256985 H 9.0166078 l -0.093038,0.256985 z"
     id="path3725-7"
     style="stroke-width:0.24920404" />
  <path
     inkscape:connector-curvature="0"
     d="m 4.6794647,13.855175 c 0.20778,-0.257755 0.3317618,-0.578215 0.3317618,-0.925401 0,-0.347186 -0.1239818,-0.667646 -0.3317618,-0.925401 l 0.3846868,-0.369801 c 0.3079936,0.353354 0.4954365,0.80282 0.4954365,1.295202 0,0.492382 -0.1876882,0.941591 -0.4954365,1.295459 z M 1.9861722,11.2658 1.6009956,10.895485 c -0.5111176,0.543008 -0.82450154,1.253056 -0.82450154,2.034289 0,0.781233 0.31338394,1.491023 0.82425784,2.034289 l 0.385175,-0.370315 C 1.5762494,14.144797 1.3251001,13.565553 1.3251001,12.929774 c 0,-0.635779 0.2513946,-1.215022 0.6610721,-1.663974 z m 0.3832157,2.959175 0.3846868,-0.3698 C 2.5462955,13.59742 2.4223137,13.27696 2.4223137,12.929774 c 0,-0.347186 0.1239818,-0.667646 0.331761,-0.925401 L 2.3693879,11.634572 c -0.3079936,0.353354 -0.4954357,0.80282 -0.4954357,1.295202 0,0.492382 0.1874421,0.941591 0.4954357,1.295201 z M 5.8325438,10.895485 5.4476125,11.2658 c 0.4096775,0.448952 0.660826,1.028195 0.660826,1.663974 0,0.635779 -0.2511485,1.215023 -0.660826,1.663974 l 0.3851758,0.370315 c 0.5108732,-0.543523 0.8242571,-1.253313 0.8242571,-2.034289 0,-0.780976 -0.3133839,-1.491281 -0.8245016,-2.034289 z M 5.2072454,17.063112 H 4.6794647 c -0.208269,-0.566137 -0.5539971,-0.787914 -0.962695,-0.787914 -0.4145788,0 -0.7566305,0.227689 -0.962695,0.787914 H 2.2363411 l 1.2354063,-3.40967 c -0.2847169,-0.106391 -0.4900462,-0.38856 -0.4900462,-0.723668 0,-0.425823 0.3293111,-0.770953 0.7350685,-0.770953 0.4057582,0 0.7350693,0.34513 0.7350693,0.770953 0,0.335108 -0.2053301,0.617534 -0.4900462,0.723668 z M 3.7167697,14.438273 3.5080101,15.007236 h 0.4172747 z m 0.4915164,1.339917 -0.094333,-0.256984 h -0.794365 l -0.094334,0.256984 z"
     id="path3725-4"
     style="stroke-width:0.25093246" />
  <path
     inkscape:connector-curvature="0"
     d="M 23.704218,6.1336126 V 4.3265575 C 22.853209,4.0100956 22.624214,3.9952228 22.504962,3.6948732 22.384917,3.3936973 22.537846,3.2119176 22.924523,2.3633372 L 21.699119,1.0855088 C 20.896445,1.4833583 20.713407,1.6490256 20.421813,1.5230193 20.133786,1.3982524 20.117542,1.1557418 19.816837,0.2724577 H 18.083521 C 17.780834,1.1582206 17.766572,1.3982524 17.477752,1.5230193 17.17982,1.6523308 17.00114,1.4817058 16.200843,1.0855088 l -1.225405,1.2778284 c 0.387075,0.8489936 0.539606,1.029947 0.419562,1.3319491 -0.119648,0.3003496 -0.349041,0.3156356 -1.199256,0.6312712 v 1.8074681 c 0.847443,0.3139832 1.079608,0.3305086 1.199256,0.6312713 0.12044,0.3032415 -0.03209,0.4821292 -0.419562,1.331536 l 1.225405,1.2778285 c 0.791977,-0.3924792 0.978581,-0.5672352 1.276909,-0.4375109 0.288424,0.1247668 0.302686,0.3635595 0.605769,1.2505615 h 1.732919 c 0.30031,-0.8803919 0.316554,-1.1249683 0.608939,-1.2522143 0.29516,-0.1272451 0.469877,0.040903 1.27374,0.43875 L 22.924523,8.0964198 C 22.538242,7.2494918 22.384917,7.0668859 22.504962,6.7648838 22.623818,6.4649473 22.853606,6.4496613 23.704218,6.1336126 Z M 21.77281,6.4492482 c -0.228601,0.575911 -0.02694,1.0154873 0.193338,1.4781991 L 21.536683,8.3752864 C 21.10365,8.150954 20.680523,7.9307524 20.121108,8.1728499 19.568032,8.4128816 19.411935,8.8722883 19.254252,9.3614411 h -0.60775 C 18.48882,8.8718756 18.333119,8.4124689 17.781627,8.1736762 17.219438,7.9307524 16.788388,8.155085 16.363676,8.3752864 L 15.934606,7.9274473 C 16.155282,7.4655617 16.35694,7.0268117 16.127549,6.4484219 15.898157,5.8737503 15.457598,5.711388 14.988117,5.54696 V 4.9136232 c 0.469481,-0.164428 0.91004,-0.3267903 1.139036,-0.9022882 0.228995,-0.575911 0.02694,-1.0159004 -0.19334,-1.4786122 l 0.429467,-0.447839 c 0.428674,0.2222668 0.856554,0.444947 1.418347,0.2016101 0.551492,-0.2383793 0.707193,-0.6981991 0.864875,-1.1877648 h 0.60775 c 0.157683,0.4895657 0.31378,0.9489724 0.865271,1.1877648 0.562189,0.2429237 0.992844,0.018591 1.417952,-0.2016101 l 0.429465,0.447839 c -0.220279,0.463125 -0.421938,0.9035275 -0.193338,1.4790254 0.2286,0.5746716 0.669159,0.7370339 1.139036,0.901875 v 0.63375 c -0.47067,0.1644279 -0.912021,0.3267902 -1.139828,0.901875 z m -2.822829,-2.45857 c 0.655292,0 1.18856,0.5560806 1.18856,1.2394068 0,0.6833263 -0.533268,1.2394068 -1.18856,1.2394068 -0.655293,0 -1.188559,-0.5560805 -1.188559,-1.2394068 0,-0.6833262 0.533266,-1.2394068 1.188559,-1.2394068 z m 0,-0.8262711 c -1.094267,0 -1.980932,0.9245974 -1.980932,2.0656779 0,1.1410805 0.886665,2.065678 1.980932,2.065678 1.094267,0 1.980933,-0.9245975 1.980933,-2.065678 0,-1.1410805 -0.886666,-2.0656779 -1.980933,-2.0656779 z"
     id="path2-1"
     style="stroke-width:0.40457228" />
</svg>
