<?xml version="1.0" encoding="UTF-8" standalone="no"?>
<svg
   xmlns:dc="http://purl.org/dc/elements/1.1/"
   xmlns:cc="http://creativecommons.org/ns#"
   xmlns:rdf="http://www.w3.org/1999/02/22-rdf-syntax-ns#"
   xmlns:svg="http://www.w3.org/2000/svg"
   xmlns="http://www.w3.org/2000/svg"
   xmlns:sodipodi="http://sodipodi.sourceforge.net/DTD/sodipodi-0.dtd"
   xmlns:inkscape="http://www.inkscape.org/namespaces/inkscape"
   width="24"
   height="24"
   viewBox="0 0 24 24"
   version="1.1"
   id="svg4"
   sodipodi:docname="connect-random-relay-service.svg"
   inkscape:version="0.92.4 (5da689c313, 2019-01-14)">
  <metadata
     id="metadata10">
    <rdf:RDF>
      <cc:Work
         rdf:about="">
        <dc:format>image/svg+xml</dc:format>
        <dc:type
           rdf:resource="http://purl.org/dc/dcmitype/StillImage" />
        <dc:title></dc:title>
      </cc:Work>
    </rdf:RDF>
  </metadata>
  <defs
     id="defs8" />
  <sodipodi:namedview
     pagecolor="#ffffff"
     bordercolor="#666666"
     borderopacity="1"
     objecttolerance="10"
     gridtolerance="10"
     guidetolerance="10"
     inkscape:pageopacity="0"
     inkscape:pageshadow="2"
     inkscape:window-width="2503"
     inkscape:window-height="1279"
     id="namedview6"
     showgrid="false"
     inkscape:zoom="13.906433"
     inkscape:cx="-25.677931"
     inkscape:cy="23.801623"
     inkscape:window-x="1137"
     inkscape:window-y="562"
     inkscape:window-maximized="0"
     inkscape:current-layer="svg4" />
  <path
     d="m 12.504889,16.430593 c -0.01371,-0.02545 0.133893,-0.03934 0.160122,-0.03934 0.02897,0.0034 -0.07673,0.174288 -0.160122,0.03934 z m -0.842501,-1.184542 0.04229,-0.01195 c 0.02505,0.02121 -0.02818,0.03663 -0.01997,0.05244 0.03367,0.05978 0.0083,0.09563 0.0031,0.128018 -0.0055,0.03278 -0.04072,0.01851 -0.05833,0.03587 -0.02075,0.02545 0.101007,0.02891 0.102574,0.03278 0.0043,0.01272 -0.146812,0.03432 -0.119016,0.06594 0.03759,0.05245 0.322593,-0.07519 0.277181,-0.06786 0.08809,-0.04357 0.01136,-0.0482 -0.03798,-0.07327 -0.01683,-0.0829 -0.03093,-0.210919 -0.08339,-0.262202 l 0.03445,-0.03933 c -0.08065,-0.115293 -0.140939,0.139585 -0.140939,0.139585 z m 5.092598,2.660978 c 0,2.555327 -2.103516,4.627119 -4.69797,4.627119 -2.5948445,0 -4.6979692,-2.071792 -4.6979692,-4.627119 0,-2.555327 2.1031247,-4.627119 4.6979692,-4.627119 2.594454,0 4.69797,2.071792 4.69797,4.627119 z m -3.253344,-2.07102 c -0.0023,-0.0563 -0.07437,-0.10951 -0.149552,-0.01195 -0.05285,0.06709 -0.04345,0.169275 -0.07203,0.214775 -0.04073,0.06748 0.221978,0.130717 0.221978,0.0671 0.0098,-0.10681 0.286578,-0.02429 0.340604,-0.0096 0.09709,0.02661 0.251732,-0.08715 0.08261,-0.146911 -0.138982,-0.05013 -0.212192,-0.103724 -0.22472,-0.201665 0,0 0.0736,-0.06786 0.0415,-0.06401 -0.08534,0.01041 -0.24038,0.303076 -0.24038,0.15231 z m 2.464867,2.07102 c 0,-0.399089 -0.0693,-0.802034 -0.139764,-1.014881 -0.0227,-0.06709 -0.074,-0.120305 -0.140547,-0.145754 -0.100224,-0.03856 -0.523432,0.230199 -0.587247,0.09794 -0.04189,-0.0883 -0.126845,0.0563 -0.223936,0.0031 -0.04698,-0.02546 -0.17774,-0.198581 -0.236856,-0.177373 -0.120973,0.04279 0.185569,0.371711 0.26935,0.414898 0.0787,-0.05861 0.333556,-0.179301 0.388366,-0.01465 0.104921,0.310018 -0.288534,0.649725 -0.489764,0.828641 -0.30067,0.267601 -0.244294,-0.173131 -0.449047,-0.328526 -0.107661,-0.08137 -0.106487,-0.254492 -0.215324,-0.314259 -0.04855,-0.02699 -0.271308,-0.279554 -0.26935,-0.313487 l -0.0066,0.06401 c -0.0368,0.02737 -0.1151,-0.10334 -0.123321,-0.123776 0,0.11375 0.187918,0.294978 0.250166,0.385978 0.106096,0.156165 0.162863,0.383665 0.29284,0.511298 0.06969,0.06863 0.335905,0.352432 0.4052,0.346262 0.07556,-0.0066 0.314373,-0.176602 0.356654,-0.166962 0.252124,0.05862 -0.59351,1.235827 -0.673767,1.381581 -0.06616,0.122233 0.05403,0.424538 0.04424,0.569136 -0.01136,0.166961 -0.144854,0.220945 -0.271307,0.311945 -0.135459,0.09755 -0.103747,0.287266 -0.217673,0.356673 -0.202404,0.122619 -0.348041,0.521708 -0.635401,0.519779 -0.08456,-3.85e-4 -0.446306,0.138814 -0.493677,0.0027 -0.03681,-0.09871 -0.08613,-0.173516 -0.138199,-0.271071 -0.05089,-0.09563 -0.0058,-0.194725 -0.06773,-0.27917 -0.04267,-0.05861 -0.185961,-0.19164 -0.19888,-0.261047 -7.84e-4,-0.05976 0.0458,-0.241381 0.109619,-0.273 0.08965,-0.04511 0.01722,-0.176601 0.0063,-0.252948 -0.01879,-0.1365 -0.104529,-0.249094 -0.207493,-0.32814 -0.152293,-0.115293 -0.0736,-0.207064 -0.03797,-0.371713 0,-0.07866 -0.04855,-0.182 -0.155816,-0.151152 -0.220806,0.06323 -0.153859,-0.16966 -0.314765,-0.15925 -0.115883,0.0081 -0.210625,0.08059 -0.318288,0.112593 -0.135457,0.04011 -0.274048,-0.03162 -0.40794,-0.0482 -0.550837,-0.06863 -0.730533,-0.688669 -0.586854,-1.135958 0.01449,-0.07327 -0.04463,-0.208992 -0.01879,-0.265673 0.06186,-0.135729 0.18792,-0.288038 0.298322,-0.390992 0.06186,-0.05784 0.141331,-0.04319 0.214149,-0.0883 0.11236,-0.06979 0.113925,-0.213234 0.223936,-0.30115 0.1566,-0.125317 0.370357,-0.122618 0.574718,-0.149609 0.108837,-0.01426 0.523041,-0.102568 0.588422,-0.02314 0,0.01465 0.07477,0.232899 -0.0074,0.22056 0.16952,0.0089 0.411073,0.288809 0.571978,0.223259 0.08261,-0.03393 0.05246,-0.283796 0.22198,-0.163106 0.102571,0.07249 0.56219,0.104882 0.657715,0.0266 0.05873,-0.04781 0.09161,-0.358601 0.02036,-0.393691 0.04542,0.04435 -0.239204,0.04781 -0.265826,0.03779 -0.04698,-0.01696 -0.09083,0.04396 -0.166386,0.0096 0.04542,0.02121 -0.252908,-0.1365 -0.08534,-0.257191 -0.07008,0.05052 -0.135459,-0.01426 -0.211017,0.04126 -0.05206,0.04164 0.02427,0.06941 -0.05011,0.105653 -0.118233,0.05899 -0.207494,-0.202437 -0.252124,-0.232127 -0.04542,-0.0293 -0.39698,-0.272229 -0.301454,-0.11375 l 0.308892,0.30269 c -0.01527,0.0096 -0.08104,-0.110279 -0.08104,-0.02275 0.02075,-0.05205 0.0078,0.223259 -0.04073,0.133801 -0.02153,-0.03432 0.03524,-0.0536 0.0023,-0.103338 0,-0.03278 -0.08926,-0.06478 -0.106487,-0.08715 -0.04894,-0.05976 -0.178914,-0.191639 -0.249384,-0.223259 -0.01957,-0.0089 -0.299104,0.03355 -0.322594,0.04242 -0.0274,0.03779 -0.05089,0.07751 -0.07008,0.119919 -0.05794,0.02121 -0.112359,0.04858 -0.164036,0.08251 l -0.06146,0.136114 c -0.02662,0.02352 -0.299497,0.112208 -0.301063,0.115678 0.01136,-0.02891 -0.19066,-0.06594 -0.177348,-0.123775 0.01488,-0.06363 0.08339,-0.262204 0.06577,-0.334695 -0.01879,-0.07596 0.420468,0.109508 0.448656,-0.09062 0.01136,-0.08676 0.01801,-0.187785 -0.122539,-0.202437 0.02662,0.0031 0.272091,-0.09486 0.312807,-0.138813 0.05716,-0.06478 0.18831,-0.170432 0.283443,-0.170432 0.111186,0 0.08731,-0.15925 0.13859,-0.23714 0.05128,0.02044 -0.0274,0.144983 0.03406,0.195495 -0.0039,-0.03971 0.174216,0.02198 0.191441,0.01272 0.04072,-0.02082 0.267785,-0.0084 0.23255,-0.113365 -0.03915,-0.106809 0.01997,-0.07519 0.07086,-0.09755 -0.0086,0.0034 0.13311,-0.238683 0.157382,-0.15925 -0.01683,-0.08174 -0.16482,0.02854 -0.216497,0.02429 -0.119407,-0.0093 -0.0689,-0.200508 -0.02388,-0.256418 0.03484,-0.04434 -0.09513,-0.09871 -0.0967,-0.01388 -0.0023,0.126859 -0.122147,0.241766 -0.09435,0.41027 0.04229,0.254107 -0.287751,-0.0613 -0.316721,-0.04396 -0.10962,0.06555 -0.199274,-0.08251 -0.142506,-0.171204 0.05794,-0.09061 0.197706,-0.08638 0.255257,-0.183542 0.04072,-0.06864 0.08809,-0.148453 0.150726,-0.200509 0.209451,-0.173131 0.267392,-0.0347 0.476061,-0.01581 0.203971,0.01851 0.0689,0.04781 0.04071,0.124932 -0.02701,0.07327 0.111969,0.09948 0.160123,0.03817 0.0274,-0.03547 0.08966,-0.124546 0.116666,-0.190482 0.03484,-0.0856 0.35274,-0.07596 0.13076,-0.206679 -0.14642,-0.08599 -0.78456,-0.259119 -1.212075,-0.259119 -0.09239,0 -0.15699,0.101411 -0.22746,0.158865 -0.139374,0.11375 -0.496419,0.337008 -0.694909,0.269145 -0.203187,-0.06902 -0.638141,0.25449 -0.707827,0.256804 -0.02545,0.0016 0.0015,-0.244466 0.140156,-0.262588 -0.05989,0.0089 0.488197,-0.272615 0.47332,-0.331226 -0.018,-0.06941 -1.095802,0.316958 -1.047647,0.394462 0.0231,0.03547 0.117058,0.03547 -0.0063,0.113365 -0.07047,0.04203 -0.145636,0.30886 -0.2118005,0.30886 -0.197705,0.08522 -0.210233,-0.167734 -0.430254,0.157707 l -0.349999,0.138814 c -0.519909,0.544072 -0.8796951,1.233127 -1.0100637,1.998529 -0.00509,0.03046 0.1307594,0.08715 0.1483775,0.107966 0.043847,0.05167 0.043847,0.274543 0.065381,0.34742 0.054027,0.184314 0.1875273,0.286881 0.2897082,0.454614 0.06029,0.09987 0.160514,0.352432 0.128803,0.457315 0.04228,-0.06864 0.418902,0.314258 0.487805,0.394076 0.16208,0.187783 0.286969,0.415283 0.02388,0.60114 -0.08496,0.06015 0.129194,0.435334 0.01879,0.527492 l -0.141329,0.03586 c -0.139374,0.08444 -0.07634,0.291508 0.0082,0.378653 0.711742,0.733012 1.7147575,1.190326 2.8266105,1.190326 2.159891,0 3.910668,-1.724373 3.910668,-3.851692 z m -4.50496,-2.451216 c 0.04894,-0.02121 0.114708,-0.02044 0.121756,-0.08483 0.0058,-0.05707 0.01722,-0.01773 0.03131,-0.03856 0.0137,-0.02044 -0.02623,-0.05321 -0.04307,-0.05629 -0.02505,-0.0054 -0.04228,0.0266 -0.05833,0.04011 l -0.02818,0.0073 -0.02662,0.03355 0.0031,0.01851 -0.03406,0.04087 c -0.03328,0.03239 7.83e-4,0.0536 0.03406,0.03933 z"
     id="path2"
     inkscape:connector-curvature="0"
     style="stroke-width:0.38853416" />
  <path
     inkscape:connector-curvature="0"
     d="m 20.737049,15.229079 c -0.284376,0.191345 -0.632181,0.304483 -1.007701,0.304483 -0.3805,0 -0.732515,-0.116033 -1.018997,-0.312005 h -0.01232 c -1.418021,0.255174 -1.457383,1.650108 -1.457383,1.650108 0,0 0.685435,1.276267 2.42495,1.342272 1.739585,0.06599 2.424951,-1.342001 2.424951,-1.342001 -0.05529,-1.245836 -1.142839,-1.58543 -1.35354,-1.642857 z"
     id="path2-5"
     style="stroke-width:0.06805266" />
  <path
     inkscape:connector-curvature="0"
     d="m 19.729348,12.604609 c -0.76044,0 -1.376974,0.579987 -1.376974,1.295342 0,0.715357 0.616534,1.295333 1.376974,1.295333 0.760513,0 1.376976,-0.579976 1.376976,-1.295333 0,-0.715355 -0.616463,-1.295342 -1.376976,-1.295342 z m 0.203829,2.24686 h -0.3838 v -0.361043 h 0.3838 z m 0.44877,-1.135936 c -0.04786,0.07116 -0.150082,0.167913 -0.306688,0.290422 -0.08104,0.06342 -0.131348,0.11437 -0.150924,0.152932 -0.01951,0.03851 -0.02835,0.107446 -0.0266,0.206857 h -0.348363 c -8.99e-4,-0.04708 -0.0014,-0.07575 -0.0014,-0.08605 0,-0.106211 0.01873,-0.193663 0.056,-0.262174 0.03733,-0.06854 0.111984,-0.145605 0.224035,-0.23128 0.112055,-0.08568 0.178989,-0.141778 0.200811,-0.168373 0.03361,-0.04194 0.05052,-0.0882 0.05052,-0.138804 0,-0.07026 -0.02983,-0.13043 -0.08946,-0.180522 -0.05964,-0.05006 -0.139983,-0.07522 -0.241085,-0.07522 -0.09745,0 -0.178918,0.02616 -0.244523,0.07838 -0.06554,0.05231 -0.110653,0.13194 -0.135199,0.239003 l -0.352436,-0.04112 c 0.01005,-0.153329 0.07943,-0.283558 0.208317,-0.390617 0.128815,-0.107065 0.297988,-0.160589 0.507429,-0.160589 0.220386,0 0.395656,0.0542 0.525951,0.1625 0.13016,0.108376 0.195338,0.234521 0.195338,0.378405 0,0.07973 -0.02401,0.155115 -0.07171,0.226205 z"
     id="path4-7"
     style="stroke-width:0.06805266" />
  <path
     inkscape:connector-curvature="0"
     d="m 5.7455462,15.3334 c -0.284376,0.191345 -0.632181,0.304483 -1.007701,0.304483 -0.3805,0 -0.732515,-0.116033 -1.018997,-0.312005 h -0.01232 c -1.418021,0.255174 -1.457383,1.650108 -1.457383,1.650108 0,0 0.685435,1.276267 2.42495,1.342272 1.739585,0.06599 2.424951,-1.342001 2.424951,-1.342001 -0.05529,-1.245836 -1.142839,-1.58543 -1.35354,-1.642857 z"
     id="path2-5-3"
     style="stroke-width:0.06805266" />
  <path
     inkscape:connector-curvature="0"
     d="m 4.7378452,12.70893 c -0.76044,0 -1.376974,0.579987 -1.376974,1.295342 0,0.715357 0.616534,1.295333 1.376974,1.295333 0.760513,0 1.376976,-0.579976 1.376976,-1.295333 0,-0.715355 -0.616463,-1.295342 -1.376976,-1.295342 z m 0.203829,2.24686 h -0.3838 v -0.361043 h 0.3838 z m 0.44877,-1.135936 c -0.04786,0.07116 -0.150082,0.167913 -0.306688,0.290422 -0.08104,0.06342 -0.131348,0.11437 -0.150924,0.152932 -0.01951,0.03851 -0.02835,0.107446 -0.0266,0.206857 h -0.348363 c -8.99e-4,-0.04708 -0.0014,-0.07575 -0.0014,-0.08605 0,-0.106211 0.01873,-0.193663 0.056,-0.262174 0.03733,-0.06854 0.111984,-0.145605 0.224035,-0.23128 0.112055,-0.08568 0.178989,-0.141778 0.200811,-0.168373 0.03361,-0.04194 0.05052,-0.0882 0.05052,-0.138804 0,-0.07026 -0.02983,-0.13043 -0.08946,-0.180522 -0.05964,-0.05006 -0.139983,-0.07522 -0.241085,-0.07522 -0.09745,0 -0.178918,0.02616 -0.244523,0.07838 -0.06554,0.05231 -0.110653,0.13194 -0.135199,0.239003 l -0.352436,-0.04112 c 0.01005,-0.153329 0.07943,-0.283558 0.208317,-0.390617 0.128815,-0.107065 0.297988,-0.160589 0.507429,-0.160589 0.220386,0 0.395656,0.0542 0.525951,0.1625 0.13016,0.108376 0.195338,0.234521 0.195338,0.378405 0,0.07973 -0.02401,0.155115 -0.07171,0.226205 z"
     id="path4-7-0"
     style="stroke-width:0.06805266" />
  <path
     inkscape:connector-curvature="0"
     d="m 19.962556,6.8837224 c 0.34312,-0.3772546 0.547859,-0.8462841 0.547859,-1.3544307 0,-0.5081466 -0.204739,-0.9771761 -0.547859,-1.3544307 l 0.635258,-0.5412457 c 0.508611,0.5171736 0.818147,1.1750185 0.818147,1.8956764 0,0.7206579 -0.309941,1.3781267 -0.818147,1.8960525 z M 15.514941,3.0938741 14.878873,2.5518761 c -0.844042,0.7947548 -1.361555,1.8339917 -1.361555,2.9774156 0,1.1434239 0.517513,2.1822843 1.361151,2.9774153 L 15.514536,7.9647092 C 14.838007,7.3076167 14.423269,6.4598281 14.423269,5.5292917 c 0,-0.9305365 0.415143,-1.778325 1.091672,-2.4354176 z m 0.63283,4.331094 0.635258,-0.5412457 C 16.439909,6.5064678 16.23517,6.0374383 16.23517,5.5292917 c 0,-0.5081466 0.204739,-0.9771761 0.547859,-1.3544307 L 16.147771,3.6336153 c -0.508611,0.5171736 -0.818147,1.1750185 -0.818147,1.8956764 0,0.7206579 0.309536,1.3781267 0.818147,1.8956764 z m 5.71894,-4.873092 -0.635662,0.541998 c 0.676529,0.6570926 1.091267,1.5048811 1.091267,2.4354176 0,0.9305364 -0.414738,1.778325 -1.091267,2.4354175 l 0.636067,0.5419978 c 0.843638,-0.7955071 1.361151,-1.8343676 1.361151,-2.9774153 0,-1.1430477 -0.517513,-2.1826608 -1.361556,-2.9774156 z m -1.032598,9.0270309 h -0.871557 c -0.343929,-0.828606 -0.914853,-1.153203 -1.589764,-1.153203 -0.684621,0 -1.249476,0.333247 -1.589763,1.153203 H 15.928061 L 17.96817,6.5884632 C 17.497998,6.432747 17.158924,6.0197604 17.158924,5.5292917 c 0,-0.6232412 0.543814,-1.1283788 1.213868,-1.1283788 0.670056,0 1.213869,0.5051376 1.213869,1.1283788 0,0.4904687 -0.339074,0.9038314 -0.809245,1.0591715 z M 18.372792,7.7371528 18.028054,8.5698965 h 0.689073 z m 0.811674,1.961122 -0.155779,-0.3761255 H 17.716899 L 17.56112,9.6982748 Z"
     id="path2-3-8"
     style="stroke-width:0.39011443" />
  <path
     inkscape:connector-curvature="0"
     d="M 7.6301334,7.0634956 C 7.973253,6.6862406 8.177992,6.2172106 8.177992,5.7090646 c 0,-0.508147 -0.204739,-0.977176 -0.5478586,-1.354431 L 8.265391,3.8133876 c 0.508611,0.517174 0.818147,1.175019 0.818147,1.895677 0,0.720658 -0.309941,1.378127 -0.818147,1.896052 z M 3.1825184,3.2736466 2.5464504,2.7316489 c -0.844042,0.7947547 -1.361555,1.8339917 -1.361555,2.9774157 0,1.143424 0.517513,2.182284 1.361151,2.977415 l 0.636067,-0.541998 c -0.676529,-0.657092 -1.091267,-1.504881 -1.091267,-2.435417 0,-0.930537 0.415143,-1.778325 1.091672,-2.435418 z m 0.63283,4.331094 0.635258,-0.541245 c -0.34312,-0.377255 -0.547859,-0.846285 -0.547859,-1.354431 0,-0.508147 0.204739,-0.977176 0.547859,-1.354431 l -0.635258,-0.541246 c -0.508611,0.517174 -0.818147,1.175019 -0.818147,1.895677 0,0.720658 0.309536,1.378127 0.818147,1.895676 z M 9.534288,2.7316489 8.898626,3.2736466 c 0.676529,0.657093 1.091267,1.504881 1.091267,2.435418 0,0.930536 -0.414738,1.778325 -1.091267,2.435417 l 0.636067,0.541998 c 0.843638,-0.795507 1.361151,-1.834367 1.361151,-2.977415 0,-1.143048 -0.517513,-2.182661 -1.361556,-2.9774157 z M 8.50169,11.75868 H 7.6301334 c -0.343929,-0.828606 -0.914853,-1.153203 -1.589764,-1.153203 -0.684621,0 -1.249476,0.333247 -1.589763,1.153203 h -0.854968 l 2.040109,-4.9904444 c -0.470172,-0.155716 -0.809246,-0.568702 -0.809246,-1.059171 0,-0.623241 0.543814,-1.128379 1.213868,-1.128379 0.670056,0 1.213869,0.505138 1.213869,1.128379 0,0.490469 -0.339074,0.903831 -0.809245,1.059171 z M 6.0403694,7.9169256 5.6956314,8.7496696 h 0.689073 z m 0.811674,1.961122 -0.155779,-0.376126 h -1.311788 l -0.155779,0.376126 z"
     id="path2-3-8-3"
     style="stroke-width:0.39011443" />
</svg>
