<?xml version="1.0" encoding="UTF-8" standalone="no"?>
<svg
   xmlns:dc="http://purl.org/dc/elements/1.1/"
   xmlns:cc="http://creativecommons.org/ns#"
   xmlns:rdf="http://www.w3.org/1999/02/22-rdf-syntax-ns#"
   xmlns:svg="http://www.w3.org/2000/svg"
   xmlns="http://www.w3.org/2000/svg"
   xmlns:sodipodi="http://sodipodi.sourceforge.net/DTD/sodipodi-0.dtd"
   xmlns:inkscape="http://www.inkscape.org/namespaces/inkscape"
   width="24"
   height="24"
   viewBox="0 0 24 24"
   version="1.1"
   id="svg4"
   sodipodi:docname="connect-random-host.svg"
   inkscape:version="0.92.4 (5da689c313, 2019-01-14)">
  <metadata
     id="metadata10">
    <rdf:RDF>
      <cc:Work
         rdf:about="">
        <dc:format>image/svg+xml</dc:format>
        <dc:type
           rdf:resource="http://purl.org/dc/dcmitype/StillImage" />
        <dc:title></dc:title>
      </cc:Work>
    </rdf:RDF>
  </metadata>
  <defs
     id="defs8" />
  <sodipodi:namedview
     pagecolor="#ffffff"
     bordercolor="#666666"
     borderopacity="1"
     objecttolerance="10"
     gridtolerance="10"
     guidetolerance="10"
     inkscape:pageopacity="0"
     inkscape:pageshadow="2"
     inkscape:window-width="2503"
     inkscape:window-height="1279"
     id="namedview6"
     showgrid="false"
     inkscape:zoom="13.906433"
     inkscape:cx="-51.025912"
     inkscape:cy="23.801623"
     inkscape:window-x="1137"
     inkscape:window-y="562"
     inkscape:window-maximized="0"
     inkscape:current-layer="svg4" />
  <path
     d="m 11.857707,16.574411 c -0.01371,-0.02545 0.133893,-0.03934 0.160122,-0.03934 0.02897,0.0034 -0.07673,0.174288 -0.160122,0.03934 z m -0.842501,-1.184542 0.04229,-0.01195 c 0.02505,0.02121 -0.02818,0.03663 -0.01997,0.05244 0.03367,0.05978 0.0083,0.09563 0.0031,0.128018 -0.0055,0.03278 -0.04072,0.01851 -0.05833,0.03587 -0.02075,0.02545 0.101007,0.02891 0.102574,0.03278 0.0043,0.01272 -0.146812,0.03432 -0.119016,0.06594 0.03759,0.05245 0.322593,-0.07519 0.277181,-0.06786 0.08809,-0.04357 0.01136,-0.0482 -0.03798,-0.07327 -0.01683,-0.0829 -0.03093,-0.210919 -0.08339,-0.262202 l 0.03445,-0.03933 c -0.08065,-0.115293 -0.140939,0.139585 -0.140939,0.139585 z m 5.092598,2.660978 c 0,2.555327 -2.103516,4.627119 -4.69797,4.627119 -2.5948451,0 -4.6979697,-2.071792 -4.6979697,-4.627119 0,-2.555327 2.1031246,-4.627119 4.6979697,-4.627119 2.594454,0 4.69797,2.071792 4.69797,4.627119 z m -3.253344,-2.07102 c -0.0023,-0.0563 -0.07437,-0.10951 -0.149552,-0.01195 -0.05285,0.06709 -0.04345,0.169275 -0.07203,0.214775 -0.04073,0.06748 0.221978,0.130717 0.221978,0.0671 0.0098,-0.10681 0.286578,-0.02429 0.340604,-0.0096 0.09709,0.02661 0.251732,-0.08715 0.08261,-0.146911 -0.138982,-0.05013 -0.212192,-0.103724 -0.22472,-0.201665 0,0 0.0736,-0.06786 0.0415,-0.06401 -0.08534,0.01041 -0.24038,0.303076 -0.24038,0.15231 z m 2.464867,2.07102 c 0,-0.399089 -0.0693,-0.802034 -0.139764,-1.014881 -0.0227,-0.06709 -0.074,-0.120305 -0.140547,-0.145754 -0.100224,-0.03856 -0.523432,0.230199 -0.587247,0.09794 -0.04189,-0.0883 -0.126845,0.0563 -0.223936,0.0031 -0.04698,-0.02546 -0.17774,-0.198581 -0.236856,-0.177373 -0.120973,0.04279 0.185569,0.371711 0.26935,0.414898 0.0787,-0.05861 0.333556,-0.179301 0.388366,-0.01465 0.104921,0.310018 -0.288534,0.649725 -0.489764,0.828641 -0.30067,0.267601 -0.244294,-0.173131 -0.449047,-0.328526 -0.107661,-0.08137 -0.106487,-0.254492 -0.215324,-0.314259 -0.04855,-0.02699 -0.271308,-0.279554 -0.26935,-0.313487 l -0.0066,0.06401 c -0.0368,0.02737 -0.1151,-0.10334 -0.123321,-0.123776 0,0.11375 0.187918,0.294978 0.250166,0.385978 0.106096,0.156165 0.162863,0.383665 0.29284,0.511298 0.06969,0.06863 0.335905,0.352432 0.4052,0.346262 0.07556,-0.0066 0.314373,-0.176602 0.356654,-0.166962 0.252124,0.05862 -0.59351,1.235827 -0.673767,1.381581 -0.06616,0.122233 0.05403,0.424538 0.04424,0.569136 -0.01136,0.166961 -0.144854,0.220945 -0.271307,0.311945 -0.135459,0.09755 -0.103747,0.287266 -0.217673,0.356673 -0.202404,0.122619 -0.348041,0.521708 -0.635401,0.519779 -0.08456,-3.85e-4 -0.446306,0.138814 -0.493677,0.0027 -0.03681,-0.09871 -0.08613,-0.173516 -0.138199,-0.271071 -0.05089,-0.09563 -0.0058,-0.194725 -0.06773,-0.27917 -0.04267,-0.05861 -0.185961,-0.19164 -0.19888,-0.261047 -7.84e-4,-0.05976 0.0458,-0.241381 0.109619,-0.273 0.08965,-0.04511 0.01722,-0.176601 0.0063,-0.252948 -0.01879,-0.1365 -0.104529,-0.249094 -0.207493,-0.32814 -0.152293,-0.115293 -0.0736,-0.207064 -0.03797,-0.371713 0,-0.07866 -0.04855,-0.182 -0.155816,-0.151152 -0.220806,0.06323 -0.153859,-0.16966 -0.314765,-0.15925 -0.115883,0.0081 -0.210625,0.08059 -0.318288,0.112593 -0.135457,0.04011 -0.274048,-0.03162 -0.40794,-0.0482 -0.5508368,-0.06863 -0.730533,-0.688669 -0.5868541,-1.135958 0.014487,-0.07327 -0.044627,-0.208992 -0.018793,-0.265673 0.061859,-0.135729 0.1879201,-0.288038 0.2983221,-0.390992 0.06186,-0.05784 0.141331,-0.04319 0.214149,-0.0883 0.11236,-0.06979 0.113925,-0.213234 0.223936,-0.30115 0.1566,-0.125317 0.370357,-0.122618 0.574718,-0.149609 0.108837,-0.01426 0.523041,-0.102568 0.588422,-0.02314 0,0.01465 0.07477,0.232899 -0.0074,0.22056 0.16952,0.0089 0.411073,0.288809 0.571978,0.223259 0.08261,-0.03393 0.05246,-0.283796 0.22198,-0.163106 0.102571,0.07249 0.56219,0.104882 0.657715,0.0266 0.05873,-0.04781 0.09161,-0.358601 0.02036,-0.393691 0.04542,0.04435 -0.239204,0.04781 -0.265826,0.03779 -0.04698,-0.01696 -0.09083,0.04396 -0.166386,0.0096 0.04542,0.02121 -0.252908,-0.1365 -0.08534,-0.257191 -0.07008,0.05052 -0.135459,-0.01426 -0.211017,0.04126 -0.05206,0.04164 0.02427,0.06941 -0.05011,0.105653 -0.118233,0.05899 -0.207494,-0.202437 -0.252124,-0.232127 -0.04542,-0.0293 -0.39698,-0.272229 -0.301454,-0.11375 l 0.308892,0.30269 c -0.01527,0.0096 -0.08104,-0.110279 -0.08104,-0.02275 0.02075,-0.05205 0.0078,0.223259 -0.04073,0.133801 -0.02153,-0.03432 0.03524,-0.0536 0.0023,-0.103338 0,-0.03278 -0.08926,-0.06478 -0.106487,-0.08715 -0.04894,-0.05976 -0.178914,-0.191639 -0.249384,-0.223259 -0.01957,-0.0089 -0.299104,0.03355 -0.322594,0.04242 -0.0274,0.03779 -0.05089,0.07751 -0.07008,0.119919 -0.05794,0.02121 -0.112359,0.04858 -0.164036,0.08251 l -0.06146,0.136114 c -0.02662,0.02352 -0.299497,0.112208 -0.301063,0.115678 0.01136,-0.02891 -0.19066,-0.06594 -0.177348,-0.123775 0.01488,-0.06363 0.08339,-0.262204 0.06577,-0.334695 -0.01879,-0.07596 0.420468,0.109508 0.448656,-0.09062 0.01136,-0.08676 0.01801,-0.187785 -0.122539,-0.202437 0.02662,0.0031 0.272091,-0.09486 0.312807,-0.138813 0.05716,-0.06478 0.18831,-0.170432 0.283443,-0.170432 0.111186,0 0.08731,-0.15925 0.13859,-0.23714 0.05128,0.02044 -0.0274,0.144983 0.03406,0.195495 -0.0039,-0.03971 0.174216,0.02198 0.191441,0.01272 0.04072,-0.02082 0.267785,-0.0084 0.23255,-0.113365 -0.03915,-0.106809 0.01997,-0.07519 0.07086,-0.09755 -0.0086,0.0034 0.13311,-0.238683 0.157382,-0.15925 -0.01683,-0.08174 -0.16482,0.02854 -0.216497,0.02429 -0.119407,-0.0093 -0.0689,-0.200508 -0.02388,-0.256418 0.03484,-0.04434 -0.09513,-0.09871 -0.0967,-0.01388 -0.0023,0.126859 -0.122147,0.241766 -0.09435,0.41027 0.04229,0.254107 -0.287751,-0.0613 -0.316721,-0.04396 -0.10962,0.06555 -0.199274,-0.08251 -0.142506,-0.171204 0.05794,-0.09061 0.197706,-0.08638 0.255257,-0.183542 0.04072,-0.06864 0.08809,-0.148453 0.150726,-0.200509 0.209451,-0.173131 0.267392,-0.0347 0.476061,-0.01581 0.203971,0.01851 0.0689,0.04781 0.04071,0.124932 -0.02701,0.07327 0.111969,0.09948 0.160123,0.03817 0.0274,-0.03547 0.08966,-0.124546 0.116666,-0.190482 0.03484,-0.0856 0.35274,-0.07596 0.13076,-0.206679 -0.14642,-0.08599 -0.78456,-0.259119 -1.212075,-0.259119 -0.09239,0 -0.15699,0.101411 -0.22746,0.158865 -0.139374,0.11375 -0.496419,0.337008 -0.694909,0.269145 -0.203187,-0.06902 -0.638141,0.25449 -0.7078272,0.256804 -0.025449,0.0016 0.00152,-0.244466 0.1401562,-0.262588 -0.05989,0.0089 0.488197,-0.272615 0.47332,-0.331226 -0.018,-0.06941 -1.0958021,0.316958 -1.0476472,0.394462 0.023098,0.03547 0.117058,0.03547 -0.00628,0.113365 -0.07047,0.04203 -0.1456362,0.30886 -0.2118006,0.30886 -0.1977049,0.08522 -0.2102336,-0.167734 -0.4302546,0.157707 l -0.3499989,0.138814 c -0.5199086,0.544072 -0.8796948,1.233127 -1.0100634,1.998529 -0.00509,0.03046 0.1307594,0.08715 0.1483775,0.107966 0.043847,0.05167 0.043847,0.274543 0.065381,0.34742 0.054027,0.184314 0.1875273,0.286881 0.2897081,0.454614 0.060291,0.09987 0.1605139,0.352432 0.1288027,0.457315 0.042282,-0.06864 0.4189022,0.314258 0.4878057,0.394076 0.1620796,0.187783 0.2869685,0.415283 0.023879,0.60114 -0.084955,0.06015 0.1291938,0.435334 0.018793,0.527492 l -0.1413297,0.03586 c -0.1393739,0.08444 -0.076342,0.291508 0.00823,0.378653 0.7117423,0.733012 1.7147584,1.190326 2.8266114,1.190326 2.159891,0 3.910668,-1.724373 3.910668,-3.851692 z m -4.50496,-2.451216 c 0.04894,-0.02121 0.114708,-0.02044 0.121756,-0.08483 0.0058,-0.05707 0.01722,-0.01773 0.03131,-0.03856 0.0137,-0.02044 -0.02623,-0.05321 -0.04307,-0.05629 -0.02505,-0.0054 -0.04228,0.0266 -0.05833,0.04011 l -0.02818,0.0073 -0.02662,0.03355 0.0031,0.01851 -0.03406,0.04087 c -0.03328,0.03239 7.83e-4,0.0536 0.03406,0.03933 z"
     id="path2"
     inkscape:connector-curvature="0"
     style="stroke-width:0.38853416" />
  <path
     inkscape:connector-curvature="0"
     d="m 20.089867,15.372897 c -0.284376,0.191345 -0.632181,0.304483 -1.007701,0.304483 -0.3805,0 -0.732515,-0.116033 -1.018997,-0.312005 h -0.01232 c -1.418021,0.255174 -1.457383,1.650108 -1.457383,1.650108 0,0 0.685435,1.276267 2.42495,1.342272 1.739585,0.06599 2.424951,-1.342001 2.424951,-1.342001 -0.05529,-1.245836 -1.142839,-1.58543 -1.35354,-1.642857 z"
     id="path2-5"
     style="stroke-width:0.06805266" />
  <path
     inkscape:connector-curvature="0"
     d="m 19.082166,12.748427 c -0.76044,0 -1.376974,0.579987 -1.376974,1.295342 0,0.715357 0.616534,1.295333 1.376974,1.295333 0.760513,0 1.376976,-0.579976 1.376976,-1.295333 0,-0.715355 -0.616463,-1.295342 -1.376976,-1.295342 z m 0.203829,2.24686 h -0.3838 v -0.361043 h 0.3838 z m 0.44877,-1.135936 c -0.04786,0.07116 -0.150082,0.167913 -0.306688,0.290422 -0.08104,0.06342 -0.131348,0.11437 -0.150924,0.152932 -0.01951,0.03851 -0.02835,0.107446 -0.0266,0.206857 H 18.90219 c -8.99e-4,-0.04708 -0.0014,-0.07575 -0.0014,-0.08605 0,-0.106211 0.01873,-0.193663 0.056,-0.262174 0.03733,-0.06854 0.111984,-0.145605 0.224035,-0.23128 0.112055,-0.08568 0.178989,-0.141778 0.200811,-0.168373 0.03361,-0.04194 0.05052,-0.0882 0.05052,-0.138804 0,-0.07026 -0.02983,-0.13043 -0.08946,-0.180522 -0.05964,-0.05006 -0.139983,-0.07522 -0.241085,-0.07522 -0.09745,0 -0.178918,0.02616 -0.244523,0.07838 -0.06554,0.05231 -0.110653,0.13194 -0.135199,0.239003 l -0.352436,-0.04112 c 0.01005,-0.153329 0.07943,-0.283558 0.208317,-0.390617 0.128815,-0.107065 0.297988,-0.160589 0.507429,-0.160589 0.220386,0 0.395656,0.0542 0.525951,0.1625 0.13016,0.108376 0.195338,0.234521 0.195338,0.378405 0,0.07973 -0.02401,0.155115 -0.07171,0.226205 z"
     id="path4-7"
     style="stroke-width:0.06805266" />
  <path
     inkscape:connector-curvature="0"
     d="m 5.0983637,15.477218 c -0.284376,0.191345 -0.632181,0.304483 -1.007701,0.304483 -0.3805,0 -0.732515,-0.116033 -1.018997,-0.312005 h -0.01232 c -1.418021,0.255174 -1.457383,1.650108 -1.457383,1.650108 0,0 0.685435,1.276267 2.42495,1.342272 1.739585,0.06599 2.424951,-1.342001 2.424951,-1.342001 -0.05529,-1.245836 -1.142839,-1.58543 -1.35354,-1.642857 z"
     id="path2-5-3"
     style="stroke-width:0.06805266" />
  <path
     inkscape:connector-curvature="0"
     d="m 4.0906627,12.852748 c -0.76044,0 -1.376974,0.579987 -1.376974,1.295342 0,0.715357 0.616534,1.295333 1.376974,1.295333 0.760513,0 1.376976,-0.579976 1.376976,-1.295333 0,-0.715355 -0.616463,-1.295342 -1.376976,-1.295342 z m 0.203829,2.24686 h -0.3838 v -0.361043 h 0.3838 z m 0.44877,-1.135936 c -0.04786,0.07116 -0.150082,0.167913 -0.306688,0.290422 -0.08104,0.06342 -0.131348,0.11437 -0.150924,0.152932 -0.01951,0.03851 -0.02835,0.107446 -0.0266,0.206857 h -0.348363 c -8.99e-4,-0.04708 -0.0014,-0.07575 -0.0014,-0.08605 0,-0.106211 0.01873,-0.193663 0.056,-0.262174 0.03733,-0.06854 0.111984,-0.145605 0.224035,-0.23128 0.112055,-0.08568 0.178989,-0.141778 0.200811,-0.168373 0.03361,-0.04194 0.05052,-0.0882 0.05052,-0.138804 0,-0.07026 -0.02983,-0.13043 -0.08946,-0.180522 -0.05964,-0.05006 -0.139983,-0.07522 -0.241085,-0.07522 -0.09745,0 -0.178918,0.02616 -0.244523,0.07838 -0.06554,0.05231 -0.110653,0.13194 -0.135199,0.239003 l -0.352436,-0.04112 c 0.01005,-0.153329 0.07943,-0.283558 0.208317,-0.390617 0.128815,-0.107065 0.297988,-0.160589 0.507429,-0.160589 0.220386,0 0.395656,0.0542 0.525951,0.1625 0.13016,0.108376 0.195338,0.234521 0.195338,0.378405 0,0.07973 -0.02401,0.155115 -0.07171,0.226205 z"
     id="path4-7-0"
     style="stroke-width:0.06805266" />
  <path
     inkscape:connector-curvature="0"
     d="m 13.32806,7.1417204 c 0.40664,-0.4223327 0.649281,-0.9474064 0.649281,-1.5162713 0,-0.5688649 -0.242641,-1.0939386 -0.649281,-1.5162713 l 0.752859,-0.605919 c 0.602767,0.5789706 0.969606,1.3154212 0.969606,2.1221903 0,0.8067692 -0.367319,1.5427987 -0.969606,2.1226114 z M 8.0570853,2.8990241 7.3032668,2.2922629 C 6.302971,3.1819828 5.6896544,4.3453978 5.6896544,5.6254491 c 0,1.2800513 0.6133166,2.4430449 1.6131329,3.3331859 L 8.0566058,8.351874 C 7.2548345,7.6162657 6.7633181,6.6671751 6.7633181,5.6254491 c 0,-1.041726 0.4919959,-1.9908166 1.2937672,-2.726425 z M 8.8070674,7.7476394 9.5599267,7.1417204 C 9.1532868,6.7193877 8.9106455,6.194314 8.9106455,5.6254491 c 0,-0.5688649 0.2426413,-1.0939386 0.6492812,-1.5162713 L 8.8070674,3.5032588 C 8.2043005,4.0822294 7.8374614,4.81868 7.8374614,5.6254491 c 0,0.8067692 0.3668391,1.5427987 0.969606,2.1221903 z M 15.584719,2.2922629 14.831381,2.8990241 c 0.801771,0.7356084 1.293287,1.684699 1.293287,2.726425 0,1.041726 -0.491516,1.9908166 -1.293287,2.7264249 l 0.753818,0.606761 c 0.999816,-0.890562 1.613133,-2.0535557 1.613133,-3.3331859 0,-1.2796302 -0.613317,-2.4434663 -1.613613,-3.3331862 z M 14.360963,12.397931 H 13.32806 c -0.407599,-0.927616 -1.084214,-1.290999 -1.884067,-1.290999 -0.811361,0 -1.4807833,0.373067 -1.8840663,1.290999 H 8.5466836 L 10.964465,6.8111808 c -0.557212,-0.1743227 -0.959056,-0.636657 -0.959056,-1.1857317 0,-0.6977121 0.644486,-1.2632085 1.438584,-1.2632085 0.794099,0 1.438585,0.5654964 1.438585,1.2632085 0,0.5490747 -0.401845,1.01183 -0.959056,1.1857317 z m -2.91697,-4.300804 -0.408558,0.932248 h 0.816637 z m 0.961934,2.195456 -0.184618,-0.4210691 H 10.666678 L 10.48206,10.292583 Z"
     id="path2-3"
     style="stroke-width:0.44934919" />
</svg>
