<?xml version="1.0" encoding="UTF-8" standalone="no"?>
<svg
   xmlns:dc="http://purl.org/dc/elements/1.1/"
   xmlns:cc="http://creativecommons.org/ns#"
   xmlns:rdf="http://www.w3.org/1999/02/22-rdf-syntax-ns#"
   xmlns:svg="http://www.w3.org/2000/svg"
   xmlns="http://www.w3.org/2000/svg"
   xmlns:sodipodi="http://sodipodi.sourceforge.net/DTD/sodipodi-0.dtd"
   xmlns:inkscape="http://www.inkscape.org/namespaces/inkscape"
   width="24"
   height="24"
   viewBox="0 0 24 24"
   version="1.1"
   id="svg4"
   sodipodi:docname="service-network-host-settings.svg"
   inkscape:version="0.92.4 (5da689c313, 2019-01-14)">
  <metadata
     id="metadata10">
    <rdf:RDF>
      <cc:Work
         rdf:about="">
        <dc:format>image/svg+xml</dc:format>
        <dc:type
           rdf:resource="http://purl.org/dc/dcmitype/StillImage" />
        <dc:title></dc:title>
      </cc:Work>
    </rdf:RDF>
  </metadata>
  <defs
     id="defs8" />
  <sodipodi:namedview
     pagecolor="#ffffff"
     bordercolor="#666666"
     borderopacity="1"
     objecttolerance="10"
     gridtolerance="10"
     guidetolerance="10"
     inkscape:pageopacity="0"
     inkscape:pageshadow="2"
     inkscape:window-width="1669"
     inkscape:window-height="882"
     id="namedview6"
     showgrid="false"
     inkscape:zoom="19.666667"
     inkscape:cx="8.7590835"
     inkscape:cy="14.382559"
     inkscape:window-x="1396"
     inkscape:window-y="743"
     inkscape:window-maximized="0"
     inkscape:current-layer="svg4" />
  <path
     d="m 5.1040719,19.790569 c 0.2338245,-0.299777 0.3733472,-0.672481 0.3733472,-1.076268 0,-0.403786 -0.1395227,-0.776491 -0.3733472,-1.076268 l 0.4329064,-0.430088 c 0.3466008,0.41096 0.5575393,0.933701 0.5575393,1.506356 0,0.572654 -0.2112142,1.095098 -0.5575393,1.506655 z M 2.0731758,16.779052 1.6397178,16.348366 c -0.5751863,0.631534 -0.92785339,1.457339 -0.92785339,2.365935 0,0.908595 0.35266709,1.734102 0.92757779,2.365935 L 2.0729,20.64955 C 1.6118685,20.127407 1.3292386,19.453731 1.3292386,18.714301 c 0,-0.739429 0.2829056,-1.413105 0.7439372,-1.935249 z m 0.4312519,3.441606 0.4329064,-0.430089 C 2.7035095,19.490792 2.5639867,19.118088 2.5639867,18.714301 c 0,-0.403786 0.1395228,-0.776491 0.3733474,-1.076268 L 2.5044277,17.207945 c -0.3466008,0.41096 -0.5575393,0.933701 -0.5575393,1.506356 0,0.572654 0.2109385,1.095098 0.5575393,1.506357 z m 3.8972607,-3.872292 -0.4331825,0.430686 c 0.4610318,0.522144 0.7436613,1.19582 0.7436613,1.935249 0,0.73943 -0.2826295,1.413106 -0.7436613,1.935249 l 0.4334577,0.430686 c 0.5749111,-0.632131 0.9275778,-1.457639 0.9275778,-2.365935 0,-0.908297 -0.3526667,-1.734401 -0.927853,-2.365935 z m -0.70368,7.173123 H 5.1040719 C 4.8696958,22.863056 4.4806315,22.605123 4.020703,22.605123 c -0.4665463,0 -0.8514745,0.264808 -1.0833689,0.916366 H 2.3547027 L 3.7449664,19.555948 C 3.4245606,19.432212 3.1934933,19.104041 3.1934933,18.714301 c 0,-0.495245 0.37059,-0.896641 0.8272097,-0.896641 0.4566197,0 0.8272096,0.401396 0.8272096,0.896641 0,0.38974 -0.2310672,0.718209 -0.5514731,0.841647 z M 4.020703,20.468728 3.7857754,21.130448 H 4.2553548 Z M 4.5738305,22.027089 4.467672,21.728208 H 3.573734 l -0.1061585,0.298881 z"
     id="path2"
     inkscape:connector-curvature="0"
     style="stroke-width:0.28707522" />
  <path
     d="m 14.009084,19.787681 c 0.221646,-0.305773 0.353902,-0.685931 0.353902,-1.097793 0,-0.411863 -0.132256,-0.792021 -0.353902,-1.097793 l 0.410359,-0.438691 c 0.328548,0.41918 0.528501,0.952376 0.528501,1.536484 0,0.584107 -0.200214,1.116999 -0.528501,1.536788 z m -2.873037,-3.071747 -0.410882,-0.4393 c -0.545228,0.644164 -0.8795279,1.486486 -0.8795279,2.413254 0,0.926768 0.3342999,1.768785 0.8792669,2.413253 l 0.410882,-0.439299 c -0.437019,-0.532587 -0.704929,-1.219736 -0.704929,-1.973954 0,-0.754218 0.268171,-1.441368 0.70519,-1.973954 z m 0.40879,3.510437 0.41036,-0.43869 c -0.221646,-0.305773 -0.353902,-0.685931 -0.353902,-1.097793 0,-0.411863 0.132256,-0.792021 0.353902,-1.097793 l -0.41036,-0.438691 c -0.328548,0.41918 -0.5285,0.952376 -0.5285,1.536484 0,0.584107 0.199952,1.116999 0.5285,1.536483 z m 3.694279,-3.949737 -0.41062,0.4393 c 0.437019,0.532586 0.704929,1.219736 0.704929,1.973954 0,0.754218 -0.26791,1.441367 -0.704929,1.973954 l 0.410881,0.439299 c 0.544969,-0.644773 0.879267,-1.486791 0.879267,-2.413253 0,-0.926463 -0.334298,-1.76909 -0.879528,-2.413254 z m -0.667029,7.316586 h -0.563003 c -0.222169,-0.671602 -0.590969,-0.934694 -1.026943,-0.934694 -0.442248,0 -0.807127,0.270104 -1.026944,0.934694 h -0.552286 l 1.317854,-4.044852 c -0.303718,-0.126212 -0.52275,-0.460945 -0.52275,-0.85848 0,-0.505149 0.351288,-0.914574 0.784126,-0.914574 0.432837,0 0.784126,0.409425 0.784126,0.914574 0,0.397535 -0.219033,0.732574 -0.522751,0.85848 z m -1.589946,-3.113817 -0.222692,0.674955 h 0.445121 z m 0.524318,1.589528 -0.100629,-0.304857 h -0.847379 l -0.100629,0.304857 z"
     id="path2-1"
     inkscape:connector-curvature="0"
     style="stroke-width:0.2822805" />
  <path
     d="m 10.001305,11.724911 c 0.284974,-0.365728 0.455017,-0.820427 0.455017,-1.313047 0,-0.4926197 -0.170043,-0.9473184 -0.455017,-1.313046 L 10.52891,8.5741098 c 0.42242,0.5013714 0.679501,1.1391159 0.679501,1.8377542 0,0.698638 -0.257417,1.336019 -0.679501,1.838119 z M 6.3074011,8.0508604 5.7791244,7.5254229 C 5.0781159,8.2958944 4.6483029,9.3033772 4.6483029,10.411864 c 0,1.108487 0.429813,2.115605 1.1304854,2.886441 L 6.307065,12.772868 c -0.5618821,-0.637016 -0.9063373,-1.4589 -0.9063373,-2.361004 0,-0.9021036 0.3447913,-1.7239885 0.9066734,-2.3610036 z M 6.8329895,12.249619 7.3605938,11.724911 C 7.0756206,11.359183 6.9055773,10.904484 6.9055773,10.411864 c 0,-0.4926197 0.1700433,-0.9473184 0.4550165,-1.313046 L 6.8329895,8.5741098 C 6.4105697,9.0754812 6.1534884,9.7132257 6.1534884,10.411864 c 0,0.698638 0.2570813,1.336019 0.6795011,1.837755 z M 11.582775,7.5254229 11.054834,8.0508604 c 0.561883,0.6370151 0.906338,1.4589 0.906338,2.3610036 0,0.902104 -0.344455,1.723988 -0.906338,2.361004 l 0.528277,0.525437 c 0.700673,-0.7712 1.130486,-1.778319 1.130486,-2.886441 0,-1.1081222 -0.429813,-2.1159696 -1.130822,-2.8864411 z m -0.85761,8.7512111 h -0.72386 C 9.7156596,15.473345 9.2414877,15.158666 8.6809499,15.158666 c -0.5686036,0 -1.0377344,0.323066 -1.3203561,1.117968 H 6.6505122 L 8.3448958,11.438673 C 7.9544013,11.287715 7.6727882,10.887347 7.6727882,10.411864 c 0,-0.6041981 0.4516564,-1.0939014 1.0081617,-1.0939014 0.5565052,0 1.0081616,0.4897033 1.0081616,1.0939014 0,0.475483 -0.281613,0.876215 -0.6721082,1.026809 z m -2.0442151,-3.72437 -0.2863181,0.8073 H 8.9669317 Z M 9.355074,14.453465 9.225693,14.088831 H 8.136206 l -0.1293803,0.364634 z"
     id="path2-0"
     inkscape:connector-curvature="0"
     style="stroke-width:0.35005233" />
  <path
     inkscape:connector-curvature="0"
     d="M 23.79661,6.4760784 V 4.5578199 C 22.83183,4.2218835 22.57222,4.2060954 22.437026,3.8872627 22.300932,3.5675533 22.474306,3.3745872 22.912678,2.473786 L 21.523449,1.1173219 C 20.613466,1.539655 20.405957,1.7155174 20.075381,1.5817568 19.748847,1.449312 19.730432,1.1918771 19.389526,0.25423755 H 17.424483 C 17.08133,1.1945088 17.065161,1.449312 16.737729,1.5817568 16.399966,1.7190254 16.197398,1.5379008 15.29011,1.1173219 L 13.900881,2.473786 c 0.438822,0.9012394 0.611746,1.0933285 0.475653,1.4139153 C 14.24089,4.2065339 13.98083,4.2227606 13.016949,4.5578199 V 6.476517 c 0.960737,0.3333051 1.223941,0.3508474 1.359585,0.6701186 0.136542,0.3219025 -0.03638,0.5117987 -0.475653,1.4134767 l 1.389229,1.3564639 c 0.897856,-0.4166313 1.109407,-0.6021419 1.447619,-0.4644343 0.326983,0.1324449 0.343152,0.3859321 0.686754,1.3275191 h 1.964593 c 0.340458,-0.93457 0.358873,-1.1941971 0.690347,-1.3292734 0.334619,-0.1350763 0.532695,0.043418 1.444026,0.46575 L 22.912678,8.5596737 C 22.474754,7.6606271 22.300932,7.4667839 22.437026,7.1461971 22.571771,6.827803 22.83228,6.8115763 23.79661,6.4760784 Z M 21.606991,6.8111377 C 21.34783,7.4224894 21.576451,7.8891165 21.826178,8.380303 L 21.339297,8.8557012 C 20.848373,8.6175635 20.368678,8.3838114 19.734474,8.6408072 19.107457,8.8956101 18.930492,9.3832881 18.751729,9.9025423 h -0.689 C 17.883966,9.3828495 17.707449,8.8951715 17.082229,8.6416843 16.444881,8.3838114 15.956203,8.621949 15.474712,8.8557012 L 14.98828,8.380303 C 15.238457,7.8899937 15.467076,7.4242437 15.207017,6.8102606 14.946957,6.2002245 14.4475,6.0278708 13.915254,5.8533242 V 5.1810127 c 0.532246,-0.1745466 1.031703,-0.3469004 1.291314,-0.9578135 0.25961,-0.611352 0.03054,-1.0784172 -0.219187,-1.569604 l 0.486882,-0.4753983 c 0.485983,0.2359455 0.971067,0.4723285 1.607966,0.2140173 0.62522,-0.2530485 0.801737,-0.7411656 0.9805,-1.2608584 h 0.689 c 0.178763,0.5196928 0.355728,1.007371 0.980949,1.2608584 0.637348,0.257873 1.125576,0.019734 1.607516,-0.2140173 l 0.486882,0.4753983 c -0.249729,0.491625 -0.478347,0.9591296 -0.219186,1.5700425 0.259161,0.6100361 0.758619,0.7823899 1.291313,0.957375 v 0.67275 C 22.36561,6.0283093 21.865254,6.2006631 21.606991,6.8111377 Z M 18.40678,4.2012712 c 0.742898,0 1.347457,0.5903009 1.347457,1.315678 0,0.7253771 -0.604559,1.3156779 -1.347457,1.3156779 -0.742899,0 -1.347458,-0.5903008 -1.347458,-1.3156779 0,-0.7253771 0.604559,-1.315678 1.347458,-1.315678 z m 0,-0.8771188 c -1.24056,0 -2.245763,0.9814959 -2.245763,2.1927968 0,1.2113008 1.005203,2.1927966 2.245763,2.1927966 1.240559,0 2.245762,-0.9814958 2.245762,-2.1927966 0,-1.2113009 -1.005203,-2.1927968 -2.245762,-2.1927968 z"
     id="path2-8"
     style="stroke-width:0.44382432" />
</svg>
