<?xml version="1.0" encoding="UTF-8" standalone="no"?>
<svg
   xmlns:dc="http://purl.org/dc/elements/1.1/"
   xmlns:cc="http://creativecommons.org/ns#"
   xmlns:rdf="http://www.w3.org/1999/02/22-rdf-syntax-ns#"
   xmlns:svg="http://www.w3.org/2000/svg"
   xmlns="http://www.w3.org/2000/svg"
   xmlns:sodipodi="http://sodipodi.sourceforge.net/DTD/sodipodi-0.dtd"
   xmlns:inkscape="http://www.inkscape.org/namespaces/inkscape"
   width="24"
   height="24"
   viewBox="0 0 24 24"
   version="1.1"
   id="svg4"
   sodipodi:docname="service-relay-settings.svg"
   inkscape:version="0.92.4 (5da689c313, 2019-01-14)">
  <metadata
     id="metadata10">
    <rdf:RDF>
      <cc:Work
         rdf:about="">
        <dc:format>image/svg+xml</dc:format>
        <dc:type
           rdf:resource="http://purl.org/dc/dcmitype/StillImage" />
        <dc:title></dc:title>
      </cc:Work>
    </rdf:RDF>
  </metadata>
  <defs
     id="defs8" />
  <sodipodi:namedview
     pagecolor="#ffffff"
     bordercolor="#666666"
     borderopacity="1"
     objecttolerance="10"
     gridtolerance="10"
     guidetolerance="10"
     inkscape:pageopacity="0"
     inkscape:pageshadow="2"
     inkscape:window-width="2735"
     inkscape:window-height="1434"
     id="namedview6"
     showgrid="false"
     inkscape:zoom="13.906433"
     inkscape:cx="-17.102833"
     inkscape:cy="8.0355327"
     inkscape:window-x="928"
     inkscape:window-y="390"
     inkscape:window-maximized="0"
     inkscape:current-layer="svg4" />
  <path
     d="m 9.0940548,19.556598 c -0.010368,-0.01811 0.1012568,-0.028 0.1210925,-0.028 0.021909,0.0024 -0.058027,0.124039 -0.1210925,0.028 z m -0.6371428,-0.843024 0.031982,-0.0085 c 0.018944,0.01509 -0.021311,0.02607 -0.015102,0.03732 0.025463,0.04255 0.00628,0.06806 0.00234,0.09111 -0.00416,0.02333 -0.030795,0.01317 -0.044112,0.02553 -0.015692,0.01811 0.076387,0.02058 0.077572,0.02333 0.00325,0.0091 -0.1110268,0.02443 -0.090006,0.04693 0.028427,0.03733 0.2439615,-0.05351 0.2096186,-0.04829 0.066618,-0.03101 0.00859,-0.0343 -0.028722,-0.05214 -0.012728,-0.059 -0.023391,-0.150109 -0.063064,-0.186606 l 0.026053,-0.02799 c -0.060992,-0.08205 -0.1065854,0.09934 -0.1065854,0.09934 z m 3.851285,1.893785 c 0,1.818594 -1.590787,3.293063 -3.5528469,3.293063 -1.9623557,0 -3.5528471,-1.474469 -3.5528471,-3.293063 0,-1.818594 1.5904914,-3.293063 3.5528471,-3.293063 1.9620599,0 3.5528469,1.474469 3.5528469,3.293063 z M 9.847851,19.13344 c -0.0017,-0.04007 -0.05624,-0.07794 -0.113099,-0.0085 -0.03997,0.04775 -0.03286,0.120471 -0.05447,0.152853 -0.0308,0.04802 0.167871,0.09303 0.167871,0.04775 0.0074,-0.07602 0.216725,-0.01729 0.257583,-0.0068 0.07342,0.01894 0.190372,-0.06202 0.06247,-0.104555 -0.105106,-0.03568 -0.160471,-0.07382 -0.169945,-0.143522 0,0 0.05566,-0.04829 0.03138,-0.04556 -0.06454,0.0074 -0.181788,0.215695 -0.181788,0.108397 z m 1.864059,1.473919 c 0,-0.284027 -0.05241,-0.570798 -0.105696,-0.722278 -0.01717,-0.04775 -0.05596,-0.08562 -0.106289,-0.103732 -0.0758,-0.02744 -0.395846,0.16383 -0.444107,0.0697 -0.03168,-0.06284 -0.09593,0.04007 -0.169352,0.0022 -0.03553,-0.01812 -0.134416,-0.141327 -0.179122,-0.126234 -0.09149,0.03045 0.140337,0.264542 0.203696,0.295278 0.05952,-0.04171 0.252252,-0.127606 0.293702,-0.01043 0.07935,0.220636 -0.218204,0.462401 -0.370384,0.589733 -0.227383,0.190449 -0.184748,-0.123215 -0.339593,-0.233808 -0.08142,-0.05791 -0.08053,-0.181118 -0.162839,-0.223654 -0.03672,-0.01921 -0.205177,-0.198955 -0.203696,-0.223105 l -0.005,0.04556 c -0.02783,0.01948 -0.08704,-0.07354 -0.09326,-0.08809 0,0.08095 0.142113,0.209932 0.189188,0.274695 0.08024,0.111141 0.123165,0.27305 0.221461,0.363885 0.0527,0.04884 0.254028,0.250821 0.306433,0.24643 0.05714,-0.0047 0.237745,-0.125685 0.26972,-0.118825 0.190669,0.04172 -0.448843,0.879523 -0.509537,0.983254 -0.05003,0.08699 0.04086,0.302139 0.03346,0.405047 -0.0086,0.118824 -0.109546,0.157244 -0.205176,0.222008 -0.102441,0.06942 -0.07846,0.204443 -0.164616,0.25384 -0.153068,0.08727 -0.263206,0.371293 -0.480523,0.36992 -0.06395,-2.74e-4 -0.3375193,0.09879 -0.3733437,0.0019 -0.027838,-0.07025 -0.065136,-0.123489 -0.1045132,-0.192918 -0.038486,-0.06806 -0.00439,-0.138583 -0.051221,-0.198681 -0.032269,-0.04171 -0.1406333,-0.136388 -0.1504033,-0.185784 -5.929e-4,-0.04253 0.034636,-0.171788 0.082899,-0.194291 0.067798,-0.0321 0.013023,-0.125685 0.00476,-0.18002 -0.01421,-0.09715 -0.07905,-0.177277 -0.1569169,-0.233533 -0.1151718,-0.08205 -0.05566,-0.147365 -0.028715,-0.264544 0,-0.05598 -0.036716,-0.129527 -0.1178361,-0.107573 -0.1669849,0.045 -0.1163561,-0.120744 -0.2380415,-0.113336 -0.087637,0.0058 -0.1592855,0.05736 -0.2407059,0.08013 -0.1024395,0.02855 -0.2072492,-0.0225 -0.3085052,-0.0343 -0.4165714,-0.04884 -0.5524668,-0.490117 -0.4438093,-0.808447 0.010958,-0.05215 -0.033752,-0.148737 -0.01421,-0.189076 0.046782,-0.0966 0.1421148,-0.204994 0.2256065,-0.278265 0.046782,-0.04116 0.1068818,-0.03074 0.1619505,-0.06284 0.084972,-0.04967 0.086156,-0.151756 0.169352,-0.214324 0.118429,-0.08919 0.2800831,-0.08727 0.4346314,-0.106475 0.082308,-0.01015 0.3955506,-0.073 0.4449951,-0.01647 0,0.01043 0.056545,0.165752 -0.0056,0.15697 0.1281998,0.0063 0.3108747,0.205542 0.4325593,0.158891 0.062474,-0.02415 0.039673,-0.201974 0.1678723,-0.116081 0.07757,0.05159 0.425157,0.07464 0.497398,0.01893 0.04442,-0.03403 0.06928,-0.255212 0.0154,-0.280185 0.03435,0.03156 -0.180899,0.03403 -0.201032,0.02689 -0.03553,-0.01207 -0.06869,0.03129 -0.125829,0.0068 0.03435,0.01509 -0.191263,-0.09715 -0.06454,-0.18304 -0.053,0.03596 -0.102441,-0.01015 -0.1595817,0.02937 -0.039371,0.02963 0.018354,0.0494 -0.037896,0.07519 -0.089414,0.04198 -0.1569177,-0.144072 -0.1906692,-0.165202 -0.034349,-0.02085 -0.3002167,-0.193742 -0.227975,-0.08095 l 0.2336,0.215421 c -0.011548,0.0068 -0.061287,-0.07848 -0.061287,-0.01619 0.015692,-0.03704 0.0059,0.158891 -0.030802,0.09522 -0.016282,-0.02443 0.02665,-0.03815 0.00174,-0.07354 0,-0.02333 -0.067503,-0.0461 -0.080531,-0.06202 -0.037011,-0.04253 -0.135304,-0.136387 -0.1885971,-0.158891 -0.0148,-0.0063 -0.2261978,0.02388 -0.2439622,0.03019 -0.020721,0.02689 -0.038486,0.05516 -0.052998,0.08535 -0.043817,0.01509 -0.084972,0.03457 -0.1240525,0.05872 l -0.046479,0.09687 c -0.020131,0.01674 -0.2264951,0.07986 -0.2276794,0.08233 0.00859,-0.02058 -0.1441869,-0.04693 -0.1341197,-0.08809 0.011253,-0.04528 0.063064,-0.186607 0.049739,-0.238198 -0.01421,-0.05406 0.3179796,0.07794 0.3392968,-0.06449 0.00859,-0.06175 0.01362,-0.133645 -0.09267,-0.144072 0.020131,0.0022 0.2057692,-0.06751 0.2365608,-0.09879 0.043227,-0.0461 0.1424097,-0.121294 0.2143542,-0.121294 0.084085,0 0.066028,-0.113336 0.1048089,-0.16877 0.038781,0.01455 -0.020721,0.103183 0.025758,0.139132 -0.00295,-0.02826 0.1317512,0.01564 0.1447776,0.0091 0.030795,-0.01482 0.2025128,-0.006 0.1758663,-0.08068 -0.029607,-0.07601 0.015102,-0.05351 0.053588,-0.06942 -0.0065,0.0024 0.1006647,-0.169868 0.1190204,-0.113336 -0.012728,-0.05817 -0.1246454,0.02031 -0.1637262,0.01729 -0.090302,-0.0066 -0.052106,-0.142699 -0.018059,-0.182489 0.026348,-0.03156 -0.071942,-0.07025 -0.07313,-0.0099 -0.00174,0.09028 -0.092374,0.172062 -0.071352,0.291984 0.031982,0.180845 -0.2176121,-0.04363 -0.2395207,-0.03129 -0.0829,0.04665 -0.1507013,-0.05872 -0.1077704,-0.121844 0.043817,-0.06449 0.1495154,-0.06147 0.1930385,-0.130624 0.030795,-0.04885 0.066618,-0.105652 0.1139868,-0.1427 0.1583976,-0.123215 0.2022156,-0.0247 0.3600219,-0.01125 0.1542529,0.01317 0.052106,0.03403 0.030787,0.08891 -0.020426,0.05214 0.084676,0.0708 0.1210929,0.02717 0.02072,-0.02524 0.0678,-0.08864 0.08823,-0.135564 0.02635,-0.06092 0.26676,-0.05406 0.09889,-0.147091 -0.11073,-0.0612 -0.5933241,-0.184411 -0.916633,-0.184411 -0.06987,0 -0.118724,0.07217 -0.172017,0.113062 -0.1054018,0.08095 -0.3754177,0.239844 -0.5255261,0.191547 -0.1536605,-0.04912 -0.4825951,0.181117 -0.5352953,0.182764 -0.019247,0.0011 0.00113,-0.173983 0.1059932,-0.18688 -0.045292,0.0063 0.3691998,-0.194017 0.357949,-0.23573 -0.013613,-0.0494 -0.828702,0.225575 -0.7922847,0.280734 0.017469,0.02524 0.088525,0.02524 -0.00476,0.08068 -0.053293,0.02991 -0.1101376,0.219812 -0.1601745,0.219812 -0.1495147,0.06065 -0.1589895,-0.119374 -0.3253808,0.112238 l -0.2646872,0.09879 c -0.3931817,0.38721 -0.6652706,0.877602 -0.7638621,1.422329 -0.00385,0.02168 0.098887,0.06202 0.1122107,0.07684 0.033159,0.03677 0.033159,0.195388 0.049444,0.247254 0.040858,0.131174 0.1418178,0.20417 0.2190922,0.323543 0.045595,0.07108 0.1213889,0.250822 0.097407,0.325466 0.031976,-0.04885 0.3167955,0.223653 0.3689038,0.280459 0.122573,0.133642 0.2170204,0.295551 0.018059,0.427824 -0.064247,0.04281 0.097703,0.309821 0.014212,0.375409 l -0.1068808,0.02552 c -0.1054017,0.0601 -0.057734,0.207463 0.00622,0.269483 0.5382563,0.521675 1.2967887,0.84714 2.1376293,0.84714 1.6334203,0 2.9574483,-1.227215 2.9574483,-2.741201 z m -3.4068828,-1.7445 c 0.037011,-0.01509 0.086748,-0.01455 0.092078,-0.06037 0.00439,-0.04062 0.013023,-0.01262 0.023678,-0.02744 0.010361,-0.01455 -0.019837,-0.03787 -0.032572,-0.04006 -0.018944,-0.0038 -0.031974,0.01893 -0.044112,0.02855 l -0.021311,0.0052 -0.020131,0.02388 0.00234,0.01317 -0.025758,0.02909 c -0.025168,0.02305 5.922e-4,0.03815 0.025758,0.02799 z"
     id="path2"
     inkscape:connector-curvature="0"
     style="stroke-width:0.28504083" />
  <path
     inkscape:connector-curvature="0"
     d="M 5.7120897,12.640822 C 6.000397,12.34453 6.1724291,11.97616 6.1724291,11.577067 c 0,-0.399092 -0.1720321,-0.767462 -0.4603394,-1.063753 l 0.533776,-0.425089 c 0.4273615,0.406183 0.6874501,0.922846 0.6874501,1.488842 0,0.565997 -0.2604289,1.082365 -0.6874501,1.489138 z M 1.9749734,9.6643191 1.4405167,9.2386402 C 0.7313079,9.8628314 0.29646697,10.679036 0.29646697,11.577067 c 0,0.898032 0.43484093,1.713941 1.14370973,2.338428 L 1.9746333,13.489816 C 1.4061782,12.973743 1.0576935,12.3079 1.0576935,11.577067 c 0,-0.730832 0.3488247,-1.396675 0.9172799,-1.9127479 z M 2.5067099,13.06591 3.0404865,12.640822 C 2.7521792,12.34453 2.5801467,11.97616 2.5801467,11.577067 c 0,-0.399092 0.1720325,-0.767462 0.4603398,-1.063753 L 2.5067099,10.088225 c -0.4273611,0.406183 -0.6874497,0.922846 -0.6874497,1.488842 0,0.565997 0.2600886,1.082365 0.6874497,1.488843 z M 7.312059,9.2386402 6.7779431,9.6643191 c 0.568455,0.5160729 0.9169395,1.1819159 0.9169395,1.9127479 0,0.730833 -0.3484845,1.396676 -0.9169395,1.912749 l 0.5344562,0.425679 c 0.7088687,-0.624782 1.1437096,-1.440691 1.1437096,-2.338428 0,-0.897736 -0.4348409,-1.7142356 -1.1440499,-2.3384268 z M 6.4444165,16.328365 H 5.7120897 C 5.4231025,15.677587 4.9433826,15.422652 4.3762876,15.422652 c -0.5752541,0 -1.0498738,0.261729 -1.3358011,0.905713 H 2.3220981 L 4.0363026,12.408928 C 3.6412398,12.286631 3.356333,11.962276 3.356333,11.577067 c 0,-0.489486 0.4569397,-0.886215 1.0199546,-0.886215 0.5630157,0 1.0199558,0.396729 1.0199558,0.886215 0,0.385209 -0.2849079,0.709859 -0.67997,0.831861 z M 4.3762876,13.311096 4.0866206,13.965123 H 4.6656151 Z M 5.058298,14.851338 4.9274037,14.555933 H 3.8251723 L 3.694278,14.851338 Z"
     id="path2-3"
     style="stroke-width:0.3169122" />
  <path
     inkscape:connector-curvature="0"
     d="m 15.664467,17.601248 c 0,0.283567 -0.358338,0.513396 -0.800457,0.513396 -0.442119,0 -0.800456,-0.229829 -0.800456,-0.513396 0,-0.283564 0.358337,-0.513395 0.800456,-0.513395 0.442119,0 0.800457,0.229831 0.800457,0.513395 z"
     id="path4"
     style="stroke-width:0.21368489" />
  <path
     inkscape:connector-curvature="0"
     d="m 15.664467,18.456908 h -1.600913 c -0.294836,0 -0.533638,0.153163 -0.533638,0.342265 v 1.71132 h 0.533638 v 2.053584 h 0.667047 v -2.053584 h 0.266818 v 2.053584 h 0.667048 v -2.053584 h 0.533638 v -1.71132 c 0,-0.189102 -0.238803,-0.342265 -0.533638,-0.342265 z"
     id="path6"
     style="stroke-width:0.21368489" />
  <path
     inkscape:connector-curvature="0"
     d="m 3.6461724,17.805956 c 0,0.283566 -0.3583385,0.513396 -0.8004576,0.513396 -0.4421183,0 -0.800456,-0.22983 -0.800456,-0.513396 0,-0.283565 0.3583377,-0.513396 0.800456,-0.513396 0.4421191,0 0.8004576,0.229831 0.8004576,0.513396 z"
     id="path4-5"
     style="stroke-width:0.21368489" />
  <path
     inkscape:connector-curvature="0"
     d="M 3.6461724,18.661616 H 2.0452588 c -0.2948353,0 -0.5336376,0.153163 -0.5336376,0.342265 V 20.7152 h 0.5336376 v 2.053585 H 2.712306 V 20.7152 h 0.2668184 v 2.053585 h 0.667048 V 20.7152 H 4.17981 v -1.711319 c 0,-0.189102 -0.2388031,-0.342265 -0.5336376,-0.342265 z"
     id="path6-6"
     style="stroke-width:0.21368489" />
  <path
     inkscape:connector-curvature="0"
     d="m 14.731514,12.569701 c 0.288308,-0.296292 0.46034,-0.664662 0.46034,-1.063755 0,-0.399092 -0.172032,-0.767462 -0.46034,-1.063753 l 0.533776,-0.425089 c 0.427362,0.406183 0.68745,0.922846 0.68745,1.488842 0,0.565997 -0.260428,1.082365 -0.68745,1.489138 z M 10.994398,9.5931981 10.459941,9.1675192 C 9.750732,9.7917104 9.3158913,10.607915 9.3158913,11.505946 c 0,0.898032 0.4348407,1.713941 1.1437097,2.338428 l 0.534457,-0.425679 c -0.568455,-0.516073 -0.91694,-1.181916 -0.91694,-1.912749 0,-0.730832 0.348824,-1.396675 0.91728,-1.9127479 z m 0.531736,3.4015909 0.533777,-0.425088 c -0.288307,-0.296292 -0.46034,-0.664662 -0.46034,-1.063755 0,-0.399092 0.172033,-0.767462 0.46034,-1.063753 l -0.533777,-0.425089 c -0.427361,0.406183 -0.68745,0.922846 -0.68745,1.488842 0,0.565997 0.260089,1.082365 0.68745,1.488843 z m 4.805349,-3.8272698 -0.534115,0.4256789 c 0.568454,0.5160729 0.916939,1.1819159 0.916939,1.9127479 0,0.730833 -0.348485,1.396676 -0.916939,1.912749 l 0.534456,0.425679 c 0.708868,-0.624782 1.143709,-1.440691 1.143709,-2.338428 0,-0.897736 -0.434841,-1.7142356 -1.14405,-2.3384268 z m -0.867642,7.0897248 h -0.732327 c -0.288987,-0.650778 -0.768707,-0.905713 -1.335802,-0.905713 -0.575254,0 -1.049874,0.261729 -1.335801,0.905713 h -0.718388 l 1.714204,-3.919437 c -0.395063,-0.122297 -0.67997,-0.446652 -0.67997,-0.831861 0,-0.489486 0.45694,-0.886215 1.019955,-0.886215 0.563016,0 1.019956,0.396729 1.019956,0.886215 0,0.385209 -0.284908,0.709859 -0.67997,0.831861 z m -2.068129,-3.017269 -0.289667,0.654027 h 0.578995 z m 0.682011,1.540242 -0.130895,-0.295405 h -1.102231 l -0.130894,0.295405 z"
     id="path2-3-5"
     style="stroke-width:0.3169122" />
  <path
     inkscape:connector-curvature="0"
     d="M 23.895716,5.5143754 V 3.8383939 C 23.078583,3.5448864 22.858703,3.5310923 22.744198,3.2525284 22.628932,2.9731981 22.775775,2.8046037 23.147058,2.0175745 L 21.970434,0.83243261 C 21.199712,1.2014244 21.02396,1.3550752 20.743975,1.2382086 20.467412,1.1224916 20.451815,0.89757131 20.16308,0.07835591 H 18.498763 C 18.208126,0.89987041 18.194431,1.1224916 17.917107,1.2382086 17.631035,1.3581405 17.459468,1.1998918 16.691029,0.83243261 L 15.514404,2.0175745 c 0.371666,0.7874125 0.518126,0.9552405 0.40286,1.2353371 -0.114885,0.2785638 -0.335146,0.2927411 -1.151517,0.5854823 v 1.6763646 c 0.813708,0.2912085 1.036632,0.3065352 1.151517,0.5854823 0.115646,0.2812461 -0.03081,0.4471584 -0.40286,1.234954 l 1.176625,1.1851419 c 0.76045,-0.3640106 0.939626,-0.5260911 1.226078,-0.4057761 0.276943,0.1157171 0.290638,0.3371888 0.581656,1.1598532 H 20.1627 c 0.288355,-0.8165337 0.303952,-1.0433697 0.584698,-1.1613858 0.283409,-0.1180161 0.451173,0.037933 1.223036,0.4069253 L 23.147058,7.3348117 C 22.776154,6.549315 22.628932,6.3799543 22.744198,6.0998577 22.858323,5.821677 23.078964,5.8074997 23.895716,5.5143754 Z m -1.854525,0.2927411 c -0.219499,0.5341377 -0.02587,0.9418296 0.185642,1.370979 l -0.41237,0.4153552 C 21.398669,7.38539 20.992385,7.1811608 20.455239,7.4056979 19.924179,7.6283191 19.774296,8.0544032 19.62289,8.5080756 H 19.039333 C 18.887928,8.0540199 18.738425,7.627936 18.208886,7.4064643 17.669077,7.1811608 17.255185,7.3892217 16.84738,7.5934507 L 16.43539,7.1780955 C 16.647281,6.7497124 16.840912,6.3427868 16.620652,5.8063502 16.400391,5.273362 15.97737,5.1227766 15.526578,4.9702753 V 4.3828771 c 0.450792,-0.1525012 0.873813,-0.3030867 1.093694,-0.8368412 0.21988,-0.5341377 0.02587,-0.9422127 -0.185643,-1.371362 L 16.847,1.7593185 c 0.411609,0.206145 0.822457,0.4126731 1.361886,0.1869866 0.529539,-0.2210886 0.679042,-0.6475558 0.830447,-1.10161109 h 0.583557 c 0.151406,0.45405529 0.301289,0.88013939 0.830828,1.10161109 0.539808,0.2253034 0.95332,0.017243 1.361506,-0.1869866 l 0.412371,0.4153554 c -0.211512,0.4295324 -0.405143,0.8379907 -0.185644,1.3717452 0.2195,0.5329881 0.642522,0.6835735 1.093695,0.836458 v 0.5877813 c -0.451933,0.1525013 -0.875717,0.3030868 -1.094455,0.8364581 z m -2.71046,-2.2802391 c 0.629207,0 1.141246,0.5157455 1.141246,1.1495072 0,0.6337616 -0.512039,1.1495072 -1.141246,1.1495072 -0.629206,0 -1.141246,-0.5157456 -1.141246,-1.1495072 0,-0.6337617 0.51204,-1.1495072 1.141246,-1.1495072 z m 0,-0.7663381 c -1.050707,0 -1.902076,0.8575324 -1.902076,1.9158453 0,1.058313 0.851369,1.9158453 1.902076,1.9158453 1.050708,0 1.902077,-0.8575323 1.902077,-1.9158453 0,-1.0583129 -0.851369,-1.9158453 -1.902077,-1.9158453 z"
     id="path2-8"
     style="stroke-width:0.42915562" />
</svg>
