<?xml version="1.0" encoding="UTF-8" standalone="no"?>
<svg
   xmlns:dc="http://purl.org/dc/elements/1.1/"
   xmlns:cc="http://creativecommons.org/ns#"
   xmlns:rdf="http://www.w3.org/1999/02/22-rdf-syntax-ns#"
   xmlns:svg="http://www.w3.org/2000/svg"
   xmlns="http://www.w3.org/2000/svg"
   xmlns:sodipodi="http://sodipodi.sourceforge.net/DTD/sodipodi-0.dtd"
   xmlns:inkscape="http://www.inkscape.org/namespaces/inkscape"
   width="24"
   height="24"
   fill-rule="evenodd"
   clip-rule="evenodd"
   version="1.1"
   id="svg4"
   sodipodi:docname="service-chat-room-settings.svg"
   inkscape:version="0.92.4 (5da689c313, 2019-01-14)">
  <metadata
     id="metadata10">
    <rdf:RDF>
      <cc:Work
         rdf:about="">
        <dc:format>image/svg+xml</dc:format>
        <dc:type
           rdf:resource="http://purl.org/dc/dcmitype/StillImage" />
        <dc:title />
      </cc:Work>
    </rdf:RDF>
  </metadata>
  <defs
     id="defs8" />
  <sodipodi:namedview
     pagecolor="#ffffff"
     bordercolor="#666666"
     borderopacity="1"
     objecttolerance="10"
     gridtolerance="10"
     guidetolerance="10"
     inkscape:pageopacity="0"
     inkscape:pageshadow="2"
     inkscape:window-width="2419"
     inkscape:window-height="1368"
     id="namedview6"
     showgrid="false"
     inkscape:zoom="19.666667"
     inkscape:cx="-5.9237285"
     inkscape:cy="12"
     inkscape:window-x="0"
     inkscape:window-y="0"
     inkscape:window-maximized="0"
     inkscape:current-layer="svg4" />
  <path
     d="m 18.254237,14.169339 h -2.256355 v 2.25439 l -4.011049,-2.25439 H 6.220339 v -2.25439 h 1.5042372 v 1.127195 h 4.7631678 l 2.0059,1.127195 V 13.042144 H 16.75 V 8.5327996 H 15.245763 V 7.4056048 h 3.008474 z M 13.741526,10.787754 H 6.4707945 l -4.0110488,2.25439 v -2.25439 H 0.20338982 V 2.8968245 H 13.741526 Z M 6.9724576,8.4860213 H 3.2118644 v 0.61094 H 6.9724576 Z M 10.733051,6.8425708 H 3.2118644 v 0.5635978 h 7.5211866 z m 0,-1.6907925 H 3.2118644 v 0.5635975 h 7.5211866 z"
     id="path2"
     inkscape:connector-curvature="0"
     style="stroke-width:0.65107006" />
  <path
     inkscape:connector-curvature="0"
     d="M 23.315612,4.4704856 V 3.1621995 C 22.578374,2.9330849 22.379992,2.9223171 22.276683,2.7048676 22.172688,2.4868199 22.305171,2.3552137 22.640154,1.7408516 L 21.578573,0.81571929 C 20.883208,1.1037576 20.724641,1.2236987 20.472031,1.1324717 20.222509,1.0421419 20.208438,0.86656716 19.947933,0.22708018 H 18.446345 C 18.184124,0.8683619 18.171768,1.0421419 17.92156,1.1324717 17.663458,1.2260912 17.508666,1.1025612 16.815362,0.81571929 L 15.753781,1.7408516 c 0.335326,0.6146612 0.467466,0.7456692 0.36347,0.9643152 -0.103653,0.2174494 -0.302377,0.2285163 -1.038928,0.4570327 v 1.3085852 c 0.734148,0.22732 0.935275,0.2392841 1.038928,0.4570327 0.104339,0.2195432 -0.0278,0.3490559 -0.36347,0.9640161 l 1.061581,0.9251321 c 0.686096,-0.2841495 0.847753,-0.410671 1.106198,-0.3167524 0.249865,0.09033 0.262221,0.2632126 0.524785,0.9053915 h 1.501245 c 0.260161,-0.6373932 0.274233,-0.8144634 0.52753,-0.9065879 0.255698,-0.092124 0.407059,0.029612 1.103453,0.3176497 l 1.061581,-0.925132 C 22.305514,5.2783688 22.172688,5.1461642 22.276683,4.9275183 22.379649,4.7103679 22.578717,4.699301 23.315612,4.4704856 Z m -1.6732,0.2285164 c -0.198038,0.4169526 -0.02334,0.7352006 0.167492,1.0701983 L 21.437853,6.0934304 C 21.062713,5.9310164 20.696154,5.7715933 20.211526,5.9468689 19.732391,6.120649 19.597162,6.4532538 19.46056,6.8073945 h -0.5265 C 18.797458,6.4529547 18.662573,6.1203499 18.18481,5.947467 17.697781,5.7715933 17.324357,5.9340074 16.956425,6.0934304 L 16.584717,5.7692003 C 16.775891,5.4348008 16.95059,5.1171511 16.751865,4.6984037 16.553141,4.2823484 16.17148,4.1648001 15.764764,4.0457562 V 3.5872279 C 16.17148,3.4681841 16.553141,3.3506358 16.751522,2.9339822 16.949904,2.5170296 16.774861,2.1984826 16.584031,1.8634847 l 0.37205,-0.32423 c 0.371365,0.1609186 0.742043,0.3221363 1.228729,0.1459634 0.477763,-0.1725837 0.612648,-0.5054878 0.74925,-0.85992734 h 0.5265 c 0.136602,0.35443954 0.271831,0.68704454 0.749594,0.85992734 0.487029,0.1758738 0.86011,0.01346 1.228385,-0.1459634 l 0.372051,0.32423 c -0.190831,0.3352969 -0.36553,0.654143 -0.167492,1.0707966 0.198039,0.4160554 0.5797,0.5336037 0.986759,0.6529466 V 4.0460553 C 22.222112,4.1650993 21.839764,4.2826475 21.642412,4.699002 Z M 19.196967,2.919027 c 0.567687,0 1.029661,0.4025955 1.029661,0.8973155 0,0.4947201 -0.461974,0.8973157 -1.029661,0.8973157 -0.567686,0 -1.029661,-0.4025956 -1.029661,-0.8973157 0,-0.49472 0.461975,-0.8973155 1.029661,-0.8973155 z m 0,-0.5982104 c -0.947975,0 -1.716102,0.6693975 -1.716102,1.4955259 0,0.8261287 0.768127,1.4955262 1.716102,1.4955262 0.947974,0 1.716101,-0.6693975 1.716101,-1.4955262 0,-0.8261284 -0.768127,-1.4955259 -1.716101,-1.4955259 z"
     id="path2-5"
     style="stroke-width:0.32040441" />
  <path
     id="path2-3"
     d="m 6.9898515,14.771186 h -4.994143 v 9 h 5 v -1.332032 c 1.243,0.069 2.953571,0.322469 5.7265615,1.105469 0.476002,0.135 0.903594,0.199219 1.308594,0.199219 0.903,0 1.670922,-0.318868 2.419922,-1.005859 0.482,-0.441001 3.557547,-3.186797 4.935547,-4.466797 0.408,-0.379296 0.597518,-0.865248 0.609375,-1.355469 0.005,-0.20637 0.02236,-0.399278 -0.01367,-0.619141 -0.0077,-0.04682 0.03202,-0.08915 -0.251721,-0.482157 -0.03504,-0.04854 -0.303091,-0.333476 -0.576404,-0.459249 -0.226,-0.104 -0.628625,-0.146484 -0.890625,-0.146484 -0.427,0 -0.844172,0.149593 -1.201172,0.433593 -0.017,0.013 -1.811547,1.406532 -2.935547,2.269532 -0.099,-0.59 -0.535781,-1.092641 -1.175781,-1.306641 -2.098,-0.706 -3.088734,-1.205078 -4.302734,-1.205078 -0.628,0 -1.2447185,0.137969 -1.8867185,0.417969 l -1.789272,0.578125 m -3.976355,-0.625 h 3 v 7 h -3 z m 17.3203115,0.4375 c 0.599251,0.03952 1.008623,0.756328 0.390626,1.330078 -2.207002,2.05 -3.650688,3.29089 -4.929688,4.46289 -1.021,0.935 -1.966203,0.813032 -2.783203,0.582032 -1.594,-0.451 -3.9060465,-1.030438 -5.9980465,-1.148438 v -3.886719 c 0.732,-0.198 1.525063,-0.536453 2.164063,-0.814453 1.3709995,-0.597 2.2829835,-0.29475 3.5839835,0.15625 1.352,0.467 1.328625,0.474063 1.890625,0.664063 0.854,0.285 0.595125,1.433343 -0.421875,1.152344 -0.607,-0.170001 -1.754172,-0.426532 -2.201172,-0.519532 -0.639,-0.135 -0.844531,0.674422 -0.269531,0.857422 0.872,0.276 2.745469,0.744141 3.105468,0.744141 0.453,0 0.767485,-0.234533 1.146485,-0.519531 0.728,-0.544002 3.689453,-2.84375 3.689453,-2.84375 0.211,-0.167502 0.433062,-0.229969 0.632812,-0.216797 z"
     inkscape:connector-curvature="0"
     sodipodi:nodetypes="ccccccsccssssscccscccccccccccccccccccsccc" />
</svg>
