<?xml version="1.0" encoding="UTF-8" standalone="no"?>
<svg
   xmlns:dc="http://purl.org/dc/elements/1.1/"
   xmlns:cc="http://creativecommons.org/ns#"
   xmlns:rdf="http://www.w3.org/1999/02/22-rdf-syntax-ns#"
   xmlns:svg="http://www.w3.org/2000/svg"
   xmlns="http://www.w3.org/2000/svg"
   xmlns:sodipodi="http://sodipodi.sourceforge.net/DTD/sodipodi-0.dtd"
   xmlns:inkscape="http://www.inkscape.org/namespaces/inkscape"
   width="24"
   height="24"
   viewBox="0 0 24 24"
   version="1.1"
   id="svg4"
   sodipodi:docname="network-host.svg"
   inkscape:version="0.92.2 (5c3e80d, 2017-08-06)">
  <metadata
     id="metadata10">
    <rdf:RDF>
      <cc:Work
         rdf:about="">
        <dc:format>image/svg+xml</dc:format>
        <dc:type
           rdf:resource="http://purl.org/dc/dcmitype/StillImage" />
        <dc:title></dc:title>
      </cc:Work>
    </rdf:RDF>
  </metadata>
  <defs
     id="defs8" />
  <sodipodi:namedview
     pagecolor="#ffffff"
     bordercolor="#666666"
     borderopacity="1"
     objecttolerance="10"
     gridtolerance="10"
     guidetolerance="10"
     inkscape:pageopacity="0"
     inkscape:pageshadow="2"
     inkscape:window-width="879"
     inkscape:window-height="480"
     id="namedview6"
     showgrid="false"
     inkscape:zoom="9.8333333"
     inkscape:cx="12"
     inkscape:cy="12"
     inkscape:window-x="501"
     inkscape:window-y="153"
     inkscape:window-maximized="0"
     inkscape:current-layer="svg4" />
  <path
     d="m 7.1914576,18.20212 c 0.3449491,-0.425 0.5507796,-0.953391 0.5507796,-1.525848 0,-0.572457 -0.2058305,-1.100848 -0.5507796,-1.525848 l 0.6386441,-0.609746 c 0.511322,0.582627 0.8225085,1.323728 0.8225085,2.135594 0,0.811864 -0.3115932,1.552543 -0.8225085,2.136017 z M 2.7201356,13.932628 2.0806779,13.322034 c -0.8485423,0.89534 -1.36881349,2.066102 -1.36881349,3.354238 0,1.288134 0.52027119,2.458474 1.36840679,3.354236 L 2.7197288,19.419916 C 2.0395932,18.679662 1.6226441,17.724577 1.6226441,16.676272 c 0,-1.048305 0.4173559,-2.00339 1.0974915,-2.743644 z M 3.356339,18.811866 3.994983,18.20212 c -0.3449491,-0.425 -0.5507797,-0.953391 -0.5507797,-1.525848 0,-0.572457 0.2058306,-1.100848 0.5507797,-1.525848 L 3.356339,14.540678 c -0.511322,0.582627 -0.8225085,1.323728 -0.8225085,2.135594 0,0.811864 0.3111865,1.552543 0.8225085,2.135594 z m 5.7494241,-5.489832 -0.6390513,0.610594 c 0.680136,0.740254 1.0970845,1.695339 1.0970845,2.743644 0,1.048305 -0.4169485,2.00339 -1.0970845,2.743644 l 0.6394574,0.610592 c 0.8481362,-0.896185 1.3684068,-2.066525 1.3684068,-3.354236 0,-1.287712 -0.5202706,-2.458898 -1.3688129,-3.354238 z M 8.067661,23.491526 H 7.1914576 C 6.8456949,22.558051 6.2717288,22.192374 5.5932203,22.192374 c -0.6882712,0 -1.2561356,0.375423 -1.5982373,1.299152 H 3.1354576 l 2.050983,-5.622034 c -0.4726779,-0.175423 -0.8135593,-0.640677 -0.8135593,-1.19322 0,-0.70212 0.5467119,-1.271187 1.220339,-1.271187 0.6736271,0 1.220339,0.569067 1.220339,1.271187 0,0.552543 -0.3408814,1.01822 -0.8135593,1.19322 z M 5.5932203,19.16356 5.246644,20.101695 h 0.6927458 z m 0.816,2.209322 -0.1566101,-0.42373 H 4.9338305 l -0.1566102,0.42373 z"
     id="path2"
     inkscape:connector-curvature="0"
     style="stroke-width:0.41516778" />
  <path
     d="m 20.328554,18.198025 c 0.326984,-0.4335 0.522094,-0.972458 0.522094,-1.556364 0,-0.583907 -0.19511,-1.122865 -0.522094,-1.556365 l 0.605382,-0.621941 c 0.48469,0.59428 0.77967,1.350204 0.77967,2.178306 0,0.828101 -0.295365,1.583593 -0.77967,2.178737 z m -4.23844,-4.354881 -0.606152,-0.622806 c -0.804347,0.913246 -1.297522,2.107424 -1.297522,3.421323 0,1.313898 0.493175,2.507644 1.297137,3.421321 l 0.606152,-0.622804 c -0.644712,-0.75506 -1.039945,-1.729246 -1.039945,-2.798517 0,-1.069271 0.395619,-2.043458 1.04033,-2.798517 z m 0.603067,4.976822 0.605382,-0.621941 c -0.326983,-0.4335 -0.522093,-0.972458 -0.522093,-1.556364 0,-0.583907 0.19511,-1.122865 0.522093,-1.556365 l -0.605382,-0.621941 c -0.48469,0.59428 -0.779669,1.350204 -0.779669,2.178306 0,0.828101 0.294979,1.583593 0.779669,2.178305 z m 5.449976,-5.599628 -0.605767,0.622806 c 0.644711,0.755059 1.039945,1.729246 1.039945,2.798517 0,1.069271 -0.395234,2.043457 -1.039945,2.798517 l 0.606152,0.622804 c 0.803963,-0.914109 1.297136,-2.107856 1.297136,-3.421321 0,-1.313467 -0.493173,-2.508077 -1.297521,-3.421323 z M 21.159123,23.59322 h -0.830569 c -0.327753,-0.952144 -0.871825,-1.325136 -1.514995,-1.325136 -0.652424,0 -1.190712,0.382933 -1.514996,1.325136 h -0.814759 l 1.944162,-5.734474 c -0.44806,-0.178933 -0.771187,-0.653492 -0.771187,-1.217085 0,-0.716161 0.518237,-1.296611 1.15678,-1.296611 0.638542,0 1.15678,0.58045 1.15678,1.296611 0,0.563593 -0.323128,1.038585 -0.771187,1.217085 z m -2.345564,-4.414526 -0.328525,0.956899 h 0.656664 z m 0.7735,2.253509 L 19.438606,21 h -1.250094 l -0.148453,0.432203 z"
     id="path2-1"
     inkscape:connector-curvature="0"
     style="stroke-width:0.40823364" />
  <path
     d="m 14.416089,6.7672625 c 0.420407,-0.5185 0.671263,-1.163136 0.671263,-1.861534 0,-0.698398 -0.250856,-1.343034 -0.671263,-1.861534 l 0.778348,-0.74389 c 0.623173,0.710805 1.002432,1.614949 1.002432,2.605424 0,0.990474 -0.379754,1.894102 -1.002432,2.605941 z m -5.4494229,-5.20878 -0.779339,-0.744924 c -1.034161,1.092314 -1.6682415,2.520644 -1.6682415,4.09217 0,1.571525 0.6340805,2.999339 1.6677458,4.092169 l 0.7793389,-0.744923 c -0.8289152,-0.903111 -1.337072,-2.068314 -1.337072,-3.347246 0,-1.278932 0.5086526,-2.444136 1.3375678,-3.347246 z m 0.7753729,5.95267 0.778347,-0.74389 c -0.420406,-0.5185 -0.671262,-1.163136 -0.671262,-1.861534 0,-0.698398 0.250856,-1.343034 0.671262,-1.861534 l -0.778347,-0.74389 c -0.6231737,0.710805 -1.0024322,1.614949 -1.0024322,2.605424 0,0.990474 0.3792585,1.894102 1.0024322,2.605424 z m 7.00711,-6.697594 -0.778844,0.744924 c 0.828916,0.90311 1.337072,2.068314 1.337072,3.347246 0,1.278932 -0.508156,2.444135 -1.337072,3.347246 l 0.779339,0.744923 c 1.033666,-1.093347 1.667746,-2.521161 1.667746,-4.092169 0,-1.571009 -0.63408,-2.999856 -1.668241,-4.09217 z M 15.483962,13.220338 h -1.067873 c -0.421398,-1.138839 -1.120919,-1.584966 -1.947851,-1.584966 -0.838831,0 -1.530915,0.458017 -1.947852,1.584966 H 9.4728398 L 11.972475,6.3614575 c -0.576076,-0.214017 -0.991525,-0.781627 -0.991525,-1.455729 0,-0.856585 0.666305,-1.550848 1.487288,-1.550848 0.820983,0 1.487288,0.694263 1.487288,1.550848 0,0.674102 -0.415449,1.242229 -0.991526,1.455729 z m -3.015724,-5.2801185 -0.42239,1.144526 h 0.844284 z m 0.9945,2.6953735 -0.190869,-0.516949 h -1.607263 l -0.190868,0.516949 z"
     id="path2-0"
     inkscape:connector-curvature="0"
     style="stroke-width:0.50624514" />
</svg>
