<?xml version="1.0" encoding="UTF-8" standalone="no"?>
<svg
   xmlns:dc="http://purl.org/dc/elements/1.1/"
   xmlns:cc="http://creativecommons.org/ns#"
   xmlns:rdf="http://www.w3.org/1999/02/22-rdf-syntax-ns#"
   xmlns:svg="http://www.w3.org/2000/svg"
   xmlns="http://www.w3.org/2000/svg"
   xmlns:sodipodi="http://sodipodi.sourceforge.net/DTD/sodipodi-0.dtd"
   xmlns:inkscape="http://www.inkscape.org/namespaces/inkscape"
   width="24"
   height="24"
   viewBox="0 0 24 24"
   version="1.1"
   id="svg4"
   sodipodi:docname="service-connect-random-relay.svg"
   inkscape:version="0.92.4 (5da689c313, 2019-01-14)">
  <metadata
     id="metadata10">
    <rdf:RDF>
      <cc:Work
         rdf:about="">
        <dc:format>image/svg+xml</dc:format>
        <dc:type
           rdf:resource="http://purl.org/dc/dcmitype/StillImage" />
        <dc:title />
      </cc:Work>
    </rdf:RDF>
  </metadata>
  <defs
     id="defs8" />
  <sodipodi:namedview
     pagecolor="#ffffff"
     bordercolor="#666666"
     borderopacity="1"
     objecttolerance="10"
     gridtolerance="10"
     guidetolerance="10"
     inkscape:pageopacity="0"
     inkscape:pageshadow="2"
     inkscape:window-width="2949"
     inkscape:window-height="1447"
     id="namedview6"
     showgrid="false"
     inkscape:zoom="13.906433"
     inkscape:cx="-23.585575"
     inkscape:cy="9.3188198"
     inkscape:window-x="475"
     inkscape:window-y="208"
     inkscape:window-maximized="0"
     inkscape:current-layer="svg4" />
  <path
     d="m 8.5361586,19.262476 c -0.00978,-0.01904 0.095457,-0.02943 0.1141557,-0.02943 0.020653,0.0025 -0.054703,0.130384 -0.1141557,0.02943 z m -0.6006436,-0.88615 0.03015,-0.0089 c 0.017858,0.01587 -0.02009,0.02741 -0.014237,0.03924 0.024005,0.04471 0.00592,0.07154 0.00221,0.09577 -0.00393,0.02451 -0.029031,0.01385 -0.041586,0.02684 -0.014793,0.01904 0.072011,0.02163 0.073127,0.02452 0.00306,0.0095 -0.1046667,0.02568 -0.084849,0.04933 0.026799,0.03925 0.229986,-0.05626 0.1976104,-0.05076 0.062802,-0.0326 0.0081,-0.03606 -0.027077,-0.05481 -0.011999,-0.06202 -0.022051,-0.157788 -0.059451,-0.196153 l 0.024561,-0.02942 c -0.057497,-0.0863 -0.1004796,0.104365 -0.1004796,0.104365 z m 3.630662,1.990664 c 0,1.911627 -1.499658,3.461523 -3.3493201,3.461523 -1.8499407,0 -3.34932,-1.549896 -3.34932,-3.461523 0,-1.911626 1.4993793,-3.461523 3.34932,-3.461523 1.8496621,0 3.3493201,1.549897 3.3493201,3.461523 z M 9.2467739,18.817671 c -0.00167,-0.04211 -0.053025,-0.08193 -0.1066209,-0.0089 -0.037679,0.05018 -0.030981,0.126634 -0.051355,0.160671 -0.029041,0.05048 0.1582552,0.09779 0.1582552,0.05019 0.00696,-0.0799 0.2043094,-0.01818 0.2428263,-0.0072 0.069215,0.01991 0.1794676,-0.06519 0.058898,-0.109903 -0.099085,-0.03751 -0.1512785,-0.0776 -0.1602097,-0.150864 0,0 0.052468,-0.05076 0.029589,-0.04789 -0.060838,0.0078 -0.1713743,0.226729 -0.1713743,0.113942 z m 1.7572751,1.549319 c 0,-0.298556 -0.0494,-0.599997 -0.09964,-0.759227 -0.01618,-0.05019 -0.05275,-0.09 -0.100197,-0.109037 -0.07145,-0.02885 -0.37317,0.17221 -0.418665,0.07327 -0.02986,-0.06606 -0.09044,0.04211 -0.159651,0.0022 -0.0335,-0.01905 -0.126716,-0.148556 -0.168861,-0.132691 -0.08624,0.03201 0.132297,0.278075 0.192027,0.310383 0.0561,-0.04385 0.237802,-0.134134 0.276878,-0.01096 0.0748,0.231922 -0.205705,0.486055 -0.349168,0.619901 C 9.9624168,20.56102 10.002608,20.231312 9.8566339,20.115061 9.7798849,20.054191 9.7807189,19.924677 9.7031231,19.879965 9.6685151,19.859775 9.5096999,19.670833 9.5110954,19.645447 l -0.00473,0.04789 c -0.026239,0.02048 -0.082057,-0.07731 -0.087921,-0.0926 0,0.08509 0.1339717,0.220671 0.1783506,0.288748 0.075636,0.116827 0.1161092,0.287017 0.208774,0.3825 0.049685,0.05135 0.239477,0.263652 0.288879,0.259036 0.05387,-0.005 0.224126,-0.132115 0.254269,-0.124903 0.179748,0.04384 -0.4231307,0.924515 -0.480348,1.033553 -0.047171,0.09144 0.038524,0.317595 0.031537,0.425768 -0.00807,0.124902 -0.1032708,0.165287 -0.1934222,0.233365 -0.096573,0.07298 -0.073966,0.214901 -0.1551855,0.266824 -0.1443003,0.09172 -0.2481288,0.390287 -0.4529971,0.388845 -0.060281,-2.89e-4 -0.3181844,0.103845 -0.3519563,0.002 -0.026239,-0.07384 -0.061404,-0.129807 -0.098526,-0.202788 -0.036281,-0.07154 -0.00414,-0.145673 -0.048287,-0.208844 -0.03042,-0.04385 -0.1325771,-0.143366 -0.1417873,-0.195288 -5.59e-4,-0.0447 0.032652,-0.180576 0.078151,-0.204229 0.063914,-0.03375 0.012277,-0.132116 0.00449,-0.189231 -0.013396,-0.102114 -0.074522,-0.186345 -0.1479278,-0.245479 -0.1085742,-0.08626 -0.052471,-0.154904 -0.027071,-0.278077 0,-0.05885 -0.034613,-0.136152 -0.1110857,-0.113075 -0.1574191,0.0473 -0.1096905,-0.126923 -0.2244052,-0.119135 -0.082616,0.0061 -0.1501607,0.06029 -0.2269169,0.08422 -0.096572,0.03 -0.1953767,-0.02365 -0.2908323,-0.03606 -0.3927078,-0.05134 -0.5208183,-0.51519 -0.4183854,-0.849804 0.010331,-0.05481 -0.031818,-0.156346 -0.013396,-0.19875 0.044102,-0.101537 0.1339736,-0.215478 0.2126824,-0.292496 0.044102,-0.04327 0.1007591,-0.03231 0.1526731,-0.06606 0.080105,-0.0522 0.08122,-0.159519 0.1596505,-0.225288 0.1116449,-0.09374 0.2640385,-0.09172 0.4097333,-0.111922 0.077593,-0.01066 0.3728913,-0.07672 0.4195033,-0.01731 0,0.01096 0.053306,0.17423 -0.00528,0.164999 0.1208558,0.0066 0.2930658,0.216057 0.4077796,0.16702 0.058898,-0.02539 0.0374,-0.212306 0.1582557,-0.12202 0.073122,0.05423 0.4008022,0.07847 0.4689047,0.0199 0.041873,-0.03576 0.06531,-0.268267 0.014511,-0.294516 0.032381,0.03317 -0.1705355,0.03576 -0.1895151,0.02827 -0.033494,-0.01268 -0.064753,0.03288 -0.1186223,0.0072 0.032381,0.01586 -0.1803054,-0.102114 -0.060838,-0.192402 -0.049963,0.0378 -0.096573,-0.01066 -0.1504407,0.03087 -0.037113,0.03115 0.017304,0.05192 -0.035721,0.07904 -0.084297,0.04415 -0.1479325,-0.151423 -0.1797505,-0.173634 -0.032381,-0.02192 -0.2830185,-0.203653 -0.2149151,-0.08509 l 0.2202176,0.226439 c -0.010884,0.0072 -0.057776,-0.0825 -0.057776,-0.01702 0.014789,-0.03894 0.00557,0.167018 -0.029041,0.100094 -0.015346,-0.02568 0.025126,-0.0401 0.00167,-0.07731 0,-0.02452 -0.063636,-0.04846 -0.075918,-0.06519 -0.034891,-0.04471 -0.127553,-0.143363 -0.1777932,-0.167017 -0.013952,-0.0066 -0.21324,0.0251 -0.2299868,0.03173 -0.019535,0.02827 -0.036281,0.058 -0.049961,0.08971 -0.041307,0.01587 -0.080104,0.03635 -0.1169459,0.06172 l -0.043817,0.101826 c -0.018978,0.0176 -0.2135202,0.08394 -0.2146367,0.08654 0.0081,-0.02163 -0.1359271,-0.04933 -0.1264365,-0.0926 0.010609,-0.04761 0.059451,-0.196153 0.046889,-0.250383 -0.013396,-0.05683 0.2997639,0.08193 0.31986,-0.06779 0.0081,-0.0649 0.012841,-0.14048 -0.087361,-0.151442 0.018978,0.0022 0.1939817,-0.07096 0.2230093,-0.103843 0.040751,-0.04847 0.1342517,-0.1275 0.2020748,-0.1275 0.079267,0 0.062246,-0.119134 0.098805,-0.177404 0.03656,0.01529 -0.019535,0.108461 0.024282,0.146249 -0.00279,-0.0297 0.1242038,0.01646 0.1364839,0.0095 0.029031,-0.01557 0.190912,-0.0063 0.165792,-0.0848 -0.027909,-0.0799 0.014233,-0.05626 0.05052,-0.07297 -0.00613,0.0025 0.094898,-0.178559 0.1122021,-0.119135 -0.011997,-0.06115 -0.1175055,0.02135 -0.1543477,0.01818 -0.085128,-0.007 -0.049119,-0.149999 -0.017026,-0.191826 0.024838,-0.03316 -0.067824,-0.07384 -0.068938,-0.01038 -0.00167,0.0949 -0.087082,0.180865 -0.067265,0.306921 0.03015,0.190097 -0.2051461,-0.04587 -0.2257997,-0.03288 -0.078151,0.04903 -0.1420683,-0.06172 -0.1015968,-0.128076 0.041307,-0.06778 0.1409505,-0.06462 0.1819802,-0.137308 0.029031,-0.05134 0.062802,-0.111057 0.107457,-0.149999 0.1493235,-0.129517 0.1906322,-0.02596 0.3393982,-0.01183 0.1454164,0.01385 0.04912,0.03577 0.029023,0.09346 -0.019252,0.05482 0.07983,0.07442 0.1141561,0.02856 0.019531,-0.02653 0.063918,-0.09317 0.08317,-0.142499 0.024838,-0.06403 0.2514779,-0.05683 0.093222,-0.154615 -0.1043814,-0.06432 -0.5593302,-0.193839 -0.8641184,-0.193839 -0.065868,0 -0.1119229,0.07586 -0.1621629,0.118847 -0.099364,0.08508 -0.3539117,0.252113 -0.4954211,0.201346 -0.1448578,-0.05163 -0.4549493,0.190382 -0.5046305,0.192113 -0.018144,0.0013 0.00107,-0.182884 0.099921,-0.196441 -0.042698,0.0066 0.3480498,-0.203941 0.3374436,-0.247788 -0.012833,-0.05192 -0.7812293,0.237115 -0.7468982,0.295095 0.016469,0.02653 0.083455,0.02653 -0.00449,0.0848 -0.05024,0.03144 -0.1038282,0.231057 -0.1509988,0.231057 -0.1409545,0.06376 -0.149886,-0.125474 -0.3067455,0.117987 L 6.1869247,18.39064 c -0.3706582,0.407016 -0.6271604,0.922496 -0.720104,1.495088 -0.00362,0.02278 0.093222,0.06519 0.1057827,0.08077 0.031259,0.03865 0.031259,0.205384 0.046613,0.259903 0.038518,0.137883 0.1336937,0.214615 0.2065414,0.340094 0.042982,0.07471 0.1144352,0.263652 0.091827,0.342115 0.030142,-0.05136 0.2986475,0.235095 0.3477705,0.294806 0.1155516,0.14048 0.2045886,0.310671 0.017025,0.449709 -0.06057,0.04499 0.092106,0.325672 0.013396,0.394616 l -0.1007581,0.02683 c -0.099363,0.06317 -0.054425,0.218076 0.00584,0.283268 0.5074217,0.548363 1.2225008,0.890477 2.0151734,0.890477 1.5398498,0 2.7880304,-1.289994 2.7880304,-2.88143 z M 7.7923309,18.533249 c 0.034891,-0.01587 0.081778,-0.01529 0.086803,-0.06346 0.00414,-0.04269 0.012277,-0.01326 0.022321,-0.02885 0.00977,-0.01529 -0.0187,-0.0398 -0.030706,-0.04212 -0.017858,-0.0041 -0.030142,0.0199 -0.041586,0.03 l -0.02009,0.0054 -0.018978,0.0251 0.00221,0.01385 -0.024282,0.03058 c -0.023726,0.02423 5.583e-4,0.0401 0.024282,0.02942 z"
     id="path2"
     inkscape:connector-curvature="0"
     style="stroke-width:0.28374663" />
  <path
     inkscape:connector-curvature="0"
     d="m 14.405107,18.36363 c -0.202741,0.143145 -0.4507,0.227783 -0.71842,0.227783 -0.271269,0 -0.522231,-0.0868 -0.726472,-0.23341 h -0.0088 c -1.010949,0.190894 -1.039012,1.234437 -1.039012,1.234437 0,0 0.488667,0.954768 1.728818,1.004147 1.240201,0.04937 1.728819,-1.003944 1.728819,-1.003944 -0.03941,-0.932004 -0.814764,-1.186052 -0.964978,-1.229013 z"
     id="path2-5"
     style="stroke-width:0.04969889" />
  <path
     inkscape:connector-curvature="0"
     d="m 13.686687,16.400278 c -0.542139,0 -0.981685,0.433885 -0.981685,0.969039 0,0.535155 0.439546,0.969031 0.981685,0.969031 0.542192,0 0.981687,-0.433876 0.981687,-0.969031 0,-0.535154 -0.439495,-0.969039 -0.981687,-0.969039 z m 0.145316,1.680864 h -0.273622 v -0.270094 h 0.273622 z m 0.319941,-0.849787 c -0.03412,0.05323 -0.106998,0.125614 -0.218646,0.217263 -0.05778,0.04744 -0.09364,0.08556 -0.107599,0.114407 -0.01391,0.02881 -0.02021,0.08038 -0.01896,0.154748 H 13.55838 c -6.4e-4,-0.03521 -10e-4,-0.05666 -10e-4,-0.06437 0,-0.07946 0.01335,-0.144877 0.03993,-0.196131 0.02661,-0.05127 0.07984,-0.108926 0.159722,-0.173019 0.07989,-0.0641 0.127606,-0.106064 0.143163,-0.125959 0.02397,-0.03137 0.03602,-0.06599 0.03602,-0.103839 0,-0.05256 -0.02127,-0.09757 -0.06378,-0.135047 -0.04252,-0.03745 -0.09979,-0.05627 -0.171876,-0.05627 -0.06948,0 -0.127556,0.01957 -0.174328,0.05863 -0.04673,0.03913 -0.07888,0.0987 -0.09639,0.178797 l -0.251261,-0.03076 c 0.0072,-0.114704 0.05663,-0.212128 0.148515,-0.292218 0.09184,-0.08009 0.212443,-0.120136 0.361761,-0.120136 0.157119,0 0.282075,0.04054 0.374965,0.121565 0.0928,0.08107 0.139263,0.175445 0.139263,0.283084 0,0.05965 -0.01712,0.11604 -0.05113,0.169222 z"
     id="path4-7"
     style="stroke-width:0.04969889" />
  <path
     inkscape:connector-curvature="0"
     d="m 3.7172252,18.441673 c -0.20274,0.143144 -0.4507003,0.227781 -0.7184196,0.227781 -0.2712696,0 -0.5222313,-0.0868 -0.7264727,-0.23341 h -0.00879 c -1.0109486,0.190895 -1.0390109,1.234437 -1.0390109,1.234437 0,0 0.4886667,0.954769 1.7288178,1.004148 1.2402011,0.04937 1.7288185,-1.003945 1.7288185,-1.003945 -0.039415,-0.932003 -0.8147601,-1.186051 -0.9649751,-1.229011 z"
     id="path2-5-3"
     style="stroke-width:0.04969889" />
  <path
     inkscape:connector-curvature="0"
     d="m 2.9988056,16.478321 c -0.5421398,0 -0.981685,0.433884 -0.981685,0.969037 0,0.535156 0.4395452,0.969032 0.981685,0.969032 0.5421921,0 0.9816866,-0.433876 0.9816866,-0.969032 0,-0.535153 -0.4394945,-0.969037 -0.9816866,-0.969037 z m 0.1453157,1.680863 H 2.870499 v -0.270093 h 0.2736223 z m 0.3199412,-0.849788 c -0.03412,0.05323 -0.1069978,0.125615 -0.2186468,0.217264 -0.057776,0.04744 -0.093642,0.08556 -0.1075981,0.114407 -0.013909,0.02881 -0.020212,0.08038 -0.018964,0.154749 H 2.8704955 c -6.41e-4,-0.03522 -10e-4,-0.05666 -10e-4,-0.06437 0,-0.07946 0.013353,-0.144878 0.039924,-0.196129 0.026614,-0.05127 0.079837,-0.108928 0.1597212,-0.173021 0.079888,-0.0641 0.1276065,-0.106063 0.143164,-0.125959 0.023961,-0.03138 0.036018,-0.06599 0.036018,-0.103838 0,-0.05256 -0.021267,-0.09758 -0.063779,-0.135048 -0.042519,-0.03745 -0.099798,-0.05628 -0.1718765,-0.05628 -0.069475,0 -0.127556,0.01957 -0.1743277,0.05863 -0.046726,0.03913 -0.078888,0.0987 -0.096387,0.178796 l -0.251262,-0.03075 c 0.00717,-0.114705 0.056628,-0.212129 0.1485154,-0.29222 0.091836,-0.08009 0.2124443,-0.120135 0.3617609,-0.120135 0.1571197,0 0.2820748,0.04054 0.3749659,0.121565 0.092795,0.08108 0.1392622,0.175444 0.1392622,0.283082 0,0.05965 -0.017118,0.116042 -0.051124,0.169224 z"
     id="path4-7-0"
     style="stroke-width:0.04969889" />
  <path
     inkscape:connector-curvature="0"
     d="m 13.852948,12.120514 c 0.24462,-0.282222 0.390585,-0.633102 0.390585,-1.013243 0,-0.380141 -0.145965,-0.73102 -0.390585,-1.013242 l 0.452894,-0.404903 c 0.362604,0.386895 0.583281,0.879024 0.583281,1.418145 0,0.539121 -0.220966,1.03097 -0.583281,1.418427 z M 10.682114,9.2853484 10.228642,8.8798827 C 9.6268999,9.4744345 9.2579496,10.251882 9.2579496,11.107271 c 0,0.855389 0.3689503,1.632556 0.9704034,2.227389 l 0.453471,-0.405466 C 10.199507,12.437627 9.9038284,11.8034 9.9038284,11.107271 c 0,-0.696129 0.2959676,-1.330355 0.7782856,-1.8219226 z m 0.451162,3.2400676 0.452894,-0.404902 c -0.24462,-0.282222 -0.390584,-0.633102 -0.390584,-1.013243 0,-0.380141 0.145964,-0.73102 0.390584,-1.013242 L 11.133276,9.689126 c -0.362603,0.386895 -0.58328,0.879024 -0.58328,1.418145 0,0.539121 0.220677,1.03097 0.58328,1.418145 z m 4.0772,-3.6455333 -0.453181,0.4054657 c 0.482317,0.4915676 0.777996,1.1257936 0.777996,1.8219226 0,0.696129 -0.295679,1.330356 -0.777996,1.821923 l 0.453471,0.405466 c 0.601453,-0.595115 0.970403,-1.372282 0.970403,-2.227389 0,-0.855108 -0.36895,-1.6328365 -0.970693,-2.2273883 z m -0.736169,6.7530723 h -0.621359 c -0.245196,-0.619874 -0.652225,-0.862704 -1.133388,-0.862704 -0.488087,0 -0.890788,0.249301 -1.13339,0.862704 h -0.609532 l 1.454455,-3.733324 c -0.3352,-0.11649 -0.576936,-0.425443 -0.576936,-0.79236 0,-0.466243 0.387701,-0.844134 0.865403,-0.844134 0.477701,0 0.865402,0.377891 0.865402,0.844134 0,0.366917 -0.241736,0.676152 -0.576935,0.79236 z M 12.71956,12.75896 12.473785,13.381932 h 0.491261 z m 0.578665,1.467106 -0.111059,-0.281378 h -0.935212 l -0.11106,0.281378 z"
     id="path2-3-8"
     style="stroke-width:0.2849007" />
  <path
     inkscape:connector-curvature="0"
     d="m 5.0608026,12.255001 c 0.24462,-0.282224 0.3905844,-0.633101 0.3905844,-1.013243 0,-0.380142 -0.1459644,-0.73102 -0.3905844,-1.013242 L 5.5136963,9.8236127 c 0.3626037,0.3868943 0.583281,0.8790253 0.583281,1.4181453 0,0.539121 -0.2209661,1.03097 -0.583281,1.418427 z M 1.8899677,9.4198353 1.4364961,9.0143698 C 0.83475391,9.6089215 0.46580374,10.386369 0.46580374,11.241758 c 0,0.85539 0.36895017,1.632555 0.97040436,2.227388 L 1.8896789,13.063681 C 1.4073615,12.572114 1.1116827,11.937886 1.1116827,11.241758 c 0,-0.69613 0.2959676,-1.330355 0.778285,-1.8219227 z m 0.451163,3.2400677 0.452894,-0.404902 C 2.5494045,11.972777 2.40344,11.6219 2.40344,11.241758 c 0,-0.380142 0.1459645,-0.73102 0.3905847,-1.013242 L 2.3411307,9.8236127 c -0.3626038,0.3868943 -0.583281,0.8790253 -0.583281,1.4181453 0,0.539121 0.2206772,1.03097 0.583281,1.418145 z M 6.4183301,9.0143698 5.9651481,9.4198353 c 0.4823173,0.4915677 0.7779962,1.1257927 0.7779962,1.8219227 0,0.696128 -0.2956789,1.330356 -0.7779962,1.821923 l 0.4534708,0.405465 c 0.6014541,-0.595114 0.9704044,-1.372279 0.9704044,-2.227388 0,-0.855108 -0.3689503,-1.6328365 -0.9706932,-2.2273882 z M 5.6821608,15.767444 H 5.0608026 c -0.245197,-0.619876 -0.6522255,-0.862705 -1.1333894,-0.862705 -0.4880863,0 -0.890788,0.249299 -1.1333885,0.862705 H 2.184493 L 3.6389464,12.034119 C 3.3037471,11.917628 3.0620113,11.608676 3.0620113,11.241758 c 0,-0.466243 0.3877008,-0.844134 0.8654019,-0.844134 0.4777026,0 0.8654028,0.377891 0.8654028,0.844134 0,0.366918 -0.2417357,0.676152 -0.5769345,0.792361 z M 3.9274132,12.893447 3.6816395,13.516418 H 4.1728998 Z M 4.5060795,14.360552 4.3950201,14.079174 H 3.459808 l -0.1110595,0.281378 z"
     id="path2-3-8-3"
     style="stroke-width:0.2849007" />
  <path
     inkscape:connector-curvature="0"
     d="M 23.867625,6.1713784 V 4.3398345 C 22.974619,4.0190843 22.734323,4.0040103 22.609186,3.6995905 22.483217,3.3943326 22.643694,3.2100902 23.049452,2.3500098 L 21.763574,1.0548645 C 20.92129,1.458106 20.729219,1.6260181 20.423235,1.4983045 20.120994,1.3718465 20.103948,1.12605 19.788403,0.23079545 H 17.969549 C 17.651925,1.1285618 17.636959,1.3718465 17.333886,1.4983045 17.021251,1.629368 16.833753,1.4564331 15.993962,1.0548645 l -1.285877,1.2951453 c 0.406176,0.8604986 0.566235,1.0439046 0.440266,1.3499989 -0.125552,0.3044198 -0.366265,0.3199129 -1.258439,0.6398258 v 1.8319626 c 0.889264,0.318238 1.132887,0.3349874 1.258439,0.6398259 0.126385,0.307351 -0.03367,0.4886629 -0.440266,1.3495804 l 1.285877,1.295145 c 0.831061,-0.3977975 1.026873,-0.5749221 1.339924,-0.4434396 0.302657,0.1264578 0.317624,0.3684861 0.635663,1.2675082 h 1.818439 c 0.315129,-0.8923223 0.332174,-1.140213 0.638989,-1.2691831 0.309724,-0.1289701 0.493065,0.041455 1.336597,0.4446958 l 1.285878,-1.295145 C 22.644108,7.3023795 22.483217,7.117299 22.609186,6.8112043 22.733907,6.5072032 22.975035,6.4917101 23.867625,6.1713784 Z m -2.026723,0.3199129 c -0.239881,0.5837155 -0.02827,1.0292487 0.20288,1.4982311 l -0.45066,0.4539079 C 21.138721,8.2160576 20.694712,7.9928722 20.10769,8.2382505 19.52732,8.481535 19.363519,8.9471676 19.198055,9.4429489 H 18.560313 C 18.39485,8.9467488 18.231465,8.4811163 17.652757,8.239088 17.062825,7.9928722 16.610502,8.220245 16.16483,8.4434303 L 15.714587,7.9895224 C 15.946153,7.5213775 16.157763,7.0766818 15.917051,6.4904538 15.676339,5.9079945 15.214038,5.743432 14.721388,5.5767757 V 4.9348562 C 15.214038,4.7682 15.676339,4.6036374 15.916635,4.0203406 16.156932,3.4366247 15.944905,2.9906728 15.713755,2.5216908 l 0.45066,-0.4539079 C 16.614244,2.2930619 17.06324,2.51876 17.652757,2.2721254 18.231465,2.0305152 18.39485,1.564464 18.560313,1.068264 h 0.637742 c 0.165464,0.4962 0.329265,0.9618329 0.907972,1.2038614 0.589933,0.2462155 1.04184,0.01884 1.487926,-0.2043425 l 0.450661,0.4539079 c -0.231151,0.4694011 -0.442761,0.915772 -0.20288,1.4990689 0.23988,0.5824589 0.702181,0.7470215 1.195246,0.9140965 V 5.5771945 C 22.543084,5.7438507 22.079951,5.9084133 21.840902,6.4912913 Z M 18.878769,3.9994041 c 0.68763,0 1.247214,0.5636161 1.247214,1.2562025 0,0.6925864 -0.559584,1.2562027 -1.247214,1.2562027 -0.687631,0 -1.247215,-0.5636163 -1.247215,-1.2562027 0,-0.6925864 0.559584,-1.2562025 1.247215,-1.2562025 z m 0,-0.8374685 c -1.148269,0 -2.078691,0.9371267 -2.078691,2.093671 0,1.156544 0.930422,2.0936711 2.078691,2.0936711 1.148268,0 2.07869,-0.9371271 2.07869,-2.0936711 0,-1.1565443 -0.930422,-2.093671 -2.07869,-2.093671 z"
     id="path2-8"
     style="stroke-width:0.41723344" />
</svg>
