<?xml version="1.0" encoding="UTF-8" standalone="no"?>
<svg
   xmlns:dc="http://purl.org/dc/elements/1.1/"
   xmlns:cc="http://creativecommons.org/ns#"
   xmlns:rdf="http://www.w3.org/1999/02/22-rdf-syntax-ns#"
   xmlns:svg="http://www.w3.org/2000/svg"
   xmlns="http://www.w3.org/2000/svg"
   xmlns:sodipodi="http://sodipodi.sourceforge.net/DTD/sodipodi-0.dtd"
   xmlns:inkscape="http://www.inkscape.org/namespaces/inkscape"
   width="24"
   height="24"
   viewBox="0 0 24 24"
   version="1.1"
   id="svg4"
   sodipodi:docname="service-group-host-settings.svg"
   inkscape:version="0.92.4 (5da689c313, 2019-01-14)">
  <metadata
     id="metadata10">
    <rdf:RDF>
      <cc:Work
         rdf:about="">
        <dc:format>image/svg+xml</dc:format>
        <dc:type
           rdf:resource="http://purl.org/dc/dcmitype/StillImage" />
        <dc:title></dc:title>
      </cc:Work>
    </rdf:RDF>
  </metadata>
  <defs
     id="defs8" />
  <sodipodi:namedview
     pagecolor="#ffffff"
     bordercolor="#666666"
     borderopacity="1"
     objecttolerance="10"
     gridtolerance="10"
     guidetolerance="10"
     inkscape:pageopacity="0"
     inkscape:pageshadow="2"
     inkscape:window-width="1908"
     inkscape:window-height="1424"
     id="namedview6"
     showgrid="false"
     inkscape:zoom="9.8333333"
     inkscape:cx="-23.847458"
     inkscape:cy="12"
     inkscape:window-x="1547"
     inkscape:window-y="277"
     inkscape:window-maximized="0"
     inkscape:current-layer="svg4" />
  <path
     d="m 17.590322,22.915255 h -0.964169 c 0,-1.538848 0.05797,-1.759958 -0.85017,-1.976111 -1.389254,-0.329186 -2.702186,-0.639534 -3.181373,-1.714347 -0.173898,-0.392644 -0.290796,-1.039118 0.149746,-1.890839 0.98639,-1.912653 1.233712,-3.552636 0.678203,-4.499542 -0.64922,-1.105551 -2.615237,-1.110509 -3.270254,0.01686 -0.5564742,0.959796 -0.3052878,2.590856 0.688831,4.473763 0.449237,0.848745 0.336203,1.497203 0.162305,1.89183 -0.47339,1.079772 -1.7737631,1.388136 -3.1514241,1.713355 -0.9487118,0.225074 -0.8888135,0.431311 -0.8888135,1.985032 H 6.0019322 l -0.00193,-0.617721 c 0,-1.24833 0.09661,-1.968178 1.5341695,-2.309263 1.624983,-0.385703 3.2306443,-0.729762 2.4587284,-2.190279 -2.2857962,-4.32801 -0.6530844,-6.781043 1.8017799,-6.781043 2.407526,0 4.083712,2.362805 1.803712,6.781042 -0.748729,1.451593 0.796068,1.796645 2.458729,2.190279 1.439491,0.341085 1.535135,1.062916 1.535135,2.31323 z m 4.646949,-2.195238 c -1.245305,-0.295474 -2.404627,-0.554262 -1.843322,-1.642958 1.71,-3.313677 0.454068,-5.085533 -1.352542,-5.085533 -1.222119,0 -2.171797,0.810076 -2.171797,2.305296 0,1.258246 0.554543,2.156568 0.873356,2.900212 h 1.012475 c -0.164237,-0.743644 -1.416305,-2.540288 -0.740034,-3.704339 0.398034,-0.686136 1.646237,-0.687127 2.042339,-0.0119 0.367119,0.625652 0.174864,1.796644 -0.515898,3.134212 -0.374848,0.726788 -0.270509,1.289974 -0.116899,1.634034 0.294661,0.660355 0.943882,0.978636 1.678119,1.197762 1.455915,0.437263 1.321627,0.04164 1.321627,1.467457 h 0.963203 l 0.0019,-0.459076 c 0,-0.936991 -0.07149,-1.479355 -1.15256,-1.735169 z M 0.20532203,22.915255 H 1.1685254 c 0,-1.425814 -0.1342881,-1.030196 1.3216271,-1.467458 0.7352034,-0.219127 1.3844237,-0.537407 1.6781187,-1.197763 0.1536101,-0.345051 0.2579491,-0.907245 -0.1168983,-1.634033 -0.6907628,-1.337569 -0.883017,-2.50856 -0.5158984,-3.134212 0.3961017,-0.676221 1.6443051,-0.67523 2.042339,0.0119 0.6762712,1.165042 -0.5757966,2.960695 -0.7400339,3.704339 h 1.0124746 c 0.3188136,-0.743642 0.8733559,-1.641964 0.8733559,-2.90021 9.661e-4,-1.496212 -0.9487118,-2.306288 -2.1708305,-2.306288 -1.8066101,0 -3.0625423,1.771856 -1.3525423,5.085534 0.561305,1.089687 -0.598017,1.347483 -1.8433221,1.642957 -1.08203384,0.255814 -1.15352537,0.798178 -1.15352537,1.736162 z"
     id="path2"
     inkscape:connector-curvature="0"
     style="stroke-width:0.97873098" />
  <path
     inkscape:connector-curvature="0"
     d="m 7.58479,6.9890854 c 0.376717,-0.475823 0.601503,-1.067399 0.601503,-1.708313 0,-0.640915 -0.224786,-1.232491 -0.601503,-1.708314 L 8.282249,2.8897972 c 0.558411,0.6522992 0.898255,1.4820252 0.898255,2.3909752 0,0.908949 -0.340288,1.7382 -0.898255,2.391449 z M 2.701692,2.2090337 2.003345,1.5254238 c -0.926687,1.0024064 -1.49487,2.3131726 -1.49487,3.7553486 0,1.442175 0.568183,2.752467 1.494427,3.755348 l 0.698346,-0.68361 C 1.958478,7.5237344 1.50313,6.4544364 1.50313,5.2807724 c 0,-1.173665 0.455792,-2.2429625 1.198562,-3.0717387 z M 3.396486,7.6717464 4.093944,6.9890854 C 3.717228,6.5132624 3.492442,5.9216864 3.492442,5.2807724 c 0,-0.640915 0.224786,-1.232491 0.601502,-1.708314 L 3.396486,2.8897972 C 2.838075,3.5420964 2.49823,4.3718224 2.49823,5.2807724 c 0,0.908949 0.339845,1.7382 0.898256,2.390974 z M 9.675389,1.5254238 8.977486,2.2090337 c 0.7427713,0.8287762 1.198118,1.8980737 1.198118,3.0717387 0,1.173664 -0.4553467,2.242962 -1.198118,3.071738 l 0.698348,0.68361 c 0.926242,-1.003356 1.494426,-2.313648 1.494426,-3.755348 0,-1.441701 -0.568184,-2.7529422 -1.494871,-3.7553486 z M 8.541686,12.911017 H 7.58479 c -0.377604,-1.045103 -1.004429,-1.45451 -1.745423,-1.45451 -0.751656,0 -1.371816,0.420319 -1.745423,1.45451 H 3.155263 L 5.395127,6.6166814 C 4.878918,6.4202804 4.506644,5.8993894 4.506644,5.2807724 c 0,-0.786081 0.597061,-1.4232 1.332723,-1.4232 0.735664,0 1.332723,0.637119 1.332723,1.4232 0,0.618617 -0.372274,1.139982 -0.888482,1.335909 z M 5.839367,8.0654984 5.460874,9.1158194 h 0.756543 z m 0.891148,2.4735206 -0.171033,-0.4744 h -1.44023 l -0.171032,0.4744 z"
     id="path3725"
     style="stroke-width:0.45907283" />
  <path
     inkscape:connector-curvature="0"
     d="M 23.51986,6.7145888 V 4.6943941 C 22.482266,4.3406059 22.203064,4.3239788 22.057665,3.9882034 21.911301,3.6515043 22.097757,3.4482839 22.569216,2.4996144 L 21.07514,1.071068 C 20.096478,1.5158433 19.873309,1.7010509 19.517784,1.5601821 19.166605,1.4206991 19.146801,1.1495851 18.780165,0.16211849 H 16.666817 C 16.297766,1.1523563 16.280377,1.4206991 15.928233,1.5601821 15.564978,1.7047456 15.347123,1.5139931 14.37136,1.071068 l -1.494077,1.4285464 c 0.471941,0.9491314 0.657916,1.151428 0.511551,1.4890509 -0.145881,0.3357754 -0.425568,0.3528644 -1.462195,0.7057288 v 2.0206566 c 1.033246,0.3510169 1.316314,0.3694915 1.462195,0.7057288 0.146848,0.3390085 -0.03913,0.5389958 -0.511551,1.4885889 l 1.494077,1.4285466 c 0.965618,-0.4387712 1.193135,-0.6341398 1.556873,-0.4891143 0.351661,0.139483 0.369051,0.4064403 0.738584,1.3980633 h 2.112865 c 0.366152,-0.984233 0.385958,-1.2576566 0.742449,-1.3999108 0.359873,-0.1422542 0.572898,0.045725 1.553009,0.4904998 L 22.569216,8.9089066 C 22.098241,7.9620846 21.911301,7.7579405 22.057665,7.4203176 22.20258,7.085004 22.48275,7.0679151 23.51986,6.7145888 Z m -2.354873,0.3528644 c -0.278721,0.643839 -0.03285,1.1352627 0.235728,1.6525508 L 20.877089,9.220665 C 20.349114,8.9698727 19.833215,8.723699 19.151148,8.9943515 18.476809,9.2626947 18.286487,9.7762879 18.094233,10.323135 h -0.741 C 17.160978,9.7758261 16.97114,9.2622329 16.298733,8.9952752 15.613284,8.723699 15.087724,8.974491 14.569894,9.220665 L 14.04675,8.720004 C 14.315809,8.2036396 14.561682,7.7131396 14.281995,7.0665295 14.002309,6.4240762 13.465156,6.2425635 12.892741,6.0587415 V 5.3507034 c 0.572415,-0.183822 1.109568,-0.3653348 1.388772,-1.0087118 0.279202,-0.643839 0.03285,-1.1357249 -0.23573,-1.6530131 L 14.569411,2.188318 c 0.522661,0.2484829 1.044355,0.4974276 1.729322,0.2253893 0.672407,-0.2664952 0.862245,-0.7805505 1.0545,-1.3278599 h 0.741 c 0.192254,0.5473094 0.382576,1.0609023 1.054982,1.3278599 0.68545,0.2715765 1.210526,0.020786 1.72884,-0.2253893 l 0.523627,0.5006605 c -0.268577,0.51775 -0.514449,1.0100977 -0.235728,1.6534749 0.27872,0.6424534 0.815872,0.8239661 1.388771,1.00825 v 0.7085 C 21.98086,6.2430254 21.442741,6.4245381 21.164987,7.0674532 Z M 17.72325,4.3188983 c 0.798965,0 1.449153,0.6216695 1.449153,1.3855932 0,0.7639236 -0.650188,1.3855931 -1.449153,1.3855931 -0.798966,0 -1.449153,-0.6216695 -1.449153,-1.3855931 0,-0.7639237 0.650187,-1.3855932 1.449153,-1.3855932 z m 0,-0.9237288 c -1.334187,0 -2.415255,1.0336525 -2.415255,2.309322 0,1.2756694 1.081068,2.3093219 2.415255,2.3093219 1.334186,0 2.415254,-1.0336525 2.415254,-2.3093219 0,-1.2756695 -1.081068,-2.309322 -2.415254,-2.309322 z"
     id="path2-0"
     style="stroke-width:0.47233889" />
</svg>
