<?xml version="1.0" encoding="UTF-8" standalone="no"?>
<svg
   xmlns:dc="http://purl.org/dc/elements/1.1/"
   xmlns:cc="http://creativecommons.org/ns#"
   xmlns:rdf="http://www.w3.org/1999/02/22-rdf-syntax-ns#"
   xmlns:svg="http://www.w3.org/2000/svg"
   xmlns="http://www.w3.org/2000/svg"
   xmlns:sodipodi="http://sodipodi.sourceforge.net/DTD/sodipodi-0.dtd"
   xmlns:inkscape="http://www.inkscape.org/namespaces/inkscape"
   width="24"
   height="24"
   viewBox="0 0 24 24"
   version="1.1"
   id="svg4"
   sodipodi:docname="service-group-listing-host.svg"
   inkscape:version="0.92.4 (5da689c313, 2019-01-14)">
  <metadata
     id="metadata10">
    <rdf:RDF>
      <cc:Work
         rdf:about="">
        <dc:format>image/svg+xml</dc:format>
        <dc:type
           rdf:resource="http://purl.org/dc/dcmitype/StillImage" />
        <dc:title />
      </cc:Work>
    </rdf:RDF>
  </metadata>
  <defs
     id="defs8" />
  <sodipodi:namedview
     pagecolor="#ffffff"
     bordercolor="#666666"
     borderopacity="1"
     objecttolerance="10"
     gridtolerance="10"
     guidetolerance="10"
     inkscape:pageopacity="0"
     inkscape:pageshadow="2"
     inkscape:window-width="1908"
     inkscape:window-height="1424"
     id="namedview6"
     showgrid="false"
     inkscape:zoom="19.666667"
     inkscape:cx="23.847458"
     inkscape:cy="12"
     inkscape:window-x="1497"
     inkscape:window-y="234"
     inkscape:window-maximized="0"
     inkscape:current-layer="svg4" />
  <path
     d="m 17.793712,23.627119 h -0.964169 c 0,-1.538848 0.05797,-1.759958 -0.85017,-1.976111 -1.389254,-0.329186 -2.702186,-0.639534 -3.181373,-1.714347 -0.173898,-0.392644 -0.290796,-1.039118 0.149746,-1.890839 0.98639,-1.912653 1.233712,-3.552636 0.678203,-4.499542 -0.64922,-1.105551 -2.615237,-1.110509 -3.270254,0.01686 -0.5564744,0.959796 -0.305288,2.590856 0.688831,4.473763 0.449237,0.848745 0.336203,1.497203 0.162305,1.89183 -0.47339,1.079772 -1.7737633,1.388136 -3.1514243,1.713355 -0.9487118,0.225074 -0.8888135,0.431311 -0.8888135,1.985032 H 6.205322 l -0.00193,-0.617721 c 0,-1.24833 0.09661,-1.968178 1.5341695,-2.309263 1.624983,-0.385703 3.2306445,-0.729762 2.4587285,-2.190279 -2.2857963,-4.32801 -0.6530845,-6.781043 1.80178,-6.781043 2.407526,0 4.083712,2.362805 1.803712,6.781042 -0.748729,1.451593 0.796068,1.796645 2.458729,2.190279 1.439491,0.341085 1.535135,1.062916 1.535135,2.31323 z m 4.646949,-2.195238 c -1.245305,-0.295474 -2.404627,-0.554262 -1.843322,-1.642958 1.71,-3.313677 0.454068,-5.085533 -1.352542,-5.085533 -1.222119,0 -2.171797,0.810076 -2.171797,2.305296 0,1.258246 0.554543,2.156568 0.873356,2.900212 h 1.012475 c -0.164237,-0.743644 -1.416305,-2.540288 -0.740034,-3.704339 0.398034,-0.686136 1.646237,-0.687127 2.042339,-0.0119 0.367119,0.625652 0.174864,1.796644 -0.515898,3.134212 -0.374848,0.726788 -0.270509,1.289974 -0.116899,1.634034 0.294661,0.660355 0.943882,0.978636 1.678119,1.197762 1.455915,0.437263 1.321627,0.04164 1.321627,1.467457 h 0.963203 l 0.0019,-0.459076 c 0,-0.936991 -0.07149,-1.479355 -1.15256,-1.735169 z M 0.40871186,23.627119 H 1.3719152 c 0,-1.425814 -0.1342881,-1.030196 1.3216271,-1.467458 0.7352034,-0.219127 1.3844237,-0.537407 1.6781187,-1.197763 0.1536101,-0.345051 0.2579491,-0.907245 -0.1168983,-1.634033 -0.6907628,-1.337569 -0.883017,-2.50856 -0.5158984,-3.134212 0.3961017,-0.676221 1.6443051,-0.67523 2.042339,0.0119 0.6762712,1.165042 -0.5757966,2.960695 -0.7400339,3.704339 H 6.053644 C 6.3724576,19.16625 6.9269999,18.267928 6.9269999,17.009682 6.927966,15.51347 5.9782881,14.703394 4.7561694,14.703394 c -1.8066101,0 -3.0625423,1.771856 -1.3525423,5.085534 0.561305,1.089687 -0.598017,1.347483 -1.8433221,1.642957 -1.08203381,0.255814 -1.15352534,0.798178 -1.15352534,1.736162 z"
     id="path2"
     inkscape:connector-curvature="0"
     style="stroke-width:0.97873098" />
  <path
     inkscape:connector-curvature="0"
     d="m 20.577468,9.8938482 c 0.261734,-0.356823 0.41791,-0.8004499 0.41791,-1.2810758 0,-0.4806266 -0.156176,-0.9242536 -0.41791,-1.2810766 l 0.484578,-0.5119324 c 0.38797,0.4891637 0.624086,1.1113811 0.624086,1.793009 0,0.6816272 -0.236425,1.3034883 -0.624086,1.7933646 z M 17.184811,6.3092541 16.699616,5.7966103 c -0.643839,0.7517116 -1.038599,1.7346643 -1.038599,2.8161621 0,1.0814971 0.39476,2.0640946 1.038292,2.8161616 l 0.485193,-0.512644 c -0.516058,-0.621505 -0.832423,-1.4233788 -0.832423,-2.3035176 0,-0.8801396 0.316674,-1.6820132 0.832732,-2.3035183 z m 0.482725,4.0965259 0.484578,-0.5119318 c -0.261733,-0.356823 -0.417909,-0.8004499 -0.417909,-1.2810758 0,-0.4806266 0.156176,-0.9242536 0.417909,-1.2810766 L 17.667536,6.8197634 c -0.38797,0.4891637 -0.624085,1.1113811 -0.624085,1.793009 0,0.6816272 0.236115,1.3034883 0.624085,1.7930076 z m 4.36243,-4.6091697 -0.484886,0.5126438 c 0.516058,0.6215051 0.832422,1.4233787 0.832422,2.3035183 0,0.8801388 -0.316364,1.6820126 -0.832422,2.3035176 l 0.485194,0.512644 c 0.643531,-0.752424 1.038291,-1.7350207 1.038291,-2.8161616 0,-1.0811416 -0.39476,-2.0644505 -1.038599,-2.8161621 z M 21.242297,14.334747 H 20.577468 C 20.315118,13.551017 19.879615,13.244 19.364791,13.244 c -0.522232,0 -0.953104,0.3152 -1.212677,1.090747 H 17.499941 L 19.056144,9.6145799 C 18.697495,9.4672974 18.438848,9.0766776 18.438848,8.6127724 c 0,-0.5894876 0.414823,-1.0672676 0.925943,-1.0672676 0.511121,0 0.925944,0.47778 0.925944,1.0672676 0,0.4639052 -0.258648,0.8548804 -0.617296,1.0018075 z m -1.877506,-3.633689 -0.262968,0.787643 h 0.525628 z m 0.619148,1.854911 -0.118829,-0.355756 h -1.000637 l -0.118829,0.355756 z"
     id="path3725"
     style="stroke-width:0.3313657" />
  <path
     inkscape:connector-curvature="0"
     d="m 12.941792,5.0146106 c 0.258141,-0.356823 0.412173,-0.8004499 0.412173,-1.2810758 0,-0.4806266 -0.154032,-0.9242536 -0.412173,-1.2810766 l 0.477925,-0.5119325 c 0.382644,0.4891638 0.615518,1.1113812 0.615518,1.7930091 0,0.6816272 -0.233178,1.3034883 -0.615518,1.7933643 z M 9.5957104,1.4300164 9.1171767,0.91737262 C 8.4821767,1.6690842 8.092836,2.652037 8.092836,3.7335348 c 0,1.0814971 0.3893407,2.0640942 1.0240371,2.8161616 L 9.5954059,6.0370525 C 9.086432,5.4155476 8.7744108,4.6136736 8.7744108,3.7335348 c 0,-0.8801396 0.3123256,-1.6820132 0.8212996,-2.3035184 z m 0.4760986,4.0965265 0.477925,-0.5119323 c -0.25814,-0.356823 -0.412172,-0.8004499 -0.412172,-1.2810758 0,-0.4806266 0.154032,-0.9242536 0.412172,-1.2810766 L 10.071809,1.9405257 C 9.6891646,2.4296895 9.4562905,3.0519069 9.4562905,3.7335348 c 0,0.6816272 0.2328741,1.3034883 0.6155185,1.7930081 z M 14.374349,0.91737262 13.89612,1.4300164 c 0.508974,0.6215052 0.820994,1.4233788 0.820994,2.3035184 0,0.8801388 -0.31202,1.6820128 -0.820994,2.3035177 l 0.478533,0.5126439 c 0.634696,-0.7524236 1.024037,-1.7350207 1.024037,-2.8161616 0,-1.0811416 -0.389341,-2.0644506 -1.024341,-2.81616218 z M 13.597493,9.4555088 h -0.655701 c -0.258748,-0.78373 -0.688272,-1.090747 -1.196029,-1.090747 -0.515063,0 -0.94002,0.3152 -1.196029,1.090747 H 9.9065142 L 11.441353,4.7353423 C 11.087628,4.5880598 10.832531,4.19744 10.832531,3.7335348 c 0,-0.5894876 0.409129,-1.0672676 0.913232,-1.0672676 0.504105,0 0.913232,0.47778 0.913232,1.0672676 0,0.4639052 -0.255096,0.8548804 -0.608821,1.0018075 z m -1.85173,-3.6336886 -0.259358,0.7876431 h 0.518412 z m 0.610648,1.8549106 -0.117198,-0.355756 h -0.9869 l -0.117197,0.355756 z"
     id="path3725-7"
     style="stroke-width:0.32908326" />
  <path
     inkscape:connector-curvature="0"
     d="m 5.7889484,10.099356 c 0.261734,-0.3568229 0.41791,-0.8004498 0.41791,-1.2810757 0,-0.4806266 -0.156176,-0.9242536 -0.41791,-1.2810766 l 0.484578,-0.5119324 c 0.38797,0.4891637 0.624086,1.1113811 0.624086,1.793009 0,0.6816272 -0.236425,1.3034887 -0.624086,1.7933647 z M 2.3962914,6.514762 1.9110964,6.0021182 c -0.643839,0.7517116 -1.03859899,1.7346643 -1.03859899,2.8161621 0,1.0814971 0.39475999,2.0640937 1.03829199,2.8161617 l 0.485193,-0.512644 c -0.516058,-0.621505 -0.832423,-1.4233789 -0.832423,-2.3035177 0,-0.8801396 0.316674,-1.6820132 0.832732,-2.3035183 z m 0.482725,4.096526 0.484578,-0.511932 C 3.1018614,9.7425331 2.9456854,9.2989062 2.9456854,8.8182803 c 0,-0.4806266 0.156176,-0.9242536 0.417909,-1.2810766 L 2.8790164,7.0252713 c -0.38797,0.4891637 -0.624085,1.1113811 -0.624085,1.793009 0,0.6816272 0.236115,1.3034887 0.624085,1.7930077 z m 4.36243,-4.6091698 -0.484886,0.5126438 c 0.516058,0.6215051 0.832422,1.4233787 0.832422,2.3035183 0,0.8801388 -0.316364,1.6820127 -0.832422,2.3035177 l 0.485194,0.512644 c 0.643531,-0.752424 1.038291,-1.7350208 1.038291,-2.8161617 0,-1.0811416 -0.39476,-2.0644505 -1.038599,-2.8161621 z m -0.787669,8.5381368 h -0.664829 c -0.26235,-0.78373 -0.697853,-1.090747 -1.212677,-1.090747 -0.522232,0 -0.953104,0.3152 -1.212677,1.090747 H 2.7114214 L 4.2676244,9.8200878 C 3.9089754,9.6728053 3.6503284,9.2821855 3.6503284,8.8182803 c 0,-0.5894876 0.414823,-1.0672676 0.925943,-1.0672676 0.511121,0 0.925944,0.47778 0.925944,1.0672676 0,0.4639052 -0.258648,0.8548804 -0.617296,1.0018075 z m -1.877506,-3.633689 -0.262968,0.787643 h 0.525628 z m 0.619148,1.854911 -0.118829,-0.355756 h -1.000637 l -0.118829,0.355756 z"
     id="path3725-4"
     style="stroke-width:0.3313657" />
</svg>
