<?xml version="1.0" encoding="UTF-8" standalone="no"?>
<svg
   xmlns:dc="http://purl.org/dc/elements/1.1/"
   xmlns:cc="http://creativecommons.org/ns#"
   xmlns:rdf="http://www.w3.org/1999/02/22-rdf-syntax-ns#"
   xmlns:svg="http://www.w3.org/2000/svg"
   xmlns="http://www.w3.org/2000/svg"
   xmlns:sodipodi="http://sodipodi.sourceforge.net/DTD/sodipodi-0.dtd"
   xmlns:inkscape="http://www.inkscape.org/namespaces/inkscape"
   width="24"
   height="24"
   viewBox="0 0 24 24"
   version="1.1"
   id="svg4"
   sodipodi:docname="service-relay.svg"
   inkscape:version="0.92.4 (5da689c313, 2019-01-14)">
  <metadata
     id="metadata10">
    <rdf:RDF>
      <cc:Work
         rdf:about="">
        <dc:format>image/svg+xml</dc:format>
        <dc:type
           rdf:resource="http://purl.org/dc/dcmitype/StillImage" />
        <dc:title />
      </cc:Work>
    </rdf:RDF>
  </metadata>
  <defs
     id="defs8" />
  <sodipodi:namedview
     pagecolor="#ffffff"
     bordercolor="#666666"
     borderopacity="1"
     objecttolerance="10"
     gridtolerance="10"
     guidetolerance="10"
     inkscape:pageopacity="0"
     inkscape:pageshadow="2"
     inkscape:window-width="2598"
     inkscape:window-height="1255"
     id="namedview6"
     showgrid="false"
     inkscape:zoom="19.666666"
     inkscape:cx="6.3050836"
     inkscape:cy="9.5362721"
     inkscape:window-x="801"
     inkscape:window-y="468"
     inkscape:window-maximized="0"
     inkscape:current-layer="svg4" />
  <path
     d="m 12.347347,16.958399 c -0.01429,-0.02653 0.139587,-0.04101 0.166932,-0.04101 0.0302,0.0035 -0.07999,0.1817 -0.166932,0.04101 z m -0.878332,-1.23492 0.04409,-0.01246 c 0.02612,0.02211 -0.02938,0.03819 -0.02082,0.05467 0.0351,0.06232 0.0087,0.0997 0.0032,0.133462 -0.0057,0.03417 -0.04245,0.0193 -0.06081,0.0374 -0.02163,0.02653 0.105303,0.03014 0.106937,0.03417 0.0045,0.01326 -0.153056,0.03578 -0.124078,0.06874 0.03919,0.05468 0.336313,-0.07839 0.288969,-0.07075 0.09184,-0.04542 0.01184,-0.05025 -0.0396,-0.07639 -0.01755,-0.08643 -0.03225,-0.219889 -0.08694,-0.273353 l 0.03592,-0.041 c -0.08408,-0.120196 -0.146934,0.145522 -0.146934,0.145522 z m 5.309183,2.774148 c 0,2.664003 -2.192977,4.823907 -4.897772,4.823907 -2.7052016,0 -4.8977709,-2.159904 -4.8977709,-4.823907 0,-2.664004 2.1925693,-4.823908 4.8977709,-4.823908 2.704795,0 4.897772,2.159904 4.897772,4.823908 z m -3.391707,-2.1591 c -0.0024,-0.05869 -0.07753,-0.114167 -0.155912,-0.01246 -0.0551,0.06994 -0.0453,0.176474 -0.07509,0.223909 -0.04246,0.07035 0.231419,0.136277 0.231419,0.06995 0.01022,-0.111352 0.298766,-0.02532 0.35509,-0.01001 0.101219,0.02774 0.262438,-0.09086 0.08612,-0.153159 -0.144893,-0.05226 -0.221216,-0.108136 -0.234277,-0.210242 0,0 0.07673,-0.07075 0.04326,-0.06673 -0.08897,0.01085 -0.250603,0.315965 -0.250603,0.158787 z m 2.569696,2.1591 c 0,-0.416062 -0.07225,-0.836144 -0.145708,-1.058044 -0.02367,-0.06994 -0.07715,-0.125421 -0.146524,-0.151953 -0.104486,-0.0402 -0.545693,0.23999 -0.612222,0.102106 -0.04367,-0.09206 -0.13224,0.05869 -0.23346,0.0032 -0.04898,-0.02654 -0.185299,-0.207027 -0.246929,-0.184917 -0.126118,0.04461 0.193461,0.38752 0.280805,0.432543 0.08205,-0.0611 0.347742,-0.186926 0.404883,-0.01527 0.109383,0.323203 -0.300805,0.677358 -0.510594,0.863883 -0.313457,0.278982 -0.254683,-0.180494 -0.468144,-0.342498 -0.11224,-0.08483 -0.111016,-0.265315 -0.224482,-0.327624 -0.05062,-0.02814 -0.282846,-0.291444 -0.280805,-0.32682 l -0.0069,0.06673 c -0.03837,0.02853 -0.119995,-0.107735 -0.128566,-0.129041 0,0.118588 0.19591,0.307524 0.260806,0.402394 0.110608,0.162806 0.169789,0.399982 0.305294,0.533043 0.07265,0.07155 0.350191,0.367421 0.422433,0.360988 0.07877,-0.0069 0.327743,-0.184112 0.371822,-0.174062 0.262847,0.06111 -0.618751,1.288386 -0.702422,1.440338 -0.06897,0.127432 0.05633,0.442594 0.04612,0.593341 -0.01184,0.174062 -0.151015,0.230342 -0.282846,0.325212 -0.14122,0.101699 -0.108159,0.299484 -0.22693,0.371842 -0.211012,0.127834 -0.362843,0.543896 -0.662424,0.541885 -0.08816,-4.01e-4 -0.465288,0.144718 -0.514673,0.0028 -0.03838,-0.102908 -0.08979,-0.180895 -0.144077,-0.282599 -0.05305,-0.0997 -0.006,-0.203007 -0.07061,-0.291043 -0.04448,-0.0611 -0.19387,-0.199791 -0.207338,-0.27215 -8.18e-4,-0.0623 0.04775,-0.251646 0.114281,-0.28461 0.09346,-0.04703 0.01795,-0.184112 0.0066,-0.263706 -0.01959,-0.142305 -0.108975,-0.259688 -0.216318,-0.342095 -0.15877,-0.120197 -0.07673,-0.215871 -0.03958,-0.387522 0,-0.08201 -0.05062,-0.18974 -0.162443,-0.157581 -0.230196,0.06592 -0.160402,-0.176875 -0.328151,-0.166022 -0.120812,0.0084 -0.219583,0.08402 -0.331825,0.117381 -0.141218,0.04182 -0.285703,-0.03297 -0.425289,-0.05025 -0.574264,-0.07155 -0.761602,-0.717957 -0.611813,-1.184269 0.01511,-0.07639 -0.04653,-0.217881 -0.01959,-0.276972 0.06449,-0.141502 0.195912,-0.300288 0.311009,-0.407621 0.06449,-0.0603 0.147342,-0.04503 0.223257,-0.09205 0.117139,-0.07276 0.11877,-0.222303 0.23346,-0.313958 0.16326,-0.130647 0.386108,-0.127833 0.59916,-0.155972 0.113466,-0.01487 0.545286,-0.10693 0.613447,-0.02412 0,0.01527 0.07795,0.242804 -0.0077,0.22994 0.176729,0.0093 0.428555,0.301092 0.596304,0.232754 0.08612,-0.03537 0.05469,-0.295865 0.23142,-0.170042 0.106934,0.07557 0.5861,0.109342 0.685688,0.02773 0.06123,-0.04984 0.09551,-0.373852 0.02122,-0.410434 0.04735,0.04624 -0.249377,0.04984 -0.277131,0.0394 -0.04898,-0.01768 -0.09469,0.04583 -0.173462,0.01001 0.04735,0.02211 -0.263664,-0.142305 -0.08897,-0.268129 -0.07306,0.05267 -0.14122,-0.01487 -0.219991,0.04301 -0.05427,0.04341 0.0253,0.07236 -0.05224,0.110146 -0.123262,0.0615 -0.216319,-0.211047 -0.262847,-0.241999 -0.04735,-0.03055 -0.413863,-0.283807 -0.314275,-0.118588 l 0.322029,0.315563 c -0.01592,0.01001 -0.08449,-0.114969 -0.08449,-0.02372 0.02163,-0.05426 0.0081,0.232754 -0.04246,0.139491 -0.02245,-0.03578 0.03674,-0.05588 0.0024,-0.107733 0,-0.03417 -0.09306,-0.06753 -0.111015,-0.09086 -0.05102,-0.0623 -0.186524,-0.199789 -0.259991,-0.232754 -0.0204,-0.0093 -0.311824,0.03498 -0.336313,0.04422 -0.02857,0.0394 -0.05306,0.08081 -0.07306,0.125019 -0.0604,0.02211 -0.117137,0.05065 -0.171012,0.08602 l -0.06407,0.141903 c -0.02775,0.02452 -0.312234,0.11698 -0.313867,0.120598 0.01184,-0.03014 -0.198769,-0.06874 -0.184891,-0.12904 0.01551,-0.06634 0.08694,-0.273355 0.06857,-0.348929 -0.01959,-0.07919 0.43835,0.114165 0.467737,-0.09447 0.01184,-0.09045 0.01878,-0.195771 -0.127751,-0.211046 0.02775,0.0032 0.283663,-0.09889 0.326111,-0.144717 0.05959,-0.06753 0.196318,-0.17768 0.295497,-0.17768 0.115915,0 0.09102,-0.166023 0.144484,-0.247226 0.05346,0.02131 -0.02857,0.151149 0.03551,0.203809 -0.0041,-0.0414 0.181625,0.02291 0.199583,0.01326 0.04245,-0.0217 0.279174,-0.0088 0.24244,-0.118186 -0.04082,-0.111351 0.02082,-0.07839 0.07387,-0.101699 -0.009,0.0035 0.138771,-0.248834 0.164075,-0.166022 -0.01755,-0.08522 -0.17183,0.02975 -0.225704,0.02532 -0.124486,-0.0097 -0.07183,-0.209036 -0.0249,-0.267324 0.03632,-0.04623 -0.09918,-0.102908 -0.100813,-0.01447 -0.0024,0.132254 -0.127341,0.252048 -0.09836,0.427718 0.04409,0.264914 -0.299989,-0.06391 -0.330191,-0.04583 -0.114282,0.06834 -0.207749,-0.08602 -0.148567,-0.178485 0.0604,-0.09446 0.206114,-0.09005 0.266113,-0.191348 0.04245,-0.07156 0.09184,-0.154767 0.157136,-0.209037 0.218359,-0.180494 0.278764,-0.03618 0.496308,-0.01648 0.212646,0.0193 0.07183,0.04984 0.04244,0.130245 -0.02816,0.07639 0.116731,0.103711 0.166933,0.03979 0.02857,-0.03698 0.09347,-0.129842 0.121628,-0.198583 0.03632,-0.08924 0.367742,-0.07919 0.136321,-0.215469 -0.152647,-0.08965 -0.817927,-0.270139 -1.263624,-0.270139 -0.09632,0 -0.163666,0.105724 -0.237133,0.165622 -0.145302,0.118587 -0.517532,0.35134 -0.724464,0.280591 -0.211828,-0.07195 -0.66528,0.265314 -0.73793,0.267726 -0.02653,0.0017 0.0016,-0.254863 0.146117,-0.273756 -0.06244,0.0093 0.508959,-0.284209 0.49345,-0.345313 -0.01877,-0.07236 -1.1424056,0.330438 -1.0922026,0.411239 0.024082,0.03698 0.1220366,0.03698 -0.00657,0.118186 -0.073467,0.04382 -0.1518301,0.321996 -0.2208084,0.321996 -0.2061132,0.08884 -0.2191747,-0.174868 -0.4485531,0.164414 l -0.3648841,0.144718 c -0.54202,0.567211 -0.9171077,1.285571 -1.0530208,2.083525 -0.00531,0.03176 0.1363205,0.09086 0.1546879,0.112557 0.045712,0.05387 0.045712,0.28622 0.068162,0.362196 0.056325,0.192153 0.1955028,0.299082 0.3020292,0.473949 0.062855,0.104117 0.1673405,0.36742 0.1342806,0.476764 0.04408,-0.07156 0.4367179,0.327623 0.5085518,0.410836 0.1689728,0.195769 0.2991731,0.432944 0.024895,0.626706 -0.088568,0.06271 0.1346883,0.453848 0.019592,0.549926 l -0.1473403,0.03739 c -0.1453014,0.08803 -0.079589,0.303905 0.00858,0.394757 0.7420123,0.764186 1.7876858,1.24095 2.9468258,1.24095 2.251749,0 4.076986,-1.79771 4.076986,-4.015503 z m -4.696553,-2.555465 c 0.05102,-0.02211 0.119587,-0.02131 0.126934,-0.08844 0.006,-0.0595 0.01795,-0.01848 0.03264,-0.0402 0.01428,-0.02131 -0.02735,-0.05547 -0.0449,-0.05868 -0.02611,-0.0056 -0.04408,0.02773 -0.06081,0.04182 l -0.02938,0.0076 -0.02775,0.03498 0.0032,0.0193 -0.03551,0.04261 c -0.0347,0.03377 8.17e-4,0.05588 0.03551,0.041 z"
     id="path2"
     inkscape:connector-curvature="0"
     style="stroke-width:0.38853416" />
  <path
     inkscape:connector-curvature="0"
     d="M 7.6851449,6.827689 C 8.0825905,6.3936608 8.3197451,5.8540463 8.3197451,5.269428 c 0,-0.5846182 -0.2371546,-1.1242326 -0.6346002,-1.5582608 l 0.735836,-0.6226986 c 0.5891386,0.5950039 0.9476833,1.3518487 0.9476833,2.1809594 0,0.8291109 -0.3590138,1.5855231 -0.9476833,2.1813923 z M 2.5333495,2.467501 1.7965752,1.843937 C 0.8188966,2.7582956 0.21944738,3.9539287 0.21944738,5.269428 c 0,1.3154994 0.59944922,2.5106994 1.57665912,3.4254908 L 2.5328808,8.071355 C 1.7492379,7.3153757 1.268835,6.3400022 1.268835,5.269428 c 0,-1.0705741 0.4808717,-2.0459476 1.2645145,-2.801927 z M 3.2663741,7.4503876 4.0022109,6.827689 C 3.6047653,6.3936608 3.3676102,5.8540463 3.3676102,5.269428 c 0,-0.5846182 0.2371551,-1.1242326 0.6346007,-1.5582608 L 3.2663741,3.0884686 C 2.6772361,3.6834725 2.3186914,4.4403173 2.3186914,5.269428 c 0,0.8291109 0.3585447,1.5855231 0.9476827,2.1809596 z M 9.89078,1.843937 9.1544754,2.467501 c 0.7836427,0.7559794 1.2640446,1.7313529 1.2640446,2.801927 0,1.0705742 -0.4804019,2.0459477 -1.2640446,2.801927 L 9.8912491,8.6949188 C 10.868458,7.7796948 11.467908,6.5844946 11.467908,5.269428 c 0,-1.3150666 -0.59945,-2.5111324 -1.577128,-3.425491 z M 8.6946929,12.229458 H 7.6851449 C 7.2867621,11.276154 6.6254451,10.902707 5.8436773,10.902707 c -0.7930156,0 -1.4473019,0.383399 -1.8414664,1.326751 H 3.0118777 L 5.3749915,6.4879958 C 4.8303783,6.3088457 4.4376206,5.8337081 4.4376206,5.269428 c 0,-0.7170335 0.6299134,-1.2981901 1.4060567,-1.2981901 0.7761444,0 1.4060583,0.5811566 1.4060583,1.2981901 0,0.5642801 -0.3927594,1.0398504 -0.9373715,1.2185678 z M 5.8436773,7.8095534 5.4443573,8.7676178 H 6.2425292 Z M 6.7838616,10.065807 6.6034175,9.6330783 H 5.0839382 L 4.903494,10.065807 Z"
     id="path2-3"
     style="stroke-width:0.43197751" />
  <path
     inkscape:connector-curvature="0"
     d="m 21.404978,14.094067 c 0,0.415387 -0.493987,0.752058 -1.10347,0.752058 -0.609481,0 -1.103467,-0.336671 -1.103467,-0.752058 0,-0.415386 0.493986,-0.752058 1.103467,-0.752058 0.609483,0 1.10347,0.336672 1.10347,0.752058 z"
     id="path4"
     style="stroke-width:0.29127011" />
  <path
     inkscape:connector-curvature="0"
     d="m 21.404978,15.347497 h -2.206937 c -0.406445,0 -0.735645,0.224364 -0.735645,0.501373 v 2.50686 h 0.735645 v 3.008233 h 0.919557 V 18.35573 h 0.367822 v 3.008233 h 0.919558 V 18.35573 h 0.735645 v -2.50686 c 0,-0.277009 -0.329202,-0.501373 -0.735645,-0.501373 z"
     id="path6"
     style="stroke-width:0.29127011" />
  <path
     inkscape:connector-curvature="0"
     d="m 4.8371781,14.393937 c 0,0.415387 -0.4939869,0.752058 -1.1034694,0.752058 -0.6094814,0 -1.1034673,-0.336671 -1.1034673,-0.752058 0,-0.415386 0.4939859,-0.752058 1.1034673,-0.752058 0.6094825,0 1.1034694,0.336672 1.1034694,0.752058 z"
     id="path4-5"
     style="stroke-width:0.29127011" />
  <path
     inkscape:connector-curvature="0"
     d="M 4.8371781,15.647367 H 2.6302414 c -0.4064447,0 -0.7356453,0.224364 -0.7356453,0.501373 v 2.50686 h 0.7356453 v 3.008233 H 3.5497982 V 18.6556 h 0.3678221 v 3.008233 H 4.8371781 V 18.6556 h 0.7356453 v -2.50686 c 0,-0.277009 -0.3292016,-0.501373 -0.7356453,-0.501373 z"
     id="path6-6"
     style="stroke-width:0.29127011" />
  <path
     inkscape:connector-curvature="0"
     d="m 20.118857,6.723506 c 0.397446,-0.4340282 0.6346,-0.9736427 0.6346,-1.5582609 0,-0.5846183 -0.237154,-1.1242327 -0.6346,-1.5582609 l 0.735836,-0.6226986 c 0.589139,0.5950039 0.947683,1.3518488 0.947683,2.1809595 0,0.8291108 -0.359013,1.585523 -0.947683,2.1813922 z M 14.967062,2.363318 14.230287,1.739754 c -0.977679,0.9143586 -1.577128,2.1099917 -1.577128,3.4254911 0,1.3154993 0.599449,2.5106993 1.576659,3.4254907 L 14.966592,7.967172 C 14.18295,7.2111927 13.702546,6.2358192 13.702546,5.1652451 c 0,-1.0705742 0.480872,-2.0459477 1.264516,-2.8019271 z M 15.700086,7.3462046 16.435923,6.723506 C 16.038477,6.2894778 15.801322,5.7498633 15.801322,5.1652451 c 0,-0.5846183 0.237155,-1.1242327 0.634601,-1.5582609 L 15.700086,2.9842856 c -0.589138,0.5950039 -0.947683,1.3518488 -0.947683,2.1809595 0,0.8291108 0.358545,1.585523 0.947683,2.1809595 z M 22.324492,1.739754 21.588188,2.363318 c 0.783642,0.7559794 1.264045,1.7313529 1.264045,2.8019271 0,1.0705741 -0.480403,2.0459476 -1.264045,2.8019269 l 0.736773,0.6235638 c 0.97721,-0.915224 1.576659,-2.1104241 1.576659,-3.4254907 0,-1.3150666 -0.599449,-2.5111325 -1.577128,-3.4254911 z m -1.196087,10.385521 h -1.009548 c -0.398383,-0.953304 -1.0597,-1.326751 -1.841467,-1.326751 -0.793016,0 -1.447302,0.383399 -1.841467,1.326751 H 15.44559 L 17.808704,6.3838128 C 17.264091,6.2046627 16.871332,5.7295251 16.871332,5.1652451 c 0,-0.7170336 0.629914,-1.2981902 1.406058,-1.2981902 0.776144,0 1.406058,0.5811566 1.406058,1.2981902 0,0.56428 -0.392759,1.0398503 -0.937372,1.2185677 z M 18.27739,7.7053704 17.87807,8.6634348 h 0.798172 z M 19.217574,9.9616241 19.03713,9.5288952 h -1.51948 l -0.180444,0.4327289 z"
     id="path2-3-5"
     style="stroke-width:0.43197751" />
</svg>
