<?xml version="1.0" encoding="UTF-8" standalone="no"?>
<svg
   xmlns:dc="http://purl.org/dc/elements/1.1/"
   xmlns:cc="http://creativecommons.org/ns#"
   xmlns:rdf="http://www.w3.org/1999/02/22-rdf-syntax-ns#"
   xmlns:svg="http://www.w3.org/2000/svg"
   xmlns="http://www.w3.org/2000/svg"
   xmlns:sodipodi="http://sodipodi.sourceforge.net/DTD/sodipodi-0.dtd"
   xmlns:inkscape="http://www.inkscape.org/namespaces/inkscape"
   width="24"
   height="24"
   viewBox="0 0 24 24"
   version="1.1"
   id="svg4"
   sodipodi:docname="service-connect-random-settings.svg"
   inkscape:version="0.92.4 (5da689c313, 2019-01-14)">
  <metadata
     id="metadata10">
    <rdf:RDF>
      <cc:Work
         rdf:about="">
        <dc:format>image/svg+xml</dc:format>
        <dc:type
           rdf:resource="http://purl.org/dc/dcmitype/StillImage" />
        <dc:title></dc:title>
      </cc:Work>
    </rdf:RDF>
  </metadata>
  <defs
     id="defs8" />
  <sodipodi:namedview
     pagecolor="#ffffff"
     bordercolor="#666666"
     borderopacity="1"
     objecttolerance="10"
     gridtolerance="10"
     guidetolerance="10"
     inkscape:pageopacity="0"
     inkscape:pageshadow="2"
     inkscape:window-width="2503"
     inkscape:window-height="1588"
     id="namedview6"
     showgrid="false"
     inkscape:zoom="13.906433"
     inkscape:cx="-7.5498308"
     inkscape:cy="14.910282"
     inkscape:window-x="1137"
     inkscape:window-y="253"
     inkscape:window-maximized="0"
     inkscape:current-layer="svg4" />
  <path
     d="m 9.3690823,18.363105 c -0.01192,-0.02159 0.116424,-0.03337 0.13923,-0.03337 0.02519,0.0029 -0.06672,0.147852 -0.13923,0.03337 z M 8.636503,17.358234 8.673275,17.348094 c 0.021782,0.01799 -0.024503,0.03107 -0.017364,0.04449 0.029277,0.05071 0.00722,0.08113 0.0027,0.1086 -0.00478,0.02781 -0.035407,0.0157 -0.05072,0.03043 -0.018043,0.02159 0.087828,0.02453 0.089191,0.02781 0.00374,0.01079 -0.1276573,0.02912 -0.1034879,0.05594 0.032686,0.04449 0.2805042,-0.06379 0.2410169,-0.05757 0.076596,-0.03696 0.00988,-0.04089 -0.033025,-0.06216 -0.014634,-0.07033 -0.026894,-0.178927 -0.07251,-0.222431 l 0.029955,-0.03336 c -0.070127,-0.09781 -0.1225506,0.118413 -0.1225506,0.118413 z m 4.428161,2.257362 c 0,2.167736 -1.829068,3.92528 -4.0850207,3.92528 -2.2562926,0 -4.0850202,-1.757544 -4.0850202,-3.92528 0,-2.167736 1.8287276,-3.925279 4.0850202,-3.925279 2.2559527,0 4.0850207,1.757543 4.0850207,3.925279 z m -2.828877,-1.756888 c -0.002,-0.04776 -0.06467,-0.0929 -0.13004,-0.01014 -0.04595,0.05691 -0.03778,0.1436 -0.06263,0.182198 -0.03542,0.05725 0.193017,0.11089 0.193017,0.05692 0.0085,-0.09061 0.249187,-0.02061 0.296165,-0.0081 0.08442,0.02257 0.218888,-0.07393 0.07183,-0.124628 -0.120849,-0.04253 -0.184507,-0.08799 -0.1954,-0.171076 0,0 0.064,-0.05757 0.03608,-0.0543 -0.0742,0.0088 -0.209017,0.257105 -0.209017,0.129207 z m 2.143273,1.756888 c 0,-0.338555 -0.06026,-0.680382 -0.121529,-0.860944 -0.01974,-0.05691 -0.06434,-0.102057 -0.122209,-0.123646 -0.08715,-0.03271 -0.455139,0.195282 -0.510628,0.08308 -0.03642,-0.07491 -0.110296,0.04776 -0.194719,0.0026 -0.04085,-0.0216 -0.15455,-0.16846 -0.205953,-0.150469 -0.10519,0.0363 0.161357,0.31533 0.234207,0.351967 0.06843,-0.04972 0.290037,-0.152105 0.337696,-0.01243 0.09123,0.262994 -0.250889,0.551175 -0.425864,0.702953 -0.261442,0.227011 -0.212421,-0.146871 -0.39046,-0.278696 -0.09361,-0.06903 -0.09259,-0.21589 -0.18723,-0.266592 -0.04222,-0.0229 -0.23591,-0.237151 -0.234208,-0.265937 l -0.0057,0.0543 c -0.032,0.02322 -0.100082,-0.08767 -0.107231,-0.105002 0,0.0965 0.1634,0.250236 0.217527,0.327433 0.09225,0.132478 0.141614,0.325471 0.254633,0.433744 0.0606,0.05822 0.292079,0.298976 0.352333,0.293742 0.0657,-0.0056 0.273356,-0.149815 0.310121,-0.141638 0.219229,0.04973 -0.516074,1.048378 -0.58586,1.172024 -0.05753,0.103693 0.04698,0.360144 0.03847,0.482809 -0.0099,0.141637 -0.125955,0.187433 -0.235909,0.26463 -0.117786,0.08275 -0.09021,0.243693 -0.189273,0.302573 -0.175997,0.10402 -0.302632,0.442575 -0.5525,0.440939 -0.07353,-3.27e-4 -0.3880757,0.117759 -0.4292657,0.0023 -0.03201,-0.08374 -0.07489,-0.147197 -0.120168,-0.229955 -0.04425,-0.08113 -0.005,-0.165189 -0.05889,-0.236825 -0.0371,-0.04972 -0.161698,-0.162572 -0.172931,-0.221452 -6.82e-4,-0.0507 0.03982,-0.204768 0.09532,-0.231591 0.07795,-0.03827 0.01497,-0.149815 0.0055,-0.214581 -0.01634,-0.115796 -0.09089,-0.211312 -0.180421,-0.278368 -0.132423,-0.09781 -0.064,-0.175657 -0.03302,-0.315332 0,-0.06673 -0.04221,-0.154394 -0.135486,-0.128225 -0.1919975,0.05364 -0.133785,-0.143926 -0.2736975,-0.135095 -0.1007636,0.0069 -0.1831445,0.06837 -0.2767606,0.09551 -0.1177838,0.03403 -0.2382927,-0.02682 -0.3547156,-0.04089 C 7.64127,20.330312 7.485019,19.80432 7.609952,19.424875 7.622549,19.362715 7.571148,19.247583 7.593611,19.199499 c 0.053788,-0.115141 0.163402,-0.244348 0.2593997,-0.331686 0.053789,-0.04907 0.1228914,-0.03664 0.1862087,-0.07491 0.0977,-0.0592 0.099061,-0.180891 0.1947189,-0.255471 0.1361682,-0.106309 0.3220361,-0.10402 0.4997339,-0.126917 0.094637,-0.0121 0.4547991,-0.08701 0.5116501,-0.01963 0,0.01243 0.06501,0.197573 -0.0064,0.187106 0.147403,0.0076 0.35744,0.245002 0.497352,0.189395 0.07183,-0.02878 0.04562,-0.24075 0.193018,-0.138366 0.08919,0.06149 0.4888397,0.08897 0.5719017,0.02257 0.05107,-0.04056 0.07966,-0.304209 0.0177,-0.333976 0.03949,0.03762 -0.207994,0.04056 -0.231143,0.03206 -0.04085,-0.01439 -0.07898,0.03729 -0.144677,0.0081 0.03949,0.01799 -0.2199107,-0.115796 -0.07421,-0.218181 -0.06094,0.04286 -0.1177857,-0.0121 -0.1834847,0.035 -0.04527,0.03532 0.0211,0.05888 -0.04357,0.08963 -0.102807,0.05004 -0.180423,-0.171732 -0.21923,-0.196918 -0.03949,-0.02486 -0.345185,-0.230938 -0.262123,-0.0965 l 0.268591,0.256778 c -0.01328,0.0081 -0.07047,-0.09355 -0.07047,-0.0193 0.01804,-0.04415 0.0068,0.189395 -0.03542,0.113506 -0.01872,-0.02911 0.03064,-0.04547 0.002,-0.08766 0,-0.02781 -0.07761,-0.05495 -0.09259,-0.07393 -0.04256,-0.05069 -0.155571,-0.162571 -0.216847,-0.189395 -0.01702,-0.0076 -0.260079,0.02846 -0.280505,0.03599 -0.02382,0.03206 -0.04425,0.06575 -0.06094,0.101729 -0.050381,0.01799 -0.0977,0.04121 -0.1426341,0.06999 l -0.053441,0.115469 c -0.023147,0.01995 -0.2604213,0.09519 -0.261783,0.09813 0.00988,-0.02453 -0.1657844,-0.05594 -0.1542092,-0.105001 0.012939,-0.05398 0.07251,-0.222433 0.057189,-0.283929 -0.016338,-0.06444 0.3656091,0.0929 0.3901193,-0.07687 0.00988,-0.0736 0.01566,-0.159301 -0.1065512,-0.171731 0.023147,0.0026 0.236591,-0.08047 0.2719942,-0.117758 0.0497,-0.05495 0.163741,-0.144581 0.246462,-0.144581 0.09668,0 0.07592,-0.135095 0.120508,-0.201171 0.04459,0.01734 -0.02382,0.122992 0.02962,0.165843 -0.0034,-0.03369 0.151486,0.01865 0.166464,0.01079 0.03541,-0.01766 0.232846,-0.0071 0.202209,-0.09617 -0.03404,-0.09061 0.01736,-0.06379 0.06161,-0.08275 -0.0075,0.0029 0.115743,-0.20248 0.136849,-0.135095 -0.01464,-0.06934 -0.143316,0.02421 -0.188251,0.02061 -0.103828,-0.0079 -0.05991,-0.170095 -0.02076,-0.217525 0.03029,-0.03762 -0.08272,-0.08374 -0.08408,-0.01178 -0.002,0.107617 -0.10621,0.205095 -0.08204,0.348041 0.03677,0.215564 -0.250207,-0.052 -0.275398,-0.03729 -0.09532,0.05561 -0.173274,-0.06999 -0.123913,-0.145236 0.05038,-0.07687 0.171911,-0.07328 0.221954,-0.155703 0.03541,-0.05823 0.0766,-0.125935 0.13106,-0.170096 0.182124,-0.14687 0.232505,-0.02944 0.413949,-0.01341 0.1773587,0.0157 0.05991,0.04056 0.0354,0.105983 -0.02349,0.06216 0.09736,0.08439 0.1392307,0.03238 0.02383,-0.03009 0.07796,-0.105655 0.101445,-0.16159 0.03029,-0.07262 0.306717,-0.06444 0.113699,-0.17533 -0.127316,-0.07295 -0.6821967,-0.219816 -1.0539337,-0.219816 -0.08034,0 -0.136507,0.08603 -0.197783,0.134769 -0.1211894,0.0965 -0.4316504,0.285891 -0.6042432,0.228321 -0.1766769,-0.05855 -0.554882,0.215889 -0.6154762,0.217852 -0.022129,0.0014 0.00132,-0.207385 0.1218699,-0.222759 -0.052076,0.0076 0.4245014,-0.231264 0.4115654,-0.280985 -0.015651,-0.05888 -0.9528316,0.268882 -0.9109595,0.33463 0.020084,0.03009 0.1017853,0.03009 -0.00546,0.09617 -0.061276,0.03565 -0.1266348,0.262012 -0.1841667,0.262012 -0.1719101,0.07229 -0.1828042,-0.142292 -0.3741188,0.133786 L 6.503937,17.374482 c -0.4520755,0.461547 -0.76492,1.046087 -0.8782793,1.695393 -0.00443,0.02584 0.1136991,0.07393 0.1290186,0.09159 0.038126,0.04383 0.038126,0.2329 0.056851,0.294723 0.046978,0.156357 0.1630604,0.243367 0.2519096,0.385658 0.052425,0.08472 0.1395715,0.298976 0.1119977,0.38795 0.036765,-0.05823 0.3642475,0.266592 0.4241611,0.334303 0.1409329,0.1593 0.2495274,0.352293 0.020763,0.509959 -0.073871,0.05103 0.1123377,0.369303 0.016341,0.447482 l -0.1228902,0.03042 c -0.1211896,0.07163 -0.066382,0.247292 0.00716,0.321219 0.6188805,0.621829 1.491032,1.009778 2.4578208,1.009778 1.8780867,0 3.4004387,-1.462821 3.4004387,-3.267469 z M 8.4618677,17.53618 c 0.042555,-0.01799 0.099742,-0.01734 0.1058704,-0.07196 0.00504,-0.04841 0.014973,-0.01504 0.027225,-0.03271 0.011913,-0.01734 -0.022808,-0.04514 -0.037451,-0.04775 -0.021782,-0.0046 -0.036764,0.02257 -0.05072,0.03403 l -0.024503,0.0062 -0.023147,0.02846 0.0027,0.0157 -0.029616,0.03467 c -0.028938,0.02748 6.808e-4,0.04547 0.029616,0.03336 z"
     id="path2"
     inkscape:connector-curvature="0"
     style="stroke-width:0.33369613" />
  <path
     inkscape:connector-curvature="0"
     d="m 16.527183,17.343837 c -0.247273,0.162321 -0.5497,0.258299 -0.876225,0.258299 -0.330856,0 -0.636943,-0.09843 -0.886048,-0.264681 H 14.7542 c -1.233011,0.21647 -1.267237,1.399821 -1.267237,1.399821 0,0 0.596006,1.082683 2.108564,1.138677 1.512619,0.05598 2.108565,-1.138447 2.108565,-1.138447 -0.04808,-1.056868 -0.993732,-1.344953 -1.176942,-1.393669 z"
     id="path2-5"
     style="stroke-width:0.05844765" />
  <path
     inkscape:connector-curvature="0"
     d="m 15.650958,15.117445 c -0.661225,0 -1.197319,0.492015 -1.197319,1.098865 0,0.606852 0.536094,1.098858 1.197319,1.098858 0.661288,0 1.19732,-0.492006 1.19732,-1.098858 0,-0.60685 -0.536032,-1.098865 -1.19732,-1.098865 z m 0.177235,1.906057 h -0.333725 v -0.30628 h 0.333725 z m 0.390218,-0.963638 c -0.04162,0.06037 -0.1305,0.142445 -0.266674,0.246371 -0.07047,0.0538 -0.114211,0.09702 -0.131233,0.129736 -0.01696,0.03267 -0.02465,0.09115 -0.02313,0.175481 h -0.302911 c -7.82e-4,-0.03994 -0.0012,-0.06426 -0.0012,-0.073 0,-0.0901 0.01629,-0.164288 0.04869,-0.222408 0.03246,-0.05814 0.09737,-0.123519 0.194805,-0.196199 0.09743,-0.07268 0.155636,-0.120273 0.174611,-0.142835 0.02923,-0.03558 0.04393,-0.07482 0.04393,-0.11775 0,-0.0596 -0.02594,-0.110646 -0.07779,-0.15314 -0.05186,-0.04247 -0.121719,-0.06381 -0.20963,-0.06381 -0.08474,0 -0.155575,0.02219 -0.21262,0.06649 -0.05699,0.04438 -0.09622,0.111928 -0.11756,0.202751 l -0.306453,-0.03488 c 0.0087,-0.130073 0.06907,-0.240549 0.181138,-0.331369 0.112008,-0.09083 0.259109,-0.136231 0.441224,-0.136231 0.191632,0 0.344034,0.04598 0.457329,0.137852 0.113178,0.09194 0.169852,0.198949 0.169852,0.321009 0,0.06764 -0.02088,0.131587 -0.06235,0.191894 z"
     id="path4-7"
     style="stroke-width:0.05844765" />
  <path
     inkscape:connector-curvature="0"
     d="m 3.4916377,17.432334 c -0.2472732,0.162322 -0.5496997,0.258299 -0.8762251,0.258299 -0.3308558,0 -0.636943,-0.09843 -0.8860474,-0.26468 h -0.010713 c -1.23301016,0.216469 -1.26723656,1.39982 -1.26723656,1.39982 0,0 0.59600546,1.082684 2.10856406,1.138677 1.5126194,0.05598 2.1085649,-1.138447 2.1085649,-1.138447 -0.048076,-1.056868 -0.9937315,-1.344952 -1.1769421,-1.393669 z"
     id="path2-5-3"
     style="stroke-width:0.05844765" />
  <path
     inkscape:connector-curvature="0"
     d="m 2.6154126,15.205943 c -0.6612246,0 -1.1973187,0.492014 -1.1973187,1.098865 0,0.606852 0.5360941,1.098857 1.1973187,1.098857 0.661288,0 1.1973204,-0.492005 1.1973204,-1.098857 0,-0.606851 -0.5360324,-1.098865 -1.1973204,-1.098865 z M 2.7926478,17.112 H 2.4589226 v -0.30628 h 0.3337252 z m 0.3902184,-0.963638 c -0.041616,0.06037 -0.1305006,0.142444 -0.266674,0.246371 -0.070467,0.0538 -0.1142109,0.09702 -0.1312328,0.129735 -0.016964,0.03267 -0.024651,0.09115 -0.02313,0.175481 H 2.4589182 c -7.817e-4,-0.03994 -0.00122,-0.06426 -0.00122,-0.073 0,-0.0901 0.016286,-0.164288 0.048694,-0.222407 0.03246,-0.05814 0.097373,-0.12352 0.1948049,-0.1962 0.097435,-0.07268 0.1556361,-0.120273 0.174611,-0.142834 0.029225,-0.03558 0.043929,-0.07482 0.043929,-0.11775 0,-0.0596 -0.025938,-0.110647 -0.077788,-0.153141 -0.051859,-0.04247 -0.1217192,-0.06381 -0.2096304,-0.06381 -0.084736,0 -0.1555743,0.02219 -0.2126198,0.06649 -0.056989,0.04438 -0.096216,0.111927 -0.1175594,0.202751 l -0.3064533,-0.03488 c 0.00874,-0.130072 0.069067,-0.240548 0.1811377,-0.331368 0.1120083,-0.09083 0.2591091,-0.136231 0.4412241,-0.136231 0.191632,0 0.3440344,0.04598 0.4573296,0.137852 0.1131779,0.09194 0.1698521,0.198949 0.1698521,0.321009 0,0.06764 -0.020877,0.131587 -0.062354,0.191894 z"
     id="path4-7-0"
     style="stroke-width:0.05844765" />
  <path
     inkscape:connector-curvature="0"
     d="m 10.647596,10.361161 c 0.353585,-0.358273 0.564569,-0.8037042 0.564569,-1.2862839 0,-0.4825798 -0.210984,-0.9280105 -0.564569,-1.286284 l 0.654633,-0.5140135 c 0.524123,0.4911526 0.8431,1.1158987 0.8431,1.8002975 0,0.6843988 -0.319394,1.3087879 -0.8431,1.8006549 z M 6.0643316,6.761995 5.4088646,6.247267 C 4.5390785,7.0020346 4.005782,7.9889834 4.005782,9.0748771 c 0,1.0858939 0.5332965,2.0724849 1.4026657,2.8276099 l 0.655467,-0.514728 C 5.3667514,10.763727 4.9393636,9.9585946 4.9393636,9.0748771 c 0,-0.8837175 0.4278047,-1.6888505 1.124968,-2.3128821 z m 0.6521311,4.11318 0.6546329,-0.514014 C 7.0175105,10.002888 6.8065269,9.5574568 6.8065269,9.0748771 c 0,-0.4825798 0.2109836,-0.9280105 0.5645687,-1.286284 L 6.7164627,7.2745796 C 6.1923395,7.7657322 5.8733623,8.3904783 5.8733623,9.0748771 c 0,0.6843988 0.3189772,1.3087879 0.8431004,1.8002979 z M 12.609826,6.247267 11.954777,6.761995 c 0.697163,0.6240316 1.124551,1.4291646 1.124551,2.3128821 0,0.8837175 -0.427388,1.6888499 -1.124551,2.3128819 l 0.655467,0.514728 c 0.869369,-0.755482 1.402665,-1.742073 1.402665,-2.8276099 0,-1.0855365 -0.533296,-2.0728425 -1.403083,-2.8276101 z m -1.064091,8.572845 h -0.898139 c -0.354419,-0.786916 -0.9427547,-1.095181 -1.6382507,-1.095181 -0.7055014,0 -1.2875834,0.316481 -1.6382497,1.095181 H 6.4900515 L 8.5923823,10.080757 C 8.1078703,9.932876 7.7584554,9.5406684 7.7584554,9.0748771 c 0,-0.5918835 0.5603992,-1.0716056 1.2508899,-1.0716056 0.690492,0 1.2508917,0.4797221 1.2508917,1.0716056 0,0.4657913 -0.3494157,0.8583561 -0.8339267,1.0058799 z m -2.5363897,-3.64846 -0.3552526,0.790845 h 0.7100896 z m 0.83643,1.86245 -0.160531,-0.357201 H 8.3334479 l -0.1605307,0.357201 z"
     id="path2-3"
     style="stroke-width:0.38592771" />
  <path
     inkscape:connector-curvature="0"
     d="M 23.721194,6.4057139 V 4.5610651 C 22.828188,4.2380195 22.587892,4.2228373 22.462754,3.9162392 22.336786,3.6087977 22.497261,3.4232363 22.903021,2.557002 L 21.617143,1.2525898 C 20.774858,1.6587161 20.582787,1.8278301 20.276804,1.6992023 19.974563,1.5718396 19.957517,1.3242839 19.641972,0.42262426 H 17.823118 C 17.505495,1.3268143 17.490528,1.5718396 17.187455,1.6992023 16.87482,1.8312039 16.687322,1.6570294 15.847531,1.2525898 L 14.561653,2.557002 C 14.96783,3.4236581 15.127888,3.608376 15.00192,3.9166609 14.876367,4.223259 14.635655,4.238863 13.743481,4.5610651 v 1.8450705 c 0.889264,0.3205152 1.132886,0.3373844 1.258439,0.6444042 0.126384,0.3095501 -0.03368,0.4921594 -0.440267,1.3592372 l 1.285878,1.3044127 c 0.83106,-0.4006444 1.026873,-0.5790361 1.339924,-0.4466131 0.302657,0.1273627 0.317624,0.3711226 0.635663,1.2765784 h 1.818439 c 0.315129,-0.8987073 0.332174,-1.1483725 0.638989,-1.2782649 0.309725,-0.1298932 0.493065,0.041748 1.336597,0.4478776 L 22.903021,8.4093552 C 22.497677,7.5448079 22.336786,7.358403 22.462754,7.0501181 22.587476,6.7439417 22.828604,6.7283377 23.721194,6.4057139 Z M 21.69447,6.727916 c -0.23988,0.5878923 -0.02827,1.0366134 0.202881,1.5089515 l -0.45066,0.4571562 C 20.992289,8.4650234 20.548281,8.2402414 19.961259,8.4873755 19.380889,8.7324007 19.217087,9.2013651 19.051624,9.7006937 H 18.413882 C 18.248418,9.2009431 18.085033,8.7319795 17.506326,8.4882187 16.916394,8.2402414 16.464071,8.4692438 16.018399,8.6940237 L 15.568155,8.2368675 C 15.799721,7.7653729 16.011332,7.3174952 15.770619,6.7270725 15.529907,6.1404454 15.067606,5.9747055 14.574957,5.8068568 V 5.160344 C 15.067606,4.9924954 15.529907,4.8267553 15.770204,4.2392847 16.0105,3.6513925 15.798473,3.2022496 15.567323,2.7299115 l 0.450661,-0.4571558 c 0.449829,0.226891 0.898825,0.4542037 1.488342,0.2058044 0.578707,-0.2433385 0.742092,-0.7127244 0.907556,-1.212475 h 0.637742 c 0.165463,0.4997506 0.329265,0.9687148 0.907972,1.212475 0.589932,0.2479776 1.041839,0.018978 1.487927,-0.2058044 l 0.450659,0.4571558 c -0.23115,0.4727598 -0.44276,0.9223245 -0.20288,1.509795 0.239881,0.586627 0.702182,0.7523671 1.195247,0.9206375 V 5.8072786 C 22.396652,5.9751272 21.93352,6.1408672 21.69447,6.727916 Z M 18.732337,4.2181982 c 0.687631,0 1.247215,0.5676492 1.247215,1.2651914 0,0.697542 -0.559584,1.2651911 -1.247215,1.2651911 -0.687631,0 -1.247213,-0.5676491 -1.247213,-1.2651911 0,-0.6975422 0.559582,-1.2651914 1.247213,-1.2651914 z m 0,-0.8434608 c -1.148268,0 -2.07869,0.9438326 -2.07869,2.1086522 0,1.1648193 0.930422,2.108652 2.07869,2.108652 1.148269,0 2.07869,-0.9438327 2.07869,-2.108652 0,-1.1648196 -0.930421,-2.1086522 -2.07869,-2.1086522 z"
     id="path2-2"
     style="stroke-width:0.41872352" />
</svg>
