<?xml version="1.0" encoding="UTF-8" standalone="no"?>
<svg
   xmlns:dc="http://purl.org/dc/elements/1.1/"
   xmlns:cc="http://creativecommons.org/ns#"
   xmlns:rdf="http://www.w3.org/1999/02/22-rdf-syntax-ns#"
   xmlns:svg="http://www.w3.org/2000/svg"
   xmlns="http://www.w3.org/2000/svg"
   xmlns:sodipodi="http://sodipodi.sourceforge.net/DTD/sodipodi-0.dtd"
   xmlns:inkscape="http://www.inkscape.org/namespaces/inkscape"
   width="24"
   height="24"
   viewBox="0 0 24 24"
   version="1.1"
   id="svg4"
   sodipodi:docname="relay-service.svg"
   inkscape:version="0.92.4 (5da689c313, 2019-01-14)">
  <metadata
     id="metadata10">
    <rdf:RDF>
      <cc:Work
         rdf:about="">
        <dc:format>image/svg+xml</dc:format>
        <dc:type
           rdf:resource="http://purl.org/dc/dcmitype/StillImage" />
        <dc:title />
      </cc:Work>
    </rdf:RDF>
  </metadata>
  <defs
     id="defs8" />
  <sodipodi:namedview
     pagecolor="#ffffff"
     bordercolor="#666666"
     borderopacity="1"
     objecttolerance="10"
     gridtolerance="10"
     guidetolerance="10"
     inkscape:pageopacity="0"
     inkscape:pageshadow="2"
     inkscape:window-width="2503"
     inkscape:window-height="1279"
     id="namedview6"
     showgrid="false"
     inkscape:zoom="13.906433"
     inkscape:cx="-25.677931"
     inkscape:cy="8.0355327"
     inkscape:window-x="1137"
     inkscape:window-y="562"
     inkscape:window-maximized="0"
     inkscape:current-layer="svg4" />
  <path
     d="m 12.361071,16.862048 c -0.01371,-0.02545 0.133893,-0.03934 0.160122,-0.03934 0.02897,0.0034 -0.07673,0.174288 -0.160122,0.03934 z m -0.842501,-1.184542 0.04229,-0.01195 c 0.02505,0.02121 -0.02818,0.03663 -0.01997,0.05244 0.03367,0.05978 0.0083,0.09563 0.0031,0.128018 -0.0055,0.03278 -0.04072,0.01851 -0.05833,0.03587 -0.02075,0.02545 0.101007,0.02891 0.102574,0.03278 0.0043,0.01272 -0.146812,0.03432 -0.119016,0.06594 0.03759,0.05245 0.322593,-0.07519 0.277181,-0.06786 0.08809,-0.04357 0.01136,-0.0482 -0.03798,-0.07327 -0.01683,-0.0829 -0.03093,-0.210919 -0.08339,-0.262202 l 0.03445,-0.03933 c -0.08065,-0.115293 -0.140939,0.139585 -0.140939,0.139585 z m 5.092598,2.660978 c 0,2.555327 -2.103516,4.627119 -4.69797,4.627119 -2.5948449,0 -4.6979695,-2.071792 -4.6979695,-4.627119 0,-2.555327 2.1031246,-4.627119 4.6979695,-4.627119 2.594454,0 4.69797,2.071792 4.69797,4.627119 z m -3.253344,-2.07102 c -0.0023,-0.0563 -0.07437,-0.10951 -0.149552,-0.01195 -0.05285,0.06709 -0.04345,0.169275 -0.07203,0.214775 -0.04073,0.06748 0.221978,0.130717 0.221978,0.0671 0.0098,-0.10681 0.286578,-0.02429 0.340604,-0.0096 0.09709,0.02661 0.251732,-0.08715 0.08261,-0.146911 -0.138982,-0.05013 -0.212192,-0.103724 -0.22472,-0.201665 0,0 0.0736,-0.06786 0.0415,-0.06401 -0.08534,0.01041 -0.24038,0.303076 -0.24038,0.15231 z m 2.464867,2.07102 c 0,-0.399089 -0.0693,-0.802034 -0.139764,-1.014881 -0.0227,-0.06709 -0.074,-0.120305 -0.140547,-0.145754 -0.100224,-0.03856 -0.523432,0.230199 -0.587247,0.09794 -0.04189,-0.0883 -0.126845,0.0563 -0.223936,0.0031 -0.04698,-0.02546 -0.17774,-0.198581 -0.236856,-0.177373 -0.120973,0.04279 0.185569,0.371711 0.26935,0.414898 0.0787,-0.05861 0.333556,-0.179301 0.388366,-0.01465 0.104921,0.310018 -0.288534,0.649725 -0.489764,0.828641 -0.30067,0.267601 -0.244294,-0.173131 -0.449047,-0.328526 -0.107661,-0.08137 -0.106487,-0.254492 -0.215324,-0.314259 -0.04855,-0.02699 -0.271308,-0.279554 -0.26935,-0.313487 l -0.0066,0.06401 c -0.0368,0.02737 -0.1151,-0.10334 -0.123321,-0.123776 0,0.11375 0.187918,0.294978 0.250166,0.385978 0.106096,0.156165 0.162863,0.383665 0.29284,0.511298 0.06969,0.06863 0.335905,0.352432 0.4052,0.346262 0.07556,-0.0066 0.314373,-0.176602 0.356654,-0.166962 0.252124,0.05862 -0.59351,1.235827 -0.673767,1.381581 -0.06616,0.122233 0.05403,0.424538 0.04424,0.569136 -0.01136,0.166961 -0.144854,0.220945 -0.271307,0.311945 -0.135459,0.09755 -0.103747,0.287266 -0.217673,0.356673 -0.202404,0.122619 -0.348041,0.521708 -0.635401,0.519779 -0.08456,-3.85e-4 -0.446306,0.138814 -0.493677,0.0027 -0.03681,-0.09871 -0.08613,-0.173516 -0.138199,-0.271071 -0.05089,-0.09563 -0.0058,-0.194725 -0.06773,-0.27917 -0.04267,-0.05861 -0.185961,-0.19164 -0.19888,-0.261047 -7.84e-4,-0.05976 0.0458,-0.241381 0.109619,-0.273 0.08965,-0.04511 0.01722,-0.176601 0.0063,-0.252948 -0.01879,-0.1365 -0.104529,-0.249094 -0.207493,-0.32814 -0.152293,-0.115293 -0.0736,-0.207064 -0.03797,-0.371713 0,-0.07866 -0.04855,-0.182 -0.155816,-0.151152 -0.220806,0.06323 -0.153859,-0.16966 -0.314765,-0.15925 -0.115883,0.0081 -0.210625,0.08059 -0.318288,0.112593 -0.135457,0.04011 -0.274048,-0.03162 -0.40794,-0.0482 -0.550837,-0.06863 -0.730533,-0.688669 -0.586854,-1.135958 0.01449,-0.07327 -0.04463,-0.208992 -0.01879,-0.265673 0.06186,-0.135729 0.18792,-0.288038 0.298322,-0.390992 0.06186,-0.05784 0.141331,-0.04319 0.214149,-0.0883 0.11236,-0.06979 0.113925,-0.213234 0.223936,-0.30115 0.1566,-0.125317 0.370357,-0.122618 0.574718,-0.149609 0.108837,-0.01426 0.523041,-0.102568 0.588422,-0.02314 0,0.01465 0.07477,0.232899 -0.0074,0.22056 0.16952,0.0089 0.411073,0.288809 0.571978,0.223259 0.08261,-0.03393 0.05246,-0.283796 0.22198,-0.163106 0.102571,0.07249 0.56219,0.104882 0.657715,0.0266 0.05873,-0.04781 0.09161,-0.358601 0.02036,-0.393691 0.04542,0.04435 -0.239204,0.04781 -0.265826,0.03779 -0.04698,-0.01696 -0.09083,0.04396 -0.166386,0.0096 0.04542,0.02121 -0.252908,-0.1365 -0.08534,-0.257191 -0.07008,0.05052 -0.135459,-0.01426 -0.211017,0.04126 -0.05206,0.04164 0.02427,0.06941 -0.05011,0.105653 -0.118233,0.05899 -0.207494,-0.202437 -0.252124,-0.232127 -0.04542,-0.0293 -0.39698,-0.272229 -0.301454,-0.11375 l 0.308892,0.30269 c -0.01527,0.0096 -0.08104,-0.110279 -0.08104,-0.02275 0.02075,-0.05205 0.0078,0.223259 -0.04073,0.133801 -0.02153,-0.03432 0.03524,-0.0536 0.0023,-0.103338 0,-0.03278 -0.08926,-0.06478 -0.106487,-0.08715 -0.04894,-0.05976 -0.178914,-0.191639 -0.249384,-0.223259 -0.01957,-0.0089 -0.299104,0.03355 -0.322594,0.04242 -0.0274,0.03779 -0.05089,0.07751 -0.07008,0.119919 -0.05794,0.02121 -0.112359,0.04858 -0.164036,0.08251 l -0.06146,0.136114 c -0.02662,0.02352 -0.299497,0.112208 -0.301063,0.115678 0.01136,-0.02891 -0.19066,-0.06594 -0.177348,-0.123775 0.01488,-0.06363 0.08339,-0.262204 0.06577,-0.334695 -0.01879,-0.07596 0.420468,0.109508 0.448656,-0.09062 0.01136,-0.08676 0.01801,-0.187785 -0.122539,-0.202437 0.02662,0.0031 0.272091,-0.09486 0.312807,-0.138813 0.05716,-0.06478 0.18831,-0.170432 0.283443,-0.170432 0.111186,0 0.08731,-0.15925 0.13859,-0.23714 0.05128,0.02044 -0.0274,0.144983 0.03406,0.195495 -0.0039,-0.03971 0.174216,0.02198 0.191441,0.01272 0.04072,-0.02082 0.267785,-0.0084 0.23255,-0.113365 -0.03915,-0.106809 0.01997,-0.07519 0.07086,-0.09755 -0.0086,0.0034 0.13311,-0.238683 0.157382,-0.15925 -0.01683,-0.08174 -0.16482,0.02854 -0.216497,0.02429 -0.119407,-0.0093 -0.0689,-0.200508 -0.02388,-0.256418 0.03484,-0.04434 -0.09513,-0.09871 -0.0967,-0.01388 -0.0023,0.126859 -0.122147,0.241766 -0.09435,0.41027 0.04229,0.254107 -0.287751,-0.0613 -0.316721,-0.04396 -0.10962,0.06555 -0.199274,-0.08251 -0.142506,-0.171204 0.05794,-0.09061 0.197706,-0.08638 0.255257,-0.183542 0.04072,-0.06864 0.08809,-0.148453 0.150726,-0.200509 0.209451,-0.173131 0.267392,-0.0347 0.476061,-0.01581 0.203971,0.01851 0.0689,0.04781 0.04071,0.124932 -0.02701,0.07327 0.111969,0.09948 0.160123,0.03817 0.0274,-0.03547 0.08966,-0.124546 0.116666,-0.190482 0.03484,-0.0856 0.35274,-0.07596 0.13076,-0.206679 -0.14642,-0.08599 -0.78456,-0.259119 -1.212075,-0.259119 -0.09239,0 -0.15699,0.101411 -0.22746,0.158865 -0.139374,0.11375 -0.496419,0.337008 -0.694909,0.269145 -0.203187,-0.06902 -0.638141,0.25449 -0.707827,0.256804 -0.02545,0.0016 0.0015,-0.244466 0.140156,-0.262588 -0.05989,0.0089 0.488197,-0.272615 0.47332,-0.331226 -0.018,-0.06941 -1.095802,0.316958 -1.047647,0.394462 0.0231,0.03547 0.117058,0.03547 -0.0063,0.113365 -0.07047,0.04203 -0.1456362,0.30886 -0.2118006,0.30886 -0.1977049,0.08522 -0.2102336,-0.167734 -0.4302546,0.157707 l -0.3499989,0.138814 c -0.5199086,0.544072 -0.8796948,1.233127 -1.0100634,1.998529 -0.00509,0.03046 0.1307594,0.08715 0.1483775,0.107966 0.043847,0.05167 0.043847,0.274543 0.065381,0.34742 0.054027,0.184314 0.1875273,0.286881 0.2897081,0.454614 0.060291,0.09987 0.1605139,0.352432 0.1288027,0.457315 0.042282,-0.06864 0.4189022,0.314258 0.4878057,0.394076 0.1620796,0.187783 0.2869685,0.415283 0.023879,0.60114 -0.084955,0.06015 0.1291938,0.435334 0.018793,0.527492 l -0.1413297,0.03586 c -0.1393739,0.08444 -0.076342,0.291508 0.00823,0.378653 0.7117423,0.733012 1.7147582,1.190326 2.8266112,1.190326 2.159891,0 3.910668,-1.724373 3.910668,-3.851692 z m -4.50496,-2.451216 c 0.04894,-0.02121 0.114708,-0.02044 0.121756,-0.08483 0.0058,-0.05707 0.01722,-0.01773 0.03131,-0.03856 0.0137,-0.02044 -0.02623,-0.05321 -0.04307,-0.05629 -0.02505,-0.0054 -0.04228,0.0266 -0.05833,0.04011 l -0.02818,0.0073 -0.02662,0.03355 0.0031,0.01851 -0.03406,0.04087 c -0.03328,0.03239 7.83e-4,0.0536 0.03406,0.03933 z"
     id="path2"
     inkscape:connector-curvature="0"
     style="stroke-width:0.38853416" />
  <path
     inkscape:connector-curvature="0"
     d="m 7.8890606,7.1446148 c 0.381232,-0.4163223 0.608712,-0.9339235 0.608712,-1.4946926 0,-0.5607691 -0.22748,-1.0783702 -0.608712,-1.4946925 l 0.705818,-0.5972959 c 0.565105,0.570731 0.9090231,1.2967008 0.9090231,2.0919884 0,0.7952877 -0.3443681,1.5208425 -0.9090231,2.0924036 z M 2.9474298,2.9622982 2.2407118,2.3641721 C 1.302917,3.24123 0.72792197,4.3880879 0.72792197,5.6499222 c 0,1.2618343 0.57499503,2.4082768 1.51234023,3.2857498 L 2.9469802,8.3375461 C 2.1953056,7.6124066 1.7345004,6.6768229 1.7345004,5.6499222 c 0,-1.0269007 0.4612548,-1.9624844 1.2129294,-2.687624 z M 3.650551,7.7419107 4.3563698,7.1446148 C 3.9751378,6.7282925 3.7476573,6.2106913 3.7476573,5.6499222 c 0,-0.5607691 0.2274805,-1.0783702 0.6087125,-1.4946925 L 3.650551,3.5579338 c -0.5651044,0.570731 -0.9090225,1.2967008 -0.9090225,2.0919884 0,0.7952877 0.3439181,1.5208425 0.9090225,2.0919885 z M 10.004718,2.3641721 9.2984506,2.9622982 c 0.7516744,0.7251396 1.2124794,1.6607233 1.2124794,2.687624 0,1.0269007 -0.460805,1.9624844 -1.2124794,2.6876239 L 10.005168,8.935672 c 0.937345,-0.877888 1.51234,-2.0243306 1.51234,-3.2857498 0,-1.2614192 -0.574995,-2.4086922 -1.51279,-3.2857501 z M 8.8574246,12.326022 h -0.968364 c -0.382131,-0.914415 -1.01647,-1.272627 -1.766346,-1.272627 -0.760665,0 -1.38826,0.367758 -1.7663448,1.272627 H 3.4064367 L 5.6731486,6.8187792 C 5.1507526,6.6469374 4.7740172,6.1911828 4.7740172,5.6499222 c 0,-0.6877826 0.6042164,-1.2452312 1.3486974,-1.2452312 0.744482,0 1.348699,0.5574486 1.348699,1.2452312 0,0.5412606 -0.376737,0.9974302 -0.899132,1.168857 z m -2.73471,-4.2395974 -0.38303,0.9189807 h 0.765611 z m 0.90183,2.1642114 -0.173083,-0.4150766 h -1.457493 l -0.173083,0.4150766 z"
     id="path2-3"
     style="stroke-width:0.43197751" />
  <path
     inkscape:connector-curvature="0"
     d="m 21.049201,14.114565 c 0,0.398442 -0.473835,0.721378 -1.058454,0.721378 -0.584618,0 -1.058452,-0.322936 -1.058452,-0.721378 0,-0.39844 0.473834,-0.721378 1.058452,-0.721378 0.584619,0 1.058454,0.322938 1.058454,0.721378 z"
     id="path4"
     style="stroke-width:0.29127014" />
  <path
     inkscape:connector-curvature="0"
     d="m 21.049201,15.316862 h -2.116906 c -0.389864,0 -0.705635,0.215211 -0.705635,0.48092 v 2.404594 h 0.705635 v 2.885514 h 0.882044 v -2.885514 h 0.352817 v 2.885514 h 0.882045 v -2.885514 h 0.705635 v -2.404594 c 0,-0.265709 -0.315772,-0.48092 -0.705635,-0.48092 z"
     id="path6"
     style="stroke-width:0.29127014" />
  <path
     inkscape:connector-curvature="0"
     d="m 5.157275,14.402202 c 0,0.398442 -0.473835,0.721378 -1.058454,0.721378 -0.584618,0 -1.058452,-0.322936 -1.058452,-0.721378 0,-0.39844 0.473834,-0.721378 1.058452,-0.721378 0.584619,0 1.058454,0.322938 1.058454,0.721378 z"
     id="path4-5"
     style="stroke-width:0.29127014" />
  <path
     inkscape:connector-curvature="0"
     d="M 5.157275,15.604499 H 3.040369 c -0.389864,0 -0.705635,0.215211 -0.705635,0.48092 v 2.404594 h 0.705635 v 2.885514 H 3.922413 V 18.490013 H 4.27523 v 2.885514 H 5.157275 V 18.490013 H 5.86291 v -2.404594 c 0,-0.265709 -0.315772,-0.48092 -0.705635,-0.48092 z"
     id="path6-6"
     style="stroke-width:0.29127014" />
  <path
     inkscape:connector-curvature="0"
     d="m 19.815547,7.0446819 c 0.381232,-0.4163223 0.608712,-0.9339235 0.608712,-1.4946926 0,-0.5607691 -0.22748,-1.0783702 -0.608712,-1.4946925 l 0.705818,-0.5972959 c 0.565105,0.570731 0.909023,1.2967008 0.909023,2.0919884 0,0.7952877 -0.344368,1.5208425 -0.909023,2.0924036 z M 14.873916,2.8623653 14.167198,2.2642392 c -0.937795,0.8770579 -1.51279,2.0239158 -1.51279,3.2857501 0,1.2618343 0.574995,2.4082768 1.51234,3.2857498 L 14.873466,8.2376132 C 14.121792,7.5124737 13.660986,6.57689 13.660986,5.5499893 c 0,-1.0269007 0.461255,-1.9624844 1.21293,-2.687624 z m 0.703121,4.7796125 0.705819,-0.5972959 C 15.901624,6.6283596 15.674143,6.1107584 15.674143,5.5499893 c 0,-0.5607691 0.227481,-1.0783702 0.608713,-1.4946925 L 15.577037,3.4580009 c -0.565104,0.570731 -0.909023,1.2967008 -0.909023,2.0919884 0,0.7952877 0.343919,1.5208425 0.909023,2.0919885 z m 6.354167,-5.3777386 -0.706267,0.5981261 c 0.751674,0.7251396 1.212479,1.6607233 1.212479,2.687624 0,1.0269007 -0.460805,1.9624844 -1.212479,2.6876239 l 0.706717,0.5981259 c 0.937345,-0.877888 1.51234,-2.0243306 1.51234,-3.2857498 0,-1.2614192 -0.574995,-2.4086922 -1.51279,-3.2857501 z m -1.147293,9.9618498 h -0.968364 c -0.382131,-0.914415 -1.01647,-1.272627 -1.766346,-1.272627 -0.760665,0 -1.38826,0.367758 -1.766345,1.272627 h -0.949933 l 2.266712,-5.5072427 c -0.522396,-0.1718418 -0.899132,-0.6275964 -0.899132,-1.168857 0,-0.6877826 0.604217,-1.2452312 1.348698,-1.2452312 0.744482,0 1.348699,0.5574486 1.348699,1.2452312 0,0.5412606 -0.376737,0.9974302 -0.899132,1.168857 z m -2.73471,-4.2395973 -0.38303,0.9189807 h 0.765611 z m 0.90183,2.1642113 -0.173083,-0.4150767 h -1.457493 l -0.173083,0.4150767 z"
     id="path2-3-5"
     style="stroke-width:0.43197751" />
</svg>
