<?xml version="1.0" encoding="UTF-8" standalone="no"?>
<svg
   xmlns:dc="http://purl.org/dc/elements/1.1/"
   xmlns:cc="http://creativecommons.org/ns#"
   xmlns:rdf="http://www.w3.org/1999/02/22-rdf-syntax-ns#"
   xmlns:svg="http://www.w3.org/2000/svg"
   xmlns="http://www.w3.org/2000/svg"
   xmlns:sodipodi="http://sodipodi.sourceforge.net/DTD/sodipodi-0.dtd"
   xmlns:inkscape="http://www.inkscape.org/namespaces/inkscape"
   width="24"
   height="24"
   viewBox="0 0 24 24"
   version="1.1"
   id="svg4"
   sodipodi:docname="service-network-host.svg"
   inkscape:version="0.92.4 (5da689c313, 2019-01-14)">
  <metadata
     id="metadata10">
    <rdf:RDF>
      <cc:Work
         rdf:about="">
        <dc:format>image/svg+xml</dc:format>
        <dc:type
           rdf:resource="http://purl.org/dc/dcmitype/StillImage" />
        <dc:title></dc:title>
      </cc:Work>
    </rdf:RDF>
  </metadata>
  <defs
     id="defs8" />
  <sodipodi:namedview
     pagecolor="#ffffff"
     bordercolor="#666666"
     borderopacity="1"
     objecttolerance="10"
     gridtolerance="10"
     guidetolerance="10"
     inkscape:pageopacity="0"
     inkscape:pageshadow="2"
     inkscape:window-width="2567"
     inkscape:window-height="1291"
     id="namedview6"
     showgrid="false"
     inkscape:zoom="9.8333333"
     inkscape:cx="11.288136"
     inkscape:cy="11.59322"
     inkscape:window-x="1132"
     inkscape:window-y="518"
     inkscape:window-maximized="0"
     inkscape:current-layer="svg4" />
  <path
     d="m 7.0600966,18.314665 c 0.3596114,-0.440179 0.5741909,-0.987441 0.5741909,-1.580342 0,-0.592903 -0.2145795,-1.140165 -0.5741909,-1.580344 l 0.6657901,-0.631522 c 0.533056,0.603435 0.8574697,1.371004 0.8574697,2.211866 0,0.840858 -0.3248377,1.60799 -0.8574697,2.212302 z M 2.3987185,13.892691 1.7320804,13.26029 c -0.88461003,0.927316 -1.42699565,2.139891 -1.42699565,3.474033 0,1.334138 0.54238562,2.546275 1.42657165,3.47403 L 2.3982945,19.575954 C 1.6892493,18.809262 1.2545776,17.820067 1.2545776,16.734323 c 0,-1.085745 0.4350958,-2.07494 1.1441409,-2.841632 z m 0.6632456,5.053496 0.66579,-0.631522 C 3.3681427,17.874486 3.1535632,17.327224 3.1535632,16.734323 c 0,-0.592903 0.2145795,-1.140165 0.5741909,-1.580344 l -0.66579,-0.631522 c -0.533056,0.603435 -0.8574695,1.371004 -0.8574695,2.211866 0,0.840858 0.3244135,1.60799 0.8574695,2.211864 z M 9.0557708,13.26029 8.3895562,13.892691 c 0.7090456,0.766692 1.1437172,1.755887 1.1437172,2.841632 0,1.085744 -0.4346716,2.074939 -1.1437172,2.841631 l 0.6666379,0.632399 c 0.8841869,-0.928192 1.4265729,-2.14033 1.4265729,-3.47403 0,-1.333702 -0.542386,-2.546717 -1.4269962,-3.474033 z M 7.9735436,23.792978 h -0.913447 c -0.3604595,-0.966813 -0.9588223,-1.34555 -1.6661712,-1.34555 -0.7175266,0 -1.3095284,0.388831 -1.6661713,1.34555 H 2.8316942 l 2.1381611,-5.82282 c -0.4927693,-0.181688 -0.84814,-0.663559 -0.84814,-1.235835 0,-0.727196 0.56995,-1.316588 1.2722101,-1.316588 0.70226,0 1.2722102,0.589392 1.2722102,1.316588 0,0.572276 -0.3553707,1.054584 -0.8481402,1.235835 z M 5.3939254,19.310442 5.0326177,20.282082 H 5.754809 Z M 6.24461,21.598669 6.081343,21.159805 H 4.7065078 l -0.163267,0.438864 z"
     id="path2"
     inkscape:connector-curvature="0"
     style="stroke-width:0.44067237" />
  <path
     d="m 20.755594,18.310424 c 0.340882,-0.448982 0.544285,-1.007189 0.544285,-1.611949 0,-0.604761 -0.203403,-1.162967 -0.544285,-1.611949 l 0.631114,-0.644154 c 0.505291,0.615505 0.812811,1.398426 0.812811,2.256103 0,0.857676 -0.307921,1.64015 -0.812811,2.256549 z m -4.418598,-4.510413 -0.631917,-0.645049 c -0.838537,0.945862 -1.352674,2.18269 -1.352674,3.543513 0,1.360823 0.514137,2.597202 1.352273,3.543511 l 0.631917,-0.645046 c -0.672116,-0.782028 -1.084148,-1.791005 -1.084148,-2.898465 0,-1.107459 0.412434,-2.116439 1.084549,-2.898464 z m 0.628701,5.154565 0.631114,-0.644152 c -0.340882,-0.448982 -0.544284,-1.007189 -0.544284,-1.611949 0,-0.604761 0.203402,-1.162967 0.544284,-1.611949 l -0.631114,-0.644154 c -0.505291,0.615505 -0.81281,1.398426 -0.81281,2.256103 0,0.857676 0.307519,1.64015 0.81281,2.256101 z m 5.68163,-5.799614 -0.631516,0.645049 c 0.672115,0.782025 1.08415,1.791005 1.08415,2.898464 0,1.10746 -0.412035,2.116437 -1.08415,2.898465 l 0.631918,0.645046 C 23.485865,19.29523 24,18.058849 24,16.698475 24,15.338098 23.485865,14.100824 22.647327,13.154962 Z m -1.025861,10.743342 h -0.865872 c -0.341685,-0.986149 -0.908884,-1.372462 -1.579392,-1.372462 -0.680155,0 -1.241323,0.396609 -1.579391,1.372462 H 16.74742 l 2.0268,-5.939277 c -0.467106,-0.185323 -0.803967,-0.676831 -0.803967,-1.260552 0,-0.741738 0.540264,-1.342919 1.205949,-1.342919 0.665684,0 1.20595,0.601181 1.20595,1.342919 0,0.583721 -0.336863,1.075677 -0.803966,1.260552 z m -2.445264,-4.572188 -0.342488,0.991074 h 0.684576 z m 0.806379,2.333992 -0.154764,-0.447639 h -1.30323 l -0.154762,0.447639 z"
     id="path2-1"
     inkscape:connector-curvature="0"
     style="stroke-width:0.43331227" />
  <path
     d="m 14.591816,6.4714202 c 0.438277,-0.5370179 0.699795,-1.2046766 0.699795,-1.9280174 0,-0.7233408 -0.261518,-1.3909995 -0.699795,-1.9280174 l 0.811432,-0.7704575 c 0.64966,0.7361909 1.045041,1.6726258 1.045041,2.6984749 0,1.0258481 -0.395896,1.9617485 -1.045041,2.6990104 z M 8.9107614,1.0766124 8.0982962,0.30508392 C 7.0201776,1.4364091 6.3591451,2.9157509 6.3591451,4.5434028 c 0,1.627651 0.6610325,3.1064583 1.7386343,4.2383179 L 8.9102445,8.0101933 C 8.0460959,7.0748284 7.5163396,5.868011 7.5163396,4.5434028 c 0,-1.3246082 0.5302731,-2.5314266 1.3944218,-3.4667904 z M 9.7190918,7.2418777 10.530524,6.4714202 C 10.092248,5.9344023 9.8307287,5.2667436 9.8307287,4.5434028 c 0,-0.7233408 0.2615193,-1.3909995 0.6997953,-1.9280174 L 9.7190918,1.8449279 c -0.6496619,0.7361909 -1.045041,1.6726258 -1.045041,2.6984749 0,1.0258481 0.3953791,1.9617485 1.045041,2.6984749 z M 17.024044,0.30508392 16.212095,1.0766124 C 17.076243,2.0119762 17.606,3.2187946 17.606,4.5434028 c 0,1.3246082 -0.529757,2.5314256 -1.393905,3.4667905 l 0.812465,0.7715274 c 1.077602,-1.1323951 1.738634,-2.6112025 1.738634,-4.2383179 0,-1.6271165 -0.661032,-3.1069937 -1.73915,-4.23831888 z M 15.705079,13.154962 H 14.591816 C 14.152506,11.97545 13.423252,11.51339 12.56117,11.51339 c -0.874486,0 -1.595986,0.474375 -2.030646,1.641572 H 9.4384501 L 12.044335,6.0511222 C 11.443771,5.8294617 11.010664,5.2415799 11.010664,4.5434028 c 0,-0.8871773 0.694627,-1.6062354 1.550506,-1.6062354 0.855879,0 1.550506,0.7190581 1.550506,1.6062354 0,0.6981771 -0.433108,1.2865944 -1.033671,1.5077194 z M 12.56117,7.6862685 12.120826,8.8716704 h 0.880171 z M 13.597942,10.477905 13.39896,9.9424942 h -1.67558 l -0.198982,0.5354108 z"
     id="path2-0"
     inkscape:connector-curvature="0"
     style="stroke-width:0.53734475" />
</svg>
