<?xml version="1.0" encoding="UTF-8" standalone="no"?>
<svg
   xmlns:dc="http://purl.org/dc/elements/1.1/"
   xmlns:cc="http://creativecommons.org/ns#"
   xmlns:rdf="http://www.w3.org/1999/02/22-rdf-syntax-ns#"
   xmlns:svg="http://www.w3.org/2000/svg"
   xmlns="http://www.w3.org/2000/svg"
   xmlns:sodipodi="http://sodipodi.sourceforge.net/DTD/sodipodi-0.dtd"
   xmlns:inkscape="http://www.inkscape.org/namespaces/inkscape"
   width="24"
   height="24"
   fill-rule="evenodd"
   clip-rule="evenodd"
   version="1.1"
   id="svg4"
   sodipodi:docname="share-about-me.svg"
   inkscape:version="0.92.4 (5da689c313, 2019-01-14)">
  <metadata
     id="metadata10">
    <rdf:RDF>
      <cc:Work
         rdf:about="">
        <dc:format>image/svg+xml</dc:format>
        <dc:type
           rdf:resource="http://purl.org/dc/dcmitype/StillImage" />
        <dc:title></dc:title>
      </cc:Work>
    </rdf:RDF>
  </metadata>
  <defs
     id="defs8" />
  <sodipodi:namedview
     pagecolor="#ffffff"
     bordercolor="#666666"
     borderopacity="1"
     objecttolerance="10"
     gridtolerance="10"
     guidetolerance="10"
     inkscape:pageopacity="0"
     inkscape:pageshadow="2"
     inkscape:window-width="2635"
     inkscape:window-height="1736"
     id="namedview6"
     showgrid="false"
     inkscape:zoom="55.625733"
     inkscape:cx="9.5117286"
     inkscape:cy="14.659495"
     inkscape:window-x="1104"
     inkscape:window-y="178"
     inkscape:window-maximized="0"
     inkscape:current-layer="svg4" />
  <path
     id="path2"
     d="M 6.9941425,15.025391 2,15.025391 v 9 h 5 v -1.332032 c 1.243,0.069 2.953571,0.322469 5.726562,1.105469 0.476002,0.135 0.903594,0.199219 1.308594,0.199219 0.903,0 1.670922,-0.318868 2.419922,-1.005859 0.482,-0.441001 3.557547,-3.186797 4.935547,-4.466797 0.408,-0.379296 0.597518,-0.865248 0.609375,-1.355469 0.005,-0.20637 0.02236,-0.399278 -0.01367,-0.619141 -0.0077,-0.04682 0.03202,-0.08915 -0.251721,-0.482157 -0.03504,-0.04854 -0.303091,-0.333476 -0.576404,-0.459249 -0.226,-0.104 -0.628625,-0.146484 -0.890625,-0.146484 -0.427,0 -0.844172,0.149593 -1.201172,0.433593 -0.017,0.013 -1.811547,1.406532 -2.935547,2.269532 -0.099,-0.59 -0.535781,-1.092641 -1.175781,-1.306641 -2.098,-0.706 -3.088734,-1.205078 -4.302734,-1.205078 -0.628,0 -1.244719,0.137969 -1.886719,0.417969 L 6.9763542,16.650391 M 3,16.025391 h 3 v 7 H 3 Z m 17.320312,0.4375 c 0.599251,0.03952 1.008623,0.756328 0.390626,1.330078 -2.207002,2.05 -3.650688,3.29089 -4.929688,4.46289 -1.021,0.935 -1.966203,0.813032 -2.783203,0.582032 C 11.404047,22.386891 9.092,21.807453 7,21.689453 v -3.886719 c 0.732,-0.198 1.5250625,-0.536453 2.1640625,-0.814453 1.3710005,-0.597 2.2829845,-0.29475 3.5839845,0.15625 1.352,0.467 1.328625,0.474063 1.890625,0.664063 0.854,0.285 0.595125,1.433343 -0.421875,1.152344 -0.607,-0.170001 -1.754172,-0.426532 -2.201172,-0.519532 -0.639,-0.135 -0.844531,0.674422 -0.269531,0.857422 0.872,0.276 2.745469,0.744141 3.105468,0.744141 0.453,0 0.767485,-0.234533 1.146485,-0.519531 0.728,-0.544002 3.689453,-2.84375 3.689453,-2.84375 0.211,-0.167502 0.433062,-0.229969 0.632812,-0.216797 z"
     inkscape:connector-curvature="0"
     sodipodi:nodetypes="ccccccsccssssscccscccccccccccccccccccsccc" />
  <path
     inkscape:connector-curvature="0"
     style="clip-rule:evenodd;fill-rule:evenodd;stroke-width:0.33366576"
     d="M 17.669574,15.557718 H 10.30309 c -0.7396622,0 -1.339361,-0.595499 -1.339361,-1.329981 V 4.2528755 c 0,-0.7344827 0.5996988,-1.3299813 1.339361,-1.3299813 h 2.343882 V 1.5929128 c 0,-0.73448266 0.599698,-1.32998181 1.33936,-1.32998181 0.739662,0 1.339361,0.59549915 1.339361,1.32998181 v 1.3299814 h 2.343881 c 0.739663,0 1.339362,0.5954986 1.339362,1.3299813 v 9.9748615 c 0,0.734482 -0.599699,1.329981 -1.339362,1.329981 z M 14.656013,1.5929128 c 0,-0.367075 -0.300017,-0.66499114 -0.669681,-0.66499114 -0.369663,0 -0.66968,0.29791614 -0.66968,0.66499114 v 1.9949721 c 0,0.367075 0.300017,0.6649906 0.66968,0.6649906 0.369664,0 0.669681,-0.2979156 0.669681,-0.6649906 z m 3.683243,2.6599627 c 0,-0.367075 -0.300017,-0.6649906 -0.669682,-0.6649906 h -2.343881 c 0,0.7344818 -0.599699,1.3299813 -1.339361,1.3299813 -0.739662,0 -1.33936,-0.5954995 -1.33936,-1.3299813 H 10.30309 c -0.3696638,0 -0.6696806,0.2979156 -0.6696806,0.6649906 v 7.9798895 h 1.2713896 c 0.07735,-0.195841 0.219654,-0.515036 0.388414,-0.74479 0.0084,-0.0047 0.283944,-0.57821 1.673531,-0.595167 0.002,-0.007 0.0034,-0.34646 0.0074,-0.341473 -0.107149,-0.06716 -0.246778,-0.171567 -0.351917,-0.271316 -0.08538,-0.05187 -0.38875,-0.3421383 -0.486188,-0.8588354 -0.02913,-0.1802125 -0.163402,-1.0304039 -0.163402,-1.3851757 0,-1.0543427 0.423573,-2.1216529 1.993304,-2.1216529 0.007,0 0.03348,0 0.04051,0 1.569731,0 1.993303,1.0673102 1.993303,2.1216529 0,0.3547718 -0.13427,1.2049632 -0.163401,1.3851757 -0.09744,0.5166971 -0.400469,0.8069664 -0.486189,0.8588354 -0.104805,0.100081 -0.244433,0.204152 -0.351916,0.271316 0.0043,-0.005 0.006,0.334823 0.0074,0.341473 1.389922,0.01696 1.665495,0.590512 1.673531,0.595167 0.168759,0.229754 0.311067,0.548949 0.388415,0.74479 h 1.271723 z M 14.32586,10.400049 c -3.35e-4,0.001 -3.35e-4,0.0013 -3.35e-4,0.0013 -0.0011,0 -0.0058,-0.25968 -0.0058,-0.25968 0,0 0.390424,-0.1998288 0.68006,-0.4581777 0.169764,-0.1386507 0.248117,-0.4528583 0.248117,-0.4528583 0.04587,-0.275307 0.07969,-0.9565897 0.07969,-1.2312307 0,-0.6856058 -0.345891,-1.4230805 -1.341705,-1.4230805 0,0 0,-0.00196 0,-0.0023 0,0 0,0.0023 0,0.0023 -0.995815,0 -1.341705,0.7378073 -1.341705,1.4230805 0,0.274641 0.03449,0.9559237 0.07969,1.2312307 0,0 0.07836,0.3142076 0.248116,0.4528583 0.289637,0.2583489 0.68006,0.4581777 0.68006,0.4581777 0,0 -0.0047,0.25968 -0.006,0.25968 0,0 0,-3.32e-4 0,-0.0013 0,0 0.0097,0.381041 0.0097,0.494089 0,0.453191 -0.457058,0.671308 -0.74435,0.671308 -6.68e-4,0 -6.68e-4,0 -0.0011,0 -0.86824,0.0379 -1.073163,0.324516 -1.074837,0.327175 -0.05291,0.08413 -0.126235,0.167911 -0.193873,0.340144 h 4.689439 c -0.06797,-0.172233 -0.141302,-0.256022 -0.194877,-0.339811 -0.002,-0.003 -0.207267,-0.289271 -1.075172,-0.327175 -3.34e-4,0 -3.34e-4,0 -6.68e-4,0 -0.287293,0 -0.744684,-0.217784 -0.744684,-0.671308 0,-0.113381 0.01004,-0.494422 0.01004,-0.494422 z m 4.013396,2.497706 H 9.6334094 v 1.329982 c 0,0.367074 0.3000168,0.66499 0.6696806,0.66499 h 7.366484 c 0.369665,0 0.669682,-0.297916 0.669682,-0.66499 z m -2.009042,1.329982 h -1.004521 c -0.185167,0 -0.33484,-0.148626 -0.33484,-0.332496 0,-0.18387 0.149673,-0.332495 0.33484,-0.332495 h 1.004521 c 0.185167,0 0.33484,0.148625 0.33484,0.332495 0,0.18387 -0.149673,0.332496 -0.33484,0.332496 z m -2.678722,0 h -2.009041 c -0.185167,0 -0.334841,-0.148626 -0.334841,-0.332496 0,-0.18387 0.149674,-0.332495 0.334841,-0.332495 h 2.009041 c 0.185166,0 0.33484,0.148625 0.33484,0.332495 0,0.18387 -0.149674,0.332496 -0.33484,0.332496 z m 0,-12.6348242 h 0.669681 v 0.6649907 h -0.669681 z"
     id="path2-5" />
</svg>
