<?xml version="1.0" encoding="UTF-8" standalone="no"?>
<svg
   xmlns:dc="http://purl.org/dc/elements/1.1/"
   xmlns:cc="http://creativecommons.org/ns#"
   xmlns:rdf="http://www.w3.org/1999/02/22-rdf-syntax-ns#"
   xmlns:svg="http://www.w3.org/2000/svg"
   xmlns="http://www.w3.org/2000/svg"
   xmlns:sodipodi="http://sodipodi.sourceforge.net/DTD/sodipodi-0.dtd"
   xmlns:inkscape="http://www.inkscape.org/namespaces/inkscape"
   width="24"
   height="24"
   fill-rule="evenodd"
   clip-rule="evenodd"
   version="1.1"
   id="svg4"
   sodipodi:docname="share-services.svg"
   inkscape:version="0.92.4 (5da689c313, 2019-01-14)">
  <metadata
     id="metadata10">
    <rdf:RDF>
      <cc:Work
         rdf:about="">
        <dc:format>image/svg+xml</dc:format>
        <dc:type
           rdf:resource="http://purl.org/dc/dcmitype/StillImage" />
        <dc:title />
      </cc:Work>
    </rdf:RDF>
  </metadata>
  <defs
     id="defs8" />
  <sodipodi:namedview
     pagecolor="#ffffff"
     bordercolor="#666666"
     borderopacity="1"
     objecttolerance="10"
     gridtolerance="10"
     guidetolerance="10"
     inkscape:pageopacity="0"
     inkscape:pageshadow="2"
     inkscape:window-width="2635"
     inkscape:window-height="1736"
     id="namedview6"
     showgrid="false"
     inkscape:zoom="55.625733"
     inkscape:cx="13.914535"
     inkscape:cy="11.086381"
     inkscape:window-x="1104"
     inkscape:window-y="178"
     inkscape:window-maximized="0"
     inkscape:current-layer="svg4" />
  <path
     id="path2"
     d="M 6.5059424,14.414847 H 1.2129086 v 9.538635 H 6.5121505 V 22.54173 c 1.3173915,0.07313 3.1303372,0.341768 6.0692885,1.17163 0.50449,0.143079 0.957672,0.211142 1.386911,0.211142 0.957043,0 1.770924,-0.337952 2.56475,-1.066059 0.510847,-0.467394 3.770461,-3.377521 5.230932,-4.734127 0.432418,-0.401996 0.633278,-0.917032 0.645845,-1.436592 0.0053,-0.218721 0.0237,-0.423174 -0.01449,-0.656195 -0.0082,-0.04962 0.03394,-0.09449 -0.266786,-0.511014 -0.03714,-0.05144 -0.321231,-0.353434 -0.610901,-0.486734 -0.239526,-0.110224 -0.666247,-0.155251 -0.943928,-0.155251 -0.452555,0 -0.894694,0.158546 -1.27306,0.459543 -0.01802,0.01378 -1.919965,1.490711 -3.111235,2.40536 -0.104925,-0.625311 -0.567846,-1.158034 -1.246149,-1.384841 -2.223562,-0.748253 -3.27359,-1.2772 -4.560246,-1.2772 -0.6655853,0 -1.3192143,0.146226 -1.9996363,0.442983 L 6.4870895,16.1371 M 2.272757,15.474695 h 3.1795451 v 7.418939 H 2.272757 Z m 18.356905,0.463684 c 0.635115,0.04189 1.068988,0.801593 0.414005,1.409681 -2.339088,2.172689 -3.869176,3.487844 -5.224722,4.729986 -1.082105,0.990959 -2.083877,0.861691 -2.949773,0.616866 -1.689399,-0.477992 -4.1398183,-1.092108 -6.3570215,-1.21717 v -4.119333 c 0.775809,-0.20985 1.6163352,-0.568559 2.2935782,-0.863197 1.4530533,-0.632729 2.4196183,-0.31239 3.7984803,0.165602 1.432915,0.494949 1.408142,0.502435 2.003776,0.703806 0.905111,0.302057 0.630743,1.519126 -0.447123,1.22131 -0.643328,-0.180176 -1.859157,-0.45206 -2.332909,-0.550625 -0.677243,-0.14308 -0.895075,0.714785 -0.285662,0.908737 0.924188,0.292518 2.909781,0.788677 3.291325,0.788677 0.480112,0 0.813418,-0.24857 1.215101,-0.550625 0.771569,-0.576559 3.91026,-3.013943 3.91026,-3.013943 0.223628,-0.177527 0.458981,-0.243733 0.670685,-0.229772 z"
     inkscape:connector-curvature="0"
     sodipodi:nodetypes="ccccccsccssssscccscccccccccccccccccccsccc"
     style="stroke-width:1.05984843" />
  <path
     inkscape:connector-curvature="0"
     d="m 17.891094,12.794822 h -0.981669 c 0,-1.644885 0.05902,-1.881231 -0.8656,-2.112278 C 14.629358,10.330674 13.292597,9.998942 12.804714,8.8500655 12.62766,8.4303656 12.50864,7.7393444 12.957177,6.8289347 13.961469,4.7844869 14.21328,3.0314977 13.64769,2.0193425 12.986686,0.83761158 10.984988,0.83231234 10.318082,2.03736 9.7515077,3.0632932 10.007254,4.8067438 11.019415,6.819396 11.476805,7.7266263 11.361721,8.4197671 11.184666,8.8415867 10.702685,9.9957625 9.3787107,10.325375 7.9760463,10.673005 7.0101162,10.913591 7.0711017,11.134039 7.0711017,12.794822 H 6.0923843 l -0.00197,-0.660286 c 0,-1.334349 0.098363,-2.103799 1.5620132,-2.4683864 C 9.3069007,9.2538686 10.941704,8.8861004 10.155779,7.3249437 7.828501,2.6987053 9.4908447,0.07664045 11.990264,0.07664045 c 2.451219,0 4.157827,2.52561865 1.836447,7.24830325 -0.762317,1.551618 0.810516,1.9204461 2.503353,2.3412059 1.465617,0.3645874 1.562997,1.1361574 1.562997,2.4726264 z m 4.731287,-2.346505 C 21.354475,10.132483 20.174112,9.8558625 20.745603,8.6921481 22.486638,5.1501346 21.207912,3.2561856 19.368514,3.2561856 c -1.244299,0 -2.211213,0.8658961 -2.211213,2.4641475 0,1.3449478 0.564607,2.3051704 0.889207,3.1000567 h 1.030849 C 18.91014,8.0255035 17.635348,6.1050582 18.323893,4.860796 c 0.405258,-0.733415 1.676115,-0.7344749 2.079406,-0.012718 0.373781,0.6687643 0.178037,1.9204454 -0.525262,3.3501809 -0.38165,0.7768688 -0.275418,1.3788636 -0.11902,1.746631 0.300009,0.7058581 0.961012,1.0460701 1.708575,1.2802961 1.482339,0.467393 1.345613,0.04451 1.345613,1.568576 h 0.980685 l 0.002,-0.49071 c 0,-1.001557 -0.07279,-1.581294 -1.173477,-1.854735 z M 0.19057075,12.794822 H 1.1712555 c 0,-1.524062 -0.1367254,-1.101183 1.3456135,-1.568576 C 3.2654156,10.99202 3.9264188,10.651808 4.225444,9.9459496 4.381842,9.5771224 4.4880746,8.9761875 4.1064241,8.1993186 3.4031246,6.7695832 3.2073812,5.517902 3.5811627,4.8491377 3.9844532,4.1263211 5.2553104,4.127381 5.6605682,4.8618559 6.3491131,6.1071779 5.0743215,8.0265633 4.9071034,8.8214496 h 1.03085 C 6.2625532,8.0265633 6.82716,7.0663407 6.82716,5.7213929 6.8281436,4.1220817 5.8612299,3.2561856 4.6169309,3.2561856 c -1.8393985,0 -3.1181247,1.893949 -1.3770897,5.4359625 0.5714921,1.1647742 -0.6088705,1.4403349 -1.8767767,1.7561689 -1.10167185,0.273441 -1.17446085,0.853178 -1.17446085,1.855795 z"
     id="path2-8"
     style="stroke-width:1.02103114" />
</svg>
