<?xml version="1.0" encoding="UTF-8" standalone="no"?>
<svg
   xmlns:dc="http://purl.org/dc/elements/1.1/"
   xmlns:cc="http://creativecommons.org/ns#"
   xmlns:rdf="http://www.w3.org/1999/02/22-rdf-syntax-ns#"
   xmlns:svg="http://www.w3.org/2000/svg"
   xmlns="http://www.w3.org/2000/svg"
   xmlns:sodipodi="http://sodipodi.sourceforge.net/DTD/sodipodi-0.dtd"
   xmlns:inkscape="http://www.inkscape.org/namespaces/inkscape"
   width="24"
   height="24"
   fill-rule="evenodd"
   clip-rule="evenodd"
   version="1.1"
   id="svg4"
   sodipodi:docname="share-services.svg"
   inkscape:version="0.92.4 (5da689c313, 2019-01-14)">
  <metadata
     id="metadata10">
    <rdf:RDF>
      <cc:Work
         rdf:about="">
        <dc:format>image/svg+xml</dc:format>
        <dc:type
           rdf:resource="http://purl.org/dc/dcmitype/StillImage" />
        <dc:title></dc:title>
      </cc:Work>
    </rdf:RDF>
  </metadata>
  <defs
     id="defs8" />
  <sodipodi:namedview
     pagecolor="#ffffff"
     bordercolor="#666666"
     borderopacity="1"
     objecttolerance="10"
     gridtolerance="10"
     guidetolerance="10"
     inkscape:pageopacity="0"
     inkscape:pageshadow="2"
     inkscape:window-width="2635"
     inkscape:window-height="1736"
     id="namedview6"
     showgrid="false"
     inkscape:zoom="55.625733"
     inkscape:cx="10.020222"
     inkscape:cy="11.086381"
     inkscape:window-x="1104"
     inkscape:window-y="178"
     inkscape:window-maximized="0"
     inkscape:current-layer="svg4" />
  <path
     id="path2"
     d="M 6.9941425,15.025391 2,15.025391 v 9 h 5 v -1.332032 c 1.243,0.069 2.953571,0.322469 5.726562,1.105469 0.476002,0.135 0.903594,0.199219 1.308594,0.199219 0.903,0 1.670922,-0.318868 2.419922,-1.005859 0.482,-0.441001 3.557547,-3.186797 4.935547,-4.466797 0.408,-0.379296 0.597518,-0.865248 0.609375,-1.355469 0.005,-0.20637 0.02236,-0.399278 -0.01367,-0.619141 -0.0077,-0.04682 0.03202,-0.08915 -0.251721,-0.482157 -0.03504,-0.04854 -0.303091,-0.333476 -0.576404,-0.459249 -0.226,-0.104 -0.628625,-0.146484 -0.890625,-0.146484 -0.427,0 -0.844172,0.149593 -1.201172,0.433593 -0.017,0.013 -1.811547,1.406532 -2.935547,2.269532 -0.099,-0.59 -0.535781,-1.092641 -1.175781,-1.306641 -2.098,-0.706 -3.088734,-1.205078 -4.302734,-1.205078 -0.628,0 -1.244719,0.137969 -1.886719,0.417969 L 6.9763542,16.650391 M 3,16.025391 h 3 v 7 H 3 Z m 17.320312,0.4375 c 0.599251,0.03952 1.008623,0.756328 0.390626,1.330078 -2.207002,2.05 -3.650688,3.29089 -4.929688,4.46289 -1.021,0.935 -1.966203,0.813032 -2.783203,0.582032 C 11.404047,22.386891 9.092,21.807453 7,21.689453 v -3.886719 c 0.732,-0.198 1.5250625,-0.536453 2.1640625,-0.814453 1.3710005,-0.597 2.2829845,-0.29475 3.5839845,0.15625 1.352,0.467 1.328625,0.474063 1.890625,0.664063 0.854,0.285 0.595125,1.433343 -0.421875,1.152344 -0.607,-0.170001 -1.754172,-0.426532 -2.201172,-0.519532 -0.639,-0.135 -0.844531,0.674422 -0.269531,0.857422 0.872,0.276 2.745469,0.744141 3.105468,0.744141 0.453,0 0.767485,-0.234533 1.146485,-0.519531 0.728,-0.544002 3.689453,-2.84375 3.689453,-2.84375 0.211,-0.167502 0.433062,-0.229969 0.632812,-0.216797 z"
     inkscape:connector-curvature="0"
     sodipodi:nodetypes="ccccccsccssssscccscccccccccccccccccccsccc" />
  <path
     inkscape:connector-curvature="0"
     d="m 17.736387,13.496847 h -0.926235 c 0,-1.552 0.05569,-1.775 -0.81672,-1.993 -1.334594,-0.332 -2.59587,-0.645 -3.056203,-1.7290003 -0.167056,-0.396 -0.279355,-1.048 0.143854,-1.907 0.947581,-1.9290002 1.185172,-3.5830002 0.65152,-4.5380002 -0.623677,-1.115 -2.512342,-1.12 -3.141588,0.017 -0.53458,0.968 -0.293276,2.613 0.661729,4.5120002 0.431562,0.856 0.322976,1.51 0.155919,1.908 -0.454764,1.0890003 -1.703974,1.4000003 -3.0274316,1.7280003 -0.9113852,0.227 -0.8538435,0.435 -0.8538435,2.002 H 6.6039375 l -0.00186,-0.623 c 0,-1.259 0.092809,-1.985 1.4738082,-2.329 1.5610488,-0.389 3.1035353,-0.7360003 2.3619913,-2.2090003 C 8.2420178,3.9708465 9.8104913,1.4968465 12.16877,1.4968465 c 2.312802,0 3.92304,2.383 1.732745,6.8390002 -0.71927,1.464 0.764747,1.8120003 2.361992,2.2090003 1.382855,0.344 1.474736,1.072 1.474736,2.333 z m 4.464117,-2.214 c -1.196309,-0.298 -2.310018,-0.559 -1.770798,-1.6570003 1.642721,-3.3420002 0.436203,-5.1290002 -1.299327,-5.1290002 -1.174035,0 -2.086348,0.817 -2.086348,2.325 0,1.2690002 0.532724,2.1750002 0.838994,2.9250002 h 0.972639 c -0.157775,-0.75 -1.360581,-2.562 -0.710917,-3.7360002 0.382373,-0.692 1.581467,-0.693 1.961984,-0.012 0.352674,0.631 0.167984,1.8120002 -0.495601,3.1610002 -0.360099,0.733 -0.259865,1.3010003 -0.112299,1.6480003 0.283068,0.666 0.906745,0.987 1.612094,1.208 1.398633,0.441 1.269628,0.042 1.269628,1.48 h 0.925307 l 0.0019,-0.463 c 0,-0.945 -0.06868,-1.492 -1.107212,-1.75 z m -21.1651116,2.214 H 1.960699 c 0,-1.438 -0.1290046,-1.039 1.2696283,-1.48 0.7062771,-0.221 1.3299542,-0.542 1.6120938,-1.208 0.1475664,-0.348 0.2478002,-0.9150003 -0.112299,-1.6480003 -0.663585,-1.349 -0.848275,-2.5300002 -0.4956005,-3.1610002 0.3805172,-0.682 1.5796106,-0.681 1.961984,0.012 C 6.8461692,7.1868467 5.6433635,8.9978467 5.485588,9.7478467 h 0.9726392 c 0.30627,-0.75 0.8389941,-1.656 0.8389941,-2.9250002 9.281e-4,-1.509 -0.9113852,-2.326 -2.0854201,-2.326 -1.7355298,0 -2.9420479,1.787 -1.2993271,5.1290002 0.5392207,1.0990003 -0.5744883,1.3590003 -1.7707973,1.6570003 -1.0394618,0.258 -1.1081405,0.805 -1.1081405,1.751 z"
     id="path2-8"
     style="stroke-width:0.96337473" />
</svg>
