<?xml version="1.0" encoding="UTF-8" standalone="no"?>
<svg
   xmlns:dc="http://purl.org/dc/elements/1.1/"
   xmlns:cc="http://creativecommons.org/ns#"
   xmlns:rdf="http://www.w3.org/1999/02/22-rdf-syntax-ns#"
   xmlns:svg="http://www.w3.org/2000/svg"
   xmlns="http://www.w3.org/2000/svg"
   xmlns:sodipodi="http://sodipodi.sourceforge.net/DTD/sodipodi-0.dtd"
   xmlns:inkscape="http://www.inkscape.org/namespaces/inkscape"
   width="24"
   height="24"
   fill-rule="evenodd"
   clip-rule="evenodd"
   version="1.1"
   id="svg4"
   sodipodi:docname="share-files-settings.svg"
   inkscape:version="0.92.4 (5da689c313, 2019-01-14)">
  <metadata
     id="metadata10">
    <rdf:RDF>
      <cc:Work
         rdf:about="">
        <dc:format>image/svg+xml</dc:format>
        <dc:type
           rdf:resource="http://purl.org/dc/dcmitype/StillImage" />
        <dc:title></dc:title>
      </cc:Work>
    </rdf:RDF>
  </metadata>
  <defs
     id="defs8" />
  <sodipodi:namedview
     pagecolor="#ffffff"
     bordercolor="#666666"
     borderopacity="1"
     objecttolerance="10"
     gridtolerance="10"
     guidetolerance="10"
     inkscape:pageopacity="0"
     inkscape:pageshadow="2"
     inkscape:window-width="2635"
     inkscape:window-height="1736"
     id="namedview6"
     showgrid="false"
     inkscape:zoom="55.625733"
     inkscape:cx="14.637608"
     inkscape:cy="15.093926"
     inkscape:window-x="238"
     inkscape:window-y="4"
     inkscape:window-maximized="0"
     inkscape:current-layer="svg4" />
  <path
     id="path2"
     d="M 6.9941425,15.025391 2,15.025391 v 9 h 5 v -1.332032 c 1.243,0.069 2.953571,0.322469 5.726562,1.105469 0.476002,0.135 0.903594,0.199219 1.308594,0.199219 0.903,0 1.670922,-0.318868 2.419922,-1.005859 0.482,-0.441001 3.557547,-3.186797 4.935547,-4.466797 0.408,-0.379296 0.597518,-0.865248 0.609375,-1.355469 0.005,-0.20637 0.02236,-0.399278 -0.01367,-0.619141 -0.0077,-0.04682 0.03202,-0.08915 -0.251721,-0.482157 -0.03504,-0.04854 -0.303091,-0.333476 -0.576404,-0.459249 -0.226,-0.104 -0.628625,-0.146484 -0.890625,-0.146484 -0.427,0 -0.844172,0.149593 -1.201172,0.433593 -0.017,0.013 -1.811547,1.406532 -2.935547,2.269532 -0.099,-0.59 -0.535781,-1.092641 -1.175781,-1.306641 -2.098,-0.706 -3.088734,-1.205078 -4.302734,-1.205078 -0.628,0 -1.244719,0.137969 -1.886719,0.417969 L 6.9763542,16.650391 M 3,16.025391 h 3 v 7 H 3 Z m 17.320312,0.4375 c 0.599251,0.03952 1.008623,0.756328 0.390626,1.330078 -2.207002,2.05 -3.650688,3.29089 -4.929688,4.46289 -1.021,0.935 -1.966203,0.813032 -2.783203,0.582032 C 11.404047,22.386891 9.092,21.807453 7,21.689453 v -3.886719 c 0.732,-0.198 1.5250625,-0.536453 2.1640625,-0.814453 1.3710005,-0.597 2.2829845,-0.29475 3.5839845,0.15625 1.352,0.467 1.328625,0.474063 1.890625,0.664063 0.854,0.285 0.595125,1.433343 -0.421875,1.152344 -0.607,-0.170001 -1.754172,-0.426532 -2.201172,-0.519532 -0.639,-0.135 -0.844531,0.674422 -0.269531,0.857422 0.872,0.276 2.745469,0.744141 3.105468,0.744141 0.453,0 0.767485,-0.234533 1.146485,-0.519531 0.728,-0.544002 3.689453,-2.84375 3.689453,-2.84375 0.211,-0.167502 0.433062,-0.229969 0.632812,-0.216797 z"
     inkscape:connector-curvature="0"
     sodipodi:nodetypes="ccccccsccssssscccscccccccccccccccccccsccc" />
  <path
     inkscape:connector-curvature="0"
     d="M 3.8609422,4.8831901 C 4.6472398,5.751176 5.3298378,6.4985487 6.6625548,6.4985487 H 12.930147 V 13.498435 H 1.5345258 V 4.8831901 Z M 4.3834308,3.8062846 H 0.39496374 V 14.575341 H 14.069709 V 5.421643 H 6.6625548 c -0.928173,0 -1.313344,-0.569683 -2.279124,-1.6153584 z"
     id="path2-1"
     style="stroke-width:0.55389547" />
  <path
     inkscape:connector-curvature="0"
     d="M 23.685239,5.5073918 V 3.8953642 C 22.866245,3.6130568 22.645865,3.599789 22.5311,3.3318549 22.415571,3.0631837 22.562745,2.9010227 22.934877,2.1440258 L 21.755572,1.0041079 C 20.983096,1.3590193 20.806945,1.5068069 20.526321,1.3943999 20.249129,1.2830985 20.233497,1.066761 19.944104,0.27880613 H 18.275997 C 17.984698,1.0689723 17.970972,1.2830985 17.693018,1.3943999 17.406294,1.5097553 17.234336,1.3575452 16.464147,1.0041079 l -1.179303,1.1399179 c 0.372511,0.7573654 0.519305,0.9187893 0.403777,1.1881976 -0.115147,0.2679342 -0.33591,0.2815705 -1.15414,0.5631408 v 1.6123962 c 0.815561,0.2800962 1.038993,0.2948382 1.15414,0.5631408 0.115909,0.2705141 -0.03088,0.4300952 -0.403777,1.1878291 l 1.179303,1.1399179 c 0.762182,-0.3501203 0.941766,-0.5060159 1.228871,-0.3902919 0.277572,0.1113014 0.291298,0.3243219 0.582979,1.1155938 h 1.667725 c 0.289012,-0.7853751 0.304644,-1.0035553 0.58603,-1.1170681 0.284056,-0.1135126 0.4522,0.036486 1.22582,0.3913977 l 1.179305,-1.139918 C 22.563127,6.5028391 22.415571,6.339941 22.5311,6.0705326 22.645484,5.8029671 22.866627,5.7893308 23.685239,5.5073918 Z m -1.858748,0.2815705 c -0.22,0.5137554 -0.02592,0.9058902 0.186065,1.3186635 L 21.599247,7.5071315 C 21.182507,7.3070101 20.775298,7.1105741 20.236928,7.3265431 19.70466,7.5406693 19.554435,7.9504943 19.402685,8.3868547 H 18.817798 C 18.666048,7.9501257 18.516205,7.5403008 17.985461,7.3272802 17.444422,7.1105741 17.029588,7.3106956 16.620854,7.5071315 L 16.207926,7.1076258 C 16.420299,6.6955895 16.614372,6.3041919 16.39361,5.7882252 16.172849,5.2755754 15.748863,5.130736 15.297044,4.984054 V 4.4190705 c 0.451819,-0.1466819 0.875805,-0.2915212 1.096185,-0.8049081 0.22038,-0.5137554 0.02592,-0.9062587 -0.186066,-1.3190321 l 0.413309,-0.3995056 c 0.412548,0.1982786 0.824332,0.3969258 1.364989,0.1798512 0.530744,-0.2126519 0.680587,-0.6228456 0.832337,-1.0595745 h 0.584887 c 0.15175,0.4367289 0.301975,0.846554 0.832718,1.0595745 0.541039,0.216706 0.955492,0.016585 1.364607,-0.1798512 l 0.413309,0.3995056 c -0.211993,0.413142 -0.406065,0.8060138 -0.186065,1.3194007 0.219999,0.5126498 0.643985,0.657489 1.096185,0.8045395 V 4.9844226 C 22.470476,5.1311046 22.045728,5.275944 21.826491,5.7889623 Z M 19.10986,3.595735 c 0.630639,0 1.143845,0.4960652 1.143845,1.105643 0,0.6095779 -0.513206,1.1056432 -1.143845,1.1056432 -0.63064,0 -1.143845,-0.4960653 -1.143845,-1.1056432 0,-0.6095778 0.513205,-1.105643 1.143845,-1.105643 z m 0,-0.7370952 c -1.0531,0 -1.906408,0.8248096 -1.906408,1.8427382 0,1.0179288 0.853308,1.8427384 1.906408,1.8427384 1.0531,0 1.906408,-0.8248096 1.906408,-1.8427384 0,-1.0179286 -0.853308,-1.8427382 -1.906408,-1.8427382 z"
     id="path2-0"
     style="stroke-width:0.37486053" />
</svg>
