<?xml version="1.0" encoding="UTF-8" standalone="no"?>
<svg
   xmlns:dc="http://purl.org/dc/elements/1.1/"
   xmlns:cc="http://creativecommons.org/ns#"
   xmlns:rdf="http://www.w3.org/1999/02/22-rdf-syntax-ns#"
   xmlns:svg="http://www.w3.org/2000/svg"
   xmlns="http://www.w3.org/2000/svg"
   xmlns:sodipodi="http://sodipodi.sourceforge.net/DTD/sodipodi-0.dtd"
   xmlns:inkscape="http://www.inkscape.org/namespaces/inkscape"
   width="24"
   height="24"
   fill-rule="evenodd"
   clip-rule="evenodd"
   version="1.1"
   id="svg4"
   sodipodi:docname="share-about-me-settings.svg"
   inkscape:version="0.92.4 (5da689c313, 2019-01-14)">
  <metadata
     id="metadata10">
    <rdf:RDF>
      <cc:Work
         rdf:about="">
        <dc:format>image/svg+xml</dc:format>
        <dc:type
           rdf:resource="http://purl.org/dc/dcmitype/StillImage" />
        <dc:title />
      </cc:Work>
    </rdf:RDF>
  </metadata>
  <defs
     id="defs8" />
  <sodipodi:namedview
     pagecolor="#ffffff"
     bordercolor="#666666"
     borderopacity="1"
     objecttolerance="10"
     gridtolerance="10"
     guidetolerance="10"
     inkscape:pageopacity="0"
     inkscape:pageshadow="2"
     inkscape:window-width="2635"
     inkscape:window-height="1736"
     id="namedview6"
     showgrid="false"
     inkscape:zoom="55.625733"
     inkscape:cx="4.4495929"
     inkscape:cy="14.659495"
     inkscape:window-x="448"
     inkscape:window-y="88"
     inkscape:window-maximized="0"
     inkscape:current-layer="svg4" />
  <path
     id="path2"
     d="M 6.9941425,15.025391 2,15.025391 v 9 h 5 v -1.332032 c 1.243,0.069 2.953571,0.322469 5.726562,1.105469 0.476002,0.135 0.903594,0.199219 1.308594,0.199219 0.903,0 1.670922,-0.318868 2.419922,-1.005859 0.482,-0.441001 3.557547,-3.186797 4.935547,-4.466797 0.408,-0.379296 0.597518,-0.865248 0.609375,-1.355469 0.005,-0.20637 0.02236,-0.399278 -0.01367,-0.619141 -0.0077,-0.04682 0.03202,-0.08915 -0.251721,-0.482157 -0.03504,-0.04854 -0.303091,-0.333476 -0.576404,-0.459249 -0.226,-0.104 -0.628625,-0.146484 -0.890625,-0.146484 -0.427,0 -0.844172,0.149593 -1.201172,0.433593 -0.017,0.013 -1.811547,1.406532 -2.935547,2.269532 -0.099,-0.59 -0.535781,-1.092641 -1.175781,-1.306641 -2.098,-0.706 -3.088734,-1.205078 -4.302734,-1.205078 -0.628,0 -1.244719,0.137969 -1.886719,0.417969 L 6.9763542,16.650391 M 3,16.025391 h 3 v 7 H 3 Z m 17.320312,0.4375 c 0.599251,0.03952 1.008623,0.756328 0.390626,1.330078 -2.207002,2.05 -3.650688,3.29089 -4.929688,4.46289 -1.021,0.935 -1.966203,0.813032 -2.783203,0.582032 C 11.404047,22.386891 9.092,21.807453 7,21.689453 v -3.886719 c 0.732,-0.198 1.5250625,-0.536453 2.1640625,-0.814453 1.3710005,-0.597 2.2829845,-0.29475 3.5839845,0.15625 1.352,0.467 1.328625,0.474063 1.890625,0.664063 0.854,0.285 0.595125,1.433343 -0.421875,1.152344 -0.607,-0.170001 -1.754172,-0.426532 -2.201172,-0.519532 -0.639,-0.135 -0.844531,0.674422 -0.269531,0.857422 0.872,0.276 2.745469,0.744141 3.105468,0.744141 0.453,0 0.767485,-0.234533 1.146485,-0.519531 0.728,-0.544002 3.689453,-2.84375 3.689453,-2.84375 0.211,-0.167502 0.433062,-0.229969 0.632812,-0.216797 z"
     inkscape:connector-curvature="0"
     sodipodi:nodetypes="ccccccsccssssscccscccccccccccccccccccsccc" />
  <path
     inkscape:connector-curvature="0"
     style="clip-rule:evenodd;fill-rule:evenodd;stroke-width:0.30199596"
     d="M 10.982022,14.497058 H 4.4065388 c -0.6602389,0 -1.195543,-0.546503 -1.195543,-1.220554 V 4.1223447 c 0,-0.6740516 0.5353041,-1.2205543 1.195543,-1.2205543 h 2.0922 V 1.681236 c 0,-0.6740516 0.535303,-1.22055482 1.195541,-1.22055482 0.660239,0 1.195543,0.54650322 1.195543,1.22055482 v 1.2205544 h 2.0921992 c 0.660239,0 1.195544,0.5465027 1.195544,1.2205543 v 9.1541593 c 0,0.674051 -0.535305,1.220554 -1.195544,1.220554 z M 8.2920518,1.681236 c 0,-0.3368732 -0.267802,-0.6102776 -0.597772,-0.6102776 -0.329969,0 -0.597771,0.2734044 -0.597771,0.6102776 v 1.8308316 c 0,0.3368731 0.267802,0.6102771 0.597771,0.6102771 0.32997,0 0.597772,-0.273404 0.597772,-0.6102771 z m 3.2877432,2.4411087 c 0,-0.3368731 -0.267802,-0.6102771 -0.597773,-0.6102771 H 8.8898228 c 0,0.6740508 -0.535304,1.2205543 -1.195543,1.2205543 -0.660238,0 -1.195541,-0.5465035 -1.195541,-1.2205543 h -2.0922 c -0.3299703,0 -0.5977718,0.273404 -0.5977718,0.6102771 v 7.3233273 h 1.1348698 c 0.06904,-0.179728 0.196068,-0.47266 0.346707,-0.683511 0.0075,-0.0043 0.253454,-0.530636 1.49383,-0.546198 0.0018,-0.0064 0.003,-0.3179539 0.0066,-0.3133779 -0.09564,-0.06163 -0.220279,-0.157451 -0.314128,-0.248993 -0.07621,-0.0476 -0.347007,-0.313988 -0.433982,-0.788173 -0.026,-0.165385 -0.145856,-0.9456248 -0.145856,-1.2712071 0,-0.9675944 0.37809,-1.9470895 1.779266,-1.9470895 0.0062,0 0.02989,0 0.03616,0 1.401176,0 1.7792652,0.9794951 1.7792652,1.9470895 0,0.3255823 -0.119852,1.1058221 -0.145855,1.2712071 -0.08698,0.474185 -0.3574672,0.740572 -0.4339832,0.788173 -0.09355,0.09185 -0.218186,0.187355 -0.314128,0.248993 0.0038,-0.0046 0.0054,0.3072749 0.0066,0.3133779 1.2406742,0.01556 1.4866572,0.541926 1.4938302,0.546198 0.150638,0.210851 0.277665,0.503783 0.346708,0.683511 h 1.135167 z M 7.9973498,9.7637471 c -2.99e-4,9.17e-4 -2.99e-4,0.0012 -2.99e-4,0.0012 -9.82e-4,0 -0.0052,-0.238315 -0.0052,-0.238315 0,0 0.348501,-0.183387 0.607036,-0.42048 0.151535,-0.127243 0.221475,-0.415598 0.221475,-0.415598 0.04095,-0.252656 0.07113,-0.8778845 0.07113,-1.1299289 0,-0.6291961 -0.30875,-1.3059935 -1.197635,-1.3059935 0,0 0,-0.0018 0,-0.00211 0,0 0,0.00211 0,0.00211 -0.888886,0 -1.197635,0.6771026 -1.197635,1.3059935 0,0.2520444 0.03079,0.8772729 0.07113,1.1299289 0,0 0.06995,0.288355 0.221474,0.415598 0.258536,0.237093 0.607036,0.42048 0.607036,0.42048 0,0 -0.0042,0.238315 -0.0054,0.238315 0,0 0,-3.05e-4 0,-0.0012 0,0 0.0087,0.3496899 0.0087,0.4534359 0,0.415904 -0.40798,0.616075 -0.664423,0.616075 -5.96e-4,0 -5.96e-4,0 -9.82e-4,0 -0.77501,0.03478 -0.957929,0.297816 -0.959423,0.300256 -0.04723,0.07721 -0.11268,0.154096 -0.173055,0.312158 H 9.787174 C 9.726504,11.28761 9.661045,11.210715 9.613222,11.13382 c -0.0018,-0.0028 -0.185011,-0.265471 -0.9597212,-0.300256 -2.99e-4,0 -2.99e-4,0 -5.97e-4,0 -0.256444,0 -0.664721,-0.199866 -0.664721,-0.616075 0,-0.104052 0.009,-0.4537419 0.009,-0.4537419 z M 11.579795,12.055949 H 3.808767 v 1.220555 c 0,0.336872 0.2678015,0.610276 0.5977718,0.610276 h 6.5754832 c 0.329971,0 0.597773,-0.273404 0.597773,-0.610276 z M 9.78648,13.276504 H 8.8898228 c -0.165284,0 -0.298885,-0.136398 -0.298885,-0.30514 0,-0.168741 0.133601,-0.305138 0.298885,-0.305138 H 9.78648 c 0.165284,0 0.298886,0.136397 0.298886,0.305138 0,0.168742 -0.133602,0.30514 -0.298886,0.30514 z m -2.3910852,0 h -1.793314 c -0.165284,0 -0.298886,-0.136398 -0.298886,-0.30514 0,-0.168741 0.133602,-0.305138 0.298886,-0.305138 h 1.793314 c 0.165283,0 0.298885,0.136397 0.298885,0.305138 0,0.168742 -0.133602,0.30514 -0.298885,0.30514 z m 0,-11.595268 h 0.597772 v 0.6102772 h -0.597772 z"
     id="path2-5" />
  <path
     inkscape:connector-curvature="0"
     d="M 23.81108,6.1450011 V 4.3363921 C 22.887505,4.0196581 22.638982,4.0047724 22.509561,3.7041645 22.37928,3.4027297 22.545251,3.2207937 22.964899,2.3714834 L 21.635002,1.0925561 C 20.763883,1.4907479 20.565236,1.6565577 20.248779,1.530443 19.93619,1.4055687 19.918562,1.1628496 19.592214,0.2788061 H 17.711095 C 17.382598,1.1653305 17.367119,1.4055687 17.053671,1.530443 16.730333,1.6598656 16.536417,1.4890939 15.667877,1.0925561 L 14.33798,2.3714834 c 0.420081,0.8497238 0.585619,1.0308328 0.455338,1.3330946 -0.129851,0.3006079 -0.378803,0.315907 -1.301519,0.6318141 v 1.8090225 c 0.919706,0.3142531 1.171668,0.3307927 1.301519,0.6318141 0.130711,0.3035023 -0.03483,0.4825438 -0.455338,1.3326811 l 1.329897,1.2789273 c 0.85951,-0.3928164 1.062026,-0.567723 1.385794,-0.4378869 0.313018,0.1248743 0.328497,0.363872 0.657424,1.2516368 h 1.880689 c 0.325918,-0.881149 0.343546,-1.1259356 0.660864,-1.2532907 0.320328,-0.1273552 0.509945,0.040936 1.382354,0.4391273 L 22.964899,8.1094963 C 22.545679,7.26184 22.37928,7.079077 22.509561,6.7768152 22.638552,6.4766208 22.887935,6.4613217 23.81108,6.1450011 Z m -2.096104,0.3159071 c -0.248092,0.5764062 -0.02924,1.0163605 0.209826,1.4794703 L 21.458714,8.3886026 C 20.988757,8.1640771 20.529549,7.9436865 19.922431,8.1859921 19.322193,8.4262303 19.152785,8.8860322 18.981657,9.3756054 H 18.322083 C 18.150955,8.8856187 17.981976,8.4258168 17.383458,8.1868191 16.77333,7.9436865 16.305523,8.168212 15.844595,8.3886026 L 15.378938,7.9403785 C 15.618431,7.4780957 15.837285,7.0389684 15.588333,6.4600812 15.33938,5.8849154 14.861254,5.7224135 14.351739,5.5578441 V 4.9239626 c 0.509515,-0.1645694 0.987641,-0.3270713 1.236164,-0.9030641 0.248523,-0.5764062 0.02924,-1.016774 -0.209825,-1.4798838 l 0.466087,-0.4482241 c 0.465228,0.2224581 0.929595,0.4453296 1.539293,0.2017835 0.598518,-0.2385842 0.767497,-0.6987996 0.938625,-1.1887863 h 0.659574 c 0.171128,0.4899867 0.340536,0.9497886 0.939054,1.1887863 0.610128,0.2431326 1.077505,0.018607 1.538863,-0.2017835 l 0.466088,0.4482241 c -0.239064,0.4635232 -0.457918,0.9043045 -0.209826,1.4802973 0.248093,0.5751658 0.72622,0.7376677 1.236164,0.9026506 v 0.634295 C 22.441196,5.722827 21.962209,5.8853289 21.714976,6.4609082 Z M 18.65144,4.000224 c 0.71117,0 1.28991,0.5565587 1.28991,1.2404726 0,0.6839139 -0.57874,1.2404726 -1.28991,1.2404726 -0.711171,0 -1.289911,-0.5565587 -1.289911,-1.2404726 0,-0.6839139 0.57874,-1.2404726 1.289911,-1.2404726 z m 0,-0.8269818 c -1.187578,0 -2.149851,0.9253926 -2.149851,2.0674544 0,1.1420618 0.962273,2.0674544 2.149851,2.0674544 1.187577,0 2.14985,-0.9253926 2.14985,-2.0674544 0,-1.1420618 -0.962273,-2.0674544 -2.14985,-2.0674544 z"
     id="path2-6"
     style="stroke-width:0.42164996" />
</svg>
