<?xml version="1.0" encoding="UTF-8" standalone="no"?>
<svg
   xmlns:dc="http://purl.org/dc/elements/1.1/"
   xmlns:cc="http://creativecommons.org/ns#"
   xmlns:rdf="http://www.w3.org/1999/02/22-rdf-syntax-ns#"
   xmlns:svg="http://www.w3.org/2000/svg"
   xmlns="http://www.w3.org/2000/svg"
   xmlns:sodipodi="http://sodipodi.sourceforge.net/DTD/sodipodi-0.dtd"
   xmlns:inkscape="http://www.inkscape.org/namespaces/inkscape"
   width="24"
   height="24"
   fill-rule="evenodd"
   clip-rule="evenodd"
   version="1.1"
   id="svg4"
   sodipodi:docname="share-avatar.svg"
   inkscape:version="0.92.4 (5da689c313, 2019-01-14)">
  <metadata
     id="metadata10">
    <rdf:RDF>
      <cc:Work
         rdf:about="">
        <dc:format>image/svg+xml</dc:format>
        <dc:type
           rdf:resource="http://purl.org/dc/dcmitype/StillImage" />
        <dc:title></dc:title>
      </cc:Work>
    </rdf:RDF>
  </metadata>
  <defs
     id="defs8" />
  <sodipodi:namedview
     pagecolor="#ffffff"
     bordercolor="#666666"
     borderopacity="1"
     objecttolerance="10"
     gridtolerance="10"
     guidetolerance="10"
     inkscape:pageopacity="0"
     inkscape:pageshadow="2"
     inkscape:window-width="2635"
     inkscape:window-height="1736"
     id="namedview6"
     showgrid="false"
     inkscape:zoom="27.812866"
     inkscape:cx="4.9322385"
     inkscape:cy="12.367168"
     inkscape:window-x="1104"
     inkscape:window-y="178"
     inkscape:window-maximized="0"
     inkscape:current-layer="svg4" />
  <path
     id="path2"
     d="M 6.9941425,15.025391 2,15.025391 v 9 h 5 v -1.332032 c 1.243,0.069 2.953571,0.322469 5.726562,1.105469 0.476002,0.135 0.903594,0.199219 1.308594,0.199219 0.903,0 1.670922,-0.318868 2.419922,-1.005859 0.482,-0.441001 3.557547,-3.186797 4.935547,-4.466797 0.408,-0.379296 0.597518,-0.865248 0.609375,-1.355469 0.005,-0.20637 0.02236,-0.399278 -0.01367,-0.619141 -0.0077,-0.04682 0.03202,-0.08915 -0.251721,-0.482157 -0.03504,-0.04854 -0.303091,-0.333476 -0.576404,-0.459249 -0.226,-0.104 -0.628625,-0.146484 -0.890625,-0.146484 -0.427,0 -0.844172,0.149593 -1.201172,0.433593 -0.017,0.013 -1.811547,1.406532 -2.935547,2.269532 -0.099,-0.59 -0.535781,-1.092641 -1.175781,-1.306641 -2.098,-0.706 -3.088734,-1.205078 -4.302734,-1.205078 -0.628,0 -1.244719,0.137969 -1.886719,0.417969 L 6.9763542,16.650391 M 3,16.025391 h 3 v 7 H 3 Z m 17.320312,0.4375 c 0.599251,0.03952 1.008623,0.756328 0.390626,1.330078 -2.207002,2.05 -3.650688,3.29089 -4.929688,4.46289 -1.021,0.935 -1.966203,0.813032 -2.783203,0.582032 C 11.404047,22.386891 9.092,21.807453 7,21.689453 v -3.886719 c 0.732,-0.198 1.5250625,-0.536453 2.1640625,-0.814453 1.3710005,-0.597 2.2829845,-0.29475 3.5839845,0.15625 1.352,0.467 1.328625,0.474063 1.890625,0.664063 0.854,0.285 0.595125,1.433343 -0.421875,1.152344 -0.607,-0.170001 -1.754172,-0.426532 -2.201172,-0.519532 -0.639,-0.135 -0.844531,0.674422 -0.269531,0.857422 0.872,0.276 2.745469,0.744141 3.105468,0.744141 0.453,0 0.767485,-0.234533 1.146485,-0.519531 0.728,-0.544002 3.689453,-2.84375 3.689453,-2.84375 0.211,-0.167502 0.433062,-0.229969 0.632812,-0.216797 z"
     inkscape:connector-curvature="0"
     sodipodi:nodetypes="ccccccsccssssscccscccccccccccccccccccsccc" />
  <path
     inkscape:connector-curvature="0"
     d="m 14.255992,0.85407934 c 4.331025,0 7.847246,3.35511356 7.847246,7.48769986 0,4.1325868 -3.516221,7.4876998 -7.847246,7.4876998 -4.3310255,0 -7.8472456,-3.355113 -7.8472456,-7.4876998 0,-4.1325863 3.5162201,-7.48769986 7.8472456,-7.48769986 z M 19.570539,12.965433 C 19.386128,12.71522 19.065699,12.557354 18.508545,12.435055 15.992195,11.869734 15.829365,11.498469 15.66261,11.15029 15.493241,10.797744 15.538362,10.382801 15.796668,9.9166923 16.925363,7.8844055 17.163397,6.1578667 16.468261,5.055927 16.027508,4.3576989 15.242129,3.9739543 14.255992,3.9739543 c -0.994638,0 -1.786557,0.3906084 -2.229272,1.100068 -0.697097,1.1162912 -0.453178,2.8353422 0.685981,4.8401738 0.262882,0.4629889 0.311273,0.8773089 0.143865,1.2317259 -0.173293,0.36565 -0.399555,0.742531 -2.854435,1.289133 -0.5571545,0.122299 -0.8775837,0.280165 -1.0613401,0.529131 1.3157211,1.377113 3.2108311,2.241318 5.3152011,2.241318 2.104369,0 3.998826,-0.864205 5.314547,-2.240071 z m 0.425059,-0.487947 C 20.90784,11.326875 21.4493,9.8942291 21.4493,8.3417792 c 0,-3.7881521 -3.223256,-6.8637249 -7.193308,-6.8637249 -3.970052,0 -7.1933085,3.0755728 -7.1933085,6.8637249 0,1.5518254 0.540806,2.9844728 1.4530483,4.1344578 0.2674602,-0.282036 0.6859801,-0.505419 1.3399171,-0.649557 1.3242231,-0.288277 2.2076921,-0.521643 2.4051811,-0.937211 0.07978,-0.169721 0.03989,-0.391856 -0.12294,-0.678261 -1.253598,-2.2057513 -1.492285,-4.1438176 -0.673556,-5.456661 0.557809,-0.8929082 1.574681,-1.4045677 2.791658,-1.4045677 1.206514,0 2.2175,0.5041718 2.772694,1.3839765 0.818075,1.2972441 0.585927,3.2415501 -0.653938,5.4747572 -0.160215,0.2889 -0.198797,0.512283 -0.117055,0.682628 0.199451,0.416815 1.075074,0.647686 2.397988,0.935339 0.653937,0.143513 1.072457,0.368145 1.339917,0.650806 z"
     id="path2-6"
     style="stroke-width:0.63878042" />
</svg>
