<?xml version="1.0" encoding="UTF-8" standalone="no"?>
<svg
   xmlns:dc="http://purl.org/dc/elements/1.1/"
   xmlns:cc="http://creativecommons.org/ns#"
   xmlns:rdf="http://www.w3.org/1999/02/22-rdf-syntax-ns#"
   xmlns:svg="http://www.w3.org/2000/svg"
   xmlns="http://www.w3.org/2000/svg"
   xmlns:sodipodi="http://sodipodi.sourceforge.net/DTD/sodipodi-0.dtd"
   xmlns:inkscape="http://www.inkscape.org/namespaces/inkscape"
   width="24"
   height="24"
   fill-rule="evenodd"
   clip-rule="evenodd"
   version="1.1"
   id="svg4"
   sodipodi:docname="share-webcam-settings.svg"
   inkscape:version="0.92.4 (5da689c313, 2019-01-14)">
  <metadata
     id="metadata10">
    <rdf:RDF>
      <cc:Work
         rdf:about="">
        <dc:format>image/svg+xml</dc:format>
        <dc:type
           rdf:resource="http://purl.org/dc/dcmitype/StillImage" />
        <dc:title />
      </cc:Work>
    </rdf:RDF>
  </metadata>
  <defs
     id="defs8" />
  <sodipodi:namedview
     pagecolor="#ffffff"
     bordercolor="#666666"
     borderopacity="1"
     objecttolerance="10"
     gridtolerance="10"
     guidetolerance="10"
     inkscape:pageopacity="0"
     inkscape:pageshadow="2"
     inkscape:window-width="2635"
     inkscape:window-height="1736"
     id="namedview6"
     showgrid="false"
     inkscape:zoom="55.625733"
     inkscape:cx="10.66567"
     inkscape:cy="13.303674"
     inkscape:window-x="386"
     inkscape:window-y="42"
     inkscape:window-maximized="0"
     inkscape:current-layer="svg4" />
  <path
     id="path2"
     d="M 6.9941425,15.025391 2,15.025391 v 9 h 5 v -1.332032 c 1.243,0.069 2.953571,0.322469 5.726562,1.105469 0.476002,0.135 0.903594,0.199219 1.308594,0.199219 0.903,0 1.670922,-0.318868 2.419922,-1.005859 0.482,-0.441001 3.557547,-3.186797 4.935547,-4.466797 0.408,-0.379296 0.597518,-0.865248 0.609375,-1.355469 0.005,-0.20637 0.02236,-0.399278 -0.01367,-0.619141 -0.0077,-0.04682 0.03202,-0.08915 -0.251721,-0.482157 -0.03504,-0.04854 -0.303091,-0.333476 -0.576404,-0.459249 -0.226,-0.104 -0.628625,-0.146484 -0.890625,-0.146484 -0.427,0 -0.844172,0.149593 -1.201172,0.433593 -0.017,0.013 -1.811547,1.406532 -2.935547,2.269532 -0.099,-0.59 -0.535781,-1.092641 -1.175781,-1.306641 -2.098,-0.706 -3.088734,-1.205078 -4.302734,-1.205078 -0.628,0 -1.244719,0.137969 -1.886719,0.417969 L 6.9763542,16.650391 M 3,16.025391 h 3 v 7 H 3 Z m 17.320312,0.4375 c 0.599251,0.03952 1.008623,0.756328 0.390626,1.330078 -2.207002,2.05 -3.650688,3.29089 -4.929688,4.46289 -1.021,0.935 -1.966203,0.813032 -2.783203,0.582032 C 11.404047,22.386891 9.092,21.807453 7,21.689453 v -3.886719 c 0.732,-0.198 1.5250625,-0.536453 2.1640625,-0.814453 1.3710005,-0.597 2.2829845,-0.29475 3.5839845,0.15625 1.352,0.467 1.328625,0.474063 1.890625,0.664063 0.854,0.285 0.595125,1.433343 -0.421875,1.152344 -0.607,-0.170001 -1.754172,-0.426532 -2.201172,-0.519532 -0.639,-0.135 -0.844531,0.674422 -0.269531,0.857422 0.872,0.276 2.745469,0.744141 3.105468,0.744141 0.453,0 0.767485,-0.234533 1.146485,-0.519531 0.728,-0.544002 3.689453,-2.84375 3.689453,-2.84375 0.211,-0.167502 0.433062,-0.229969 0.632812,-0.216797 z"
     inkscape:connector-curvature="0"
     sodipodi:nodetypes="ccccccsccssssscccscccccccccccccccccccsccc" />
  <path
     inkscape:connector-curvature="0"
     d="m 6.3459386,1.447736 c -2.8361843,0 -5.1349143,2.2036327 -5.1349143,4.9212642 0,2.7181783 2.29873,4.9212638 5.1349143,4.9212638 2.836186,0 5.1349164,-2.2036324 5.1349164,-4.9212638 0,-2.7176315 -2.2987304,-4.9212642 -5.1349164,-4.9212642 z m 0,7.1084928 c -1.260336,0 -2.282184,-0.9793316 -2.282184,-2.1872286 0,-1.207897 1.021848,-2.1872285 2.282184,-2.1872285 1.260337,0 2.282184,0.9793315 2.282184,2.1872285 0,1.207897 -1.021847,2.1872286 -2.282184,2.1872286 z m 1.141093,-2.1872286 c 0,0.6031283 -0.51121,1.0936143 -1.141093,1.0936143 -0.629312,0 -1.141092,-0.490486 -1.141092,-1.0936143 0,-0.6031282 0.51178,-1.0936143 1.141092,-1.0936143 0.629883,0 1.141093,0.4904861 1.141093,1.0936143 z m 3.7633214,6.8356358 c 0.5734,0.623361 -0.0058,1.46435 -0.82615,1.35663 -1.0241314,-0.133969 -1.8462884,-0.930667 -4.0776934,-0.930667 -2.231406,0 -3.0535627,0.797245 -4.0776929,0.930667 -0.8210158,0.10772 -1.40012012,-0.733816 -0.8261507,-1.35663 l 1.5941057,-1.733925 c 0.9625109,0.575241 2.0939039,0.913169 3.3091669,0.913169 1.215263,0 2.346657,-0.338475 3.309167,-0.913716 z"
     id="path2-6"
     style="stroke-width:0.55855048" />
  <path
     inkscape:connector-curvature="0"
     d="M 23.685239,6.4466263 V 4.5561082 C 22.739138,4.2250297 22.484553,4.20947 22.351976,3.895248 22.218517,3.5801617 22.38853,3.3899861 22.81842,2.502212 L 21.456086,1.1653641 C 20.563722,1.5815893 20.36023,1.7549084 20.036054,1.6230822 19.715842,1.4925525 19.697783,1.2388411 19.363476,0.31476074 H 17.436478 C 17.099969,1.2414344 17.084113,1.4925525 16.763019,1.6230822 16.431796,1.7583662 16.23315,1.5798605 15.343428,1.1653641 L 13.981095,2.502212 c 0.430325,0.8882064 0.599902,1.0775175 0.466442,1.3934683 -0.133018,0.3142218 -0.388041,0.330214 -1.333262,0.6604279 v 1.8909502 c 0.942138,0.3284851 1.200244,0.3457739 1.333262,0.660428 0.1339,0.3172472 -0.03568,0.5043978 -0.466442,1.393036 l 1.362333,1.336848 c 0.880472,-0.4106065 1.087928,-0.5934348 1.419591,-0.457718 0.320653,0.1305291 0.33651,0.3803512 0.673459,1.3083216 h 1.926559 c 0.333866,-0.9210551 0.351924,-1.176927 0.676981,-1.3100508 0.328141,-0.1331221 0.522382,0.04279 1.416068,0.4590149 L 22.81842,8.5000901 C 22.388975,7.6140449 22.218517,7.4230049 22.351976,7.1070542 22.484113,6.7932644 22.739578,6.7772725 23.685239,6.4466263 Z M 21.538012,6.7768402 C 21.283869,7.3793509 21.508058,7.83923 21.752955,8.3233134 L 21.275499,8.7918378 C 20.79408,8.5571423 20.323673,8.326771 19.701748,8.5800499 19.08687,8.8311684 18.91333,9.311794 18.738028,9.8235397 H 18.062367 C 17.887066,9.3113626 17.713966,8.8307369 17.10085,8.5809146 16.475842,8.326771 15.996625,8.5614646 15.524455,8.7918378 L 15.047441,8.3233134 C 15.292775,7.8400947 15.516967,7.3810797 15.261942,6.7759758 15.006918,6.1747616 14.517131,6.0049002 13.995189,5.8328778 V 5.1702889 C 14.517131,4.9982664 15.006918,4.828405 15.261503,4.2263264 15.516086,3.6238156 15.291457,3.1635043 15.046559,2.6794211 l 0.477456,-0.4685235 c 0.476574,0.2325328 0.952267,0.4654979 1.576835,0.210922 0.613116,-0.2493893 0.786216,-0.7304471 0.961517,-1.2426246 h 0.675661 c 0.175302,0.5121775 0.348842,0.9928029 0.961958,1.2426246 0.625008,0.2541437 1.103785,0.01945 1.576395,-0.210922 l 0.477455,0.4685235 c -0.244894,0.4845154 -0.469087,0.945259 -0.214943,1.5473376 0.254143,0.6012142 0.743931,0.7710755 1.266313,0.9435302 V 5.8333101 C 22.281943,6.0053326 21.791274,6.1751938 21.538012,6.7768402 Z M 18.399757,4.2047155 c 0.728516,0 1.321371,0.5817645 1.321371,1.2966518 0,0.7148872 -0.592855,1.2966516 -1.321371,1.2966516 -0.728515,0 -1.32137,-0.5817644 -1.32137,-1.2966516 0,-0.7148873 0.592855,-1.2966518 1.32137,-1.2966518 z m 0,-0.8644344 c -1.216542,0 -2.202284,0.9673022 -2.202284,2.1610862 0,1.1937839 0.985742,2.161086 2.202284,2.161086 1.216542,0 2.202284,-0.9673021 2.202284,-2.161086 0,-1.193784 -0.985742,-2.1610862 -2.202284,-2.1610862 z"
     id="path2-7"
     style="stroke-width:0.43631756" />
</svg>
