<?xml version="1.0" encoding="UTF-8" standalone="no"?>
<svg
   xmlns:dc="http://purl.org/dc/elements/1.1/"
   xmlns:cc="http://creativecommons.org/ns#"
   xmlns:rdf="http://www.w3.org/1999/02/22-rdf-syntax-ns#"
   xmlns:svg="http://www.w3.org/2000/svg"
   xmlns="http://www.w3.org/2000/svg"
   xmlns:sodipodi="http://sodipodi.sourceforge.net/DTD/sodipodi-0.dtd"
   xmlns:inkscape="http://www.inkscape.org/namespaces/inkscape"
   width="24"
   height="24"
   fill-rule="evenodd"
   clip-rule="evenodd"
   version="1.1"
   id="svg4"
   sodipodi:docname="share-storyboard.svg"
   inkscape:version="0.92.4 (5da689c313, 2019-01-14)">
  <metadata
     id="metadata10">
    <rdf:RDF>
      <cc:Work
         rdf:about="">
        <dc:format>image/svg+xml</dc:format>
        <dc:type
           rdf:resource="http://purl.org/dc/dcmitype/StillImage" />
        <dc:title></dc:title>
      </cc:Work>
    </rdf:RDF>
  </metadata>
  <defs
     id="defs8" />
  <sodipodi:namedview
     pagecolor="#ffffff"
     bordercolor="#666666"
     borderopacity="1"
     objecttolerance="10"
     gridtolerance="10"
     guidetolerance="10"
     inkscape:pageopacity="0"
     inkscape:pageshadow="2"
     inkscape:window-width="2635"
     inkscape:window-height="1736"
     id="namedview6"
     showgrid="false"
     inkscape:zoom="55.625733"
     inkscape:cx="9.5117286"
     inkscape:cy="14.659495"
     inkscape:window-x="1104"
     inkscape:window-y="178"
     inkscape:window-maximized="0"
     inkscape:current-layer="svg4" />
  <path
     id="path2"
     d="M 6.9941425,15.025391 2,15.025391 v 9 h 5 v -1.332032 c 1.243,0.069 2.953571,0.322469 5.726562,1.105469 0.476002,0.135 0.903594,0.199219 1.308594,0.199219 0.903,0 1.670922,-0.318868 2.419922,-1.005859 0.482,-0.441001 3.557547,-3.186797 4.935547,-4.466797 0.408,-0.379296 0.597518,-0.865248 0.609375,-1.355469 0.005,-0.20637 0.02236,-0.399278 -0.01367,-0.619141 -0.0077,-0.04682 0.03202,-0.08915 -0.251721,-0.482157 -0.03504,-0.04854 -0.303091,-0.333476 -0.576404,-0.459249 -0.226,-0.104 -0.628625,-0.146484 -0.890625,-0.146484 -0.427,0 -0.844172,0.149593 -1.201172,0.433593 -0.017,0.013 -1.811547,1.406532 -2.935547,2.269532 -0.099,-0.59 -0.535781,-1.092641 -1.175781,-1.306641 -2.098,-0.706 -3.088734,-1.205078 -4.302734,-1.205078 -0.628,0 -1.244719,0.137969 -1.886719,0.417969 L 6.9763542,16.650391 M 3,16.025391 h 3 v 7 H 3 Z m 17.320312,0.4375 c 0.599251,0.03952 1.008623,0.756328 0.390626,1.330078 -2.207002,2.05 -3.650688,3.29089 -4.929688,4.46289 -1.021,0.935 -1.966203,0.813032 -2.783203,0.582032 C 11.404047,22.386891 9.092,21.807453 7,21.689453 v -3.886719 c 0.732,-0.198 1.5250625,-0.536453 2.1640625,-0.814453 1.3710005,-0.597 2.2829845,-0.29475 3.5839845,0.15625 1.352,0.467 1.328625,0.474063 1.890625,0.664063 0.854,0.285 0.595125,1.433343 -0.421875,1.152344 -0.607,-0.170001 -1.754172,-0.426532 -2.201172,-0.519532 -0.639,-0.135 -0.844531,0.674422 -0.269531,0.857422 0.872,0.276 2.745469,0.744141 3.105468,0.744141 0.453,0 0.767485,-0.234533 1.146485,-0.519531 0.728,-0.544002 3.689453,-2.84375 3.689453,-2.84375 0.211,-0.167502 0.433062,-0.229969 0.632812,-0.216797 z"
     inkscape:connector-curvature="0"
     sodipodi:nodetypes="ccccccsccssssscccscccccccccccccccccccsccc" />
  <path
     inkscape:connector-curvature="0"
     d="m 21.98325,5.8288696 c -0.601237,0.997882 -1.539142,2.0148149 -2.709869,1.9734281 -0.273169,0.4637949 -0.563536,1.1016774 -0.885651,1.8413844 l -0.867794,0.3632839 c 0.619097,-1.5391948 1.475645,-3.2590464 2.44596,-4.5945921 -0.443156,0.3475178 -1.154853,1.0753999 -1.76072,1.8282457 -0.726248,-1.2008744 -0.198429,-2.4247412 0.643568,-3.402258 0.01389,0.4210942 0.237453,0.7856922 0.397519,0.9689766 -0.05754,-0.3481747 -0.0754,-0.9781737 0.128978,-1.5444503 0.474905,-0.4808753 0.902188,-0.8349623 1.397596,-1.1562028 -0.05489,0.3140141 0.05292,0.6740137 0.173295,0.8940863 0.01587,-0.3218973 0.14816,-0.9394147 0.344603,-1.2087574 0.611159,-0.4775905 1.54245,-0.90196955 2.574277,-0.98211539 -0.05357,0.63919619 -0.288382,1.69160349 -0.677302,2.36758789 -0.340635,0.2654011 -0.807603,0.4467148 -1.184617,0.5472256 0.326084,0.058467 0.681932,0.050584 0.988173,-6.57e-4 -0.177924,0.4881015 -0.365108,0.9381009 -0.660105,1.4951803 -0.44911,0.3074449 -1.043733,0.4808753 -1.457125,0.5419701 0.304257,0.1228465 0.841336,0.1609487 1.109214,0.067664 z m -9.15482,2.4996317 0.426621,0.5130649 3.156994,-1.833501 -0.441834,-0.504525 z m 4.603536,-0.1563502 -0.441833,-0.5038679 -3.17816,1.8446692 0.426621,0.5130646 z m 3.09482,0.00459 C 20.248325,8.3100987 19.963911,8.4007554 19.67619,8.4382006 19.59682,8.5899522 19.513479,8.7627257 19.426832,8.9460103 l 0.197105,0.2246712 c 0.41207,0.4545979 0.303596,1.1194145 -0.248696,1.4708735 -0.511283,0.326496 -3.532686,2.217807 -4.223877,2.650726 -0.04895,-0.473645 -0.236791,-0.913791 -0.54634,-1.279703 C 14.294815,11.646672 10.560395,7.1670431 9.629104,5.9832489 9.318895,5.589089 9.248783,5.1653669 9.4339826,4.7902579 9.6112451,4.4296015 9.9909047,4.1871931 10.379825,4.1871931 c 0.607852,0 0.93129,0.4302914 1.024551,0.7981741 0.105829,0.4210943 -0.02315,0.8086849 -0.412069,1.1069327 l 0.879037,1.06686 5.15649,-2.9207259 C 17.968384,3.547997 18.232955,2.2735462 17.642962,1.2736936 17.234199,0.58194269 16.47951,0.1529652 15.673231,0.1529652 c -0.785777,0 -0.524513,-0.0105113 -6.3265561,2.9397769 -0.8162018,0.3882476 -1.3559272,1.17394 -1.3559272,2.1035007 0,0.571532 0.2037198,1.153575 0.5880096,1.6337935 0.9438565,1.1785384 5.0010547,6.0339327 5.0374327,6.0812327 0.24539,0.323868 0.28243,0.735109 0.09922,1.099049 -0.183216,0.364598 -0.53708,0.582044 -0.945181,0.582044 -0.607851,0 -0.93129,-0.430293 -1.024551,-0.798832 -0.103183,-0.41321 0.0079,-0.793575 0.399502,-1.086567 L 11.300532,11.692 c -0.543693,0.43686 -0.844643,0.982772 -0.910786,1.604232 -0.153451,1.448537 1.008677,2.623135 2.389738,2.623135 0.394211,0 0.867132,-0.116278 1.217688,-0.335036 l 6.235279,-3.906127 c 0.632987,-0.436204 0.98685,-1.169997 0.98685,-1.9031352 0,-0.4894154 -0.158742,-0.9551814 -0.455062,-1.3158378 z m -5.247105,-6.610059 c 0.124348,-0.057153 0.263248,-0.088029 0.402809,-0.088029 0.35188,0 0.659444,0.1845982 0.822155,0.4940138 0.206365,0.3915324 0.149483,0.9650352 -0.362463,1.2560567 L 12.770886,5.1259509 C 12.737153,4.4105505 12.387919,3.7588726 11.808509,3.331209 Z m 1.387014,8.7917399 0.238775,-0.5945249 0.164696,-0.4000724 -2.281265,1.3250343 0.426621,0.513065 z"
     id="path2-5"
     style="stroke-width:0.65917671" />
</svg>
