<?xml version="1.0" encoding="UTF-8" standalone="no"?>
<svg
   xmlns:dc="http://purl.org/dc/elements/1.1/"
   xmlns:cc="http://creativecommons.org/ns#"
   xmlns:rdf="http://www.w3.org/1999/02/22-rdf-syntax-ns#"
   xmlns:svg="http://www.w3.org/2000/svg"
   xmlns="http://www.w3.org/2000/svg"
   xmlns:sodipodi="http://sodipodi.sourceforge.net/DTD/sodipodi-0.dtd"
   xmlns:inkscape="http://www.inkscape.org/namespaces/inkscape"
   width="24"
   height="24"
   fill-rule="evenodd"
   clip-rule="evenodd"
   version="1.1"
   id="svg4"
   sodipodi:docname="share-storyboard-settings.svg"
   inkscape:version="0.92.4 (5da689c313, 2019-01-14)">
  <metadata
     id="metadata10">
    <rdf:RDF>
      <cc:Work
         rdf:about="">
        <dc:format>image/svg+xml</dc:format>
        <dc:type
           rdf:resource="http://purl.org/dc/dcmitype/StillImage" />
        <dc:title></dc:title>
      </cc:Work>
    </rdf:RDF>
  </metadata>
  <defs
     id="defs8" />
  <sodipodi:namedview
     pagecolor="#ffffff"
     bordercolor="#666666"
     borderopacity="1"
     objecttolerance="10"
     gridtolerance="10"
     guidetolerance="10"
     inkscape:pageopacity="0"
     inkscape:pageshadow="2"
     inkscape:window-width="2635"
     inkscape:window-height="1736"
     id="namedview6"
     showgrid="false"
     inkscape:zoom="55.625733"
     inkscape:cx="16.849358"
     inkscape:cy="14.659495"
     inkscape:window-x="494"
     inkscape:window-y="78"
     inkscape:window-maximized="0"
     inkscape:current-layer="svg4" />
  <path
     id="path2"
     d="M 6.9941425,15.025391 2,15.025391 v 9 h 5 v -1.332032 c 1.243,0.069 2.953571,0.322469 5.726562,1.105469 0.476002,0.135 0.903594,0.199219 1.308594,0.199219 0.903,0 1.670922,-0.318868 2.419922,-1.005859 0.482,-0.441001 3.557547,-3.186797 4.935547,-4.466797 0.408,-0.379296 0.597518,-0.865248 0.609375,-1.355469 0.005,-0.20637 0.02236,-0.399278 -0.01367,-0.619141 -0.0077,-0.04682 0.03202,-0.08915 -0.251721,-0.482157 -0.03504,-0.04854 -0.303091,-0.333476 -0.576404,-0.459249 -0.226,-0.104 -0.628625,-0.146484 -0.890625,-0.146484 -0.427,0 -0.844172,0.149593 -1.201172,0.433593 -0.017,0.013 -1.811547,1.406532 -2.935547,2.269532 -0.099,-0.59 -0.535781,-1.092641 -1.175781,-1.306641 -2.098,-0.706 -3.088734,-1.205078 -4.302734,-1.205078 -0.628,0 -1.244719,0.137969 -1.886719,0.417969 L 6.9763542,16.650391 M 3,16.025391 h 3 v 7 H 3 Z m 17.320312,0.4375 c 0.599251,0.03952 1.008623,0.756328 0.390626,1.330078 -2.207002,2.05 -3.650688,3.29089 -4.929688,4.46289 -1.021,0.935 -1.966203,0.813032 -2.783203,0.582032 C 11.404047,22.386891 9.092,21.807453 7,21.689453 v -3.886719 c 0.732,-0.198 1.5250625,-0.536453 2.1640625,-0.814453 1.3710005,-0.597 2.2829845,-0.29475 3.5839845,0.15625 1.352,0.467 1.328625,0.474063 1.890625,0.664063 0.854,0.285 0.595125,1.433343 -0.421875,1.152344 -0.607,-0.170001 -1.754172,-0.426532 -2.201172,-0.519532 -0.639,-0.135 -0.844531,0.674422 -0.269531,0.857422 0.872,0.276 2.745469,0.744141 3.105468,0.744141 0.453,0 0.767485,-0.234533 1.146485,-0.519531 0.728,-0.544002 3.689453,-2.84375 3.689453,-2.84375 0.211,-0.167502 0.433062,-0.229969 0.632812,-0.216797 z"
     inkscape:connector-curvature="0"
     sodipodi:nodetypes="ccccccsccssssscccscccccccccccccccccccsccc" />
  <path
     inkscape:connector-curvature="0"
     d="m 11.993014,5.7339495 c -0.47323,0.8294857 -1.211449,1.6748074 -2.1329206,1.6404048 -0.215009,0.3855278 -0.443555,0.9157656 -0.69709,1.5306436 l -0.683035,0.301979 C 8.9672554,7.9275266 9.6414394,6.4979064 10.405168,5.387739 10.056362,5.6766119 9.4961904,6.2816612 9.0193164,6.9074614 8.4476914,5.9092391 8.8631344,4.8919043 9.5258644,4.0793471 c 0.01093,0.350033 0.186898,0.6531038 0.312885,0.8054582 -0.04529,-0.2894189 -0.05935,-0.8131032 0.101518,-1.2838185 0.3737936,-0.3997258 0.7101056,-0.6940593 1.1000386,-0.9610893 -0.0432,0.2610231 0.04165,0.5602714 0.136399,0.7432059 0.01249,-0.2675759 0.116616,-0.780885 0.271235,-1.0047751 0.481039,-0.3969953 1.214053,-0.7497588 2.026197,-0.8163797 -0.04216,0.5313294 -0.226983,1.4061391 -0.5331,1.9680486 -0.268112,0.2206137 -0.635659,0.37133 -0.932404,0.4548792 0.256658,0.048601 0.536744,0.042048 0.777784,-5.461e-4 -0.140043,0.4057325 -0.287374,0.7797929 -0.519564,1.242863 -0.353492,0.2555625 -0.821516,0.3997259 -1.146894,0.4505107 0.239479,0.1021157 0.66221,0.133788 0.873055,0.056245 z m -7.2057006,2.0778096 0.335791,0.4264828 2.48485,-1.5240904 -0.347765,-0.4193846 z m 3.623414,-0.1299656 -0.347764,-0.4188383 -2.501509,1.5333747 0.33579,0.426483 z m 2.4359136,0.00382 C 10.627466,7.796462 10.403605,7.87182 10.177142,7.9029462 10.11467,8.0290891 10.049073,8.1727065 9.9808744,8.3250609 l 0.1551396,0.186757 c 0.324338,0.377883 0.238958,0.930509 -0.1957466,1.222658 C 9.5378394,10.005875 7.1597124,11.57802 6.6156804,11.937883 6.5771504,11.544167 6.4293034,11.178297 6.1856594,10.874134 5.9414954,10.569976 3.0021574,6.8463012 2.269144,5.8622767 2.0249805,5.5346328 1.9697958,5.1824154 2.1155652,4.8706074 2.2550874,4.5708131 2.5539151,4.369312 2.8600318,4.369312 c 0.4784366,0 0.7330126,0.3576782 0.8064176,0.6634793 0.0833,0.350033 -0.01822,0.6722163 -0.324337,0.9201337 l 0.691885,0.8868234 4.05864,-2.4278426 C 8.8329384,3.8379827 9.0411814,2.7786002 8.5768014,1.9474764 8.2550664,1.372461 7.6610554,1.0158751 7.0264384,1.0158751 c -0.61848,0 -0.412841,-0.00874 -4.9795925,2.4436786 -0.6424273,0.3227294 -1.06724177,0.9758333 -1.06724177,1.7485271 0,0.4750839 0.16034657,0.958905 0.46281867,1.3580848 0.7429035,0.9796557 3.9362986,5.0156844 3.9649316,5.0550024 0.193145,0.269214 0.222299,0.611056 0.0781,0.91358 -0.144208,0.303071 -0.422732,0.483822 -0.743946,0.483822 -0.478435,0 -0.733012,-0.357679 -0.806417,-0.664026 -0.08122,-0.343479 0.0062,-0.659656 0.314445,-0.903205 l -0.664817,-0.843684 c -0.427937,0.363138 -0.6648131,0.816925 -0.7168738,1.333512 -0.1207803,1.204091 0.7939228,2.180471 1.8809478,2.180471 0.310281,0 0.682514,-0.09666 0.958434,-0.278497 l 4.9077486,-3.246954 c 0.49822,-0.362593 0.776744,-0.9725561 0.776744,-1.5819741 0,-0.406825 -0.124945,-0.793991 -0.358177,-1.0937853 z M 6.7166774,2.191022 c 0.09787,-0.047508 0.207201,-0.073174 0.317049,-0.073174 0.276962,0 0.519044,0.1534466 0.647113,0.4106472 0.162428,0.3254598 0.117657,0.8021819 -0.285293,1.0440924 l -2.653526,1.5770632 c -0.02655,-0.594674 -0.30143,-1.1363788 -0.75748,-1.4918726 z m 1.09171,7.3081009 0.187939,-0.494196 0.129631,-0.332559 -1.79557,1.10143 0.335791,0.4264831 z"
     id="path2-5"
     style="stroke-width:0.53318745" />
  <path
     inkscape:connector-curvature="0"
     d="M 23.793103,8.814842 V 6.8260335 C 22.781035,6.4777419 22.508699,6.461373 22.366877,6.1308142 22.224114,5.7993461 22.405985,5.599283 22.865845,4.6653522 L 21.408522,3.2589995 C 20.453935,3.6968649 20.236256,3.8791952 19.889476,3.740515 19.546937,3.603199 19.527619,3.3362966 19.170002,2.3641719 H 17.108643 C 16.74867,3.3390248 16.731708,3.603199 16.388228,3.740515 16.033908,3.8828327 15.821411,3.6950458 14.869653,3.2589995 L 13.41233,4.6653522 c 0.460331,0.9343855 0.641731,1.1335392 0.498966,1.4659167 -0.142293,0.3305588 -0.415099,0.3473823 -1.426225,0.6947646 V 8.815297 c 1.007829,0.345564 1.283932,0.363751 1.426225,0.694765 0.143236,0.333742 -0.03816,0.530622 -0.498966,1.465461 l 1.457323,1.406353 c 0.941864,-0.431954 1.163784,-0.624287 1.518575,-0.481516 0.343009,0.137317 0.359971,0.400127 0.720415,1.376344 h 2.060889 c 0.357145,-0.968942 0.376463,-1.238118 0.724185,-1.378162 0.351019,-0.140044 0.558805,0.04502 1.514805,0.482879 l 1.457323,-1.406352 C 22.406456,10.042957 22.224114,9.841984 22.366877,9.509607 22.508229,9.179503 22.781506,9.16268 23.793103,8.814842 Z m -2.296944,0.347383 c -0.271864,0.633837 -0.03205,1.117625 0.22993,1.626877 l -0.510745,0.492882 c -0.514988,-0.246896 -1.018195,-0.489245 -1.683484,-0.222797 -0.657751,0.264173 -0.843391,0.769788 -1.030916,1.308139 h -0.722772 c -0.187525,-0.538806 -0.372694,-1.04442 -1.028559,-1.30723 -0.668588,-0.267357 -1.181218,-0.02046 -1.68631,0.221888 L 14.553027,10.789102 C 14.815468,10.280759 15.055293,9.79788 14.782486,9.161315 14.50968,8.528843 13.985741,8.35015 13.427407,8.169184 V 7.4721464 C 13.985741,7.2911802 14.50968,7.1124875 14.782015,6.4791059 15.05435,5.8452696 14.814065,5.361026 14.552085,4.8517746 l 0.510747,-0.4928827 c 0.509804,0.2446226 1.018665,0.4896998 1.686781,0.2218881 0.655865,-0.2623554 0.841034,-0.7684241 1.028559,-1.3072304 h 0.722772 c 0.187525,0.5388063 0.373165,1.0444202 1.029031,1.3072304 0.668588,0.2673571 1.180747,0.020461 1.68631,-0.2218881 l 0.510747,0.4928827 c -0.261969,0.5097062 -0.501794,0.9944044 -0.22993,1.627786 0.271864,0.6324722 0.795802,0.8111649 1.354608,0.9925858 V 8.169639 C 22.291962,8.350605 21.767081,8.529298 21.496159,9.162225 Z M 18.139087,6.4563714 c 0.779312,0 1.413504,0.6120113 1.413504,1.3640666 0,0.752055 -0.634192,1.364067 -1.413504,1.364067 -0.779312,0 -1.413504,-0.612012 -1.413504,-1.364067 0,-0.7520553 0.634192,-1.3640666 1.413504,-1.3640666 z m 0,-0.9093776 c -1.301365,0 -2.35584,1.0175936 -2.35584,2.2734442 0,1.255851 1.054475,2.273444 2.35584,2.273444 1.301367,0 2.35584,-1.017593 2.35584,-2.273444 0,-1.2558506 -1.054473,-2.2734442 -2.35584,-2.2734442 z"
     id="path2-4"
     style="stroke-width:0.4628551" />
</svg>
