<?xml version="1.0" encoding="UTF-8" standalone="no"?>
<svg
   xmlns:dc="http://purl.org/dc/elements/1.1/"
   xmlns:cc="http://creativecommons.org/ns#"
   xmlns:rdf="http://www.w3.org/1999/02/22-rdf-syntax-ns#"
   xmlns:svg="http://www.w3.org/2000/svg"
   xmlns="http://www.w3.org/2000/svg"
   xmlns:sodipodi="http://sodipodi.sourceforge.net/DTD/sodipodi-0.dtd"
   xmlns:inkscape="http://www.inkscape.org/namespaces/inkscape"
   width="24"
   height="24"
   fill-rule="evenodd"
   clip-rule="evenodd"
   version="1.1"
   id="svg4"
   sodipodi:docname="share-avatar-settings.svg"
   inkscape:version="0.92.4 (5da689c313, 2019-01-14)">
  <metadata
     id="metadata10">
    <rdf:RDF>
      <cc:Work
         rdf:about="">
        <dc:format>image/svg+xml</dc:format>
        <dc:type
           rdf:resource="http://purl.org/dc/dcmitype/StillImage" />
        <dc:title />
      </cc:Work>
    </rdf:RDF>
  </metadata>
  <defs
     id="defs8" />
  <sodipodi:namedview
     pagecolor="#ffffff"
     bordercolor="#666666"
     borderopacity="1"
     objecttolerance="10"
     gridtolerance="10"
     guidetolerance="10"
     inkscape:pageopacity="0"
     inkscape:pageshadow="2"
     inkscape:window-width="2635"
     inkscape:window-height="1736"
     id="namedview6"
     showgrid="false"
     inkscape:zoom="27.812866"
     inkscape:cx="-7.4958989"
     inkscape:cy="12.367168"
     inkscape:window-x="1104"
     inkscape:window-y="178"
     inkscape:window-maximized="0"
     inkscape:current-layer="svg4" />
  <path
     id="path2"
     d="M 6.9941425,15.025391 2,15.025391 v 9 h 5 v -1.332032 c 1.243,0.069 2.953571,0.322469 5.726562,1.105469 0.476002,0.135 0.903594,0.199219 1.308594,0.199219 0.903,0 1.670922,-0.318868 2.419922,-1.005859 0.482,-0.441001 3.557547,-3.186797 4.935547,-4.466797 0.408,-0.379296 0.597518,-0.865248 0.609375,-1.355469 0.005,-0.20637 0.02236,-0.399278 -0.01367,-0.619141 -0.0077,-0.04682 0.03202,-0.08915 -0.251721,-0.482157 -0.03504,-0.04854 -0.303091,-0.333476 -0.576404,-0.459249 -0.226,-0.104 -0.628625,-0.146484 -0.890625,-0.146484 -0.427,0 -0.844172,0.149593 -1.201172,0.433593 -0.017,0.013 -1.811547,1.406532 -2.935547,2.269532 -0.099,-0.59 -0.535781,-1.092641 -1.175781,-1.306641 -2.098,-0.706 -3.088734,-1.205078 -4.302734,-1.205078 -0.628,0 -1.244719,0.137969 -1.886719,0.417969 L 6.9763542,16.650391 M 3,16.025391 h 3 v 7 H 3 Z m 17.320312,0.4375 c 0.599251,0.03952 1.008623,0.756328 0.390626,1.330078 -2.207002,2.05 -3.650688,3.29089 -4.929688,4.46289 -1.021,0.935 -1.966203,0.813032 -2.783203,0.582032 C 11.404047,22.386891 9.092,21.807453 7,21.689453 v -3.886719 c 0.732,-0.198 1.5250625,-0.536453 2.1640625,-0.814453 1.3710005,-0.597 2.2829845,-0.29475 3.5839845,0.15625 1.352,0.467 1.328625,0.474063 1.890625,0.664063 0.854,0.285 0.595125,1.433343 -0.421875,1.152344 -0.607,-0.170001 -1.754172,-0.426532 -2.201172,-0.519532 -0.639,-0.135 -0.844531,0.674422 -0.269531,0.857422 0.872,0.276 2.745469,0.744141 3.105468,0.744141 0.453,0 0.767485,-0.234533 1.146485,-0.519531 0.728,-0.544002 3.689453,-2.84375 3.689453,-2.84375 0.211,-0.167502 0.433062,-0.229969 0.632812,-0.216797 z"
     inkscape:connector-curvature="0"
     sodipodi:nodetypes="ccccccsccssssscccscccccccccccccccccccsccc" />
  <path
     inkscape:connector-curvature="0"
     d="m 6.3280066,1.8967623 c 3.269375,0 5.9236764,2.8234621 5.9236764,6.3011986 0,3.4777371 -2.6543014,6.3011991 -5.9236764,6.3011991 -3.2693753,0 -5.92367561,-2.823462 -5.92367561,-6.3011991 0,-3.4777365 2.65430031,-6.3011986 5.92367561,-6.3011986 z M 10.339816,12.08895 C 10.200609,11.878386 9.9587256,11.745536 9.5381446,11.642616 7.6386196,11.166876 7.5157036,10.854442 7.3898246,10.561435 7.2619726,10.264753 7.2960336,9.9155623 7.4910216,9.5233132 8.3430436,7.8130626 8.5227286,6.3601112 7.9979886,5.4327849 7.6652766,4.8451981 7.0724146,4.5222617 6.3280066,4.5222617 c -0.750826,0 -1.348624,0.3287126 -1.682818,0.9257512 -0.52622,0.9394036 -0.342092,2.3860537 0.517829,4.0731996 0.198442,0.3896237 0.234971,0.7382905 0.1086,1.0365465 -0.130815,0.307709 -0.301614,0.62487 -2.1547368,1.084857 -0.420581,0.10292 -0.6624645,0.23577 -0.8011772,0.445285 0.9932026,1.158896 2.42377,1.886159 4.012303,1.886159 1.588532,0 3.018606,-0.727263 4.0118094,-1.88511 z m 0.320866,-0.410627 c 0.688627,-0.968285 1.09736,-2.1739135 1.09736,-3.4803621 0,-3.1878814 -2.4331494,-5.7760988 -5.4300354,-5.7760988 -2.996886,0 -5.43003601,2.5882174 -5.43003601,5.7760988 0,1.305923 0.40824001,2.5115531 1.09686721,3.4793111 0.2018986,-0.237344 0.517828,-0.42533 1.0114675,-0.546628 0.9996203,-0.242596 1.6665273,-0.438983 1.8156073,-0.7887 0.060223,-0.142827 0.030111,-0.329763 -0.092805,-0.5707841 C 3.7828005,7.914932 3.602622,6.2839718 4.2206586,5.1791616 c 0.421075,-0.7514179 1.188685,-1.1819998 2.107348,-1.1819998 0.910765,0 1.673931,0.4242807 2.093032,1.1646715 0.617543,1.0916828 0.442301,2.7278939 -0.49364,4.6072269 -0.120942,0.2431208 -0.150067,0.4311068 -0.08836,0.5744588 0.150561,0.350767 0.811545,0.545054 1.810177,0.787125 0.4936404,0.120772 0.8095694,0.309809 1.0114684,0.547679 z"
     id="path2-6"
     style="stroke-width:0.50912678" />
  <path
     inkscape:connector-curvature="0"
     d="M 23.649285,6.7767703 V 4.8731465 C 22.720883,4.5397731 22.47106,4.5241054 22.340963,4.2077053 22.210001,3.8904348 22.376838,3.6989407 22.798681,2.8050125 L 21.461834,1.4588972 C 20.586161,1.8780078 20.386477,2.0525284 20.068365,1.9197883 19.754144,1.7883539 19.736422,1.5328835 19.40837,0.60239716 H 17.517419 C 17.187205,1.5354948 17.171645,1.7883539 16.856559,1.9197883 16.531531,2.05601 16.336602,1.8762667 15.463523,1.4588972 l -1.336848,1.3461153 c 0.422276,0.8943635 0.58868,1.0849871 0.457719,1.403128 -0.13053,0.3164002 -0.380784,0.332503 -1.308323,0.665006 v 1.904059 c 0.924513,0.3307623 1.177793,0.3481708 1.308323,0.6650062 0.131393,0.3194466 -0.03501,0.507894 -0.457719,1.4026921 l 1.336848,1.3461152 c 0.864003,-0.4134519 1.067577,-0.5975476 1.393036,-0.4608903 0.314655,0.1314342 0.330214,0.3829883 0.66086,1.3173913 h 1.890518 c 0.327621,-0.92744 0.345342,-1.1850871 0.664318,-1.3191333 0.322002,-0.1340453 0.512609,0.043095 1.389579,0.4621983 L 22.798681,8.8444702 C 22.377269,7.9522818 22.210001,7.7599174 22.340963,7.4417764 22.470628,7.1258115 22.721315,7.1097086 23.649285,6.7767703 Z m -2.10706,0.3325029 C 21.292837,7.7159609 21.512835,8.179028 21.753148,8.666467 L 21.284624,9.138238 C 20.812211,8.901917 20.350604,8.6699493 19.740312,8.9249834 19.136938,9.1778428 18.966643,9.6618004 18.794621,10.177093 H 18.131599 C 17.959577,9.6613639 17.789716,9.1774073 17.18807,8.9258544 16.574754,8.6699493 16.104501,8.9062656 15.641165,9.138238 L 15.173073,8.666467 C 15.413818,8.1798984 15.633816,7.7177017 15.383563,7.108403 15.133309,6.503021 14.652684,6.3319821 14.140506,6.1587672 V 5.4915849 C 14.652684,5.3183701 15.133309,5.1473312 15.383131,4.5410788 15.632952,3.9343913 15.412521,3.470889 15.172209,2.9834499 l 0.468523,-0.4717714 c 0.467659,0.2341449 0.934453,0.468725 1.547338,0.2123842 0.601646,-0.2511182 0.771507,-0.7355107 0.943529,-1.2512387 h 0.663022 c 0.172022,0.515728 0.342317,0.9996854 0.943962,1.2512387 0.613316,0.2559055 1.083137,0.019584 1.546905,-0.2123842 l 0.468525,0.4717714 c -0.240314,0.4878742 -0.460312,0.9518117 -0.210923,1.5580641 0.24939,0.6053818 0.730015,0.7764207 1.242625,0.9500709 v 0.6676175 c -0.513474,0.173215 -0.994964,0.3442539 -1.24349,0.9500708 z m -3.079546,-2.589955 c 0.714887,0 1.296651,0.5857972 1.296651,1.3056403 0,0.719843 -0.581764,1.3056403 -1.296651,1.3056403 -0.714887,0 -1.296652,-0.5857973 -1.296652,-1.3056403 0,-0.7198431 0.581765,-1.3056403 1.296652,-1.3056403 z m 0,-0.8704269 c -1.193785,0 -2.161087,0.9740075 -2.161087,2.1760672 0,1.2020595 0.967302,2.1760671 2.161087,2.1760671 1.193783,0 2.161085,-0.9740076 2.161085,-2.1760671 0,-1.2020597 -0.967302,-2.1760672 -2.161085,-2.1760672 z"
     id="path2-3"
     style="stroke-width:0.43371272" />
</svg>
