<?xml version="1.0" encoding="UTF-8" standalone="no"?>
<svg
   xmlns:dc="http://purl.org/dc/elements/1.1/"
   xmlns:cc="http://creativecommons.org/ns#"
   xmlns:rdf="http://www.w3.org/1999/02/22-rdf-syntax-ns#"
   xmlns:svg="http://www.w3.org/2000/svg"
   xmlns="http://www.w3.org/2000/svg"
   xmlns:sodipodi="http://sodipodi.sourceforge.net/DTD/sodipodi-0.dtd"
   xmlns:inkscape="http://www.inkscape.org/namespaces/inkscape"
   width="24"
   height="24"
   viewBox="0 0 24 24"
   version="1.1"
   id="svg4"
   sodipodi:docname="truth-or-dare.svg"
   inkscape:version="0.92.4 (5da689c313, 2019-01-14)">
  <metadata
     id="metadata10">
    <rdf:RDF>
      <cc:Work
         rdf:about="">
        <dc:format>image/svg+xml</dc:format>
        <dc:type
           rdf:resource="http://purl.org/dc/dcmitype/StillImage" />
        <dc:title />
      </cc:Work>
    </rdf:RDF>
  </metadata>
  <defs
     id="defs8" />
  <sodipodi:namedview
     pagecolor="#ffffff"
     bordercolor="#666666"
     borderopacity="1"
     objecttolerance="10"
     gridtolerance="10"
     guidetolerance="10"
     inkscape:pageopacity="0"
     inkscape:pageshadow="2"
     inkscape:window-width="2078"
     inkscape:window-height="1255"
     id="namedview6"
     showgrid="false"
     inkscape:zoom="9.8333333"
     inkscape:cx="-18.966102"
     inkscape:cy="-0.36986247"
     inkscape:window-x="1362"
     inkscape:window-y="398"
     inkscape:window-maximized="0"
     inkscape:current-layer="svg4" />
  <path
     inkscape:connector-curvature="0"
     d="m 19.15164,3.4169938 c 0.692188,0 1.255345,0.6189897 1.255345,1.3798325 0,0.7608397 -0.563157,1.3798297 -1.255345,1.3798297 -0.692189,0 -1.255345,-0.61899 -1.255345,-1.3798297 0,-0.7608428 0.563156,-1.3798325 1.255345,-1.3798325 m 0,-0.5695362 c -0.979475,0 -1.773497,0.8727585 -1.773497,1.9493687 0,1.0766073 0.794022,1.949367 1.773497,1.949367 0.979475,0 1.773498,-0.8727597 1.773498,-1.949367 0,-1.0766102 -0.794023,-1.9493687 -1.773498,-1.9493687 z"
     id="path2-8"
     style="stroke-width:0.27161884" />
  <path
     inkscape:connector-curvature="0"
     d="m 12.116061,5.0241692 c 0.02941,0 0.05882,0.00781 0.08501,0.022453 l 3.812809,2.1397199 c 0.423434,0.2376361 0.898546,0.3632391 1.374004,0.3632391 l 1.846805,-3.46e-5 2.003068,0.024942 c 0.670747,0 1.276471,0.4651255 1.507242,1.157406 l 0.494371,1.4829904 c 0.02682,0.08042 0.02157,0.170163 -0.01433,0.246143 l -1.038931,2.197575 0.459772,0.262619 -0.470904,-0.251164 c -0.0034,-0.0049 -0.0086,-0.02425 -0.0019,-0.04271 l 0.608635,-1.675311 c 0.137064,-0.3772 0.122928,-0.802984 -0.0388,-1.1681054 l -0.478337,-1.080317 c -0.123402,-0.278667 -0.37432,-0.45178 -0.654839,-0.45178 -0.390101,0 -0.704269,0.321741 -0.730771,0.747838 L 20.203,19.714863 c -0.0011,0.01742 -0.01439,0.03106 -0.03029,0.03106 h -2.060531 c -0.01594,0 -0.02926,-0.01367 -0.03033,-0.03113 L 17.431905,9.2692076 c -0.02486,-0.399921 -0.227546,-0.759684 -0.542189,-0.962362 L 12.563657,5.5202431 c -0.13561,-0.087358 -0.290386,-0.1335245 -0.447565,-0.1335245 -0.157243,0 -0.312017,0.04619 -0.447628,0.1335508 L 7.342405,8.3068756 C 7.0279205,8.5094766 6.8252009,8.8691516 6.8002163,9.2691726 L 6.1503748,19.714746 c -0.00111,0.01749 -0.014421,0.03118 -0.030297,0.03118 H 4.0595152 c -0.015939,0 -0.029283,-0.01373 -0.030422,-0.03115 L 3.3532529,9.0001446 c -0.026567,-0.426608 -0.3407968,-0.748312 -0.7308033,-0.748312 -0.2805184,0 -0.5314355,0.17311 -0.6548386,0.451769 L 1.4892427,9.7839136 C 1.3275729,10.14906 1.313405,10.574784 1.4504088,10.951954 l 0.6162553,1.696245 -0.00601,0.01893 c -0.00457,-0.0023 -0.016953,-0.01345 -0.026375,-0.03332 L 1.0070823,10.461011 c -0.0359258,-0.07601 -0.0411747,-0.165747 -0.0143578,-0.246107 L 1.4870951,8.7318836 c 0.23074,-0.6922719 0.8364328,-1.157389 1.5130932,-1.1574285 l 1.9913976,-0.02487 h 1.8526884 c 0.4753319,0 0.950411,-0.1255851 1.3738139,-0.3631853 L 12.031054,5.0466478 c 0.02625,-0.014711 0.0556,-0.022478 0.085,-0.022478 v 0 m 0,-0.5695371 c -0.10993,0 -0.219861,0.02825 -0.320557,0.084741 L 7.9824778,6.679147 C 7.6300425,6.8769282 7.239973,6.9800498 6.8442743,6.9800498 H 4.9915859 l -1.9972801,0.024906 c -0.8910181,0 -1.6872232,0.6114201 -1.9937381,1.5309948 L 0.5061972,10.018957 C 0.4292837,10.249754 0.444211,10.50547 0.5473094,10.723583 l 1.027198,2.172829 c 0.086591,0.183164 0.2483239,0.319573 0.4354839,0.336388 0.01556,0.0013 0.030994,0.0022 0.046173,0.0022 0.3744466,0 0.6306135,-0.415611 0.4917138,-0.797901 L 1.9316213,10.740753 c -0.083176,-0.228966 -0.074636,-0.485888 0.023529,-0.707571 L 2.4335181,8.9528636 c 0.039911,-0.09015 0.114611,-0.131477 0.1889313,-0.131477 0.1029095,0 0.2052499,0.0792 0.213852,0.2177 L 3.5122023,19.754191 c 0.019987,0.31608 0.259077,0.561287 0.5473123,0.561287 h 2.060531 c 0.2884251,0 0.5275146,-0.245494 0.5472487,-0.561752 L 7.3171373,9.3080426 c 0.013218,-0.211673 0.1206829,-0.402502 0.287223,-0.509776 L 11.930418,6.0116584 c 0.05731,-0.036923 0.121443,-0.055385 0.185643,-0.055385 0.06414,0 0.128337,0.018462 0.185642,0.055385 L 16.6277,8.7982386 c 0.166539,0.107278 0.274066,0.298122 0.287223,0.509808 l 0.649905,10.4456254 c 0.01967,0.316292 0.258823,0.561813 0.54728,0.561813 h 2.060532 c 0.288203,0 0.527292,-0.245178 0.547216,-0.561231 L 21.395821,9.0390736 c 0.0086,-0.138479 0.110943,-0.217701 0.213852,-0.217701 0.07435,0 0.148988,0.04131 0.188931,0.131478 l 0.478336,1.0803174 c 0.0982,0.221698 0.106737,0.478631 0.02353,0.707611 l -0.608665,1.675361 c -0.110468,0.304076 0.01344,0.666172 0.292631,0.780332 0.06392,0.02614 0.12859,0.03842 0.191556,0.03842 0.197629,0 0.378748,-0.120923 0.469893,-0.313662 l 1.038931,-2.197577 c 0.103099,-0.218135 0.118026,-0.473882 0.04108,-0.704704 L 23.231526,8.5359556 C 22.924986,7.6163786 22.128782,7.0049585 21.237762,7.0049585 L 19.240577,6.9800525 H 17.38789 c -0.395762,0 -0.785896,-0.1031288 -1.138363,-0.300947 L 12.436683,4.5393828 c -0.100697,-0.0565 -0.210626,-0.08475 -0.32062,-0.08475 z"
     id="path4"
     style="stroke-width:0.27161884" />
  <path
     inkscape:connector-curvature="0"
     d="m 5.0804511,3.4169938 c 0.6922203,0 1.2553448,0.6189897 1.2553448,1.3798325 0,0.7608397 -0.5631245,1.3798297 -1.2553448,1.3798297 -0.6922204,0 -1.255345,-0.61899 -1.255345,-1.3798297 0,-0.7608428 0.5631246,-1.3798325 1.255345,-1.3798325 m 0,-0.5695362 c -0.9794434,0 -1.773498,0.8727585 -1.773498,1.9493687 0,1.0766073 0.7940546,1.949367 1.773498,1.949367 0.9795067,0 1.7734978,-0.8727597 1.7734978,-1.949367 0,-1.0766102 -0.7939911,-1.9493687 -1.7734978,-1.9493687 z"
     id="path6"
     style="stroke-width:0.27161884" />
  <path
     inkscape:connector-curvature="0"
     d="m 12.038901,8.8760597 c -0.06322,0 -0.126451,0.0064 -0.172433,0.0318 L 7.7280576,10.943037 h -0.04311 -0.04311 c -0.18393,0.152638 -0.229912,0.352976 -0.229912,0.556494 v 4.992545 c 0,0.203517 0.08909,0.410215 0.27302,0.461095 l 4.1384094,2.035177 h 0.04311 0.05748 0.04311 0.04311 0.04311 0.04311 l 4.138409,-2.035177 c 0.183929,-0.101759 0.28739,-0.257578 0.28739,-0.461095 v -4.992545 c 0.137947,-0.203518 0.03736,-0.407036 -0.100587,-0.508794 l -0.04311,-0.0477 -4.138409,-2.0351773 c -0.06897,-0.02544 -0.137947,-0.0318 -0.201173,-0.0318 z m -0.02874,1.049388 2.988851,1.4786843 -2.988851,1.478684 -2.9888514,-1.478684 z m 0,1.1288883 c -0.38093,0 -0.689735,0.153096 -0.689735,0.349796 0,0.196699 0.308805,0.349796 0.689735,0.349796 0.38093,0 0.689735,-0.153097 0.689735,-0.349796 0,-0.1967 -0.308805,-0.349796 -0.689735,-0.349796 z m -3.6785864,1.112988 1.465687,0.763191 1.7530764,0.858591 v 3.974956 L 8.3315746,16.189979 Z m 7.3571724,0 v 3.974956 l -3.218762,1.621782 v -3.974956 l 1.753076,-0.858591 z m -6.7823934,0.667792 c -0.05607,-0.01029 -0.11874,-0.0057 -0.172433,0.0159 -0.214774,0.0865 -0.305401,0.414528 -0.201173,0.731392 0.104229,0.316864 0.374374,0.515792 0.589149,0.429295 0.214774,-0.0865 0.305401,-0.414528 0.201172,-0.731392 -0.07817,-0.237647 -0.248489,-0.414309 -0.416715,-0.445195 z m 5.9058554,0.572394 c -0.168226,0.03088 -0.324174,0.207547 -0.402345,0.445195 -0.104229,0.316863 -0.0136,0.644895 0.201172,0.731392 0.214775,0.0865 0.470551,-0.112432 0.574779,-0.429295 0.104229,-0.316864 0.0136,-0.644895 -0.201172,-0.731392 -0.05369,-0.02162 -0.116358,-0.02619 -0.172434,-0.0159 z m -4.9862084,0.953989 c -0.05607,-0.01029 -0.11874,-0.0057 -0.172434,0.0159 -0.214774,0.0865 -0.305401,0.414528 -0.201172,0.731392 0.104228,0.316864 0.374374,0.515792 0.5891484,0.429295 0.214774,-0.0865 0.305401,-0.414528 0.201173,-0.731392 -0.07817,-0.237647 -0.2484904,-0.414309 -0.4167154,-0.445195 z m 3.5205224,1.128888 c -0.165838,0.02363 -0.330689,0.179652 -0.402346,0.397495 -0.09554,0.290459 7.82e-4,0.597196 0.215542,0.683693 0.214775,0.0865 0.464867,-0.09114 0.56041,-0.381596 0.09554,-0.290458 -7.82e-4,-0.597195 -0.215542,-0.683692 -0.05369,-0.02162 -0.102785,-0.02378 -0.158064,-0.0159 z m -2.370964,0.397495 c -0.05607,-0.01029 -0.11874,-0.0057 -0.172434,0.0159 -0.214774,0.0865 -0.305401,0.414528 -0.201172,0.731392 0.104228,0.316864 0.374374,0.515792 0.589148,0.429295 0.214774,-0.0865 0.305401,-0.414528 0.201173,-0.731391 -0.07817,-0.237648 -0.24849,-0.41431 -0.416715,-0.445196 z"
     id="path2"
     style="stroke-width:0.48368943" />
</svg>
