<?xml version="1.0" encoding="UTF-8" standalone="no"?>
<svg
   xmlns:dc="http://purl.org/dc/elements/1.1/"
   xmlns:cc="http://creativecommons.org/ns#"
   xmlns:rdf="http://www.w3.org/1999/02/22-rdf-syntax-ns#"
   xmlns:svg="http://www.w3.org/2000/svg"
   xmlns="http://www.w3.org/2000/svg"
   xmlns:sodipodi="http://sodipodi.sourceforge.net/DTD/sodipodi-0.dtd"
   xmlns:inkscape="http://www.inkscape.org/namespaces/inkscape"
   width="24"
   height="24"
   viewBox="0 0 24 24"
   version="1.1"
   id="svg4"
   sodipodi:docname="truth-or-dare-settings.svg"
   inkscape:version="0.92.4 (5da689c313, 2019-01-14)">
  <metadata
     id="metadata10">
    <rdf:RDF>
      <cc:Work
         rdf:about="">
        <dc:format>image/svg+xml</dc:format>
        <dc:type
           rdf:resource="http://purl.org/dc/dcmitype/StillImage" />
        <dc:title />
      </cc:Work>
    </rdf:RDF>
  </metadata>
  <defs
     id="defs8" />
  <sodipodi:namedview
     pagecolor="#ffffff"
     bordercolor="#666666"
     borderopacity="1"
     objecttolerance="10"
     gridtolerance="10"
     guidetolerance="10"
     inkscape:pageopacity="0"
     inkscape:pageshadow="2"
     inkscape:window-width="2078"
     inkscape:window-height="1255"
     id="namedview6"
     showgrid="false"
     inkscape:zoom="27.812867"
     inkscape:cx="14.427124"
     inkscape:cy="9.2385933"
     inkscape:window-x="1362"
     inkscape:window-y="398"
     inkscape:window-maximized="0"
     inkscape:current-layer="svg4" />
  <path
     d="M 24,4.6889237 V 3.2432797 C 23.244559,2.9901102 23.04128,2.9782119 22.935419,2.7379322 22.828856,2.4969915 22.96461,2.3515678 23.307864,1.6727034 L 22.220072,0.65044068 C 21.507538,0.96872034 21.345055,1.1012542 21.086208,1.0004492 20.830525,0.90063559 20.816106,0.70662712 20.549169,0 H 19.010504 C 18.741809,0.70861017 18.729148,0.90063559 18.472763,1.0004492 18.208288,1.1038983 18.049674,0.96739831 17.33925,0.65044068 L 16.251458,1.6727034 c 0.343606,0.6791949 0.479008,0.8239576 0.372445,1.0655593 -0.106212,0.2402797 -0.309844,0.2525085 -1.064581,0.505017 v 1.4459745 c 0.752275,0.2511865 0.958369,0.2644068 1.064581,0.505017 0.106915,0.2425932 -0.02849,0.3857034 -0.372445,1.0652288 l 1.087792,1.0222627 c 0.703038,-0.313983 0.868686,-0.4537881 1.133513,-0.3500085 0.256034,0.099814 0.268695,0.2908475 0.537741,1.0004492 h 1.538314 c 0.266585,-0.7043136 0.281004,-0.8999746 0.540555,-1.0017712 0.262013,-0.1017966 0.41711,0.03272 1.130699,0.351 L 23.307864,6.2591695 C 22.964962,5.5816271 22.828856,5.4355424 22.935419,5.1939407 23.040928,4.9539915 23.244911,4.9417627 24,4.6889237 Z M 22.285487,4.9414322 C 22.082559,5.402161 22.261572,5.753822 22.457114,6.1239915 L 22.075877,6.4822627 C 21.691475,6.3027966 21.315864,6.1266356 20.819271,6.3203136 20.328305,6.512339 20.189737,6.8798644 20.049763,7.2711864 h -0.5395 C 19.370288,6.8795339 19.232072,6.5120085 18.742513,6.3209746 18.243458,6.1266356 17.860814,6.3061017 17.483797,6.4822627 L 17.102911,6.1239915 C 17.298805,5.7544831 17.477818,5.4034831 17.274186,4.9407712 17.070555,4.4810339 16.67947,4.3511441 16.262712,4.2196017 V 3.7129322 C 16.67947,3.5813898 17.070555,3.4515 17.273835,2.9911017 17.477114,2.5303729 17.29775,2.1783814 17.102208,1.8082119 l 0.381237,-0.3582712 c 0.380534,0.1778135 0.760364,0.3559576 1.259068,0.1612881 0.489559,-0.1907034 0.627775,-0.5585593 0.76775,-0.95021185 h 0.5395 c 0.139974,0.39165255 0.278542,0.75917795 0.768101,0.95021185 0.499055,0.194339 0.881348,0.014873 1.258717,-0.1612881 l 0.381237,0.3582712 c -0.195543,0.3705 -0.374555,0.722822 -0.171627,1.1832203 0.202928,0.4597373 0.594012,0.5896271 1.011123,0.7215 v 0.507 c -0.417814,0.1315424 -0.809602,0.2614322 -1.011827,0.7215 z M 19.779661,2.9745763 c 0.581703,0 1.055085,0.4448644 1.055085,0.9915254 0,0.546661 -0.473382,0.9915254 -1.055085,0.9915254 -0.581703,0 -1.055085,-0.4448644 -1.055085,-0.9915254 0,-0.546661 0.473382,-0.9915254 1.055085,-0.9915254 z m 0,-0.661017 c -0.971381,0 -1.758475,0.739678 -1.758475,1.6525424 0,0.9128644 0.787094,1.6525424 1.758475,1.6525424 0.971381,0 1.758475,-0.739678 1.758475,-1.6525424 0,-0.9128644 -0.787094,-1.6525424 -1.758475,-1.6525424 z"
     id="path2"
     inkscape:connector-curvature="0"
     style="stroke-width:0.34093717" />
  <path
     inkscape:connector-curvature="0"
     d="m 19.045208,9.0197539 c 0.691974,0 1.254957,0.517681 1.254957,1.1539991 0,0.636316 -0.562983,1.153998 -1.254957,1.153998 -0.691974,0 -1.254955,-0.517682 -1.254955,-1.153998 0,-0.6363181 0.562981,-1.1539991 1.254955,-1.1539991 m 0,-0.4763226 c -0.979171,0 -1.772947,0.7299166 -1.772947,1.6303217 0,0.900403 0.793776,1.630321 1.772947,1.630321 0.979172,0 1.772949,-0.729918 1.772949,-1.630321 0,-0.9004051 -0.793777,-1.6303217 -1.772949,-1.6303217 z"
     id="path2-8"
     style="stroke-width:0.24836037" />
  <path
     inkscape:connector-curvature="0"
     d="m 12.01181,10.363888 c 0.0294,0 0.05881,0.0065 0.08499,0.01878 l 3.811628,1.789519 c 0.423302,0.198743 0.898266,0.303789 1.373577,0.303789 l 1.846233,-2.9e-5 2.002447,0.02086 c 0.670539,0 1.276075,0.389 1.506775,0.967977 l 0.494218,1.240274 c 0.02681,0.06726 0.02156,0.142313 -0.01433,0.205858 l -1.038609,1.837905 0.45963,0.219637 -0.470758,-0.210057 c -0.0034,-0.0041 -0.0086,-0.02028 -0.0019,-0.03572 l 0.608445,-1.401119 c 0.137022,-0.315465 0.12289,-0.671562 -0.03879,-0.976925 l -0.478188,-0.903505 c -0.123364,-0.233059 -0.374204,-0.377839 -0.654636,-0.377839 -0.38998,0 -0.704051,0.269083 -0.730545,0.625442 l -0.675755,8.961471 c -0.0011,0.01457 -0.01439,0.02598 -0.03029,0.02598 H 18.00606 c -0.01594,0 -0.02925,-0.01143 -0.03032,-0.02604 L 17.326007,13.914155 C 17.301154,13.579688 17.098531,13.278806 16.783986,13.1093 L 12.459267,10.778771 C 12.3237,10.705711 12.168972,10.6671 12.011841,10.6671 c -0.157193,0 -0.31192,0.03863 -0.447489,0.111693 l -4.3247175,2.330532 c -0.314387,0.169442 -0.5170438,0.47025 -0.5420207,0.804801 l -0.64964,8.735981 c -0.00111,0.01463 -0.014416,0.02608 -0.030288,0.02608 H 3.9577623 c -0.015934,0 -0.029274,-0.01148 -0.030413,-0.02605 L 3.2517189,13.689129 C 3.2251599,13.332342 2.9110277,13.06329 2.5211421,13.06329 c -0.2804315,0 -0.5312707,0.144778 -0.6546356,0.37783 l -0.47822,0.903501 c -0.1616198,0.305384 -0.1757833,0.661431 -0.038822,0.976871 l 0.6160642,1.418626 -0.006,0.01583 c -0.00457,-0.0019 -0.016948,-0.01125 -0.026367,-0.02787 L 0.90627549,14.9109 c -0.0359147,-0.06357 -0.041162,-0.13862 -0.0143534,-0.205828 L 1.3861394,13.464773 C 1.616808,12.885803 2.2223131,12.49681 2.8987637,12.496777 l 1.9907804,-0.0208 h 1.8521141 c 0.4751846,0 0.9501164,-0.105031 1.3733881,-0.303744 L 11.92683,10.382688 c 0.02624,-0.0123 0.05559,-0.0188 0.08498,-0.0188 v 0 m 0,-0.4763231 c -0.109896,0 -0.219792,0.02363 -0.320457,0.07087 L 7.879509,11.748001 C 7.5271828,11.913412 7.1372343,11.999656 6.7416582,11.999656 H 4.8895441 l -1.9966611,0.02083 c -0.8907419,0 -1.6867001,0.511351 -1.9931201,1.280422 l -0.49421728,1.240287 c -0.0768897,0.193023 -0.0619669,0.406887 0.0410995,0.589302 l 1.02687968,1.81721 c 0.086564,0.153186 0.2482468,0.267269 0.4353488,0.281332 0.015555,0.0011 0.030984,0.0018 0.046159,0.0018 0.3743305,0 0.630418,-0.347589 0.4915614,-0.667311 L 1.8305279,15.144857 c -0.08315,-0.191492 -0.074613,-0.406364 0.023521,-0.591765 l 0.4782196,-0.903506 c 0.039898,-0.0754 0.1145755,-0.109959 0.1888727,-0.109959 0.1028776,0 0.2051862,0.06624 0.2137858,0.18207 l 0.6756913,8.961399 c 0.019981,0.264348 0.2589967,0.469423 0.5471426,0.469423 h 2.0598924 c 0.2883357,0 0.5273511,-0.205315 0.5470791,-0.469812 l 0.6496415,-8.736073 c 0.013214,-0.177029 0.1206456,-0.336626 0.287134,-0.426343 l 4.3247171,-2.330533 c 0.05729,-0.03088 0.121405,-0.04632 0.185585,-0.04632 0.06412,0 0.128297,0.01544 0.185585,0.04632 l 4.324656,2.33051 c 0.166487,0.08972 0.273981,0.249329 0.287134,0.426369 l 0.649704,8.736025 c 0.01966,0.264525 0.258742,0.469863 0.547109,0.469863 h 2.059894 c 0.288114,0 0.527129,-0.205051 0.547047,-0.469376 l 0.675755,-8.961463 c 0.0086,-0.115814 0.110908,-0.18207 0.213786,-0.18207 0.07433,0 0.148942,0.03455 0.188872,0.109959 l 0.478188,0.903505 c 0.09817,0.185414 0.106704,0.400295 0.02352,0.591799 l -0.608476,1.40116 c -0.110434,0.254309 0.01344,0.557142 0.29254,0.652618 0.0639,0.02186 0.128549,0.03213 0.191496,0.03213 0.197568,0 0.378631,-0.101132 0.469748,-0.262326 l 1.038608,-1.837907 c 0.103068,-0.182433 0.11799,-0.396323 0.04107,-0.589367 L 23.123837,13.30091 c -0.306451,-0.769071 -1.10241,-1.280422 -1.993153,-1.280422 l -1.996565,-0.02083 h -1.852114 c -0.395639,0 -0.785652,-0.08625 -1.13801,-0.251692 L 12.332333,9.9584449 c -0.100665,-0.04725 -0.210561,-0.07088 -0.320521,-0.07088 z"
     id="path4"
     style="stroke-width:0.24836037" />
  <path
     inkscape:connector-curvature="0"
     d="m 4.9783817,9.0197539 c 0.6920058,0 1.2549557,0.517681 1.2549557,1.1539991 0,0.636316 -0.5629499,1.153998 -1.2549557,1.153998 -0.6920059,0 -1.2549558,-0.517682 -1.2549558,-1.153998 0,-0.6363181 0.5629499,-1.1539991 1.2549558,-1.1539991 m 0,-0.4763226 c -0.9791398,0 -1.7729482,0.7299166 -1.7729482,1.6303217 0,0.900403 0.7938084,1.630321 1.7729482,1.630321 0.9792031,0 1.7729481,-0.729918 1.7729481,-1.630321 0,-0.9004051 -0.793745,-1.6303217 -1.7729481,-1.6303217 z"
     id="path6"
     style="stroke-width:0.24836037" />
  <path
     inkscape:connector-curvature="0"
     d="m 11.985449,13.25 c -0.05997,0 -0.119947,0.0058 -0.163566,0.02924 L 7.8963042,15.150683 H 7.8554127 7.8145212 C 7.640051,15.291041 7.5964335,15.475261 7.5964335,15.662405 v 4.590882 c 0,0.187144 0.084509,0.377212 0.2589792,0.423999 l 3.9255793,1.871442 h 0.0409 0.05452 0.0409 0.0409 0.0409 0.0409 l 3.925579,-1.871442 c 0.174471,-0.09358 0.27261,-0.236855 0.27261,-0.423999 v -4.590882 c 0.130852,-0.187144 0.03544,-0.374288 -0.09542,-0.46786 l -0.0409,-0.04386 -3.92558,-1.871443 c -0.06543,-0.0234 -0.130852,-0.02924 -0.190826,-0.02924 z m -0.02726,0.964962 2.835142,1.35972 -2.835142,1.359719 -2.8351402,-1.359719 z m 0,1.038066 c -0.36134,0 -0.654264,0.140779 -0.654264,0.321654 0,0.180874 0.292924,0.321654 0.654264,0.321654 0.36134,0 0.654264,-0.14078 0.654264,-0.321654 0,-0.180875 -0.292924,-0.321654 -0.654264,-0.321654 z m -3.4894035,1.023444 1.3903096,0.701791 1.6629179,0.789515 v 3.65516 L 8.4687846,19.975495 Z m 6.9788085,0 v 3.655161 l -3.053229,1.491305 v -3.65516 l 1.662919,-0.789515 z M 9.0140049,16.89054 c -0.053191,-0.0095 -0.1126335,-0.0053 -0.1635658,0.01462 -0.2037289,0.07954 -0.2896951,0.381178 -0.1908268,0.67255 0.098869,0.291371 0.3551211,0.474294 0.55885,0.394757 0.2037288,-0.07954 0.2896951,-0.381178 0.1908268,-0.67255 -0.074151,-0.218528 -0.23571,-0.380977 -0.3952842,-0.409377 z m 5.6021291,0.526342 c -0.159574,0.0284 -0.307503,0.19085 -0.381653,0.409379 -0.09887,0.291371 -0.0129,0.593011 0.190827,0.672549 0.203729,0.07954 0.44635,-0.103387 0.545219,-0.394757 0.09887,-0.291372 0.0129,-0.593012 -0.190827,-0.67255 -0.05093,-0.01988 -0.110375,-0.02409 -0.163566,-0.01462 z m -4.729778,0.877239 c -0.053191,-0.0095 -0.1126336,-0.0053 -0.1635658,0.01462 -0.2037289,0.07954 -0.2896952,0.381178 -0.1908268,0.67255 0.098868,0.291372 0.355121,0.474296 0.5588496,0.394757 0.203729,-0.07954 0.289694,-0.381178 0.190827,-0.672549 -0.07415,-0.218528 -0.23571,-0.380978 -0.395284,-0.409378 z m 3.339468,1.038066 c -0.157309,0.02173 -0.313682,0.165198 -0.381653,0.365516 -0.09063,0.26709 7.41e-4,0.549149 0.204457,0.628688 0.20373,0.07954 0.440959,-0.0838 0.53159,-0.350896 0.09062,-0.26709 -7.43e-4,-0.549149 -0.204458,-0.628688 -0.05093,-0.01988 -0.0975,-0.02186 -0.149936,-0.01462 z m -2.24903,0.365516 c -0.05319,-0.0095 -0.112633,-0.0053 -0.163566,0.01462 -0.203728,0.07954 -0.289695,0.381178 -0.190826,0.672548 0.09887,0.291372 0.35512,0.474296 0.558849,0.394758 0.203729,-0.07954 0.289696,-0.381178 0.190827,-0.672549 -0.07415,-0.218529 -0.23571,-0.380978 -0.395284,-0.409378 z"
     id="path2-4"
     style="stroke-width:0.45174032" />
</svg>
