<svg xmlns="http://www.w3.org/2000/svg" xmlns:xlink="http://www.w3.org/1999/xlink" version="1.1" x="0px" y="0px" viewBox="0 0 100 125" enable-background="new 0 0 100 100" xml:space="preserve"><path d="M63.737,47.262c-4.053,2.899-9.01,4.613-14.362,4.613c-5.423,0-10.44-1.758-14.523-4.727h-0.175  c-20.21,3.866-20.771,25-20.771,25s9.769,19.336,34.561,20.336c24.793,1,34.561-20.332,34.561-20.332  C82.24,53.277,66.74,48.132,63.737,47.262z"/><path d="M49.375,7.5c-10.838,0-19.625,8.787-19.625,19.625S38.537,46.75,49.375,46.75C60.214,46.75,69,37.963,69,27.125  S60.214,7.5,49.375,7.5z M52.28,41.541h-5.47v-5.47h5.47V41.541z M58.676,24.331c-0.682,1.078-2.139,2.544-4.371,4.4  c-1.155,0.961-1.872,1.733-2.151,2.317c-0.278,0.583-0.404,1.628-0.379,3.134H46.81c-0.013-0.714-0.02-1.148-0.02-1.304  c0-1.609,0.267-2.934,0.798-3.972c0.532-1.038,1.596-2.206,3.193-3.504s2.551-2.148,2.862-2.551c0.479-0.636,0.72-1.336,0.72-2.103  c0-1.064-0.425-1.976-1.275-2.735c-0.85-0.759-1.995-1.139-3.436-1.139c-1.389,0-2.55,0.396-3.485,1.188  c-0.934,0.792-1.577,1.999-1.927,3.621l-5.023-0.623c0.143-2.323,1.132-4.296,2.969-5.918c1.836-1.622,4.247-2.433,7.232-2.433  c3.141,0,5.639,0.821,7.496,2.462c1.855,1.642,2.784,3.553,2.784,5.733C59.698,22.112,59.356,23.254,58.676,24.331z"/><text x="0" y="115" fill="#000000" font-size="5px" font-weight="bold" font-family="'Helvetica Neue', Helvetica, Arial-Unicode, Arial, Sans-serif">Created by Bybzee</text><text x="0" y="120" fill="#000000" font-size="5px" font-weight="bold" font-family="'Helvetica Neue', Helvetica, Arial-Unicode, Arial, Sans-serif">from the Noun Project</text></svg>