<?xml version="1.0" encoding="UTF-8" standalone="no"?>
<svg
   xmlns:dc="http://purl.org/dc/elements/1.1/"
   xmlns:cc="http://creativecommons.org/ns#"
   xmlns:rdf="http://www.w3.org/1999/02/22-rdf-syntax-ns#"
   xmlns:svg="http://www.w3.org/2000/svg"
   xmlns="http://www.w3.org/2000/svg"
   xmlns:sodipodi="http://sodipodi.sourceforge.net/DTD/sodipodi-0.dtd"
   xmlns:inkscape="http://www.inkscape.org/namespaces/inkscape"
   enable-background="new 0 0 500 500"
   height="500px"
   id="Layer_1"
   version="1.1"
   viewBox="0 0 500 500"
   width="500px"
   xml:space="preserve"
   sodipodi:docname="motion-video-record.svg"
   inkscape:version="0.92.2 (5c3e80d, 2017-08-06)"><metadata
     id="metadata23"><rdf:RDF><cc:Work
         rdf:about=""><dc:format>image/svg+xml</dc:format><dc:type
           rdf:resource="http://purl.org/dc/dcmitype/StillImage" /><dc:title /></cc:Work></rdf:RDF></metadata><defs
     id="defs21" /><sodipodi:namedview
     pagecolor="#ffffff"
     bordercolor="#666666"
     borderopacity="1"
     objecttolerance="10"
     gridtolerance="10"
     guidetolerance="10"
     inkscape:pageopacity="0"
     inkscape:pageshadow="2"
     inkscape:window-width="1246"
     inkscape:window-height="639"
     id="namedview19"
     showgrid="false"
     inkscape:zoom="0.472"
     inkscape:cx="306.07101"
     inkscape:cy="250"
     inkscape:window-x="674"
     inkscape:window-y="167"
     inkscape:window-maximized="0"
     inkscape:current-layer="Layer_1" /><g
     id="g16"
     transform="matrix(1.3552003,0,0,1.5565613,-2.1043605,-74.418128)"><g
       id="g14"><path
         d="m 323.771,180.378 c -7.091,9.689 -20.445,11.608 -29.828,4.287 -9.383,-7.322 -11.242,-21.112 -4.151,-30.801 7.091,-9.689 20.445,-11.608 29.828,-4.287 9.383,7.321 11.241,21.111 4.151,30.801 z"
         id="path2"
         inkscape:connector-curvature="0" /><g
         id="g6"><path
           d="M 214.461,253.595 195.54,279.45 157.327,268.057 c -5.718,-1.705 -11.691,1.7 -13.342,7.604 l -0.448,1.602 c -1.651,5.904 1.646,12.073 7.364,13.777 l 53.488,15.998 21.58,-29.488 z"
           id="path4"
           inkscape:connector-curvature="0" /></g><g
         id="g10"><path
           d="m 349.781,252.237 -26.867,-7.241 -13.017,-27.098 -15.612,21.334 10.48,21.816 0.009,-0.005 c 1.358,2.691 3.769,4.803 6.837,5.629 l 32.32,8.711 c 5.758,1.552 11.645,-2.01 13.148,-7.956 l 0.408,-1.614 c 1.502,-5.945 -1.948,-12.023 -7.706,-13.576 z"
           id="path8"
           inkscape:connector-curvature="0" /></g><path
         d="m 268.952,179.133 -41.519,-8.146 c 0,0 -9.699,13.254 -12.099,16.533 l -20.138,27.518 c -3.588,4.903 -2.647,11.881 2.101,15.586 l 1.289,1.006 c 1.944,1.517 4.226,2.25 6.488,2.25 3.263,0 6.487,-1.524 8.605,-4.419 l 23.563,-32.199 16.127,3.164 -31.544,43.104 29.318,61.031 -25.541,34.901 c -3.588,4.903 -2.647,11.881 2.101,15.586 l 1.289,1.006 c 1.944,1.517 4.226,2.25 6.488,2.25 3.263,0 6.487,-1.524 8.605,-4.419 l 28.584,-39.059 c 1.297,-1.772 5.594,-7.644 5.594,-7.644 l -18.627,-38.777 45.006,-61.499 -35.655,-27.822 z"
         id="path12"
         inkscape:connector-curvature="0" /></g></g><path
     inkscape:connector-curvature="0"
     d="m 42.400103,100.73841 -22.620442,-8.697662 30.730241,-28.00685 9.663405,20.50299 z m 225.955817,20.14295 -31.07204,18.94914 v 37.8983 l 31.07204,18.94915 z m -72.5014,-18.94916 h -72.68785 l 8.1823,7.4565 c 3.68721,3.36346 6.51478,7.28594 8.60696,11.49266 h 50.71992 c 2.85861,0 5.17867,2.1223 5.17867,4.73728 v 66.32203 c 0,2.61499 -2.32006,4.73728 -5.17867,4.73728 H 76.745061 c -2.858623,0 -5.178691,-2.12229 -5.178691,-4.73728 v -27.56153 l -0.18642,-0.13265 -20.528255,-18.71228 v 51.14377 c 0,10.45993 9.280183,18.94916 20.714675,18.94916 h 124.28815 c 11.43449,0 20.71469,-8.48923 20.71469,-18.94916 v -75.79661 c 0,-10.45993 -9.2802,-18.94913 -20.71469,-18.94913 z M 44.119421,112.63847 74.849668,84.631618 116.73477,122.8047 c 8.48266,7.73125 8.48266,20.27558 0,28.00683 -8.48269,7.73126 -22.237236,7.7218 -30.73025,0 z"
     id="path2-9"
     style="stroke-width:9.90613174" /></svg>