<?xml version="1.0" encoding="UTF-8" standalone="no"?>
<svg
   xmlns:dc="http://purl.org/dc/elements/1.1/"
   xmlns:cc="http://creativecommons.org/ns#"
   xmlns:rdf="http://www.w3.org/1999/02/22-rdf-syntax-ns#"
   xmlns:svg="http://www.w3.org/2000/svg"
   xmlns="http://www.w3.org/2000/svg"
   xmlns:sodipodi="http://sodipodi.sourceforge.net/DTD/sodipodi-0.dtd"
   xmlns:inkscape="http://www.inkscape.org/namespaces/inkscape"
   fill="#000000"
   height="24"
   viewBox="0 0 24 24"
   width="24"
   version="1.1"
   id="svg6"
   sodipodi:docname="video-stream-viewer.svg"
   inkscape:version="0.92.2 (5c3e80d, 2017-08-06)">
  <metadata
     id="metadata12">
    <rdf:RDF>
      <cc:Work
         rdf:about="">
        <dc:format>image/svg+xml</dc:format>
        <dc:type
           rdf:resource="http://purl.org/dc/dcmitype/StillImage" />
        <dc:title></dc:title>
      </cc:Work>
    </rdf:RDF>
  </metadata>
  <defs
     id="defs10" />
  <sodipodi:namedview
     pagecolor="#ffffff"
     bordercolor="#666666"
     borderopacity="1"
     objecttolerance="10"
     gridtolerance="10"
     guidetolerance="10"
     inkscape:pageopacity="0"
     inkscape:pageshadow="2"
     inkscape:window-width="879"
     inkscape:window-height="480"
     id="namedview8"
     showgrid="false"
     inkscape:zoom="9.8333333"
     inkscape:cx="12"
     inkscape:cy="12"
     inkscape:window-x="66"
     inkscape:window-y="51"
     inkscape:window-maximized="0"
     inkscape:current-layer="svg6" />
  <path
     d="M0 0h24v24H0z"
     fill="none"
     id="path2" />
  <path
     d="M 13.632768,15.699152 V 12.822034 C 13.632768,12.369915 13.2387,12 12.757062,12 H 2.2485876 c -0.4816384,0 -0.8757062,0.369915 -0.8757062,0.822034 v 8.220339 c 0,0.452119 0.3940678,0.822034 0.8757062,0.822034 H 12.757062 c 0.481638,0 0.875706,-0.369915 0.875706,-0.822034 v -2.877119 l 3.502825,3.288136 v -9.042373 z"
     id="path4"
     inkscape:connector-curvature="0"
     style="stroke-width:0.84844571" />
  <path
     d="m 21.437605,2.6606264 c -0.774274,-0.8123871 -1.544259,-2.85504062 -0.560204,-2.58178172 0.884946,0.2457384 0.06355,0.7859304 1.311625,1.96149302 1.052028,0.9908987 2.119143,0.6702391 2.045124,1.551645 C 24.14918,4.2497616 22.209969,3.471008 21.437605,2.6606264 Z M 24.470298,8.265354 24.430528,5.7424588 C 21.183845,5.7665328 18.508819,3.2407937 18.425642,0.07241478 l -2.584621,0.045055 c 0.105214,4.56695802 3.949403,8.19694312 8.629274,8.14788382 z m 0.02786,1.766184 C 18.820908,10.106375 14.150894,5.7039687 14.046759,0.14874818 l -2.58462,0.045055 C 11.587518,7.13188 17.430714,12.654722 24.53786,12.554958 Z"
     id="path2-5"
     inkscape:connector-curvature="0"
     sodipodi:nodetypes="ssscscccccccccc"
     style="stroke-width:0.53051984" />
</svg>
