<?xml version="1.0" encoding="UTF-8" standalone="no"?>
<!-- Generated by IcoMoon.io -->

<svg
   xmlns:dc="http://purl.org/dc/elements/1.1/"
   xmlns:cc="http://creativecommons.org/ns#"
   xmlns:rdf="http://www.w3.org/1999/02/22-rdf-syntax-ns#"
   xmlns:svg="http://www.w3.org/2000/svg"
   xmlns="http://www.w3.org/2000/svg"
   xmlns:sodipodi="http://sodipodi.sourceforge.net/DTD/sodipodi-0.dtd"
   xmlns:inkscape="http://www.inkscape.org/namespaces/inkscape"
   version="1.1"
   width="32"
   height="32"
   viewBox="0 0 32 32"
   id="svg6"
   sodipodi:docname="voice-phone-settings.svg"
   inkscape:version="0.92.4 (5da689c313, 2019-01-14)">
  <metadata
     id="metadata12">
    <rdf:RDF>
      <cc:Work
         rdf:about="">
        <dc:format>image/svg+xml</dc:format>
        <dc:type
           rdf:resource="http://purl.org/dc/dcmitype/StillImage" />
        <dc:title>phone</dc:title>
      </cc:Work>
    </rdf:RDF>
  </metadata>
  <defs
     id="defs10" />
  <sodipodi:namedview
     pagecolor="#ffffff"
     bordercolor="#666666"
     borderopacity="1"
     objecttolerance="10"
     gridtolerance="10"
     guidetolerance="10"
     inkscape:pageopacity="0"
     inkscape:pageshadow="2"
     inkscape:window-width="1596"
     inkscape:window-height="869"
     id="namedview8"
     showgrid="false"
     inkscape:zoom="7.375"
     inkscape:cx="16"
     inkscape:cy="16"
     inkscape:window-x="471"
     inkscape:window-y="520"
     inkscape:window-maximized="0"
     inkscape:current-layer="svg6" />
  <title
     id="title2">phone</title>
  <path
     d="M22 20c-2 2-2 4-4 4s-4-2-6-4-4-4-4-6 2-2 4-4-4-8-6-8-6 6-6 6c0 4 4.109 12.109 8 16s12 8 16 8c0 0 6-4 6-6s-6-8-8-6z"
     id="path4" />
  <path
     inkscape:connector-curvature="0"
     d="M 31.932203,11.005288 V 7.8421695 C 30.488068,7.288226 30.099469,7.2621921 29.897102,6.736452 29.69339,6.2092656 29.952902,5.8910735 30.609085,4.405695 L 28.52961,2.1689493 C 27.167497,2.8653561 26.856887,3.1553448 26.362062,2.9347798 25.873288,2.7163844 25.845723,2.2918872 25.335435,0.74576292 H 22.394051 C 21.880401,2.2962262 21.856198,2.7163844 21.366079,2.9347798 20.860497,3.1611301 20.557282,2.8624638 19.199203,2.1689493 L 17.119729,4.405695 c 0.656853,1.4861017 0.915695,1.8028474 0.711983,2.3314802 -0.20304,0.5257401 -0.592311,0.5524972 -2.035102,1.1049943 v 3.1638415 c 1.438085,0.549605 1.832062,0.578531 2.035102,1.104995 0.204384,0.530802 -0.05446,0.843932 -0.711983,2.330757 l 2.079474,2.236746 c 1.343961,-0.687006 1.660622,-0.992904 2.166876,-0.765831 0.489446,0.218396 0.51365,0.636384 1.027972,2.189017 h 2.940712 c 0.509615,-1.541062 0.53718,-1.969175 1.03335,-2.19191 0.500876,-0.222734 0.797367,0.07159 2.161497,0.768 l 2.079475,-2.236745 c -0.655509,-1.482486 -0.915695,-1.802125 -0.711983,-2.330757 0.201694,-0.525017 0.591638,-0.551774 2.035101,-1.104995 z m -3.277542,0.552497 c -0.387927,1.008091 -0.04572,1.777537 0.32809,2.587481 l -0.728791,0.783909 c -0.734842,-0.392678 -1.452875,-0.778124 -2.402186,-0.35435 -0.938554,0.420158 -1.203446,1.224316 -1.471028,2.080542 H 23.349412 C 23.08183,15.798418 22.81761,14.99426 21.881746,14.576271 c -0.954017,-0.42522 -1.685498,-0.03254 -2.406221,0.352904 l -0.728118,-0.783909 c 0.37448,-0.808498 0.716689,-1.576498 0.327418,-2.588927 -0.389271,-1.005921 -1.136887,-1.290124 -1.933582,-1.5779435 V 8.8697854 c 0.796695,-0.2878193 1.544311,-0.5720226 1.932909,-1.5793899 0.388599,-1.0080904 0.04572,-1.7782599 -0.32809,-2.5882034 l 0.728791,-0.7839096 c 0.727446,0.3890622 1.453548,0.7788475 2.406893,0.352904 0.935864,-0.4172656 1.200084,-1.2221468 1.467666,-2.0790959 h 1.031334 c 0.267582,0.8569491 0.532474,1.6611072 1.468339,2.0790959 0.954017,0.4252203 1.684824,0.032542 2.40622,-0.352904 l 0.728791,0.7839096 c -0.373808,0.8106667 -0.716017,1.5815594 -0.328091,2.5889266 0.387927,1.0059209 1.135543,1.2901243 1.93291,1.5786667 V 9.9791187 C 29.790203,10.266938 29.041243,10.551141 28.654661,11.557785 Z M 23.864407,7.2542373 c 1.112011,0 2.016949,0.9733786 2.016949,2.1694916 0,1.1961131 -0.904938,2.1694911 -2.016949,2.1694911 -1.112012,0 -2.01695,-0.973378 -2.01695,-2.1694911 0,-1.196113 0.904938,-2.1694916 2.01695,-2.1694916 z m 0,-1.4463277 c -1.856938,0 -3.361582,1.6184407 -3.361582,3.6158193 0,1.9973781 1.504644,3.6158191 3.361582,3.6158191 1.856937,0 3.361582,-1.618441 3.361582,-3.6158191 0,-1.9973786 -1.504645,-3.6158193 -3.361582,-3.6158193 z"
     id="path2"
     style="stroke-width:0.69727677" />
</svg>
