<?xml version="1.0" encoding="UTF-8" standalone="no"?>
<svg
   xmlns:dc="http://purl.org/dc/elements/1.1/"
   xmlns:cc="http://creativecommons.org/ns#"
   xmlns:rdf="http://www.w3.org/1999/02/22-rdf-syntax-ns#"
   xmlns:svg="http://www.w3.org/2000/svg"
   xmlns="http://www.w3.org/2000/svg"
   xmlns:sodipodi="http://sodipodi.sourceforge.net/DTD/sodipodi-0.dtd"
   xmlns:inkscape="http://www.inkscape.org/namespaces/inkscape"
   width="24"
   height="24"
   viewBox="0 0 24 24"
   version="1.1"
   id="svg4"
   sodipodi:docname="cam-stop.svg"
   inkscape:version="0.92.4 (5da689c313, 2019-01-14)">
  <metadata
     id="metadata10">
    <rdf:RDF>
      <cc:Work
         rdf:about="">
        <dc:format>image/svg+xml</dc:format>
        <dc:type
           rdf:resource="http://purl.org/dc/dcmitype/StillImage" />
        <dc:title></dc:title>
      </cc:Work>
    </rdf:RDF>
  </metadata>
  <defs
     id="defs8" />
  <sodipodi:namedview
     pagecolor="#ffffff"
     bordercolor="#666666"
     borderopacity="1"
     objecttolerance="10"
     gridtolerance="10"
     guidetolerance="10"
     inkscape:pageopacity="0"
     inkscape:pageshadow="2"
     inkscape:window-width="1888"
     inkscape:window-height="848"
     id="namedview6"
     showgrid="false"
     inkscape:zoom="9.8333333"
     inkscape:cx="-23.847458"
     inkscape:cy="12"
     inkscape:window-x="0"
     inkscape:window-y="0"
     inkscape:window-maximized="0"
     inkscape:current-layer="svg4" />
  <path
     d="m 7.2203598,1.7288135 c -3.6229437,0 -6.55934286,2.8858513 -6.55934286,6.4448288 0,3.5596937 2.93639916,6.4448287 6.55934286,6.4448287 3.6229442,0 6.5593432,-2.885851 6.5593432,-6.4448287 0,-3.5589775 -2.936399,-6.4448288 -6.5593432,-6.4448288 z m 0,9.3091975 c -1.6099543,0 -2.9152635,-1.2825207 -2.9152635,-2.8643687 0,-1.581847 1.3053092,-2.864368 2.9152635,-2.864368 1.6099541,0 2.9152632,1.282521 2.9152632,2.864368 0,1.581848 -1.3053091,2.8643687 -2.9152632,2.8643687 z M 8.6779919,8.1736423 c 0,0.78985 -0.653019,1.432184 -1.4576321,1.432184 -0.8038839,0 -1.4576318,-0.642334 -1.4576318,-1.432184 0,-0.789849 0.6537479,-1.432184 1.4576318,-1.432184 0.8046131,0 1.4576321,0.642335 1.4576321,1.432184 z m 4.8072691,8.9518667 c 0.73246,0.816345 -0.0073,1.917695 -1.055325,1.776625 -1.308225,-0.175443 -2.358448,-1.218789 -5.2088474,-1.218789 -2.8503989,0 -3.9006226,1.044062 -5.2088471,1.218789 -1.04876596,0.14107 -1.78851405,-0.960996 -1.05532536,-1.776625 L 2.9932277,14.854781 c 1.2295124,0.753329 2.6747543,1.195874 4.2271321,1.195874 1.5523781,0 2.9976202,-0.443261 4.2271322,-1.19659 z"
     id="path2"
     inkscape:connector-curvature="0"
     style="stroke-width:0.722426" />
  <path
     inkscape:connector-curvature="0"
     d="m 23.491525,20.657492 v 2.427254 h -2.337357 l -2.950779,-3.064271 -2.95078,3.064271 h -2.337356 v -2.427254 l 2.95078,-3.064271 -2.95078,-3.064272 v -2.427254 h 2.337356 l 2.95078,3.064271 2.950779,-3.064271 h 2.337357 v 2.427254 l -2.95078,3.064272 z"
     id="path4"
     style="stroke-width:0.8981452" />
</svg>
