<?xml version="1.0" encoding="UTF-8" standalone="no"?>
<svg
   xmlns:dc="http://purl.org/dc/elements/1.1/"
   xmlns:cc="http://creativecommons.org/ns#"
   xmlns:rdf="http://www.w3.org/1999/02/22-rdf-syntax-ns#"
   xmlns:svg="http://www.w3.org/2000/svg"
   xmlns="http://www.w3.org/2000/svg"
   xmlns:sodipodi="http://sodipodi.sourceforge.net/DTD/sodipodi-0.dtd"
   xmlns:inkscape="http://www.inkscape.org/namespaces/inkscape"
   width="24"
   height="24"
   viewBox="0 0 24 24"
   version="1.1"
   id="svg4"
   sodipodi:docname="webcam-client.svg"
   inkscape:version="0.92.2 (5c3e80d, 2017-08-06)">
  <metadata
     id="metadata10">
    <rdf:RDF>
      <cc:Work
         rdf:about="">
        <dc:format>image/svg+xml</dc:format>
        <dc:type
           rdf:resource="http://purl.org/dc/dcmitype/StillImage" />
        <dc:title></dc:title>
      </cc:Work>
    </rdf:RDF>
  </metadata>
  <defs
     id="defs8" />
  <sodipodi:namedview
     pagecolor="#ffffff"
     bordercolor="#666666"
     borderopacity="1"
     objecttolerance="10"
     gridtolerance="10"
     guidetolerance="10"
     inkscape:pageopacity="0"
     inkscape:pageshadow="2"
     inkscape:window-width="1354"
     inkscape:window-height="694"
     id="namedview6"
     showgrid="false"
     inkscape:zoom="9.8333333"
     inkscape:cx="12"
     inkscape:cy="12"
     inkscape:window-x="67"
     inkscape:window-y="83"
     inkscape:window-maximized="0"
     inkscape:current-layer="svg4" />
  <path
     d="M 8.5932495,8.6440678 C 5.5039113,8.6440678 3,11.222536 3,14.402433 c 0,3.180537 2.5039113,5.758365 5.5932495,5.758365 3.0893385,0 5.5932495,-2.578468 5.5932495,-5.758365 0,-3.179897 -2.503911,-5.7583652 -5.5932495,-5.7583652 z m 0,8.3176382 c -1.3728321,0 -2.4858887,-1.145915 -2.4858887,-2.559273 0,-1.413359 1.1130566,-2.559274 2.4858887,-2.559274 1.372832,0 2.4858885,1.145915 2.4858885,2.559274 0,1.413358 -1.1130565,2.559273 -2.4858885,2.559273 z m 1.2429443,-2.559273 c 0,0.705719 -0.5568391,1.279636 -1.2429443,1.279636 -0.6854838,0 -1.2429444,-0.573917 -1.2429444,-1.279636 0,-0.70572 0.5574606,-1.279637 1.2429444,-1.279637 0.6861052,0 1.2429443,0.573917 1.2429443,1.279637 z m 4.0992302,7.998369 c 0.62458,0.729393 -0.0062,1.713433 -0.899892,1.587389 -1.115542,-0.156756 -2.011083,-1.088971 -4.4416611,-1.088971 -2.4305776,0 -3.326119,0.932855 -4.4416615,1.088971 -0.8942985,0.126044 -1.5250927,-0.858636 -0.8998917,-1.587389 l 1.7363932,-2.028864 c 1.0484236,0.673089 2.2808028,1.068496 3.6045386,1.068496 1.3237357,0 2.5561145,-0.396047 3.6045385,-1.069136 z"
     id="path2"
     inkscape:connector-curvature="0"
     style="stroke-width:0.63057852" />
  <path
     d="m 21.132337,2.4710316 c -0.774274,-0.8123871 -1.544259,-2.85504059 -0.560204,-2.5817817 0.884946,0.24573835 0.06355,0.78593042 1.311625,1.961493 1.052028,0.9908987 2.119143,0.6702391 2.045124,1.551645 -0.08497,0.6577789 -2.024181,-0.1209747 -2.796545,-0.9313563 z M 24.16503,8.0757592 24.125264,5.552864 c -3.246687,0.024074 -5.921713,-2.5016651 -6.00489,-5.67004397 l -2.584621,0.04505536 c 0.105214,4.56695801 3.949403,8.19694311 8.629274,8.14788381 z m 0.02786,1.7661839 C 18.51564,9.9167804 13.845626,5.5143739 13.741491,-0.0408466 l -2.58462,0.04505535 C 11.28225,6.9422856 17.125446,12.465128 24.232592,12.365364 Z"
     id="path2-5"
     inkscape:connector-curvature="0"
     sodipodi:nodetypes="ssscscccccccccc"
     style="stroke-width:0.53051984" />
</svg>
