<?xml version="1.0" encoding="UTF-8" standalone="no"?>
<svg
   xmlns:dc="http://purl.org/dc/elements/1.1/"
   xmlns:cc="http://creativecommons.org/ns#"
   xmlns:rdf="http://www.w3.org/1999/02/22-rdf-syntax-ns#"
   xmlns:svg="http://www.w3.org/2000/svg"
   xmlns="http://www.w3.org/2000/svg"
   xmlns:sodipodi="http://sodipodi.sourceforge.net/DTD/sodipodi-0.dtd"
   xmlns:inkscape="http://www.inkscape.org/namespaces/inkscape"
   width="24"
   height="24"
   viewBox="0 0 24 24"
   version="1.1"
   id="svg4"
   sodipodi:docname="wireless-key.svg"
   inkscape:version="0.92.4 (5da689c313, 2019-01-14)">
  <metadata
     id="metadata10">
    <rdf:RDF>
      <cc:Work
         rdf:about="">
        <dc:format>image/svg+xml</dc:format>
        <dc:type
           rdf:resource="http://purl.org/dc/dcmitype/StillImage" />
        <dc:title></dc:title>
      </cc:Work>
    </rdf:RDF>
  </metadata>
  <defs
     id="defs8" />
  <sodipodi:namedview
     pagecolor="#ffffff"
     bordercolor="#666666"
     borderopacity="1"
     objecttolerance="10"
     gridtolerance="10"
     guidetolerance="10"
     inkscape:pageopacity="0"
     inkscape:pageshadow="2"
     inkscape:window-width="2418"
     inkscape:window-height="1264"
     id="namedview6"
     showgrid="false"
     inkscape:zoom="9.8333333"
     inkscape:cx="-23.847458"
     inkscape:cy="12"
     inkscape:window-x="503"
     inkscape:window-y="36"
     inkscape:window-maximized="0"
     inkscape:current-layer="svg4" />
  <path
     d="M 0.80015098,4.9630299 C 3.1814773,2.3325893 6.4716002,0.70561299 10.105236,0.70561299 c 3.634411,0 6.923758,1.62697631 9.305084,4.25741691 L 17.829232,6.7085384 C 15.852676,4.5262469 13.121634,3.1753045 10.105236,3.1753045 c -3.0163986,0 -5.7474409,1.3509424 -7.723996,3.5332339 z M 5.2355747,9.86182 c 1.246106,-1.3769223 2.9675466,-2.2277562 4.8696613,-2.2277562 1.902114,0 3.623555,0.8508339 4.869661,2.2277562 L 16.597859,8.0692232 C 14.936126,6.2335977 12.640871,5.0986113 10.105236,5.0986113 c -2.5356358,0 -4.8308901,1.1349864 -6.4926231,2.9706119 z m 2.8365,3.132985 c 0.5203094,-0.5748 1.2391271,-0.929585 2.0331613,-0.929585 0.793258,0 1.512851,0.354785 2.033161,0.929585 l 1.595046,-1.761746 C 12.805261,10.207674 11.52271,9.573608 10.106011,9.573608 c -1.416699,0 -2.6992498,0.634878 -3.627432,1.659451 z m 2.0331613,0.825666 c -0.8235003,0 -1.4911401,0.699015 -1.4911401,1.561215 0,0.8622 0.6676398,1.561215 1.4911401,1.561215 0.8235,0 1.49114,-0.699015 1.49114,-1.561215 0,-0.8622 -0.66764,-1.561215 -1.49114,-1.561215 z"
     id="path2"
     inkscape:connector-curvature="0"
     style="stroke-width:0.79343492" />
  <path
     inkscape:connector-curvature="0"
     d="m 23.239533,19.5965 c 0,2.284622 -1.863131,4.11017 -4.08803,4.11017 -1.35994,0 -2.58919,-0.767653 -3.370178,-1.897001 h -1.819567 l -0.660399,-0.640555 -0.822025,0.644348 -0.859907,-0.679759 -0.888318,0.683553 -2.6441188,-2.180287 2.1125178,-2.253637 h 5.581817 c 0.722903,-1.064218 1.959729,-1.897001 3.37081,-1.897001 2.207851,0 4.087398,1.812268 4.087398,4.110169 z m -6.749826,0.9485 c 0.618729,1.056631 1.437597,1.897003 2.662428,1.897003 1.52283,0 2.824686,-1.255816 2.824686,-2.845503 0,-1.57957 -1.290491,-2.845502 -2.827843,-2.845502 -1.297437,0 -2.078424,0.906135 -2.659271,1.897001 h -5.743445 l -0.8163434,0.870092 0.8283394,0.683552 0.871271,-0.670905 0.852962,0.674068 0.907258,-0.710111 1.082776,1.050305 z m 3.593046,-1.976042 c 0.522763,0 0.947034,0.424928 0.947034,0.948501 0,0.523571 -0.424271,0.9485 -0.947034,0.9485 -0.522762,0 -0.947034,-0.424929 -0.947034,-0.9485 0,-0.523573 0.424272,-0.948501 0.947034,-0.948501 z"
     id="path18"
     style="stroke-width:0.63184464" />
</svg>
