<?xml version="1.0" encoding="UTF-8" standalone="no"?>
<svg
   xmlns:dc="http://purl.org/dc/elements/1.1/"
   xmlns:cc="http://creativecommons.org/ns#"
   xmlns:rdf="http://www.w3.org/1999/02/22-rdf-syntax-ns#"
   xmlns:svg="http://www.w3.org/2000/svg"
   xmlns="http://www.w3.org/2000/svg"
   xmlns:sodipodi="http://sodipodi.sourceforge.net/DTD/sodipodi-0.dtd"
   xmlns:inkscape="http://www.inkscape.org/namespaces/inkscape"
   width="24"
   height="24"
   viewBox="0 0 24 24"
   version="1.1"
   id="svg4"
   sodipodi:docname="wireless-setup.svg"
   inkscape:version="0.92.4 (5da689c313, 2019-01-14)">
  <metadata
     id="metadata10">
    <rdf:RDF>
      <cc:Work
         rdf:about="">
        <dc:format>image/svg+xml</dc:format>
        <dc:type
           rdf:resource="http://purl.org/dc/dcmitype/StillImage" />
        <dc:title></dc:title>
      </cc:Work>
    </rdf:RDF>
  </metadata>
  <defs
     id="defs8" />
  <sodipodi:namedview
     pagecolor="#ffffff"
     bordercolor="#666666"
     borderopacity="1"
     objecttolerance="10"
     gridtolerance="10"
     guidetolerance="10"
     inkscape:pageopacity="0"
     inkscape:pageshadow="2"
     inkscape:window-width="1723"
     inkscape:window-height="1040"
     id="namedview6"
     showgrid="false"
     inkscape:zoom="9.8333333"
     inkscape:cx="12"
     inkscape:cy="12"
     inkscape:window-x="503"
     inkscape:window-y="36"
     inkscape:window-maximized="0"
     inkscape:current-layer="svg4" />
  <path
     d="M 0.80015098,4.9630299 C 3.1814773,2.3325893 6.4716002,0.70561299 10.105236,0.70561299 c 3.634411,0 6.923758,1.62697631 9.305084,4.25741691 L 17.829232,6.7085384 C 15.852676,4.5262469 13.121634,3.1753045 10.105236,3.1753045 c -3.0163986,0 -5.7474409,1.3509424 -7.723996,3.5332339 z M 5.2355747,9.86182 c 1.246106,-1.3769223 2.9675466,-2.2277562 4.8696613,-2.2277562 1.902114,0 3.623555,0.8508339 4.869661,2.2277562 L 16.597859,8.0692232 C 14.936126,6.2335977 12.640871,5.0986113 10.105236,5.0986113 c -2.5356358,0 -4.8308901,1.1349864 -6.4926231,2.9706119 z m 2.8365,3.132985 c 0.5203094,-0.5748 1.2391271,-0.929585 2.0331613,-0.929585 0.793258,0 1.512851,0.354785 2.033161,0.929585 l 1.595046,-1.761746 C 12.805261,10.207674 11.52271,9.573608 10.106011,9.573608 c -1.416699,0 -2.6992498,0.634878 -3.627432,1.659451 z m 2.0331613,0.825666 c -0.8235003,0 -1.4911401,0.699015 -1.4911401,1.561215 0,0.8622 0.6676398,1.561215 1.4911401,1.561215 0.8235,0 1.49114,-0.699015 1.49114,-1.561215 0,-0.8622 -0.66764,-1.561215 -1.49114,-1.561215 z"
     id="path2"
     inkscape:connector-curvature="0"
     style="stroke-width:0.79343492" />
  <path
     id="path3715"
     d="m 23.239186,18.950369 v -1.861638 c -0.979513,-0.326018 -1.243087,-0.341341 -1.380347,-0.650763 -0.138172,-0.310273 0.03785,-0.497541 0.482917,-1.371753 l -1.410444,-1.316424 c -0.923879,0.409865 -1.134557,0.580538 -1.470182,0.450724 -0.331521,-0.128535 -0.350218,-0.378369 -0.696329,-1.288332 h -1.995052 c -0.348393,0.912516 -0.364809,1.159797 -0.697241,1.288332 -0.342921,0.133218 -0.548582,-0.04255 -1.469725,-0.450724 l -1.410445,1.316424 c 0.445524,0.874636 0.621088,1.061055 0.482917,1.372179 -0.137716,0.309421 -0.401747,0.325169 -1.380348,0.650337 v 1.862063 c 0.975409,0.323466 1.242632,0.340491 1.380348,0.650338 0.138627,0.3124 -0.03694,0.496692 -0.482917,1.371753 l 1.410445,1.316425 c 0.911567,-0.404333 1.126348,-0.584368 1.469725,-0.450725 0.331976,0.128536 0.348393,0.37454 0.697241,1.288333 h 1.994595 c 0.345657,-0.906984 0.364354,-1.158947 0.700891,-1.290036 0.339728,-0.131089 0.540829,0.04213 1.466077,0.452002 l 1.410445,-1.316424 c -0.444611,-0.872508 -0.621088,-1.06063 -0.482917,-1.371754 0.136804,-0.308996 0.401291,-0.324743 1.380346,-0.650337 z m -2.223056,0.325168 c -0.263119,0.593306 -0.03101,1.04616 0.222534,1.522846 l -0.494318,0.461366 c -0.49842,-0.231107 -0.98544,-0.45796 -1.629329,-0.20855 -0.636592,0.247282 -0.816261,0.720565 -0.997754,1.224492 h -0.699521 c -0.181492,-0.504354 -0.360706,-0.977635 -0.995474,-1.223641 -0.64708,-0.250261 -1.143221,-0.01916 -1.632065,0.207699 l -0.49386,-0.461366 c 0.253998,-0.475835 0.486107,-0.927837 0.222076,-1.523697 -0.26403,-0.592029 -0.771114,-0.759295 -1.311489,-0.92869 V 17.69353 c 0.540375,-0.169395 1.047459,-0.336661 1.311034,-0.929541 0.263575,-0.593306 0.03101,-1.046584 -0.222534,-1.523272 l 0.494316,-0.461366 c 0.493406,0.228981 0.985898,0.458386 1.632522,0.207699 0.634769,-0.245578 0.813982,-0.719287 0.995474,-1.223639 h 0.699521 c 0.181493,0.504352 0.361162,0.977636 0.995931,1.223639 0.64708,0.250263 1.142764,0.01916 1.632066,-0.207699 l 0.494315,0.461366 c -0.253541,0.477113 -0.485652,0.930817 -0.222533,1.523697 0.263118,0.59203 0.770203,0.759295 1.311034,0.929116 v 0.652891 c -0.541741,0.169396 -1.049738,0.336661 -1.311946,0.929116 z m -3.249082,-2.532829 c 0.754243,0 1.368034,0.572877 1.368034,1.276842 0,0.703965 -0.613791,1.276843 -1.368034,1.276843 -0.754244,0 -1.368035,-0.572878 -1.368035,-1.276843 0,-0.703965 0.613791,-1.276842 1.368035,-1.276842 z m 0,-0.851228 c -1.259506,0 -2.280059,0.952525 -2.280059,2.12807 0,1.175547 1.020553,2.12807 2.280059,2.12807 1.259503,0 2.280057,-0.952523 2.280057,-2.12807 0,-1.175545 -1.020554,-2.12807 -2.280057,-2.12807 z"
     inkscape:connector-curvature="0"
     style="stroke-width:0.44055071" />
</svg>
