<?xml version="1.0" encoding="UTF-8" standalone="no"?>
<svg
   xmlns:dc="http://purl.org/dc/elements/1.1/"
   xmlns:cc="http://creativecommons.org/ns#"
   xmlns:rdf="http://www.w3.org/1999/02/22-rdf-syntax-ns#"
   xmlns:svg="http://www.w3.org/2000/svg"
   xmlns="http://www.w3.org/2000/svg"
   xmlns:sodipodi="http://sodipodi.sourceforge.net/DTD/sodipodi-0.dtd"
   xmlns:inkscape="http://www.inkscape.org/namespaces/inkscape"
   width="48"
   height="48"
   viewBox="0 0 48.000002 47.999999"
   version="1.1"
   id="svg4"
   sodipodi:docname="wireless-setup.svg"
   inkscape:version="0.92.4 (5da689c313, 2019-01-14)">
  <metadata
     id="metadata10">
    <rdf:RDF>
      <cc:Work
         rdf:about="">
        <dc:format>image/svg+xml</dc:format>
        <dc:type
           rdf:resource="http://purl.org/dc/dcmitype/StillImage" />
        <dc:title></dc:title>
      </cc:Work>
    </rdf:RDF>
  </metadata>
  <defs
     id="defs8" />
  <sodipodi:namedview
     pagecolor="#ffffff"
     bordercolor="#666666"
     borderopacity="1"
     objecttolerance="10"
     gridtolerance="10"
     guidetolerance="10"
     inkscape:pageopacity="0"
     inkscape:pageshadow="2"
     inkscape:window-width="2093"
     inkscape:window-height="1263"
     id="namedview6"
     showgrid="false"
     inkscape:zoom="19.666667"
     inkscape:cx="29.131877"
     inkscape:cy="23.604497"
     inkscape:window-x="1095"
     inkscape:window-y="159"
     inkscape:window-maximized="0"
     inkscape:current-layer="svg4"
     units="px" />
  <path
     d="M 0.64760859,9.1082399 C 5.6128571,3.5710913 12.473016,0.14625216 20.049427,0.14625216 c 7.578026,0 14.436568,3.42483914 19.401815,8.96198774 l -3.29669,3.6743491 C 32.033281,8.1887858 26.338849,5.345018 20.049427,5.345018 c -6.289424,0 -11.9838569,2.8437678 -16.1051262,7.437571 z M 9.8958081,19.420332 c 2.5982269,-2.898457 6.1875629,-4.689498 10.1536189,-4.689498 3.966054,0 7.555391,1.791041 10.153617,4.689498 l 3.384001,-3.773475 C 30.122204,11.782826 25.336421,9.3936403 20.049427,9.3936403 c -5.286996,0 -10.072778,2.3891857 -13.537619,6.2532167 z m 5.9143209,6.59501 c 1.084885,-1.209971 2.583675,-1.956793 4.239298,-1.956793 1.654004,0 3.15441,0.746822 4.239297,1.956793 l 3.325793,-3.708513 c -1.935331,-2.158474 -4.609548,-3.493188 -7.563475,-3.493188 -2.953926,0 -5.628143,1.336418 -7.563474,3.493188 z m 4.239298,1.738059 c -1.717062,0 -3.109142,1.471434 -3.109142,3.286391 0,1.814954 1.39208,3.286411 3.109142,3.286411 1.717061,0 3.109142,-1.471457 3.109142,-3.286411 0,-1.814957 -1.392081,-3.286391 -3.109142,-3.286391 z"
     id="path2"
     inkscape:connector-curvature="0"
     style="stroke-width:1.662269" />
  <path
     id="path3715"
     d="m 46.268493,38.970842 v -4.020739 c -2.04236,-0.704135 -2.591932,-0.737221 -2.87813,-1.405504 -0.2881,-0.670136 0.07892,-1.074599 1.00692,-2.962704 l -2.940886,-2.843184 c -1.926357,0.88521 -2.365638,1.253841 -3.065441,0.973458 -0.691248,-0.277598 -0.730232,-0.817198 -1.4519,-2.782515 H 32.77922 c -0.726428,1.970846 -0.760656,2.504917 -1.453801,2.782515 -0.715019,0.287728 -1.143837,-0.09201 -3.064492,-0.973458 l -2.940885,2.843184 c 0.928951,1.889034 1.295015,2.291661 1.006919,2.963612 -0.287149,0.66828 -0.837673,0.702297 -2.878131,1.404596 v 4.021646 c 2.033802,0.698625 2.590982,0.735385 2.878131,1.404596 0.289048,0.674715 -0.07702,1.072742 -1.006919,2.962685 l 2.940885,2.843202 c 1.900689,-0.873286 2.348524,-1.262112 3.064492,-0.973479 0.692194,0.277621 0.726426,0.808927 1.453801,2.782538 h 4.158882 c 0.720722,-1.958902 0.759708,-2.503082 1.461413,-2.78621 0.708358,-0.283125 1.127669,0.09094 3.056882,0.976224 l 2.940888,-2.843183 c -0.927049,-1.884435 -1.295018,-2.290733 -1.00692,-2.962707 0.285247,-0.667352 0.836723,-0.701369 2.878128,-1.404573 z m -4.635243,0.702276 c -0.548624,1.281423 -0.06466,2.25948 0.464,3.289028 l -1.030691,0.99646 c -1.039244,-0.499147 -2.054717,-0.989095 -3.397275,-0.450423 -1.327344,0.534071 -1.701968,1.556253 -2.080395,2.644635 h -1.458555 c -0.378425,-1.08931 -0.752098,-2.111492 -2.07564,-2.642798 -1.349211,-0.540509 -2.383703,-0.04148 -3.402981,0.448586 l -1.029736,-0.99646 c 0.529605,-1.02769 1.013571,-2.003934 0.463047,-3.290864 -0.550525,-1.278657 -1.607833,-1.639902 -2.734556,-2.005768 v -1.409176 c 1.126723,-0.365866 2.184031,-0.727111 2.733607,-2.007604 0.549573,-1.281422 0.06466,-2.26041 -0.464001,-3.289958 l 1.030686,-0.996437 c 1.028791,0.494548 2.055674,0.990002 3.403934,0.448586 1.323544,-0.530399 1.697215,-1.553511 2.07564,-2.642799 h 1.458555 c 0.378427,1.089288 0.753051,2.111472 2.076593,2.642799 1.349211,0.540509 2.382752,0.04148 3.402983,-0.448586 l 1.030685,0.996437 c -0.528652,1.030478 -1.012622,2.010371 -0.463998,3.290863 0.54862,1.27866 1.605933,1.639926 2.733607,2.006699 v 1.410103 c -1.129572,0.365845 -2.188785,0.727112 -2.735509,2.006677 z m -6.774586,-5.470345 c 1.572656,0 2.852455,1.237275 2.852455,2.757698 0,1.520403 -1.279799,2.7577 -2.852455,2.7577 -1.572657,0 -2.852459,-1.237297 -2.852459,-2.7577 0,-1.520423 1.279802,-2.757698 2.852459,-2.757698 z m 0,-1.838473 c -2.626166,0 -4.754099,2.057237 -4.754099,4.596171 0,2.538913 2.127933,4.596173 4.754099,4.596173 2.62616,0 4.754094,-2.05726 4.754094,-4.596173 0,-2.538934 -2.127934,-4.596171 -4.754094,-4.596171 z"
     inkscape:connector-curvature="0"
     style="stroke-width:0.93489355" />
</svg>
