<?xml version="1.0" encoding="UTF-8" standalone="no"?>
<!-- Generator: Adobe Illustrator 16.0.0, SVG Export Plug-In . SVG Version: 6.00 Build 0)  -->

<svg
   xmlns:dc="http://purl.org/dc/elements/1.1/"
   xmlns:cc="http://creativecommons.org/ns#"
   xmlns:rdf="http://www.w3.org/1999/02/22-rdf-syntax-ns#"
   xmlns:svg="http://www.w3.org/2000/svg"
   xmlns="http://www.w3.org/2000/svg"
   xmlns:sodipodi="http://sodipodi.sourceforge.net/DTD/sodipodi-0.dtd"
   xmlns:inkscape="http://www.inkscape.org/namespaces/inkscape"
   version="1.1"
   id="Capa_1"
   x="0px"
   y="0px"
   width="485.228px"
   height="485.228px"
   viewBox="0 0 485.228 485.228"
   style="enable-background:new 0 0 485.228 485.228;"
   xml:space="preserve"
   sodipodi:docname="zoom-out.svg"
   inkscape:version="0.92.4 (5da689c313, 2019-01-14)"><metadata
   id="metadata47"><rdf:RDF><cc:Work
       rdf:about=""><dc:format>image/svg+xml</dc:format><dc:type
         rdf:resource="http://purl.org/dc/dcmitype/StillImage" /><dc:title /></cc:Work></rdf:RDF></metadata><defs
   id="defs45" /><sodipodi:namedview
   pagecolor="#ffffff"
   bordercolor="#666666"
   borderopacity="1"
   objecttolerance="10"
   gridtolerance="10"
   guidetolerance="10"
   inkscape:pageopacity="0"
   inkscape:pageshadow="2"
   inkscape:window-width="1777"
   inkscape:window-height="997"
   id="namedview43"
   showgrid="false"
   inkscape:zoom="0.4863693"
   inkscape:cx="-482.14392"
   inkscape:cy="242.614"
   inkscape:window-x="2317"
   inkscape:window-y="387"
   inkscape:window-maximized="0"
   inkscape:current-layer="g8" />
<g
   id="g10">
	<g
   id="g8">
		<path
   d="M474.122,420.51l-91.811-91.839c-14.743,20.731-32.87,38.858-53.602,53.635l91.806,91.806    c14.805,14.813,38.793,14.813,53.606,0C488.93,459.308,488.93,435.318,474.122,420.51z"
   id="path2" />
		<path
   d="M394.221,197.125c0-108.864-88.254-197.119-197.103-197.119C88.252,0.006,0,88.261,0,197.125    s88.252,197.114,197.119,197.114C305.967,394.239,394.221,305.989,394.221,197.125z M197.119,348.754    c-83.606,0-151.631-68.027-151.631-151.629c0-83.606,68.025-151.629,151.631-151.629c83.613,0,151.608,68.022,151.608,151.629    C348.727,280.727,280.737,348.754,197.119,348.754z"
   id="path4" />
		
	<path
   inkscape:connector-curvature="0"
   d="m 94.690441,171.70827 v 53.40128 H 306.23948 v -53.40128 z"
   id="path2-9"
   style="stroke-width:26.57182121" /></g>
</g>
<g
   id="g12">
</g>
<g
   id="g14">
</g>
<g
   id="g16">
</g>
<g
   id="g18">
</g>
<g
   id="g20">
</g>
<g
   id="g22">
</g>
<g
   id="g24">
</g>
<g
   id="g26">
</g>
<g
   id="g28">
</g>
<g
   id="g30">
</g>
<g
   id="g32">
</g>
<g
   id="g34">
</g>
<g
   id="g36">
</g>
<g
   id="g38">
</g>
<g
   id="g40">
</g>
</svg>